solid model
facet normal 0.0 0.0 -1.0
outer loop
vertex -10.0 10.0 0.0
vertex -9.5 9.5 0.0
vertex -10.0 -10.0 0.0
endloop
endfacet
facet normal 0.0 0.0 -1.0
outer loop
vertex -9.5 9.5 0.0
vertex -10.0 10.0 0.0
vertex 10.0 10.0 0.0
endloop
endfacet
facet normal 0.0 0.0 -1.0
outer loop
vertex -9.5 9.5 0.0
vertex 10.0 10.0 0.0
vertex 9.5 9.5 0.0
endloop
endfacet
facet normal 0.0 0.0 -1.0
outer loop
vertex 9.5 9.5 0.0
vertex 10.0 10.0 0.0
vertex 9.5 -9.5 0.0
endloop
endfacet
facet normal 0.0 0.0 -1.0
outer loop
vertex -10.0 -10.0 0.0
vertex -9.5 -9.5 0.0
vertex 10.0 -10.0 0.0
endloop
endfacet
facet normal 0.0 0.0 -1.0
outer loop
vertex -9.5 -9.5 0.0
vertex -10.0 -10.0 0.0
vertex -9.5 9.5 0.0
endloop
endfacet
facet normal 0.0 0.0 -1.0
outer loop
vertex 10.0 -10.0 0.0
vertex -9.5 -9.5 0.0
vertex 9.5 -9.5 0.0
endloop
endfacet
facet normal 0.0 0.0 -1.0
outer loop
vertex 10.0 -10.0 0.0
vertex 9.5 -9.5 0.0
vertex 10.0 10.0 0.0
endloop
endfacet
facet normal 1.0 0.0 0.0
outer loop
vertex 10.0 10.0 0.0
vertex 10.0 -10.0 10.0
vertex 10.0 -10.0 0.0
endloop
endfacet
facet normal 1.0 0.0 0.0
outer loop
vertex 10.0 -10.0 10.0
vertex 10.0 10.0 0.0
vertex 10.0 10.0 10.0
endloop
endfacet
facet normal -0.0 1.0 0.0
outer loop
vertex -10.0 10.0 10.0
vertex 10.0 10.0 0.0
vertex -10.0 10.0 0.0
endloop
endfacet
facet normal -0.0 1.0 0.0
outer loop
vertex 10.0 10.0 0.0
vertex -10.0 10.0 10.0
vertex 10.0 10.0 10.0
endloop
endfacet
facet normal -1.0 0.0 0.0
outer loop
vertex -10.0 10.0 10.0
vertex -10.0 -10.0 0.0
vertex -10.0 -10.0 10.0
endloop
endfacet
facet normal -1.0 0.0 0.0
outer loop
vertex -10.0 -10.0 0.0
vertex -10.0 10.0 10.0
vertex -10.0 10.0 0.0
endloop
endfacet
facet normal -0.0 -0.0 1.0
outer loop
vertex -10.0 -10.0 10.0
vertex -9.5 -9.5 10.0
vertex -10.0 10.0 10.0
endloop
endfacet
facet normal -0.0 -0.0 1.0
outer loop
vertex -9.5 -9.5 10.0
vertex -10.0 -10.0 10.0
vertex 10.0 -10.0 10.0
endloop
endfacet
facet normal -0.0 -0.0 1.0
outer loop
vertex -9.5 -9.5 10.0
vertex 10.0 -10.0 10.0
vertex 9.5 -9.5 10.0
endloop
endfacet
facet normal -0.0 -0.0 1.0
outer loop
vertex 9.5 -9.5 10.0
vertex 10.0 -10.0 10.0
vertex 9.5 9.5 10.0
endloop
endfacet
facet normal -0.0 -0.0 1.0
outer loop
vertex -10.0 10.0 10.0
vertex -9.5 9.5 10.0
vertex 10.0 10.0 10.0
endloop
endfacet
facet normal -0.0 -0.0 1.0
outer loop
vertex -9.5 9.5 10.0
vertex -10.0 10.0 10.0
vertex -9.5 -9.5 10.0
endloop
endfacet
facet normal -0.0 -0.0 1.0
outer loop
vertex 10.0 10.0 10.0
vertex -9.5 9.5 10.0
vertex 9.5 9.5 10.0
endloop
endfacet
facet normal -0.0 -0.0 1.0
outer loop
vertex 10.0 10.0 10.0
vertex 9.5 9.5 10.0
vertex 10.0 -10.0 10.0
endloop
endfacet
facet normal -0.0 -1.0 -0.0
outer loop
vertex 9.5 9.5 10.0
vertex -9.5 9.5 0.0
vertex 9.5 9.5 0.0
endloop
endfacet
facet normal -0.0 -1.0 -0.0
outer loop
vertex -9.5 9.5 0.0
vertex 9.5 9.5 10.0
vertex -9.5 9.5 10.0
endloop
endfacet
facet normal -1.0 0.0 0.0
outer loop
vertex 9.5 9.5 10.0
vertex 9.5 -9.5 0.0
vertex 9.5 -9.5 10.0
endloop
endfacet
facet normal -1.0 0.0 0.0
outer loop
vertex 9.5 -9.5 0.0
vertex 9.5 9.5 10.0
vertex 9.5 9.5 0.0
endloop
endfacet
facet normal -0.0 1.0 0.0
outer loop
vertex -9.5 -9.5 10.0
vertex 9.5 -9.5 0.0
vertex -9.5 -9.5 0.0
endloop
endfacet
facet normal -0.0 1.0 0.0
outer loop
vertex 9.5 -9.5 0.0
vertex -9.5 -9.5 10.0
vertex 9.5 -9.5 10.0
endloop
endfacet
facet normal 1.0 0.0 0.0
outer loop
vertex -9.5 9.5 0.0
vertex -9.5 -9.5 10.0
vertex -9.5 -9.5 0.0
endloop
endfacet
facet normal 1.0 0.0 0.0
outer loop
vertex -9.5 -9.5 10.0
vertex -9.5 9.5 0.0
vertex -9.5 9.5 10.0
endloop
endfacet
facet normal -0.0 -1.0 -0.0
outer loop
vertex 10.0 -10.0 10.0
vertex -10.0 -10.0 0.0
vertex 10.0 -10.0 0.0
endloop
endfacet
facet normal -0.0 -1.0 -0.0
outer loop
vertex -10.0 -10.0 0.0
vertex 10.0 -10.0 10.0
vertex -10.0 -10.0 10.0
endloop
endfacet
endsolid model
