  0
SECTION
  2
HEADER
  9
$ACADVER
  1
AC1014
  9
$HANDSEED
  5
FFFF
  9
$MEASUREMENT
 70
     1
  0
ENDSEC
  0
SECTION
  2
TABLES
  0
TABLE
  2
VPORT
  5
8
330
0
100
AcDbSymbolTable
 70
     4
  0
VPORT
  5
2E
330
8
100
AcDbSymbolTableRecord
100
AcDbViewportTableRecord
  2
*ACTIVE
 70
     0
 10
0.0
 20
0.0
 11
1.0
 21
1.0
 12
210.0
 22
148.5
 13
0.0
 23
0.0
 14
10.0
 24
10.0
 15
10.0
 25
10.0
 16
0.0
 26
0.0
 36
1.0
 17
0.0
 27
0.0
 37
0.0
 40
341.0
 41
1.24
 42
50.0
 43
0.0
 44
0.0
 50
0.0
 51
0.0
 71
     0
 72
   100
 73
     1
 74
     3
 75
     0
 76
     0
 77
     0
 78
     0
  0
ENDTAB
  0
TABLE
  2
LTYPE
  5
5
330
0
100
AcDbSymbolTable
 70
     1
  0
LTYPE
  5
14
330
5
100
AcDbSymbolTableRecord
100
AcDbLinetypeTableRecord
  2
BYBLOCK
 70
     0
  3

 72
    65
 73
     0
 40
0.0
  0
LTYPE
  5
15
330
5
100
AcDbSymbolTableRecord
100
AcDbLinetypeTableRecord
  2
BYLAYER
 70
     0
  3

 72
    65
 73
     0
 40
0.0
  0
LTYPE
  5
16
330
5
100
AcDbSymbolTableRecord
100
AcDbLinetypeTableRecord
  2
CONTINUOUS
 70
     0
  3
Solid line
 72
    65
 73
     0
 40
0.0
  0
ENDTAB
  0
TABLE
  2
LAYER
  5
2
100
AcDbSymbolTable
 70
4
  0
LAYER
  5
50
100
AcDbSymbolTableRecord
100
AcDbLayerTableRecord
  2
0
 70
0
  6
CONTINUOUS
  0
LAYER
  5
51
100
AcDbSymbolTableRecord
100
AcDbLayerTableRecord
  2
original
 70
0
  6
CONTINUOUS
  0
LAYER
  5
52
100
AcDbSymbolTableRecord
100
AcDbLayerTableRecord
  2
1
 70
0
  6
CONTINUOUS
  0
LAYER
  5
53
100
AcDbSymbolTableRecord
100
AcDbLayerTableRecord
  2
2
 70
0
  6
CONTINUOUS
  0
ENDTAB
  0
TABLE
  2
STYLE
  5
3
330
0
100
AcDbSymbolTable
 70
     1
  0
STYLE
  5
11
330
3
100
AcDbSymbolTableRecord
100
AcDbTextStyleTableRecord
  2
STANDARD
 70
     0
 40
0.0
 41
1.0
 50
0.0
 71
     0
 42
2.5
  3
txt
  4

  0
ENDTAB
  0
TABLE
  2
VIEW
  5
6
330
0
100
AcDbSymbolTable
 70
     0
  0
ENDTAB
  0
TABLE
  2
UCS
  5
7
330
0
100
AcDbSymbolTable
 70
     0
  0
ENDTAB
  0
TABLE
  2
APPID
  5
9
330
0
100
AcDbSymbolTable
 70
     2
  0
APPID
  5
12
330
9
100
AcDbSymbolTableRecord
100
AcDbRegAppTableRecord
  2
ACAD
 70
     0
  0
ENDTAB
  0
TABLE
  2
DIMSTYLE
  5
A
330
0
100
AcDbSymbolTable
 70
     1
  0
DIMSTYLE
105
27
330
A
100
AcDbSymbolTableRecord
100
AcDbDimStyleTableRecord
  2
ISO-25
 70
     0
  3

  4

  5

  6

  7

 40
1.0
 41
2.5
 42
0.625
 43
3.75
 44
1.25
 45
0.0
 46
0.0
 47
0.0
 48
0.0
140
2.5
141
2.5
142
0.0
143
0.03937007874016
144
1.0
145
0.0
146
1.0
147
0.625
 71
     0
 72
     0
 73
     0
 74
     0
 75
     0
 76
     0
 77
     1
 78
     8
170
     0
171
     3
172
     1
173
     0
174
     0
175
     0
176
     0
177
     0
178
     0
270
     2
271
     2
272
     2
273
     2
274
     3
340
11
275
     0
280
     0
281
     0
282
     0
283
     0
284
     8
285
     0
286
     0
287
     3
288
     0
  0
ENDTAB
  0
TABLE
  2
BLOCK_RECORD
  5
1
330
0
100
AcDbSymbolTable
 70
     1
  0
BLOCK_RECORD
  5
1F
330
1
100
AcDbSymbolTableRecord
100
AcDbBlockTableRecord
  2
*MODEL_SPACE
  0
BLOCK_RECORD
  5
1B
330
1
100
AcDbSymbolTableRecord
100
AcDbBlockTableRecord
  2
*PAPER_SPACE
  0
ENDTAB
  0
ENDSEC
  0
SECTION
  2
BLOCKS
  0
BLOCK
  5
20
330
1F
100
AcDbEntity
  8
0
100
AcDbBlockBegin
  2
*MODEL_SPACE
 70
     0
 10
0.0
 20
0.0
 30
0.0
  3
*MODEL_SPACE
  1

  0
ENDBLK
  5
21
330
1F
100
AcDbEntity
  8
0
100
AcDbBlockEnd
  0
BLOCK
  5
1C
330
1B
100
AcDbEntity
 67
     1
  8
0
100
AcDbBlockBegin
  2
*PAPER_SPACE
  1

  0
ENDBLK
  5
1D
330
1B
100
AcDbEntity
 67
     1
  8
0
100
AcDbBlockEnd
  0
ENDSEC
  0
SECTION
  2
ENTITIES
  0
LWPOLYLINE
  5
100
100
AcDbEntity
  8
1
 62
7
100
AcDbPolyline
 90
10
 70
0
 10
0.362839
 20
1.088532
 30
0.0
 10
0.241892
 20
-6.047315
 30
0.0
 10
1.935139
 20
-5.442570
 30
0.0
 10
4.112171
 20
-4.837824
 30
0.0
 10
5.563526
 20
-3.749321
 30
0.0
 10
6.531095
 20
-2.539858
 30
0.0
 10
6.652042
 20
-0.967569
 30
0.0
 10
5.321633
 20
0.120962
 30
0.0
 10
3.144602
 20
1.088532
 30
0.0
 10
0.362839
 20
1.088532
 30
0.0
  0
LWPOLYLINE
  5
101
100
AcDbEntity
  8
1
 62
7
100
AcDbPolyline
 90
10
 70
0
 10
-2.418924
 20
11.127064
 30
0.0
 10
-2.660817
 20
3.628391
 30
0.0
 10
-3.023655
 20
3.144606
 30
0.0
 10
-4.595956
 20
3.870284
 30
0.0
 10
-5.684472
 20
4.475030
 30
0.0
 10
-6.289203
 20
5.563533
 30
0.0
 10
-6.047310
 20
7.135821
 30
0.0
 10
-4.354063
 20
8.950030
 30
0.0
 10
-3.023655
 20
10.401386
 30
0.0
 10
-2.418924
 20
11.127064
 30
0.0
  0
LWPOLYLINE
  5
102
100
AcDbEntity
  8
1
 62
7
100
AcDbPolyline
 90
50
 70
0
 10
-1.935139
 20
27.333850
 30
0.0
 10
-2.418924
 20
12.094635
 30
0.0
 10
-3.870279
 20
11.368957
 30
0.0
 10
-6.652042
 20
9.917601
 30
0.0
 10
-8.587181
 20
8.708137
 30
0.0
 10
-10.764213
 20
7.135821
 30
0.0
 10
-11.973675
 20
5.442572
 30
0.0
 10
-11.489890
 20
3.144606
 30
0.0
 10
-10.401374
 20
2.781781
 30
0.0
 10
-8.103396
 20
1.935143
 30
0.0
 10
-5.805418
 20
1.451357
 30
0.0
 10
-2.297978
 20
1.209465
 30
0.0
 10
-2.539870
 20
-6.772993
 30
0.0
 10
-7.619611
 20
-7.377711
 30
0.0
 10
-7.740557
 20
-9.433784
 30
0.0
 10
-2.660817
 20
-8.345282
 30
0.0
 10
-3.265548
 20
-24.914915
 30
0.0
 10
-4.716902
 20
-24.793955
 30
0.0
 10
-6.652042
 20
-23.826384
 30
0.0
 10
-8.345289
 20
-21.891271
 30
0.0
 10
-9.675697
 20
-19.714237
 30
0.0
 10
-10.885159
 20
-16.811525
 30
0.0
 10
-11.610836
 20
-14.271638
 30
0.0
 10
-11.852729
 20
-11.731779
 30
0.0
 10
-11.973675
 20
-9.191892
 30
0.0
 10
-17.537201
 20
-9.554745
 30
0.0
 10
-16.932469
 20
-11.247994
 30
0.0
 10
-15.723007
 20
-14.755423
 30
0.0
 10
-14.150707
 20
-17.537203
 30
0.0
 10
-12.457460
 20
-20.560847
 30
0.0
 10
-10.643267
 20
-22.616949
 30
0.0
 10
-7.619611
 20
-25.398700
 30
0.0
 10
-10.522320
 20
-23.947344
 30
0.0
 10
-12.820298
 20
-22.495988
 30
0.0
 10
-15.360169
 20
-20.198022
 30
0.0
 10
-17.658147
 20
-17.779096
 30
0.0
 10
-19.956125
 20
-13.425028
 30
0.0
 10
-21.407479
 20
-9.433784
 30
0.0
 10
-22.375049
 20
-5.442570
 30
0.0
 10
-23.100726
 20
-1.088502
 30
0.0
 10
-22.979780
 20
3.023674
 30
0.0
 10
-22.495995
 20
6.893928
 30
0.0
 10
-20.198017
 20
12.578420
 30
0.0
 10
-18.020985
 20
16.932477
 30
0.0
 10
-15.118276
 20
20.198022
 30
0.0
 10
-11.610836
 20
23.342624
 30
0.0
 10
-8.708127
 20
25.035873
 30
0.0
 10
-6.047310
 20
26.487226
 30
0.0
 10
-3.507440
 20
27.212904
 30
0.0
 10
-1.935139
 20
27.333850
 30
0.0
  0
LWPOLYLINE
  5
103
100
AcDbEntity
  8
1
 62
7
100
AcDbPolyline
 90
70
 70
0
 10
-0.604731
 20
32.655483
 30
0.0
 10
0.967570
 20
34.227783
 30
0.0
 10
0.483785
 20
39.186579
 30
0.0
 10
-5.684472
 20
32.776429
 30
0.0
 10
-3.265548
 20
30.599398
 30
0.0
 10
-1.693247
 20
31.929805
 30
0.0
 10
-2.056086
 20
29.510881
 30
0.0
 10
-1.814193
 20
29.148042
 30
0.0
 10
-3.991225
 20
29.148042
 30
0.0
 10
-7.498665
 20
28.543311
 30
0.0
 10
-10.522320
 20
27.696689
 30
0.0
 10
-14.634491
 20
25.277765
 30
0.0
 10
-18.383824
 20
22.496002
 30
0.0
 10
-20.318963
 20
20.318968
 30
0.0
 10
-22.616941
 20
17.416259
 30
0.0
 10
-24.552081
 20
14.029776
 30
0.0
 10
-25.761543
 20
11.247996
 30
0.0
 10
-26.608166
 20
8.103392
 30
0.0
 10
-27.938574
 20
3.749352
 30
0.0
 10
-27.817628
 20
-1.088502
 30
0.0
 10
-27.333844
 20
-5.805423
 30
0.0
 10
-26.245328
 20
-9.070960
 30
0.0
 10
-24.673027
 20
-13.425028
 30
0.0
 10
-22.375049
 20
-17.900028
 30
0.0
 10
-18.867609
 20
-21.165593
 30
0.0
 10
-15.239222
 20
-24.068277
 30
0.0
 10
-10.885159
 20
-26.487203
 30
0.0
 10
-6.531095
 20
-28.180452
 30
0.0
 10
-0.846623
 20
-28.785198
 30
0.0
 10
4.837849
 20
-28.059520
 30
0.0
 10
9.917589
 20
-26.245311
 30
0.0
 10
13.666922
 20
-24.189237
 30
0.0
 10
12.215567
 20
-23.342599
 30
0.0
 10
11.006105
 20
-24.673022
 30
0.0
 10
8.829073
 20
-25.882486
 30
0.0
 10
5.442579
 20
-26.729096
 30
0.0
 10
3.023655
 20
-26.970989
 30
0.0
 10
1.088516
 20
-27.091949
 30
0.0
 10
0.362839
 20
-7.619604
 30
0.0
 10
3.991225
 20
-6.047315
 30
0.0
 10
7.377719
 20
-4.595959
 30
0.0
 10
9.917589
 20
-2.781750
 30
0.0
 10
11.368944
 20
-0.846609
 30
0.0
 10
10.764213
 20
0.967572
 30
0.0
 10
9.675697
 20
2.177035
 30
0.0
 10
7.740557
 20
3.265566
 30
0.0
 10
5.926364
 20
3.386499
 30
0.0
 10
3.507440
 20
3.507459
 30
0.0
 10
0.000000
 20
3.265566
 30
0.0
 10
-0.241892
 20
11.852742
 30
0.0
 10
2.539870
 20
12.457460
 30
0.0
 10
5.684472
 20
12.457460
 30
0.0
 10
7.619611
 20
12.336527
 30
0.0
 10
9.796643
 20
14.150708
 30
0.0
 10
7.861504
 20
14.755454
 30
0.0
 10
5.926364
 20
14.876389
 30
0.0
 10
3.386494
 20
14.150708
 30
0.0
 10
1.693247
 20
13.908816
 30
0.0
 10
-0.362839
 20
12.941245
 30
0.0
 10
-0.604731
 20
27.333850
 30
0.0
 10
2.539870
 20
27.454796
 30
0.0
 10
7.377719
 20
27.091957
 30
0.0
 10
11.127051
 20
25.156819
 30
0.0
 10
12.336514
 20
24.793980
 30
0.0
 10
11.368944
 20
25.761548
 30
0.0
 10
9.070966
 20
27.212904
 30
0.0
 10
6.289203
 20
28.301421
 30
0.0
 10
2.539870
 20
29.027096
 30
0.0
 10
-0.483785
 20
29.389935
 30
0.0
 10
-0.604731
 20
32.655483
 30
0.0
  0
LWPOLYLINE
  5
104
100
AcDbEntity
  8
2
 62
7
100
AcDbPolyline
 90
13
 70
0
 10
16.986250
 20
23.994097
 30
0.0
 10
16.774583
 20
23.852986
 30
0.0
 10
16.130764
 20
23.447292
 30
0.0
 10
16.069028
 20
23.403194
 30
0.0
 10
16.069028
 20
23.332639
 30
0.0
 10
15.998472
 20
17.908681
 30
0.0
 10
15.998472
 20
17.767569
 30
0.0
 10
16.139583
 20
17.767569
 30
0.0
 10
16.915694
 20
17.776375
 30
0.0
 10
17.056806
 20
17.785180
 30
0.0
 10
17.047986
 20
17.926291
 30
0.0
 10
16.995069
 20
23.738305
 30
0.0
 10
16.986250
 20
23.994097
 30
0.0
  0
LWPOLYLINE
  5
105
100
AcDbEntity
  8
2
 62
7
100
AcDbPolyline
 90
5
 70
0
 10
14.021351
 20
-20.489417
 30
0.0
 10
19.515324
 20
-20.506350
 30
0.0
 10
20.539357
 20
-19.608065
 30
0.0
 10
14.584658
 20
-19.617378
 30
0.0
 10
14.021351
 20
-20.489417
 30
0.0
  0
LWPOLYLINE
  5
106
100
AcDbEntity
  8
2
 62
7
100
AcDbPolyline
 90
5
 70
0
 10
13.077491
 20
-21.567110
 30
0.0
 10
18.834057
 20
-21.570215
 30
0.0
 10
19.302108
 20
-20.780275
 30
0.0
 10
13.802564
 20
-20.776606
 30
0.0
 10
13.077491
 20
-21.567110
 30
0.0
  0
LWPOLYLINE
  5
107
100
AcDbEntity
  8
2
 62
7
100
AcDbPolyline
 90
5
 70
0
 10
11.846859
 20
-23.004553
 30
0.0
 10
17.908015
 20
-22.990160
 30
0.0
 10
18.437491
 20
-21.924630
 30
0.0
 10
12.667229
 20
-21.929427
 30
0.0
 10
11.846859
 20
-23.004553
 30
0.0
  0
LWPOLYLINE
  5
108
100
AcDbEntity
  8
2
 62
7
100
AcDbPolyline
 90
13
 70
0
 10
15.597321
 20
25.009595
 30
0.0
 10
15.376835
 20
24.850845
 30
0.0
 10
14.697738
 20
24.365775
 30
0.0
 10
14.636002
 20
24.330498
 30
0.0
 10
14.636002
 20
24.251123
 30
0.0
 10
14.636002
 20
19.127025
 30
0.0
 10
14.636002
 20
18.985914
 30
0.0
 10
14.777113
 20
18.985914
 30
0.0
 10
15.517946
 20
18.985914
 30
0.0
 10
15.659057
 20
18.985914
 30
0.0
 10
15.659057
 20
19.127025
 30
0.0
 10
15.597321
 20
24.736192
 30
0.0
 10
15.597321
 20
25.009595
 30
0.0
  0
LWPOLYLINE
  5
109
100
AcDbEntity
  8
2
 62
7
100
AcDbPolyline
 90
14
 70
0
 10
14.353779
 20
26.279595
 30
0.0
 10
14.124474
 20
26.015012
 30
0.0
 10
13.321904
 20
25.133067
 30
0.0
 10
13.286627
 20
25.088970
 30
0.0
 10
13.286627
 20
25.036053
 30
0.0
 10
13.498293
 20
20.044248
 30
0.0
 10
13.507113
 20
19.876678
 30
0.0
 10
13.665863
 20
19.911956
 30
0.0
 10
14.380238
 20
20.053067
 30
0.0
 10
14.494890
 20
20.079511
 30
0.0
 10
14.494890
 20
20.194164
 30
0.0
 10
14.362599
 20
25.926803
 30
0.0
 10
14.353779
 20
26.279581
 30
0.0
 10
14.353779
 20
26.279595
 30
0.0
  0
LWPOLYLINE
  5
10a
100
AcDbEntity
  8
2
 62
7
100
AcDbPolyline
 90
70
 70
0
 10
18.066765
 20
20.520498
 30
0.0
 10
17.996210
 20
20.308831
 30
0.0
 10
17.713988
 20
19.453345
 30
0.0
 10
17.687529
 20
19.391609
 30
0.0
 10
17.722807
 20
19.338692
 30
0.0
 10
18.507738
 20
17.918762
 30
0.0
 10
18.507738
 20
17.901123
 30
0.0
 10
18.516557
 20
17.892317
 30
0.0
 10
20.289265
 20
15.775651
 30
0.0
 10
20.298085
 20
15.758012
 30
0.0
 10
21.929682
 20
13.059242
 30
0.0
 10
23.058571
 20
10.237020
 30
0.0
 10
23.905238
 20
7.758742
 30
0.0
 10
23.914057
 20
7.741244
 30
0.0
 10
24.619613
 20
4.857243
 30
0.0
 10
24.619613
 20
4.839746
 30
0.0
 10
24.901835
 20
2.026357
 30
0.0
 10
24.901835
 20
1.999828
 30
0.0
 10
24.760724
 20
-0.892950
 30
0.0
 10
24.760724
 20
-0.901699
 30
0.0
 10
24.690168
 20
-4.085532
 30
0.0
 10
24.690168
 20
-4.112061
 30
0.0
 10
24.187460
 20
-7.084228
 30
0.0
 10
24.196279
 20
-7.084228
 30
0.0
 10
23.411349
 20
-10.629645
 30
0.0
 10
23.411349
 20
-10.638394
 30
0.0
 10
22.935099
 20
-12.261171
 30
0.0
 10
21.938502
 20
-14.501338
 30
0.0
 10
21.012460
 20
-15.974143
 30
0.0
 10
20.659682
 20
-16.591504
 30
0.0
 10
20.412738
 20
-16.891366
 30
0.0
 10
20.086418
 20
-17.288283
 30
0.0
 10
19.821835
 20
-17.861504
 30
0.0
 10
19.566071
 20
-18.611143
 30
0.0
 10
19.513154
 20
-18.761088
 30
0.0
 10
19.671904
 20
-18.787617
 30
0.0
 10
20.527390
 20
-18.928728
 30
0.0
 10
20.597946
 20
-18.946508
 30
0.0
 10
20.650863
 20
-18.893563
 30
0.0
 10
21.867946
 20
-17.685313
 30
0.0
 10
21.876765
 20
-17.667815
 30
0.0
 10
21.885585
 20
-17.650318
 30
0.0
 10
23.958154
 20
-13.875595
 30
0.0
 10
23.958154
 20
-13.866846
 30
0.0
 10
23.966974
 20
-13.858098
 30
0.0
 10
25.386904
 20
-10.224486
 30
0.0
 10
25.386904
 20
-10.215738
 30
0.0
 10
25.395724
 20
-10.206989
 30
0.0
 10
26.603988
 20
-6.220600
 30
0.0
 10
26.612807
 20
-6.203102
 30
0.0
 10
26.612807
 20
-6.185604
 30
0.0
 10
26.824474
 20
-0.549965
 30
0.0
 10
26.824474
 20
-0.541216
 30
0.0
 10
26.683363
 20
4.088978
 30
0.0
 10
26.683363
 20
4.097727
 30
0.0
 10
26.674543
 20
4.115225
 30
0.0
 10
25.819057
 20
8.172169
 30
0.0
 10
25.819057
 20
8.189667
 30
0.0
 10
25.819057
 20
8.198416
 30
0.0
 10
24.460863
 20
11.690916
 30
0.0
 10
24.460863
 20
11.699665
 30
0.0
 10
22.679335
 20
15.262740
 30
0.0
 10
22.670515
 20
15.280379
 30
0.0
 10
22.661696
 20
15.290567
 30
0.0
 10
20.236349
 20
18.350914
 30
0.0
 10
20.227529
 20
18.359720
 30
0.0
 10
20.227529
 20
18.368525
 30
0.0
 10
18.225515
 20
20.361719
 30
0.0
 10
18.066765
 20
20.520469
 30
0.0
 10
18.066765
 20
20.520498
 30
0.0
  0
ENDSEC
  0
SECTION
  2
OBJECTS
  0
DICTIONARY
  5
C
330
0
100
AcDbDictionary
  3
ACAD_GROUP
350
D
  3
ACAD_MLINESTYLE
350
17
  0
DICTIONARY
  5
D
330
C
100
AcDbDictionary
  0
DICTIONARY
  5
1A
330
C
100
AcDbDictionary
  0
DICTIONARY
  5
17
330
C
100
AcDbDictionary
  3
STANDARD
350
18
  0
DICTIONARY
  5
19
330
C
100
AcDbDictionary
  0
ENDSEC
  0
EOF
