<?xml version="1.0" encoding="UTF-8" standalone="no"?>
<!-- Created with Inkscape (http://www.inkscape.org/) -->

<svg
   xmlns:dc="http://purl.org/dc/elements/1.1/"
   xmlns:cc="http://creativecommons.org/ns#"
   xmlns:rdf="http://www.w3.org/1999/02/22-rdf-syntax-ns#"
   xmlns:svg="http://www.w3.org/2000/svg"
   xmlns="http://www.w3.org/2000/svg"
   xmlns:sodipodi="http://sodipodi.sourceforge.net/DTD/sodipodi-0.dtd"
   xmlns:inkscape="http://www.inkscape.org/namespaces/inkscape"
   width="744.09448819"
   height="1052.3622047"
   id="svg2"
   version="1.1"
   inkscape:version="0.48.4 r9939"
   sodipodi:docname="AIG.svg">
  <defs
     id="defs4" />
  <sodipodi:namedview
     id="base"
     pagecolor="#ffffff"
     bordercolor="#666666"
     borderopacity="1.0"
     inkscape:pageopacity="0.0"
     inkscape:pageshadow="2"
     inkscape:zoom="1.6290957"
     inkscape:cx="375"
     inkscape:cy="259.4698"
     inkscape:document-units="px"
     inkscape:current-layer="layer1"
     showgrid="true"
     showguides="false"
     inkscape:snap-bbox="true"
     inkscape:snap-grids="false"
     inkscape:window-width="1498"
     inkscape:window-height="925"
     inkscape:window-x="45"
     inkscape:window-y="39"
     inkscape:window-maximized="0" />
  <metadata
     id="metadata7">
    <rdf:RDF>
      <cc:Work
         rdf:about="">
        <dc:format>image/svg+xml</dc:format>
        <dc:type
           rdf:resource="http://purl.org/dc/dcmitype/StillImage" />
        <dc:title></dc:title>
      </cc:Work>
    </rdf:RDF>
  </metadata>
  <g
     inkscape:label="Layer 1"
     inkscape:groupmode="layer"
     id="layer1">
    <rect
       style="fill:#d40000;fill-opacity:1"
       id="rect2996"
       width="5.3149605"
       height="230.31496"
       x="22.57338"
       y="733.25867" />
    <rect
       style="fill:#d40000;fill-opacity:1"
       id="rect2996-3"
       width="301.18109"
       height="5.3149605"
       x="56.03331"
       y="990.64703" />
    <g
       style="font-size:48px;font-style:normal;font-variant:normal;font-weight:bold;font-stretch:normal;line-height:125%;letter-spacing:0px;word-spacing:0px;fill:#000000;fill-opacity:1;stroke:none;font-family:Rachana;-inkscape-font-specification:Rachana Bold"
       id="text3045">
      <path
         d="m 243.0706,741.46381 0,0.89062 -12.23437,0 0,-0.89062 c 1.93747,-0.0312 3.0156,-0.39063 3.23437,-1.07813 0.0937,-0.15625 0.1406,-0.34375 0.14063,-0.5625 -3e-5,-0.78125 -0.31253,-1.85937 -0.9375,-3.23437 l -1.96875,-4.59375 -12.5625,0 -2.20313,5.625 c -0.28125,0.65625 -0.42188,1.28125 -0.42187,1.875 -1e-5,1.28125 1.09374,1.9375 3.28125,1.96875 l 0,0.89062 -9.51563,0 0,-0.89062 c 1.15625,-0.0312 2.04687,-0.4375 2.67188,-1.21875 0.68749,-0.875 1.78124,-3.09375 3.28125,-6.65625 l 9.98437,-23.57813 0.98438,0 11.95312,27.23438 c 0.99997,2.09375 1.79685,3.32812 2.39063,3.70312 0.40622,0.25 1.04684,0.42188 1.92187,0.51563 m -23.53125,-11.4375 11.10938,0 -5.57813,-13.21875 -5.53125,13.21875"
         style=""
         id="path3050" />
      <path
         d="m 249.39873,737.10443 0,-21.28125 c -1e-5,-1.87497 -0.31251,-3.04684 -0.9375,-3.51562 -0.53126,-0.40622 -1.78126,-0.67185 -3.75,-0.79688 l 0,-0.9375 14.29687,0 0,0.9375 c -2.18751,0.0938 -3.53126,0.45316 -4.03125,1.07813 -0.46876,0.56253 -0.70313,1.64065 -0.70312,3.23437 l 0,21.28125 c -1e-5,1.90625 0.37499,3.10938 1.125,3.60938 0.59374,0.40625 1.79686,0.65625 3.60937,0.75 l 0,0.89062 -14.29687,0 0,-0.89062 c 2.18749,-0.0937 3.53124,-0.45313 4.03125,-1.07813 0.43749,-0.5 0.65624,-1.59375 0.65625,-3.28125"
         style=""
         id="path3052" />
      <path
         d="m 278.60185,711.83881 c -1.27344,1e-5 -2.44727,0.15529 -3.52149,0.46584 -1.07422,0.31055 -2.04883,0.77637 -2.92383,1.39746 -0.875,0.62109 -1.65039,1.39746 -2.32617,2.3291 -0.67578,0.93163 -1.25195,2.01854 -1.72851,3.26072 -0.21094,0.5625 -0.39551,1.13868 -0.55372,1.72853 -0.1582,0.58984 -0.29004,1.19336 -0.3955,1.81055 -0.10547,0.61718 -0.18457,1.24804 -0.2373,1.89257 -0.0527,0.64453 -0.0791,1.30273 -0.0791,1.9746 10e-6,1.40625 0.10743,2.71485 0.32227,3.92579 0.21485,1.21094 0.53711,2.32422 0.9668,3.33984 0.42968,1.01563 0.96679,1.9336 1.61132,2.75391 0.64453,0.82031 1.39648,1.54296 2.25586,2.16796 0.50781,0.36719 1.04394,0.68848 1.60839,0.96387 0.56445,0.27539 1.15722,0.50488 1.77831,0.68848 0.6211,0.18359 1.27051,0.32129 1.94825,0.41308 0.67774,0.0918 1.38379,0.1377 2.11817,0.1377 0.64843,0 1.2539,-0.0322 1.8164,-0.0967 0.56249,-0.0644 1.08202,-0.16113 1.55859,-0.29004 0.47656,-0.12891 0.91015,-0.29004 1.30078,-0.4834 0.39063,-0.19336 0.73829,-0.41895 1.04298,-0.67676 0.10937,-0.10156 0.20507,-0.2041 0.2871,-0.30762 0.082,-0.10351 0.15039,-0.208 0.20507,-0.31347 0.0547,-0.10547 0.0957,-0.21191 0.12305,-0.31934 0.0274,-0.10742 0.041,-0.21582 0.041,-0.32519 l 0,-1.94531 0,-1.94532 0,-1.94531 0,-1.94531 c 0,-0.47656 -0.0205,-0.90918 -0.0615,-1.29785 -0.041,-0.38867 -0.10254,-0.73339 -0.18457,-1.03417 -0.082,-0.30078 -0.18457,-0.55762 -0.30761,-0.77051 -0.12305,-0.2129 -0.26659,-0.38185 -0.43065,-0.50685 -0.12501,-0.0781 -0.28615,-0.15038 -0.48341,-0.21679 -0.19727,-0.0664 -0.43067,-0.12695 -0.7002,-0.18163 -0.26954,-0.0547 -0.5752,-0.10352 -0.91699,-0.14649 -0.3418,-0.043 -0.71972,-0.0801 -1.13378,-0.11134 l 0,-0.21094 0,-0.21094 0,-0.21093 0,-0.21094 3.05859,0 3.0586,0 3.0586,0 3.05859,0 0,0.21094 0,0.21093 0,0.21094 0,0.21094 c -0.39845,0.0312 -0.75881,0.0811 -1.08108,0.14942 -0.32227,0.0684 -0.60645,0.15528 -0.85254,0.26075 -0.2461,0.10547 -0.4541,0.22949 -0.62402,0.37207 -0.16992,0.14257 -0.30175,0.3037 -0.39549,0.48339 -0.0703,0.11719 -0.13185,0.25586 -0.18459,0.41602 -0.0527,0.16016 -0.0967,0.3418 -0.13184,0.54492 -0.0351,0.20313 -0.0615,0.42774 -0.0791,0.67383 -0.0176,0.24609 -0.0264,0.51367 -0.0263,0.80273 l 0,2.4375 0,2.4375 0,2.4375 0,2.4375 c -0.33594,0.29687 -0.7422,0.57812 -1.21877,0.84375 -0.47656,0.26562 -1.02344,0.51562 -1.64063,0.75 -0.61719,0.23437 -1.30468,0.45312 -2.06249,0.65625 -0.75781,0.20312 -1.58593,0.39062 -2.48436,0.5625 -0.42969,0.0859 -0.84864,0.16113 -1.25685,0.22559 -0.4082,0.0645 -0.80567,0.11816 -1.19239,0.16113 -0.38672,0.043 -0.76269,0.0752 -1.12792,0.0967 -0.36524,0.0215 -0.71972,0.0322 -1.06347,0.0322 -1.09375,0 -2.14747,-0.0703 -3.16114,-0.21094 -1.01367,-0.14062 -1.9873,-0.35156 -2.9209,-0.63281 -0.93359,-0.28125 -1.82714,-0.63281 -2.68066,-1.05469 -0.85351,-0.42187 -1.66699,-0.91406 -2.44042,-1.47656 -3.90626,-2.90624 -5.85938,-7.20311 -5.85938,-12.89062 0,-5.12498 1.65625,-9.28123 4.96875,-12.46875 0.77344,-0.72656 1.59277,-1.36229 2.458,-1.90721 0.86523,-0.54492 1.77637,-0.99902 2.7334,-1.3623 0.95703,-0.36328 1.95996,-0.63575 3.00879,-0.81739 1.04883,-0.18165 2.14356,-0.27247 3.28419,-0.27248 0.49218,10e-6 1.00292,0.0244 1.53221,0.0733 0.5293,0.0488 1.07715,0.12208 1.64355,0.21973 0.56641,0.0977 1.15137,0.21973 1.75489,0.36621 0.60352,0.14648 1.22559,0.31737 1.86622,0.51268 0.20312,0.0703 0.39355,0.13185 0.57128,0.18459 0.17773,0.0527 0.34277,0.0967 0.49511,0.13184 0.15234,0.0351 0.29199,0.0615 0.41895,0.0791 0.12696,0.0176 0.24122,0.0264 0.34279,0.0263 0.24999,10e-6 0.48046,-0.0283 0.69139,-0.0849 0.21093,-0.0566 0.40234,-0.1416 0.57421,-0.25488 0.17188,-0.11328 0.32422,-0.25488 0.45704,-0.42481 0.13282,-0.16992 0.2461,-0.36817 0.33986,-0.59474 0.008,-0.0156 0.0156,-0.0322 0.0234,-0.0498 0.008,-0.0176 0.0156,-0.0361 0.0234,-0.0557 0.008,-0.0195 0.0156,-0.04 0.0234,-0.0615 0.008,-0.0215 0.0156,-0.0439 0.0234,-0.0674 l 0.26953,0 0.26953,0 0.26953,0 0.26953,0 0.0937,2.53125 0.0937,2.53125 0.0937,2.53125 0.0937,2.53125 -0.26953,0 -0.26953,0 -0.26953,0 -0.26953,0 c -0.36719,-0.87499 -0.75392,-1.67772 -1.16017,-2.40819 -0.40626,-0.73046 -0.83204,-1.38866 -1.27735,-1.9746 -0.44531,-0.58594 -0.91016,-1.09961 -1.39453,-1.54102 -0.48437,-0.44141 -0.98827,-0.81056 -1.5117,-1.10744 -0.35938,-0.1953 -0.73341,-0.3662 -1.12208,-0.51268 -0.38868,-0.14648 -0.792,-0.26855 -1.20997,-0.3662 -0.41797,-0.0977 -0.85058,-0.1709 -1.29785,-0.21973 -0.44726,-0.0488 -0.90917,-0.0732 -1.38573,-0.0733"
         id="path3054"
         inkscape:connector-curvature="0"
         sodipodi:nodetypes="cssscssssssscssssssscssscccccssscssscccccccccccccssscssscccccssscssssssscscssscssscssscssscssscccccccccccccssscsssc" />
    </g>
    <g
       style="font-size:20px;font-style:normal;font-weight:normal;line-height:125%;letter-spacing:0px;word-spacing:0px;fill:#000000;fill-opacity:1;stroke:none;font-family:Sans"
       id="text3056">
      <path
         d="m 195.9738,774.21997 c -1.01563,10e-6 -1.7806,0.50132 -2.29492,1.50391 -0.50782,0.9961 -0.76172,2.49675 -0.76172,4.50195 0,1.9987 0.2539,3.49935 0.76172,4.50195 0.51432,0.9961 1.27929,1.49415 2.29492,1.49414 1.02213,1e-5 1.7871,-0.49804 2.29492,-1.49414 0.51432,-1.0026 0.77148,-2.50325 0.77149,-4.50195 -1e-5,-2.0052 -0.25717,-3.50585 -0.77149,-4.50195 -0.50782,-1.00259 -1.27279,-1.5039 -2.29492,-1.50391 m 0,-1.5625 c 1.63411,2e-5 2.88085,0.6478 3.74024,1.94336 0.86587,1.28907 1.29881,3.16407 1.29882,5.625 -1e-5,2.45443 -0.43295,4.32943 -1.29882,5.625 -0.85939,1.28906 -2.10613,1.93359 -3.74024,1.93359 -1.63412,0 -2.88412,-0.64453 -3.75,-1.93359 -0.85938,-1.29557 -1.28906,-3.17057 -1.28906,-5.625 0,-2.46093 0.42968,-4.33593 1.28906,-5.625 0.86588,-1.29556 2.11588,-1.94334 3.75,-1.94336"
         style=""
         id="path3061" />
      <path
         d="m 211.19841,785.84106 3.22266,0 0,-11.12304 -3.50586,0.70312 0,-1.79687 3.48633,-0.70313 1.97265,0 0,12.91992 3.22266,0 0,1.66016 -8.39844,0 0,-1.66016"
         style=""
         id="path3063" />
      <path
         d="m 238.02458,785.84106 6.88477,0 0,1.66016 -9.25781,0 0,-1.66016 c 0.74869,-0.77473 1.76757,-1.81314 3.05664,-3.11523 1.29556,-1.30859 2.10936,-2.15169 2.4414,-2.5293 0.6315,-0.70962 1.07096,-1.30858 1.31836,-1.79687 0.2539,-0.49478 0.38085,-0.97981 0.38086,-1.45508 -1e-5,-0.77473 -0.27345,-1.40624 -0.82031,-1.89453 -0.54037,-0.48827 -1.24675,-0.73241 -2.11914,-0.73242 -0.6185,10e-6 -1.27279,0.10743 -1.96289,0.32226 -0.6836,0.21486 -1.41602,0.54038 -2.19727,0.97657 l 0,-1.99219 c 0.79427,-0.319 1.53646,-0.55988 2.22656,-0.72266 0.6901,-0.16274 1.32161,-0.24412 1.89454,-0.24414 1.5104,2e-5 2.71483,0.37762 3.61328,1.13281 0.89842,0.75522 1.34764,1.76434 1.34765,3.02735 -1e-5,0.59897 -0.11394,1.16863 -0.34179,1.70898 -0.22137,0.53386 -0.62827,1.16537 -1.22071,1.89453 -0.16277,0.18881 -0.68034,0.73569 -1.55273,1.64063 -0.8724,0.89844 -2.10287,2.1582 -3.69141,3.77929"
         style=""
         id="path3065" />
      <path
         d="m 267.77068,779.63989 c 0.944,0.20183 1.67967,0.62175 2.20703,1.25977 0.53384,0.63802 0.80077,1.42578 0.80078,2.36328 -10e-6,1.4388 -0.4948,2.55208 -1.48438,3.33984 -0.98959,0.78776 -2.39584,1.18164 -4.21875,1.18164 -0.61198,0 -1.24349,-0.0618 -1.89453,-0.18554 -0.64453,-0.11719 -1.31185,-0.29623 -2.00195,-0.53711 l 0,-1.9043 c 0.54687,0.31901 1.14583,0.5599 1.79687,0.72266 0.65104,0.16276 1.33138,0.24414 2.04102,0.24414 1.23697,0 2.17773,-0.24414 2.82227,-0.73242 0.65103,-0.48828 0.97655,-1.19792 0.97656,-2.12891 -1e-5,-0.85937 -0.30275,-1.52994 -0.90821,-2.01172 -0.59896,-0.48827 -1.43555,-0.73241 -2.50976,-0.73242 l -1.69922,0 0,-1.62109 1.77734,0 c 0.97005,0 1.71224,-0.19205 2.22657,-0.57618 0.51431,-0.39061 0.77147,-0.95051 0.77148,-1.67968 -10e-6,-0.74869 -0.26693,-1.32161 -0.80078,-1.71875 -0.52735,-0.40364 -1.28581,-0.60546 -2.27539,-0.60547 -0.54037,10e-6 -1.1198,0.0586 -1.73828,0.17578 -0.6185,0.1172 -1.29883,0.29949 -2.04102,0.54687 l 0,-1.75781 c 0.7487,-0.20832 1.44857,-0.36457 2.09961,-0.46875 0.65755,-0.10415 1.27604,-0.15623 1.85547,-0.15625 1.49739,2e-5 2.68228,0.34181 3.55469,1.02539 0.87238,0.6771 1.30858,1.59507 1.30859,2.75391 -10e-6,0.8073 -0.23113,1.49089 -0.69336,2.05078 -0.46225,0.55339 -1.1198,0.93751 -1.97265,1.15234"
         style=""
         id="path3067" />
      <path
         d="m 292.68279,774.63989 -4.98047,7.78321 4.98047,0 0,-7.78321 m -0.51758,-1.71875 2.48047,0 0,9.50196 2.08007,0 0,1.64062 -2.08007,0 0,3.4375 -1.96289,0 0,-3.4375 -6.58204,0 0,-1.9043 6.06446,-9.23828"
         style=""
         id="path3069" />
      <path
         d="m 312.75114,772.92114 3.87208,0 3.87207,0 0,0.83008 0,0.83008 -2.96875,0 -2.96875,0 0,1.78711 0,1.78711 c 0.14322,-0.0489 0.28645,-0.0912 0.42968,-0.12697 0.14323,-0.0358 0.28646,-0.0651 0.42969,-0.0879 0.14322,-0.026 0.28645,-0.0456 0.42968,-0.0586 0.14323,-0.013 0.28646,-0.0195 0.4297,-0.0195 0.8138,0 1.54296,0.11149 2.18749,0.33448 0.64453,0.22298 1.20442,0.55745 1.67969,1.00341 0.47526,0.44597 0.8317,0.97087 1.06933,1.57471 0.23763,0.60385 0.35645,1.28663 0.35645,2.04834 0,0.78451 -0.12208,1.48193 -0.36622,2.09228 -0.24414,0.61036 -0.61035,1.13363 -1.09862,1.56983 -0.48828,0.43294 -1.07666,0.75765 -1.76514,0.97412 -0.68848,0.21647 -1.47705,0.3247 -2.36572,0.3247 -0.30599,0 -0.61524,-0.013 -0.92774,-0.0391 -0.3125,-0.026 -0.62825,-0.0651 -0.94726,-0.11718 -0.31575,-0.0521 -0.63721,-0.11718 -0.96436,-0.19531 -0.32714,-0.0781 -0.65999,-0.16927 -0.99853,-0.27344 l 0,-0.99121 0,-0.99121 c 0.29297,0.15951 0.59082,0.29867 0.89355,0.41748 0.30274,0.11882 0.61035,0.21729 0.92286,0.29541 0.3125,0.0781 0.63395,0.13672 0.96435,0.17578 0.3304,0.0391 0.66976,0.0586 1.01807,0.0586 0.56314,0 1.0677,-0.074 1.51366,-0.22217 0.44597,-0.14811 0.83334,-0.37027 1.16212,-0.6665 0.32877,-0.29622 0.57535,-0.64535 0.73974,-1.04737 0.16439,-0.40201 0.24659,-0.85693 0.24659,-1.36474 0,-0.50781 -0.0822,-0.96272 -0.24659,-1.36474 -0.16439,-0.40202 -0.41097,-0.75115 -0.73974,-1.04737 -0.32878,-0.29622 -0.71615,-0.51839 -1.16212,-0.6665 -0.44596,-0.14811 -0.95052,-0.22217 -1.51366,-0.22217 -0.26368,0 -0.52735,0.0146 -0.79102,0.0439 -0.26367,0.0293 -0.52734,0.0732 -0.79101,0.13183 -0.26042,0.0586 -0.52409,0.13347 -0.79102,0.22461 -0.26693,0.0911 -0.53711,0.19857 -0.81055,0.32226 l 0,-3.66211 0,-3.66211"
         id="path3071"
         inkscape:connector-curvature="0"
         sodipodi:nodetypes="cccccccccscssscscscssscscccssssscscscssscsccc" />
    </g>
    <text
       xml:space="preserve"
       style="font-size:40px;font-style:normal;font-weight:normal;line-height:125%;letter-spacing:0px;word-spacing:0px;fill:#000000;fill-opacity:1;stroke:none;font-family:Sans"
       x="359.09494"
       y="692.65338"
       id="text3111"
       sodipodi:linespacing="125%"><tspan
         sodipodi:role="line"
         id="tspan3113"
         x="359.09494"
         y="692.65338">5 G</tspan></text>
  </g>
</svg>
