<?xml version="1.0" encoding="UTF-8" standalone="no"?>
<!-- Created with Inkscape (http://www.inkscape.org/) -->

<svg
   xmlns:dc="http://purl.org/dc/elements/1.1/"
   xmlns:cc="http://creativecommons.org/ns#"
   xmlns:rdf="http://www.w3.org/1999/02/22-rdf-syntax-ns#"
   xmlns:svg="http://www.w3.org/2000/svg"
   xmlns="http://www.w3.org/2000/svg"
   xmlns:sodipodi="http://sodipodi.sourceforge.net/DTD/sodipodi-0.dtd"
   xmlns:inkscape="http://www.inkscape.org/namespaces/inkscape"
   width="744.09448819"
   height="1052.3622047"
   id="svg3115"
   version="1.1"
   inkscape:version="0.48.4 r9939"
   sodipodi:docname="AIGv2.svg">
  <defs
     id="defs3117" />
  <sodipodi:namedview
     id="base"
     pagecolor="#ffffff"
     bordercolor="#666666"
     borderopacity="1.0"
     inkscape:pageopacity="0.0"
     inkscape:pageshadow="2"
     inkscape:zoom="1"
     inkscape:cx="375"
     inkscape:cy="62.857143"
     inkscape:document-units="px"
     inkscape:current-layer="layer1"
     showgrid="false"
     inkscape:window-width="1875"
     inkscape:window-height="1176"
     inkscape:window-x="45"
     inkscape:window-y="39"
     inkscape:window-maximized="1" />
  <metadata
     id="metadata3120">
    <rdf:RDF>
      <cc:Work
         rdf:about="">
        <dc:format>image/svg+xml</dc:format>
        <dc:type
           rdf:resource="http://purl.org/dc/dcmitype/StillImage" />
        <dc:title></dc:title>
      </cc:Work>
    </rdf:RDF>
  </metadata>
  <g
     inkscape:label="Layer 1"
     inkscape:groupmode="layer"
     id="layer1">
    <g
       style="font-size:48px;font-style:normal;font-weight:bold;line-height:125%;letter-spacing:0px;word-spacing:0px;fill:#000000;fill-opacity:1;stroke:none;font-family:Sans;-inkscape-font-specification:Sans Bold"
       id="text3123">
      <path
         d="m 96.640625,912.98718 -14.109375,0 -2.226563,6.375 -9.070312,0 12.960937,-34.99218 10.757813,0 12.960935,34.99218 -9.07031,0 -2.203125,-6.375 M 84.78125,906.495 l 9.585937,0 -4.78125,-13.92188 -4.804687,13.92188"
         style=""
         id="path3128" />
      <path
         d="m 112.53125,884.37 9.02344,0 0,34.99218 -9.02344,0 0,-34.99218"
         style=""
         id="path3130" />
      <path
         d="m 161.89062,916.76062 c -2.25003,1.09375 -4.58596,1.91406 -7.00781,2.46094 -2.4219,0.54687 -4.9219,0.82031 -7.5,0.82031 -5.82814,0 -10.44532,-1.625 -13.85156,-4.875 -3.40625,-3.26562 -5.10938,-7.68749 -5.10938,-13.26562 0,-5.64061 1.73438,-10.0781 5.20313,-13.3125 3.46874,-3.23435 8.21873,-4.85153 14.25,-4.85157 2.3281,4e-5 4.55466,0.21879 6.67969,0.65625 2.14059,0.43754 4.15621,1.08597 6.04687,1.94532 l 0,7.24218 c -1.95316,-1.10935 -3.89847,-1.93747 -5.83594,-2.48437 -1.9219,-0.54685 -3.85158,-0.82029 -5.78906,-0.82031 -3.59377,2e-5 -6.3672,1.00784 -8.32031,3.02343 -1.93751,2.00003 -2.90626,4.86721 -2.90625,8.60157 -1e-5,3.70313 0.93749,6.56251 2.8125,8.57812 1.87498,2.01563 4.53904,3.02344 7.99219,3.02344 0.93747,0 1.80466,-0.0547 2.60156,-0.16406 0.81247,-0.125 1.53904,-0.3125 2.17969,-0.5625 l 0,-6.79688 -5.50782,0 0,-6.04687 14.0625,0 0,16.82812"
         style=""
         id="path3132" />
    </g>
  </g>
</svg>
