<?xml version="1.0" encoding="UTF-8" standalone="no"?>
<!-- Created with Inkscape (http://www.inkscape.org/) -->

<svg
   xmlns:dc="http://purl.org/dc/elements/1.1/"
   xmlns:cc="http://creativecommons.org/ns#"
   xmlns:rdf="http://www.w3.org/1999/02/22-rdf-syntax-ns#"
   xmlns:svg="http://www.w3.org/2000/svg"
   xmlns="http://www.w3.org/2000/svg"
   version="1.1"
   width="744.09448"
   height="1052.3622"
   id="svg3172">
  <defs
     id="defs3174" />
  <metadata
     id="metadata3177">
    <rdf:RDF>
      <cc:Work
         rdf:about="">
        <dc:format>image/svg+xml</dc:format>
        <dc:type
           rdf:resource="http://purl.org/dc/dcmitype/StillImage" />
        <dc:title></dc:title>
      </cc:Work>
    </rdf:RDF>
  </metadata>
  <g
     id="layer1">
    <g
       id="text3180"
       style="font-size:40px;font-style:normal;font-weight:bold;line-height:125%;letter-spacing:0px;word-spacing:0px;fill:#000000;fill-opacity:1;stroke:none;font-family:Sans;-inkscape-font-specification:Sans Bold">
      <path
         d="m 45.671875,965.20203 9.570312,0 6.640625,15.60547 6.679688,-15.60547 9.550781,0 0,29.16015 -7.109375,0 0,-21.32812 -6.71875,15.72265 -4.765625,0 -6.71875,-15.72265 0,21.32812 -7.128906,0 0,-29.16015"
         id="path3185" />
      <path
         d="m 105.80859,966.12 0,6.17187 c -1.60158,-0.71612 -3.16408,-1.25649 -4.6875,-1.62109 -1.523452,-0.36456 -2.962252,-0.54685 -4.316403,-0.54688 -1.796888,3e-5 -3.125011,0.24742 -3.984375,0.74219 -0.859385,0.49481 -1.289072,1.26304 -1.289062,2.30469 -1e-5,0.78127 0.286448,1.39325 0.859375,1.83593 0.585926,0.42971 1.640613,0.8008 3.164062,1.11329 l 3.203125,0.64453 c 3.242168,0.65105 5.546858,1.64064 6.914068,2.96875 1.36716,1.32813 2.05075,3.21615 2.05078,5.66406 -3e-5,3.21615 -0.95706,5.61198 -2.8711,7.1875 -1.90106,1.5625 -4.81121,2.34375 -8.730466,2.34375 -1.848971,0 -3.704438,-0.17578 -5.566407,-0.52734 -1.861986,-0.35157 -3.723963,-0.8724 -5.585937,-1.5625 l 0,-6.34766 c 1.861974,0.98959 3.658847,1.73829 5.390625,2.24609 1.744781,0.4948 3.424467,0.74219 5.039062,0.74219 1.64061,0 2.897119,-0.27343 3.769532,-0.82031 0.872381,-0.54687 1.308571,-1.32812 1.308591,-2.34375 -2e-5,-0.91145 -0.29949,-1.61458 -0.898435,-2.10938 -0.585955,-0.49478 -1.764339,-0.93749 -3.535156,-1.32812 l -2.910157,-0.64453 c -2.916675,-0.62499 -5.052089,-1.62108 -6.40625,-2.98828 -1.341149,-1.36718 -2.011721,-3.20962 -2.011718,-5.52735 -3e-6,-2.90362 0.937496,-5.13669 2.8125,-6.69922 1.874992,-1.56247 4.570302,-2.34372 8.085937,-2.34375 1.601547,3e-5 3.248681,0.12373 4.941409,0.3711 1.69269,0.2344 3.44399,0.59247 5.2539,1.07422"
         id="path3187" />
      <path
         d="m 132.83984,966.12 0,6.17187 c -1.60158,-0.71612 -3.16408,-1.25649 -4.6875,-1.62109 -1.52345,-0.36456 -2.96225,-0.54685 -4.3164,-0.54688 -1.79689,3e-5 -3.12501,0.24742 -3.98438,0.74219 -0.85938,0.49481 -1.28907,1.26304 -1.28906,2.30469 -1e-5,0.78127 0.28645,1.39325 0.85938,1.83593 0.58592,0.42971 1.64061,0.8008 3.16406,1.11329 l 3.20312,0.64453 c 3.24217,0.65105 5.54686,1.64064 6.91406,2.96875 1.36717,1.32813 2.05076,3.21615 2.05079,5.66406 -3e-5,3.21615 -0.95706,5.61198 -2.8711,7.1875 -1.90106,1.5625 -4.81121,2.34375 -8.73047,2.34375 -1.84897,0 -3.70443,-0.17578 -5.5664,-0.52734 -1.86199,-0.35157 -3.72397,-0.8724 -5.58594,-1.5625 l 0,-6.34766 c 1.86197,0.98959 3.65885,1.73829 5.39063,2.24609 1.74478,0.4948 3.42446,0.74219 5.03906,0.74219 1.64061,0 2.89712,-0.27343 3.76953,-0.82031 0.87238,-0.54687 1.30857,-1.32812 1.30859,-2.34375 -2e-5,-0.91145 -0.29949,-1.61458 -0.89843,-2.10938 -0.58596,-0.49478 -1.76434,-0.93749 -3.53516,-1.32812 l -2.91016,-0.64453 c -2.91667,-0.62499 -5.05209,-1.62108 -6.40625,-2.98828 -1.34115,-1.36718 -2.01172,-3.20962 -2.01172,-5.52735 0,-2.90362 0.9375,-5.13669 2.8125,-6.69922 1.875,-1.56247 4.57031,-2.34372 8.08594,-2.34375 1.60155,3e-5 3.24868,0.12373 4.94141,0.3711 1.69269,0.2344 3.44399,0.59247 5.2539,1.07422"
         id="path3189" />
      <path
         d="m 159.87109,966.12 0,6.17187 c -1.60158,-0.71612 -3.16408,-1.25649 -4.6875,-1.62109 -1.52345,-0.36456 -2.96225,-0.54685 -4.3164,-0.54688 -1.79689,3e-5 -3.12501,0.24742 -3.98438,0.74219 -0.85938,0.49481 -1.28907,1.26304 -1.28906,2.30469 -1e-5,0.78127 0.28645,1.39325 0.85937,1.83593 0.58593,0.42971 1.64062,0.8008 3.16407,1.11329 l 3.20312,0.64453 c 3.24217,0.65105 5.54686,1.64064 6.91406,2.96875 1.36717,1.32813 2.05076,3.21615 2.05079,5.66406 -3e-5,3.21615 -0.95706,5.61198 -2.8711,7.1875 -1.90106,1.5625 -4.81121,2.34375 -8.73047,2.34375 -1.84897,0 -3.70443,-0.17578 -5.5664,-0.52734 -1.86199,-0.35157 -3.72397,-0.8724 -5.58594,-1.5625 l 0,-6.34766 c 1.86197,0.98959 3.65885,1.73829 5.39062,2.24609 1.74479,0.4948 3.42447,0.74219 5.03907,0.74219 1.64061,0 2.89712,-0.27343 3.76953,-0.82031 0.87238,-0.54687 1.30857,-1.32812 1.30859,-2.34375 -2e-5,-0.91145 -0.2995,-1.61458 -0.89844,-2.10938 -0.58595,-0.49478 -1.76433,-0.93749 -3.53515,-1.32812 l -2.91016,-0.64453 c -2.91667,-0.62499 -5.05209,-1.62108 -6.40625,-2.98828 -1.34115,-1.36718 -2.01172,-3.20962 -2.01172,-5.52735 0,-2.90362 0.9375,-5.13669 2.8125,-6.69922 1.875,-1.56247 4.57031,-2.34372 8.08594,-2.34375 1.60155,3e-5 3.24868,0.12373 4.94141,0.3711 1.69269,0.2344 3.44399,0.59247 5.2539,1.07422"
         id="path3191" />
      <path
         d="m 168.40625,965.20203 7.51953,0 0,29.16015 -7.51953,0 0,-29.16015"
         id="path3193" />
    </g>
  </g>
</svg>
