<?xml version="1.0" encoding="UTF-8" standalone="no"?>
<!-- Created with Inkscape (http://www.inkscape.org/) -->

<svg
   xmlns:dc="http://purl.org/dc/elements/1.1/"
   xmlns:cc="http://creativecommons.org/ns#"
   xmlns:rdf="http://www.w3.org/1999/02/22-rdf-syntax-ns#"
   xmlns:svg="http://www.w3.org/2000/svg"
   xmlns="http://www.w3.org/2000/svg"
   version="1.2"
   width="744.09448"
   height="1052.3622"
   id="svg2">
  <title
     id="title3002">jose</title>
  <defs
     id="defs4" />
  <metadata
     id="metadata7">
    <rdf:RDF>
      <cc:Work
         rdf:about="">
        <dc:format>image/svg+xml</dc:format>
        <dc:type
           rdf:resource="http://purl.org/dc/dcmitype/StillImage" />
        <dc:title>jose</dc:title>
      </cc:Work>
    </rdf:RDF>
  </metadata>
  <g
     id="layer1">
    <g
       transform="matrix(1.131934,0,0,1.131934,-4.3981429,-119.96102)"
       id="flowRoot2985"
       style="font-size:72px;font-style:normal;font-variant:normal;font-weight:bold;font-stretch:normal;line-height:125%;letter-spacing:0px;word-spacing:0px;fill:#000000;fill-opacity:1;stroke:none;font-family:Comic Sans MS;-inkscape-font-specification:Comic Sans MS Bold">
      <path
         d="m 47.899663,985.54189 c -0.421916,5e-5 -1.089884,-0.041 -2.003906,-0.12304 -0.914102,-0.082 -1.652382,-0.12301 -2.214844,-0.12305 l -2.742187,0 c -0.02347,-0.3984 -0.03519,0.43363 -0.03516,2.49609 -3.5e-5,16.78131 -1.183627,29.00391 -3.550781,36.66801 -1.734405,5.6484 -4.886745,8.4726 -9.457031,8.4726 -4.359393,0 -8.671888,-1.5 -12.9375,-4.5 -4.828129,-3.3515 -7.2421893,-7.289 -7.2421883,-11.8125 -10e-7,-3.6562 1.652341,-5.4843 4.9570323,-5.4844 3.304677,1e-4 4.957019,1.8048 4.957031,5.4141 -1.2e-5,1.3828 1.18944,2.8653 3.568359,4.4473 2.378889,1.582 4.611309,2.373 6.697266,2.373 0.843727,0 1.453101,-1.5586 1.828125,-4.6758 0.09373,-0.7499 0.351538,-4.3945 0.773437,-10.9336 0.351538,-5.3437 0.527319,-11.99993 0.527344,-19.96871 -2.5e-5,-0.32808 -0.03518,-1.0898 -0.105469,-2.28515 l -0.808593,0.0352 c -1.031274,0.0469 -2.414085,0.0352 -4.148438,-0.0352 -2.085955,-0.0937 -3.468766,-0.14059 -4.148437,-0.14063 -1.382827,4e-5 -2.554701,-0.42183 -3.515625,-1.26562 -1.031262,-0.91402 -1.546886,-2.09761 -1.546875,-3.55079 -1.1e-5,-3.18744 2.097643,-4.78119 6.292968,-4.78125 0.796857,6e-5 1.98045,0.0294 3.550782,0.0879 1.57029,0.0586 2.742164,0.0879 3.515625,0.0879 1.476536,5e-5 3.685519,-0.082 6.626953,-0.2461 2.941372,-0.16401 5.150354,-0.24604 6.626953,-0.24609 6.281206,5e-5 9.421828,1.74614 9.421875,5.23828 -4.7e-5,1.2188 -0.421922,2.30864 -1.265625,3.26953 -0.960982,1.05473 -2.168012,1.58208 -3.621094,1.58203 z"
         id="path2994" />
      <path
         d="m 71.841069,1030.788 c -4.335951,0 -8.06251,-1.4883 -11.179687,-4.4649 -3.421878,-3.2578 -5.214845,-7.6054 -5.378906,-13.0429 -0.164064,-5.1797 1.253903,-9.7969 4.253906,-13.85159 3.562491,-4.78122 8.519517,-7.17184 14.87109,-7.17187 4.68748,3e-5 8.41404,1.87503 11.17969,5.625 2.48434,3.37506 3.72653,7.55866 3.72656,12.55076 -3e-5,5.4375 -1.45316,10.0782 -4.35937,13.9219 -3.25784,4.2891 -7.62893,6.4336 -13.113283,6.4336 z m 2.109375,-29.25 c -2.882829,-0.023 -5.156265,1.2891 -6.820312,3.9375 -1.406262,2.2266 -2.109386,4.8281 -2.109375,7.8047 -1.1e-5,2.8125 0.796863,4.9687 2.390625,6.4687 1.26561,1.1953 2.742171,1.793 4.429687,1.793 2.039043,0 3.808573,-0.6914 5.308593,-2.0742 1.71091,-1.6172 2.62498,-3.8086 2.74219,-6.5742 0.30466,-7.5469 -1.67581,-11.332 -5.941408,-11.3555 z"
         id="path2996" />
      <path
         d="m 119.93482,1002.9794 c -2.32034,0 -3.71487,-0.9726 -4.1836,-2.918 -0.93752,-0.16401 -1.89846,-0.24604 -2.88281,-0.24607 -5.64845,3e-5 -8.47267,0.77347 -8.47266,2.32027 -1e-5,0.9141 1.69921,2.1446 5.09766,3.6915 4.6406,2.1328 7.78123,3.7968 9.42188,4.9921 3.3984,2.461 5.09762,5.2383 5.09765,8.3321 -3e-5,4.0312 -1.87503,7.0898 -5.625,9.1758 -3.02346,1.664 -6.7383,2.496 -11.14453,2.496 -3.1172,0 -5.96485,-0.4804 -8.542968,-1.4414 -3.51563,-1.3125 -5.27344,-3.2461 -5.27343,-5.8007 -1e-5,-2.3438 1.39452,-3.5157 4.18359,-3.5157 1.07812,0 2.636708,0.3399 4.675778,1.0196 2.03905,0.6797 3.60936,1.0195 4.71094,1.0195 4.75779,0 7.14841,-0.9609 7.17187,-2.8828 -2e-5,-1.1953 -1.65236,-2.5195 -4.95703,-3.9727 -4.82814,-2.1328 -7.92188,-3.6679 -9.281248,-4.6054 -3.30469,-2.3203 -4.95703,-5.1445 -4.95703,-8.4727 0,-4.71091 2.49609,-7.88669 7.488278,-9.52735 2.92967,-0.9609 7.3828,-1.44136 13.35938,-1.4414 2.34372,4e-5 4.07809,0.30472 5.20312,0.91406 1.54685,0.82035 2.32028,2.33207 2.32031,4.53516 -3e-5,4.21873 -1.13675,6.32813 -3.41015,6.32813 z"
         id="path2998" />
      <path
         d="m 147.91919,1030.331 c -5.60158,0 -10.1836,-1.336 -13.74609,-4.0079 -3.9375,-2.9531 -5.90625,-7.1132 -5.90625,-12.4804 0,-5.9297 1.55859,-10.9453 4.67578,-15.0469 3.46874,-4.54684 8.14452,-6.82028 14.02734,-6.82031 4.0781,3e-5 7.46482,0.65628 10.16016,1.96875 3.53903,1.7344 5.30856,4.42971 5.30859,8.08596 -3e-5,2.5781 -1.44144,4.8633 -4.32422,6.8554 -1.31253,0.9141 -3.94924,2.2501 -7.91015,4.0079 l -11.84766,5.2382 c 1.12499,1.2188 2.48436,2.1329 4.07813,2.7422 1.59373,0.6094 3.42185,0.9141 5.48437,0.9141 3.1406,0 5.80076,-0.6445 7.98047,-1.9336 1.94528,-1.1484 3.50387,-1.7226 4.67578,-1.7227 2.43747,10e-5 3.65621,1.1836 3.65625,3.5508 -4e-5,2.6719 -1.95706,4.8516 -5.87109,6.5391 -3.28128,1.4062 -6.76174,2.1094 -10.44141,2.1094 z m -0.94922,-29.8477 c -2.1797,0 -4.04298,0.7266 -5.58984,2.1797 -1.54689,1.4531 -2.78907,3.6328 -3.72656,6.5391 2.64842,-1.1485 5.28514,-2.2852 7.91015,-3.4102 3.16404,-1.4297 5.68357,-2.7539 7.5586,-3.9727 -1.57034,-0.8906 -3.62112,-1.3359 -6.15235,-1.3359 z"
         id="path3000" />
    </g>
  </g>
</svg>
