solid OpenSCAD_Model
  facet normal -1 0 0
    outer loop
      vertex -50 -50 -50
      vertex -50 50 50
      vertex -50 50 -50
    endloop
  endfacet
  facet normal -1 -0 0
    outer loop
      vertex -50 50 50
      vertex -50 -50 -50
      vertex -50 -50 50
    endloop
  endfacet
  facet normal 0 0 1
    outer loop
      vertex 50 50 50
      vertex 47.5 47.5 50
      vertex 50 -50 50
    endloop
  endfacet
  facet normal 0 0 1
    outer loop
      vertex 50 50 50
      vertex -47.5 47.5 50
      vertex 47.5 47.5 50
    endloop
  endfacet
  facet normal 0 0 1
    outer loop
      vertex -47.5 47.5 50
      vertex -50 50 50
      vertex -47.5 -47.5 50
    endloop
  endfacet
  facet normal -0 0 1
    outer loop
      vertex -50 50 50
      vertex -47.5 47.5 50
      vertex 50 50 50
    endloop
  endfacet
  facet normal -0 0 1
    outer loop
      vertex 47.5 -47.5 50
      vertex 50 -50 50
      vertex 47.5 47.5 50
    endloop
  endfacet
  facet normal -0 0 1
    outer loop
      vertex -47.5 -47.5 50
      vertex 50 -50 50
      vertex 47.5 -47.5 50
    endloop
  endfacet
  facet normal 0 0 1
    outer loop
      vertex -47.5 -47.5 50
      vertex -50 -50 50
      vertex 50 -50 50
    endloop
  endfacet
  facet normal 0 0 1
    outer loop
      vertex -50 -50 50
      vertex -47.5 -47.5 50
      vertex -50 50 50
    endloop
  endfacet
  facet normal 1 -0 0
    outer loop
      vertex 50 -50 50
      vertex 50 50 -50
      vertex 50 50 50
    endloop
  endfacet
  facet normal 1 0 0
    outer loop
      vertex 50 50 -50
      vertex 50 -50 50
      vertex 50 -50 -50
    endloop
  endfacet
  facet normal 0 1 -0
    outer loop
      vertex 50 50 -50
      vertex -50 50 50
      vertex 50 50 50
    endloop
  endfacet
  facet normal 0 1 0
    outer loop
      vertex -50 50 50
      vertex 50 50 -50
      vertex -50 50 -50
    endloop
  endfacet
  facet normal 0 0 -1
    outer loop
      vertex -50 -50 -50
      vertex 50 50 -50
      vertex 50 -50 -50
    endloop
  endfacet
  facet normal -0 0 -1
    outer loop
      vertex 50 50 -50
      vertex -50 -50 -50
      vertex -50 50 -50
    endloop
  endfacet
  facet normal 0 -1 0
    outer loop
      vertex -50 -50 -50
      vertex 50 -50 50
      vertex -50 -50 50
    endloop
  endfacet
  facet normal 0 -1 -0
    outer loop
      vertex 50 -50 50
      vertex -50 -50 -50
      vertex 50 -50 -50
    endloop
  endfacet
  facet normal 1 -0 0
    outer loop
      vertex -47.5 -47.5 50
      vertex -47.5 47.5 -47.5
      vertex -47.5 47.5 50
    endloop
  endfacet
  facet normal 1 0 0
    outer loop
      vertex -47.5 47.5 -47.5
      vertex -47.5 -47.5 50
      vertex -47.5 -47.5 -47.5
    endloop
  endfacet
  facet normal -1 0 0
    outer loop
      vertex 47.5 -47.5 -47.5
      vertex 47.5 47.5 50
      vertex 47.5 47.5 -47.5
    endloop
  endfacet
  facet normal -1 -0 0
    outer loop
      vertex 47.5 47.5 50
      vertex 47.5 -47.5 -47.5
      vertex 47.5 -47.5 50
    endloop
  endfacet
  facet normal 0 -1 0
    outer loop
      vertex -47.5 47.5 -47.5
      vertex 47.5 47.5 50
      vertex -47.5 47.5 50
    endloop
  endfacet
  facet normal 0 -1 -0
    outer loop
      vertex 47.5 47.5 50
      vertex -47.5 47.5 -47.5
      vertex 47.5 47.5 -47.5
    endloop
  endfacet
  facet normal -0 0 1
    outer loop
      vertex -47.5 47.5 -47.5
      vertex 47.5 -47.5 -47.5
      vertex 47.5 47.5 -47.5
    endloop
  endfacet
  facet normal 0 0 1
    outer loop
      vertex 47.5 -47.5 -47.5
      vertex -47.5 47.5 -47.5
      vertex -47.5 -47.5 -47.5
    endloop
  endfacet
  facet normal 0 1 -0
    outer loop
      vertex 47.5 -47.5 -47.5
      vertex -47.5 -47.5 50
      vertex 47.5 -47.5 50
    endloop
  endfacet
  facet normal 0 1 0
    outer loop
      vertex -47.5 -47.5 50
      vertex 47.5 -47.5 -47.5
      vertex -47.5 -47.5 -47.5
    endloop
  endfacet
endsolid OpenSCAD_Model
