solid OpenSCAD_Model
  facet normal -1 2.22045e-016 4.93038e-032
    outer loop
      vertex -36.5 27.8446 8.75
      vertex -36.5 43 17.5
      vertex -36.5 27.8446 3.29615e-015
    endloop
  endfacet
  facet normal -1 2.22045e-016 4.93038e-032
    outer loop
      vertex -36.5 45.0298 6.29313
      vertex -36.5 43 17.5
      vertex -36.5 58.1554 8.75
    endloop
  endfacet
  facet normal -1 2.22045e-016 4.93038e-032
    outer loop
      vertex -36.5 44.35 3.09474
      vertex -36.5 58.1554 8.75
      vertex -36.5 58.1554 1.00265e-014
    endloop
  endfacet
  facet normal -1 2.22045e-016 4.93038e-032
    outer loop
      vertex -36.5 27.8446 3.29615e-015
      vertex -36.5 43 17.5
      vertex -36.5 41.0981 5.45741
    endloop
  endfacet
  facet normal -1 2.22045e-016 4.93038e-032
    outer loop
      vertex -36.5 27.8446 3.29615e-015
      vertex -36.5 41.0981 5.45741
      vertex -36.5 41.05 5
    endloop
  endfacet
  facet normal -1 2.22045e-016 4.93038e-032
    outer loop
      vertex -36.5 27.8446 3.29615e-015
      vertex -36.5 41.05 5
      vertex -36.5 41.0981 4.54259
    endloop
  endfacet
  facet normal -1 2.22045e-016 4.93038e-032
    outer loop
      vertex -36.5 27.8446 3.29615e-015
      vertex -36.5 41.0981 4.54259
      vertex -36.5 41.2402 4.10518
    endloop
  endfacet
  facet normal -1 2.22045e-016 4.93038e-032
    outer loop
      vertex -36.5 45.4019 5.45741
      vertex -36.5 58.1554 8.75
      vertex -36.5 45.45 5
    endloop
  endfacet
  facet normal -1 2.22045e-016 4.93038e-032
    outer loop
      vertex -36.5 27.8446 3.29615e-015
      vertex -36.5 41.4702 3.70687
      vertex -36.5 41.7779 3.36508
    endloop
  endfacet
  facet normal -1 2.22045e-016 4.93038e-032
    outer loop
      vertex -36.5 27.8446 3.29615e-015
      vertex -36.5 41.7779 3.36508
      vertex -36.5 42.15 3.09474
    endloop
  endfacet
  facet normal -1 2.22045e-016 4.93038e-032
    outer loop
      vertex -36.5 27.8446 3.29615e-015
      vertex -36.5 42.15 3.09474
      vertex -36.5 42.5702 2.90768
    endloop
  endfacet
  facet normal -1 2.22045e-016 4.93038e-032
    outer loop
      vertex -36.5 27.8446 3.29615e-015
      vertex -36.5 42.5702 2.90768
      vertex -36.5 43.02 2.81205
    endloop
  endfacet
  facet normal -1 2.22045e-016 4.93038e-032
    outer loop
      vertex -36.5 27.8446 3.29615e-015
      vertex -36.5 43.02 2.81205
      vertex -36.5 58.1554 1.00265e-014
    endloop
  endfacet
  facet normal -1 2.22045e-016 4.93038e-032
    outer loop
      vertex -36.5 43.9298 2.90768
      vertex -36.5 58.1554 1.00265e-014
      vertex -36.5 43.48 2.81205
    endloop
  endfacet
  facet normal -1 2.22045e-016 4.93038e-032
    outer loop
      vertex -36.5 44.35 3.09474
      vertex -36.5 58.1554 1.00265e-014
      vertex -36.5 43.9298 2.90768
    endloop
  endfacet
  facet normal -1 2.22045e-016 4.93038e-032
    outer loop
      vertex -36.5 44.7221 3.36508
      vertex -36.5 58.1554 8.75
      vertex -36.5 44.35 3.09474
    endloop
  endfacet
  facet normal -1 2.22045e-016 4.93038e-032
    outer loop
      vertex -36.5 45.45 5
      vertex -36.5 58.1554 8.75
      vertex -36.5 45.4019 4.54259
    endloop
  endfacet
  facet normal -1 2.22045e-016 4.93038e-032
    outer loop
      vertex -36.5 45.0298 3.70687
      vertex -36.5 58.1554 8.75
      vertex -36.5 44.7221 3.36508
    endloop
  endfacet
  facet normal -1 2.22045e-016 4.93038e-032
    outer loop
      vertex -36.5 45.2598 4.10518
      vertex -36.5 58.1554 8.75
      vertex -36.5 45.0298 3.70687
    endloop
  endfacet
  facet normal -1 2.22045e-016 4.93038e-032
    outer loop
      vertex -36.5 45.4019 4.54259
      vertex -36.5 58.1554 8.75
      vertex -36.5 45.2598 4.10518
    endloop
  endfacet
  facet normal -1 2.22045e-016 4.93038e-032
    outer loop
      vertex -36.5 43.48 2.81205
      vertex -36.5 58.1554 1.00265e-014
      vertex -36.5 43.02 2.81205
    endloop
  endfacet
  facet normal -1 2.22045e-016 4.93038e-032
    outer loop
      vertex -36.5 45.2598 5.89482
      vertex -36.5 58.1554 8.75
      vertex -36.5 45.4019 5.45741
    endloop
  endfacet
  facet normal -1 2.22045e-016 4.93038e-032
    outer loop
      vertex -36.5 45.0298 6.29313
      vertex -36.5 58.1554 8.75
      vertex -36.5 45.2598 5.89482
    endloop
  endfacet
  facet normal -1 2.22045e-016 4.93038e-032
    outer loop
      vertex -36.5 44.7221 6.63492
      vertex -36.5 43 17.5
      vertex -36.5 45.0298 6.29313
    endloop
  endfacet
  facet normal -1 2.22045e-016 4.93038e-032
    outer loop
      vertex -36.5 44.35 6.90526
      vertex -36.5 43 17.5
      vertex -36.5 44.7221 6.63492
    endloop
  endfacet
  facet normal -1 2.22045e-016 4.93038e-032
    outer loop
      vertex -36.5 43.9298 7.09232
      vertex -36.5 43 17.5
      vertex -36.5 44.35 6.90526
    endloop
  endfacet
  facet normal -1 2.22045e-016 4.93038e-032
    outer loop
      vertex -36.5 43.48 7.18795
      vertex -36.5 43 17.5
      vertex -36.5 43.9298 7.09232
    endloop
  endfacet
  facet normal -1 2.22045e-016 4.93038e-032
    outer loop
      vertex -36.5 43.02 7.18795
      vertex -36.5 43 17.5
      vertex -36.5 43.48 7.18795
    endloop
  endfacet
  facet normal -1 2.22045e-016 4.93038e-032
    outer loop
      vertex -36.5 42.5702 7.09232
      vertex -36.5 43 17.5
      vertex -36.5 43.02 7.18795
    endloop
  endfacet
  facet normal -1 2.22045e-016 4.93038e-032
    outer loop
      vertex -36.5 42.15 6.90526
      vertex -36.5 43 17.5
      vertex -36.5 42.5702 7.09232
    endloop
  endfacet
  facet normal -1 2.22045e-016 4.93038e-032
    outer loop
      vertex -36.5 41.7779 6.63492
      vertex -36.5 43 17.5
      vertex -36.5 42.15 6.90526
    endloop
  endfacet
  facet normal -1 2.22045e-016 4.93038e-032
    outer loop
      vertex -36.5 41.4702 6.29313
      vertex -36.5 43 17.5
      vertex -36.5 41.7779 6.63492
    endloop
  endfacet
  facet normal -1 2.22045e-016 4.93038e-032
    outer loop
      vertex -36.5 41.2402 5.89482
      vertex -36.5 43 17.5
      vertex -36.5 41.4702 6.29313
    endloop
  endfacet
  facet normal -1 2.22045e-016 4.93038e-032
    outer loop
      vertex -36.5 41.0981 5.45741
      vertex -36.5 43 17.5
      vertex -36.5 41.2402 5.89482
    endloop
  endfacet
  facet normal -1 2.22045e-016 4.93038e-032
    outer loop
      vertex -36.5 41.4702 3.70687
      vertex -36.5 27.8446 3.29615e-015
      vertex -36.5 41.2402 4.10518
    endloop
  endfacet
  facet normal -1.11022e-016 -0.5 0.866025
    outer loop
      vertex -24 30 9.99445
      vertex -36.5 27.8446 8.75
      vertex -19.5 27.8446 8.75
    endloop
  endfacet
  facet normal -1.11022e-016 -0.5 0.866025
    outer loop
      vertex -19.5 43 17.5
      vertex -22.5 43 17.5
      vertex -19.5 27.8446 8.75
    endloop
  endfacet
  facet normal -1.11022e-016 -0.5 0.866025
    outer loop
      vertex -22.5 43 17.5
      vertex -22.5 34 12.3038
      vertex -19.5 27.8446 8.75
    endloop
  endfacet
  facet normal -1.11022e-016 -0.5 0.866025
    outer loop
      vertex -22.5 34 12.3038
      vertex -24 34 12.3038
      vertex -19.5 27.8446 8.75
    endloop
  endfacet
  facet normal -1.11022e-016 -0.5 0.866025
    outer loop
      vertex -33.5 34 12.3038
      vertex -33.5 36.2192 13.5851
      vertex -36.5 43 17.5
    endloop
  endfacet
  facet normal -1.11022e-016 -0.5 0.866025
    outer loop
      vertex -32 30 9.99445
      vertex -36.5 27.8446 8.75
      vertex -24 30 9.99445
    endloop
  endfacet
  facet normal -1.11022e-016 -0.5 0.866025
    outer loop
      vertex -33.5 34 12.3038
      vertex -36.5 27.8446 8.75
      vertex -32 30 9.99445
    endloop
  endfacet
  facet normal -1.11022e-016 -0.5 0.866025
    outer loop
      vertex -33.5 39.2288 15.3227
      vertex -33.5 43 17.5
      vertex -36.5 43 17.5
    endloop
  endfacet
  facet normal -1.11022e-016 -0.5 0.866025
    outer loop
      vertex -36.5 43 17.5
      vertex -36.5 27.8446 8.75
      vertex -33.5 34 12.3038
    endloop
  endfacet
  facet normal -1.11022e-016 -0.5 0.866025
    outer loop
      vertex -33.5 36.2192 13.5851
      vertex -33.5 39.2288 15.3227
      vertex -36.5 43 17.5
    endloop
  endfacet
  facet normal -1.11022e-016 -0.5 0.866025
    outer loop
      vertex -24 34 12.3038
      vertex -24 30 9.99445
      vertex -19.5 27.8446 8.75
    endloop
  endfacet
  facet normal -1.11022e-016 -0.5 0.866025
    outer loop
      vertex -32 34 12.3038
      vertex -33.5 34 12.3038
      vertex -32 30 9.99445
    endloop
  endfacet
  facet normal -2.22045e-016 -1 -4.44089e-016
    outer loop
      vertex -19.5 27.8446 8.75
      vertex -36.5 27.8446 8.75
      vertex -36.5 27.8446 3.29615e-015
    endloop
  endfacet
  facet normal -2.22045e-016 -1 -4.44089e-016
    outer loop
      vertex -19.5 27.8446 3.29615e-015
      vertex -19.5 27.8446 8.75
      vertex -36.5 27.8446 3.29615e-015
    endloop
  endfacet
  facet normal 0 2.22045e-016 -1
    outer loop
      vertex -33.5 33.3595 4.52072e-015
      vertex -19.5 27.8446 3.29615e-015
      vertex -36.5 27.8446 3.29615e-015
    endloop
  endfacet
  facet normal 0 2.22045e-016 -1
    outer loop
      vertex -22.5 33.3595 4.52072e-015
      vertex -19.5 27.8446 3.29615e-015
      vertex -33.5 33.3595 4.52072e-015
    endloop
  endfacet
  facet normal 0 2.22045e-016 -1
    outer loop
      vertex -36.5 58.1554 1.00265e-014
      vertex -33.5 33.3595 4.52072e-015
      vertex -36.5 27.8446 3.29615e-015
    endloop
  endfacet
  facet normal 0 2.22045e-016 -1
    outer loop
      vertex -19.5 58.1554 1.00265e-014
      vertex -19.5 27.8446 3.29615e-015
      vertex -22.5 33.3595 4.52072e-015
    endloop
  endfacet
  facet normal 0 2.22045e-016 -1
    outer loop
      vertex -19.5 58.1554 1.00265e-014
      vertex -22.5 33.3595 4.52072e-015
      vertex -22.5 53.1405 8.91298e-015
    endloop
  endfacet
  facet normal 0 2.22045e-016 -1
    outer loop
      vertex -19.5 58.1554 1.00265e-014
      vertex -22.5 53.1405 8.91298e-015
      vertex -36.5 58.1554 1.00265e-014
    endloop
  endfacet
  facet normal 0 2.22045e-016 -1
    outer loop
      vertex -22.5 53.1405 8.91298e-015
      vertex -33.5 53.1405 8.91298e-015
      vertex -36.5 58.1554 1.00265e-014
    endloop
  endfacet
  facet normal 0 2.22045e-016 -1
    outer loop
      vertex -33.5 33.3595 4.52072e-015
      vertex -36.5 58.1554 1.00265e-014
      vertex -33.5 53.1405 8.91298e-015
    endloop
  endfacet
  facet normal 2.22045e-016 1 4.44089e-016
    outer loop
      vertex -36.5 58.1554 8.75
      vertex -19.5 58.1554 8.75
      vertex -36.5 58.1554 1.00265e-014
    endloop
  endfacet
  facet normal 2.22045e-016 1 4.44089e-016
    outer loop
      vertex -36.5 58.1554 1.00265e-014
      vertex -19.5 58.1554 8.75
      vertex -19.5 58.1554 1.00265e-014
    endloop
  endfacet
  facet normal 1.11022e-016 0.5 0.866025
    outer loop
      vertex -36.5 58.1554 8.75
      vertex -36.5 43 17.5
      vertex -33.5 43 17.5
    endloop
  endfacet
  facet normal 1.11022e-016 0.5 0.866025
    outer loop
      vertex -32 52 12.3038
      vertex -36.5 58.1554 8.75
      vertex -33.5 52 12.3038
    endloop
  endfacet
  facet normal 1.11022e-016 0.5 0.866025
    outer loop
      vertex -33.5 52 12.3038
      vertex -36.5 58.1554 8.75
      vertex -33.5 43 17.5
    endloop
  endfacet
  facet normal 1.11022e-016 0.5 0.866025
    outer loop
      vertex -32 56 9.99445
      vertex -36.5 58.1554 8.75
      vertex -32 52 12.3038
    endloop
  endfacet
  facet normal 1.11022e-016 0.5 0.866025
    outer loop
      vertex -24 56 9.99445
      vertex -36.5 58.1554 8.75
      vertex -32 56 9.99445
    endloop
  endfacet
  facet normal 1.11022e-016 0.5 0.866025
    outer loop
      vertex -19.5 58.1554 8.75
      vertex -36.5 58.1554 8.75
      vertex -24 56 9.99445
    endloop
  endfacet
  facet normal 1.11022e-016 0.5 0.866025
    outer loop
      vertex -22.5 52 12.3038
      vertex -24 56 9.99445
      vertex -24 52 12.3038
    endloop
  endfacet
  facet normal 1.11022e-016 0.5 0.866025
    outer loop
      vertex -19.5 58.1554 8.75
      vertex -24 56 9.99445
      vertex -22.5 52 12.3038
    endloop
  endfacet
  facet normal 1.11022e-016 0.5 0.866025
    outer loop
      vertex -19.5 43 17.5
      vertex -22.5 52 12.3038
      vertex -22.5 51.1051 12.8205
    endloop
  endfacet
  facet normal 1.11022e-016 0.5 0.866025
    outer loop
      vertex -22.5 43 17.5
      vertex -22.5 51.1051 12.8205
      vertex -22.5 46.1142 15.702
    endloop
  endfacet
  facet normal 1.11022e-016 0.5 0.866025
    outer loop
      vertex -19.5 43 17.5
      vertex -22.5 51.1051 12.8205
      vertex -22.5 43 17.5
    endloop
  endfacet
  facet normal 1.11022e-016 0.5 0.866025
    outer loop
      vertex -19.5 58.1554 8.75
      vertex -22.5 52 12.3038
      vertex -19.5 43 17.5
    endloop
  endfacet
  facet normal 2.11177e-016 0.951056 -0.309017
    outer loop
      vertex -33.5 41.2402 5.89482
      vertex -33.5 41.0981 5.45741
      vertex -36.5 41.2402 5.89482
    endloop
  endfacet
  facet normal 2.11177e-016 0.951056 -0.309017
    outer loop
      vertex -36.5 41.2402 5.89482
      vertex -33.5 41.0981 5.45741
      vertex -36.5 41.0981 5.45741
    endloop
  endfacet
  facet normal 2.20828e-016 0.994522 -0.104528
    outer loop
      vertex -33.5 41.0981 5.45741
      vertex -33.5 41.05 5
      vertex -36.5 41.0981 5.45741
    endloop
  endfacet
  facet normal 2.20828e-016 0.994522 -0.104528
    outer loop
      vertex -36.5 41.0981 5.45741
      vertex -33.5 41.05 5
      vertex -36.5 41.05 5
    endloop
  endfacet
  facet normal 1.92296e-016 0.866025 -0.500001
    outer loop
      vertex -33.5 41.4702 6.29313
      vertex -33.5 41.2402 5.89482
      vertex -36.5 41.4702 6.29313
    endloop
  endfacet
  facet normal 1.92296e-016 0.866025 -0.500001
    outer loop
      vertex -36.5 41.4702 6.29313
      vertex -33.5 41.2402 5.89482
      vertex -36.5 41.2402 5.89482
    endloop
  endfacet
  facet normal 1.65011e-016 0.743145 -0.669131
    outer loop
      vertex -33.5 41.7779 6.63492
      vertex -33.5 41.4702 6.29313
      vertex -36.5 41.7779 6.63492
    endloop
  endfacet
  facet normal 1.65011e-016 0.743145 -0.669131
    outer loop
      vertex -36.5 41.7779 6.63492
      vertex -33.5 41.4702 6.29313
      vertex -36.5 41.4702 6.29313
    endloop
  endfacet
  facet normal 1.30515e-016 0.587785 -0.809017
    outer loop
      vertex -33.5 42.15 6.90526
      vertex -33.5 41.7779 6.63492
      vertex -36.5 42.15 6.90526
    endloop
  endfacet
  facet normal 1.30515e-016 0.587785 -0.809017
    outer loop
      vertex -36.5 42.15 6.90526
      vertex -33.5 41.7779 6.63492
      vertex -36.5 41.7779 6.63492
    endloop
  endfacet
  facet normal 9.03134e-017 0.406736 -0.913546
    outer loop
      vertex -33.5 42.5702 7.09232
      vertex -33.5 42.15 6.90526
      vertex -36.5 42.5702 7.09232
    endloop
  endfacet
  facet normal 9.03134e-017 0.406736 -0.913546
    outer loop
      vertex -36.5 42.5702 7.09232
      vertex -33.5 42.15 6.90526
      vertex -36.5 42.15 6.90526
    endloop
  endfacet
  facet normal 4.61658e-017 0.207912 -0.978147
    outer loop
      vertex -33.5 43.02 7.18795
      vertex -33.5 42.5702 7.09232
      vertex -36.5 43.02 7.18795
    endloop
  endfacet
  facet normal 4.61658e-017 0.207912 -0.978147
    outer loop
      vertex -36.5 43.02 7.18795
      vertex -33.5 42.5702 7.09232
      vertex -36.5 42.5702 7.09232
    endloop
  endfacet
  facet normal 0 2.22045e-016 -1
    outer loop
      vertex -33.5 43.48 7.18795
      vertex -33.5 43.02 7.18795
      vertex -36.5 43.48 7.18795
    endloop
  endfacet
  facet normal 0 2.22045e-016 -1
    outer loop
      vertex -36.5 43.48 7.18795
      vertex -33.5 43.02 7.18795
      vertex -36.5 43.02 7.18795
    endloop
  endfacet
  facet normal -4.61658e-017 -0.207912 -0.978147
    outer loop
      vertex -33.5 43.9298 7.09232
      vertex -33.5 43.48 7.18795
      vertex -36.5 43.9298 7.09232
    endloop
  endfacet
  facet normal -4.61658e-017 -0.207912 -0.978147
    outer loop
      vertex -36.5 43.9298 7.09232
      vertex -33.5 43.48 7.18795
      vertex -36.5 43.48 7.18795
    endloop
  endfacet
  facet normal -9.03134e-017 -0.406736 -0.913546
    outer loop
      vertex -33.5 44.35 6.90526
      vertex -33.5 43.9298 7.09232
      vertex -36.5 44.35 6.90526
    endloop
  endfacet
  facet normal -9.03134e-017 -0.406736 -0.913546
    outer loop
      vertex -36.5 44.35 6.90526
      vertex -33.5 43.9298 7.09232
      vertex -36.5 43.9298 7.09232
    endloop
  endfacet
  facet normal -1.30515e-016 -0.587785 -0.809017
    outer loop
      vertex -33.5 44.7221 6.63492
      vertex -33.5 44.35 6.90526
      vertex -36.5 44.7221 6.63492
    endloop
  endfacet
  facet normal -1.30515e-016 -0.587785 -0.809017
    outer loop
      vertex -36.5 44.7221 6.63492
      vertex -33.5 44.35 6.90526
      vertex -36.5 44.35 6.90526
    endloop
  endfacet
  facet normal -1.65011e-016 -0.743145 -0.669131
    outer loop
      vertex -36.5 45.0298 6.29313
      vertex -33.5 45.0298 6.29313
      vertex -33.5 44.7221 6.63492
    endloop
  endfacet
  facet normal -1.65011e-016 -0.743145 -0.669131
    outer loop
      vertex -36.5 44.7221 6.63492
      vertex -36.5 45.0298 6.29313
      vertex -33.5 44.7221 6.63492
    endloop
  endfacet
  facet normal -1.92296e-016 -0.866025 -0.500001
    outer loop
      vertex -36.5 45.2598 5.89482
      vertex -33.5 45.2598 5.89482
      vertex -33.5 45.0298 6.29313
    endloop
  endfacet
  facet normal -1.92296e-016 -0.866025 -0.500001
    outer loop
      vertex -36.5 45.0298 6.29313
      vertex -36.5 45.2598 5.89482
      vertex -33.5 45.0298 6.29313
    endloop
  endfacet
  facet normal -2.11177e-016 -0.951056 -0.309017
    outer loop
      vertex -36.5 45.4019 5.45741
      vertex -33.5 45.4019 5.45741
      vertex -33.5 45.2598 5.89482
    endloop
  endfacet
  facet normal -2.11177e-016 -0.951056 -0.309017
    outer loop
      vertex -36.5 45.2598 5.89482
      vertex -36.5 45.4019 5.45741
      vertex -33.5 45.2598 5.89482
    endloop
  endfacet
  facet normal -2.20828e-016 -0.994522 -0.104528
    outer loop
      vertex -36.5 45.45 5
      vertex -33.5 45.45 5
      vertex -33.5 45.4019 5.45741
    endloop
  endfacet
  facet normal -2.20828e-016 -0.994522 -0.104528
    outer loop
      vertex -36.5 45.4019 5.45741
      vertex -36.5 45.45 5
      vertex -33.5 45.4019 5.45741
    endloop
  endfacet
  facet normal -2.20828e-016 -0.994522 0.104528
    outer loop
      vertex -33.5 45.4019 4.54259
      vertex -33.5 45.45 5
      vertex -36.5 45.45 5
    endloop
  endfacet
  facet normal -2.20828e-016 -0.994522 0.104528
    outer loop
      vertex -36.5 45.4019 4.54259
      vertex -33.5 45.4019 4.54259
      vertex -36.5 45.45 5
    endloop
  endfacet
  facet normal -2.11177e-016 -0.951056 0.309017
    outer loop
      vertex -33.5 45.2598 4.10518
      vertex -33.5 45.4019 4.54259
      vertex -36.5 45.4019 4.54259
    endloop
  endfacet
  facet normal -2.11177e-016 -0.951056 0.309017
    outer loop
      vertex -36.5 45.2598 4.10518
      vertex -33.5 45.2598 4.10518
      vertex -36.5 45.4019 4.54259
    endloop
  endfacet
  facet normal -1.92296e-016 -0.866025 0.500001
    outer loop
      vertex -33.5 45.0298 3.70687
      vertex -33.5 45.2598 4.10518
      vertex -36.5 45.2598 4.10518
    endloop
  endfacet
  facet normal -1.92296e-016 -0.866025 0.500001
    outer loop
      vertex -36.5 45.0298 3.70687
      vertex -33.5 45.0298 3.70687
      vertex -36.5 45.2598 4.10518
    endloop
  endfacet
  facet normal -1.65011e-016 -0.743145 0.669131
    outer loop
      vertex -33.5 44.7221 3.36508
      vertex -33.5 45.0298 3.70687
      vertex -36.5 45.0298 3.70687
    endloop
  endfacet
  facet normal -1.65011e-016 -0.743145 0.669131
    outer loop
      vertex -36.5 44.7221 3.36508
      vertex -33.5 44.7221 3.36508
      vertex -36.5 45.0298 3.70687
    endloop
  endfacet
  facet normal -1.30515e-016 -0.587785 0.809017
    outer loop
      vertex -33.5 44.35 3.09474
      vertex -33.5 44.7221 3.36508
      vertex -36.5 44.7221 3.36508
    endloop
  endfacet
  facet normal -1.30515e-016 -0.587785 0.809017
    outer loop
      vertex -36.5 44.35 3.09474
      vertex -33.5 44.35 3.09474
      vertex -36.5 44.7221 3.36508
    endloop
  endfacet
  facet normal -9.03134e-017 -0.406736 0.913546
    outer loop
      vertex -33.5 43.9298 2.90768
      vertex -33.5 44.35 3.09474
      vertex -36.5 44.35 3.09474
    endloop
  endfacet
  facet normal -9.03134e-017 -0.406736 0.913546
    outer loop
      vertex -36.5 43.9298 2.90768
      vertex -33.5 43.9298 2.90768
      vertex -36.5 44.35 3.09474
    endloop
  endfacet
  facet normal -4.61658e-017 -0.207912 0.978147
    outer loop
      vertex -33.5 43.48 2.81205
      vertex -33.5 43.9298 2.90768
      vertex -36.5 43.9298 2.90768
    endloop
  endfacet
  facet normal -4.61658e-017 -0.207912 0.978147
    outer loop
      vertex -36.5 43.48 2.81205
      vertex -33.5 43.48 2.81205
      vertex -36.5 43.9298 2.90768
    endloop
  endfacet
  facet normal 0 -2.22045e-016 1
    outer loop
      vertex -33.5 43.02 2.81205
      vertex -33.5 43.48 2.81205
      vertex -36.5 43.48 2.81205
    endloop
  endfacet
  facet normal 0 -2.22045e-016 1
    outer loop
      vertex -36.5 43.02 2.81205
      vertex -33.5 43.02 2.81205
      vertex -36.5 43.48 2.81205
    endloop
  endfacet
  facet normal 4.61658e-017 0.207912 0.978147
    outer loop
      vertex -33.5 42.5702 2.90768
      vertex -33.5 43.02 2.81205
      vertex -36.5 43.02 2.81205
    endloop
  endfacet
  facet normal 4.61658e-017 0.207912 0.978147
    outer loop
      vertex -36.5 42.5702 2.90768
      vertex -33.5 42.5702 2.90768
      vertex -36.5 43.02 2.81205
    endloop
  endfacet
  facet normal 9.03134e-017 0.406736 0.913546
    outer loop
      vertex -33.5 42.15 3.09474
      vertex -33.5 42.5702 2.90768
      vertex -36.5 42.5702 2.90768
    endloop
  endfacet
  facet normal 9.03134e-017 0.406736 0.913546
    outer loop
      vertex -36.5 42.15 3.09474
      vertex -33.5 42.15 3.09474
      vertex -36.5 42.5702 2.90768
    endloop
  endfacet
  facet normal 1.30515e-016 0.587785 0.809017
    outer loop
      vertex -33.5 41.7779 3.36508
      vertex -33.5 42.15 3.09474
      vertex -36.5 42.15 3.09474
    endloop
  endfacet
  facet normal 1.30515e-016 0.587785 0.809017
    outer loop
      vertex -36.5 41.7779 3.36508
      vertex -33.5 41.7779 3.36508
      vertex -36.5 42.15 3.09474
    endloop
  endfacet
  facet normal 1.65011e-016 0.743145 0.669131
    outer loop
      vertex -33.5 41.7779 3.36508
      vertex -36.5 41.7779 3.36508
      vertex -33.5 41.4702 3.70687
    endloop
  endfacet
  facet normal 1.65011e-016 0.743145 0.669131
    outer loop
      vertex -33.5 41.4702 3.70687
      vertex -36.5 41.7779 3.36508
      vertex -36.5 41.4702 3.70687
    endloop
  endfacet
  facet normal 1.92296e-016 0.866025 0.500001
    outer loop
      vertex -33.5 41.4702 3.70687
      vertex -36.5 41.4702 3.70687
      vertex -33.5 41.2402 4.10518
    endloop
  endfacet
  facet normal 1.92296e-016 0.866025 0.500001
    outer loop
      vertex -33.5 41.2402 4.10518
      vertex -36.5 41.4702 3.70687
      vertex -36.5 41.2402 4.10518
    endloop
  endfacet
  facet normal 2.11177e-016 0.951056 0.309017
    outer loop
      vertex -33.5 41.2402 4.10518
      vertex -36.5 41.2402 4.10518
      vertex -33.5 41.0981 4.54259
    endloop
  endfacet
  facet normal 2.11177e-016 0.951056 0.309017
    outer loop
      vertex -33.5 41.0981 4.54259
      vertex -36.5 41.2402 4.10518
      vertex -36.5 41.0981 4.54259
    endloop
  endfacet
  facet normal 2.20828e-016 0.994522 0.104528
    outer loop
      vertex -33.5 41.0981 4.54259
      vertex -36.5 41.0981 4.54259
      vertex -33.5 41.05 5
    endloop
  endfacet
  facet normal 2.20828e-016 0.994522 0.104528
    outer loop
      vertex -33.5 41.05 5
      vertex -36.5 41.0981 4.54259
      vertex -36.5 41.05 5
    endloop
  endfacet
  facet normal 1 0 0
    outer loop
      vertex -33.5 43 17.5
      vertex -33.5 39.8199 15.5567
      vertex -33.5 41.1701 15.9034
    endloop
  endfacet
  facet normal 1 0 0
    outer loop
      vertex -33.5 43.25 16.0781
      vertex -33.5 43 17.5
      vertex -33.5 42.553 16.0781
    endloop
  endfacet
  facet normal 1 0 0
    outer loop
      vertex -33.5 42.553 16.0781
      vertex -33.5 43 17.5
      vertex -33.5 41.1701 15.9034
    endloop
  endfacet
  facet normal 1 0 0
    outer loop
      vertex -33.5 39.2288 15.3227
      vertex -33.5 39.8199 15.5567
      vertex -33.5 43 17.5
    endloop
  endfacet
  facet normal 1 0 0
    outer loop
      vertex -33.5 43.25 10
      vertex -33.5 52 10
      vertex -33.5 43.25 16.0781
    endloop
  endfacet
  facet normal 1 0 0
    outer loop
      vertex -33.5 52 10
      vertex -33.5 52 12.3038
      vertex -33.5 43.25 16.0781
    endloop
  endfacet
  facet normal 1 0 0
    outer loop
      vertex -33.5 52 12.3038
      vertex -33.5 43 17.5
      vertex -33.5 43.25 16.0781
    endloop
  endfacet
  facet normal 1 -2.22045e-016 -4.93038e-032
    outer loop
      vertex -33.5 32.2375 3.6088
      vertex -33.5 32.4987 2.23954
      vertex -33.5 32.9295 0.913817
    endloop
  endfacet
  facet normal 1 -2.22045e-016 -4.93038e-032
    outer loop
      vertex -33.5 53.1405 8.91298e-015
      vertex -33.5 32.2375 3.6088
      vertex -33.5 33.3595 4.52072e-015
    endloop
  endfacet
  facet normal 1 -2.22045e-016 -4.93038e-032
    outer loop
      vertex -33.5 33.3595 4.52072e-015
      vertex -33.5 32.2375 3.6088
      vertex -33.5 32.9295 0.913817
    endloop
  endfacet
  facet normal 1 -2.22045e-016 -4.93038e-032
    outer loop
      vertex -33.5 53.5705 0.913817
      vertex -33.5 32.2375 3.6088
      vertex -33.5 53.1405 8.91298e-015
    endloop
  endfacet
  facet normal 1 -2.22045e-016 -4.93038e-032
    outer loop
      vertex -33.5 43.02 2.81205
      vertex -33.5 32.2375 3.6088
      vertex -33.5 53.5705 0.913817
    endloop
  endfacet
  facet normal 1 -2.22045e-016 -4.93038e-032
    outer loop
      vertex -33.5 41.7779 3.36508
      vertex -33.5 41.4702 3.70687
      vertex -33.5 32.2375 3.6088
    endloop
  endfacet
  facet normal 1 -2.22045e-016 -4.93038e-032
    outer loop
      vertex -33.5 43.9298 2.90768
      vertex -33.5 43.48 2.81205
      vertex -33.5 54.0013 2.23954
    endloop
  endfacet
  facet normal 1 -2.22045e-016 -4.93038e-032
    outer loop
      vertex -33.5 45.4019 4.54259
      vertex -33.5 45.2598 4.10518
      vertex -33.5 54.35 5
    endloop
  endfacet
  facet normal 1 -2.22045e-016 -4.93038e-032
    outer loop
      vertex -33.5 44.7221 6.63492
      vertex -33.5 45.0298 6.29313
      vertex -33.5 53.5705 9.08618
    endloop
  endfacet
  facet normal 1 -2.22045e-016 -4.93038e-032
    outer loop
      vertex -33.5 41.7779 6.63492
      vertex -33.5 42.15 6.90526
      vertex -33.5 32.2375 3.6088
    endloop
  endfacet
  facet normal 1 -2.22045e-016 -4.93038e-032
    outer loop
      vertex -33.5 42.5702 7.09232
      vertex -33.5 43.25 10
      vertex -33.5 32.2375 3.6088
    endloop
  endfacet
  facet normal 1 -2.22045e-016 -4.93038e-032
    outer loop
      vertex -33.5 52.977 10.3475
      vertex -33.5 52 10
      vertex -33.5 53.5705 9.08618
    endloop
  endfacet
  facet normal 1 -2.22045e-016 -4.93038e-032
    outer loop
      vertex -33.5 43.25 16.0781
      vertex -33.5 32.2375 3.6088
      vertex -33.5 43.25 10
    endloop
  endfacet
  facet normal 1 -2.22045e-016 -4.93038e-032
    outer loop
      vertex -33.5 42.553 16.0781
      vertex -33.5 32.2375 3.6088
      vertex -33.5 43.25 16.0781
    endloop
  endfacet
  facet normal 1 -2.22045e-016 -4.93038e-032
    outer loop
      vertex -33.5 41.1701 15.9034
      vertex -33.5 32.2375 3.6088
      vertex -33.5 42.553 16.0781
    endloop
  endfacet
  facet normal 1 -2.22045e-016 -4.93038e-032
    outer loop
      vertex -33.5 39.8199 15.5567
      vertex -33.5 32.2375 3.6088
      vertex -33.5 41.1701 15.9034
    endloop
  endfacet
  facet normal 1 -2.22045e-016 -4.93038e-032
    outer loop
      vertex -33.5 39.2288 15.3227
      vertex -33.5 32.2375 3.6088
      vertex -33.5 39.8199 15.5567
    endloop
  endfacet
  facet normal 1 -2.22045e-016 -4.93038e-032
    outer loop
      vertex -33.5 36.2192 13.5851
      vertex -33.5 32.2375 3.6088
      vertex -33.5 39.2288 15.3227
    endloop
  endfacet
  facet normal 1 -2.22045e-016 -4.93038e-032
    outer loop
      vertex -33.5 36.1746 13.5527
      vertex -33.5 32.2375 3.6088
      vertex -33.5 36.2192 13.5851
    endloop
  endfacet
  facet normal 1 -2.22045e-016 -4.93038e-032
    outer loop
      vertex -33.5 35.1584 12.5985
      vertex -33.5 32.2375 3.6088
      vertex -33.5 36.1746 13.5527
    endloop
  endfacet
  facet normal 1 -2.22045e-016 -4.93038e-032
    outer loop
      vertex -33.5 34.2699 11.5244
      vertex -33.5 32.2375 3.6088
      vertex -33.5 35.1584 12.5985
    endloop
  endfacet
  facet normal 1 -2.22045e-016 -4.93038e-032
    outer loop
      vertex -33.5 33.523 10.3475
      vertex -33.5 32.2375 3.6088
      vertex -33.5 34.2699 11.5244
    endloop
  endfacet
  facet normal 1 -2.22045e-016 -4.93038e-032
    outer loop
      vertex -33.5 32.9295 9.08618
      vertex -33.5 32.2375 3.6088
      vertex -33.5 33.523 10.3475
    endloop
  endfacet
  facet normal 1 -2.22045e-016 -4.93038e-032
    outer loop
      vertex -33.5 32.4987 7.76046
      vertex -33.5 32.2375 3.6088
      vertex -33.5 32.9295 9.08618
    endloop
  endfacet
  facet normal 1 -2.22045e-016 -4.93038e-032
    outer loop
      vertex -33.5 32.2375 6.3912
      vertex -33.5 32.2375 3.6088
      vertex -33.5 32.4987 7.76046
    endloop
  endfacet
  facet normal 1 -2.22045e-016 -4.93038e-032
    outer loop
      vertex -33.5 32.15 5
      vertex -33.5 32.2375 3.6088
      vertex -33.5 32.2375 6.3912
    endloop
  endfacet
  facet normal 1 -2.22045e-016 -4.93038e-032
    outer loop
      vertex -33.5 41.2402 5.89482
      vertex -33.5 32.2375 3.6088
      vertex -33.5 41.0981 5.45741
    endloop
  endfacet
  facet normal 1 -2.22045e-016 -4.93038e-032
    outer loop
      vertex -33.5 43.02 7.18795
      vertex -33.5 43.48 7.18795
      vertex -33.5 52 10
    endloop
  endfacet
  facet normal 1 -2.22045e-016 -4.93038e-032
    outer loop
      vertex -33.5 44.35 6.90526
      vertex -33.5 44.7221 6.63492
      vertex -33.5 53.5705 9.08618
    endloop
  endfacet
  facet normal 1 -2.22045e-016 -4.93038e-032
    outer loop
      vertex -33.5 41.7779 6.63492
      vertex -33.5 32.2375 3.6088
      vertex -33.5 41.4702 6.29313
    endloop
  endfacet
  facet normal 1 -2.22045e-016 -4.93038e-032
    outer loop
      vertex -33.5 52 10
      vertex -33.5 43.25 10
      vertex -33.5 42.5702 7.09232
    endloop
  endfacet
  facet normal 1 -2.22045e-016 -4.93038e-032
    outer loop
      vertex -33.5 43.9298 7.09232
      vertex -33.5 44.35 6.90526
      vertex -33.5 53.5705 9.08618
    endloop
  endfacet
  facet normal 1 -2.22045e-016 -4.93038e-032
    outer loop
      vertex -33.5 52 10
      vertex -33.5 43.9298 7.09232
      vertex -33.5 53.5705 9.08618
    endloop
  endfacet
  facet normal 1 -2.22045e-016 -4.93038e-032
    outer loop
      vertex -33.5 43.48 7.18795
      vertex -33.5 43.9298 7.09232
      vertex -33.5 52 10
    endloop
  endfacet
  facet normal 1 -2.22045e-016 -4.93038e-032
    outer loop
      vertex -33.5 45.0298 6.29313
      vertex -33.5 45.2598 5.89482
      vertex -33.5 54.0013 7.76046
    endloop
  endfacet
  facet normal 1 -2.22045e-016 -4.93038e-032
    outer loop
      vertex -33.5 53.5705 9.08618
      vertex -33.5 45.0298 6.29313
      vertex -33.5 54.0013 7.76046
    endloop
  endfacet
  facet normal 1 -2.22045e-016 -4.93038e-032
    outer loop
      vertex -33.5 54.0013 7.76046
      vertex -33.5 45.2598 5.89482
      vertex -33.5 54.2625 6.3912
    endloop
  endfacet
  facet normal 1 -2.22045e-016 -4.93038e-032
    outer loop
      vertex -33.5 45.2598 5.89482
      vertex -33.5 45.4019 5.45741
      vertex -33.5 54.2625 6.3912
    endloop
  endfacet
  facet normal 1 -2.22045e-016 -4.93038e-032
    outer loop
      vertex -33.5 54.2625 6.3912
      vertex -33.5 45.45 5
      vertex -33.5 54.35 5
    endloop
  endfacet
  facet normal 1 -2.22045e-016 -4.93038e-032
    outer loop
      vertex -33.5 45.45 5
      vertex -33.5 45.4019 4.54259
      vertex -33.5 54.35 5
    endloop
  endfacet
  facet normal 1 -2.22045e-016 -4.93038e-032
    outer loop
      vertex -33.5 41.0981 4.54259
      vertex -33.5 41.05 5
      vertex -33.5 32.2375 3.6088
    endloop
  endfacet
  facet normal 1 -2.22045e-016 -4.93038e-032
    outer loop
      vertex -33.5 54.35 5
      vertex -33.5 45.2598 4.10518
      vertex -33.5 54.2625 3.6088
    endloop
  endfacet
  facet normal 1 -2.22045e-016 -4.93038e-032
    outer loop
      vertex -33.5 45.2598 4.10518
      vertex -33.5 45.0298 3.70687
      vertex -33.5 54.2625 3.6088
    endloop
  endfacet
  facet normal 1 -2.22045e-016 -4.93038e-032
    outer loop
      vertex -33.5 54.2625 3.6088
      vertex -33.5 44.7221 3.36508
      vertex -33.5 54.0013 2.23954
    endloop
  endfacet
  facet normal 1 -2.22045e-016 -4.93038e-032
    outer loop
      vertex -33.5 42.15 3.09474
      vertex -33.5 41.7779 3.36508
      vertex -33.5 32.2375 3.6088
    endloop
  endfacet
  facet normal 1 -2.22045e-016 -4.93038e-032
    outer loop
      vertex -33.5 44.7221 3.36508
      vertex -33.5 44.35 3.09474
      vertex -33.5 54.0013 2.23954
    endloop
  endfacet
  facet normal 1 -2.22045e-016 -4.93038e-032
    outer loop
      vertex -33.5 44.35 3.09474
      vertex -33.5 43.9298 2.90768
      vertex -33.5 54.0013 2.23954
    endloop
  endfacet
  facet normal 1 -2.22045e-016 -4.93038e-032
    outer loop
      vertex -33.5 54.0013 2.23954
      vertex -33.5 43.48 2.81205
      vertex -33.5 53.5705 0.913817
    endloop
  endfacet
  facet normal 1 -2.22045e-016 -4.93038e-032
    outer loop
      vertex -33.5 43.48 2.81205
      vertex -33.5 43.02 2.81205
      vertex -33.5 53.5705 0.913817
    endloop
  endfacet
  facet normal 1 -2.22045e-016 -4.93038e-032
    outer loop
      vertex -33.5 42.5702 2.90768
      vertex -33.5 42.15 3.09474
      vertex -33.5 32.2375 3.6088
    endloop
  endfacet
  facet normal 1 -2.22045e-016 -4.93038e-032
    outer loop
      vertex -33.5 43.02 2.81205
      vertex -33.5 42.5702 2.90768
      vertex -33.5 32.2375 3.6088
    endloop
  endfacet
  facet normal 1 -2.22045e-016 -4.93038e-032
    outer loop
      vertex -33.5 41.2402 4.10518
      vertex -33.5 41.0981 4.54259
      vertex -33.5 32.2375 3.6088
    endloop
  endfacet
  facet normal 1 -2.22045e-016 -4.93038e-032
    outer loop
      vertex -33.5 41.4702 3.70687
      vertex -33.5 41.2402 4.10518
      vertex -33.5 32.2375 3.6088
    endloop
  endfacet
  facet normal 1 -2.22045e-016 -4.93038e-032
    outer loop
      vertex -33.5 45.0298 3.70687
      vertex -33.5 44.7221 3.36508
      vertex -33.5 54.2625 3.6088
    endloop
  endfacet
  facet normal 1 -2.22045e-016 -4.93038e-032
    outer loop
      vertex -33.5 41.2402 5.89482
      vertex -33.5 41.4702 6.29313
      vertex -33.5 32.2375 3.6088
    endloop
  endfacet
  facet normal 1 -2.22045e-016 -4.93038e-032
    outer loop
      vertex -33.5 45.4019 5.45741
      vertex -33.5 45.45 5
      vertex -33.5 54.2625 6.3912
    endloop
  endfacet
  facet normal 1 -2.22045e-016 -4.93038e-032
    outer loop
      vertex -33.5 52 10
      vertex -33.5 42.5702 7.09232
      vertex -33.5 43.02 7.18795
    endloop
  endfacet
  facet normal 1 -2.22045e-016 -4.93038e-032
    outer loop
      vertex -33.5 42.5702 7.09232
      vertex -33.5 32.2375 3.6088
      vertex -33.5 42.15 6.90526
    endloop
  endfacet
  facet normal 1 -2.22045e-016 -4.93038e-032
    outer loop
      vertex -33.5 41.05 5
      vertex -33.5 41.0981 5.45741
      vertex -33.5 32.2375 3.6088
    endloop
  endfacet
  facet normal 1 -2.22045e-016 -4.93038e-032
    outer loop
      vertex -33.5 52 11.8025
      vertex -33.5 52.977 10.3475
      vertex -33.5 52.2301 11.5244
    endloop
  endfacet
  facet normal 1 -2.22045e-016 -4.93038e-032
    outer loop
      vertex -33.5 52 11.8025
      vertex -33.5 52 10
      vertex -33.5 52.977 10.3475
    endloop
  endfacet
  facet normal 1 0 0
    outer loop
      vertex -33.5 36.1746 13.5527
      vertex -33.5 36.2192 13.5851
      vertex -33.5 34 12.3038
    endloop
  endfacet
  facet normal 1 0 0
    outer loop
      vertex -33.5 34 12.3038
      vertex -33.5 34 11.0991
      vertex -33.5 34.2699 11.5244
    endloop
  endfacet
  facet normal 1 0 0
    outer loop
      vertex -33.5 35.1584 12.5985
      vertex -33.5 34 12.3038
      vertex -33.5 34.2699 11.5244
    endloop
  endfacet
  facet normal 1 0 0
    outer loop
      vertex -33.5 35.1584 12.5985
      vertex -33.5 36.1746 13.5527
      vertex -33.5 34 12.3038
    endloop
  endfacet
  facet normal 0 1 2.22045e-016
    outer loop
      vertex -32 34 16.6594
      vertex -24 34 16.6594
      vertex -32 34 12.3038
    endloop
  endfacet
  facet normal 0 1 2.22045e-016
    outer loop
      vertex -32 34 12.3038
      vertex -24 34 16.6594
      vertex -24 34 12.3038
    endloop
  endfacet
  facet normal 0 1 2.22045e-016
    outer loop
      vertex -22.5 34 11.0991
      vertex -22.5 34 12.3038
      vertex -22.5 34 10
    endloop
  endfacet
  facet normal 0 1 2.22045e-016
    outer loop
      vertex -33.5 34 11.0991
      vertex -24 34 12.3038
      vertex -22.5 34 11.0991
    endloop
  endfacet
  facet normal 0 1 2.22045e-016
    outer loop
      vertex -24 34 12.3038
      vertex -22.5 34 12.3038
      vertex -22.5 34 11.0991
    endloop
  endfacet
  facet normal 0 1 2.22045e-016
    outer loop
      vertex -33.5 34 11.0991
      vertex -32 34 12.3038
      vertex -24 34 12.3038
    endloop
  endfacet
  facet normal 0 1 2.22045e-016
    outer loop
      vertex -32 34 12.3038
      vertex -33.5 34 11.0991
      vertex -33.5 34 12.3038
    endloop
  endfacet
  facet normal -1 0 0
    outer loop
      vertex -32 30 33.5
      vertex -32 56 33.5
      vertex -32 30 19.661
    endloop
  endfacet
  facet normal -1 0 0
    outer loop
      vertex -32 46.2649 24
      vertex -32 56 33.5
      vertex -32 56 19.661
    endloop
  endfacet
  facet normal -1 0 0
    outer loop
      vertex -32 52 12.3038
      vertex -32 56 19.5613
      vertex -32 56 9.99445
    endloop
  endfacet
  facet normal -1 0 0
    outer loop
      vertex -32 52 16.6594
      vertex -32 56 19.5613
      vertex -32 52 12.3038
    endloop
  endfacet
  facet normal -1 0 0
    outer loop
      vertex -32 39.7351 24
      vertex -32 56 33.5
      vertex -32 46.2649 24
    endloop
  endfacet
  facet normal -1 0 0
    outer loop
      vertex -32 34 16.6594
      vertex -32 30 19.661
      vertex -32 39.7351 24
    endloop
  endfacet
  facet normal -1 0 0
    outer loop
      vertex -32 30 19.661
      vertex -32 56 33.5
      vertex -32 39.7351 24
    endloop
  endfacet
  facet normal -1 0 0
    outer loop
      vertex -32 30 19.661
      vertex -32 34 16.6594
      vertex -32 34 12.3038
    endloop
  endfacet
  facet normal -1 0 0
    outer loop
      vertex -32 30 19.5613
      vertex -32 34 12.3038
      vertex -32 30 9.99445
    endloop
  endfacet
  facet normal -1 0 0
    outer loop
      vertex -32 30 19.661
      vertex -32 34 12.3038
      vertex -32 30 19.5613
    endloop
  endfacet
  facet normal -1 0 0
    outer loop
      vertex -32 30 19.5613
      vertex -32 29.9517 19.5991
      vertex -32 30 19.661
    endloop
  endfacet
  facet normal -1 0 0
    outer loop
      vertex -32 46.2649 24
      vertex -32 56 19.661
      vertex -32 56.0483 19.5991
    endloop
  endfacet
  facet normal -1 0 0
    outer loop
      vertex -32 46.2649 24
      vertex -32 56.0483 19.5991
      vertex -32 56 19.5613
    endloop
  endfacet
  facet normal -1 0 0
    outer loop
      vertex -32 46.2649 24
      vertex -32 56 19.5613
      vertex -32 52 16.6594
    endloop
  endfacet
  facet normal 0 -1 -2.22045e-016
    outer loop
      vertex -24 30 19.5613
      vertex -32 30 19.5613
      vertex -32 30 9.99445
    endloop
  endfacet
  facet normal 0 -1 -2.22045e-016
    outer loop
      vertex -24 30 9.99445
      vertex -24 30 19.5613
      vertex -32 30 9.99445
    endloop
  endfacet
  facet normal 1 0 0
    outer loop
      vertex -24 56 33.5
      vertex -24 30 33.5
      vertex -24 30 19.661
    endloop
  endfacet
  facet normal 1 0 0
    outer loop
      vertex -24 29.9517 19.5991
      vertex -24 56 33.5
      vertex -24 30 19.661
    endloop
  endfacet
  facet normal 1 0 0
    outer loop
      vertex -24 29.9517 19.5991
      vertex -24 30 19.5613
      vertex -24 56 33.5
    endloop
  endfacet
  facet normal 1 0 0
    outer loop
      vertex -24 46.2649 24
      vertex -24 52 16.6594
      vertex -24 56 33.5
    endloop
  endfacet
  facet normal 1 0 0
    outer loop
      vertex -24 30 19.5613
      vertex -24 30 9.99445
      vertex -24 34 16.6594
    endloop
  endfacet
  facet normal 1 0 0
    outer loop
      vertex -24 30 19.5613
      vertex -24 39.7351 24
      vertex -24 56 33.5
    endloop
  endfacet
  facet normal 1 0 0
    outer loop
      vertex -24 30 19.5613
      vertex -24 34 16.6594
      vertex -24 39.7351 24
    endloop
  endfacet
  facet normal 1 0 0
    outer loop
      vertex -24 52 16.6594
      vertex -24 52 12.3038
      vertex -24 56 33.5
    endloop
  endfacet
  facet normal 1 0 0
    outer loop
      vertex -24 52 12.3038
      vertex -24 56 19.5613
      vertex -24 56 19.661
    endloop
  endfacet
  facet normal 1 0 0
    outer loop
      vertex -24 52 12.3038
      vertex -24 56 9.99445
      vertex -24 56 19.5613
    endloop
  endfacet
  facet normal 1 0 0
    outer loop
      vertex -24 52 12.3038
      vertex -24 56 19.661
      vertex -24 56 33.5
    endloop
  endfacet
  facet normal 1 0 0
    outer loop
      vertex -24 56 19.5613
      vertex -24 56.0483 19.5991
      vertex -24 56 19.661
    endloop
  endfacet
  facet normal 1 0 0
    outer loop
      vertex -24 34 12.3038
      vertex -24 34 16.6594
      vertex -24 30 9.99445
    endloop
  endfacet
  facet normal 1 0 0
    outer loop
      vertex -24 39.7351 24
      vertex -24 46.2649 24
      vertex -24 56 33.5
    endloop
  endfacet
  facet normal -1 0 0
    outer loop
      vertex -22.5 45.3299 15.9034
      vertex -22.5 43 17.5
      vertex -22.5 46.1142 15.702
    endloop
  endfacet
  facet normal -1 0 0
    outer loop
      vertex -22.5 45.3299 15.9034
      vertex -22.5 43.947 16.0781
      vertex -22.5 43 17.5
    endloop
  endfacet
  facet normal -1 0 0
    outer loop
      vertex -22.5 34 10
      vertex -22.5 43.25 16.0781
      vertex -22.5 43.25 10
    endloop
  endfacet
  facet normal -1 0 0
    outer loop
      vertex -22.5 34 12.3038
      vertex -22.5 43.25 16.0781
      vertex -22.5 34 10
    endloop
  endfacet
  facet normal -1 0 0
    outer loop
      vertex -22.5 43 17.5
      vertex -22.5 43.25 16.0781
      vertex -22.5 34 12.3038
    endloop
  endfacet
  facet normal -1 0 0
    outer loop
      vertex -22.5 43.947 16.0781
      vertex -22.5 43.25 16.0781
      vertex -22.5 43 17.5
    endloop
  endfacet
  facet normal 1 -2.22045e-016 -4.93038e-032
    outer loop
      vertex -19.5 43 17.5
      vertex -19.5 27.8446 8.75
      vertex -19.5 27.8446 3.29615e-015
    endloop
  endfacet
  facet normal 1 -2.22045e-016 -4.93038e-032
    outer loop
      vertex -19.5 58.1554 8.75
      vertex -19.5 43 17.5
      vertex -19.5 58.1554 1.00265e-014
    endloop
  endfacet
  facet normal 1 -2.22045e-016 -4.93038e-032
    outer loop
      vertex -19.5 41.0981 5.45741
      vertex -19.5 43 17.5
      vertex -19.5 27.8446 3.29615e-015
    endloop
  endfacet
  facet normal 1 -2.22045e-016 -4.93038e-032
    outer loop
      vertex -19.5 41.0981 4.54259
      vertex -19.5 41.05 5
      vertex -19.5 27.8446 3.29615e-015
    endloop
  endfacet
  facet normal 1 -2.22045e-016 -4.93038e-032
    outer loop
      vertex -19.5 41.05 5
      vertex -19.5 41.0981 5.45741
      vertex -19.5 27.8446 3.29615e-015
    endloop
  endfacet
  facet normal 1 -2.22045e-016 -4.93038e-032
    outer loop
      vertex -19.5 44.35 6.90526
      vertex -19.5 44.7221 6.63492
      vertex -19.5 58.1554 1.00265e-014
    endloop
  endfacet
  facet normal 1 -2.22045e-016 -4.93038e-032
    outer loop
      vertex -19.5 41.4702 6.29313
      vertex -19.5 43 17.5
      vertex -19.5 41.2402 5.89482
    endloop
  endfacet
  facet normal 1 -2.22045e-016 -4.93038e-032
    outer loop
      vertex -19.5 41.7779 6.63492
      vertex -19.5 43 17.5
      vertex -19.5 41.4702 6.29313
    endloop
  endfacet
  facet normal 1 -2.22045e-016 -4.93038e-032
    outer loop
      vertex -19.5 42.15 6.90526
      vertex -19.5 43 17.5
      vertex -19.5 41.7779 6.63492
    endloop
  endfacet
  facet normal 1 -2.22045e-016 -4.93038e-032
    outer loop
      vertex -19.5 42.5702 7.09232
      vertex -19.5 43 17.5
      vertex -19.5 42.15 6.90526
    endloop
  endfacet
  facet normal 1 -2.22045e-016 -4.93038e-032
    outer loop
      vertex -19.5 45.4019 5.45741
      vertex -19.5 45.45 5
      vertex -19.5 58.1554 1.00265e-014
    endloop
  endfacet
  facet normal 1 -2.22045e-016 -4.93038e-032
    outer loop
      vertex -19.5 43.02 7.18795
      vertex -19.5 43 17.5
      vertex -19.5 42.5702 7.09232
    endloop
  endfacet
  facet normal 1 -2.22045e-016 -4.93038e-032
    outer loop
      vertex -19.5 43.48 7.18795
      vertex -19.5 43 17.5
      vertex -19.5 43.02 7.18795
    endloop
  endfacet
  facet normal 1 -2.22045e-016 -4.93038e-032
    outer loop
      vertex -19.5 43.9298 7.09232
      vertex -19.5 43 17.5
      vertex -19.5 43.48 7.18795
    endloop
  endfacet
  facet normal 1 -2.22045e-016 -4.93038e-032
    outer loop
      vertex -19.5 44.35 6.90526
      vertex -19.5 43 17.5
      vertex -19.5 43.9298 7.09232
    endloop
  endfacet
  facet normal 1 -2.22045e-016 -4.93038e-032
    outer loop
      vertex -19.5 44.7221 6.63492
      vertex -19.5 45.0298 6.29313
      vertex -19.5 58.1554 1.00265e-014
    endloop
  endfacet
  facet normal 1 -2.22045e-016 -4.93038e-032
    outer loop
      vertex -19.5 58.1554 1.00265e-014
      vertex -19.5 43 17.5
      vertex -19.5 44.35 6.90526
    endloop
  endfacet
  facet normal 1 -2.22045e-016 -4.93038e-032
    outer loop
      vertex -19.5 45.0298 6.29313
      vertex -19.5 45.2598 5.89482
      vertex -19.5 58.1554 1.00265e-014
    endloop
  endfacet
  facet normal 1 -2.22045e-016 -4.93038e-032
    outer loop
      vertex -19.5 42.5702 2.90768
      vertex -19.5 42.15 3.09474
      vertex -19.5 27.8446 3.29615e-015
    endloop
  endfacet
  facet normal 1 -2.22045e-016 -4.93038e-032
    outer loop
      vertex -19.5 45.45 5
      vertex -19.5 45.4019 4.54259
      vertex -19.5 58.1554 1.00265e-014
    endloop
  endfacet
  facet normal 1 -2.22045e-016 -4.93038e-032
    outer loop
      vertex -19.5 45.4019 4.54259
      vertex -19.5 45.2598 4.10518
      vertex -19.5 58.1554 1.00265e-014
    endloop
  endfacet
  facet normal 1 -2.22045e-016 -4.93038e-032
    outer loop
      vertex -19.5 45.2598 4.10518
      vertex -19.5 45.0298 3.70687
      vertex -19.5 58.1554 1.00265e-014
    endloop
  endfacet
  facet normal 1 -2.22045e-016 -4.93038e-032
    outer loop
      vertex -19.5 43.48 2.81205
      vertex -19.5 43.02 2.81205
      vertex -19.5 27.8446 3.29615e-015
    endloop
  endfacet
  facet normal 1 -2.22045e-016 -4.93038e-032
    outer loop
      vertex -19.5 58.1554 1.00265e-014
      vertex -19.5 45.0298 3.70687
      vertex -19.5 44.7221 3.36508
    endloop
  endfacet
  facet normal 1 -2.22045e-016 -4.93038e-032
    outer loop
      vertex -19.5 58.1554 1.00265e-014
      vertex -19.5 44.7221 3.36508
      vertex -19.5 44.35 3.09474
    endloop
  endfacet
  facet normal 1 -2.22045e-016 -4.93038e-032
    outer loop
      vertex -19.5 43.02 2.81205
      vertex -19.5 42.5702 2.90768
      vertex -19.5 27.8446 3.29615e-015
    endloop
  endfacet
  facet normal 1 -2.22045e-016 -4.93038e-032
    outer loop
      vertex -19.5 58.1554 1.00265e-014
      vertex -19.5 44.35 3.09474
      vertex -19.5 43.9298 2.90768
    endloop
  endfacet
  facet normal 1 -2.22045e-016 -4.93038e-032
    outer loop
      vertex -19.5 58.1554 1.00265e-014
      vertex -19.5 43.48 2.81205
      vertex -19.5 27.8446 3.29615e-015
    endloop
  endfacet
  facet normal 1 -2.22045e-016 -4.93038e-032
    outer loop
      vertex -19.5 58.1554 1.00265e-014
      vertex -19.5 43.9298 2.90768
      vertex -19.5 43.48 2.81205
    endloop
  endfacet
  facet normal 1 -2.22045e-016 -4.93038e-032
    outer loop
      vertex -19.5 42.15 3.09474
      vertex -19.5 41.7779 3.36508
      vertex -19.5 27.8446 3.29615e-015
    endloop
  endfacet
  facet normal 1 -2.22045e-016 -4.93038e-032
    outer loop
      vertex -19.5 41.7779 3.36508
      vertex -19.5 41.4702 3.70687
      vertex -19.5 27.8446 3.29615e-015
    endloop
  endfacet
  facet normal 1 -2.22045e-016 -4.93038e-032
    outer loop
      vertex -19.5 41.4702 3.70687
      vertex -19.5 41.2402 4.10518
      vertex -19.5 27.8446 3.29615e-015
    endloop
  endfacet
  facet normal 1 -2.22045e-016 -4.93038e-032
    outer loop
      vertex -19.5 41.2402 4.10518
      vertex -19.5 41.0981 4.54259
      vertex -19.5 27.8446 3.29615e-015
    endloop
  endfacet
  facet normal 1 -2.22045e-016 -4.93038e-032
    outer loop
      vertex -19.5 41.0981 5.45741
      vertex -19.5 41.2402 5.89482
      vertex -19.5 43 17.5
    endloop
  endfacet
  facet normal 1 -2.22045e-016 -4.93038e-032
    outer loop
      vertex -19.5 45.2598 5.89482
      vertex -19.5 45.4019 5.45741
      vertex -19.5 58.1554 1.00265e-014
    endloop
  endfacet
  facet normal 2.00912e-016 0.904827 0.425779
    outer loop
      vertex -22.5 33.3595 4.52072e-015
      vertex -33.5 33.3595 4.52072e-015
      vertex -22.5 32.9295 0.913817
    endloop
  endfacet
  facet normal 2.00912e-016 0.904827 0.425779
    outer loop
      vertex -22.5 32.9295 0.913817
      vertex -33.5 33.3595 4.52072e-015
      vertex -33.5 32.9295 0.913817
    endloop
  endfacet
  facet normal -2.00912e-016 -0.904827 0.425779
    outer loop
      vertex -22.5 53.1405 8.91298e-015
      vertex -22.5 53.5705 0.913817
      vertex -33.5 53.5705 0.913817
    endloop
  endfacet
  facet normal -2.00912e-016 -0.904827 0.425779
    outer loop
      vertex -33.5 53.1405 8.91298e-015
      vertex -22.5 53.1405 8.91298e-015
      vertex -33.5 53.5705 0.913817
    endloop
  endfacet
  facet normal -1 2.22045e-016 4.93038e-032
    outer loop
      vertex -22.5 32.4987 7.76046
      vertex -22.5 32.9295 9.08618
      vertex -22.5 32.2375 6.3912
    endloop
  endfacet
  facet normal -1 2.22045e-016 4.93038e-032
    outer loop
      vertex -22.5 32.2375 6.3912
      vertex -22.5 32.9295 9.08618
      vertex -22.5 33.523 10.3475
    endloop
  endfacet
  facet normal -1 2.22045e-016 4.93038e-032
    outer loop
      vertex -22.5 32.2375 6.3912
      vertex -22.5 33.523 10.3475
      vertex -22.5 34 11.0991
    endloop
  endfacet
  facet normal -1 2.22045e-016 4.93038e-032
    outer loop
      vertex -22.5 32.2375 6.3912
      vertex -22.5 34 11.0991
      vertex -22.5 34 10
    endloop
  endfacet
  facet normal -1 2.22045e-016 4.93038e-032
    outer loop
      vertex -22.5 32.2375 6.3912
      vertex -22.5 34 10
      vertex -22.5 43.25 10
    endloop
  endfacet
  facet normal -1 2.22045e-016 4.93038e-032
    outer loop
      vertex -22.5 43.25 10
      vertex -22.5 43.25 16.0781
      vertex -22.5 43.947 16.0781
    endloop
  endfacet
  facet normal -1 2.22045e-016 4.93038e-032
    outer loop
      vertex -22.5 43.25 10
      vertex -22.5 43.947 16.0781
      vertex -22.5 45.3299 15.9034
    endloop
  endfacet
  facet normal -1 2.22045e-016 4.93038e-032
    outer loop
      vertex -22.5 43.25 10
      vertex -22.5 45.3299 15.9034
      vertex -22.5 46.1142 15.702
    endloop
  endfacet
  facet normal -1 2.22045e-016 4.93038e-032
    outer loop
      vertex -22.5 43.25 10
      vertex -22.5 46.1142 15.702
      vertex -22.5 51.1051 12.8205
    endloop
  endfacet
  facet normal -1 2.22045e-016 4.93038e-032
    outer loop
      vertex -22.5 43.25 10
      vertex -22.5 51.1051 12.8205
      vertex -22.5 51.3416 12.5985
    endloop
  endfacet
  facet normal -1 2.22045e-016 4.93038e-032
    outer loop
      vertex -22.5 43.25 10
      vertex -22.5 51.3416 12.5985
      vertex -22.5 32.2375 6.3912
    endloop
  endfacet
  facet normal -1 2.22045e-016 4.93038e-032
    outer loop
      vertex -22.5 32.2375 6.3912
      vertex -22.5 51.3416 12.5985
      vertex -22.5 52.2301 11.5244
    endloop
  endfacet
  facet normal -1 2.22045e-016 4.93038e-032
    outer loop
      vertex -22.5 32.2375 6.3912
      vertex -22.5 52.2301 11.5244
      vertex -22.5 52.977 10.3475
    endloop
  endfacet
  facet normal -1 2.22045e-016 4.93038e-032
    outer loop
      vertex -22.5 32.2375 6.3912
      vertex -22.5 52.977 10.3475
      vertex -22.5 53.5705 9.08618
    endloop
  endfacet
  facet normal -1 2.22045e-016 4.93038e-032
    outer loop
      vertex -22.5 43.48 7.18795
      vertex -22.5 53.5705 9.08618
      vertex -22.5 54.0013 7.76046
    endloop
  endfacet
  facet normal -1 2.22045e-016 4.93038e-032
    outer loop
      vertex -22.5 44.7221 6.63492
      vertex -22.5 54.0013 7.76046
      vertex -22.5 54.2625 6.3912
    endloop
  endfacet
  facet normal -1 2.22045e-016 4.93038e-032
    outer loop
      vertex -22.5 45.2598 5.89482
      vertex -22.5 54.2625 6.3912
      vertex -22.5 54.35 5
    endloop
  endfacet
  facet normal -1 2.22045e-016 4.93038e-032
    outer loop
      vertex -22.5 45.45 5
      vertex -22.5 54.35 5
      vertex -22.5 54.2625 3.6088
    endloop
  endfacet
  facet normal -1 2.22045e-016 4.93038e-032
    outer loop
      vertex -22.5 45.2598 4.10518
      vertex -22.5 54.2625 3.6088
      vertex -22.5 54.0013 2.23954
    endloop
  endfacet
  facet normal -1 2.22045e-016 4.93038e-032
    outer loop
      vertex -22.5 45.0298 3.70687
      vertex -22.5 54.0013 2.23954
      vertex -22.5 53.5705 0.913817
    endloop
  endfacet
  facet normal -1 2.22045e-016 4.93038e-032
    outer loop
      vertex -22.5 42.5702 2.90768
      vertex -22.5 53.1405 8.91298e-015
      vertex -22.5 33.3595 4.52072e-015
    endloop
  endfacet
  facet normal -1 2.22045e-016 4.93038e-032
    outer loop
      vertex -22.5 32.2375 6.3912
      vertex -22.5 33.3595 4.52072e-015
      vertex -22.5 32.9295 0.913817
    endloop
  endfacet
  facet normal -1 2.22045e-016 4.93038e-032
    outer loop
      vertex -22.5 32.2375 6.3912
      vertex -22.5 32.9295 0.913817
      vertex -22.5 32.4987 2.23954
    endloop
  endfacet
  facet normal -1 2.22045e-016 4.93038e-032
    outer loop
      vertex -22.5 32.2375 6.3912
      vertex -22.5 32.4987 2.23954
      vertex -22.5 32.2375 3.6088
    endloop
  endfacet
  facet normal -1 2.22045e-016 4.93038e-032
    outer loop
      vertex -22.5 32.2375 6.3912
      vertex -22.5 32.2375 3.6088
      vertex -22.5 32.15 5
    endloop
  endfacet
  facet normal -1 2.22045e-016 4.93038e-032
    outer loop
      vertex -22.5 45.45 5
      vertex -22.5 54.2625 3.6088
      vertex -22.5 45.4019 4.54259
    endloop
  endfacet
  facet normal -1 2.22045e-016 4.93038e-032
    outer loop
      vertex -22.5 41.4702 3.70687
      vertex -22.5 32.2375 6.3912
      vertex -22.5 41.2402 4.10518
    endloop
  endfacet
  facet normal -1 2.22045e-016 4.93038e-032
    outer loop
      vertex -22.5 32.2375 6.3912
      vertex -22.5 41.0981 4.54259
      vertex -22.5 41.2402 4.10518
    endloop
  endfacet
  facet normal -1 2.22045e-016 4.93038e-032
    outer loop
      vertex -22.5 44.7221 3.36508
      vertex -22.5 53.5705 0.913817
      vertex -22.5 44.35 3.09474
    endloop
  endfacet
  facet normal -1 2.22045e-016 4.93038e-032
    outer loop
      vertex -22.5 43.48 2.81205
      vertex -22.5 53.1405 8.91298e-015
      vertex -22.5 43.02 2.81205
    endloop
  endfacet
  facet normal -1 2.22045e-016 4.93038e-032
    outer loop
      vertex -22.5 32.2375 6.3912
      vertex -22.5 41.7779 3.36508
      vertex -22.5 33.3595 4.52072e-015
    endloop
  endfacet
  facet normal -1 2.22045e-016 4.93038e-032
    outer loop
      vertex -22.5 43.9298 2.90768
      vertex -22.5 53.1405 8.91298e-015
      vertex -22.5 43.48 2.81205
    endloop
  endfacet
  facet normal -1 2.22045e-016 4.93038e-032
    outer loop
      vertex -22.5 41.7779 3.36508
      vertex -22.5 42.15 3.09474
      vertex -22.5 33.3595 4.52072e-015
    endloop
  endfacet
  facet normal -1 2.22045e-016 4.93038e-032
    outer loop
      vertex -22.5 43.02 2.81205
      vertex -22.5 53.1405 8.91298e-015
      vertex -22.5 42.5702 2.90768
    endloop
  endfacet
  facet normal -1 2.22045e-016 4.93038e-032
    outer loop
      vertex -22.5 42.15 3.09474
      vertex -22.5 42.5702 2.90768
      vertex -22.5 33.3595 4.52072e-015
    endloop
  endfacet
  facet normal -1 2.22045e-016 4.93038e-032
    outer loop
      vertex -22.5 44.35 3.09474
      vertex -22.5 53.1405 8.91298e-015
      vertex -22.5 43.9298 2.90768
    endloop
  endfacet
  facet normal -1 2.22045e-016 4.93038e-032
    outer loop
      vertex -22.5 44.35 3.09474
      vertex -22.5 53.5705 0.913817
      vertex -22.5 53.1405 8.91298e-015
    endloop
  endfacet
  facet normal -1 2.22045e-016 4.93038e-032
    outer loop
      vertex -22.5 41.7779 3.36508
      vertex -22.5 32.2375 6.3912
      vertex -22.5 41.4702 3.70687
    endloop
  endfacet
  facet normal -1 2.22045e-016 4.93038e-032
    outer loop
      vertex -22.5 45.0298 3.70687
      vertex -22.5 53.5705 0.913817
      vertex -22.5 44.7221 3.36508
    endloop
  endfacet
  facet normal -1 2.22045e-016 4.93038e-032
    outer loop
      vertex -22.5 45.2598 4.10518
      vertex -22.5 54.0013 2.23954
      vertex -22.5 45.0298 3.70687
    endloop
  endfacet
  facet normal -1 2.22045e-016 4.93038e-032
    outer loop
      vertex -22.5 45.4019 4.54259
      vertex -22.5 54.2625 3.6088
      vertex -22.5 45.2598 4.10518
    endloop
  endfacet
  facet normal -1 2.22045e-016 4.93038e-032
    outer loop
      vertex -22.5 41.0981 4.54259
      vertex -22.5 32.2375 6.3912
      vertex -22.5 41.05 5
    endloop
  endfacet
  facet normal -1 2.22045e-016 4.93038e-032
    outer loop
      vertex -22.5 45.4019 5.45741
      vertex -22.5 54.35 5
      vertex -22.5 45.45 5
    endloop
  endfacet
  facet normal -1 2.22045e-016 4.93038e-032
    outer loop
      vertex -22.5 45.2598 5.89482
      vertex -22.5 54.35 5
      vertex -22.5 45.4019 5.45741
    endloop
  endfacet
  facet normal -1 2.22045e-016 4.93038e-032
    outer loop
      vertex -22.5 45.0298 6.29313
      vertex -22.5 54.2625 6.3912
      vertex -22.5 45.2598 5.89482
    endloop
  endfacet
  facet normal -1 2.22045e-016 4.93038e-032
    outer loop
      vertex -22.5 44.7221 6.63492
      vertex -22.5 54.2625 6.3912
      vertex -22.5 45.0298 6.29313
    endloop
  endfacet
  facet normal -1 2.22045e-016 4.93038e-032
    outer loop
      vertex -22.5 44.35 6.90526
      vertex -22.5 54.0013 7.76046
      vertex -22.5 44.7221 6.63492
    endloop
  endfacet
  facet normal -1 2.22045e-016 4.93038e-032
    outer loop
      vertex -22.5 43.48 7.18795
      vertex -22.5 54.0013 7.76046
      vertex -22.5 43.9298 7.09232
    endloop
  endfacet
  facet normal -1 2.22045e-016 4.93038e-032
    outer loop
      vertex -22.5 43.9298 7.09232
      vertex -22.5 54.0013 7.76046
      vertex -22.5 44.35 6.90526
    endloop
  endfacet
  facet normal -1 2.22045e-016 4.93038e-032
    outer loop
      vertex -22.5 43.02 7.18795
      vertex -22.5 53.5705 9.08618
      vertex -22.5 43.48 7.18795
    endloop
  endfacet
  facet normal -1 2.22045e-016 4.93038e-032
    outer loop
      vertex -22.5 42.5702 7.09232
      vertex -22.5 32.2375 6.3912
      vertex -22.5 43.02 7.18795
    endloop
  endfacet
  facet normal -1 2.22045e-016 4.93038e-032
    outer loop
      vertex -22.5 32.2375 6.3912
      vertex -22.5 53.5705 9.08618
      vertex -22.5 43.02 7.18795
    endloop
  endfacet
  facet normal -1 2.22045e-016 4.93038e-032
    outer loop
      vertex -22.5 42.15 6.90526
      vertex -22.5 32.2375 6.3912
      vertex -22.5 42.5702 7.09232
    endloop
  endfacet
  facet normal -1 2.22045e-016 4.93038e-032
    outer loop
      vertex -22.5 41.7779 6.63492
      vertex -22.5 32.2375 6.3912
      vertex -22.5 42.15 6.90526
    endloop
  endfacet
  facet normal -1 2.22045e-016 4.93038e-032
    outer loop
      vertex -22.5 41.4702 6.29313
      vertex -22.5 32.2375 6.3912
      vertex -22.5 41.7779 6.63492
    endloop
  endfacet
  facet normal -1 2.22045e-016 4.93038e-032
    outer loop
      vertex -22.5 41.2402 5.89482
      vertex -22.5 32.2375 6.3912
      vertex -22.5 41.4702 6.29313
    endloop
  endfacet
  facet normal -1 2.22045e-016 4.93038e-032
    outer loop
      vertex -22.5 41.0981 5.45741
      vertex -22.5 32.2375 6.3912
      vertex -22.5 41.2402 5.89482
    endloop
  endfacet
  facet normal -1 2.22045e-016 4.93038e-032
    outer loop
      vertex -22.5 41.05 5
      vertex -22.5 32.2375 6.3912
      vertex -22.5 41.0981 5.45741
    endloop
  endfacet
  facet normal -1 0 0
    outer loop
      vertex -22.5 52 11.8025
      vertex -22.5 51.3416 12.5985
      vertex -22.5 52 12.3038
    endloop
  endfacet
  facet normal -1 0 0
    outer loop
      vertex -22.5 52 12.3038
      vertex -22.5 51.3416 12.5985
      vertex -22.5 51.1051 12.8205
    endloop
  endfacet
  facet normal 0 -1 -2.22045e-016
    outer loop
      vertex -33.5 52 12.3038
      vertex -33.5 52 10
      vertex -33.5 52 11.8025
    endloop
  endfacet
  facet normal 0 -1 -2.22045e-016
    outer loop
      vertex -22.5 52 11.8025
      vertex -22.5 52 12.3038
      vertex -33.5 52 11.8025
    endloop
  endfacet
  facet normal 0 -1 -2.22045e-016
    outer loop
      vertex -22.5 52 12.3038
      vertex -24 52 12.3038
      vertex -33.5 52 11.8025
    endloop
  endfacet
  facet normal 0 -1 -2.22045e-016
    outer loop
      vertex -32 52 12.3038
      vertex -33.5 52 12.3038
      vertex -33.5 52 11.8025
    endloop
  endfacet
  facet normal 0 -1 -2.22045e-016
    outer loop
      vertex -24 52 12.3038
      vertex -32 52 12.3038
      vertex -33.5 52 11.8025
    endloop
  endfacet
  facet normal 0 -1 -2.22045e-016
    outer loop
      vertex -24 52 12.3038
      vertex -24 52 16.6594
      vertex -32 52 12.3038
    endloop
  endfacet
  facet normal 0 -1 -2.22045e-016
    outer loop
      vertex -32 52 16.6594
      vertex -32 52 12.3038
      vertex -24 52 16.6594
    endloop
  endfacet
  facet normal 0 1 2.22045e-016
    outer loop
      vertex -32 56 19.5613
      vertex -24 56 19.5613
      vertex -32 56 9.99445
    endloop
  endfacet
  facet normal 0 1 2.22045e-016
    outer loop
      vertex -32 56 9.99445
      vertex -24 56 19.5613
      vertex -24 56 9.99445
    endloop
  endfacet
  facet normal 2.18112e-016 0.982287 0.187381
    outer loop
      vertex -22.5 32.4987 2.23954
      vertex -33.5 32.4987 2.23954
      vertex -22.5 32.2375 3.6088
    endloop
  endfacet
  facet normal 2.18112e-016 0.982287 0.187381
    outer loop
      vertex -22.5 32.2375 3.6088
      vertex -33.5 32.4987 2.23954
      vertex -33.5 32.2375 3.6088
    endloop
  endfacet
  facet normal 2.21606e-016 0.998027 0.0627906
    outer loop
      vertex -22.5 32.2375 3.6088
      vertex -33.5 32.2375 3.6088
      vertex -22.5 32.15 5
    endloop
  endfacet
  facet normal 2.21606e-016 0.998027 0.0627906
    outer loop
      vertex -22.5 32.15 5
      vertex -33.5 32.2375 3.6088
      vertex -33.5 32.15 5
    endloop
  endfacet
  facet normal 2.21606e-016 0.998027 -0.0627906
    outer loop
      vertex -22.5 32.2375 6.3912
      vertex -22.5 32.15 5
      vertex -33.5 32.2375 6.3912
    endloop
  endfacet
  facet normal 2.21606e-016 0.998027 -0.0627906
    outer loop
      vertex -33.5 32.2375 6.3912
      vertex -22.5 32.15 5
      vertex -33.5 32.15 5
    endloop
  endfacet
  facet normal 2.18112e-016 0.982287 -0.187381
    outer loop
      vertex -22.5 32.4987 7.76046
      vertex -22.5 32.2375 6.3912
      vertex -33.5 32.4987 7.76046
    endloop
  endfacet
  facet normal 2.18112e-016 0.982287 -0.187381
    outer loop
      vertex -33.5 32.4987 7.76046
      vertex -22.5 32.2375 6.3912
      vertex -33.5 32.2375 6.3912
    endloop
  endfacet
  facet normal 2.11177e-016 0.951057 -0.309017
    outer loop
      vertex -22.5 32.9295 9.08618
      vertex -22.5 32.4987 7.76046
      vertex -33.5 32.9295 9.08618
    endloop
  endfacet
  facet normal 2.11177e-016 0.951057 -0.309017
    outer loop
      vertex -33.5 32.9295 9.08618
      vertex -22.5 32.4987 7.76046
      vertex -33.5 32.4987 7.76046
    endloop
  endfacet
  facet normal 2.00912e-016 0.904827 -0.425779
    outer loop
      vertex -22.5 33.523 10.3475
      vertex -22.5 32.9295 9.08618
      vertex -33.5 33.523 10.3475
    endloop
  endfacet
  facet normal 2.00912e-016 0.904827 -0.425779
    outer loop
      vertex -33.5 33.523 10.3475
      vertex -22.5 32.9295 9.08618
      vertex -33.5 32.9295 9.08618
    endloop
  endfacet
  facet normal 1.87478e-016 0.844328 -0.535827
    outer loop
      vertex -22.5 33.523 10.3475
      vertex -33.5 34 11.0991
      vertex -22.5 34 11.0991
    endloop
  endfacet
  facet normal 1.87478e-016 0.844328 -0.535827
    outer loop
      vertex -33.5 33.523 10.3475
      vertex -33.5 34 11.0991
      vertex -22.5 33.523 10.3475
    endloop
  endfacet
  facet normal 1.87478e-016 0.844328 -0.535827
    outer loop
      vertex -33.5 34.2699 11.5244
      vertex -33.5 34 11.0991
      vertex -33.5 33.523 10.3475
    endloop
  endfacet
  facet normal -1.71088e-016 -0.770513 -0.637424
    outer loop
      vertex -22.5 52 11.8025
      vertex -22.5 52.2301 11.5244
      vertex -22.5 51.3416 12.5985
    endloop
  endfacet
  facet normal -1.71088e-016 -0.770513 -0.637424
    outer loop
      vertex -22.5 52 11.8025
      vertex -33.5 52 11.8025
      vertex -33.5 52.2301 11.5244
    endloop
  endfacet
  facet normal -1.71088e-016 -0.770513 -0.637424
    outer loop
      vertex -33.5 52.2301 11.5244
      vertex -22.5 52.2301 11.5244
      vertex -22.5 52 11.8025
    endloop
  endfacet
  facet normal -1.87478e-016 -0.844328 -0.535827
    outer loop
      vertex -33.5 52.977 10.3475
      vertex -22.5 52.977 10.3475
      vertex -22.5 52.2301 11.5244
    endloop
  endfacet
  facet normal -1.87478e-016 -0.844328 -0.535827
    outer loop
      vertex -33.5 52.2301 11.5244
      vertex -33.5 52.977 10.3475
      vertex -22.5 52.2301 11.5244
    endloop
  endfacet
  facet normal -2.00912e-016 -0.904827 -0.425779
    outer loop
      vertex -33.5 53.5705 9.08618
      vertex -22.5 53.5705 9.08618
      vertex -22.5 52.977 10.3475
    endloop
  endfacet
  facet normal -2.00912e-016 -0.904827 -0.425779
    outer loop
      vertex -33.5 52.977 10.3475
      vertex -33.5 53.5705 9.08618
      vertex -22.5 52.977 10.3475
    endloop
  endfacet
  facet normal -2.11177e-016 -0.951057 -0.309017
    outer loop
      vertex -33.5 54.0013 7.76046
      vertex -22.5 54.0013 7.76046
      vertex -22.5 53.5705 9.08618
    endloop
  endfacet
  facet normal -2.11177e-016 -0.951057 -0.309017
    outer loop
      vertex -33.5 53.5705 9.08618
      vertex -33.5 54.0013 7.76046
      vertex -22.5 53.5705 9.08618
    endloop
  endfacet
  facet normal -2.18112e-016 -0.982287 -0.187381
    outer loop
      vertex -33.5 54.2625 6.3912
      vertex -22.5 54.2625 6.3912
      vertex -22.5 54.0013 7.76046
    endloop
  endfacet
  facet normal -2.18112e-016 -0.982287 -0.187381
    outer loop
      vertex -33.5 54.0013 7.76046
      vertex -33.5 54.2625 6.3912
      vertex -22.5 54.0013 7.76046
    endloop
  endfacet
  facet normal -2.21606e-016 -0.998027 -0.0627906
    outer loop
      vertex -33.5 54.35 5
      vertex -22.5 54.35 5
      vertex -22.5 54.2625 6.3912
    endloop
  endfacet
  facet normal -2.21606e-016 -0.998027 -0.0627906
    outer loop
      vertex -33.5 54.2625 6.3912
      vertex -33.5 54.35 5
      vertex -22.5 54.2625 6.3912
    endloop
  endfacet
  facet normal -2.21606e-016 -0.998027 0.0627906
    outer loop
      vertex -22.5 54.2625 3.6088
      vertex -22.5 54.35 5
      vertex -33.5 54.35 5
    endloop
  endfacet
  facet normal -2.21606e-016 -0.998027 0.0627906
    outer loop
      vertex -33.5 54.2625 3.6088
      vertex -22.5 54.2625 3.6088
      vertex -33.5 54.35 5
    endloop
  endfacet
  facet normal -2.18112e-016 -0.982287 0.187381
    outer loop
      vertex -22.5 54.0013 2.23954
      vertex -22.5 54.2625 3.6088
      vertex -33.5 54.2625 3.6088
    endloop
  endfacet
  facet normal -2.18112e-016 -0.982287 0.187381
    outer loop
      vertex -33.5 54.0013 2.23954
      vertex -22.5 54.0013 2.23954
      vertex -33.5 54.2625 3.6088
    endloop
  endfacet
  facet normal -2.11177e-016 -0.951057 0.309017
    outer loop
      vertex -22.5 53.5705 0.913817
      vertex -22.5 54.0013 2.23954
      vertex -33.5 54.0013 2.23954
    endloop
  endfacet
  facet normal -2.11177e-016 -0.951057 0.309017
    outer loop
      vertex -33.5 53.5705 0.913817
      vertex -22.5 53.5705 0.913817
      vertex -33.5 54.0013 2.23954
    endloop
  endfacet
  facet normal 2.11177e-016 0.951057 0.309017
    outer loop
      vertex -22.5 32.9295 0.913817
      vertex -33.5 32.9295 0.913817
      vertex -22.5 32.4987 2.23954
    endloop
  endfacet
  facet normal 2.11177e-016 0.951057 0.309017
    outer loop
      vertex -22.5 32.4987 2.23954
      vertex -33.5 32.9295 0.913817
      vertex -33.5 32.4987 2.23954
    endloop
  endfacet
  facet normal 0 0.788011 -0.615661
    outer loop
      vertex -32 39.7351 24
      vertex -24 39.7351 24
      vertex -32 34 16.6594
    endloop
  endfacet
  facet normal 0 0.788011 -0.615661
    outer loop
      vertex -32 34 16.6594
      vertex -24 39.7351 24
      vertex -24 34 16.6594
    endloop
  endfacet
  facet normal 0 -1 -2.22045e-016
    outer loop
      vertex -24 30 33.5
      vertex -32 30 33.5
      vertex -32 30 19.661
    endloop
  endfacet
  facet normal 0 -1 -2.22045e-016
    outer loop
      vertex -24 30 19.661
      vertex -24 30 33.5
      vertex -32 30 19.661
    endloop
  endfacet
  facet normal 0 -0.788011 0.615661
    outer loop
      vertex -24 30 19.661
      vertex -32 30 19.661
      vertex -32 29.9517 19.5991
    endloop
  endfacet
  facet normal 0 -0.788011 0.615661
    outer loop
      vertex -24 29.9517 19.5991
      vertex -24 30 19.661
      vertex -32 29.9517 19.5991
    endloop
  endfacet
  facet normal 0 -0.615661 -0.788011
    outer loop
      vertex -32 29.9517 19.5991
      vertex -32 30 19.5613
      vertex -24 29.9517 19.5991
    endloop
  endfacet
  facet normal 0 -0.615661 -0.788011
    outer loop
      vertex -24 29.9517 19.5991
      vertex -32 30 19.5613
      vertex -24 30 19.5613
    endloop
  endfacet
  facet normal 0 2.22045e-016 -1
    outer loop
      vertex -24 46.2649 24
      vertex -24 39.7351 24
      vertex -32 46.2649 24
    endloop
  endfacet
  facet normal 0 2.22045e-016 -1
    outer loop
      vertex -32 46.2649 24
      vertex -24 39.7351 24
      vertex -32 39.7351 24
    endloop
  endfacet
  facet normal 0 -0.788011 -0.615661
    outer loop
      vertex -24 46.2649 24
      vertex -32 46.2649 24
      vertex -32 52 16.6594
    endloop
  endfacet
  facet normal 0 -0.788011 -0.615661
    outer loop
      vertex -24 52 16.6594
      vertex -24 46.2649 24
      vertex -32 52 16.6594
    endloop
  endfacet
  facet normal 0 0.615661 -0.788011
    outer loop
      vertex -32 56.0483 19.5991
      vertex -24 56.0483 19.5991
      vertex -32 56 19.5613
    endloop
  endfacet
  facet normal 0 0.615661 -0.788011
    outer loop
      vertex -32 56 19.5613
      vertex -24 56.0483 19.5991
      vertex -24 56 19.5613
    endloop
  endfacet
  facet normal 0 0.788011 0.615661
    outer loop
      vertex -32 56 19.661
      vertex -24 56 19.661
      vertex -32 56.0483 19.5991
    endloop
  endfacet
  facet normal 0 0.788011 0.615661
    outer loop
      vertex -32 56.0483 19.5991
      vertex -24 56 19.661
      vertex -24 56.0483 19.5991
    endloop
  endfacet
  facet normal 0 1 2.22045e-016
    outer loop
      vertex -32 56 33.5
      vertex -24 56 33.5
      vertex -32 56 19.661
    endloop
  endfacet
  facet normal 0 1 2.22045e-016
    outer loop
      vertex -32 56 19.661
      vertex -24 56 33.5
      vertex -24 56 19.661
    endloop
  endfacet
  facet normal 0 -2.22045e-016 1
    outer loop
      vertex -28.745 41.7095 33.5
      vertex -32 30 33.5
      vertex -24 30 33.5
    endloop
  endfacet
  facet normal 0 -2.22045e-016 1
    outer loop
      vertex -29.4901 43 33.5
      vertex -32 30 33.5
      vertex -28.745 41.7095 33.5
    endloop
  endfacet
  facet normal 0 -2.22045e-016 1
    outer loop
      vertex -28.745 44.2905 33.5
      vertex -27.2549 44.2905 33.5
      vertex -32 56 33.5
    endloop
  endfacet
  facet normal 0 -2.22045e-016 1
    outer loop
      vertex -32 56 33.5
      vertex -32 30 33.5
      vertex -29.4901 43 33.5
    endloop
  endfacet
  facet normal 0 -2.22045e-016 1
    outer loop
      vertex -29.4901 43 33.5
      vertex -28.745 44.2905 33.5
      vertex -32 56 33.5
    endloop
  endfacet
  facet normal 0 -2.22045e-016 1
    outer loop
      vertex -24 56 33.5
      vertex -32 56 33.5
      vertex -27.2549 44.2905 33.5
    endloop
  endfacet
  facet normal 0 -2.22045e-016 1
    outer loop
      vertex -24 56 33.5
      vertex -26.5099 43 33.5
      vertex -24 30 33.5
    endloop
  endfacet
  facet normal 0 -2.22045e-016 1
    outer loop
      vertex -24 56 33.5
      vertex -27.2549 44.2905 33.5
      vertex -26.5099 43 33.5
    endloop
  endfacet
  facet normal 0 -2.22045e-016 1
    outer loop
      vertex -26.5099 43 33.5
      vertex -27.2549 41.7095 33.5
      vertex -24 30 33.5
    endloop
  endfacet
  facet normal 0 -2.22045e-016 1
    outer loop
      vertex -27.2549 41.7095 33.5
      vertex -28.745 41.7095 33.5
      vertex -24 30 33.5
    endloop
  endfacet
  facet normal 2.20828e-016 0.994522 0.104528
    outer loop
      vertex -19.5 41.0981 4.54259
      vertex -22.5 41.0981 4.54259
      vertex -19.5 41.05 5
    endloop
  endfacet
  facet normal 2.20828e-016 0.994522 0.104528
    outer loop
      vertex -19.5 41.05 5
      vertex -22.5 41.0981 4.54259
      vertex -22.5 41.05 5
    endloop
  endfacet
  facet normal 2.20828e-016 0.994522 -0.104528
    outer loop
      vertex -19.5 41.0981 5.45741
      vertex -19.5 41.05 5
      vertex -22.5 41.0981 5.45741
    endloop
  endfacet
  facet normal 2.20828e-016 0.994522 -0.104528
    outer loop
      vertex -22.5 41.0981 5.45741
      vertex -19.5 41.05 5
      vertex -22.5 41.05 5
    endloop
  endfacet
  facet normal 2.11177e-016 0.951056 0.309017
    outer loop
      vertex -19.5 41.2402 4.10518
      vertex -22.5 41.2402 4.10518
      vertex -19.5 41.0981 4.54259
    endloop
  endfacet
  facet normal 2.11177e-016 0.951056 0.309017
    outer loop
      vertex -19.5 41.0981 4.54259
      vertex -22.5 41.2402 4.10518
      vertex -22.5 41.0981 4.54259
    endloop
  endfacet
  facet normal 1.92296e-016 0.866025 0.500001
    outer loop
      vertex -19.5 41.4702 3.70687
      vertex -22.5 41.4702 3.70687
      vertex -19.5 41.2402 4.10518
    endloop
  endfacet
  facet normal 1.92296e-016 0.866025 0.500001
    outer loop
      vertex -19.5 41.2402 4.10518
      vertex -22.5 41.4702 3.70687
      vertex -22.5 41.2402 4.10518
    endloop
  endfacet
  facet normal 1.65011e-016 0.743145 0.669131
    outer loop
      vertex -19.5 41.7779 3.36508
      vertex -22.5 41.7779 3.36508
      vertex -19.5 41.4702 3.70687
    endloop
  endfacet
  facet normal 1.65011e-016 0.743145 0.669131
    outer loop
      vertex -19.5 41.4702 3.70687
      vertex -22.5 41.7779 3.36508
      vertex -22.5 41.4702 3.70687
    endloop
  endfacet
  facet normal 1.30515e-016 0.587785 0.809017
    outer loop
      vertex -19.5 41.7779 3.36508
      vertex -19.5 42.15 3.09474
      vertex -22.5 42.15 3.09474
    endloop
  endfacet
  facet normal 1.30515e-016 0.587785 0.809017
    outer loop
      vertex -22.5 41.7779 3.36508
      vertex -19.5 41.7779 3.36508
      vertex -22.5 42.15 3.09474
    endloop
  endfacet
  facet normal 9.03134e-017 0.406736 0.913546
    outer loop
      vertex -19.5 42.15 3.09474
      vertex -19.5 42.5702 2.90768
      vertex -22.5 42.5702 2.90768
    endloop
  endfacet
  facet normal 9.03134e-017 0.406736 0.913546
    outer loop
      vertex -22.5 42.15 3.09474
      vertex -19.5 42.15 3.09474
      vertex -22.5 42.5702 2.90768
    endloop
  endfacet
  facet normal 4.61658e-017 0.207912 0.978147
    outer loop
      vertex -19.5 42.5702 2.90768
      vertex -19.5 43.02 2.81205
      vertex -22.5 43.02 2.81205
    endloop
  endfacet
  facet normal 4.61658e-017 0.207912 0.978147
    outer loop
      vertex -22.5 42.5702 2.90768
      vertex -19.5 42.5702 2.90768
      vertex -22.5 43.02 2.81205
    endloop
  endfacet
  facet normal 0 -2.22045e-016 1
    outer loop
      vertex -19.5 43.02 2.81205
      vertex -19.5 43.48 2.81205
      vertex -22.5 43.48 2.81205
    endloop
  endfacet
  facet normal 0 -2.22045e-016 1
    outer loop
      vertex -22.5 43.02 2.81205
      vertex -19.5 43.02 2.81205
      vertex -22.5 43.48 2.81205
    endloop
  endfacet
  facet normal -4.61658e-017 -0.207912 0.978147
    outer loop
      vertex -19.5 43.48 2.81205
      vertex -19.5 43.9298 2.90768
      vertex -22.5 43.9298 2.90768
    endloop
  endfacet
  facet normal -4.61658e-017 -0.207912 0.978147
    outer loop
      vertex -22.5 43.48 2.81205
      vertex -19.5 43.48 2.81205
      vertex -22.5 43.9298 2.90768
    endloop
  endfacet
  facet normal -9.03134e-017 -0.406736 0.913546
    outer loop
      vertex -19.5 43.9298 2.90768
      vertex -19.5 44.35 3.09474
      vertex -22.5 44.35 3.09474
    endloop
  endfacet
  facet normal -9.03134e-017 -0.406736 0.913546
    outer loop
      vertex -22.5 43.9298 2.90768
      vertex -19.5 43.9298 2.90768
      vertex -22.5 44.35 3.09474
    endloop
  endfacet
  facet normal -1.30515e-016 -0.587785 0.809017
    outer loop
      vertex -19.5 44.35 3.09474
      vertex -19.5 44.7221 3.36508
      vertex -22.5 44.7221 3.36508
    endloop
  endfacet
  facet normal -1.30515e-016 -0.587785 0.809017
    outer loop
      vertex -22.5 44.35 3.09474
      vertex -19.5 44.35 3.09474
      vertex -22.5 44.7221 3.36508
    endloop
  endfacet
  facet normal -1.65011e-016 -0.743145 0.669131
    outer loop
      vertex -19.5 44.7221 3.36508
      vertex -19.5 45.0298 3.70687
      vertex -22.5 45.0298 3.70687
    endloop
  endfacet
  facet normal -1.65011e-016 -0.743145 0.669131
    outer loop
      vertex -22.5 44.7221 3.36508
      vertex -19.5 44.7221 3.36508
      vertex -22.5 45.0298 3.70687
    endloop
  endfacet
  facet normal -1.92296e-016 -0.866025 0.500001
    outer loop
      vertex -19.5 45.0298 3.70687
      vertex -19.5 45.2598 4.10518
      vertex -22.5 45.2598 4.10518
    endloop
  endfacet
  facet normal -1.92296e-016 -0.866025 0.500001
    outer loop
      vertex -22.5 45.0298 3.70687
      vertex -19.5 45.0298 3.70687
      vertex -22.5 45.2598 4.10518
    endloop
  endfacet
  facet normal -2.11177e-016 -0.951056 0.309017
    outer loop
      vertex -19.5 45.2598 4.10518
      vertex -19.5 45.4019 4.54259
      vertex -22.5 45.4019 4.54259
    endloop
  endfacet
  facet normal -2.11177e-016 -0.951056 0.309017
    outer loop
      vertex -22.5 45.2598 4.10518
      vertex -19.5 45.2598 4.10518
      vertex -22.5 45.4019 4.54259
    endloop
  endfacet
  facet normal -2.20828e-016 -0.994522 0.104528
    outer loop
      vertex -19.5 45.4019 4.54259
      vertex -19.5 45.45 5
      vertex -22.5 45.45 5
    endloop
  endfacet
  facet normal -2.20828e-016 -0.994522 0.104528
    outer loop
      vertex -22.5 45.4019 4.54259
      vertex -19.5 45.4019 4.54259
      vertex -22.5 45.45 5
    endloop
  endfacet
  facet normal -2.20828e-016 -0.994522 -0.104528
    outer loop
      vertex -22.5 45.45 5
      vertex -19.5 45.45 5
      vertex -19.5 45.4019 5.45741
    endloop
  endfacet
  facet normal -2.20828e-016 -0.994522 -0.104528
    outer loop
      vertex -22.5 45.4019 5.45741
      vertex -22.5 45.45 5
      vertex -19.5 45.4019 5.45741
    endloop
  endfacet
  facet normal -2.11177e-016 -0.951056 -0.309017
    outer loop
      vertex -22.5 45.4019 5.45741
      vertex -19.5 45.4019 5.45741
      vertex -19.5 45.2598 5.89482
    endloop
  endfacet
  facet normal -2.11177e-016 -0.951056 -0.309017
    outer loop
      vertex -22.5 45.2598 5.89482
      vertex -22.5 45.4019 5.45741
      vertex -19.5 45.2598 5.89482
    endloop
  endfacet
  facet normal -1.92296e-016 -0.866025 -0.500001
    outer loop
      vertex -22.5 45.2598 5.89482
      vertex -19.5 45.2598 5.89482
      vertex -19.5 45.0298 6.29313
    endloop
  endfacet
  facet normal -1.92296e-016 -0.866025 -0.500001
    outer loop
      vertex -22.5 45.0298 6.29313
      vertex -22.5 45.2598 5.89482
      vertex -19.5 45.0298 6.29313
    endloop
  endfacet
  facet normal -1.65011e-016 -0.743145 -0.669131
    outer loop
      vertex -22.5 45.0298 6.29313
      vertex -19.5 45.0298 6.29313
      vertex -19.5 44.7221 6.63492
    endloop
  endfacet
  facet normal -1.65011e-016 -0.743145 -0.669131
    outer loop
      vertex -22.5 44.7221 6.63492
      vertex -22.5 45.0298 6.29313
      vertex -19.5 44.7221 6.63492
    endloop
  endfacet
  facet normal -1.30515e-016 -0.587785 -0.809017
    outer loop
      vertex -19.5 44.7221 6.63492
      vertex -19.5 44.35 6.90526
      vertex -22.5 44.7221 6.63492
    endloop
  endfacet
  facet normal -1.30515e-016 -0.587785 -0.809017
    outer loop
      vertex -22.5 44.7221 6.63492
      vertex -19.5 44.35 6.90526
      vertex -22.5 44.35 6.90526
    endloop
  endfacet
  facet normal -9.03134e-017 -0.406736 -0.913546
    outer loop
      vertex -19.5 44.35 6.90526
      vertex -19.5 43.9298 7.09232
      vertex -22.5 44.35 6.90526
    endloop
  endfacet
  facet normal -9.03134e-017 -0.406736 -0.913546
    outer loop
      vertex -22.5 44.35 6.90526
      vertex -19.5 43.9298 7.09232
      vertex -22.5 43.9298 7.09232
    endloop
  endfacet
  facet normal -4.61658e-017 -0.207912 -0.978147
    outer loop
      vertex -19.5 43.9298 7.09232
      vertex -19.5 43.48 7.18795
      vertex -22.5 43.9298 7.09232
    endloop
  endfacet
  facet normal -4.61658e-017 -0.207912 -0.978147
    outer loop
      vertex -22.5 43.9298 7.09232
      vertex -19.5 43.48 7.18795
      vertex -22.5 43.48 7.18795
    endloop
  endfacet
  facet normal 0 2.22045e-016 -1
    outer loop
      vertex -19.5 43.48 7.18795
      vertex -19.5 43.02 7.18795
      vertex -22.5 43.48 7.18795
    endloop
  endfacet
  facet normal 0 2.22045e-016 -1
    outer loop
      vertex -22.5 43.48 7.18795
      vertex -19.5 43.02 7.18795
      vertex -22.5 43.02 7.18795
    endloop
  endfacet
  facet normal 4.61658e-017 0.207912 -0.978147
    outer loop
      vertex -19.5 43.02 7.18795
      vertex -19.5 42.5702 7.09232
      vertex -22.5 43.02 7.18795
    endloop
  endfacet
  facet normal 4.61658e-017 0.207912 -0.978147
    outer loop
      vertex -22.5 43.02 7.18795
      vertex -19.5 42.5702 7.09232
      vertex -22.5 42.5702 7.09232
    endloop
  endfacet
  facet normal 9.03134e-017 0.406736 -0.913546
    outer loop
      vertex -19.5 42.5702 7.09232
      vertex -19.5 42.15 6.90526
      vertex -22.5 42.5702 7.09232
    endloop
  endfacet
  facet normal 9.03134e-017 0.406736 -0.913546
    outer loop
      vertex -22.5 42.5702 7.09232
      vertex -19.5 42.15 6.90526
      vertex -22.5 42.15 6.90526
    endloop
  endfacet
  facet normal 1.30515e-016 0.587785 -0.809017
    outer loop
      vertex -19.5 42.15 6.90526
      vertex -19.5 41.7779 6.63492
      vertex -22.5 42.15 6.90526
    endloop
  endfacet
  facet normal 1.30515e-016 0.587785 -0.809017
    outer loop
      vertex -22.5 42.15 6.90526
      vertex -19.5 41.7779 6.63492
      vertex -22.5 41.7779 6.63492
    endloop
  endfacet
  facet normal 1.65011e-016 0.743145 -0.669131
    outer loop
      vertex -19.5 41.7779 6.63492
      vertex -19.5 41.4702 6.29313
      vertex -22.5 41.7779 6.63492
    endloop
  endfacet
  facet normal 1.65011e-016 0.743145 -0.669131
    outer loop
      vertex -22.5 41.7779 6.63492
      vertex -19.5 41.4702 6.29313
      vertex -22.5 41.4702 6.29313
    endloop
  endfacet
  facet normal 1.92296e-016 0.866025 -0.500001
    outer loop
      vertex -19.5 41.4702 6.29313
      vertex -19.5 41.2402 5.89482
      vertex -22.5 41.4702 6.29313
    endloop
  endfacet
  facet normal 1.92296e-016 0.866025 -0.500001
    outer loop
      vertex -22.5 41.4702 6.29313
      vertex -19.5 41.2402 5.89482
      vertex -22.5 41.2402 5.89482
    endloop
  endfacet
  facet normal 2.11177e-016 0.951056 -0.309017
    outer loop
      vertex -19.5 41.2402 5.89482
      vertex -19.5 41.0981 5.45741
      vertex -22.5 41.2402 5.89482
    endloop
  endfacet
  facet normal 2.11177e-016 0.951056 -0.309017
    outer loop
      vertex -22.5 41.2402 5.89482
      vertex -19.5 41.0981 5.45741
      vertex -22.5 41.0981 5.45741
    endloop
  endfacet
  facet normal 0.866025 0.5 0
    outer loop
      vertex -28.745 41.7095 33.5
      vertex -28.745 41.7095 26.7
      vertex -29.4901 43 26.7
    endloop
  endfacet
  facet normal 0.866025 0.5 0
    outer loop
      vertex -29.4901 43 33.5
      vertex -28.745 41.7095 33.5
      vertex -29.4901 43 26.7
    endloop
  endfacet
  facet normal 0 1 0
    outer loop
      vertex -27.2549 41.7095 26.7
      vertex -28.745 41.7095 26.7
      vertex -27.2549 41.7095 33.5
    endloop
  endfacet
  facet normal 0 1 0
    outer loop
      vertex -27.2549 41.7095 33.5
      vertex -28.745 41.7095 26.7
      vertex -28.745 41.7095 33.5
    endloop
  endfacet
  facet normal -0.866025 0.5 0
    outer loop
      vertex -26.5099 43 26.7
      vertex -27.2549 41.7095 26.7
      vertex -26.5099 43 33.5
    endloop
  endfacet
  facet normal -0.866025 0.5 0
    outer loop
      vertex -26.5099 43 33.5
      vertex -27.2549 41.7095 26.7
      vertex -27.2549 41.7095 33.5
    endloop
  endfacet
  facet normal -0.866025 -0.5 0
    outer loop
      vertex -26.5099 43 26.7
      vertex -26.5099 43 33.5
      vertex -27.2549 44.2905 26.7
    endloop
  endfacet
  facet normal -0.866025 -0.5 0
    outer loop
      vertex -27.2549 44.2905 26.7
      vertex -26.5099 43 33.5
      vertex -27.2549 44.2905 33.5
    endloop
  endfacet
  facet normal 0 -1 0
    outer loop
      vertex -28.745 44.2905 26.7
      vertex -27.2549 44.2905 26.7
      vertex -27.2549 44.2905 33.5
    endloop
  endfacet
  facet normal 0 -1 0
    outer loop
      vertex -28.745 44.2905 33.5
      vertex -28.745 44.2905 26.7
      vertex -27.2549 44.2905 33.5
    endloop
  endfacet
  facet normal 0.866025 -0.5 0
    outer loop
      vertex -29.4901 43 26.7
      vertex -28.745 44.2905 26.7
      vertex -28.745 44.2905 33.5
    endloop
  endfacet
  facet normal 0.866025 -0.5 0
    outer loop
      vertex -29.4901 43 33.5
      vertex -29.4901 43 26.7
      vertex -28.745 44.2905 33.5
    endloop
  endfacet
  facet normal 0 0 1
    outer loop
      vertex -28.745 41.7095 26.7
      vertex -27.2549 41.7095 26.7
      vertex -26.5099 43 26.7
    endloop
  endfacet
  facet normal 0 0 1
    outer loop
      vertex -28.745 44.2905 26.7
      vertex -28.745 41.7095 26.7
      vertex -27.2549 44.2905 26.7
    endloop
  endfacet
  facet normal 0 0 1
    outer loop
      vertex -27.2549 44.2905 26.7
      vertex -28.745 41.7095 26.7
      vertex -26.5099 43 26.7
    endloop
  endfacet
  facet normal 0 0 1
    outer loop
      vertex -29.4901 43 26.7
      vertex -28.745 41.7095 26.7
      vertex -28.745 44.2905 26.7
    endloop
  endfacet
  facet normal 0 0 1
    outer loop
      vertex -29.6 45.7714 26.7
      vertex -31.2001 43 26.7
      vertex -29.6 40.2286 26.7
    endloop
  endfacet
  facet normal 0 0 1
    outer loop
      vertex -24.7999 43 26.7
      vertex -29.6 45.7714 26.7
      vertex -26.3999 40.2286 26.7
    endloop
  endfacet
  facet normal 0 0 1
    outer loop
      vertex -26.3999 40.2286 26.7
      vertex -29.6 45.7714 26.7
      vertex -29.6 40.2286 26.7
    endloop
  endfacet
  facet normal 0 0 1
    outer loop
      vertex -26.3999 45.7714 26.7
      vertex -29.6 45.7714 26.7
      vertex -24.7999 43 26.7
    endloop
  endfacet
  facet normal -0.866025 -0.5 0
    outer loop
      vertex -31.2001 43 26.7
      vertex -31.2001 43 24.2999
      vertex -29.6 40.2286 26.7
    endloop
  endfacet
  facet normal -0.866025 -0.5 0
    outer loop
      vertex -29.6 40.2286 26.7
      vertex -31.2001 43 24.2999
      vertex -29.6 40.2286 24.2999
    endloop
  endfacet
  facet normal -0.866025 0.5 0
    outer loop
      vertex -31.2001 43 26.7
      vertex -29.6 45.7714 26.7
      vertex -31.2001 43 24.2999
    endloop
  endfacet
  facet normal -0.866025 0.5 0
    outer loop
      vertex -31.2001 43 24.2999
      vertex -29.6 45.7714 26.7
      vertex -29.6 45.7714 24.2999
    endloop
  endfacet
  facet normal 0 1 0
    outer loop
      vertex -29.6 45.7714 26.7
      vertex -26.3999 45.7714 26.7
      vertex -29.6 45.7714 24.2999
    endloop
  endfacet
  facet normal 0 1 0
    outer loop
      vertex -29.6 45.7714 24.2999
      vertex -26.3999 45.7714 26.7
      vertex -26.3999 45.7714 24.2999
    endloop
  endfacet
  facet normal 0.866025 0.5 0
    outer loop
      vertex -26.3999 45.7714 24.2999
      vertex -26.3999 45.7714 26.7
      vertex -24.7999 43 26.7
    endloop
  endfacet
  facet normal 0.866025 0.5 0
    outer loop
      vertex -24.7999 43 24.2999
      vertex -26.3999 45.7714 24.2999
      vertex -24.7999 43 26.7
    endloop
  endfacet
  facet normal 0.866025 -0.5 0
    outer loop
      vertex -24.7999 43 26.7
      vertex -26.3999 40.2286 26.7
      vertex -26.3999 40.2286 24.2999
    endloop
  endfacet
  facet normal 0.866025 -0.5 0
    outer loop
      vertex -24.7999 43 24.2999
      vertex -24.7999 43 26.7
      vertex -26.3999 40.2286 24.2999
    endloop
  endfacet
  facet normal 0 -1 0
    outer loop
      vertex -26.3999 40.2286 26.7
      vertex -29.6 40.2286 26.7
      vertex -29.6 40.2286 24.2999
    endloop
  endfacet
  facet normal 0 -1 0
    outer loop
      vertex -26.3999 40.2286 24.2999
      vertex -26.3999 40.2286 26.7
      vertex -29.6 40.2286 24.2999
    endloop
  endfacet
  facet normal 0 0 -1
    outer loop
      vertex -31.2001 43 24.2999
      vertex -29.6 45.7714 24.2999
      vertex -29.6 40.2286 24.2999
    endloop
  endfacet
  facet normal 0 0 -1
    outer loop
      vertex -29.6 40.2286 24.2999
      vertex -29.6 45.7714 24.2999
      vertex -26.3999 45.7714 24.2999
    endloop
  endfacet
  facet normal 0 0 -1
    outer loop
      vertex -29.6 40.2286 24.2999
      vertex -26.3999 45.7714 24.2999
      vertex -24.7999 43 24.2999
    endloop
  endfacet
  facet normal 0 0 -1
    outer loop
      vertex -29.6 40.2286 24.2999
      vertex -24.7999 43 24.2999
      vertex -26.3999 40.2286 24.2999
    endloop
  endfacet
endsolid OpenSCAD_Model
