solid OpenSCAD_Model
  facet normal 0 -1 0
    outer loop
      vertex 76.5 76 8
      vertex 76.5 76 1e-006
      vertex 93.5 76 1e-006
    endloop
  endfacet
  facet normal 0 -1 0
    outer loop
      vertex 80.3 76 8
      vertex 76.5 76 8
      vertex 93.5 76 1e-006
    endloop
  endfacet
  facet normal 0 -1 0
    outer loop
      vertex 89.7 76 8
      vertex 80.3 76 8
      vertex 93.5 76 1e-006
    endloop
  endfacet
  facet normal 0 -1 0
    outer loop
      vertex 93.5 76 8
      vertex 89.7 76 8
      vertex 93.5 76 1e-006
    endloop
  endfacet
  facet normal 0 -1 0
    outer loop
      vertex 89.7 76 40
      vertex 80.3 76 8
      vertex 89.7 76 8
    endloop
  endfacet
  facet normal 0 -1 0
    outer loop
      vertex 80.3 76 40
      vertex 80.3 76 8
      vertex 89.7 76 40
    endloop
  endfacet
  facet normal 0 -2.5e-007 -1
    outer loop
      vertex 76.5 76 1e-006
      vertex 80 80 0
      vertex 93.5 76 1e-006
    endloop
  endfacet
  facet normal 0 -2.5e-007 -1
    outer loop
      vertex 93.5 76 1e-006
      vertex 80 80 0
      vertex 90 80 0
    endloop
  endfacet
  facet normal -2.85714e-007 0 -1
    outer loop
      vertex 80 80 0
      vertex 76.5 76 1e-006
      vertex 80 100 0
    endloop
  endfacet
  facet normal 2.04082e-007 -7.14286e-008 -1
    outer loop
      vertex 80 100 0
      vertex 76.5 76 1e-006
      vertex 76.5 104 -1e-006
    endloop
  endfacet
  facet normal -1 0 0
    outer loop
      vertex 76.5 76 1e-006
      vertex 76.5 76 8
      vertex 76.5 104 -1e-006
    endloop
  endfacet
  facet normal -1 0 0
    outer loop
      vertex 76.5 87.15 11.6454
      vertex 76.5 76 8
      vertex 76.5 90 16.0829
    endloop
  endfacet
  facet normal -1 0 0
    outer loop
      vertex 76.5 104 -1e-006
      vertex 76.5 90 16.0829
      vertex 76.5 104 8
    endloop
  endfacet
  facet normal -1 0 0
    outer loop
      vertex 76.5 87.15 8.35455
      vertex 76.5 76 8
      vertex 76.5 87.15 11.6454
    endloop
  endfacet
  facet normal -1 0 0
    outer loop
      vertex 76.5 90 13.2909
      vertex 76.5 87.15 11.6454
      vertex 76.5 90 16.0829
    endloop
  endfacet
  facet normal -1 0 0
    outer loop
      vertex 76.5 90 6.7091
      vertex 76.5 76 8
      vertex 76.5 87.15 8.35455
    endloop
  endfacet
  facet normal -1 0 0
    outer loop
      vertex 76.5 104 -1e-006
      vertex 76.5 76 8
      vertex 76.5 90 6.7091
    endloop
  endfacet
  facet normal -1 0 0
    outer loop
      vertex 76.5 90 13.2909
      vertex 76.5 90 16.0829
      vertex 76.5 92.85 11.6454
    endloop
  endfacet
  facet normal -1 0 0
    outer loop
      vertex 76.5 104 -1e-006
      vertex 76.5 92.85 8.35455
      vertex 76.5 92.85 11.6454
    endloop
  endfacet
  facet normal -1 0 0
    outer loop
      vertex 76.5 104 -1e-006
      vertex 76.5 92.85 11.6454
      vertex 76.5 90 16.0829
    endloop
  endfacet
  facet normal -1 0 0
    outer loop
      vertex 76.5 92.85 8.35455
      vertex 76.5 104 -1e-006
      vertex 76.5 90 6.7091
    endloop
  endfacet
  facet normal 1.79515e-007 -0.5 0.866025
    outer loop
      vertex 76.5 90 16.0829
      vertex 76.5 76 8
      vertex 80 80.0049 10.3122
    endloop
  endfacet
  facet normal 0 -0.5 0.866025
    outer loop
      vertex 80 80.0049 10.3122
      vertex 76.5 76 8
      vertex 80.3 76 8
    endloop
  endfacet
  facet normal 0 -0.5 0.866025
    outer loop
      vertex 80.3 80.0049 10.3122
      vertex 80 80.0049 10.3122
      vertex 80.3 76 8
    endloop
  endfacet
  facet normal -1 0 0
    outer loop
      vertex 80.3 76 8
      vertex 80.3 76 40
      vertex 80.3 80.0049 10.3122
    endloop
  endfacet
  facet normal -1 0 0
    outer loop
      vertex 80.3 96 34
      vertex 80.3 76 40
      vertex 80.3 101 40
    endloop
  endfacet
  facet normal -1 0 0
    outer loop
      vertex 80.3 99.9951 10.3122
      vertex 80.3 101 40
      vertex 80.3 101 9.73205
    endloop
  endfacet
  facet normal -1 0 0
    outer loop
      vertex 80.3 99.916 11.2934
      vertex 80.3 101 40
      vertex 80.3 99.9951 10.3122
    endloop
  endfacet
  facet normal -1 0 0
    outer loop
      vertex 80.3 99.7408 12.262
      vertex 80.3 101 40
      vertex 80.3 99.916 11.2934
    endloop
  endfacet
  facet normal -1 0 0
    outer loop
      vertex 80.3 99.4712 13.2087
      vertex 80.3 101 40
      vertex 80.3 99.7408 12.262
    endloop
  endfacet
  facet normal -1 0 0
    outer loop
      vertex 80.3 99.1099 14.1243
      vertex 80.3 101 40
      vertex 80.3 99.4712 13.2087
    endloop
  endfacet
  facet normal -1 0 0
    outer loop
      vertex 80.3 98.6603 15
      vertex 80.3 101 40
      vertex 80.3 99.1099 14.1243
    endloop
  endfacet
  facet normal -1 0 0
    outer loop
      vertex 80.3 96 19.6077
      vertex 80.3 101 40
      vertex 80.3 98.6603 15
    endloop
  endfacet
  facet normal -1 0 0
    outer loop
      vertex 80.3 84 34
      vertex 80.3 76 40
      vertex 80.3 96 34
    endloop
  endfacet
  facet normal -1 0 0
    outer loop
      vertex 80.3 80.2592 12.262
      vertex 80.3 84 34
      vertex 80.3 80.5288 13.2087
    endloop
  endfacet
  facet normal -1 0 0
    outer loop
      vertex 80.3 80.2592 12.262
      vertex 80.3 76 40
      vertex 80.3 84 34
    endloop
  endfacet
  facet normal -1 0 0
    outer loop
      vertex 80.3 81.3397 15
      vertex 80.3 84 34
      vertex 80.3 84 19.6077
    endloop
  endfacet
  facet normal -1 0 0
    outer loop
      vertex 80.3 80.8901 14.1243
      vertex 80.3 84 34
      vertex 80.3 81.3397 15
    endloop
  endfacet
  facet normal -1 0 0
    outer loop
      vertex 80.3 80.5288 13.2087
      vertex 80.3 84 34
      vertex 80.3 80.8901 14.1243
    endloop
  endfacet
  facet normal -1 0 0
    outer loop
      vertex 80.3 80.084 11.2934
      vertex 80.3 76 40
      vertex 80.3 80.2592 12.262
    endloop
  endfacet
  facet normal -1 0 0
    outer loop
      vertex 80.3 80.0049 10.3122
      vertex 80.3 76 40
      vertex 80.3 80.084 11.2934
    endloop
  endfacet
  facet normal -1 0 0
    outer loop
      vertex 80.3 96 34
      vertex 80.3 101 40
      vertex 80.3 96 19.6077
    endloop
  endfacet
  facet normal 0 0 1
    outer loop
      vertex 84.2 88.6144 40
      vertex 80.3 76 40
      vertex 89.7 76 40
    endloop
  endfacet
  facet normal 0 0 1
    outer loop
      vertex 86.7 104 40
      vertex 80.3 101 40
      vertex 89.7 101 40
    endloop
  endfacet
  facet normal 0 0 1
    outer loop
      vertex 83.4 90 40
      vertex 84.2 91.3856 40
      vertex 80.3 101 40
    endloop
  endfacet
  facet normal 0 0 1
    outer loop
      vertex 83.3 104 40
      vertex 80.3 101 40
      vertex 86.7 104 40
    endloop
  endfacet
  facet normal 0 0 1
    outer loop
      vertex 83.4 90 40
      vertex 80.3 76 40
      vertex 84.2 88.6144 40
    endloop
  endfacet
  facet normal 0 0 1
    outer loop
      vertex 86.6 90 40
      vertex 85.8 88.6144 40
      vertex 89.7 76 40
    endloop
  endfacet
  facet normal 0 0 1
    outer loop
      vertex 80.3 101 40
      vertex 80.3 76 40
      vertex 83.4 90 40
    endloop
  endfacet
  facet normal 0 0 1
    outer loop
      vertex 89.7 101 40
      vertex 80.3 101 40
      vertex 84.2 91.3856 40
    endloop
  endfacet
  facet normal 0 0 1
    outer loop
      vertex 89.7 101 40
      vertex 84.2 91.3856 40
      vertex 85.8 91.3856 40
    endloop
  endfacet
  facet normal 0 0 1
    outer loop
      vertex 89.7 101 40
      vertex 86.6 90 40
      vertex 89.7 76 40
    endloop
  endfacet
  facet normal 0 0 1
    outer loop
      vertex 89.7 101 40
      vertex 85.8 91.3856 40
      vertex 86.6 90 40
    endloop
  endfacet
  facet normal 0 0 1
    outer loop
      vertex 85.8 88.6144 40
      vertex 84.2 88.6144 40
      vertex 89.7 76 40
    endloop
  endfacet
  facet normal 1 0 0
    outer loop
      vertex 89.7 99.4712 13.2087
      vertex 89.7 99.7408 12.262
      vertex 89.7 96 34
    endloop
  endfacet
  facet normal 1 0 0
    outer loop
      vertex 89.7 76 40
      vertex 89.7 76 8
      vertex 89.7 80.0049 10.3122
    endloop
  endfacet
  facet normal 1 0 0
    outer loop
      vertex 89.7 80.2592 12.262
      vertex 89.7 76 40
      vertex 89.7 80.084 11.2934
    endloop
  endfacet
  facet normal 1 0 0
    outer loop
      vertex 89.7 80.084 11.2934
      vertex 89.7 76 40
      vertex 89.7 80.0049 10.3122
    endloop
  endfacet
  facet normal 1 0 0
    outer loop
      vertex 89.7 80.5288 13.2087
      vertex 89.7 76 40
      vertex 89.7 80.2592 12.262
    endloop
  endfacet
  facet normal 1 0 0
    outer loop
      vertex 89.7 80.8901 14.1243
      vertex 89.7 76 40
      vertex 89.7 80.5288 13.2087
    endloop
  endfacet
  facet normal 1 0 0
    outer loop
      vertex 89.7 81.3397 15
      vertex 89.7 76 40
      vertex 89.7 80.8901 14.1243
    endloop
  endfacet
  facet normal 1 0 0
    outer loop
      vertex 89.7 84 19.6077
      vertex 89.7 76 40
      vertex 89.7 81.3397 15
    endloop
  endfacet
  facet normal 1 0 0
    outer loop
      vertex 89.7 84 34
      vertex 89.7 76 40
      vertex 89.7 84 19.6077
    endloop
  endfacet
  facet normal 1 0 0
    outer loop
      vertex 89.7 96 34
      vertex 89.7 76 40
      vertex 89.7 84 34
    endloop
  endfacet
  facet normal 1 0 0
    outer loop
      vertex 89.7 101 40
      vertex 89.7 76 40
      vertex 89.7 96 34
    endloop
  endfacet
  facet normal 1 0 0
    outer loop
      vertex 89.7 98.6603 15
      vertex 89.7 96 34
      vertex 89.7 96 19.6077
    endloop
  endfacet
  facet normal 1 0 0
    outer loop
      vertex 89.7 99.1099 14.1243
      vertex 89.7 96 34
      vertex 89.7 98.6603 15
    endloop
  endfacet
  facet normal 1 0 0
    outer loop
      vertex 89.7 99.7408 12.262
      vertex 89.7 99.916 11.2934
      vertex 89.7 96 34
    endloop
  endfacet
  facet normal 1 0 0
    outer loop
      vertex 89.7 99.1099 14.1243
      vertex 89.7 99.4712 13.2087
      vertex 89.7 96 34
    endloop
  endfacet
  facet normal 1 0 0
    outer loop
      vertex 89.7 99.916 11.2934
      vertex 89.7 101 9.73205
      vertex 89.7 96 34
    endloop
  endfacet
  facet normal 1 0 0
    outer loop
      vertex 89.7 99.9951 10.3122
      vertex 89.7 101 9.73205
      vertex 89.7 99.916 11.2934
    endloop
  endfacet
  facet normal 1 0 0
    outer loop
      vertex 89.7 101 9.73205
      vertex 89.7 101 40
      vertex 89.7 96 34
    endloop
  endfacet
  facet normal 0 -0.5 0.866025
    outer loop
      vertex 89.7 80.0049 10.3122
      vertex 89.7 76 8
      vertex 93.5 76 8
    endloop
  endfacet
  facet normal 0 -0.5 0.866025
    outer loop
      vertex 90 80.0049 10.3122
      vertex 89.7 80.0049 10.3122
      vertex 93.5 76 8
    endloop
  endfacet
  facet normal -2.51443e-007 -0.5 0.866025
    outer loop
      vertex 90 90 16.0829
      vertex 90 80.0049 10.3122
      vertex 93.5 76 8
    endloop
  endfacet
  facet normal 0 -0.5 0.866025
    outer loop
      vertex 93.5 90 16.0829
      vertex 90 90 16.0829
      vertex 93.5 76 8
    endloop
  endfacet
  facet normal 1 0 0
    outer loop
      vertex 93.5 76 8
      vertex 93.5 76 1e-006
      vertex 93.5 104 -1e-006
    endloop
  endfacet
  facet normal 1 0 0
    outer loop
      vertex 93.5 89.4488 7.05108
      vertex 93.5 88.9163 7.20258
      vertex 93.5 76 8
    endloop
  endfacet
  facet normal 1 0 0
    outer loop
      vertex 93.5 90 7
      vertex 93.5 76 8
      vertex 93.5 104 -1e-006
    endloop
  endfacet
  facet normal 1 0 0
    outer loop
      vertex 93.5 92.3941 8.1921
      vertex 93.5 92.0211 7.78297
      vertex 93.5 104 8
    endloop
  endfacet
  facet normal 1 0 0
    outer loop
      vertex 93.5 87.0128 10.2768
      vertex 93.5 76 8
      vertex 93.5 87.0128 9.72319
    endloop
  endfacet
  facet normal 1 0 0
    outer loop
      vertex 93.5 91.0837 12.7974
      vertex 93.5 91.5793 12.5507
      vertex 93.5 104 8
    endloop
  endfacet
  facet normal 1 0 0
    outer loop
      vertex 93.5 87.1145 10.821
      vertex 93.5 76 8
      vertex 93.5 87.0128 10.2768
    endloop
  endfacet
  facet normal 1 0 0
    outer loop
      vertex 93.5 87.3145 11.3372
      vertex 93.5 76 8
      vertex 93.5 87.1145 10.821
    endloop
  endfacet
  facet normal 1 0 0
    outer loop
      vertex 93.5 90 16.0829
      vertex 93.5 76 8
      vertex 93.5 87.3145 11.3372
    endloop
  endfacet
  facet normal 1 0 0
    outer loop
      vertex 93.5 90 16.0829
      vertex 93.5 87.3145 11.3372
      vertex 93.5 87.6059 11.8079
    endloop
  endfacet
  facet normal 1 0 0
    outer loop
      vertex 93.5 87.9789 7.78297
      vertex 93.5 87.6059 8.1921
      vertex 93.5 76 8
    endloop
  endfacet
  facet normal 1 0 0
    outer loop
      vertex 93.5 92.8855 9.17901
      vertex 93.5 92.6855 8.66278
      vertex 93.5 104 8
    endloop
  endfacet
  facet normal 1 0 0
    outer loop
      vertex 93.5 92.6855 11.3372
      vertex 93.5 92.8855 10.821
      vertex 93.5 104 8
    endloop
  endfacet
  facet normal 1 0 0
    outer loop
      vertex 93.5 90 16.0829
      vertex 93.5 88.4207 12.5507
      vertex 93.5 88.9163 12.7974
    endloop
  endfacet
  facet normal 1 0 0
    outer loop
      vertex 93.5 92.3941 11.8079
      vertex 93.5 92.6855 11.3372
      vertex 93.5 104 8
    endloop
  endfacet
  facet normal 1 0 0
    outer loop
      vertex 93.5 90 16.0829
      vertex 93.5 88.9163 12.7974
      vertex 93.5 89.4488 12.9489
    endloop
  endfacet
  facet normal 1 0 0
    outer loop
      vertex 93.5 92.0211 12.217
      vertex 93.5 92.3941 11.8079
      vertex 93.5 104 8
    endloop
  endfacet
  facet normal 1 0 0
    outer loop
      vertex 93.5 90 16.0829
      vertex 93.5 89.4488 12.9489
      vertex 93.5 90 13
    endloop
  endfacet
  facet normal 1 0 0
    outer loop
      vertex 93.5 91.5793 12.5507
      vertex 93.5 92.0211 12.217
      vertex 93.5 104 8
    endloop
  endfacet
  facet normal 1 0 0
    outer loop
      vertex 93.5 90 16.0829
      vertex 93.5 90 13
      vertex 93.5 90.5512 12.9489
    endloop
  endfacet
  facet normal 1 0 0
    outer loop
      vertex 93.5 90 16.0829
      vertex 93.5 91.0837 12.7974
      vertex 93.5 104 8
    endloop
  endfacet
  facet normal 1 0 0
    outer loop
      vertex 93.5 90 16.0829
      vertex 93.5 90.5512 12.9489
      vertex 93.5 91.0837 12.7974
    endloop
  endfacet
  facet normal 1 0 0
    outer loop
      vertex 93.5 92.8855 10.821
      vertex 93.5 92.9872 10.2768
      vertex 93.5 104 8
    endloop
  endfacet
  facet normal 1 0 0
    outer loop
      vertex 93.5 92.9872 10.2768
      vertex 93.5 92.9872 9.72319
      vertex 93.5 104 8
    endloop
  endfacet
  facet normal 1 0 0
    outer loop
      vertex 93.5 92.9872 9.72319
      vertex 93.5 92.8855 9.17901
      vertex 93.5 104 8
    endloop
  endfacet
  facet normal 1 0 0
    outer loop
      vertex 93.5 87.6059 8.1921
      vertex 93.5 87.3145 8.66279
      vertex 93.5 76 8
    endloop
  endfacet
  facet normal 1 0 0
    outer loop
      vertex 93.5 92.6855 8.66278
      vertex 93.5 92.3941 8.1921
      vertex 93.5 104 8
    endloop
  endfacet
  facet normal 1 0 0
    outer loop
      vertex 93.5 104 8
      vertex 93.5 92.0211 7.78297
      vertex 93.5 104 -1e-006
    endloop
  endfacet
  facet normal 1 0 0
    outer loop
      vertex 93.5 92.0211 7.78297
      vertex 93.5 91.5793 7.44935
      vertex 93.5 104 -1e-006
    endloop
  endfacet
  facet normal 1 0 0
    outer loop
      vertex 93.5 91.5793 7.44935
      vertex 93.5 91.0837 7.20258
      vertex 93.5 104 -1e-006
    endloop
  endfacet
  facet normal 1 0 0
    outer loop
      vertex 93.5 91.0837 7.20258
      vertex 93.5 90.5512 7.05108
      vertex 93.5 104 -1e-006
    endloop
  endfacet
  facet normal 1 0 0
    outer loop
      vertex 93.5 90.5512 7.05108
      vertex 93.5 90 7
      vertex 93.5 104 -1e-006
    endloop
  endfacet
  facet normal 1 0 0
    outer loop
      vertex 93.5 89.4488 7.05108
      vertex 93.5 76 8
      vertex 93.5 90 7
    endloop
  endfacet
  facet normal 1 0 0
    outer loop
      vertex 93.5 88.9163 7.20258
      vertex 93.5 88.4207 7.44935
      vertex 93.5 76 8
    endloop
  endfacet
  facet normal 1 0 0
    outer loop
      vertex 93.5 88.4207 7.44935
      vertex 93.5 87.9789 7.78297
      vertex 93.5 76 8
    endloop
  endfacet
  facet normal 1 0 0
    outer loop
      vertex 93.5 87.1145 9.17901
      vertex 93.5 76 8
      vertex 93.5 87.3145 8.66279
    endloop
  endfacet
  facet normal 1 0 0
    outer loop
      vertex 93.5 87.0128 9.72319
      vertex 93.5 76 8
      vertex 93.5 87.1145 9.17901
    endloop
  endfacet
  facet normal 1 0 0
    outer loop
      vertex 93.5 87.6059 11.8079
      vertex 93.5 87.9789 12.217
      vertex 93.5 90 16.0829
    endloop
  endfacet
  facet normal 1 0 0
    outer loop
      vertex 93.5 87.9789 12.217
      vertex 93.5 88.4207 12.5507
      vertex 93.5 90 16.0829
    endloop
  endfacet
  facet normal 2.04082e-007 -7.14286e-008 -1
    outer loop
      vertex 93.5 76 1e-006
      vertex 90 80 0
      vertex 93.5 104 -1e-006
    endloop
  endfacet
  facet normal -1 0 0
    outer loop
      vertex 90 80 0
      vertex 90 80 10
      vertex 90 100 0
    endloop
  endfacet
  facet normal -1 0 0
    outer loop
      vertex 90 100 0
      vertex 90 80 10
      vertex 90 80.0049 10.3122
    endloop
  endfacet
  facet normal -1 0 0
    outer loop
      vertex 90 88.504 10.5674
      vertex 90 80.0049 10.3122
      vertex 90 90 16.0829
    endloop
  endfacet
  facet normal -1 0 0
    outer loop
      vertex 90 100 0
      vertex 90 90 16.0829
      vertex 90 99.9951 10.3122
    endloop
  endfacet
  facet normal -1 0 0
    outer loop
      vertex 90 100 0
      vertex 90 99.9951 10.3122
      vertex 90 100 10
    endloop
  endfacet
  facet normal -1 0 0
    outer loop
      vertex 90 88.4117 9.80714
      vertex 90 80.0049 10.3122
      vertex 90 88.4117 10.1929
    endloop
  endfacet
  facet normal -1 0 0
    outer loop
      vertex 90 88.504 9.43263
      vertex 90 80.0049 10.3122
      vertex 90 88.4117 9.80714
    endloop
  endfacet
  facet normal -1 0 0
    outer loop
      vertex 90 88.6832 9.0911
      vertex 90 80.0049 10.3122
      vertex 90 88.504 9.43263
    endloop
  endfacet
  facet normal -1 0 0
    outer loop
      vertex 90 88.939 8.80238
      vertex 90 80.0049 10.3122
      vertex 90 88.6832 9.0911
    endloop
  endfacet
  facet normal -1 0 0
    outer loop
      vertex 90 100 0
      vertex 90 80.0049 10.3122
      vertex 90 88.939 8.80238
    endloop
  endfacet
  facet normal -1 0 0
    outer loop
      vertex 90 100 0
      vertex 90 88.939 8.80238
      vertex 90 89.2564 8.58327
    endloop
  endfacet
  facet normal -1 0 0
    outer loop
      vertex 90 90 8.4
      vertex 90 100 0
      vertex 90 89.6171 8.44649
    endloop
  endfacet
  facet normal -1 0 0
    outer loop
      vertex 90 90.3829 8.44649
      vertex 90 100 0
      vertex 90 90 8.4
    endloop
  endfacet
  facet normal -1 0 0
    outer loop
      vertex 90 90.7436 8.58327
      vertex 90 100 0
      vertex 90 90.3829 8.44649
    endloop
  endfacet
  facet normal -1 0 0
    outer loop
      vertex 90 91.3168 10.9089
      vertex 90 90 16.0829
      vertex 90 91.496 10.5674
    endloop
  endfacet
  facet normal -1 0 0
    outer loop
      vertex 90 100 0
      vertex 90 90.7436 8.58327
      vertex 90 91.061 8.80238
    endloop
  endfacet
  facet normal -1 0 0
    outer loop
      vertex 90 100 0
      vertex 90 91.061 8.80238
      vertex 90 91.3168 9.0911
    endloop
  endfacet
  facet normal -1 0 0
    outer loop
      vertex 90 100 0
      vertex 90 91.3168 9.0911
      vertex 90 91.496 9.43263
    endloop
  endfacet
  facet normal -1 0 0
    outer loop
      vertex 90 100 0
      vertex 90 91.496 9.43263
      vertex 90 91.5883 9.80714
    endloop
  endfacet
  facet normal -1 0 0
    outer loop
      vertex 90 100 0
      vertex 90 91.5883 9.80714
      vertex 90 91.5883 10.1929
    endloop
  endfacet
  facet normal -1 0 0
    outer loop
      vertex 90 100 0
      vertex 90 91.5883 10.1929
      vertex 90 91.496 10.5674
    endloop
  endfacet
  facet normal -1 0 0
    outer loop
      vertex 90 100 0
      vertex 90 91.496 10.5674
      vertex 90 90 16.0829
    endloop
  endfacet
  facet normal -1 0 0
    outer loop
      vertex 90 91.061 11.1976
      vertex 90 90 16.0829
      vertex 90 91.3168 10.9089
    endloop
  endfacet
  facet normal -1 0 0
    outer loop
      vertex 90 90.7436 11.4167
      vertex 90 90 16.0829
      vertex 90 91.061 11.1976
    endloop
  endfacet
  facet normal -1 0 0
    outer loop
      vertex 90 90.3829 11.5535
      vertex 90 90 16.0829
      vertex 90 90.7436 11.4167
    endloop
  endfacet
  facet normal -1 0 0
    outer loop
      vertex 90 88.504 10.5674
      vertex 90 90 16.0829
      vertex 90 88.6832 10.9089
    endloop
  endfacet
  facet normal -1 0 0
    outer loop
      vertex 90 90.3829 11.5535
      vertex 90 90 11.6
      vertex 90 90 16.0829
    endloop
  endfacet
  facet normal -1 0 0
    outer loop
      vertex 90 90 11.6
      vertex 90 89.6171 11.5535
      vertex 90 90 16.0829
    endloop
  endfacet
  facet normal -1 0 0
    outer loop
      vertex 90 89.6171 11.5535
      vertex 90 89.2564 11.4167
      vertex 90 90 16.0829
    endloop
  endfacet
  facet normal -1 0 0
    outer loop
      vertex 90 89.2564 11.4167
      vertex 90 88.939 11.1976
      vertex 90 90 16.0829
    endloop
  endfacet
  facet normal -1 0 0
    outer loop
      vertex 90 88.939 11.1976
      vertex 90 88.6832 10.9089
      vertex 90 90 16.0829
    endloop
  endfacet
  facet normal -1 0 0
    outer loop
      vertex 90 88.4117 10.1929
      vertex 90 80.0049 10.3122
      vertex 90 88.504 10.5674
    endloop
  endfacet
  facet normal -1 0 0
    outer loop
      vertex 90 89.6171 8.44649
      vertex 90 100 0
      vertex 90 89.2564 8.58327
    endloop
  endfacet
  facet normal 0 1 0
    outer loop
      vertex 80 80 0
      vertex 80 80 10
      vertex 90 80 0
    endloop
  endfacet
  facet normal 0 1 0
    outer loop
      vertex 90 80 0
      vertex 80 80 10
      vertex 90 80 10
    endloop
  endfacet
  facet normal -2.85714e-007 0 -1
    outer loop
      vertex 93.5 104 -1e-006
      vertex 90 80 0
      vertex 90 100 0
    endloop
  endfacet
  facet normal 1 0 0
    outer loop
      vertex 80 80 10
      vertex 80 80 0
      vertex 80 100 0
    endloop
  endfacet
  facet normal 1 0 0
    outer loop
      vertex 80 90.3829 11.5535
      vertex 80 90.7436 11.4167
      vertex 80 99.9951 10.3122
    endloop
  endfacet
  facet normal 1 0 0
    outer loop
      vertex 80 89.6171 8.44649
      vertex 80 80 10
      vertex 80 100 0
    endloop
  endfacet
  facet normal 1 0 0
    outer loop
      vertex 80 88.504 10.5674
      vertex 80 88.6832 10.9089
      vertex 80 90 16.0829
    endloop
  endfacet
  facet normal 1 0 0
    outer loop
      vertex 80 80.0049 10.3122
      vertex 80 80 10
      vertex 80 90 16.0829
    endloop
  endfacet
  facet normal 1 0 0
    outer loop
      vertex 80 89.6171 8.44649
      vertex 80 89.2564 8.58327
      vertex 80 80 10
    endloop
  endfacet
  facet normal 1 0 0
    outer loop
      vertex 80 88.504 10.5674
      vertex 80 80 10
      vertex 80 88.4117 10.1929
    endloop
  endfacet
  facet normal 1 0 0
    outer loop
      vertex 80 90 16.0829
      vertex 80 80 10
      vertex 80 88.504 10.5674
    endloop
  endfacet
  facet normal 1 0 0
    outer loop
      vertex 80 91.496 10.5674
      vertex 80 91.5883 10.1929
      vertex 80 99.9951 10.3122
    endloop
  endfacet
  facet normal 1 0 0
    outer loop
      vertex 80 91.3168 10.9089
      vertex 80 91.496 10.5674
      vertex 80 99.9951 10.3122
    endloop
  endfacet
  facet normal 1 0 0
    outer loop
      vertex 80 90 16.0829
      vertex 80 88.6832 10.9089
      vertex 80 88.939 11.1976
    endloop
  endfacet
  facet normal 1 0 0
    outer loop
      vertex 80 91.061 11.1976
      vertex 80 91.3168 10.9089
      vertex 80 99.9951 10.3122
    endloop
  endfacet
  facet normal 1 0 0
    outer loop
      vertex 80 90 16.0829
      vertex 80 88.939 11.1976
      vertex 80 89.2564 11.4167
    endloop
  endfacet
  facet normal 1 0 0
    outer loop
      vertex 80 90.7436 11.4167
      vertex 80 91.061 11.1976
      vertex 80 99.9951 10.3122
    endloop
  endfacet
  facet normal 1 0 0
    outer loop
      vertex 80 90 16.0829
      vertex 80 89.2564 11.4167
      vertex 80 89.6171 11.5535
    endloop
  endfacet
  facet normal 1 0 0
    outer loop
      vertex 80 91.5883 10.1929
      vertex 80 91.5883 9.80714
      vertex 80 100 10
    endloop
  endfacet
  facet normal 1 0 0
    outer loop
      vertex 80 90 16.0829
      vertex 80 89.6171 11.5535
      vertex 80 90 11.6
    endloop
  endfacet
  facet normal 1 0 0
    outer loop
      vertex 80 90 16.0829
      vertex 80 90.3829 11.5535
      vertex 80 99.9951 10.3122
    endloop
  endfacet
  facet normal 1 0 0
    outer loop
      vertex 80 90 16.0829
      vertex 80 90 11.6
      vertex 80 90.3829 11.5535
    endloop
  endfacet
  facet normal 1 0 0
    outer loop
      vertex 80 100 10
      vertex 80 91.5883 9.80714
      vertex 80 100 0
    endloop
  endfacet
  facet normal 1 0 0
    outer loop
      vertex 80 91.5883 9.80714
      vertex 80 91.496 9.43263
      vertex 80 100 0
    endloop
  endfacet
  facet normal 1 0 0
    outer loop
      vertex 80 91.496 9.43263
      vertex 80 91.3168 9.0911
      vertex 80 100 0
    endloop
  endfacet
  facet normal 1 0 0
    outer loop
      vertex 80 91.3168 9.0911
      vertex 80 91.061 8.80238
      vertex 80 100 0
    endloop
  endfacet
  facet normal 1 0 0
    outer loop
      vertex 80 91.061 8.80238
      vertex 80 90.7436 8.58327
      vertex 80 100 0
    endloop
  endfacet
  facet normal 1 0 0
    outer loop
      vertex 80 90.7436 8.58327
      vertex 80 90.3829 8.44649
      vertex 80 100 0
    endloop
  endfacet
  facet normal 1 0 0
    outer loop
      vertex 80 90 8.4
      vertex 80 89.6171 8.44649
      vertex 80 100 0
    endloop
  endfacet
  facet normal 1 0 0
    outer loop
      vertex 80 88.939 8.80238
      vertex 80 80 10
      vertex 80 89.2564 8.58327
    endloop
  endfacet
  facet normal 1 0 0
    outer loop
      vertex 80 88.6832 9.0911
      vertex 80 80 10
      vertex 80 88.939 8.80238
    endloop
  endfacet
  facet normal 1 0 0
    outer loop
      vertex 80 88.504 9.43263
      vertex 80 80 10
      vertex 80 88.6832 9.0911
    endloop
  endfacet
  facet normal 1 0 0
    outer loop
      vertex 80 88.4117 9.80714
      vertex 80 80 10
      vertex 80 88.504 9.43263
    endloop
  endfacet
  facet normal 1 0 0
    outer loop
      vertex 80 91.5883 10.1929
      vertex 80 100 10
      vertex 80 99.9951 10.3122
    endloop
  endfacet
  facet normal 1 0 0
    outer loop
      vertex 80 90.3829 8.44649
      vertex 80 90 8.4
      vertex 80 100 0
    endloop
  endfacet
  facet normal 1 0 0
    outer loop
      vertex 80 88.4117 9.80714
      vertex 80 88.4117 10.1929
      vertex 80 80 10
    endloop
  endfacet
  facet normal 0 -1 0
    outer loop
      vertex 80 100 10
      vertex 80 100 0
      vertex 90 100 0
    endloop
  endfacet
  facet normal 0 -1 0
    outer loop
      vertex 90 100 10
      vertex 80 100 10
      vertex 90 100 0
    endloop
  endfacet
  facet normal 0 -2.5e-007 -1
    outer loop
      vertex 76.5 104 -1e-006
      vertex 93.5 104 -1e-006
      vertex 80 100 0
    endloop
  endfacet
  facet normal 0 -2.5e-007 -1
    outer loop
      vertex 80 100 0
      vertex 93.5 104 -1e-006
      vertex 90 100 0
    endloop
  endfacet
  facet normal 0 1 0
    outer loop
      vertex 76.5 104 -1e-006
      vertex 76.5 104 8
      vertex 93.5 104 -1e-006
    endloop
  endfacet
  facet normal 0 1 0
    outer loop
      vertex 93.5 104 -1e-006
      vertex 76.5 104 8
      vertex 83.3 104 8
    endloop
  endfacet
  facet normal 0 1 0
    outer loop
      vertex 86.7 104 8
      vertex 83.3 104 8
      vertex 83.3 104 40
    endloop
  endfacet
  facet normal 0 1 0
    outer loop
      vertex 93.5 104 -1e-006
      vertex 83.3 104 8
      vertex 86.7 104 8
    endloop
  endfacet
  facet normal 0 1 0
    outer loop
      vertex 93.5 104 8
      vertex 93.5 104 -1e-006
      vertex 89.7 104 8
    endloop
  endfacet
  facet normal 0 1 0
    outer loop
      vertex 93.5 104 -1e-006
      vertex 86.7 104 8
      vertex 89.7 104 8
    endloop
  endfacet
  facet normal 0 1 0
    outer loop
      vertex 86.7 104 8
      vertex 83.3 104 40
      vertex 86.7 104 40
    endloop
  endfacet
  facet normal 0 0.5 0.866026
    outer loop
      vertex 83.3 104 8
      vertex 76.5 104 8
      vertex 80.3 101 9.73205
    endloop
  endfacet
  facet normal 2.84912e-007 0.5 0.866025
    outer loop
      vertex 80.3 101 9.73205
      vertex 76.5 104 8
      vertex 80.3 99.9951 10.3122
    endloop
  endfacet
  facet normal 0 0.5 0.866025
    outer loop
      vertex 80.3 99.9951 10.3122
      vertex 76.5 104 8
      vertex 80 99.9951 10.3122
    endloop
  endfacet
  facet normal 3.50586e-007 0.5 0.866025
    outer loop
      vertex 80 99.9951 10.3122
      vertex 76.5 104 8
      vertex 80 90 16.0829
    endloop
  endfacet
  facet normal 0 0.5 0.866025
    outer loop
      vertex 76.5 104 8
      vertex 76.5 90 16.0829
      vertex 80 90 16.0829
    endloop
  endfacet
  facet normal 0 -0.5 0.866025
    outer loop
      vertex 80 90 16.0829
      vertex 76.5 90 16.0829
      vertex 80 80.0049 10.3122
    endloop
  endfacet
  facet normal 0 1 0
    outer loop
      vertex 76.5 87.15 8.35455
      vertex 76.5 87.15 11.6454
      vertex 78 87.15 8.35455
    endloop
  endfacet
  facet normal 0 1 0
    outer loop
      vertex 78 87.15 8.35455
      vertex 76.5 87.15 11.6454
      vertex 78 87.15 11.6454
    endloop
  endfacet
  facet normal 0 0.5 -0.866025
    outer loop
      vertex 76.5 87.15 11.6454
      vertex 76.5 90 13.2909
      vertex 78 87.15 11.6454
    endloop
  endfacet
  facet normal 0 0.5 -0.866025
    outer loop
      vertex 78 87.15 11.6454
      vertex 76.5 90 13.2909
      vertex 78 90 13.2909
    endloop
  endfacet
  facet normal 0 -0.5 -0.866025
    outer loop
      vertex 76.5 90 13.2909
      vertex 76.5 92.85 11.6454
      vertex 78 90 13.2909
    endloop
  endfacet
  facet normal 0 -0.5 -0.866025
    outer loop
      vertex 78 90 13.2909
      vertex 76.5 92.85 11.6454
      vertex 78 92.85 11.6454
    endloop
  endfacet
  facet normal 0 -1 0
    outer loop
      vertex 76.5 92.85 11.6454
      vertex 76.5 92.85 8.35455
      vertex 78 92.85 8.35455
    endloop
  endfacet
  facet normal 0 -1 0
    outer loop
      vertex 78 92.85 11.6454
      vertex 76.5 92.85 11.6454
      vertex 78 92.85 8.35455
    endloop
  endfacet
  facet normal 0 -0.5 0.866025
    outer loop
      vertex 76.5 92.85 8.35455
      vertex 76.5 90 6.7091
      vertex 78 90 6.7091
    endloop
  endfacet
  facet normal 0 -0.5 0.866025
    outer loop
      vertex 78 92.85 8.35455
      vertex 76.5 92.85 8.35455
      vertex 78 90 6.7091
    endloop
  endfacet
  facet normal 0 0.5 0.866025
    outer loop
      vertex 76.5 90 6.7091
      vertex 76.5 87.15 8.35455
      vertex 78 87.15 8.35455
    endloop
  endfacet
  facet normal 0 0.5 0.866025
    outer loop
      vertex 78 90 6.7091
      vertex 76.5 90 6.7091
      vertex 78 87.15 8.35455
    endloop
  endfacet
  facet normal 0 0.999878 -0.0156123
    outer loop
      vertex 80 80 10
      vertex 80 80.0049 10.3122
      vertex 90 80 10
    endloop
  endfacet
  facet normal 0 0.999878 -0.0156123
    outer loop
      vertex 90 80 10
      vertex 80 80.0049 10.3122
      vertex 80.3 80.0049 10.3122
    endloop
  endfacet
  facet normal 0 0.999878 -0.0156123
    outer loop
      vertex 90 80 10
      vertex 80.3 80.0049 10.3122
      vertex 89.7 80.0049 10.3122
    endloop
  endfacet
  facet normal 0 0.999878 -0.0156123
    outer loop
      vertex 90 80 10
      vertex 89.7 80.0049 10.3122
      vertex 90 80.0049 10.3122
    endloop
  endfacet
  facet normal 0 0.996765 -0.0803751
    outer loop
      vertex 80.3 80.0049 10.3122
      vertex 80.3 80.084 11.2934
      vertex 89.7 80.0049 10.3122
    endloop
  endfacet
  facet normal 0 0.996765 -0.0803751
    outer loop
      vertex 89.7 80.0049 10.3122
      vertex 80.3 80.084 11.2934
      vertex 89.7 80.084 11.2934
    endloop
  endfacet
  facet normal 0 0.984033 -0.177987
    outer loop
      vertex 80.3 80.084 11.2934
      vertex 80.3 80.2592 12.262
      vertex 89.7 80.084 11.2934
    endloop
  endfacet
  facet normal 0 0.984033 -0.177987
    outer loop
      vertex 89.7 80.084 11.2934
      vertex 80.3 80.2592 12.262
      vertex 89.7 80.2592 12.262
    endloop
  endfacet
  facet normal 0 0.961768 -0.273865
    outer loop
      vertex 80.3 80.2592 12.262
      vertex 80.3 80.5288 13.2087
      vertex 89.7 80.2592 12.262
    endloop
  endfacet
  facet normal 0 0.961768 -0.273865
    outer loop
      vertex 89.7 80.2592 12.262
      vertex 80.3 80.5288 13.2087
      vertex 89.7 80.5288 13.2087
    endloop
  endfacet
  facet normal 0 0.930183 -0.367097
    outer loop
      vertex 80.3 80.5288 13.2087
      vertex 80.3 80.8901 14.1243
      vertex 89.7 80.5288 13.2087
    endloop
  endfacet
  facet normal 0 0.930183 -0.367097
    outer loop
      vertex 89.7 80.5288 13.2087
      vertex 80.3 80.8901 14.1243
      vertex 89.7 80.8901 14.1243
    endloop
  endfacet
  facet normal 0 0.889583 -0.456774
    outer loop
      vertex 80.3 80.8901 14.1243
      vertex 80.3 81.3397 15
      vertex 89.7 80.8901 14.1243
    endloop
  endfacet
  facet normal 0 0.889583 -0.456774
    outer loop
      vertex 89.7 80.8901 14.1243
      vertex 80.3 81.3397 15
      vertex 89.7 81.3397 15
    endloop
  endfacet
  facet normal 0 0.866025 -0.5
    outer loop
      vertex 80.3 81.3397 15
      vertex 80.3 84 19.6077
      vertex 89.7 81.3397 15
    endloop
  endfacet
  facet normal 0 0.866025 -0.5
    outer loop
      vertex 89.7 81.3397 15
      vertex 80.3 84 19.6077
      vertex 89.7 84 19.6077
    endloop
  endfacet
  facet normal 0 1 0
    outer loop
      vertex 80.3 84 19.6077
      vertex 80.3 84 34
      vertex 89.7 84 19.6077
    endloop
  endfacet
  facet normal 0 1 0
    outer loop
      vertex 89.7 84 19.6077
      vertex 80.3 84 34
      vertex 89.7 84 34
    endloop
  endfacet
  facet normal 0 0 -1
    outer loop
      vertex 80.3 84 34
      vertex 80.3 96 34
      vertex 89.7 84 34
    endloop
  endfacet
  facet normal 0 0 -1
    outer loop
      vertex 89.7 84 34
      vertex 80.3 96 34
      vertex 89.7 96 34
    endloop
  endfacet
  facet normal 0 -1 0
    outer loop
      vertex 80.3 96 34
      vertex 80.3 96 19.6077
      vertex 89.7 96 19.6077
    endloop
  endfacet
  facet normal 0 -1 0
    outer loop
      vertex 89.7 96 34
      vertex 80.3 96 34
      vertex 89.7 96 19.6077
    endloop
  endfacet
  facet normal 0 -0.866025 -0.5
    outer loop
      vertex 89.7 96 19.6077
      vertex 80.3 96 19.6077
      vertex 80.3 98.6603 15
    endloop
  endfacet
  facet normal 0 -0.866025 -0.5
    outer loop
      vertex 89.7 98.6603 15
      vertex 89.7 96 19.6077
      vertex 80.3 98.6603 15
    endloop
  endfacet
  facet normal 0 -0.889583 -0.456774
    outer loop
      vertex 89.7 98.6603 15
      vertex 80.3 98.6603 15
      vertex 80.3 99.1099 14.1243
    endloop
  endfacet
  facet normal 0 -0.889583 -0.456774
    outer loop
      vertex 89.7 99.1099 14.1243
      vertex 89.7 98.6603 15
      vertex 80.3 99.1099 14.1243
    endloop
  endfacet
  facet normal 0 -0.930183 -0.367097
    outer loop
      vertex 89.7 99.1099 14.1243
      vertex 80.3 99.1099 14.1243
      vertex 80.3 99.4712 13.2087
    endloop
  endfacet
  facet normal 0 -0.930183 -0.367097
    outer loop
      vertex 89.7 99.4712 13.2087
      vertex 89.7 99.1099 14.1243
      vertex 80.3 99.4712 13.2087
    endloop
  endfacet
  facet normal 0 -0.961768 -0.273865
    outer loop
      vertex 89.7 99.4712 13.2087
      vertex 80.3 99.4712 13.2087
      vertex 80.3 99.7408 12.262
    endloop
  endfacet
  facet normal 0 -0.961768 -0.273865
    outer loop
      vertex 89.7 99.7408 12.262
      vertex 89.7 99.4712 13.2087
      vertex 80.3 99.7408 12.262
    endloop
  endfacet
  facet normal 0 -0.984033 -0.177987
    outer loop
      vertex 89.7 99.7408 12.262
      vertex 80.3 99.7408 12.262
      vertex 80.3 99.916 11.2934
    endloop
  endfacet
  facet normal 0 -0.984033 -0.177987
    outer loop
      vertex 89.7 99.916 11.2934
      vertex 89.7 99.7408 12.262
      vertex 80.3 99.916 11.2934
    endloop
  endfacet
  facet normal 0 -0.996765 -0.0803751
    outer loop
      vertex 89.7 99.916 11.2934
      vertex 80.3 99.916 11.2934
      vertex 80.3 99.9951 10.3122
    endloop
  endfacet
  facet normal 0 -0.996765 -0.0803751
    outer loop
      vertex 89.7 99.9951 10.3122
      vertex 89.7 99.916 11.2934
      vertex 80.3 99.9951 10.3122
    endloop
  endfacet
  facet normal 0 -0.999878 -0.0156123
    outer loop
      vertex 80.3 99.9951 10.3122
      vertex 80 99.9951 10.3122
      vertex 80 100 10
    endloop
  endfacet
  facet normal 0 -0.999878 -0.0156123
    outer loop
      vertex 89.7 99.9951 10.3122
      vertex 80.3 99.9951 10.3122
      vertex 90 100 10
    endloop
  endfacet
  facet normal 0 -0.999878 -0.0156123
    outer loop
      vertex 90 100 10
      vertex 80.3 99.9951 10.3122
      vertex 80 100 10
    endloop
  endfacet
  facet normal 0 -0.999878 -0.0156123
    outer loop
      vertex 90 99.9951 10.3122
      vertex 89.7 99.9951 10.3122
      vertex 90 100 10
    endloop
  endfacet
  facet normal -0.707107 0.707107 0
    outer loop
      vertex 80.3 101 9.73205
      vertex 80.3 101 40
      vertex 83.3 104 8
    endloop
  endfacet
  facet normal -0.707107 0.707107 0
    outer loop
      vertex 83.3 104 8
      vertex 80.3 101 40
      vertex 83.3 104 40
    endloop
  endfacet
  facet normal 0.707107 0.707107 0
    outer loop
      vertex 86.7 104 8
      vertex 86.7 104 40
      vertex 89.7 101 9.73205
    endloop
  endfacet
  facet normal 0.707107 0.707107 0
    outer loop
      vertex 89.7 101 9.73205
      vertex 86.7 104 40
      vertex 89.7 101 40
    endloop
  endfacet
  facet normal 0.866025 0.5 0
    outer loop
      vertex 83.4 90 40
      vertex 84.2 88.6144 40
      vertex 84.2 88.6144 36.8
    endloop
  endfacet
  facet normal 0.866025 0.5 0
    outer loop
      vertex 83.4 90 36.8
      vertex 83.4 90 40
      vertex 84.2 88.6144 36.8
    endloop
  endfacet
  facet normal 0 1 0
    outer loop
      vertex 85.8 88.6144 40
      vertex 85.8 88.6144 36.8
      vertex 84.2 88.6144 40
    endloop
  endfacet
  facet normal 0 1 0
    outer loop
      vertex 84.2 88.6144 40
      vertex 85.8 88.6144 36.8
      vertex 84.2 88.6144 36.8
    endloop
  endfacet
  facet normal -0.866025 0.5 0
    outer loop
      vertex 86.6 90 40
      vertex 86.6 90 36.8
      vertex 85.8 88.6144 40
    endloop
  endfacet
  facet normal -0.866025 0.5 0
    outer loop
      vertex 85.8 88.6144 40
      vertex 86.6 90 36.8
      vertex 85.8 88.6144 36.8
    endloop
  endfacet
  facet normal -0.866025 -0.5 0
    outer loop
      vertex 86.6 90 40
      vertex 85.8 91.3856 40
      vertex 86.6 90 36.8
    endloop
  endfacet
  facet normal -0.866025 -0.5 0
    outer loop
      vertex 86.6 90 36.8
      vertex 85.8 91.3856 40
      vertex 85.8 91.3856 36.8
    endloop
  endfacet
  facet normal 0 -1 0
    outer loop
      vertex 85.8 91.3856 36.8
      vertex 85.8 91.3856 40
      vertex 84.2 91.3856 40
    endloop
  endfacet
  facet normal 0 -1 0
    outer loop
      vertex 84.2 91.3856 36.8
      vertex 85.8 91.3856 36.8
      vertex 84.2 91.3856 40
    endloop
  endfacet
  facet normal 0.866025 -0.5 0
    outer loop
      vertex 84.2 91.3856 36.8
      vertex 84.2 91.3856 40
      vertex 83.4 90 40
    endloop
  endfacet
  facet normal 0.866025 -0.5 0
    outer loop
      vertex 83.4 90 36.8
      vertex 84.2 91.3856 36.8
      vertex 83.4 90 40
    endloop
  endfacet
  facet normal 0 0.5 0.866026
    outer loop
      vertex 89.7 104 8
      vertex 86.7 104 8
      vertex 89.7 101 9.73205
    endloop
  endfacet
  facet normal -1.20882e-006 0.5 0.866026
    outer loop
      vertex 89.7 104 8
      vertex 89.7 101 9.73205
      vertex 90 99.9951 10.3122
    endloop
  endfacet
  facet normal 0 0.5 0.866025
    outer loop
      vertex 89.7 101 9.73205
      vertex 89.7 99.9951 10.3122
      vertex 90 99.9951 10.3122
    endloop
  endfacet
  facet normal 0 0.5 0.866025
    outer loop
      vertex 90 99.9951 10.3122
      vertex 90 90 16.0829
      vertex 93.5 90 16.0829
    endloop
  endfacet
  facet normal -1.11309e-006 0.5 0.866026
    outer loop
      vertex 93.5 90 16.0829
      vertex 89.7 104 8
      vertex 90 99.9951 10.3122
    endloop
  endfacet
  facet normal 0 0.5 0.866025
    outer loop
      vertex 93.5 104 8
      vertex 89.7 104 8
      vertex 93.5 90 16.0829
    endloop
  endfacet
  facet normal 0 1 0
    outer loop
      vertex 92 87.0128 9.72319
      vertex 92 87.0128 10.2768
      vertex 93.5 87.0128 9.72319
    endloop
  endfacet
  facet normal 0 1 0
    outer loop
      vertex 93.5 87.0128 9.72319
      vertex 92 87.0128 10.2768
      vertex 93.5 87.0128 10.2768
    endloop
  endfacet
  facet normal 0 0.982971 0.183759
    outer loop
      vertex 92 87.0128 9.72319
      vertex 93.5 87.0128 9.72319
      vertex 92 87.1145 9.17901
    endloop
  endfacet
  facet normal 0 0.982971 0.183759
    outer loop
      vertex 92 87.1145 9.17901
      vertex 93.5 87.0128 9.72319
      vertex 93.5 87.1145 9.17901
    endloop
  endfacet
  facet normal 0 0.932475 0.361234
    outer loop
      vertex 92 87.1145 9.17901
      vertex 93.5 87.1145 9.17901
      vertex 92 87.3145 8.66279
    endloop
  endfacet
  facet normal 0 0.932475 0.361234
    outer loop
      vertex 92 87.3145 8.66279
      vertex 93.5 87.1145 9.17901
      vertex 93.5 87.3145 8.66279
    endloop
  endfacet
  facet normal 0 0.850215 0.526436
    outer loop
      vertex 92 87.3145 8.66279
      vertex 93.5 87.3145 8.66279
      vertex 92 87.6059 8.1921
    endloop
  endfacet
  facet normal 0 0.850215 0.526436
    outer loop
      vertex 92 87.6059 8.1921
      vertex 93.5 87.3145 8.66279
      vertex 93.5 87.6059 8.1921
    endloop
  endfacet
  facet normal 0 0.739011 0.673694
    outer loop
      vertex 92 87.6059 8.1921
      vertex 93.5 87.6059 8.1921
      vertex 92 87.9789 7.78297
    endloop
  endfacet
  facet normal 0 0.739011 0.673694
    outer loop
      vertex 92 87.9789 7.78297
      vertex 93.5 87.6059 8.1921
      vertex 93.5 87.9789 7.78297
    endloop
  endfacet
  facet normal 0 0.602629 0.798021
    outer loop
      vertex 92 88.4207 7.44935
      vertex 92 87.9789 7.78297
      vertex 93.5 87.9789 7.78297
    endloop
  endfacet
  facet normal 0 0.602629 0.798021
    outer loop
      vertex 93.5 88.4207 7.44935
      vertex 92 88.4207 7.44935
      vertex 93.5 87.9789 7.78297
    endloop
  endfacet
  facet normal 0 0.445743 0.895161
    outer loop
      vertex 92 88.9163 7.20258
      vertex 92 88.4207 7.44935
      vertex 93.5 88.4207 7.44935
    endloop
  endfacet
  facet normal 0 0.445743 0.895161
    outer loop
      vertex 93.5 88.9163 7.20258
      vertex 92 88.9163 7.20258
      vertex 93.5 88.4207 7.44935
    endloop
  endfacet
  facet normal 0 0.273661 0.961826
    outer loop
      vertex 92 89.4488 7.05108
      vertex 92 88.9163 7.20258
      vertex 93.5 88.9163 7.20258
    endloop
  endfacet
  facet normal 0 0.273661 0.961826
    outer loop
      vertex 93.5 89.4488 7.05108
      vertex 92 89.4488 7.05108
      vertex 93.5 88.9163 7.20258
    endloop
  endfacet
  facet normal 0 0.0922692 0.995734
    outer loop
      vertex 92 90 7
      vertex 92 89.4488 7.05108
      vertex 93.5 89.4488 7.05108
    endloop
  endfacet
  facet normal 0 0.0922692 0.995734
    outer loop
      vertex 93.5 90 7
      vertex 92 90 7
      vertex 93.5 89.4488 7.05108
    endloop
  endfacet
  facet normal 0 -0.0922692 0.995734
    outer loop
      vertex 92 90.5512 7.05108
      vertex 92 90 7
      vertex 93.5 90 7
    endloop
  endfacet
  facet normal 0 -0.0922692 0.995734
    outer loop
      vertex 93.5 90.5512 7.05108
      vertex 92 90.5512 7.05108
      vertex 93.5 90 7
    endloop
  endfacet
  facet normal 0 -0.273661 0.961826
    outer loop
      vertex 92 91.0837 7.20258
      vertex 92 90.5512 7.05108
      vertex 93.5 90.5512 7.05108
    endloop
  endfacet
  facet normal 0 -0.273661 0.961826
    outer loop
      vertex 93.5 91.0837 7.20258
      vertex 92 91.0837 7.20258
      vertex 93.5 90.5512 7.05108
    endloop
  endfacet
  facet normal 0 -0.445743 0.895161
    outer loop
      vertex 92 91.5793 7.44935
      vertex 92 91.0837 7.20258
      vertex 93.5 91.0837 7.20258
    endloop
  endfacet
  facet normal 0 -0.445743 0.895161
    outer loop
      vertex 93.5 91.5793 7.44935
      vertex 92 91.5793 7.44935
      vertex 93.5 91.0837 7.20258
    endloop
  endfacet
  facet normal 0 -0.602629 0.798021
    outer loop
      vertex 92 92.0211 7.78297
      vertex 92 91.5793 7.44935
      vertex 93.5 91.5793 7.44935
    endloop
  endfacet
  facet normal 0 -0.602629 0.798021
    outer loop
      vertex 93.5 92.0211 7.78297
      vertex 92 92.0211 7.78297
      vertex 93.5 91.5793 7.44935
    endloop
  endfacet
  facet normal 0 -0.739011 0.673694
    outer loop
      vertex 92 92.3941 8.1921
      vertex 92 92.0211 7.78297
      vertex 93.5 92.0211 7.78297
    endloop
  endfacet
  facet normal 0 -0.739011 0.673694
    outer loop
      vertex 93.5 92.3941 8.1921
      vertex 92 92.3941 8.1921
      vertex 93.5 92.0211 7.78297
    endloop
  endfacet
  facet normal 0 -0.850214 0.526437
    outer loop
      vertex 92 92.6855 8.66278
      vertex 92 92.3941 8.1921
      vertex 93.5 92.3941 8.1921
    endloop
  endfacet
  facet normal 0 -0.850214 0.526437
    outer loop
      vertex 93.5 92.6855 8.66278
      vertex 92 92.6855 8.66278
      vertex 93.5 92.3941 8.1921
    endloop
  endfacet
  facet normal 0 -0.932475 0.361234
    outer loop
      vertex 92 92.8855 9.17901
      vertex 92 92.6855 8.66278
      vertex 93.5 92.6855 8.66278
    endloop
  endfacet
  facet normal 0 -0.932475 0.361234
    outer loop
      vertex 93.5 92.8855 9.17901
      vertex 92 92.8855 9.17901
      vertex 93.5 92.6855 8.66278
    endloop
  endfacet
  facet normal 0 -0.982971 0.183759
    outer loop
      vertex 92 92.9872 9.72319
      vertex 92 92.8855 9.17901
      vertex 93.5 92.8855 9.17901
    endloop
  endfacet
  facet normal 0 -0.982971 0.183759
    outer loop
      vertex 93.5 92.9872 9.72319
      vertex 92 92.9872 9.72319
      vertex 93.5 92.8855 9.17901
    endloop
  endfacet
  facet normal 0 -1 0
    outer loop
      vertex 92 92.9872 10.2768
      vertex 92 92.9872 9.72319
      vertex 93.5 92.9872 9.72319
    endloop
  endfacet
  facet normal 0 -1 0
    outer loop
      vertex 93.5 92.9872 10.2768
      vertex 92 92.9872 10.2768
      vertex 93.5 92.9872 9.72319
    endloop
  endfacet
  facet normal 0 -0.982971 -0.183759
    outer loop
      vertex 93.5 92.8855 10.821
      vertex 92 92.8855 10.821
      vertex 92 92.9872 10.2768
    endloop
  endfacet
  facet normal 0 -0.982971 -0.183759
    outer loop
      vertex 93.5 92.9872 10.2768
      vertex 93.5 92.8855 10.821
      vertex 92 92.9872 10.2768
    endloop
  endfacet
  facet normal 0 -0.932475 -0.361234
    outer loop
      vertex 93.5 92.6855 11.3372
      vertex 92 92.6855 11.3372
      vertex 92 92.8855 10.821
    endloop
  endfacet
  facet normal 0 -0.932475 -0.361234
    outer loop
      vertex 93.5 92.8855 10.821
      vertex 93.5 92.6855 11.3372
      vertex 92 92.8855 10.821
    endloop
  endfacet
  facet normal 0 -0.850215 -0.526436
    outer loop
      vertex 93.5 92.3941 11.8079
      vertex 92 92.3941 11.8079
      vertex 92 92.6855 11.3372
    endloop
  endfacet
  facet normal 0 -0.850215 -0.526436
    outer loop
      vertex 93.5 92.6855 11.3372
      vertex 93.5 92.3941 11.8079
      vertex 92 92.6855 11.3372
    endloop
  endfacet
  facet normal 0 -0.739011 -0.673694
    outer loop
      vertex 93.5 92.0211 12.217
      vertex 92 92.0211 12.217
      vertex 92 92.3941 11.8079
    endloop
  endfacet
  facet normal 0 -0.739011 -0.673694
    outer loop
      vertex 93.5 92.3941 11.8079
      vertex 93.5 92.0211 12.217
      vertex 92 92.3941 11.8079
    endloop
  endfacet
  facet normal 0 -0.602629 -0.798021
    outer loop
      vertex 92 91.5793 12.5507
      vertex 92 92.0211 12.217
      vertex 93.5 91.5793 12.5507
    endloop
  endfacet
  facet normal 0 -0.602629 -0.798021
    outer loop
      vertex 93.5 91.5793 12.5507
      vertex 92 92.0211 12.217
      vertex 93.5 92.0211 12.217
    endloop
  endfacet
  facet normal 0 -0.445743 -0.895161
    outer loop
      vertex 92 91.0837 12.7974
      vertex 92 91.5793 12.5507
      vertex 93.5 91.0837 12.7974
    endloop
  endfacet
  facet normal 0 -0.445743 -0.895161
    outer loop
      vertex 93.5 91.0837 12.7974
      vertex 92 91.5793 12.5507
      vertex 93.5 91.5793 12.5507
    endloop
  endfacet
  facet normal 0 -0.273661 -0.961826
    outer loop
      vertex 92 90.5512 12.9489
      vertex 92 91.0837 12.7974
      vertex 93.5 90.5512 12.9489
    endloop
  endfacet
  facet normal 0 -0.273661 -0.961826
    outer loop
      vertex 93.5 90.5512 12.9489
      vertex 92 91.0837 12.7974
      vertex 93.5 91.0837 12.7974
    endloop
  endfacet
  facet normal 0 -0.0922692 -0.995734
    outer loop
      vertex 92 90 13
      vertex 92 90.5512 12.9489
      vertex 93.5 90 13
    endloop
  endfacet
  facet normal 0 -0.0922692 -0.995734
    outer loop
      vertex 93.5 90 13
      vertex 92 90.5512 12.9489
      vertex 93.5 90.5512 12.9489
    endloop
  endfacet
  facet normal 0 0.0922692 -0.995734
    outer loop
      vertex 92 89.4488 12.9489
      vertex 92 90 13
      vertex 93.5 89.4488 12.9489
    endloop
  endfacet
  facet normal 0 0.0922692 -0.995734
    outer loop
      vertex 93.5 89.4488 12.9489
      vertex 92 90 13
      vertex 93.5 90 13
    endloop
  endfacet
  facet normal 0 0.273661 -0.961826
    outer loop
      vertex 92 88.9163 12.7974
      vertex 92 89.4488 12.9489
      vertex 93.5 88.9163 12.7974
    endloop
  endfacet
  facet normal 0 0.273661 -0.961826
    outer loop
      vertex 93.5 88.9163 12.7974
      vertex 92 89.4488 12.9489
      vertex 93.5 89.4488 12.9489
    endloop
  endfacet
  facet normal 0 0.445743 -0.895161
    outer loop
      vertex 92 88.4207 12.5507
      vertex 92 88.9163 12.7974
      vertex 93.5 88.4207 12.5507
    endloop
  endfacet
  facet normal 0 0.445743 -0.895161
    outer loop
      vertex 93.5 88.4207 12.5507
      vertex 92 88.9163 12.7974
      vertex 93.5 88.9163 12.7974
    endloop
  endfacet
  facet normal 0 0.602629 -0.798021
    outer loop
      vertex 92 87.9789 12.217
      vertex 92 88.4207 12.5507
      vertex 93.5 87.9789 12.217
    endloop
  endfacet
  facet normal 0 0.602629 -0.798021
    outer loop
      vertex 93.5 87.9789 12.217
      vertex 92 88.4207 12.5507
      vertex 93.5 88.4207 12.5507
    endloop
  endfacet
  facet normal 0 0.739011 -0.673694
    outer loop
      vertex 92 87.6059 11.8079
      vertex 92 87.9789 12.217
      vertex 93.5 87.6059 11.8079
    endloop
  endfacet
  facet normal 0 0.739011 -0.673694
    outer loop
      vertex 93.5 87.6059 11.8079
      vertex 92 87.9789 12.217
      vertex 93.5 87.9789 12.217
    endloop
  endfacet
  facet normal 0 0.850214 -0.526437
    outer loop
      vertex 92 87.3145 11.3372
      vertex 92 87.6059 11.8079
      vertex 93.5 87.3145 11.3372
    endloop
  endfacet
  facet normal 0 0.850214 -0.526437
    outer loop
      vertex 93.5 87.3145 11.3372
      vertex 92 87.6059 11.8079
      vertex 93.5 87.6059 11.8079
    endloop
  endfacet
  facet normal 0 0.932475 -0.361234
    outer loop
      vertex 92 87.1145 10.821
      vertex 92 87.3145 11.3372
      vertex 93.5 87.1145 10.821
    endloop
  endfacet
  facet normal 0 0.932475 -0.361234
    outer loop
      vertex 93.5 87.1145 10.821
      vertex 92 87.3145 11.3372
      vertex 93.5 87.3145 11.3372
    endloop
  endfacet
  facet normal 0 0.982971 -0.183759
    outer loop
      vertex 92 87.0128 10.2768
      vertex 92 87.1145 10.821
      vertex 93.5 87.0128 10.2768
    endloop
  endfacet
  facet normal 0 0.982971 -0.183759
    outer loop
      vertex 93.5 87.0128 10.2768
      vertex 92 87.1145 10.821
      vertex 93.5 87.1145 10.821
    endloop
  endfacet
  facet normal 0 1 0
    outer loop
      vertex 90 88.4117 9.80714
      vertex 90 88.4117 10.1929
      vertex 92 88.4117 9.80714
    endloop
  endfacet
  facet normal 0 1 0
    outer loop
      vertex 92 88.4117 9.80714
      vertex 90 88.4117 10.1929
      vertex 92 88.4117 10.1929
    endloop
  endfacet
  facet normal 0 0.970942 -0.239315
    outer loop
      vertex 90 88.4117 10.1929
      vertex 90 88.504 10.5674
      vertex 92 88.4117 10.1929
    endloop
  endfacet
  facet normal 0 0.970942 -0.239315
    outer loop
      vertex 92 88.4117 10.1929
      vertex 90 88.504 10.5674
      vertex 92 88.504 10.5674
    endloop
  endfacet
  facet normal 0 0.885455 -0.464725
    outer loop
      vertex 90 88.504 10.5674
      vertex 90 88.6832 10.9089
      vertex 92 88.504 10.5674
    endloop
  endfacet
  facet normal 0 0.885455 -0.464725
    outer loop
      vertex 92 88.504 10.5674
      vertex 90 88.6832 10.9089
      vertex 92 88.6832 10.9089
    endloop
  endfacet
  facet normal 0 0.748514 -0.663119
    outer loop
      vertex 90 88.6832 10.9089
      vertex 90 88.939 11.1976
      vertex 92 88.6832 10.9089
    endloop
  endfacet
  facet normal 0 0.748514 -0.663119
    outer loop
      vertex 92 88.6832 10.9089
      vertex 90 88.939 11.1976
      vertex 92 88.939 11.1976
    endloop
  endfacet
  facet normal 0 0.56807 -0.822981
    outer loop
      vertex 90 88.939 11.1976
      vertex 90 89.2564 11.4167
      vertex 92 88.939 11.1976
    endloop
  endfacet
  facet normal 0 0.56807 -0.822981
    outer loop
      vertex 92 88.939 11.1976
      vertex 90 89.2564 11.4167
      vertex 92 89.2564 11.4167
    endloop
  endfacet
  facet normal 0 0.3546 -0.935018
    outer loop
      vertex 90 89.2564 11.4167
      vertex 90 89.6171 11.5535
      vertex 92 89.2564 11.4167
    endloop
  endfacet
  facet normal 0 0.3546 -0.935018
    outer loop
      vertex 92 89.2564 11.4167
      vertex 90 89.6171 11.5535
      vertex 92 89.6171 11.5535
    endloop
  endfacet
  facet normal 0 0.120537 -0.992709
    outer loop
      vertex 90 89.6171 11.5535
      vertex 90 90 11.6
      vertex 92 89.6171 11.5535
    endloop
  endfacet
  facet normal 0 0.120537 -0.992709
    outer loop
      vertex 92 89.6171 11.5535
      vertex 90 90 11.6
      vertex 92 90 11.6
    endloop
  endfacet
  facet normal 0 -0.120537 -0.992709
    outer loop
      vertex 90 90 11.6
      vertex 90 90.3829 11.5535
      vertex 92 90 11.6
    endloop
  endfacet
  facet normal 0 -0.120537 -0.992709
    outer loop
      vertex 92 90 11.6
      vertex 90 90.3829 11.5535
      vertex 92 90.3829 11.5535
    endloop
  endfacet
  facet normal 0 -0.3546 -0.935018
    outer loop
      vertex 90 90.3829 11.5535
      vertex 90 90.7436 11.4167
      vertex 92 90.3829 11.5535
    endloop
  endfacet
  facet normal 0 -0.3546 -0.935018
    outer loop
      vertex 92 90.3829 11.5535
      vertex 90 90.7436 11.4167
      vertex 92 90.7436 11.4167
    endloop
  endfacet
  facet normal 0 -0.56807 -0.822981
    outer loop
      vertex 90 90.7436 11.4167
      vertex 90 91.061 11.1976
      vertex 92 90.7436 11.4167
    endloop
  endfacet
  facet normal 0 -0.56807 -0.822981
    outer loop
      vertex 92 90.7436 11.4167
      vertex 90 91.061 11.1976
      vertex 92 91.061 11.1976
    endloop
  endfacet
  facet normal 0 -0.748515 -0.663118
    outer loop
      vertex 92 91.061 11.1976
      vertex 90 91.061 11.1976
      vertex 90 91.3168 10.9089
    endloop
  endfacet
  facet normal 0 -0.748515 -0.663118
    outer loop
      vertex 92 91.3168 10.9089
      vertex 92 91.061 11.1976
      vertex 90 91.3168 10.9089
    endloop
  endfacet
  facet normal 0 -0.885454 -0.464726
    outer loop
      vertex 92 91.3168 10.9089
      vertex 90 91.3168 10.9089
      vertex 90 91.496 10.5674
    endloop
  endfacet
  facet normal 0 -0.885454 -0.464726
    outer loop
      vertex 92 91.496 10.5674
      vertex 92 91.3168 10.9089
      vertex 90 91.496 10.5674
    endloop
  endfacet
  facet normal 0 -0.970942 -0.239315
    outer loop
      vertex 92 91.496 10.5674
      vertex 90 91.496 10.5674
      vertex 90 91.5883 10.1929
    endloop
  endfacet
  facet normal 0 -0.970942 -0.239315
    outer loop
      vertex 92 91.5883 10.1929
      vertex 92 91.496 10.5674
      vertex 90 91.5883 10.1929
    endloop
  endfacet
  facet normal 0 -1 0
    outer loop
      vertex 90 91.5883 10.1929
      vertex 90 91.5883 9.80714
      vertex 92 91.5883 9.80714
    endloop
  endfacet
  facet normal 0 -1 0
    outer loop
      vertex 92 91.5883 10.1929
      vertex 90 91.5883 10.1929
      vertex 92 91.5883 9.80714
    endloop
  endfacet
  facet normal 0 -0.970942 0.239315
    outer loop
      vertex 90 91.5883 9.80714
      vertex 90 91.496 9.43263
      vertex 92 91.496 9.43263
    endloop
  endfacet
  facet normal 0 -0.970942 0.239315
    outer loop
      vertex 92 91.5883 9.80714
      vertex 90 91.5883 9.80714
      vertex 92 91.496 9.43263
    endloop
  endfacet
  facet normal 0 -0.885455 0.464725
    outer loop
      vertex 90 91.496 9.43263
      vertex 90 91.3168 9.0911
      vertex 92 91.3168 9.0911
    endloop
  endfacet
  facet normal 0 -0.885455 0.464725
    outer loop
      vertex 92 91.496 9.43263
      vertex 90 91.496 9.43263
      vertex 92 91.3168 9.0911
    endloop
  endfacet
  facet normal 0 -0.748514 0.663119
    outer loop
      vertex 90 91.3168 9.0911
      vertex 90 91.061 8.80238
      vertex 92 91.061 8.80238
    endloop
  endfacet
  facet normal 0 -0.748514 0.663119
    outer loop
      vertex 92 91.3168 9.0911
      vertex 90 91.3168 9.0911
      vertex 92 91.061 8.80238
    endloop
  endfacet
  facet normal 0 -0.56807 0.822981
    outer loop
      vertex 90 91.061 8.80238
      vertex 90 90.7436 8.58327
      vertex 92 90.7436 8.58327
    endloop
  endfacet
  facet normal 0 -0.56807 0.822981
    outer loop
      vertex 92 91.061 8.80238
      vertex 90 91.061 8.80238
      vertex 92 90.7436 8.58327
    endloop
  endfacet
  facet normal 0 -0.3546 0.935018
    outer loop
      vertex 90 90.7436 8.58327
      vertex 90 90.3829 8.44649
      vertex 92 90.3829 8.44649
    endloop
  endfacet
  facet normal 0 -0.3546 0.935018
    outer loop
      vertex 92 90.7436 8.58327
      vertex 90 90.7436 8.58327
      vertex 92 90.3829 8.44649
    endloop
  endfacet
  facet normal 0 -0.120537 0.992709
    outer loop
      vertex 90 90.3829 8.44649
      vertex 90 90 8.4
      vertex 92 90 8.4
    endloop
  endfacet
  facet normal 0 -0.120537 0.992709
    outer loop
      vertex 92 90.3829 8.44649
      vertex 90 90.3829 8.44649
      vertex 92 90 8.4
    endloop
  endfacet
  facet normal 0 0.120537 0.992709
    outer loop
      vertex 90 90 8.4
      vertex 90 89.6171 8.44649
      vertex 92 89.6171 8.44649
    endloop
  endfacet
  facet normal 0 0.120537 0.992709
    outer loop
      vertex 92 90 8.4
      vertex 90 90 8.4
      vertex 92 89.6171 8.44649
    endloop
  endfacet
  facet normal 0 0.3546 0.935018
    outer loop
      vertex 90 89.6171 8.44649
      vertex 90 89.2564 8.58327
      vertex 92 89.2564 8.58327
    endloop
  endfacet
  facet normal 0 0.3546 0.935018
    outer loop
      vertex 92 89.6171 8.44649
      vertex 90 89.6171 8.44649
      vertex 92 89.2564 8.58327
    endloop
  endfacet
  facet normal 0 0.56807 0.822981
    outer loop
      vertex 90 89.2564 8.58327
      vertex 90 88.939 8.80238
      vertex 92 88.939 8.80238
    endloop
  endfacet
  facet normal 0 0.56807 0.822981
    outer loop
      vertex 92 89.2564 8.58327
      vertex 90 89.2564 8.58327
      vertex 92 88.939 8.80238
    endloop
  endfacet
  facet normal 0 0.748515 0.663118
    outer loop
      vertex 90 88.6832 9.0911
      vertex 92 88.6832 9.0911
      vertex 90 88.939 8.80238
    endloop
  endfacet
  facet normal 0 0.748515 0.663118
    outer loop
      vertex 90 88.939 8.80238
      vertex 92 88.6832 9.0911
      vertex 92 88.939 8.80238
    endloop
  endfacet
  facet normal 0 0.885454 0.464726
    outer loop
      vertex 90 88.504 9.43263
      vertex 92 88.504 9.43263
      vertex 90 88.6832 9.0911
    endloop
  endfacet
  facet normal 0 0.885454 0.464726
    outer loop
      vertex 90 88.6832 9.0911
      vertex 92 88.504 9.43263
      vertex 92 88.6832 9.0911
    endloop
  endfacet
  facet normal 0 0.970942 0.239315
    outer loop
      vertex 90 88.4117 9.80714
      vertex 92 88.4117 9.80714
      vertex 90 88.504 9.43263
    endloop
  endfacet
  facet normal 0 0.970942 0.239315
    outer loop
      vertex 90 88.504 9.43263
      vertex 92 88.4117 9.80714
      vertex 92 88.504 9.43263
    endloop
  endfacet
  facet normal 0 1 0
    outer loop
      vertex 78 88.4117 9.80714
      vertex 78 88.4117 10.1929
      vertex 80 88.4117 9.80714
    endloop
  endfacet
  facet normal 0 1 0
    outer loop
      vertex 80 88.4117 9.80714
      vertex 78 88.4117 10.1929
      vertex 80 88.4117 10.1929
    endloop
  endfacet
  facet normal 0 0.970942 0.239315
    outer loop
      vertex 78 88.4117 9.80714
      vertex 80 88.4117 9.80714
      vertex 78 88.504 9.43263
    endloop
  endfacet
  facet normal 0 0.970942 0.239315
    outer loop
      vertex 78 88.504 9.43263
      vertex 80 88.4117 9.80714
      vertex 80 88.504 9.43263
    endloop
  endfacet
  facet normal 0 0.885454 0.464726
    outer loop
      vertex 78 88.504 9.43263
      vertex 80 88.504 9.43263
      vertex 78 88.6832 9.0911
    endloop
  endfacet
  facet normal 0 0.885454 0.464726
    outer loop
      vertex 78 88.6832 9.0911
      vertex 80 88.504 9.43263
      vertex 80 88.6832 9.0911
    endloop
  endfacet
  facet normal 0 0.748515 0.663118
    outer loop
      vertex 78 88.6832 9.0911
      vertex 80 88.6832 9.0911
      vertex 78 88.939 8.80238
    endloop
  endfacet
  facet normal 0 0.748515 0.663118
    outer loop
      vertex 78 88.939 8.80238
      vertex 80 88.6832 9.0911
      vertex 80 88.939 8.80238
    endloop
  endfacet
  facet normal 0 0.56807 0.822981
    outer loop
      vertex 78 89.2564 8.58327
      vertex 78 88.939 8.80238
      vertex 80 88.939 8.80238
    endloop
  endfacet
  facet normal 0 0.56807 0.822981
    outer loop
      vertex 80 89.2564 8.58327
      vertex 78 89.2564 8.58327
      vertex 80 88.939 8.80238
    endloop
  endfacet
  facet normal 0 0.3546 0.935018
    outer loop
      vertex 78 89.6171 8.44649
      vertex 78 89.2564 8.58327
      vertex 80 89.2564 8.58327
    endloop
  endfacet
  facet normal 0 0.3546 0.935018
    outer loop
      vertex 80 89.6171 8.44649
      vertex 78 89.6171 8.44649
      vertex 80 89.2564 8.58327
    endloop
  endfacet
  facet normal 0 0.120537 0.992709
    outer loop
      vertex 78 90 8.4
      vertex 78 89.6171 8.44649
      vertex 80 89.6171 8.44649
    endloop
  endfacet
  facet normal 0 0.120537 0.992709
    outer loop
      vertex 80 90 8.4
      vertex 78 90 8.4
      vertex 80 89.6171 8.44649
    endloop
  endfacet
  facet normal 0 -0.120537 0.992709
    outer loop
      vertex 78 90.3829 8.44649
      vertex 78 90 8.4
      vertex 80 90 8.4
    endloop
  endfacet
  facet normal 0 -0.120537 0.992709
    outer loop
      vertex 80 90.3829 8.44649
      vertex 78 90.3829 8.44649
      vertex 80 90 8.4
    endloop
  endfacet
  facet normal 0 -0.3546 0.935018
    outer loop
      vertex 78 90.7436 8.58327
      vertex 78 90.3829 8.44649
      vertex 80 90.3829 8.44649
    endloop
  endfacet
  facet normal 0 -0.3546 0.935018
    outer loop
      vertex 80 90.7436 8.58327
      vertex 78 90.7436 8.58327
      vertex 80 90.3829 8.44649
    endloop
  endfacet
  facet normal 0 -0.56807 0.822981
    outer loop
      vertex 78 91.061 8.80238
      vertex 78 90.7436 8.58327
      vertex 80 90.7436 8.58327
    endloop
  endfacet
  facet normal 0 -0.56807 0.822981
    outer loop
      vertex 80 91.061 8.80238
      vertex 78 91.061 8.80238
      vertex 80 90.7436 8.58327
    endloop
  endfacet
  facet normal 0 -0.748514 0.663119
    outer loop
      vertex 78 91.3168 9.0911
      vertex 78 91.061 8.80238
      vertex 80 91.061 8.80238
    endloop
  endfacet
  facet normal 0 -0.748514 0.663119
    outer loop
      vertex 80 91.3168 9.0911
      vertex 78 91.3168 9.0911
      vertex 80 91.061 8.80238
    endloop
  endfacet
  facet normal 0 -0.885455 0.464725
    outer loop
      vertex 78 91.496 9.43263
      vertex 78 91.3168 9.0911
      vertex 80 91.3168 9.0911
    endloop
  endfacet
  facet normal 0 -0.885455 0.464725
    outer loop
      vertex 80 91.496 9.43263
      vertex 78 91.496 9.43263
      vertex 80 91.3168 9.0911
    endloop
  endfacet
  facet normal 0 -0.970942 0.239315
    outer loop
      vertex 78 91.5883 9.80714
      vertex 78 91.496 9.43263
      vertex 80 91.496 9.43263
    endloop
  endfacet
  facet normal 0 -0.970942 0.239315
    outer loop
      vertex 80 91.5883 9.80714
      vertex 78 91.5883 9.80714
      vertex 80 91.496 9.43263
    endloop
  endfacet
  facet normal 0 -1 0
    outer loop
      vertex 78 91.5883 10.1929
      vertex 78 91.5883 9.80714
      vertex 80 91.5883 9.80714
    endloop
  endfacet
  facet normal 0 -1 0
    outer loop
      vertex 80 91.5883 10.1929
      vertex 78 91.5883 10.1929
      vertex 80 91.5883 9.80714
    endloop
  endfacet
  facet normal 0 -0.970942 -0.239315
    outer loop
      vertex 80 91.496 10.5674
      vertex 78 91.496 10.5674
      vertex 78 91.5883 10.1929
    endloop
  endfacet
  facet normal 0 -0.970942 -0.239315
    outer loop
      vertex 80 91.5883 10.1929
      vertex 80 91.496 10.5674
      vertex 78 91.5883 10.1929
    endloop
  endfacet
  facet normal 0 -0.885454 -0.464726
    outer loop
      vertex 80 91.3168 10.9089
      vertex 78 91.3168 10.9089
      vertex 78 91.496 10.5674
    endloop
  endfacet
  facet normal 0 -0.885454 -0.464726
    outer loop
      vertex 80 91.496 10.5674
      vertex 80 91.3168 10.9089
      vertex 78 91.496 10.5674
    endloop
  endfacet
  facet normal 0 -0.748515 -0.663118
    outer loop
      vertex 80 91.061 11.1976
      vertex 78 91.061 11.1976
      vertex 78 91.3168 10.9089
    endloop
  endfacet
  facet normal 0 -0.748515 -0.663118
    outer loop
      vertex 80 91.3168 10.9089
      vertex 80 91.061 11.1976
      vertex 78 91.3168 10.9089
    endloop
  endfacet
  facet normal 0 -0.56807 -0.822981
    outer loop
      vertex 78 90.7436 11.4167
      vertex 78 91.061 11.1976
      vertex 80 90.7436 11.4167
    endloop
  endfacet
  facet normal 0 -0.56807 -0.822981
    outer loop
      vertex 80 90.7436 11.4167
      vertex 78 91.061 11.1976
      vertex 80 91.061 11.1976
    endloop
  endfacet
  facet normal 0 -0.3546 -0.935018
    outer loop
      vertex 78 90.3829 11.5535
      vertex 78 90.7436 11.4167
      vertex 80 90.3829 11.5535
    endloop
  endfacet
  facet normal 0 -0.3546 -0.935018
    outer loop
      vertex 80 90.3829 11.5535
      vertex 78 90.7436 11.4167
      vertex 80 90.7436 11.4167
    endloop
  endfacet
  facet normal 0 -0.120537 -0.992709
    outer loop
      vertex 78 90 11.6
      vertex 78 90.3829 11.5535
      vertex 80 90 11.6
    endloop
  endfacet
  facet normal 0 -0.120537 -0.992709
    outer loop
      vertex 80 90 11.6
      vertex 78 90.3829 11.5535
      vertex 80 90.3829 11.5535
    endloop
  endfacet
  facet normal 0 0.120537 -0.992709
    outer loop
      vertex 78 89.6171 11.5535
      vertex 78 90 11.6
      vertex 80 89.6171 11.5535
    endloop
  endfacet
  facet normal 0 0.120537 -0.992709
    outer loop
      vertex 80 89.6171 11.5535
      vertex 78 90 11.6
      vertex 80 90 11.6
    endloop
  endfacet
  facet normal 0 0.3546 -0.935018
    outer loop
      vertex 78 89.2564 11.4167
      vertex 78 89.6171 11.5535
      vertex 80 89.2564 11.4167
    endloop
  endfacet
  facet normal 0 0.3546 -0.935018
    outer loop
      vertex 80 89.2564 11.4167
      vertex 78 89.6171 11.5535
      vertex 80 89.6171 11.5535
    endloop
  endfacet
  facet normal 0 0.56807 -0.822981
    outer loop
      vertex 78 88.939 11.1976
      vertex 78 89.2564 11.4167
      vertex 80 88.939 11.1976
    endloop
  endfacet
  facet normal 0 0.56807 -0.822981
    outer loop
      vertex 80 88.939 11.1976
      vertex 78 89.2564 11.4167
      vertex 80 89.2564 11.4167
    endloop
  endfacet
  facet normal 0 0.748514 -0.663119
    outer loop
      vertex 78 88.6832 10.9089
      vertex 78 88.939 11.1976
      vertex 80 88.6832 10.9089
    endloop
  endfacet
  facet normal 0 0.748514 -0.663119
    outer loop
      vertex 80 88.6832 10.9089
      vertex 78 88.939 11.1976
      vertex 80 88.939 11.1976
    endloop
  endfacet
  facet normal 0 0.885455 -0.464725
    outer loop
      vertex 78 88.504 10.5674
      vertex 78 88.6832 10.9089
      vertex 80 88.504 10.5674
    endloop
  endfacet
  facet normal 0 0.885455 -0.464725
    outer loop
      vertex 80 88.504 10.5674
      vertex 78 88.6832 10.9089
      vertex 80 88.6832 10.9089
    endloop
  endfacet
  facet normal 0 0.970942 -0.239315
    outer loop
      vertex 78 88.4117 10.1929
      vertex 78 88.504 10.5674
      vertex 80 88.4117 10.1929
    endloop
  endfacet
  facet normal 0 0.970942 -0.239315
    outer loop
      vertex 80 88.4117 10.1929
      vertex 78 88.504 10.5674
      vertex 80 88.504 10.5674
    endloop
  endfacet
  facet normal -1 0 0
    outer loop
      vertex 78 87.15 8.35455
      vertex 78 87.15 11.6454
      vertex 78 90 6.7091
    endloop
  endfacet
  facet normal -1 0 0
    outer loop
      vertex 78 88.6832 10.9089
      vertex 78 87.15 11.6454
      vertex 78 90 13.2909
    endloop
  endfacet
  facet normal -1 0 0
    outer loop
      vertex 78 91.3168 10.9089
      vertex 78 90 13.2909
      vertex 78 92.85 11.6454
    endloop
  endfacet
  facet normal -1 0 0
    outer loop
      vertex 78 90 6.7091
      vertex 78 92.85 11.6454
      vertex 78 92.85 8.35455
    endloop
  endfacet
  facet normal -1 0 0
    outer loop
      vertex 78 88.4117 9.80714
      vertex 78 87.15 11.6454
      vertex 78 88.4117 10.1929
    endloop
  endfacet
  facet normal -1 0 0
    outer loop
      vertex 78 88.504 9.43263
      vertex 78 87.15 11.6454
      vertex 78 88.4117 9.80714
    endloop
  endfacet
  facet normal -1 0 0
    outer loop
      vertex 78 88.6832 9.0911
      vertex 78 87.15 11.6454
      vertex 78 88.504 9.43263
    endloop
  endfacet
  facet normal -1 0 0
    outer loop
      vertex 78 90 6.7091
      vertex 78 87.15 11.6454
      vertex 78 88.6832 9.0911
    endloop
  endfacet
  facet normal -1 0 0
    outer loop
      vertex 78 89.2564 8.58327
      vertex 78 90 6.7091
      vertex 78 88.939 8.80238
    endloop
  endfacet
  facet normal -1 0 0
    outer loop
      vertex 78 91.5883 9.80714
      vertex 78 92.85 11.6454
      vertex 78 91.496 9.43263
    endloop
  endfacet
  facet normal -1 0 0
    outer loop
      vertex 78 90 6.7091
      vertex 78 89.2564 8.58327
      vertex 78 89.6171 8.44649
    endloop
  endfacet
  facet normal -1 0 0
    outer loop
      vertex 78 90 6.7091
      vertex 78 89.6171 8.44649
      vertex 78 90 8.4
    endloop
  endfacet
  facet normal -1 0 0
    outer loop
      vertex 78 90 6.7091
      vertex 78 90 8.4
      vertex 78 90.3829 8.44649
    endloop
  endfacet
  facet normal -1 0 0
    outer loop
      vertex 78 90 6.7091
      vertex 78 90.3829 8.44649
      vertex 78 90.7436 8.58327
    endloop
  endfacet
  facet normal -1 0 0
    outer loop
      vertex 78 90 6.7091
      vertex 78 90.7436 8.58327
      vertex 78 91.061 8.80238
    endloop
  endfacet
  facet normal -1 0 0
    outer loop
      vertex 78 90 6.7091
      vertex 78 91.061 8.80238
      vertex 78 91.3168 9.0911
    endloop
  endfacet
  facet normal -1 0 0
    outer loop
      vertex 78 90 6.7091
      vertex 78 91.3168 9.0911
      vertex 78 92.85 11.6454
    endloop
  endfacet
  facet normal -1 0 0
    outer loop
      vertex 78 91.3168 9.0911
      vertex 78 91.496 9.43263
      vertex 78 92.85 11.6454
    endloop
  endfacet
  facet normal -1 0 0
    outer loop
      vertex 78 91.5883 10.1929
      vertex 78 92.85 11.6454
      vertex 78 91.5883 9.80714
    endloop
  endfacet
  facet normal -1 0 0
    outer loop
      vertex 78 91.496 10.5674
      vertex 78 92.85 11.6454
      vertex 78 91.5883 10.1929
    endloop
  endfacet
  facet normal -1 0 0
    outer loop
      vertex 78 89.6171 11.5535
      vertex 78 90 13.2909
      vertex 78 90 11.6
    endloop
  endfacet
  facet normal -1 0 0
    outer loop
      vertex 78 91.061 11.1976
      vertex 78 90 13.2909
      vertex 78 91.3168 10.9089
    endloop
  endfacet
  facet normal -1 0 0
    outer loop
      vertex 78 91.496 10.5674
      vertex 78 91.3168 10.9089
      vertex 78 92.85 11.6454
    endloop
  endfacet
  facet normal -1 0 0
    outer loop
      vertex 78 90.7436 11.4167
      vertex 78 90 13.2909
      vertex 78 91.061 11.1976
    endloop
  endfacet
  facet normal -1 0 0
    outer loop
      vertex 78 90.3829 11.5535
      vertex 78 90 13.2909
      vertex 78 90.7436 11.4167
    endloop
  endfacet
  facet normal -1 0 0
    outer loop
      vertex 78 90 11.6
      vertex 78 90 13.2909
      vertex 78 90.3829 11.5535
    endloop
  endfacet
  facet normal -1 0 0
    outer loop
      vertex 78 88.6832 10.9089
      vertex 78 90 13.2909
      vertex 78 88.939 11.1976
    endloop
  endfacet
  facet normal -1 0 0
    outer loop
      vertex 78 89.6171 11.5535
      vertex 78 89.2564 11.4167
      vertex 78 90 13.2909
    endloop
  endfacet
  facet normal -1 0 0
    outer loop
      vertex 78 89.2564 11.4167
      vertex 78 88.939 11.1976
      vertex 78 90 13.2909
    endloop
  endfacet
  facet normal -1 0 0
    outer loop
      vertex 78 88.504 10.5674
      vertex 78 87.15 11.6454
      vertex 78 88.6832 10.9089
    endloop
  endfacet
  facet normal -1 0 0
    outer loop
      vertex 78 88.4117 10.1929
      vertex 78 87.15 11.6454
      vertex 78 88.504 10.5674
    endloop
  endfacet
  facet normal -1 0 0
    outer loop
      vertex 78 88.939 8.80238
      vertex 78 90 6.7091
      vertex 78 88.6832 9.0911
    endloop
  endfacet
  facet normal 0 0 -1
    outer loop
      vertex 84.2 91.3856 36.8
      vertex 83.4 92.7713 36.8
      vertex 85.8 91.3856 36.8
    endloop
  endfacet
  facet normal 0 0 -1
    outer loop
      vertex 86.6 90 36.8
      vertex 88.2 90 36.8
      vertex 86.6 87.2287 36.8
    endloop
  endfacet
  facet normal 0 0 -1
    outer loop
      vertex 84.2 88.6144 36.8
      vertex 86.6 87.2287 36.8
      vertex 83.4 87.2287 36.8
    endloop
  endfacet
  facet normal 0 0 -1
    outer loop
      vertex 83.4 90 36.8
      vertex 83.4 87.2287 36.8
      vertex 81.8 90 36.8
    endloop
  endfacet
  facet normal 0 0 -1
    outer loop
      vertex 85.8 88.6144 36.8
      vertex 86.6 87.2287 36.8
      vertex 84.2 88.6144 36.8
    endloop
  endfacet
  facet normal 0 0 -1
    outer loop
      vertex 85.8 91.3856 36.8
      vertex 88.2 90 36.8
      vertex 86.6 90 36.8
    endloop
  endfacet
  facet normal 0 0 -1
    outer loop
      vertex 86.6 92.7713 36.8
      vertex 88.2 90 36.8
      vertex 85.8 91.3856 36.8
    endloop
  endfacet
  facet normal 0 0 -1
    outer loop
      vertex 86.6 92.7713 36.8
      vertex 85.8 91.3856 36.8
      vertex 83.4 92.7713 36.8
    endloop
  endfacet
  facet normal 0 0 -1
    outer loop
      vertex 83.4 90 36.8
      vertex 83.4 92.7713 36.8
      vertex 84.2 91.3856 36.8
    endloop
  endfacet
  facet normal 0 0 -1
    outer loop
      vertex 84.2 88.6144 36.8
      vertex 83.4 87.2287 36.8
      vertex 83.4 90 36.8
    endloop
  endfacet
  facet normal 0 0 -1
    outer loop
      vertex 83.4 92.7713 36.8
      vertex 83.4 90 36.8
      vertex 81.8 90 36.8
    endloop
  endfacet
  facet normal 0 0 -1
    outer loop
      vertex 86.6 90 36.8
      vertex 86.6 87.2287 36.8
      vertex 85.8 88.6144 36.8
    endloop
  endfacet
  facet normal 1 0 0
    outer loop
      vertex 92 87.0128 10.2768
      vertex 92 87.0128 9.72319
      vertex 92 87.1145 9.17901
    endloop
  endfacet
  facet normal 1 0 0
    outer loop
      vertex 92 87.6059 8.1921
      vertex 92 87.0128 10.2768
      vertex 92 87.3145 8.66279
    endloop
  endfacet
  facet normal 1 0 0
    outer loop
      vertex 92 87.3145 8.66279
      vertex 92 87.0128 10.2768
      vertex 92 87.1145 9.17901
    endloop
  endfacet
  facet normal 1 0 0
    outer loop
      vertex 92 87.9789 7.78297
      vertex 92 87.0128 10.2768
      vertex 92 87.6059 8.1921
    endloop
  endfacet
  facet normal 1 0 0
    outer loop
      vertex 92 88.4207 7.44935
      vertex 92 87.0128 10.2768
      vertex 92 87.9789 7.78297
    endloop
  endfacet
  facet normal 1 0 0
    outer loop
      vertex 92 88.9163 7.20258
      vertex 92 87.0128 10.2768
      vertex 92 88.4207 7.44935
    endloop
  endfacet
  facet normal 1 0 0
    outer loop
      vertex 92 89.4488 7.05108
      vertex 92 87.0128 10.2768
      vertex 92 88.9163 7.20258
    endloop
  endfacet
  facet normal 1 0 0
    outer loop
      vertex 92 90 7
      vertex 92 87.0128 10.2768
      vertex 92 89.4488 7.05108
    endloop
  endfacet
  facet normal 1 0 0
    outer loop
      vertex 92 90.5512 7.05108
      vertex 92 87.0128 10.2768
      vertex 92 90 7
    endloop
  endfacet
  facet normal 1 0 0
    outer loop
      vertex 92 88.939 8.80238
      vertex 92 87.0128 10.2768
      vertex 92 90.5512 7.05108
    endloop
  endfacet
  facet normal 1 0 0
    outer loop
      vertex 92 88.939 8.80238
      vertex 92 88.6832 9.0911
      vertex 92 87.0128 10.2768
    endloop
  endfacet
  facet normal 1 0 0
    outer loop
      vertex 92 89.2564 8.58327
      vertex 92 88.939 8.80238
      vertex 92 91.0837 7.20258
    endloop
  endfacet
  facet normal 1 0 0
    outer loop
      vertex 92 88.4117 10.1929
      vertex 92 88.504 10.5674
      vertex 92 87.0128 10.2768
    endloop
  endfacet
  facet normal 1 0 0
    outer loop
      vertex 92 88.939 11.1976
      vertex 92 89.2564 11.4167
      vertex 92 87.0128 10.2768
    endloop
  endfacet
  facet normal 1 0 0
    outer loop
      vertex 92 91.061 11.1976
      vertex 92 91.3168 10.9089
      vertex 92 92.6855 11.3372
    endloop
  endfacet
  facet normal 1 0 0
    outer loop
      vertex 92 89.2564 11.4167
      vertex 92 89.6171 11.5535
      vertex 92 91.5793 12.5507
    endloop
  endfacet
  facet normal 1 0 0
    outer loop
      vertex 92 90.5512 12.9489
      vertex 92 87.0128 10.2768
      vertex 92 91.0837 12.7974
    endloop
  endfacet
  facet normal 1 0 0
    outer loop
      vertex 92 90 13
      vertex 92 87.0128 10.2768
      vertex 92 90.5512 12.9489
    endloop
  endfacet
  facet normal 1 0 0
    outer loop
      vertex 92 89.4488 12.9489
      vertex 92 87.0128 10.2768
      vertex 92 90 13
    endloop
  endfacet
  facet normal 1 0 0
    outer loop
      vertex 92 88.9163 12.7974
      vertex 92 87.0128 10.2768
      vertex 92 89.4488 12.9489
    endloop
  endfacet
  facet normal 1 0 0
    outer loop
      vertex 92 88.4207 12.5507
      vertex 92 87.0128 10.2768
      vertex 92 88.9163 12.7974
    endloop
  endfacet
  facet normal 1 0 0
    outer loop
      vertex 92 87.9789 12.217
      vertex 92 87.0128 10.2768
      vertex 92 88.4207 12.5507
    endloop
  endfacet
  facet normal 1 0 0
    outer loop
      vertex 92 87.6059 11.8079
      vertex 92 87.0128 10.2768
      vertex 92 87.9789 12.217
    endloop
  endfacet
  facet normal 1 0 0
    outer loop
      vertex 92 87.3145 11.3372
      vertex 92 87.0128 10.2768
      vertex 92 87.6059 11.8079
    endloop
  endfacet
  facet normal 1 0 0
    outer loop
      vertex 92 87.1145 10.821
      vertex 92 87.0128 10.2768
      vertex 92 87.3145 11.3372
    endloop
  endfacet
  facet normal 1 0 0
    outer loop
      vertex 92 90.7436 8.58327
      vertex 92 90.3829 8.44649
      vertex 92 92.0211 7.78297
    endloop
  endfacet
  facet normal 1 0 0
    outer loop
      vertex 92 91.5883 9.80714
      vertex 92 91.496 9.43263
      vertex 92 92.8855 9.17901
    endloop
  endfacet
  facet normal 1 0 0
    outer loop
      vertex 92 91.3168 10.9089
      vertex 92 91.496 10.5674
      vertex 92 92.8855 10.821
    endloop
  endfacet
  facet normal 1 0 0
    outer loop
      vertex 92 88.6832 10.9089
      vertex 92 88.939 11.1976
      vertex 92 87.0128 10.2768
    endloop
  endfacet
  facet normal 1 0 0
    outer loop
      vertex 92 91.496 10.5674
      vertex 92 91.5883 10.1929
      vertex 92 92.9872 10.2768
    endloop
  endfacet
  facet normal 1 0 0
    outer loop
      vertex 92 90.7436 11.4167
      vertex 92 91.061 11.1976
      vertex 92 92.3941 11.8079
    endloop
  endfacet
  facet normal 1 0 0
    outer loop
      vertex 92 90 11.6
      vertex 92 90.3829 11.5535
      vertex 92 92.0211 12.217
    endloop
  endfacet
  facet normal 1 0 0
    outer loop
      vertex 92 91.0837 12.7974
      vertex 92 89.2564 11.4167
      vertex 92 91.5793 12.5507
    endloop
  endfacet
  facet normal 1 0 0
    outer loop
      vertex 92 91.0837 12.7974
      vertex 92 87.0128 10.2768
      vertex 92 89.2564 11.4167
    endloop
  endfacet
  facet normal 1 0 0
    outer loop
      vertex 92 89.6171 11.5535
      vertex 92 90 11.6
      vertex 92 91.5793 12.5507
    endloop
  endfacet
  facet normal 1 0 0
    outer loop
      vertex 92 91.5793 12.5507
      vertex 92 90 11.6
      vertex 92 92.0211 12.217
    endloop
  endfacet
  facet normal 1 0 0
    outer loop
      vertex 92 92.0211 12.217
      vertex 92 90.3829 11.5535
      vertex 92 92.3941 11.8079
    endloop
  endfacet
  facet normal 1 0 0
    outer loop
      vertex 92 90.3829 11.5535
      vertex 92 90.7436 11.4167
      vertex 92 92.3941 11.8079
    endloop
  endfacet
  facet normal 1 0 0
    outer loop
      vertex 92 92.3941 11.8079
      vertex 92 91.061 11.1976
      vertex 92 92.6855 11.3372
    endloop
  endfacet
  facet normal 1 0 0
    outer loop
      vertex 92 92.6855 11.3372
      vertex 92 91.3168 10.9089
      vertex 92 92.8855 10.821
    endloop
  endfacet
  facet normal 1 0 0
    outer loop
      vertex 92 88.504 10.5674
      vertex 92 88.6832 10.9089
      vertex 92 87.0128 10.2768
    endloop
  endfacet
  facet normal 1 0 0
    outer loop
      vertex 92 92.8855 10.821
      vertex 92 91.496 10.5674
      vertex 92 92.9872 10.2768
    endloop
  endfacet
  facet normal 1 0 0
    outer loop
      vertex 92 92.9872 10.2768
      vertex 92 91.5883 10.1929
      vertex 92 92.9872 9.72319
    endloop
  endfacet
  facet normal 1 0 0
    outer loop
      vertex 92 92.9872 9.72319
      vertex 92 91.5883 9.80714
      vertex 92 92.8855 9.17901
    endloop
  endfacet
  facet normal 1 0 0
    outer loop
      vertex 92 92.8855 9.17901
      vertex 92 91.496 9.43263
      vertex 92 92.6855 8.66278
    endloop
  endfacet
  facet normal 1 0 0
    outer loop
      vertex 92 90.3829 8.44649
      vertex 92 90 8.4
      vertex 92 91.5793 7.44935
    endloop
  endfacet
  facet normal 1 0 0
    outer loop
      vertex 92 91.496 9.43263
      vertex 92 91.3168 9.0911
      vertex 92 92.6855 8.66278
    endloop
  endfacet
  facet normal 1 0 0
    outer loop
      vertex 92 91.5883 10.1929
      vertex 92 91.5883 9.80714
      vertex 92 92.9872 9.72319
    endloop
  endfacet
  facet normal 1 0 0
    outer loop
      vertex 92 92.6855 8.66278
      vertex 92 91.061 8.80238
      vertex 92 92.3941 8.1921
    endloop
  endfacet
  facet normal 1 0 0
    outer loop
      vertex 92 92.3941 8.1921
      vertex 92 90.7436 8.58327
      vertex 92 92.0211 7.78297
    endloop
  endfacet
  facet normal 1 0 0
    outer loop
      vertex 92 91.3168 9.0911
      vertex 92 91.061 8.80238
      vertex 92 92.6855 8.66278
    endloop
  endfacet
  facet normal 1 0 0
    outer loop
      vertex 92 92.0211 7.78297
      vertex 92 90.3829 8.44649
      vertex 92 91.5793 7.44935
    endloop
  endfacet
  facet normal 1 0 0
    outer loop
      vertex 92 91.5793 7.44935
      vertex 92 90 8.4
      vertex 92 91.0837 7.20258
    endloop
  endfacet
  facet normal 1 0 0
    outer loop
      vertex 92 90 8.4
      vertex 92 89.6171 8.44649
      vertex 92 91.0837 7.20258
    endloop
  endfacet
  facet normal 1 0 0
    outer loop
      vertex 92 89.6171 8.44649
      vertex 92 89.2564 8.58327
      vertex 92 91.0837 7.20258
    endloop
  endfacet
  facet normal 1 0 0
    outer loop
      vertex 92 91.0837 7.20258
      vertex 92 88.939 8.80238
      vertex 92 90.5512 7.05108
    endloop
  endfacet
  facet normal 1 0 0
    outer loop
      vertex 92 88.6832 9.0911
      vertex 92 88.504 9.43263
      vertex 92 87.0128 10.2768
    endloop
  endfacet
  facet normal 1 0 0
    outer loop
      vertex 92 91.061 8.80238
      vertex 92 90.7436 8.58327
      vertex 92 92.3941 8.1921
    endloop
  endfacet
  facet normal 1 0 0
    outer loop
      vertex 92 88.504 9.43263
      vertex 92 88.4117 9.80714
      vertex 92 87.0128 10.2768
    endloop
  endfacet
  facet normal 1 0 0
    outer loop
      vertex 92 88.4117 9.80714
      vertex 92 88.4117 10.1929
      vertex 92 87.0128 10.2768
    endloop
  endfacet
  facet normal 0 -1 0
    outer loop
      vertex 86.6 92.7713 34.2
      vertex 86.6 92.7713 36.8
      vertex 83.4 92.7713 36.8
    endloop
  endfacet
  facet normal 0 -1 0
    outer loop
      vertex 83.4 92.7713 34.2
      vertex 86.6 92.7713 34.2
      vertex 83.4 92.7713 36.8
    endloop
  endfacet
  facet normal 0.866025 -0.5 0
    outer loop
      vertex 83.4 92.7713 34.2
      vertex 83.4 92.7713 36.8
      vertex 81.8 90 36.8
    endloop
  endfacet
  facet normal 0.866025 -0.5 0
    outer loop
      vertex 81.8 90 34.2
      vertex 83.4 92.7713 34.2
      vertex 81.8 90 36.8
    endloop
  endfacet
  facet normal 0.866025 0.5 0
    outer loop
      vertex 81.8 90 36.8
      vertex 83.4 87.2287 36.8
      vertex 83.4 87.2287 34.2
    endloop
  endfacet
  facet normal 0.866025 0.5 0
    outer loop
      vertex 81.8 90 34.2
      vertex 81.8 90 36.8
      vertex 83.4 87.2287 34.2
    endloop
  endfacet
  facet normal 0 1 0
    outer loop
      vertex 86.6 87.2287 36.8
      vertex 86.6 87.2287 34.2
      vertex 83.4 87.2287 36.8
    endloop
  endfacet
  facet normal 0 1 0
    outer loop
      vertex 83.4 87.2287 36.8
      vertex 86.6 87.2287 34.2
      vertex 83.4 87.2287 34.2
    endloop
  endfacet
  facet normal -0.866025 0.5 0
    outer loop
      vertex 88.2 90 36.8
      vertex 88.2 90 34.2
      vertex 86.6 87.2287 36.8
    endloop
  endfacet
  facet normal -0.866025 0.5 0
    outer loop
      vertex 86.6 87.2287 36.8
      vertex 88.2 90 34.2
      vertex 86.6 87.2287 34.2
    endloop
  endfacet
  facet normal -0.866025 -0.5 0
    outer loop
      vertex 88.2 90 36.8
      vertex 86.6 92.7713 36.8
      vertex 88.2 90 34.2
    endloop
  endfacet
  facet normal -0.866025 -0.5 0
    outer loop
      vertex 88.2 90 34.2
      vertex 86.6 92.7713 36.8
      vertex 86.6 92.7713 34.2
    endloop
  endfacet
  facet normal 0 0 1
    outer loop
      vertex 83.4 87.2287 34.2
      vertex 86.6 87.2287 34.2
      vertex 88.2 90 34.2
    endloop
  endfacet
  facet normal 0 0 1
    outer loop
      vertex 83.4 92.7713 34.2
      vertex 83.4 87.2287 34.2
      vertex 86.6 92.7713 34.2
    endloop
  endfacet
  facet normal 0 0 1
    outer loop
      vertex 86.6 92.7713 34.2
      vertex 83.4 87.2287 34.2
      vertex 88.2 90 34.2
    endloop
  endfacet
  facet normal 0 0 1
    outer loop
      vertex 81.8 90 34.2
      vertex 83.4 87.2287 34.2
      vertex 83.4 92.7713 34.2
    endloop
  endfacet
endsolid OpenSCAD_Model
