solid OpenSCAD_Model
  facet normal -1 0 0
    outer loop
      vertex 0 0 0
      vertex 0 0 12
      vertex 0 23 0
    endloop
  endfacet
  facet normal -1 0 0
    outer loop
      vertex 0 23 0
      vertex 0 0 12
      vertex 0 23 12
    endloop
  endfacet
  facet normal 0 -1 0
    outer loop
      vertex 0 0 12
      vertex 0 0 0
      vertex 48 0 0
    endloop
  endfacet
  facet normal 0 -1 0
    outer loop
      vertex 48 0 12
      vertex 0 0 12
      vertex 48 0 0
    endloop
  endfacet
  facet normal 0 0 -1
    outer loop
      vertex 0 0 0
      vertex 0 23 0
      vertex 48 0 0
    endloop
  endfacet
  facet normal 0 0 -1
    outer loop
      vertex 48 0 0
      vertex 0 23 0
      vertex 48 23 0
    endloop
  endfacet
  facet normal 0 1 0
    outer loop
      vertex 0 23 0
      vertex 0 23 12
      vertex 48 23 0
    endloop
  endfacet
  facet normal 0 1 0
    outer loop
      vertex 48 23 0
      vertex 0 23 12
      vertex 48 23 12
    endloop
  endfacet
  facet normal 0 0 1
    outer loop
      vertex 5 5 12
      vertex 0 0 12
      vertex 48 0 12
    endloop
  endfacet
  facet normal 0 0 1
    outer loop
      vertex 11 5 12
      vertex 5 5 12
      vertex 48 0 12
    endloop
  endfacet
  facet normal 0 0 1
    outer loop
      vertex 0 23 12
      vertex 0 0 12
      vertex 5 5 12
    endloop
  endfacet
  facet normal 0 0 1
    outer loop
      vertex 41 5 12
      vertex 35 5 12
      vertex 48 0 12
    endloop
  endfacet
  facet normal 0 0 1
    outer loop
      vertex 0 23 12
      vertex 5 5 12
      vertex 5 18 12
    endloop
  endfacet
  facet normal 0 0 1
    outer loop
      vertex 48 23 12
      vertex 0 23 12
      vertex 11 18 12
    endloop
  endfacet
  facet normal 0 0 1
    outer loop
      vertex 20 5 12
      vertex 11 5 12
      vertex 48 0 12
    endloop
  endfacet
  facet normal 0 0 1
    outer loop
      vertex 26 5 12
      vertex 20 5 12
      vertex 48 0 12
    endloop
  endfacet
  facet normal 0 0 1
    outer loop
      vertex 35 5 12
      vertex 35 18 12
      vertex 26 18 12
    endloop
  endfacet
  facet normal 0 0 1
    outer loop
      vertex 48 23 12
      vertex 11 18 12
      vertex 20 18 12
    endloop
  endfacet
  facet normal 0 0 1
    outer loop
      vertex 48 23 12
      vertex 20 18 12
      vertex 26 18 12
    endloop
  endfacet
  facet normal 0 0 1
    outer loop
      vertex 35 5 12
      vertex 26 5 12
      vertex 48 0 12
    endloop
  endfacet
  facet normal 0 0 1
    outer loop
      vertex 20 5 12
      vertex 20 18 12
      vertex 11 18 12
    endloop
  endfacet
  facet normal 0 0 1
    outer loop
      vertex 48 23 12
      vertex 26 18 12
      vertex 35 18 12
    endloop
  endfacet
  facet normal 0 0 1
    outer loop
      vertex 48 23 12
      vertex 41 18 12
      vertex 48 0 12
    endloop
  endfacet
  facet normal 0 0 1
    outer loop
      vertex 48 23 12
      vertex 35 18 12
      vertex 41 18 12
    endloop
  endfacet
  facet normal 0 0 1
    outer loop
      vertex 41 18 12
      vertex 41 5 12
      vertex 48 0 12
    endloop
  endfacet
  facet normal 0 0 1
    outer loop
      vertex 5 18 12
      vertex 11 18 12
      vertex 0 23 12
    endloop
  endfacet
  facet normal 0 0 1
    outer loop
      vertex 26 18 12
      vertex 26 5 12
      vertex 35 5 12
    endloop
  endfacet
  facet normal 0 0 1
    outer loop
      vertex 11 18 12
      vertex 11 5 12
      vertex 20 5 12
    endloop
  endfacet
  facet normal 1 0 0
    outer loop
      vertex 48 0 12
      vertex 48 0 0
      vertex 48 23 0
    endloop
  endfacet
  facet normal 1 0 0
    outer loop
      vertex 48 23 12
      vertex 48 0 12
      vertex 48 23 0
    endloop
  endfacet
  facet normal 1 0 0
    outer loop
      vertex 5 18 1.5
      vertex 5 18 12
      vertex 5 5 12
    endloop
  endfacet
  facet normal 1 0 0
    outer loop
      vertex 5 5 1.5
      vertex 5 18 1.5
      vertex 5 5 12
    endloop
  endfacet
  facet normal 0 1 0
    outer loop
      vertex 11 5 12
      vertex 11 5 1.5
      vertex 5 5 12
    endloop
  endfacet
  facet normal 0 1 0
    outer loop
      vertex 5 5 12
      vertex 11 5 1.5
      vertex 5 5 1.5
    endloop
  endfacet
  facet normal -1 0 0
    outer loop
      vertex 11 18 12
      vertex 11 18 1.5
      vertex 11 5 12
    endloop
  endfacet
  facet normal -1 0 0
    outer loop
      vertex 11 5 12
      vertex 11 18 1.5
      vertex 11 5 1.5
    endloop
  endfacet
  facet normal 0 -1 0
    outer loop
      vertex 11 18 1.5
      vertex 11 18 12
      vertex 5 18 12
    endloop
  endfacet
  facet normal 0 -1 0
    outer loop
      vertex 5 18 1.5
      vertex 11 18 1.5
      vertex 5 18 12
    endloop
  endfacet
  facet normal 1 0 0
    outer loop
      vertex 20 18 1.5
      vertex 20 18 12
      vertex 20 5 12
    endloop
  endfacet
  facet normal 1 0 0
    outer loop
      vertex 20 5 1.5
      vertex 20 18 1.5
      vertex 20 5 12
    endloop
  endfacet
  facet normal 0 1 0
    outer loop
      vertex 26 5 12
      vertex 26 5 1.5
      vertex 20 5 12
    endloop
  endfacet
  facet normal 0 1 0
    outer loop
      vertex 20 5 12
      vertex 26 5 1.5
      vertex 20 5 1.5
    endloop
  endfacet
  facet normal -1 0 0
    outer loop
      vertex 26 18 12
      vertex 26 18 1.5
      vertex 26 5 12
    endloop
  endfacet
  facet normal -1 0 0
    outer loop
      vertex 26 5 12
      vertex 26 18 1.5
      vertex 26 5 1.5
    endloop
  endfacet
  facet normal 0 -1 0
    outer loop
      vertex 26 18 1.5
      vertex 26 18 12
      vertex 20 18 12
    endloop
  endfacet
  facet normal 0 -1 0
    outer loop
      vertex 20 18 1.5
      vertex 26 18 1.5
      vertex 20 18 12
    endloop
  endfacet
  facet normal 1 0 0
    outer loop
      vertex 35 18 1.5
      vertex 35 18 12
      vertex 35 5 12
    endloop
  endfacet
  facet normal 1 0 0
    outer loop
      vertex 35 5 1.5
      vertex 35 18 1.5
      vertex 35 5 12
    endloop
  endfacet
  facet normal 0 1 0
    outer loop
      vertex 41 5 12
      vertex 41 5 1.5
      vertex 35 5 12
    endloop
  endfacet
  facet normal 0 1 0
    outer loop
      vertex 35 5 12
      vertex 41 5 1.5
      vertex 35 5 1.5
    endloop
  endfacet
  facet normal -1 0 0
    outer loop
      vertex 41 18 12
      vertex 41 18 1.5
      vertex 41 5 12
    endloop
  endfacet
  facet normal -1 0 0
    outer loop
      vertex 41 5 12
      vertex 41 18 1.5
      vertex 41 5 1.5
    endloop
  endfacet
  facet normal 0 -1 0
    outer loop
      vertex 41 18 1.5
      vertex 41 18 12
      vertex 35 18 12
    endloop
  endfacet
  facet normal 0 -1 0
    outer loop
      vertex 35 18 1.5
      vertex 41 18 1.5
      vertex 35 18 12
    endloop
  endfacet
  facet normal 0 0 1
    outer loop
      vertex 11 5 1.5
      vertex 11 18 1.5
      vertex 5 18 1.5
    endloop
  endfacet
  facet normal 0 0 1
    outer loop
      vertex 5 5 1.5
      vertex 11 5 1.5
      vertex 5 18 1.5
    endloop
  endfacet
  facet normal 0 0 1
    outer loop
      vertex 26 5 1.5
      vertex 26 18 1.5
      vertex 20 18 1.5
    endloop
  endfacet
  facet normal 0 0 1
    outer loop
      vertex 20 5 1.5
      vertex 26 5 1.5
      vertex 20 18 1.5
    endloop
  endfacet
  facet normal 0 0 1
    outer loop
      vertex 41 5 1.5
      vertex 41 18 1.5
      vertex 35 18 1.5
    endloop
  endfacet
  facet normal 0 0 1
    outer loop
      vertex 35 5 1.5
      vertex 41 5 1.5
      vertex 35 18 1.5
    endloop
  endfacet
endsolid OpenSCAD_Model
