solid OpenSCAD_Model
  facet normal -1 0 0
    outer loop
      vertex 0 0 0
      vertex 0 0 10
      vertex 0 21 0
    endloop
  endfacet
  facet normal -1 0 0
    outer loop
      vertex 0 21 0
      vertex 0 0 10
      vertex 0 21 10
    endloop
  endfacet
  facet normal 0 -1 0
    outer loop
      vertex 0 0 10
      vertex 0 0 0
      vertex 58.8 0 0
    endloop
  endfacet
  facet normal 0 -1 0
    outer loop
      vertex 58.8 0 10
      vertex 0 0 10
      vertex 58.8 0 0
    endloop
  endfacet
  facet normal 0 0 -1
    outer loop
      vertex 0 0 0
      vertex 0 21 0
      vertex 58.8 0 0
    endloop
  endfacet
  facet normal 0 0 -1
    outer loop
      vertex 58.8 0 0
      vertex 0 21 0
      vertex 58.8 21 0
    endloop
  endfacet
  facet normal 0 1 0
    outer loop
      vertex 0 21 0
      vertex 0 21 10
      vertex 58.8 21 0
    endloop
  endfacet
  facet normal 0 1 0
    outer loop
      vertex 58.8 21 0
      vertex 0 21 10
      vertex 58.8 21 10
    endloop
  endfacet
  facet normal 0 0 1
    outer loop
      vertex 5 5 10
      vertex 0 0 10
      vertex 58.8 0 10
    endloop
  endfacet
  facet normal 0 0 1
    outer loop
      vertex 9.7 5 10
      vertex 5 5 10
      vertex 58.8 0 10
    endloop
  endfacet
  facet normal 0 0 1
    outer loop
      vertex 0 21 10
      vertex 0 0 10
      vertex 5 5 10
    endloop
  endfacet
  facet normal 0 0 1
    outer loop
      vertex 19.7 5 10
      vertex 19.7 16 10
      vertex 9.7 16 10
    endloop
  endfacet
  facet normal 0 0 1
    outer loop
      vertex 0 21 10
      vertex 5 5 10
      vertex 5 16 10
    endloop
  endfacet
  facet normal 0 0 1
    outer loop
      vertex 39.1 16 10
      vertex 39.1 5 10
      vertex 49.1 5 10
    endloop
  endfacet
  facet normal 0 0 1
    outer loop
      vertex 0 21 10
      vertex 5 16 10
      vertex 9.7 16 10
    endloop
  endfacet
  facet normal 0 0 1
    outer loop
      vertex 19.7 5 10
      vertex 9.7 5 10
      vertex 58.8 0 10
    endloop
  endfacet
  facet normal 0 0 1
    outer loop
      vertex 24.4 5 10
      vertex 19.7 5 10
      vertex 58.8 0 10
    endloop
  endfacet
  facet normal 0 0 1
    outer loop
      vertex 34.4 5 10
      vertex 34.4 16 10
      vertex 24.4 16 10
    endloop
  endfacet
  facet normal 0 0 1
    outer loop
      vertex 58.8 21 10
      vertex 0 21 10
      vertex 19.7 16 10
    endloop
  endfacet
  facet normal 0 0 1
    outer loop
      vertex 58.8 21 10
      vertex 19.7 16 10
      vertex 24.4 16 10
    endloop
  endfacet
  facet normal 0 0 1
    outer loop
      vertex 34.4 5 10
      vertex 24.4 5 10
      vertex 58.8 0 10
    endloop
  endfacet
  facet normal 0 0 1
    outer loop
      vertex 53.8 16 10
      vertex 53.8 5 10
      vertex 58.8 0 10
    endloop
  endfacet
  facet normal 0 0 1
    outer loop
      vertex 39.1 5 10
      vertex 34.4 5 10
      vertex 58.8 0 10
    endloop
  endfacet
  facet normal 0 0 1
    outer loop
      vertex 49.1 5 10
      vertex 39.1 5 10
      vertex 58.8 0 10
    endloop
  endfacet
  facet normal 0 0 1
    outer loop
      vertex 58.8 21 10
      vertex 24.4 16 10
      vertex 34.4 16 10
    endloop
  endfacet
  facet normal 0 0 1
    outer loop
      vertex 49.1 5 10
      vertex 49.1 16 10
      vertex 39.1 16 10
    endloop
  endfacet
  facet normal 0 0 1
    outer loop
      vertex 58.8 21 10
      vertex 34.4 16 10
      vertex 39.1 16 10
    endloop
  endfacet
  facet normal 0 0 1
    outer loop
      vertex 9.7 16 10
      vertex 19.7 16 10
      vertex 0 21 10
    endloop
  endfacet
  facet normal 0 0 1
    outer loop
      vertex 53.8 5 10
      vertex 49.1 5 10
      vertex 58.8 0 10
    endloop
  endfacet
  facet normal 0 0 1
    outer loop
      vertex 58.8 21 10
      vertex 39.1 16 10
      vertex 49.1 16 10
    endloop
  endfacet
  facet normal 0 0 1
    outer loop
      vertex 58.8 21 10
      vertex 53.8 16 10
      vertex 58.8 0 10
    endloop
  endfacet
  facet normal 0 0 1
    outer loop
      vertex 58.8 21 10
      vertex 49.1 16 10
      vertex 53.8 16 10
    endloop
  endfacet
  facet normal 0 0 1
    outer loop
      vertex 24.4 16 10
      vertex 24.4 5 10
      vertex 34.4 5 10
    endloop
  endfacet
  facet normal 0 0 1
    outer loop
      vertex 9.7 16 10
      vertex 9.7 5 10
      vertex 19.7 5 10
    endloop
  endfacet
  facet normal 1 0 0
    outer loop
      vertex 58.8 0 10
      vertex 58.8 0 0
      vertex 58.8 21 0
    endloop
  endfacet
  facet normal 1 0 0
    outer loop
      vertex 58.8 21 10
      vertex 58.8 0 10
      vertex 58.8 21 0
    endloop
  endfacet
  facet normal 1 0 0
    outer loop
      vertex 5 16 1.5
      vertex 5 16 10
      vertex 5 5 10
    endloop
  endfacet
  facet normal 1 0 0
    outer loop
      vertex 5 5 1.5
      vertex 5 16 1.5
      vertex 5 5 10
    endloop
  endfacet
  facet normal 0 1 0
    outer loop
      vertex 9.7 5 10
      vertex 9.7 5 1.5
      vertex 5 5 10
    endloop
  endfacet
  facet normal 0 1 0
    outer loop
      vertex 5 5 10
      vertex 9.7 5 1.5
      vertex 5 5 1.5
    endloop
  endfacet
  facet normal -1 0 0
    outer loop
      vertex 9.7 16 10
      vertex 9.7 16 1.5
      vertex 9.7 5 10
    endloop
  endfacet
  facet normal -1 0 0
    outer loop
      vertex 9.7 5 10
      vertex 9.7 16 1.5
      vertex 9.7 5 1.5
    endloop
  endfacet
  facet normal 0 -1 0
    outer loop
      vertex 9.7 16 1.5
      vertex 9.7 16 10
      vertex 5 16 10
    endloop
  endfacet
  facet normal 0 -1 0
    outer loop
      vertex 5 16 1.5
      vertex 9.7 16 1.5
      vertex 5 16 10
    endloop
  endfacet
  facet normal 1 0 0
    outer loop
      vertex 19.7 16 1.5
      vertex 19.7 16 10
      vertex 19.7 5 10
    endloop
  endfacet
  facet normal 1 0 0
    outer loop
      vertex 19.7 5 1.5
      vertex 19.7 16 1.5
      vertex 19.7 5 10
    endloop
  endfacet
  facet normal 0 1 0
    outer loop
      vertex 24.4 5 10
      vertex 24.4 5 1.5
      vertex 19.7 5 10
    endloop
  endfacet
  facet normal 0 1 0
    outer loop
      vertex 19.7 5 10
      vertex 24.4 5 1.5
      vertex 19.7 5 1.5
    endloop
  endfacet
  facet normal -1 0 0
    outer loop
      vertex 24.4 16 10
      vertex 24.4 16 1.5
      vertex 24.4 5 10
    endloop
  endfacet
  facet normal -1 0 0
    outer loop
      vertex 24.4 5 10
      vertex 24.4 16 1.5
      vertex 24.4 5 1.5
    endloop
  endfacet
  facet normal 0 -1 0
    outer loop
      vertex 24.4 16 1.5
      vertex 24.4 16 10
      vertex 19.7 16 10
    endloop
  endfacet
  facet normal 0 -1 0
    outer loop
      vertex 19.7 16 1.5
      vertex 24.4 16 1.5
      vertex 19.7 16 10
    endloop
  endfacet
  facet normal 1 0 0
    outer loop
      vertex 34.4 16 1.5
      vertex 34.4 16 10
      vertex 34.4 5 10
    endloop
  endfacet
  facet normal 1 0 0
    outer loop
      vertex 34.4 5 1.5
      vertex 34.4 16 1.5
      vertex 34.4 5 10
    endloop
  endfacet
  facet normal 0 1 0
    outer loop
      vertex 39.1 5 10
      vertex 39.1 5 1.5
      vertex 34.4 5 10
    endloop
  endfacet
  facet normal 0 1 0
    outer loop
      vertex 34.4 5 10
      vertex 39.1 5 1.5
      vertex 34.4 5 1.5
    endloop
  endfacet
  facet normal -1 0 0
    outer loop
      vertex 39.1 16 10
      vertex 39.1 16 1.5
      vertex 39.1 5 10
    endloop
  endfacet
  facet normal -1 0 0
    outer loop
      vertex 39.1 5 10
      vertex 39.1 16 1.5
      vertex 39.1 5 1.5
    endloop
  endfacet
  facet normal 0 -1 0
    outer loop
      vertex 39.1 16 1.5
      vertex 39.1 16 10
      vertex 34.4 16 10
    endloop
  endfacet
  facet normal 0 -1 0
    outer loop
      vertex 34.4 16 1.5
      vertex 39.1 16 1.5
      vertex 34.4 16 10
    endloop
  endfacet
  facet normal 1 0 0
    outer loop
      vertex 49.1 16 1.5
      vertex 49.1 16 10
      vertex 49.1 5 10
    endloop
  endfacet
  facet normal 1 0 0
    outer loop
      vertex 49.1 5 1.5
      vertex 49.1 16 1.5
      vertex 49.1 5 10
    endloop
  endfacet
  facet normal 0 1 0
    outer loop
      vertex 53.8 5 10
      vertex 53.8 5 1.5
      vertex 49.1 5 10
    endloop
  endfacet
  facet normal 0 1 0
    outer loop
      vertex 49.1 5 10
      vertex 53.8 5 1.5
      vertex 49.1 5 1.5
    endloop
  endfacet
  facet normal -1 0 0
    outer loop
      vertex 53.8 16 10
      vertex 53.8 16 1.5
      vertex 53.8 5 10
    endloop
  endfacet
  facet normal -1 0 0
    outer loop
      vertex 53.8 5 10
      vertex 53.8 16 1.5
      vertex 53.8 5 1.5
    endloop
  endfacet
  facet normal 0 -1 0
    outer loop
      vertex 53.8 16 1.5
      vertex 53.8 16 10
      vertex 49.1 16 10
    endloop
  endfacet
  facet normal 0 -1 0
    outer loop
      vertex 49.1 16 1.5
      vertex 53.8 16 1.5
      vertex 49.1 16 10
    endloop
  endfacet
  facet normal 0 0 1
    outer loop
      vertex 9.7 5 1.5
      vertex 9.7 16 1.5
      vertex 5 16 1.5
    endloop
  endfacet
  facet normal 0 0 1
    outer loop
      vertex 5 5 1.5
      vertex 9.7 5 1.5
      vertex 5 16 1.5
    endloop
  endfacet
  facet normal 0 0 1
    outer loop
      vertex 24.4 5 1.5
      vertex 24.4 16 1.5
      vertex 19.7 16 1.5
    endloop
  endfacet
  facet normal 0 0 1
    outer loop
      vertex 19.7 5 1.5
      vertex 24.4 5 1.5
      vertex 19.7 16 1.5
    endloop
  endfacet
  facet normal 0 0 1
    outer loop
      vertex 39.1 5 1.5
      vertex 39.1 16 1.5
      vertex 34.4 16 1.5
    endloop
  endfacet
  facet normal 0 0 1
    outer loop
      vertex 34.4 5 1.5
      vertex 39.1 5 1.5
      vertex 34.4 16 1.5
    endloop
  endfacet
  facet normal 0 0 1
    outer loop
      vertex 53.8 5 1.5
      vertex 53.8 16 1.5
      vertex 49.1 16 1.5
    endloop
  endfacet
  facet normal 0 0 1
    outer loop
      vertex 49.1 5 1.5
      vertex 53.8 5 1.5
      vertex 49.1 16 1.5
    endloop
  endfacet
endsolid OpenSCAD_Model
