solid vcg
  facet normal -1.321682e-001 -1.623754e-002 9.910943e-001
    outer loop
      vertex  1.362508e+000 -4.616296e+001 3.452323e+000
      vertex  -3.185805e+001 -5.902701e+000 -3.182294e-001
      vertex  -3.085427e+001 -4.695084e+001 -8.568797e-001
    endloop
  endfacet
  facet normal -5.127690e-002 5.109785e-002 9.973764e-001
    outer loop
      vertex  2.895592e+001 -4.548804e+001 4.836372e+000
      vertex  -3.185805e+001 -5.902701e+000 -3.182294e-001
      vertex  1.362508e+000 -4.616296e+001 3.452323e+000
    endloop
  endfacet
  facet normal 8.974367e-002 2.666355e-001 9.596101e-001
    outer loop
      vertex  5.244933e+001 2.571078e+001 -7.986871e+000
      vertex  2.670267e+001 4.662733e+001 -1.139085e+001
      vertex  2.795184e+001 -4.439899e+000 2.681771e+000
    endloop
  endfacet
  facet normal -5.127705e-002 5.109762e-002 9.973764e-001
    outer loop
      vertex  2.895592e+001 -4.548804e+001 4.836372e+000
      vertex  2.795184e+001 -4.439899e+000 2.681771e+000
      vertex  -3.185805e+001 -5.902701e+000 -3.182294e-001
    endloop
  endfacet
  facet normal -1.281503e-003 5.238619e-002 9.986261e-001
    outer loop
      vertex  5.417607e+001 -4.487109e+001 4.836372e+000
      vertex  5.395799e+001 -3.595652e+001 4.368449e+000
      vertex  2.895592e+001 -4.548804e+001 4.836372e+000
    endloop
  endfacet
  facet normal 8.974395e-002 2.666360e-001 9.596099e-001
    outer loop
      vertex  5.209366e+001 4.024903e+001 -1.199318e+001
      vertex  4.643234e+001 4.710997e+001 -1.337010e+001
      vertex  2.670267e+001 4.662733e+001 -1.139085e+001
    endloop
  endfacet
  facet normal 8.974335e-002 2.666357e-001 9.596101e-001
    outer loop
      vertex  5.317186e+001 -3.822946e+000 1.517525e-001
      vertex  5.244933e+001 2.571078e+001 -7.986871e+000
      vertex  2.795184e+001 -4.439899e+000 2.681771e+000
    endloop
  endfacet
  facet normal 1.049390e-001 2.782034e-001 9.547726e-001
    outer loop
      vertex  5.209366e+001 4.024903e+001 -1.199318e+001
      vertex  5.192252e+001 4.724428e+001 -1.401266e+001
      vertex  4.643234e+001 4.710997e+001 -1.337010e+001
    endloop
  endfacet
  facet normal 8.974389e-002 2.666357e-001 9.596100e-001
    outer loop
      vertex  5.244933e+001 2.571078e+001 -7.986871e+000
      vertex  5.209366e+001 4.024903e+001 -1.199318e+001
      vertex  2.670267e+001 4.662733e+001 -1.139085e+001
    endloop
  endfacet
  facet normal -1.281493e-003 5.238616e-002 9.986261e-001
    outer loop
      vertex  5.395799e+001 -3.595652e+001 4.368449e+000
      vertex  2.795184e+001 -4.439899e+000 2.681771e+000
      vertex  2.895592e+001 -4.548804e+001 4.836372e+000
    endloop
  endfacet
  facet normal 9.575297e-002 1.318133e-001 9.866391e-001
    outer loop
      vertex  5.395799e+001 -3.595652e+001 4.368449e+000
      vertex  5.359531e+001 -2.113170e+001 2.423078e+000
      vertex  2.795184e+001 -4.439899e+000 2.681771e+000
    endloop
  endfacet
  facet normal 9.575298e-002 1.318133e-001 9.866391e-001
    outer loop
      vertex  5.359531e+001 -2.113170e+001 2.423078e+000
      vertex  5.317186e+001 -3.822946e+000 1.517525e-001
      vertex  2.795184e+001 -4.439899e+000 2.681771e+000
    endloop
  endfacet
  facet normal -5.418400e-002 2.161470e-001 9.748562e-001
    outer loop
      vertex  2.795184e+001 -4.439899e+000 2.681771e+000
      vertex  -1.337717e+001 4.564701e+001 -1.072073e+001
      vertex  -3.310685e+001 4.516452e+001 -1.171035e+001
    endloop
  endfacet
  facet normal -5.418416e-002 2.161468e-001 9.748562e-001
    outer loop
      vertex  2.795184e+001 -4.439899e+000 2.681771e+000
      vertex  -3.310685e+001 4.516452e+001 -1.171035e+001
      vertex  -3.185805e+001 -5.902701e+000 -3.182294e-001
    endloop
  endfacet
  facet normal 9.614160e-003 2.658741e-001 9.639598e-001
    outer loop
      vertex  2.795184e+001 -4.439899e+000 2.681771e+000
      vertex  2.670267e+001 4.662733e+001 -1.139085e+001
      vertex  -1.337717e+001 4.564701e+001 -1.072073e+001
    endloop
  endfacet
  facet normal -9.997009e-001 -2.445723e-002 -0.000000e+000
    outer loop
      vertex  5.395799e+001 -3.595652e+001 4.368449e+000
      vertex  5.359531e+001 -2.113170e+001 -1.844492e+001
      vertex  5.395799e+001 -3.595652e+001 -1.844492e+001
    endloop
  endfacet
  facet normal -9.997009e-001 -2.445723e-002 0.000000e+000
    outer loop
      vertex  5.359531e+001 -2.113170e+001 -1.844492e+001
      vertex  5.395799e+001 -3.595652e+001 4.368449e+000
      vertex  5.359531e+001 -2.113170e+001 2.423078e+000
    endloop
  endfacet
  facet normal -9.997009e-001 -2.445714e-002 0.000000e+000
    outer loop
      vertex  5.192252e+001 4.724428e+001 -1.401266e+001
      vertex  5.209366e+001 4.024903e+001 -1.844492e+001
      vertex  5.209366e+001 4.024903e+001 -1.199318e+001
    endloop
  endfacet
  facet normal -9.997009e-001 -2.445714e-002 0.000000e+000
    outer loop
      vertex  5.209366e+001 4.024903e+001 -1.844492e+001
      vertex  5.192252e+001 4.724428e+001 -1.401266e+001
      vertex  5.192252e+001 4.724428e+001 -1.844492e+001
    endloop
  endfacet
  facet normal -9.997009e-001 -2.445699e-002 -0.000000e+000
    outer loop
      vertex  5.359531e+001 -2.113170e+001 2.423078e+000
      vertex  5.317186e+001 -3.822946e+000 -1.844492e+001
      vertex  5.359531e+001 -2.113170e+001 -1.844492e+001
    endloop
  endfacet
  facet normal -9.997009e-001 -2.445699e-002 0.000000e+000
    outer loop
      vertex  5.317186e+001 -3.822946e+000 -1.844492e+001
      vertex  5.359531e+001 -2.113170e+001 2.423078e+000
      vertex  5.317186e+001 -3.822946e+000 1.517525e-001
    endloop
  endfacet
  facet normal -2.445531e-002 9.997009e-001 0.000000e+000
    outer loop
      vertex  2.895592e+001 -4.548804e+001 4.836372e+000
      vertex  5.417607e+001 -4.487109e+001 -1.844492e+001
      vertex  2.895592e+001 -4.548804e+001 -1.844492e+001
    endloop
  endfacet
  facet normal -2.445531e-002 9.997009e-001 0.000000e+000
    outer loop
      vertex  5.417607e+001 -4.487109e+001 -1.844492e+001
      vertex  2.895592e+001 -4.548804e+001 4.836372e+000
      vertex  5.417607e+001 -4.487109e+001 4.836372e+000
    endloop
  endfacet
  facet normal 9.997011e-001 2.444638e-002 0.000000e+000
    outer loop
      vertex  -3.185805e+001 -5.902701e+000 -1.844492e+001
      vertex  -3.085427e+001 -4.695084e+001 -8.568797e-001
      vertex  -3.085427e+001 -4.695084e+001 -1.844492e+001
    endloop
  endfacet
  facet normal 9.997011e-001 2.444638e-002 0.000000e+000
    outer loop
      vertex  -3.085427e+001 -4.695084e+001 -8.568797e-001
      vertex  -3.185805e+001 -5.902701e+000 -1.844492e+001
      vertex  -3.185805e+001 -5.902701e+000 -3.182294e-001
    endloop
  endfacet
  facet normal 2.444795e-002 -9.997011e-001 0.000000e+000
    outer loop
      vertex  -1.337717e+001 4.564701e+001 -1.072073e+001
      vertex  -3.310685e+001 4.516452e+001 -1.844492e+001
      vertex  -1.337717e+001 4.564701e+001 -1.844492e+001
    endloop
  endfacet
  facet normal 2.444795e-002 -9.997011e-001 0.000000e+000
    outer loop
      vertex  -3.310685e+001 4.516452e+001 -1.844492e+001
      vertex  -1.337717e+001 4.564701e+001 -1.072073e+001
      vertex  -3.310685e+001 4.516452e+001 -1.171035e+001
    endloop
  endfacet
  facet normal -9.997009e-001 -2.445671e-002 0.000000e+000
    outer loop
      vertex  5.395799e+001 -3.595652e+001 4.368449e+000
      vertex  5.417607e+001 -4.487109e+001 -1.844492e+001
      vertex  5.417607e+001 -4.487109e+001 4.836372e+000
    endloop
  endfacet
  facet normal -9.997009e-001 -2.445671e-002 0.000000e+000
    outer loop
      vertex  5.417607e+001 -4.487109e+001 -1.844492e+001
      vertex  5.395799e+001 -3.595652e+001 4.368449e+000
      vertex  5.395799e+001 -3.595652e+001 -1.844492e+001
    endloop
  endfacet
  facet normal -2.445211e-002 9.997010e-001 0.000000e+000
    outer loop
      vertex  1.362508e+000 -4.616296e+001 3.452323e+000
      vertex  2.895592e+001 -4.548804e+001 -1.844492e+001
      vertex  1.362508e+000 -4.616296e+001 -1.844492e+001
    endloop
  endfacet
  facet normal -2.445211e-002 9.997010e-001 0.000000e+000
    outer loop
      vertex  2.895592e+001 -4.548804e+001 -1.844492e+001
      vertex  1.362508e+000 -4.616296e+001 3.452323e+000
      vertex  2.895592e+001 -4.548804e+001 4.836372e+000
    endloop
  endfacet
  facet normal -2.444827e-002 9.997011e-001 0.000000e+000
    outer loop
      vertex  -3.085427e+001 -4.695084e+001 -8.568797e-001
      vertex  1.362508e+000 -4.616296e+001 -1.844492e+001
      vertex  -3.085427e+001 -4.695084e+001 -1.844492e+001
    endloop
  endfacet
  facet normal -2.444827e-002 9.997011e-001 0.000000e+000
    outer loop
      vertex  1.362508e+000 -4.616296e+001 -1.844492e+001
      vertex  -3.085427e+001 -4.695084e+001 -8.568797e-001
      vertex  1.362508e+000 -4.616296e+001 3.452323e+000
    endloop
  endfacet
  facet normal 2.445549e-002 -9.997009e-001 0.000000e+000
    outer loop
      vertex  4.643234e+001 4.710997e+001 -1.337010e+001
      vertex  2.670267e+001 4.662733e+001 -1.844492e+001
      vertex  4.643234e+001 4.710997e+001 -1.844492e+001
    endloop
  endfacet
  facet normal 2.445549e-002 -9.997009e-001 0.000000e+000
    outer loop
      vertex  2.670267e+001 4.662733e+001 -1.844492e+001
      vertex  4.643234e+001 4.710997e+001 -1.337010e+001
      vertex  2.670267e+001 4.662733e+001 -1.139085e+001
    endloop
  endfacet
  facet normal 2.445168e-002 -9.997010e-001 0.000000e+000
    outer loop
      vertex  2.670267e+001 4.662733e+001 -1.139085e+001
      vertex  -1.337717e+001 4.564701e+001 -1.844492e+001
      vertex  2.670267e+001 4.662733e+001 -1.844492e+001
    endloop
  endfacet
  facet normal 2.445168e-002 -9.997010e-001 0.000000e+000
    outer loop
      vertex  -1.337717e+001 4.564701e+001 -1.844492e+001
      vertex  2.670267e+001 4.662733e+001 -1.139085e+001
      vertex  -1.337717e+001 4.564701e+001 -1.072073e+001
    endloop
  endfacet
  facet normal 0.000000e+000 0.000000e+000 -1.000000e+000
    outer loop
      vertex  -1.337717e+001 4.564701e+001 -1.844492e+001
      vertex  -3.185805e+001 -5.902701e+000 -1.844492e+001
      vertex  -3.310685e+001 4.516452e+001 -1.844492e+001
    endloop
  endfacet
  facet normal 0.000000e+000 0.000000e+000 -1.000000e+000
    outer loop
      vertex  -3.185805e+001 -5.902701e+000 -1.844492e+001
      vertex  -1.337717e+001 4.564701e+001 -1.844492e+001
      vertex  -3.085427e+001 -4.695084e+001 -1.844492e+001
    endloop
  endfacet
  facet normal 0.000000e+000 0.000000e+000 -1.000000e+000
    outer loop
      vertex  -3.085427e+001 -4.695084e+001 -1.844492e+001
      vertex  -1.337717e+001 4.564701e+001 -1.844492e+001
      vertex  1.362508e+000 -4.616296e+001 -1.844492e+001
    endloop
  endfacet
  facet normal 0.000000e+000 0.000000e+000 -1.000000e+000
    outer loop
      vertex  1.362508e+000 -4.616296e+001 -1.844492e+001
      vertex  -1.337717e+001 4.564701e+001 -1.844492e+001
      vertex  2.670267e+001 4.662733e+001 -1.844492e+001
    endloop
  endfacet
  facet normal 0.000000e+000 0.000000e+000 -1.000000e+000
    outer loop
      vertex  1.362508e+000 -4.616296e+001 -1.844492e+001
      vertex  2.670267e+001 4.662733e+001 -1.844492e+001
      vertex  2.895592e+001 -4.548804e+001 -1.844492e+001
    endloop
  endfacet
  facet normal 0.000000e+000 0.000000e+000 -1.000000e+000
    outer loop
      vertex  2.895592e+001 -4.548804e+001 -1.844492e+001
      vertex  2.670267e+001 4.662733e+001 -1.844492e+001
      vertex  4.643234e+001 4.710997e+001 -1.844492e+001
    endloop
  endfacet
  facet normal 0.000000e+000 0.000000e+000 -1.000000e+000
    outer loop
      vertex  2.895592e+001 -4.548804e+001 -1.844492e+001
      vertex  4.643234e+001 4.710997e+001 -1.844492e+001
      vertex  5.417607e+001 -4.487109e+001 -1.844492e+001
    endloop
  endfacet
  facet normal 0.000000e+000 0.000000e+000 -1.000000e+000
    outer loop
      vertex  5.417607e+001 -4.487109e+001 -1.844492e+001
      vertex  4.643234e+001 4.710997e+001 -1.844492e+001
      vertex  5.192252e+001 4.724428e+001 -1.844492e+001
    endloop
  endfacet
  facet normal 0.000000e+000 0.000000e+000 -1.000000e+000
    outer loop
      vertex  5.417607e+001 -4.487109e+001 -1.844492e+001
      vertex  5.192252e+001 4.724428e+001 -1.844492e+001
      vertex  5.209366e+001 4.024903e+001 -1.844492e+001
    endloop
  endfacet
  facet normal 0.000000e+000 0.000000e+000 -1.000000e+000
    outer loop
      vertex  5.417607e+001 -4.487109e+001 -1.844492e+001
      vertex  5.209366e+001 4.024903e+001 -1.844492e+001
      vertex  5.244933e+001 2.571078e+001 -1.844492e+001
    endloop
  endfacet
  facet normal 0.000000e+000 0.000000e+000 -1.000000e+000
    outer loop
      vertex  5.417607e+001 -4.487109e+001 -1.844492e+001
      vertex  5.244933e+001 2.571078e+001 -1.844492e+001
      vertex  5.317186e+001 -3.822946e+000 -1.844492e+001
    endloop
  endfacet
  facet normal 0.000000e+000 0.000000e+000 1.000000e+000
    outer loop
      vertex  5.417607e+001 -4.487109e+001 -1.844492e+001
      vertex  5.317186e+001 -3.822946e+000 -1.844492e+001
      vertex  5.359531e+001 -2.113170e+001 -1.844492e+001
    endloop
  endfacet
  facet normal 0.000000e+000 0.000000e+000 -1.000000e+000
    outer loop
      vertex  5.417607e+001 -4.487109e+001 -1.844492e+001
      vertex  5.359531e+001 -2.113170e+001 -1.844492e+001
      vertex  5.395799e+001 -3.595652e+001 -1.844492e+001
    endloop
  endfacet
  facet normal 9.997011e-001 2.444663e-002 0.000000e+000
    outer loop
      vertex  -3.310685e+001 4.516452e+001 -1.844492e+001
      vertex  -3.185805e+001 -5.902701e+000 -3.182294e-001
      vertex  -3.185805e+001 -5.902701e+000 -1.844492e+001
    endloop
  endfacet
  facet normal 9.997011e-001 2.444663e-002 0.000000e+000
    outer loop
      vertex  -3.185805e+001 -5.902701e+000 -3.182294e-001
      vertex  -3.310685e+001 4.516452e+001 -1.844492e+001
      vertex  -3.310685e+001 4.516452e+001 -1.171035e+001
    endloop
  endfacet
  facet normal -9.997008e-001 -2.445743e-002 0.000000e+000
    outer loop
      vertex  5.209366e+001 4.024903e+001 -1.199318e+001
      vertex  5.244933e+001 2.571078e+001 -1.844492e+001
      vertex  5.244933e+001 2.571078e+001 -7.986871e+000
    endloop
  endfacet
  facet normal -9.997008e-001 -2.445743e-002 0.000000e+000
    outer loop
      vertex  5.244933e+001 2.571078e+001 -1.844492e+001
      vertex  5.209366e+001 4.024903e+001 -1.199318e+001
      vertex  5.209366e+001 4.024903e+001 -1.844492e+001
    endloop
  endfacet
  facet normal 2.445665e-002 -9.997009e-001 0.000000e+000
    outer loop
      vertex  5.192252e+001 4.724428e+001 -1.401266e+001
      vertex  4.643234e+001 4.710997e+001 -1.844492e+001
      vertex  5.192252e+001 4.724428e+001 -1.844492e+001
    endloop
  endfacet
  facet normal 2.445665e-002 -9.997009e-001 0.000000e+000
    outer loop
      vertex  4.643234e+001 4.710997e+001 -1.844492e+001
      vertex  5.192252e+001 4.724428e+001 -1.401266e+001
      vertex  4.643234e+001 4.710997e+001 -1.337010e+001
    endloop
  endfacet
  facet normal -9.997009e-001 -2.445714e-002 -0.000000e+000
    outer loop
      vertex  5.317186e+001 -3.822946e+000 1.517525e-001
      vertex  5.244933e+001 2.571078e+001 -1.844492e+001
      vertex  5.317186e+001 -3.822946e+000 -1.844492e+001
    endloop
  endfacet
  facet normal -9.997009e-001 -2.445714e-002 0.000000e+000
    outer loop
      vertex  5.244933e+001 2.571078e+001 -1.844492e+001
      vertex  5.317186e+001 -3.822946e+000 1.517525e-001
      vertex  5.244933e+001 2.571078e+001 -7.986871e+000
    endloop
  endfacet
endsolid vcg
