solid CastillNogales_directo_ext
facet normal -0.0746032893936619 0.0317874538430084 0.996706530022666
outer loop
vertex 1.36250805156306 -46.1629549544305 3.45232279452815
vertex -31.8580514157657 -5.90270095691085 -0.318229383281869
vertex -30.8542733935174 -46.9508356470615 -0.856879694397586
endloop
endfacet
facet normal -0.0512768919907535 0.0510978576769001 0.997376403013727
outer loop
vertex 28.9559254709166 -45.4880381077528 4.83637186118096
vertex -31.8580514157657 -5.90270095691085 -0.318229383281869
vertex 1.36250805156306 -46.1629549544305 3.45232279452815
endloop
endfacet
facet normal 0.0897436758444084 0.266635488714019 0.959610123333518
outer loop
vertex 52.4493325325894 25.7107804082334 -7.9868706819777
vertex 26.702664662269 46.6273276815191 -11.3908501832021
vertex 27.9518400321249 -4.4398991027847 2.68177061671814
endloop
endfacet
facet normal -0.0232940712005264 0.0518349948028705 0.998383953977973
outer loop
vertex 28.9559254709166 -45.4880381077528 4.83637186118096
vertex 27.9518400321249 -4.4398991027847 2.68177061671814
vertex -31.8580514157657 -5.90270095691085 -0.318229383281869
endloop
endfacet
facet normal -0.00128150398445117 0.0523861518816409 0.998626080592016
outer loop
vertex 54.1760753039271 -44.8710864642635 4.83637186118096
vertex 53.9579870069865 -35.9565145149827 4.36844937227569
vertex 28.9559254709166 -45.4880381077528 4.83637186118096
endloop
endfacet
facet normal 0.0973711943689784 0.272451994539189 0.957229732707241
outer loop
vertex 52.0936599581037 40.2490336829797 -11.9931840499409
vertex 46.4323397818953 47.1099697584287 -13.3701013832249
vertex 26.702664662269 46.6273276815191 -11.3908501832021
endloop
endfacet
facet normal 0.0929308454577154 0.200543465071819 0.97526723341836
outer loop
vertex 53.171860236791 -3.82294563949108 0.15175248338177
vertex 52.4493325325894 25.7107804082334 -7.9868706819777
vertex 27.9518400321249 -4.4398991027847 2.68177061671814
endloop
endfacet
facet normal 0.0973711943689784 0.272451994539189 0.957229732707241
outer loop
vertex 52.0936599581037 40.2490336829797 -11.9931840499409
vertex 51.9225235973718 47.2442834079266 -14.012662805424
vertex 46.4323397818953 47.1099697584287 -13.3701013832249
endloop
endfacet
facet normal 0.08974389328073 0.266635741616194 0.95961003272767
outer loop
vertex 52.4493325325894 25.7107804082334 -7.9868706819777
vertex 52.0936599581037 40.2490336829797 -11.9931840499409
vertex 26.702664662269 46.6273276815191 -11.3908501832021
endloop
endfacet
facet normal 0.0326602452589196 0.0802656335282627 0.996238293007217
outer loop
vertex 53.9579870069865 -35.9565145149827 4.36844937227569
vertex 27.9518400321249 -4.4398991027847 2.68177061671814
vertex 28.9559254709166 -45.4880381077528 4.83637186118096
endloop
endfacet
facet normal 0.0326602452589196 0.0802656335282627 0.996238293007217
outer loop
vertex 53.9579870069865 -35.9565145149827 4.36844937227569
vertex 53.5953082886991 -21.1317026801407 2.42307757446515
vertex 27.9518400321249 -4.4398991027847 2.68177061671814
endloop
endfacet
facet normal 0.0957529772222874 0.13181330366877 0.98663905270823
outer loop
vertex 53.5953082886991 -21.1317026801407 2.42307757446515
vertex 53.171860236791 -3.82294563949108 0.15175248338177
vertex 27.9518400321249 -4.4398991027847 2.68177061671814
endloop
endfacet
facet normal 0.0371891040584563 0.260200015284542 0.964838288308074
outer loop
vertex 27.9518400321249 -4.4398991027847 2.68177061671814
vertex -13.3771712851012 45.6470147762448 -10.7207253832059
vertex -33.1068443310214 45.164520460181 -11.7103509832173
endloop
endfacet
facet normal -0.0279238435193107 0.095429379705292 0.99504446757528
outer loop
vertex 27.9518400321249 -4.4398991027847 2.68177061671814
vertex -33.1068443310214 45.164520460181 -11.7103509832173
vertex -31.8580514157657 -5.90270095691085 -0.318229383281869
endloop
endfacet
facet normal 0.0371891040584563 0.260200015284542 0.964838288308074
outer loop
vertex 27.9518400321249 -4.4398991027847 2.68177061671814
vertex 26.702664662269 46.6273276815191 -11.3908501832021
vertex -13.3771712851012 45.6470147762448 -10.7207253832059
endloop
endfacet
facet normal -0.999700883150325 -0.0244569873136403 5.32781496181297e-016
outer loop
vertex 53.9579870069865 -35.9565145149827 4.36844937227569
vertex 53.595308288699 -21.1317026801407 -18.44491723629
vertex 53.9579870069865 -35.9565145149827 -18.44491723629
endloop
endfacet
facet normal -0.999700883150325 -0.0244569873136403 5.32781496181297e-016
outer loop
vertex 53.595308288699 -21.1317026801407 -18.44491723629
vertex 53.9579870069865 -35.9565145149827 4.36844937227569
vertex 53.5953082886991 -21.1317026801407 2.42307757446515
endloop
endfacet
facet normal -0.999700874631863 -0.0244573355108205 -4.16723138275167e-016
outer loop
vertex 51.9225235973718 47.2442834079266 -14.012662805424
vertex 52.0936599581037 40.2490336829797 -18.44491723629
vertex 52.0936599581037 40.2490336829797 -11.9931840499409
endloop
endfacet
facet normal -0.999700874631863 -0.0244573355108205 -4.16723138275167e-016
outer loop
vertex 52.0936599581037 40.2490336829797 -18.44491723629
vertex 51.9225235973718 47.2442834079266 -14.012662805424
vertex 51.9225235973718 47.2442834079266 -18.44491723629
endloop
endfacet
facet normal -0.999700881257346 -0.0244570646907236 3.13209336738514e-016
outer loop
vertex 53.5953082886991 -21.1317026801407 2.42307757446515
vertex 53.171860236791 -3.82294563949108 -18.44491723629
vertex 53.595308288699 -21.1317026801407 -18.44491723629
endloop
endfacet
facet normal -0.999700881257346 -0.0244570646907236 3.13209336738514e-016
outer loop
vertex 53.171860236791 -3.82294563949108 -18.44491723629
vertex 53.5953082886991 -21.1317026801407 2.42307757446515
vertex 53.171860236791 -3.82294563949108 0.15175248338177
endloop
endfacet
facet normal -0.0244553316268936 0.999700923654179 -1.44021064075458e-017
outer loop
vertex 28.9559254709166 -45.4880381077528 4.83637186118096
vertex 54.1760753039271 -44.8710864642635 -18.44491723629
vertex 28.9559254709166 -45.4880381077528 -18.44491723629
endloop
endfacet
facet normal -0.0244553316268936 0.999700923654179 -1.44021064075458e-017
outer loop
vertex 54.1760753039271 -44.8710864642635 -18.44491723629
vertex 28.9559254709166 -45.4880381077528 4.83637186118096
vertex 54.1760753039271 -44.8710864642635 4.83637186118096
endloop
endfacet
facet normal 0.999701142751261 0.0244463735924888 -3.3375156236081e-016
outer loop
vertex -31.8580514157657 -5.90270095691085 -18.44491723629
vertex -30.8542733935174 -46.9508356470615 -0.856879694397586
vertex -30.8542733935174 -46.9508356470615 -18.44491723629
endloop
endfacet
facet normal 0.999701142751261 0.0244463735924888 -3.3375156236081e-016
outer loop
vertex -30.8542733935174 -46.9508356470615 -0.856879694397586
vertex -31.8580514157657 -5.90270095691085 -18.44491723629
vertex -31.8580514157657 -5.90270095691085 -0.318229383281869
endloop
endfacet
facet normal 0.0244479520462875 -0.999701104151007 -2.97289573277693e-017
outer loop
vertex -13.3771712851012 45.6470147762448 -10.7207253832059
vertex -33.1068443310215 45.164520460181 -18.44491723629
vertex -13.3771712851012 45.6470147762448 -18.44491723629
endloop
endfacet
facet normal 0.0244479520462875 -0.999701104151007 -2.97289573277693e-017
outer loop
vertex -33.1068443310215 45.164520460181 -18.44491723629
vertex -13.3771712851012 45.6470147762448 -10.7207253832059
vertex -33.1068443310214 45.164520460181 -11.7103509832173
endloop
endfacet
facet normal -0.99970088454912 -0.0244569301366042 -2.54565393748047e-016
outer loop
vertex 53.9579870069865 -35.9565145149827 4.36844937227569
vertex 54.1760753039271 -44.8710864642635 -18.44491723629
vertex 54.1760753039271 -44.8710864642635 4.83637186118096
endloop
endfacet
facet normal -0.99970088454912 -0.0244569301366042 -2.54565393748047e-016
outer loop
vertex 54.1760753039271 -44.8710864642635 -18.44491723629
vertex 53.9579870069865 -35.9565145149827 4.36844937227569
vertex 53.9579870069865 -35.9565145149827 -18.44491723629
endloop
endfacet
facet normal -0.0244520292386755 0.999701004433881 -2.16841025370983e-018
outer loop
vertex 1.36250805156306 -46.1629549544305 3.45232279452815
vertex 28.9559254709166 -45.4880381077528 -18.44491723629
vertex 1.36250805156306 -46.1629549544305 -18.44491723629
endloop
endfacet
facet normal -0.0244520292386755 0.999701004433881 -2.16841025370983e-018
outer loop
vertex 28.9559254709166 -45.4880381077528 -18.44491723629
vertex 1.36250805156306 -46.1629549544305 3.45232279452815
vertex 28.9559254709166 -45.4880381077528 4.83637186118096
endloop
endfacet
facet normal -0.024448289262157 0.999701095904248 -2.51066147972848e-016
outer loop
vertex -30.8542733935174 -46.9508356470615 -0.856879694397586
vertex 1.36250805156306 -46.1629549544305 -18.44491723629
vertex -30.8542733935174 -46.9508356470615 -18.44491723629
endloop
endfacet
facet normal -0.024448289262157 0.999701095904248 -2.51066147972848e-016
outer loop
vertex 1.36250805156306 -46.1629549544305 -18.44491723629
vertex -30.8542733935174 -46.9508356470615 -0.856879694397586
vertex 1.36250805156306 -46.1629549544305 3.45232279452815
endloop
endfacet
facet normal 0.0244554320316924 -0.999700921198007 5.80508194839126e-016
outer loop
vertex 46.4323397818953 47.1099697584287 -13.3701013832249
vertex 26.702664662269 46.6273276815191 -18.44491723629
vertex 46.4323397818953 47.1099697584287 -18.44491723629
endloop
endfacet
facet normal 0.0244554320316924 -0.999700921198007 5.80508194839126e-016
outer loop
vertex 26.702664662269 46.6273276815191 -18.44491723629
vertex 46.4323397818953 47.1099697584287 -13.3701013832249
vertex 26.702664662269 46.6273276815191 -11.3908501832021
endloop
endfacet
facet normal 0.0244516920038103 -0.999701012682367 3.78145904950412e-016
outer loop
vertex 26.702664662269 46.6273276815191 -11.3908501832021
vertex -13.3771712851012 45.6470147762448 -18.44491723629
vertex 26.702664662269 46.6273276815191 -18.44491723629
endloop
endfacet
facet normal 0.0244516920038103 -0.999701012682367 3.78145904950412e-016
outer loop
vertex -13.3771712851012 45.6470147762448 -18.44491723629
vertex 26.702664662269 46.6273276815191 -11.3908501832021
vertex -13.3771712851012 45.6470147762448 -10.7207253832059
endloop
endfacet
facet normal 0.0 0.0 -1.0
outer loop
vertex -13.3771712851012 45.6470147762448 -18.44491723629
vertex -31.8580514157657 -5.90270095691085 -18.44491723629
vertex -33.1068443310215 45.164520460181 -18.44491723629
endloop
endfacet
facet normal 0.0 0.0 -1.0
outer loop
vertex -31.8580514157657 -5.90270095691085 -18.44491723629
vertex -13.3771712851012 45.6470147762448 -18.44491723629
vertex -30.8542733935174 -46.9508356470615 -18.44491723629
endloop
endfacet
facet normal 0.0 0.0 -1.0
outer loop
vertex -30.8542733935174 -46.9508356470615 -18.44491723629
vertex -13.3771712851012 45.6470147762448 -18.44491723629
vertex 1.36250805156306 -46.1629549544305 -18.44491723629
endloop
endfacet
facet normal 0.0 0.0 -1.0
outer loop
vertex 1.36250805156306 -46.1629549544305 -18.44491723629
vertex -13.3771712851012 45.6470147762448 -18.44491723629
vertex 26.702664662269 46.6273276815191 -18.44491723629
endloop
endfacet
facet normal 0.0 0.0 -1.0
outer loop
vertex 1.36250805156306 -46.1629549544305 -18.44491723629
vertex 26.702664662269 46.6273276815191 -18.44491723629
vertex 28.9559254709166 -45.4880381077528 -18.44491723629
endloop
endfacet
facet normal 0.0 0.0 -1.0
outer loop
vertex 28.9559254709166 -45.4880381077528 -18.44491723629
vertex 26.702664662269 46.6273276815191 -18.44491723629
vertex 46.4323397818953 47.1099697584287 -18.44491723629
endloop
endfacet
facet normal 0.0 0.0 -1.0
outer loop
vertex 28.9559254709166 -45.4880381077528 -18.44491723629
vertex 46.4323397818953 47.1099697584287 -18.44491723629
vertex 54.1760753039271 -44.8710864642635 -18.44491723629
endloop
endfacet
facet normal 0.0 0.0 -1.0
outer loop
vertex 54.1760753039271 -44.8710864642635 -18.44491723629
vertex 46.4323397818953 47.1099697584287 -18.44491723629
vertex 51.9225235973718 47.2442834079266 -18.44491723629
endloop
endfacet
facet normal 0.0 0.0 -1.0
outer loop
vertex 54.1760753039271 -44.8710864642635 -18.44491723629
vertex 51.9225235973718 47.2442834079266 -18.44491723629
vertex 52.0936599581037 40.2490336829797 -18.44491723629
endloop
endfacet
facet normal 0.0 0.0 -1.0
outer loop
vertex 54.1760753039271 -44.8710864642635 -18.44491723629
vertex 52.0936599581037 40.2490336829797 -18.44491723629
vertex 52.4493325325894 25.7107804082334 -18.44491723629
endloop
endfacet
facet normal 0.0 0.0 -1.0
outer loop
vertex 54.1760753039271 -44.8710864642635 -18.44491723629
vertex 52.4493325325894 25.7107804082334 -18.44491723629
vertex 53.171860236791 -3.82294563949108 -18.44491723629
endloop
endfacet
facet normal 0.0 0.0 -1.0
outer loop
vertex 54.1760753039271 -44.8710864642635 -18.44491723629
vertex 53.171860236791 -3.82294563949108 -18.44491723629
vertex 53.595308288699 -21.1317026801407 -18.44491723629
endloop
endfacet
facet normal 0.0 0.0 -1.0
outer loop
vertex 54.1760753039271 -44.8710864642635 -18.44491723629
vertex 53.595308288699 -21.1317026801407 -18.44491723629
vertex 53.9579870069865 -35.9565145149827 -18.44491723629
endloop
endfacet
facet normal 0.999701137328431 0.0244465953507124 -5.85991716696924e-016
outer loop
vertex -33.1068443310215 45.164520460181 -18.44491723629
vertex -31.8580514157657 -5.90270095691085 -0.318229383281869
vertex -31.8580514157657 -5.90270095691085 -18.44491723629
endloop
endfacet
facet normal 0.999701137328431 0.0244465953507124 -5.85991716696924e-016
outer loop
vertex -31.8580514157657 -5.90270095691085 -0.318229383281869
vertex -33.1068443310215 45.164520460181 -18.44491723629
vertex -33.1068443310214 45.164520460181 -11.7103509832173
endloop
endfacet
facet normal -0.999700875900398 -0.0244572836590136 0.0
outer loop
vertex 52.0936599581037 40.2490336829797 -11.9931840499409
vertex 52.4493325325894 25.7107804082334 -18.44491723629
vertex 52.4493325325894 25.7107804082334 -7.9868706819777
endloop
endfacet
facet normal -0.999700875900398 -0.0244572836590136 0.0
outer loop
vertex 52.4493325325894 25.7107804082334 -18.44491723629
vertex 52.0936599581037 40.2490336829797 -11.9931840499409
vertex 52.0936599581037 40.2490336829797 -18.44491723629
endloop
endfacet
facet normal 0.0244570088114484 -0.999700882624396 6.28697130756726e-017
outer loop
vertex 51.9225235973718 47.2442834079266 -14.012662805424
vertex 46.4323397818953 47.1099697584287 -18.44491723629
vertex 51.9225235973718 47.2442834079266 -18.44491723629
endloop
endfacet
facet normal 0.0244570088114484 -0.999700882624396 6.28697130756726e-017
outer loop
vertex 46.4323397818953 47.1099697584287 -18.44491723629
vertex 51.9225235973718 47.2442834079266 -14.012662805424
vertex 46.4323397818953 47.1099697584287 -13.3701013832249
endloop
endfacet
facet normal -0.999700878497163 -0.0244571775150115 0.0
outer loop
vertex 53.171860236791 -3.82294563949108 0.15175248338177
vertex 52.4493325325894 25.7107804082334 -18.44491723629
vertex 53.171860236791 -3.82294563949108 -18.44491723629
endloop
endfacet
facet normal -0.999700878497163 -0.0244571775150115 0.0
outer loop
vertex 52.4493325325894 25.7107804082334 -18.44491723629
vertex 53.171860236791 -3.82294563949108 0.15175248338177
vertex 52.4493325325894 25.7107804082334 -7.9868706819777
endloop
endfacet
endsolid CastillNogales_directo_ext
