solid OpenSCAD_Model
  facet normal 0 0 -1
    outer loop
      vertex -11.371 2.41697 0
      vertex -10.62 4.72831 0
      vertex -11.625 0 0
    endloop
  endfacet
  facet normal 0 0 -1
    outer loop
      vertex -11.625 0 0
      vertex -10.62 4.72831 0
      vertex -9.40482 6.833 0
    endloop
  endfacet
  facet normal 0 0 -1
    outer loop
      vertex -11.625 0 0
      vertex -9.40482 6.833 0
      vertex -7.77864 8.63906 0
    endloop
  endfacet
  facet normal 0 0 -1
    outer loop
      vertex -11.625 0 0
      vertex -7.77864 8.63906 0
      vertex -5.8125 10.0675 0
    endloop
  endfacet
  facet normal 0 0 -1
    outer loop
      vertex -11.625 0 0
      vertex -5.8125 10.0675 0
      vertex -3.59232 11.056 0
    endloop
  endfacet
  facet normal 0 0 -1
    outer loop
      vertex -11.625 0 0
      vertex -3.59232 11.056 0
      vertex -1.21514 11.5613 0
    endloop
  endfacet
  facet normal 0 0 -1
    outer loop
      vertex -11.625 0 0
      vertex -1.21514 11.5613 0
      vertex 1.21514 11.5613 0
    endloop
  endfacet
  facet normal 0 0 -1
    outer loop
      vertex -11.625 0 0
      vertex 1.21514 11.5613 0
      vertex 3.59232 11.056 0
    endloop
  endfacet
  facet normal 0 0 -1
    outer loop
      vertex -11.625 0 0
      vertex 3.59232 11.056 0
      vertex 5.8125 10.0675 0
    endloop
  endfacet
  facet normal 0 0 -1
    outer loop
      vertex -11.625 0 0
      vertex 5.8125 10.0675 0
      vertex 7.77864 8.63906 0
    endloop
  endfacet
  facet normal 0 0 -1
    outer loop
      vertex -11.625 0 0
      vertex 7.77864 8.63906 0
      vertex 9.40482 6.833 0
    endloop
  endfacet
  facet normal 0 0 -1
    outer loop
      vertex -11.625 0 0
      vertex 9.40482 6.833 0
      vertex 10.62 4.72831 0
    endloop
  endfacet
  facet normal 0 0 -1
    outer loop
      vertex -11.625 0 0
      vertex 10.62 4.72831 0
      vertex 11.371 2.41697 0
    endloop
  endfacet
  facet normal 0 0 -1
    outer loop
      vertex -11.625 0 0
      vertex 11.371 2.41697 0
      vertex 11.625 0 0
    endloop
  endfacet
  facet normal 0 0 -1
    outer loop
      vertex -11.625 0 0
      vertex 11.625 0 0
      vertex 11.371 -2.41697 0
    endloop
  endfacet
  facet normal 0 0 -1
    outer loop
      vertex -11.625 0 0
      vertex 11.371 -2.41697 0
      vertex 10.62 -4.72831 0
    endloop
  endfacet
  facet normal 0 0 -1
    outer loop
      vertex -11.625 0 0
      vertex 10.62 -4.72831 0
      vertex 9.40482 -6.833 0
    endloop
  endfacet
  facet normal 0 0 -1
    outer loop
      vertex -11.625 0 0
      vertex 9.40482 -6.833 0
      vertex 7.77864 -8.63906 0
    endloop
  endfacet
  facet normal 0 0 -1
    outer loop
      vertex -11.625 0 0
      vertex 7.77864 -8.63906 0
      vertex 5.8125 -10.0675 0
    endloop
  endfacet
  facet normal 0 0 -1
    outer loop
      vertex -11.625 0 0
      vertex 5.8125 -10.0675 0
      vertex 3.59232 -11.056 0
    endloop
  endfacet
  facet normal 0 0 -1
    outer loop
      vertex -11.625 0 0
      vertex 3.59232 -11.056 0
      vertex 1.21514 -11.5613 0
    endloop
  endfacet
  facet normal 0 0 -1
    outer loop
      vertex -11.625 0 0
      vertex 1.21514 -11.5613 0
      vertex -1.21514 -11.5613 0
    endloop
  endfacet
  facet normal 0 0 -1
    outer loop
      vertex -11.625 0 0
      vertex -1.21514 -11.5613 0
      vertex -3.59232 -11.056 0
    endloop
  endfacet
  facet normal 0 0 -1
    outer loop
      vertex -11.625 0 0
      vertex -3.59232 -11.056 0
      vertex -5.8125 -10.0675 0
    endloop
  endfacet
  facet normal 0 0 -1
    outer loop
      vertex -11.625 0 0
      vertex -5.8125 -10.0675 0
      vertex -7.77864 -8.63906 0
    endloop
  endfacet
  facet normal 0 0 -1
    outer loop
      vertex -11.625 0 0
      vertex -7.77864 -8.63906 0
      vertex -9.40482 -6.833 0
    endloop
  endfacet
  facet normal 0 0 -1
    outer loop
      vertex -11.625 0 0
      vertex -9.40482 -6.833 0
      vertex -10.62 -4.72831 0
    endloop
  endfacet
  facet normal 0 0 -1
    outer loop
      vertex -11.625 0 0
      vertex -10.62 -4.72831 0
      vertex -11.371 -2.41697 0
    endloop
  endfacet
  facet normal 0.994522 0.104528 0
    outer loop
      vertex 11.371 2.41697 0
      vertex 11.371 2.41697 2.3
      vertex 11.625 0 2.3
    endloop
  endfacet
  facet normal 0.994522 0.104528 0
    outer loop
      vertex 11.625 0 0
      vertex 11.371 2.41697 0
      vertex 11.625 0 2.3
    endloop
  endfacet
  facet normal 0.951057 0.309017 0
    outer loop
      vertex 10.62 4.72831 0
      vertex 10.62 4.72831 2.3
      vertex 11.371 2.41697 2.3
    endloop
  endfacet
  facet normal 0.951057 0.309017 0
    outer loop
      vertex 11.371 2.41697 0
      vertex 10.62 4.72831 0
      vertex 11.371 2.41697 2.3
    endloop
  endfacet
  facet normal -0.994522 0.104528 0
    outer loop
      vertex -11.625 0 2.3
      vertex -11.371 2.41697 2.3
      vertex -11.625 0 0
    endloop
  endfacet
  facet normal -0.994522 0.104528 0
    outer loop
      vertex -11.625 0 0
      vertex -11.371 2.41697 2.3
      vertex -11.371 2.41697 0
    endloop
  endfacet
  facet normal -0.994522 -0.104528 0
    outer loop
      vertex -11.371 -2.41697 0
      vertex -11.371 -2.41697 2.3
      vertex -11.625 0 0
    endloop
  endfacet
  facet normal -0.994522 -0.104528 0
    outer loop
      vertex -11.625 0 0
      vertex -11.371 -2.41697 2.3
      vertex -11.625 0 2.3
    endloop
  endfacet
  facet normal -0.951057 -0.309017 0
    outer loop
      vertex -10.62 -4.72831 0
      vertex -10.62 -4.72831 2.3
      vertex -11.371 -2.41697 0
    endloop
  endfacet
  facet normal -0.951057 -0.309017 0
    outer loop
      vertex -11.371 -2.41697 0
      vertex -10.62 -4.72831 2.3
      vertex -11.371 -2.41697 2.3
    endloop
  endfacet
  facet normal -0.866026 -0.5 0
    outer loop
      vertex -9.40482 -6.833 0
      vertex -9.40482 -6.833 2.3
      vertex -10.62 -4.72831 0
    endloop
  endfacet
  facet normal -0.866026 -0.5 0
    outer loop
      vertex -10.62 -4.72831 0
      vertex -9.40482 -6.833 2.3
      vertex -10.62 -4.72831 2.3
    endloop
  endfacet
  facet normal -0.743145 -0.669131 0
    outer loop
      vertex -7.77864 -8.63906 0
      vertex -7.77864 -8.63906 2.3
      vertex -9.40482 -6.833 0
    endloop
  endfacet
  facet normal -0.743145 -0.669131 0
    outer loop
      vertex -9.40482 -6.833 0
      vertex -7.77864 -8.63906 2.3
      vertex -9.40482 -6.833 2.3
    endloop
  endfacet
  facet normal -0.587785 -0.809017 0
    outer loop
      vertex -7.77864 -8.63906 0
      vertex -5.8125 -10.0675 0
      vertex -5.8125 -10.0675 2.3
    endloop
  endfacet
  facet normal -0.587785 -0.809017 0
    outer loop
      vertex -7.77864 -8.63906 2.3
      vertex -7.77864 -8.63906 0
      vertex -5.8125 -10.0675 2.3
    endloop
  endfacet
  facet normal -0.406737 -0.913545 0
    outer loop
      vertex -5.8125 -10.0675 0
      vertex -3.59232 -11.056 0
      vertex -3.59232 -11.056 2.3
    endloop
  endfacet
  facet normal -0.406737 -0.913545 0
    outer loop
      vertex -5.8125 -10.0675 2.3
      vertex -5.8125 -10.0675 0
      vertex -3.59232 -11.056 2.3
    endloop
  endfacet
  facet normal -0.207912 -0.978148 0
    outer loop
      vertex -3.59232 -11.056 0
      vertex -1.21514 -11.5613 0
      vertex -1.21514 -11.5613 2.3
    endloop
  endfacet
  facet normal -0.207912 -0.978148 0
    outer loop
      vertex -3.59232 -11.056 2.3
      vertex -3.59232 -11.056 0
      vertex -1.21514 -11.5613 2.3
    endloop
  endfacet
  facet normal 0 -1 0
    outer loop
      vertex -1.21514 -11.5613 0
      vertex 1.21514 -11.5613 0
      vertex 1.21514 -11.5613 2.3
    endloop
  endfacet
  facet normal 0 -1 0
    outer loop
      vertex -1.21514 -11.5613 2.3
      vertex -1.21514 -11.5613 0
      vertex 1.21514 -11.5613 2.3
    endloop
  endfacet
  facet normal 0.207912 -0.978148 0
    outer loop
      vertex 1.21514 -11.5613 0
      vertex 3.59232 -11.056 0
      vertex 3.59232 -11.056 2.3
    endloop
  endfacet
  facet normal 0.207912 -0.978148 0
    outer loop
      vertex 1.21514 -11.5613 2.3
      vertex 1.21514 -11.5613 0
      vertex 3.59232 -11.056 2.3
    endloop
  endfacet
  facet normal 0.406737 -0.913545 0
    outer loop
      vertex 3.59232 -11.056 0
      vertex 5.8125 -10.0675 0
      vertex 5.8125 -10.0675 2.3
    endloop
  endfacet
  facet normal 0.406737 -0.913545 0
    outer loop
      vertex 3.59232 -11.056 2.3
      vertex 3.59232 -11.056 0
      vertex 5.8125 -10.0675 2.3
    endloop
  endfacet
  facet normal 0.587785 -0.809017 0
    outer loop
      vertex 5.8125 -10.0675 0
      vertex 7.77864 -8.63906 0
      vertex 7.77864 -8.63906 2.3
    endloop
  endfacet
  facet normal 0.587785 -0.809017 0
    outer loop
      vertex 5.8125 -10.0675 2.3
      vertex 5.8125 -10.0675 0
      vertex 7.77864 -8.63906 2.3
    endloop
  endfacet
  facet normal 0.743145 -0.669131 0
    outer loop
      vertex 7.77864 -8.63906 0
      vertex 9.40482 -6.833 0
      vertex 9.40482 -6.833 2.3
    endloop
  endfacet
  facet normal 0.743145 -0.669131 0
    outer loop
      vertex 7.77864 -8.63906 2.3
      vertex 7.77864 -8.63906 0
      vertex 9.40482 -6.833 2.3
    endloop
  endfacet
  facet normal 0.866026 -0.5 0
    outer loop
      vertex 9.40482 -6.833 0
      vertex 10.62 -4.72831 0
      vertex 10.62 -4.72831 2.3
    endloop
  endfacet
  facet normal 0.866026 -0.5 0
    outer loop
      vertex 9.40482 -6.833 2.3
      vertex 9.40482 -6.833 0
      vertex 10.62 -4.72831 2.3
    endloop
  endfacet
  facet normal 0.951057 -0.309017 0
    outer loop
      vertex 10.62 -4.72831 0
      vertex 11.371 -2.41697 0
      vertex 11.371 -2.41697 2.3
    endloop
  endfacet
  facet normal 0.951057 -0.309017 0
    outer loop
      vertex 10.62 -4.72831 2.3
      vertex 10.62 -4.72831 0
      vertex 11.371 -2.41697 2.3
    endloop
  endfacet
  facet normal 0.994522 -0.104528 0
    outer loop
      vertex 11.371 -2.41697 0
      vertex 11.625 0 0
      vertex 11.625 0 2.3
    endloop
  endfacet
  facet normal 0.994522 -0.104528 0
    outer loop
      vertex 11.371 -2.41697 2.3
      vertex 11.371 -2.41697 0
      vertex 11.625 0 2.3
    endloop
  endfacet
  facet normal 0.866026 0.5 0
    outer loop
      vertex 9.40482 6.833 0
      vertex 9.40482 6.833 2.3
      vertex 10.62 4.72831 2.3
    endloop
  endfacet
  facet normal 0.866026 0.5 0
    outer loop
      vertex 10.62 4.72831 0
      vertex 9.40482 6.833 0
      vertex 10.62 4.72831 2.3
    endloop
  endfacet
  facet normal 0.743145 0.669131 0
    outer loop
      vertex 7.77864 8.63906 0
      vertex 7.77864 8.63906 2.3
      vertex 9.40482 6.833 2.3
    endloop
  endfacet
  facet normal 0.743145 0.669131 0
    outer loop
      vertex 9.40482 6.833 0
      vertex 7.77864 8.63906 0
      vertex 9.40482 6.833 2.3
    endloop
  endfacet
  facet normal 0.587785 0.809017 0
    outer loop
      vertex 5.8125 10.0675 2.3
      vertex 7.77864 8.63906 2.3
      vertex 5.8125 10.0675 0
    endloop
  endfacet
  facet normal 0.587785 0.809017 0
    outer loop
      vertex 5.8125 10.0675 0
      vertex 7.77864 8.63906 2.3
      vertex 7.77864 8.63906 0
    endloop
  endfacet
  facet normal 0.406737 0.913545 0
    outer loop
      vertex 3.59232 11.056 2.3
      vertex 5.8125 10.0675 2.3
      vertex 3.59232 11.056 0
    endloop
  endfacet
  facet normal 0.406737 0.913545 0
    outer loop
      vertex 3.59232 11.056 0
      vertex 5.8125 10.0675 2.3
      vertex 5.8125 10.0675 0
    endloop
  endfacet
  facet normal 0.207912 0.978148 0
    outer loop
      vertex 1.21514 11.5613 2.3
      vertex 3.59232 11.056 2.3
      vertex 1.21514 11.5613 0
    endloop
  endfacet
  facet normal 0.207912 0.978148 0
    outer loop
      vertex 1.21514 11.5613 0
      vertex 3.59232 11.056 2.3
      vertex 3.59232 11.056 0
    endloop
  endfacet
  facet normal 0 1 0
    outer loop
      vertex -1.21514 11.5613 2.3
      vertex 1.21514 11.5613 2.3
      vertex -1.21514 11.5613 0
    endloop
  endfacet
  facet normal 0 1 0
    outer loop
      vertex -1.21514 11.5613 0
      vertex 1.21514 11.5613 2.3
      vertex 1.21514 11.5613 0
    endloop
  endfacet
  facet normal -0.207912 0.978148 0
    outer loop
      vertex -3.59232 11.056 2.3
      vertex -1.21514 11.5613 2.3
      vertex -3.59232 11.056 0
    endloop
  endfacet
  facet normal -0.207912 0.978148 0
    outer loop
      vertex -3.59232 11.056 0
      vertex -1.21514 11.5613 2.3
      vertex -1.21514 11.5613 0
    endloop
  endfacet
  facet normal -0.406737 0.913545 0
    outer loop
      vertex -5.8125 10.0675 2.3
      vertex -3.59232 11.056 2.3
      vertex -5.8125 10.0675 0
    endloop
  endfacet
  facet normal -0.406737 0.913545 0
    outer loop
      vertex -5.8125 10.0675 0
      vertex -3.59232 11.056 2.3
      vertex -3.59232 11.056 0
    endloop
  endfacet
  facet normal -0.587785 0.809017 0
    outer loop
      vertex -7.77864 8.63906 2.3
      vertex -5.8125 10.0675 2.3
      vertex -7.77864 8.63906 0
    endloop
  endfacet
  facet normal -0.587785 0.809017 0
    outer loop
      vertex -7.77864 8.63906 0
      vertex -5.8125 10.0675 2.3
      vertex -5.8125 10.0675 0
    endloop
  endfacet
  facet normal -0.743145 0.669131 0
    outer loop
      vertex -9.40482 6.833 2.3
      vertex -7.77864 8.63906 2.3
      vertex -9.40482 6.833 0
    endloop
  endfacet
  facet normal -0.743145 0.669131 0
    outer loop
      vertex -9.40482 6.833 0
      vertex -7.77864 8.63906 2.3
      vertex -7.77864 8.63906 0
    endloop
  endfacet
  facet normal -0.866026 0.5 0
    outer loop
      vertex -10.62 4.72831 2.3
      vertex -9.40482 6.833 2.3
      vertex -10.62 4.72831 0
    endloop
  endfacet
  facet normal -0.866026 0.5 0
    outer loop
      vertex -10.62 4.72831 0
      vertex -9.40482 6.833 2.3
      vertex -9.40482 6.833 0
    endloop
  endfacet
  facet normal -0.951057 0.309017 0
    outer loop
      vertex -11.371 2.41697 2.3
      vertex -10.62 4.72831 2.3
      vertex -11.371 2.41697 0
    endloop
  endfacet
  facet normal -0.951057 0.309017 0
    outer loop
      vertex -11.371 2.41697 0
      vertex -10.62 4.72831 2.3
      vertex -10.62 4.72831 0
    endloop
  endfacet
  facet normal 0 0 1
    outer loop
      vertex -11.625 0 2.3
      vertex -11.371 -2.41697 2.3
      vertex -10.62 -4.72831 2.3
    endloop
  endfacet
  facet normal 0 0 1
    outer loop
      vertex -7.77864 -8.63906 2.3
      vertex -11.625 0 2.3
      vertex -9.40482 -6.833 2.3
    endloop
  endfacet
  facet normal 0 0 1
    outer loop
      vertex -9.40482 -6.833 2.3
      vertex -11.625 0 2.3
      vertex -10.62 -4.72831 2.3
    endloop
  endfacet
  facet normal 0 0 1
    outer loop
      vertex -5.8125 -10.0675 2.3
      vertex -11.625 0 2.3
      vertex -7.77864 -8.63906 2.3
    endloop
  endfacet
  facet normal 0 0 1
    outer loop
      vertex -3.59232 -11.056 2.3
      vertex -11.625 0 2.3
      vertex -5.8125 -10.0675 2.3
    endloop
  endfacet
  facet normal 0 0 1
    outer loop
      vertex -1.21514 -11.5613 2.3
      vertex -11.625 0 2.3
      vertex -3.59232 -11.056 2.3
    endloop
  endfacet
  facet normal 0 0 1
    outer loop
      vertex 1.21514 -11.5613 2.3
      vertex -11.625 0 2.3
      vertex -1.21514 -11.5613 2.3
    endloop
  endfacet
  facet normal 0 0 1
    outer loop
      vertex 3.59232 -11.056 2.3
      vertex -11.625 0 2.3
      vertex 1.21514 -11.5613 2.3
    endloop
  endfacet
  facet normal 0 0 1
    outer loop
      vertex 5.8125 -10.0675 2.3
      vertex -11.625 0 2.3
      vertex 3.59232 -11.056 2.3
    endloop
  endfacet
  facet normal 0 0 1
    outer loop
      vertex 7.77864 -8.63906 2.3
      vertex -11.625 0 2.3
      vertex 5.8125 -10.0675 2.3
    endloop
  endfacet
  facet normal 0 0 1
    outer loop
      vertex 9.40482 -6.833 2.3
      vertex -11.625 0 2.3
      vertex 7.77864 -8.63906 2.3
    endloop
  endfacet
  facet normal 0 0 1
    outer loop
      vertex 10.62 -4.72831 2.3
      vertex -11.625 0 2.3
      vertex 9.40482 -6.833 2.3
    endloop
  endfacet
  facet normal 0 0 1
    outer loop
      vertex 11.371 -2.41697 2.3
      vertex -11.625 0 2.3
      vertex 10.62 -4.72831 2.3
    endloop
  endfacet
  facet normal 0 0 1
    outer loop
      vertex 11.625 0 2.3
      vertex -11.625 0 2.3
      vertex 11.371 -2.41697 2.3
    endloop
  endfacet
  facet normal 0 0 1
    outer loop
      vertex 11.371 2.41697 2.3
      vertex -11.625 0 2.3
      vertex 11.625 0 2.3
    endloop
  endfacet
  facet normal 0 0 1
    outer loop
      vertex 10.62 4.72831 2.3
      vertex -11.625 0 2.3
      vertex 11.371 2.41697 2.3
    endloop
  endfacet
  facet normal 0 0 1
    outer loop
      vertex 9.40482 6.833 2.3
      vertex -11.625 0 2.3
      vertex 10.62 4.72831 2.3
    endloop
  endfacet
  facet normal 0 0 1
    outer loop
      vertex 7.77864 8.63906 2.3
      vertex -11.625 0 2.3
      vertex 9.40482 6.833 2.3
    endloop
  endfacet
  facet normal 0 0 1
    outer loop
      vertex 5.8125 10.0675 2.3
      vertex -11.625 0 2.3
      vertex 7.77864 8.63906 2.3
    endloop
  endfacet
  facet normal 0 0 1
    outer loop
      vertex 3.59232 11.056 2.3
      vertex -11.625 0 2.3
      vertex 5.8125 10.0675 2.3
    endloop
  endfacet
  facet normal 0 0 1
    outer loop
      vertex 1.21514 11.5613 2.3
      vertex -11.625 0 2.3
      vertex 3.59232 11.056 2.3
    endloop
  endfacet
  facet normal 0 0 1
    outer loop
      vertex -1.21514 11.5613 2.3
      vertex -11.625 0 2.3
      vertex 1.21514 11.5613 2.3
    endloop
  endfacet
  facet normal 0 0 1
    outer loop
      vertex -3.59232 11.056 2.3
      vertex -11.625 0 2.3
      vertex -1.21514 11.5613 2.3
    endloop
  endfacet
  facet normal 0 0 1
    outer loop
      vertex -5.8125 10.0675 2.3
      vertex -11.625 0 2.3
      vertex -3.59232 11.056 2.3
    endloop
  endfacet
  facet normal 0 0 1
    outer loop
      vertex -7.77864 8.63906 2.3
      vertex -11.625 0 2.3
      vertex -5.8125 10.0675 2.3
    endloop
  endfacet
  facet normal 0 0 1
    outer loop
      vertex -9.40482 6.833 2.3
      vertex -11.625 0 2.3
      vertex -7.77864 8.63906 2.3
    endloop
  endfacet
  facet normal 0 0 1
    outer loop
      vertex -10.62 4.72831 2.3
      vertex -11.625 0 2.3
      vertex -9.40482 6.833 2.3
    endloop
  endfacet
  facet normal 0 0 1
    outer loop
      vertex -11.371 2.41697 2.3
      vertex -11.625 0 2.3
      vertex -10.62 4.72831 2.3
    endloop
  endfacet
endsolid OpenSCAD_Model
