<?xml version="1.0" encoding="UTF-8" standalone="no"?>
<!-- Created with Inkscape (http://www.inkscape.org/) -->

<svg
   xmlns:dc="http://purl.org/dc/elements/1.1/"
   xmlns:cc="http://creativecommons.org/ns#"
   xmlns:rdf="http://www.w3.org/1999/02/22-rdf-syntax-ns#"
   xmlns:svg="http://www.w3.org/2000/svg"
   xmlns="http://www.w3.org/2000/svg"
   version="1.2"
   width="210mm"
   height="297mm"
   id="svg2">
  <defs
     id="defs4" />
  <metadata
     id="metadata7">
    <rdf:RDF>
      <cc:Work
         rdf:about="">
        <dc:format>image/svg+xml</dc:format>
        <dc:type
           rdf:resource="http://purl.org/dc/dcmitype/StillImage" />
        <dc:title></dc:title>
      </cc:Work>
    </rdf:RDF>
  </metadata>
  <g
     id="layer1">
    <g
       transform="matrix(0.34613657,0,0,0.34613657,-63.219838,735.06883)"
       id="flowRoot2985"
       style="font-size:40px;font-style:normal;font-weight:normal;line-height:125%;letter-spacing:0px;word-spacing:0px;fill:#000000;fill-opacity:1;stroke:none;font-family:Sans">
      <path
         d="m 76.8025,971.5841 c 2.975949,10e-6 5.567946,-7.58398 7.776,-22.752 2.207942,-15.26395 3.311941,-28.84794 3.312,-40.752 l 0,-7.344 c -5.9e-5,-5.08791 -0.288059,-8.30391 -0.864,-9.648 -0.480058,-1.43991 -1.680057,-2.15991 -3.6,-2.16 -2.304053,9e-5 -8.688046,1.20009 -19.152,3.6 -10.464025,2.30409 -16.800019,3.45609 -19.008,3.456 -2.496014,9e-5 -4.176013,-0.76791 -5.04,-2.304 -1.152011,-2.01591 -1.72801,-3.64791 -1.728,-4.896 -1e-5,-2.7839 2.735987,-5.0879 8.208,-6.912 5.471976,-1.9199 17.999964,-4.9439 37.584,-9.072 l 35.136,-8.208 c 1.63191,0.28812 3.45591,1.24812 5.472,2.88 2.0159,1.53611 3.0239,3.02411 3.024,4.464 -0.1921,2.11211 -2.0641,3.98411 -5.616,5.616 -3.55209,1.5361 -7.58409,2.8801 -12.096,4.032 -4.51208,1.0561 -7.24807,1.8241 -8.208,2.304 -0.57607,2.59209 -0.86407,7.10409 -0.864,13.536 l 0,6.192 c -7e-5,9.50407 -0.62407,20.92806 -1.872,34.272 -1.15207,13.34403 -2.448068,22.70402 -3.888,28.08 -1.632065,6.04801 -3.936063,10.944 -6.912,14.688 -2.880057,3.84 -5.616054,5.75999 -8.208,5.76 -3.552048,-10e-6 -7.344044,-1.008 -11.376,-3.024 -3.936036,-2.016 -5.904034,-4.032 -5.904,-6.048 -3.4e-5,-0.864 -0.720034,-1.77599 -2.16,-2.736 -2.59203,-1.91999 -6.288026,-7.05599 -11.088,-15.408 -4.704016,-8.35197 -7.056014,-14.63996 -7.056,-18.864 -1.4e-5,-2.87996 0.815985,-5.08795 2.448,-6.624 1.631982,-1.63195 3.79198,-2.44795 6.48,-2.448 2.015975,5e-5 3.599973,0.24005 4.752,0.72 1.247971,0.48005 2.11197,1.44005 2.592,2.88 0.575969,1.34404 0.911969,2.54404 1.008,3.6 0.09597,0.96004 0.191968,2.68804 0.288,5.184 0.191968,6.04803 2.351966,11.85603 6.48,17.424 5.183957,7.00801 8.543953,10.51201 10.08,10.512"
         id="path3021"
         style="font-size:144px;font-variant:normal;font-weight:bold;font-stretch:normal;letter-spacing:-1.78999996px;font-family:Purisa;-inkscape-font-specification:Purisa Bold" />
      <path
         d="m 151.79825,989.0081 c -3.74402,-10e-6 -6.04801,-4.368 -6.912,-13.104 -0.86401,-8.73599 -1.29601,-30.04796 -1.296,-63.936 -1e-5,-16.89591 0.14399,-28.5119 0.432,-34.848 0.28799,-6.33589 0.86399,-10.07989 1.728,-11.232 1.82398,-2.30388 3.98398,-3.45588 6.48,-3.456 2.11198,1.2e-4 3.88798,1.39212 5.328,4.176 1.53597,2.68811 3.35997,7.53611 5.472,14.544 3.07197,10.27209 6.33596,19.10408 9.792,26.496 3.45596,7.39207 5.99995,11.71206 7.632,12.96 1.05595,-0.67194 2.68795,-2.59194 4.896,-5.76 2.30394,-3.26393 5.51994,-8.54393 9.648,-15.84 4.22393,-7.29591 8.83193,-15.9359 13.824,-25.92 1.34392,-2.78389 3.26392,-5.13589 5.76,-7.056 2.59192,-1.91988 5.08791,-2.87988 7.488,-2.88 1.72791,1.2e-4 3.21591,0.57612 4.464,1.728 2.4959,2.20811 4.0799,6.67211 4.752,13.392 0.6719,6.6241 1.1039,20.35208 1.296,41.184 0.0959,12.57605 0.3839,22.75204 0.864,30.528 0.4799,7.77602 0.9599,12.67202 1.44,14.688 0.5759,2.01601 1.0559,3.74401 1.44,5.184 0.3839,1.44001 0.5759,2.88001 0.576,4.32 -1e-4,4.224 -1.9681,6.336 -5.904,6.336 -1.9201,0 -3.79209,-0.576 -5.616,-1.728 -1.72809,-1.152 -2.92809,-2.688 -3.6,-4.608 -0.67209,-1.82399 -1.29609,-8.78398 -1.872,-20.88 -0.57609,-12.19196 -1.10409,-25.39195 -1.584,-39.6 -0.48009,-14.20792 -0.96008,-23.51991 -1.44,-27.936 -0.67208,1.24809 -2.25608,4.46409 -4.752,9.648 -2.40008,5.08808 -6.57607,12.57607 -12.528,22.464 -2.20806,3.64806 -5.66406,7.05606 -10.368,10.224 -4.60805,3.07205 -8.78405,4.60805 -12.528,4.608 -1.44004,5e-5 -3.36004,-1.29595 -5.76,-3.888 -2.30404,-2.68795 -4.56003,-5.85594 -6.768,-9.504 l -4.032,-6.624 0,30.24 c -3e-5,13.15202 -0.28803,22.99202 -0.864,29.52 -0.48003,6.528 -1.29603,10.896 -2.448,13.104 -1.15202,2.30399 -2.83202,3.45599 -5.04,3.456"
         id="path3023"
         style="font-size:144px;font-variant:normal;font-weight:bold;font-stretch:normal;letter-spacing:-1.78999996px;font-family:Purisa;-inkscape-font-specification:Purisa Bold" />
      <path
         d="m 262.227,989.0081 c -3.74402,-10e-6 -6.04801,-4.368 -6.912,-13.104 -0.86401,-8.73599 -1.29601,-30.04796 -1.296,-63.936 -1e-5,-16.89591 0.14399,-28.5119 0.432,-34.848 0.28799,-6.33589 0.86399,-10.07989 1.728,-11.232 1.82398,-2.30388 3.98398,-3.45588 6.48,-3.456 2.11198,1.2e-4 3.88798,1.39212 5.328,4.176 1.53597,2.68811 3.35997,7.53611 5.472,14.544 3.07197,10.27209 6.33596,19.10408 9.792,26.496 3.45596,7.39207 5.99995,11.71206 7.632,12.96 1.05595,-0.67194 2.68795,-2.59194 4.896,-5.76 2.30394,-3.26393 5.51994,-8.54393 9.648,-15.84 4.22393,-7.29591 8.83193,-15.9359 13.824,-25.92 1.34392,-2.78389 3.26392,-5.13589 5.76,-7.056 2.59191,-1.91988 5.08791,-2.87988 7.488,-2.88 1.72791,1.2e-4 3.21591,0.57612 4.464,1.728 2.4959,2.20811 4.0799,6.67211 4.752,13.392 0.6719,6.6241 1.1039,20.35208 1.296,41.184 0.0959,12.57605 0.3839,22.75204 0.864,30.528 0.4799,7.77602 0.9599,12.67202 1.44,14.688 0.5759,2.01601 1.0559,3.74401 1.44,5.184 0.38389,1.44001 0.57589,2.88001 0.576,4.32 -1.1e-4,4.224 -1.9681,6.336 -5.904,6.336 -1.9201,0 -3.7921,-0.576 -5.616,-1.728 -1.72809,-1.152 -2.92809,-2.688 -3.6,-4.608 -0.67209,-1.82399 -1.29609,-8.78398 -1.872,-20.88 -0.57609,-12.19196 -1.10409,-25.39195 -1.584,-39.6 -0.48009,-14.20792 -0.96009,-23.51991 -1.44,-27.936 -0.67208,1.24809 -2.25608,4.46409 -4.752,9.648 -2.40008,5.08808 -6.57607,12.57607 -12.528,22.464 -2.20807,3.64806 -5.66406,7.05606 -10.368,10.224 -4.60805,3.07205 -8.78405,4.60805 -12.528,4.608 -1.44004,5e-5 -3.36004,-1.29595 -5.76,-3.888 -2.30404,-2.68795 -4.56003,-5.85594 -6.768,-9.504 l -4.032,-6.624 0,30.24 c -3e-5,13.15202 -0.28803,22.99202 -0.864,29.52 -0.48003,6.528 -1.29603,10.896 -2.448,13.104 -1.15202,2.30399 -2.83202,3.45599 -5.04,3.456"
         id="path3025"
         style="font-size:144px;font-variant:normal;font-weight:bold;font-stretch:normal;letter-spacing:-1.78999996px;font-family:Purisa;-inkscape-font-specification:Purisa Bold" />
      <path
         d="m 435.43975,887.9201 c -8e-5,-4.3199 -4.17607,-7.3439 -12.528,-9.072 -5.47206,-1.1519 -9.12005,-1.7279 -10.944,-1.728 -1.72805,10e-5 -6.33605,0.7201 -13.824,2.16 -4.99203,0.9601 -8.01603,2.0161 -9.072,3.168 -1.05603,1.1521 -1.58403,4.27209 -1.584,9.36 -3e-5,5.18408 0.28797,10.84808 0.864,16.992 0.67197,6.04807 1.34397,9.69606 2.016,10.944 0.28797,0.0961 0.86397,0.14406 1.728,0.144 2.97596,6e-5 7.19996,-0.62394 12.672,-1.872 5.47195,-1.24794 9.98394,-2.78393 13.536,-4.608 1.82394,-0.95993 3.35994,-2.06393 4.608,-3.312 1.24793,-1.34393 1.91993,-2.39993 2.016,-3.168 0.28793,-2.39992 2.11193,-5.61592 5.472,-9.648 3.35993,-4.12791 5.03992,-7.24791 5.04,-9.36 m -45.936,-23.616 c 3.16797,1.2e-4 7.15196,-0.38388 11.952,-1.152 4.79995,-0.86388 8.83195,-1.29588 12.096,-1.296 1.34394,1.2e-4 2.39994,0.0481 3.168,0.144 3.64794,0.48012 6.23994,0.81612 7.776,1.008 1.53593,0.19212 3.69593,0.57612 6.48,1.152 2.87993,0.57612 4.89592,1.15212 6.048,1.728 1.24792,0.57611 2.73592,1.39211 4.464,2.448 1.72792,1.05611 2.92791,2.30411 3.6,3.744 0.76791,1.34411 1.43991,3.02411 2.016,5.04 0.57591,2.0161 0.86391,4.3201 0.864,6.912 -9e-5,4.12809 -0.62409,8.73609 -1.872,13.824 -1.15209,4.99208 -2.83208,7.53608 -5.04,7.632 -0.0961,0.19208 -0.19208,0.57607 -0.288,1.152 -8e-5,0.57607 -8e-5,0.91207 0,1.008 -1.05608,2.97607 -4.56008,6.91207 -10.512,11.808 -5.95207,4.89606 -10.75206,7.68005 -14.4,8.352 -2.11205,0.57605 -3.60005,1.00805 -4.464,1.296 -0.76805,0.28805 -1.34405,0.67205 -1.728,1.152 -0.38405,0.38405 -0.62405,0.57605 -0.72,0.576 -1.92005,1.24805 -5.56804,1.87205 -10.944,1.872 l -6.912,0 1.296,23.184 c 0.47997,8.16002 0.71997,13.92001 0.72,17.28 -3e-5,4.704 -0.43203,8.112 -1.296,10.224 -0.86403,2.112 -2.49603,3.69599 -4.896,4.752 -0.67203,0.28799 -1.39203,0.43199 -2.16,0.432 -3.26402,-10e-6 -5.23202,-2.688 -5.904,-8.064 -1.05602,-7.29599 -2.30402,-20.92798 -3.744,-40.896 -1.34401,-19.96794 -2.01601,-33.45593 -2.016,-40.464 l 0,-11.376 -1.44,0.864 c -2.11201,1.53609 -4.12801,2.30409 -6.048,2.304 -1.05601,9e-5 -2.112,-0.47991 -3.168,-1.44 -0.96,-0.95991 -1.44,-2.20791 -1.44,-3.744 0,-2.9759 2.928,-7.4879 8.784,-13.536 3.07199,-3.16789 5.47198,-5.32789 7.2,-6.48 1.82398,-1.24788 3.74398,-1.87188 5.76,-1.872 0.76798,1.2e-4 1.72797,0.0961 2.88,0.288 1.15197,0.0961 2.44797,0.14412 3.888,0.144"
         id="path3027"
         style="font-size:144px;font-variant:normal;font-weight:bold;font-stretch:normal;letter-spacing:-1.78999996px;font-family:Purisa;-inkscape-font-specification:Purisa Bold" />
    </g>
    <flowRoot
       id="flowRoot2993"
       xml:space="preserve"
       style="font-size:40px;font-style:normal;font-weight:normal;line-height:125%;letter-spacing:0px;word-spacing:0px;fill:#000000;fill-opacity:1;stroke:none;font-family:Sans"><flowRegion
         id="flowRegion2995"><rect
           width="545.71429"
           height="80"
           x="-85.714287"
           y="832.36218"
           id="rect2997" /></flowRegion><flowPara
         id="flowPara2999"></flowPara></flowRoot>  </g>
</svg>
