  0
SECTION
  2
HEADER
  9
$ACADVER
  1
AC1015
  9
$ACADMAINTVER
 70
     6
  9
$DWGCODEPAGE
  3
ANSI_1252
  9
$INSBASE
 10
0.0
 20
0.0
 30
0.0
  9
$EXTMIN
 10
0.0
 20
0.0
 30
0.0
  9
$EXTMAX
 10
1624.0
 20
914.0
 30
0.0
  9
$LIMMIN
 10
0.0
 20
0.0
  9
$LIMMAX
 10
1624.0
 20
914.0
  9
$ORTHOMODE
 70
     0
  9
$REGENMODE
 70
     1
  9
$FILLMODE
 70
     1
  9
$QTEXTMODE
 70
     0
  9
$MIRRTEXT
 70
     1
  9
$LTSCALE
 40
1.0
  9
$ATTMODE
 70
     1
  9
$TEXTSIZE
 40
3.5
  9
$TRACEWID
 40
1.0
  9
$TEXTSTYLE
  7
Standard
  9
$CLAYER
  8
0
  9
$CELTYPE
  6
ByLayer
  9
$CECOLOR
 62
   256
  9
$CELTSCALE
 40
1.0
  9
$DISPSILH
 70
     0
  9
$DIMSCALE
 40
1.0
  9
$DIMASZ
 40
3.302
  9
$DIMEXO
 40
1.0
  9
$DIMDLI
 40
3.75
  9
$DIMRND
 40
0.0
  9
$DIMDLE
 40
0.0
  9
$DIMEXE
 40
1.0
  9
$DIMTP
 40
0.0
  9
$DIMTM
 40
0.0
  9
$DIMTXT
 40
3.5
  9
$DIMCEN
 40
2.5
  9
$DIMTSZ
 40
0.0
  9
$DIMTOL
 70
     0
  9
$DIMLIM
 70
     0
  9
$DIMTIH
 70
     1
  9
$DIMTOH
 70
     1
  9
$DIMSE1
 70
     0
  9
$DIMSE2
 70
     0
  9
$DIMTAD
 70
     1
  9
$DIMZIN
 70
     0
  9
$DIMBLK
  1

  9
$DIMASO
 70
     1
  9
$DIMSHO
 70
     1
  9
$DIMPOST
  1

  9
$DIMAPOST
  1

  9
$DIMALT
 70
     0
  9
$DIMALTD
 70
     3
  9
$DIMALTF
 40
0.0393700787
  9
$DIMLFAC
 40
1.0
  9
$DIMTOFL
 70
     1
  9
$DIMTVP
 40
0.0
  9
$DIMTIX
 70
     0
  9
$DIMSOXD
 70
     0
  9
$DIMSAH
 70
     0
  9
$DIMBLK1
  1

  9
$DIMBLK2
  1

  9
$DIMSTYLE
  2
ISO-25
  9
$DIMCLRD
 70
     0
  9
$DIMCLRE
 70
     0
  9
$DIMCLRT
 70
     0
  9
$DIMTFAC
 40
1.0
  9
$DIMGAP
 40
1.524
  9
$DIMJUST
 70
     0
  9
$DIMSD1
 70
     0
  9
$DIMSD2
 70
     0
  9
$DIMTOLJ
 70
     0
  9
$DIMTZIN
 70
     0
  9
$DIMALTZ
 70
     0
  9
$DIMALTTZ
 70
     0
  9
$DIMUPT
 70
     0
  9
$DIMDEC
 70
     2
  9
$DIMTDEC
 70
     2
  9
$DIMALTU
 70
     2
  9
$DIMALTTD
 70
     3
  9
$DIMTXSTY
  7
Standard
  9
$DIMAUNIT
 70
     0
  9
$DIMADEC
 70
     2
  9
$DIMALTRND
 40
0.0
  9
$DIMAZIN
 70
     0
  9
$DIMDSEP
 70
    44
  9
$DIMATFIT
 70
     3
  9
$DIMFRAC
 70
     0
  9
$DIMLDRBLK
  1

  9
$DIMLUNIT
 70
     2
  9
$DIMLWD
 70
    -2
  9
$DIMLWE
 70
    -2
  9
$DIMTMOVE
 70
     0
  9
$LUNITS
 70
     2
  9
$LUPREC
 70
     2
  9
$SKETCHINC
 40
1.0
  9
$FILLETRAD
 40
10.0
  9
$AUNITS
 70
     0
  9
$AUPREC
 70
     2
  9
$MENU
  1
.
  9
$ELEVATION
 40
0.0
  9
$PELEVATION
 40
0.0
  9
$THICKNESS
 40
0.0
  9
$LIMCHECK
 70
     0
  9
$CHAMFERA
 40
10.0
  9
$CHAMFERB
 40
10.0
  9
$CHAMFERC
 40
20.0
  9
$CHAMFERD
 40
0.0
  9
$SKPOLY
 70
     0
  9
$TDCREATE
 40
2456281.838288889
  9
$TDUCREATE
 40
2456281.296622222
  9
$TDUPDATE
 40
2456281.838289155
  9
$TDUUPDATE
 40
2456281.296622489
  9
$TDINDWG
 40
0.0000000116
  9
$TDUSRTIMER
 40
0.0000000116
  9
$USRTIMER
 70
     1
  9
$ANGBASE
 50
0.0
  9
$ANGDIR
 70
     0
  9
$PDMODE
 70
     0
  9
$PDSIZE
 40
-1.0
  9
$PLINEWID
 40
0.0
  9
$SPLFRAME
 70
     0
  9
$SPLINETYPE
 70
     6
  9
$SPLINESEGS
 70
     8
  9
$HANDSEED
  5
25F
  9
$SURFTAB1
 70
     6
  9
$SURFTAB2
 70
     6
  9
$SURFTYPE
 70
     6
  9
$SURFU
 70
     6
  9
$SURFV
 70
     6
  9
$UCSBASE
  2

  9
$UCSNAME
  2

  9
$UCSORG
 10
0.0
 20
0.0
 30
0.0
  9
$UCSXDIR
 10
1.0
 20
0.0
 30
0.0
  9
$UCSYDIR
 10
0.0
 20
1.0
 30
0.0
  9
$UCSORTHOREF
  2

  9
$UCSORTHOVIEW
 70
     0
  9
$UCSORGTOP
 10
0.0
 20
0.0
 30
0.0
  9
$UCSORGBOTTOM
 10
0.0
 20
0.0
 30
0.0
  9
$UCSORGLEFT
 10
0.0
 20
0.0
 30
0.0
  9
$UCSORGRIGHT
 10
0.0
 20
0.0
 30
0.0
  9
$UCSORGFRONT
 10
0.0
 20
0.0
 30
0.0
  9
$UCSORGBACK
 10
0.0
 20
0.0
 30
0.0
  9
$PUCSBASE
  2

  9
$PUCSNAME
  2

  9
$PUCSORG
 10
0.0
 20
0.0
 30
0.0
  9
$PUCSXDIR
 10
1.0
 20
0.0
 30
0.0
  9
$PUCSYDIR
 10
0.0
 20
1.0
 30
0.0
  9
$PUCSORTHOREF
  2

  9
$PUCSORTHOVIEW
 70
     0
  9
$PUCSORGTOP
 10
0.0
 20
0.0
 30
0.0
  9
$PUCSORGBOTTOM
 10
0.0
 20
0.0
 30
0.0
  9
$PUCSORGLEFT
 10
0.0
 20
0.0
 30
0.0
  9
$PUCSORGRIGHT
 10
0.0
 20
0.0
 30
0.0
  9
$PUCSORGFRONT
 10
0.0
 20
0.0
 30
0.0
  9
$PUCSORGBACK
 10
0.0
 20
0.0
 30
0.0
  9
$USERI1
 70
     0
  9
$USERI2
 70
     0
  9
$USERI3
 70
     0
  9
$USERI4
 70
     0
  9
$USERI5
 70
     0
  9
$USERR1
 40
0.0
  9
$USERR2
 40
0.0
  9
$USERR3
 40
0.0
  9
$USERR4
 40
0.0
  9
$USERR5
 40
0.0
  9
$WORLDVIEW
 70
     1
  9
$SHADEDGE
 70
     3
  9
$SHADEDIF
 70
    70
  9
$TILEMODE
 70
     1
  9
$MAXACTVP
 70
    64
  9
$PINSBASE
 10
0.0
 20
0.0
 30
0.0
  9
$PLIMCHECK
 70
     0
  9
$PEXTMIN
 10
1.0000000000E+20
 20
1.0000000000E+20
 30
1.0000000000E+20
  9
$PEXTMAX
 10
-1.0000000000E+20
 20
-1.0000000000E+20
 30
-1.0000000000E+20
  9
$PLIMMIN
 10
0.0
 20
0.0
  9
$PLIMMAX
 10
420.0
 20
297.0
  9
$UNITMODE
 70
     0
  9
$VISRETAIN
 70
     1
  9
$PLINEGEN
 70
     0
  9
$PSLTSCALE
 70
     1
  9
$TREEDEPTH
 70
  3020
  9
$CMLSTYLE
  2
Standard
  9
$CMLJUST
 70
     0
  9
$CMLSCALE
 40
20.0
  9
$PROXYGRAPHICS
 70
     1
  9
$MEASUREMENT
 70
     1
  9
$CELWEIGHT
370
    -1
  9
$ENDCAPS
280
     0
  9
$JOINSTYLE
280
     0
  9
$LWDISPLAY
290
     1
  9
$INSUNITS
 70
     4
  9
$HYPERLINKBASE
  1

  9
$STYLESHEET
  1

  9
$XEDIT
290
     1
  9
$CEPSNTYPE
380
     0
  9
$PSTYLEMODE
290
     1
  9
$FINGERPRINTGUID
  2
{CE9CBC53-1CBC-4BBE-8F4F-CB9847334CE2}
  9
$VERSIONGUID
  2
{FAEB1C32-E019-11D5-929B-00C0DF256EC4}
  9
$EXTNAMES
290
     1
  9
$PSVPSCALE
 40
0.0
  9
$OLESTARTUP
290
     0
  0
ENDSEC
  0
SECTION
  2
CLASSES
  0
CLASS
  1
ACDBDICTIONARYWDFLT
  2
AcDbDictionaryWithDefault
  3
ObjectDBX Classes
 90
        0
280
     0
281
     0
  0
CLASS
  1
VISUALSTYLE
  2
AcDbVisualStyle
  3
ObjectDBX Classes
 90
     4095
280
     0
281
     0
  0
CLASS
  1
MATERIAL
  2
AcDbMaterial
  3
ObjectDBX Classes
 90
     1153
280
     0
281
     0
  0
CLASS
  1
ACDBPLACEHOLDER
  2
AcDbPlaceHolder
  3
ObjectDBX Classes
 90
        0
280
     0
281
     0
  0
CLASS
  1
LAYOUT
  2
AcDbLayout
  3
ObjectDBX Classes
 90
        0
280
     0
281
     0
  0
ENDSEC
  0
SECTION
  2
TABLES
  0
TABLE
  2
VPORT
  5
8
330
0
100
AcDbSymbolTable
 70
     1
  0
VPORT
  5
29
330
8
100
AcDbSymbolTableRecord
100
AcDbViewportTableRecord
  2
*Active
 70
     0
 10
0.0
 20
0.0
 11
1.0
 21
1.0
 12
812.0
 22
457.0
 13
0.0
 23
0.0
 14
10.0
 24
10.0
 15
10.0
 25
10.0
 16
0.0
 26
0.0
 36
1.0
 17
0.0
 27
0.0
 37
0.0
 40
914.0
 41
1.7768052516
 42
50.0
 43
0.0
 44
0.0
 50
0.0
 51
0.0
 71
     0
 72
  2000
 73
     1
 74
     3
 75
     0
 76
     0
 77
     0
 78
     0
281
     0
 65
     1
110
0.0
120
0.0
130
0.0
111
1.0
121
0.0
131
0.0
112
0.0
122
1.0
132
0.0
 79
     0
146
0.0
  0
ENDTAB
  0
TABLE
  2
LTYPE
  5
5
330
0
100
AcDbSymbolTable
 70
     6
  0
LTYPE
  5
14
330
5
100
AcDbSymbolTableRecord
100
AcDbLinetypeTableRecord
  2
ByBlock
 70
     0
  3

 72
    65
 73
     0
 40
0.0
  0
LTYPE
  5
15
330
5
100
AcDbSymbolTableRecord
100
AcDbLinetypeTableRecord
  2
ByLayer
 70
     0
  3

 72
    65
 73
     0
 40
0.0
  0
LTYPE
  5
16
330
5
100
AcDbSymbolTableRecord
100
AcDbLinetypeTableRecord
  2
Continuous
 70
     0
  3
Solid line
 72
    65
 73
     0
 40
0.0
  0
LTYPE
  5
3F
330
5
100
AcDbSymbolTableRecord
100
AcDbLinetypeTableRecord
  2
HIDDEN
 70
     0
  3
Hidden __ __ __ __ __ __ __ __ __ __ __ __ __ __
 72
    65
 73
     2
 40
1.905
 49
1.27
 74
     0
 49
-0.635
 74
     0
  0
LTYPE
  5
40
330
5
100
AcDbSymbolTableRecord
100
AcDbLinetypeTableRecord
  2
PHANTOM
 70
     0
  3
Phantom ______  __  __  ______  __  __  ______
 72
    65
 73
     6
 40
12.7
 49
6.35
 74
     0
 49
-1.27
 74
     0
 49
1.27
 74
     0
 49
-1.27
 74
     0
 49
1.27
 74
     0
 49
-1.27
 74
     0
  0
LTYPE
  5
41
330
5
100
AcDbSymbolTableRecord
100
AcDbLinetypeTableRecord
  2
CENTER
 70
     0
  3
Center ____ _ ____ _ ____ _ ____ _ ____ _ ____
 72
    65
 73
     4
 40
10.16
 49
6.35
 74
     0
 49
-1.27
 74
     0
 49
1.27
 74
     0
 49
-1.27
 74
     0
  0
LTYPE
  5
42
330
5
100
AcDbSymbolTableRecord
100
AcDbLinetypeTableRecord
  2
CENTERX2
 70
     0
  3
Center (2x) ________  __  ________  __  _____
 72
    65
 73
     4
 40
20.32
 49
12.7
 74
     0
 49
-2.54
 74
     0
 49
2.54
 74
     0
 49
-2.54
 74
     0
  0
LTYPE
  5
43
330
5
100
AcDbSymbolTableRecord
100
AcDbLinetypeTableRecord
  2
DOT2
 70
     0
  3
Dot (.5x) ........................................
 72
    65
 73
     2
 40
0.635
 49
0.0
 74
     0
 49
-0.635
 74
     0
  0
ENDTAB
  0
TABLE
  2
LAYER
  5
2
330
0
100
AcDbSymbolTable
 70
     1
  0
LAYER
  5
10
330
2
100
AcDbSymbolTableRecord
100
AcDbLayerTableRecord
  2
0
 70
     0
 62
     7
  6
Continuous
370
    -3
390
F
  0
ENDTAB
  0
TABLE
  2
STYLE
  5
3
330
0
100
AcDbSymbolTable
 70
     2
  0
STYLE
  5
11
330
3
100
AcDbSymbolTableRecord
100
AcDbTextStyleTableRecord
  2
Standard
 70
     0
 40
0.0
 41
1.0
 50
0.0
 71
     0
 42
3.5
  3
txt
  4

  0
STYLE
  5
151
330
3
100
AcDbSymbolTableRecord
100
AcDbTextStyleTableRecord
  2
SLDTEXTSTYLE0
 70
     0
 40
0.0
 41
0.75
 50
0.0
 71
     0
 42
0.2
  3
TXT
  4

  0
ENDTAB
  0
TABLE
  2
VIEW
  5
6
330
0
100
AcDbSymbolTable
 70
     0
  0
ENDTAB
  0
TABLE
  2
UCS
  5
7
330
0
100
AcDbSymbolTable
 70
     0
  0
ENDTAB
  0
TABLE
  2
APPID
  5
9
330
0
100
AcDbSymbolTable
 70
     1
  0
APPID
  5
12
330
9
100
AcDbSymbolTableRecord
100
AcDbRegAppTableRecord
  2
ACAD
 70
     0
  0
ENDTAB
  0
TABLE
  2
DIMSTYLE
  5
A
330
0
100
AcDbSymbolTable
 70
     2
100
AcDbDimStyleTable
  0
DIMSTYLE
105
27
330
A
100
AcDbSymbolTableRecord
100
AcDbDimStyleTableRecord
  2
ISO-25
 70
     0
 41
2.5
 42
0.625
 43
3.75
 44
1.25
 73
     0
 74
     0
 77
     1
 78
     8
140
2.5
141
2.5
143
0.0393700787
147
0.625
171
     3
172
     1
178
     0
271
     2
272
     2
274
     3
278
    44
283
     0
284
     8
340
11
  0
DIMSTYLE
105
152
102
{ACAD_REACTORS
330
150
102
}
330
A
100
AcDbSymbolTableRecord
100
AcDbDimStyleTableRecord
  2
SLDDIMSTYLE0
 70
     0
 41
3.302
 44
0.0
 45
0.000000001
 73
     0
 74
     0
 77
     1
 78
     4
 79
     1
140
3.5
147
0.875
173
     1
178
     0
271
     2
272
     2
276
     2
284
    12
340
151
  0
ENDTAB
  0
TABLE
  2
BLOCK_RECORD
  5
1
330
0
100
AcDbSymbolTable
 70
     2
  0
BLOCK_RECORD
  5
1F
330
1
100
AcDbSymbolTableRecord
100
AcDbBlockTableRecord
  2
*Model_Space
340
22
  0
BLOCK_RECORD
  5
1B
330
1
100
AcDbSymbolTableRecord
100
AcDbBlockTableRecord
  2
*Paper_Space
340
1E
  0
BLOCK_RECORD
  5
23
330
1
100
AcDbSymbolTableRecord
100
AcDbBlockTableRecord
  2
*Paper_Space0
340
26
  0
BLOCK_RECORD
  5
153
330
1
100
AcDbSymbolTableRecord
100
AcDbBlockTableRecord
  2
_D
340
0
  0
ENDTAB
  0
ENDSEC
  0
SECTION
  2
BLOCKS
  0
BLOCK
  5
20
330
1F
100
AcDbEntity
  8
0
100
AcDbBlockBegin
  2
*Model_Space
 70
     0
 10
0.0
 20
0.0
 30
0.0
  3
*Model_Space
  1

  0
ENDBLK
  5
21
330
1F
100
AcDbEntity
  8
0
100
AcDbBlockEnd
  0
BLOCK
  5
1C
330
1B
100
AcDbEntity
 67
     1
  8
0
100
AcDbBlockBegin
  2
*Paper_Space
 70
     0
 10
0.0
 20
0.0
 30
0.0
  3
*Paper_Space
  1

  0
ENDBLK
  5
1D
330
1B
100
AcDbEntity
 67
     1
  8
0
100
AcDbBlockEnd
  0
BLOCK
  5
24
330
23
100
AcDbEntity
  8
0
100
AcDbBlockBegin
  2
*Paper_Space0
 70
     0
 10
0.0
 20
0.0
 30
0.0
  3
*Paper_Space0
  1

  0
ENDBLK
  5
25
330
23
100
AcDbEntity
  8
0
100
AcDbBlockEnd
  0
BLOCK
  5
154
330
153
100
AcDbEntity
  8
0
100
AcDbBlockBegin
  2
_D
 70
     0
 10
0.0
 20
0.0
 30
0.0
  3
_D
  1

  0
SOLID
  5
156
330
153
100
AcDbEntity
  8
0
  6
Continuous
 62
     7
370
     0
100
AcDbTrace
 10
658.9787125417
 20
906.5549313547
 30
0.0
 11
658.4707125417
 21
903.2529313547
 31
0.0
 12
659.4867125417
 22
903.2529313547
 32
0.0
 13
659.4867125417
 23
903.2529313547
 33
0.0
  0
SOLID
  5
157
330
153
100
AcDbEntity
  8
0
  6
Continuous
 62
     7
370
     0
100
AcDbTrace
 10
658.9787125417
 20
606.3549313547
 30
0.0
 11
659.4867125417
 21
609.6569313547
 31
0.0
 12
658.4707125417
 22
609.6569313547
 32
0.0
 13
658.4707125417
 23
609.6569313547
 33
0.0
  0
LINE
  5
158
330
153
100
AcDbEntity
  8
0
  6
Continuous
 62
     7
370
     0
100
AcDbLine
 10
649.9787125417
 20
906.5549313547
 30
0.0
 11
659.9787125417
 21
906.5549313547
 31
0.0
  0
LINE
  5
159
330
153
100
AcDbEntity
  8
0
  6
Continuous
 62
     7
370
     0
100
AcDbLine
 10
643.9787125417
 20
606.3549313547
 30
0.0
 11
659.9787125417
 21
606.3549313547
 31
0.0
  0
LINE
  5
15A
330
153
100
AcDbEntity
  8
0
  6
Continuous
 62
     7
370
     0
100
AcDbLine
 10
658.9787125417
 20
906.5549313547
 30
0.0
 11
658.9787125417
 21
606.3549313547
 31
0.0
  0
MTEXT
  5
15B
330
153
100
AcDbEntity
  8
0
  6
Continuous
 62
     7
370
     0
100
AcDbMText
 10
654.4669756271
 20
747.9212505431
 30
-2.9
 40
3.5
 41
0.0
 71
     1
 72
     1
  1
300.20
  7
SLDTEXTSTYLE0
 11
-7.044195017643634E-15
 21
1.0
 31
0.0
 73
     1
 44
1.0
  0
ENDBLK
  5
155
330
153
100
AcDbEntity
  8
0
100
AcDbBlockEnd
  0
ENDSEC
  0
SECTION
  2
ENTITIES
  0
LINE
  5
44
330
1F
100
AcDbEntity
  8
0
  6
CENTERX2
 62
     7
370
     0
100
AcDbLine
 10
812.0
 20
914.0
 30
0.0
 11
812.0
 21
0.0
 31
0.0
  0
LINE
  5
45
330
1F
100
AcDbEntity
  8
0
  6
CENTERX2
 62
     7
370
     0
100
AcDbLine
 10
0.0
 20
457.0
 30
0.0
 11
1624.0
 21
457.0
 31
0.0
  0
CIRCLE
  5
46
330
1F
100
AcDbEntity
  8
0
  6
Continuous
 62
     7
370
    15
100
AcDbCircle
 10
193.1552376432
 20
868.4433139806
 30
0.0
 40
10.89999999999998
  0
LINE
  5
47
330
1F
100
AcDbEntity
  8
0
  6
Continuous
 62
     7
370
    15
100
AcDbLine
 10
177.1552376432
 20
605.8433139806
 30
0.0
 11
177.1552376432
 21
614.6943658058
 31
0.0
  0
LINE
  5
48
330
1F
100
AcDbEntity
  8
0
  6
Continuous
 62
     7
370
    15
100
AcDbLine
 10
47.1552376432
 20
605.8433139806
 30
0.0
 11
177.1552376432
 21
605.8433139806
 31
0.0
  0
LINE
  5
49
330
1F
100
AcDbEntity
  8
0
  6
Continuous
 62
     7
370
    15
100
AcDbLine
 10
47.1552376432
 20
614.6943658058
 30
0.0
 11
47.1552376432
 21
605.8433139806
 31
0.0
  0
ARC
  5
4A
330
1F
100
AcDbEntity
  8
0
  6
Continuous
 62
     7
370
    15
100
AcDbCircle
 10
45.1556911234
 20
614.7369535401
 30
0.0
 40
1.999999999999986
100
AcDbArc
 50
358.7798590641
 51
219.1531551648
  0
LINE
  5
4B
330
1F
100
AcDbEntity
  8
0
  6
Continuous
 62
     7
370
    15
100
AcDbLine
 10
43.0593451404
 20
605.8433139806
 30
0.0
 11
43.6047691741
 21
613.4741625411
 31
0.0
  0
LINE
  5
4C
330
1F
100
AcDbEntity
  8
0
  6
Continuous
 62
     7
370
    15
100
AcDbLine
 10
7.5552376432
 20
605.8433139806
 30
0.0
 11
43.0593451404
 21
605.8433139806
 31
0.0
  0
LINE
  5
4D
330
1F
100
AcDbEntity
  8
0
  6
Continuous
 62
     7
370
    15
100
AcDbLine
 10
7.5552376432
 20
631.0433139806
 30
0.0
 11
7.5552376432
 21
605.8433139806
 31
0.0
  0
LINE
  5
4E
330
1F
100
AcDbEntity
  8
0
  6
Continuous
 62
     7
370
    15
100
AcDbLine
 10
13.2679393086
 20
631.0433139806
 30
0.0
 11
7.5552376432
 21
631.0433139806
 31
0.0
  0
ARC
  5
4F
330
1F
100
AcDbEntity
  8
0
  6
Continuous
 62
     7
370
    15
100
AcDbCircle
 10
13.6552376432
 20
630.9433139806
 30
0.0
 40
0.400000000000007
100
AcDbArc
 50
165.5224878141
 51
104.4775121859
  0
LINE
  5
50
330
1F
100
AcDbEntity
  8
0
  6
Continuous
 62
     7
370
    15
100
AcDbLine
 10
13.5552376432
 20
655.556015646
 30
0.0
 11
13.5552376432
 21
631.3306123153
 31
0.0
  0
ARC
  5
51
330
1F
100
AcDbEntity
  8
0
  6
Continuous
 62
     7
370
    15
100
AcDbCircle
 10
13.6552376432
 20
655.9433139806
 30
0.0
 40
0.3999999999999785
100
AcDbArc
 50
255.5224878141
 51
194.4775121859
  0
LINE
  5
52
330
1F
100
AcDbEntity
  8
0
  6
Continuous
 62
     7
370
    15
100
AcDbLine
 10
7.5552376432
 20
655.8433139806
 30
0.0
 11
13.2679393086
 21
655.8433139806
 31
0.0
  0
LINE
  5
53
330
1F
100
AcDbEntity
  8
0
  6
Continuous
 62
     7
370
    15
100
AcDbLine
 10
7.5552376432
 20
681.0433139806
 30
0.0
 11
7.5552376432
 21
655.8433139806
 31
0.0
  0
LINE
  5
54
330
1F
100
AcDbEntity
  8
0
  6
Continuous
 62
     7
370
    15
100
AcDbLine
 10
13.2679393086
 20
681.0433139806
 30
0.0
 11
7.5552376432
 21
681.0433139806
 31
0.0
  0
ARC
  5
55
330
1F
100
AcDbEntity
  8
0
  6
Continuous
 62
     7
370
    15
100
AcDbCircle
 10
13.6552376432
 20
680.9433139806
 30
0.0
 40
0.3999999999999785
100
AcDbArc
 50
165.5224878141
 51
104.4775121859
  0
LINE
  5
56
330
1F
100
AcDbEntity
  8
0
  6
Continuous
 62
     7
370
    15
100
AcDbLine
 10
13.5552376432
 20
705.556015646
 30
0.0
 11
13.5552376432
 21
681.3306123153
 31
0.0
  0
ARC
  5
57
330
1F
100
AcDbEntity
  8
0
  6
Continuous
 62
     7
370
    15
100
AcDbCircle
 10
13.6552376432
 20
705.9433139806
 30
0.0
 40
0.400000000000007
100
AcDbArc
 50
255.5224878141
 51
194.4775121859
  0
LINE
  5
58
330
1F
100
AcDbEntity
  8
0
  6
Continuous
 62
     7
370
    15
100
AcDbLine
 10
7.5552376432
 20
705.8433139806
 30
0.0
 11
13.2679393086
 21
705.8433139806
 31
0.0
  0
LINE
  5
59
330
1F
100
AcDbEntity
  8
0
  6
Continuous
 62
     7
370
    15
100
AcDbLine
 10
7.5552376432
 20
731.0433139806
 30
0.0
 11
7.5552376432
 21
705.8433139806
 31
0.0
  0
LINE
  5
5A
330
1F
100
AcDbEntity
  8
0
  6
Continuous
 62
     7
370
    15
100
AcDbLine
 10
13.2679393086
 20
731.0433139806
 30
0.0
 11
7.5552376432
 21
731.0433139806
 31
0.0
  0
ARC
  5
5B
330
1F
100
AcDbEntity
  8
0
  6
Continuous
 62
     7
370
    15
100
AcDbCircle
 10
13.6552376432
 20
730.9433139806
 30
0.0
 40
0.400000000000007
100
AcDbArc
 50
165.5224878141
 51
104.4775121859
  0
LINE
  5
5C
330
1F
100
AcDbEntity
  8
0
  6
Continuous
 62
     7
370
    15
100
AcDbLine
 10
13.5552376432
 20
755.556015646
 30
0.0
 11
13.5552376432
 21
731.3306123153
 31
0.0
  0
ARC
  5
5D
330
1F
100
AcDbEntity
  8
0
  6
Continuous
 62
     7
370
    15
100
AcDbCircle
 10
13.6552376432
 20
755.9433139806
 30
0.0
 40
0.3999999999999785
100
AcDbArc
 50
255.5224878141
 51
194.4775121859
  0
LINE
  5
5E
330
1F
100
AcDbEntity
  8
0
  6
Continuous
 62
     7
370
    15
100
AcDbLine
 10
7.5552376432
 20
755.8433139806
 30
0.0
 11
13.2679393086
 21
755.8433139806
 31
0.0
  0
LINE
  5
5F
330
1F
100
AcDbEntity
  8
0
  6
Continuous
 62
     7
370
    15
100
AcDbLine
 10
7.5552376432
 20
781.0433139806
 30
0.0
 11
7.5552376432
 21
755.8433139806
 31
0.0
  0
LINE
  5
60
330
1F
100
AcDbEntity
  8
0
  6
Continuous
 62
     7
370
    15
100
AcDbLine
 10
13.2679393086
 20
781.0433139806
 30
0.0
 11
7.5552376432
 21
781.0433139806
 31
0.0
  0
ARC
  5
61
330
1F
100
AcDbEntity
  8
0
  6
Continuous
 62
     7
370
    15
100
AcDbCircle
 10
13.6552376432
 20
780.9433139806
 30
0.0
 40
0.400000000000007
100
AcDbArc
 50
165.5224878141
 51
104.4775121859
  0
LINE
  5
62
330
1F
100
AcDbEntity
  8
0
  6
Continuous
 62
     7
370
    15
100
AcDbLine
 10
13.5552376432
 20
805.556015646
 30
0.0
 11
13.5552376432
 21
781.3306123153
 31
0.0
  0
ARC
  5
63
330
1F
100
AcDbEntity
  8
0
  6
Continuous
 62
     7
370
    15
100
AcDbCircle
 10
13.6552376432
 20
805.9433139806
 30
0.0
 40
0.400000000000007
100
AcDbArc
 50
255.5224878141
 51
194.4775121859
  0
LINE
  5
64
330
1F
100
AcDbEntity
  8
0
  6
Continuous
 62
     7
370
    15
100
AcDbLine
 10
7.5552376432
 20
805.8433139806
 30
0.0
 11
13.2679393086
 21
805.8433139806
 31
0.0
  0
LINE
  5
65
330
1F
100
AcDbEntity
  8
0
  6
Continuous
 62
     7
370
    15
100
AcDbLine
 10
7.5552376432
 20
831.0433139806
 30
0.0
 11
7.5552376432
 21
805.8433139806
 31
0.0
  0
LINE
  5
66
330
1F
100
AcDbEntity
  8
0
  6
Continuous
 62
     7
370
    15
100
AcDbLine
 10
13.2679393086
 20
831.0433139806
 30
0.0
 11
7.5552376432
 21
831.0433139806
 31
0.0
  0
ARC
  5
67
330
1F
100
AcDbEntity
  8
0
  6
Continuous
 62
     7
370
    15
100
AcDbCircle
 10
13.6552376432
 20
830.9433139806
 30
0.0
 40
0.400000000000007
100
AcDbArc
 50
165.5224878141
 51
104.4775121859
  0
LINE
  5
68
330
1F
100
AcDbEntity
  8
0
  6
Continuous
 62
     7
370
    15
100
AcDbLine
 10
13.5552376432
 20
855.556015646
 30
0.0
 11
13.5552376432
 21
831.3306123153
 31
0.0
  0
ARC
  5
69
330
1F
100
AcDbEntity
  8
0
  6
Continuous
 62
     7
370
    15
100
AcDbCircle
 10
13.6552376432
 20
855.9433139806
 30
0.0
 40
0.4000000000000044
100
AcDbArc
 50
255.5224878141
 51
194.4775121859
  0
LINE
  5
6A
330
1F
100
AcDbEntity
  8
0
  6
Continuous
 62
     7
370
    15
100
AcDbLine
 10
7.5552376432
 20
855.8433139806
 30
0.0
 11
13.2679393086
 21
855.8433139806
 31
0.0
  0
LINE
  5
6B
330
1F
100
AcDbEntity
  8
0
  6
Continuous
 62
     7
370
    15
100
AcDbLine
 10
7.5552376432
 20
881.0433139806
 30
0.0
 11
7.5552376432
 21
855.8433139806
 31
0.0
  0
LINE
  5
6C
330
1F
100
AcDbEntity
  8
0
  6
Continuous
 62
     7
370
    15
100
AcDbLine
 10
13.2679393086
 20
881.0433139806
 30
0.0
 11
7.5552376432
 21
881.0433139806
 31
0.0
  0
ARC
  5
6D
330
1F
100
AcDbEntity
  8
0
  6
Continuous
 62
     7
370
    15
100
AcDbCircle
 10
13.6552376432
 20
880.9433139806
 30
0.0
 40
0.400000000000007
100
AcDbArc
 50
165.5224878141
 51
104.4775121859
  0
LINE
  5
6E
330
1F
100
AcDbEntity
  8
0
  6
Continuous
 62
     7
370
    15
100
AcDbLine
 10
13.5552376432
 20
906.0433139806
 30
0.0
 11
13.5552376432
 21
881.3306123153
 31
0.0
  0
LINE
  5
6F
330
1F
100
AcDbEntity
  8
0
  6
Continuous
 62
     7
370
    15
100
AcDbLine
 10
43.1663462249
 20
906.0433139806
 30
0.0
 11
13.5552376432
 21
906.0433139806
 31
0.0
  0
LINE
  5
70
330
1F
100
AcDbEntity
  8
0
  6
Continuous
 62
     7
370
    15
100
AcDbLine
 10
43.6017605493
 20
899.950579737
 30
0.0
 11
43.1663462249
 21
906.0433139806
 31
0.0
  0
ARC
  5
71
330
1F
100
AcDbEntity
  8
0
  6
Continuous
 62
     7
370
    15
100
AcDbCircle
 10
45.1552389906
 20
898.690935052
 30
0.0
 40
2.000000032884266
100
AcDbArc
 50
140.9629834972
 51
0.0665286485
  0
LINE
  5
72
330
1F
100
AcDbEntity
  8
0
  6
Continuous
 62
     7
370
    15
100
AcDbLine
 10
47.1552376432
 20
906.0433139806
 30
0.0
 11
47.1552376753
 21
898.6932573395
 31
0.0
  0
LINE
  5
73
330
1F
100
AcDbEntity
  8
0
  6
Continuous
 62
     7
370
    15
100
AcDbLine
 10
177.1552376432
 20
906.0433139806
 30
0.0
 11
47.1552376432
 21
906.0433139806
 31
0.0
  0
LINE
  5
74
330
1F
100
AcDbEntity
  8
0
  6
Continuous
 62
     7
370
    15
100
AcDbLine
 10
177.1552376111
 20
898.6932573395
 30
0.0
 11
177.1552376432
 21
906.0433139806
 31
0.0
  0
ARC
  5
75
330
1F
100
AcDbEntity
  8
0
  6
Continuous
 62
     7
370
    15
100
AcDbCircle
 10
179.1552362957
 20
898.690935052
 30
0.0
 40
2.000000032884251
100
AcDbArc
 50
179.9334713515
 51
39.0370165028
  0
LINE
  5
76
330
1F
100
AcDbEntity
  8
0
  6
Continuous
 62
     7
370
    15
100
AcDbLine
 10
181.1441290615
 20
906.0433139806
 30
0.0
 11
180.7087147371
 21
899.950579737
 31
0.0
  0
LINE
  5
77
330
1F
100
AcDbEntity
  8
0
  6
Continuous
 62
     7
370
    15
100
AcDbLine
 10
216.7552376432
 20
906.0433139806
 30
0.0
 11
181.1441290615
 21
906.0433139806
 31
0.0
  0
LINE
  5
78
330
1F
100
AcDbEntity
  8
0
  6
Continuous
 62
     7
370
    15
100
AcDbLine
 10
216.7552376432
 20
880.8433139806
 30
0.0
 11
216.7552376432
 21
906.0433139806
 31
0.0
  0
LINE
  5
79
330
1F
100
AcDbEntity
  8
0
  6
Continuous
 62
     7
370
    15
100
AcDbLine
 10
211.0425359778
 20
880.8433139806
 30
0.0
 11
216.7552376432
 21
880.8433139806
 31
0.0
  0
ARC
  5
7A
330
1F
100
AcDbEntity
  8
0
  6
Continuous
 62
     7
370
    15
100
AcDbCircle
 10
210.6552376432
 20
880.9433139806
 30
0.0
 40
0.4000000000000009
100
AcDbArc
 50
345.5224878141
 51
284.4775121859
  0
LINE
  5
7B
330
1F
100
AcDbEntity
  8
0
  6
Continuous
 62
     7
370
    15
100
AcDbLine
 10
210.7552376432
 20
856.3306123153
 30
0.0
 11
210.7552376432
 21
880.556015646
 31
0.0
  0
ARC
  5
7C
330
1F
100
AcDbEntity
  8
0
  6
Continuous
 62
     7
370
    15
100
AcDbCircle
 10
210.6552376432
 20
855.9433139806
 30
0.0
 40
0.4000000000000773
100
AcDbArc
 50
75.5224878141
 51
14.4775121859
  0
LINE
  5
7D
330
1F
100
AcDbEntity
  8
0
  6
Continuous
 62
     7
370
    15
100
AcDbLine
 10
216.7552376432
 20
856.0433139806
 30
0.0
 11
211.0425359778
 21
856.0433139806
 31
0.0
  0
LINE
  5
7E
330
1F
100
AcDbEntity
  8
0
  6
Continuous
 62
     7
370
    15
100
AcDbLine
 10
216.7552376432
 20
830.8433139806
 30
0.0
 11
216.7552376432
 21
856.0433139806
 31
0.0
  0
LINE
  5
7F
330
1F
100
AcDbEntity
  8
0
  6
Continuous
 62
     7
370
    15
100
AcDbLine
 10
211.0425359778
 20
830.8433139806
 30
0.0
 11
216.7552376432
 21
830.8433139806
 31
0.0
  0
ARC
  5
80
330
1F
100
AcDbEntity
  8
0
  6
Continuous
 62
     7
370
    15
100
AcDbCircle
 10
210.6552376432
 20
830.9433139806
 30
0.0
 40
0.4000000000000293
100
AcDbArc
 50
345.5224878141
 51
284.4775121859
  0
LINE
  5
81
330
1F
100
AcDbEntity
  8
0
  6
Continuous
 62
     7
370
    15
100
AcDbLine
 10
210.7552376432
 20
806.3306123153
 30
0.0
 11
210.7552376432
 21
830.556015646
 31
0.0
  0
ARC
  5
82
330
1F
100
AcDbEntity
  8
0
  6
Continuous
 62
     7
370
    15
100
AcDbCircle
 10
210.6552376432
 20
805.9433139806
 30
0.0
 40
0.4000000000000009
100
AcDbArc
 50
75.5224878141
 51
14.4775121859
  0
LINE
  5
83
330
1F
100
AcDbEntity
  8
0
  6
Continuous
 62
     7
370
    15
100
AcDbLine
 10
216.7552376432
 20
806.0433139806
 30
0.0
 11
211.0425359778
 21
806.0433139806
 31
0.0
  0
LINE
  5
84
330
1F
100
AcDbEntity
  8
0
  6
Continuous
 62
     7
370
    15
100
AcDbLine
 10
216.7552376432
 20
780.8433139806
 30
0.0
 11
216.7552376432
 21
806.0433139806
 31
0.0
  0
LINE
  5
85
330
1F
100
AcDbEntity
  8
0
  6
Continuous
 62
     7
370
    15
100
AcDbLine
 10
211.0425359778
 20
780.8433139806
 30
0.0
 11
216.7552376432
 21
780.8433139806
 31
0.0
  0
ARC
  5
86
330
1F
100
AcDbEntity
  8
0
  6
Continuous
 62
     7
370
    15
100
AcDbCircle
 10
210.6552376432
 20
780.9433139806
 30
0.0
 40
0.4000000000000009
100
AcDbArc
 50
345.5224878141
 51
284.4775121859
  0
LINE
  5
87
330
1F
100
AcDbEntity
  8
0
  6
Continuous
 62
     7
370
    15
100
AcDbLine
 10
210.7552376432
 20
756.3306123153
 30
0.0
 11
210.7552376432
 21
780.556015646
 31
0.0
  0
ARC
  5
88
330
1F
100
AcDbEntity
  8
0
  6
Continuous
 62
     7
370
    15
100
AcDbCircle
 10
210.6552376432
 20
755.9433139806
 30
0.0
 40
0.4000000000000293
100
AcDbArc
 50
75.5224878141
 51
14.4775121859
  0
LINE
  5
89
330
1F
100
AcDbEntity
  8
0
  6
Continuous
 62
     7
370
    15
100
AcDbLine
 10
216.7552376432
 20
756.0433139806
 30
0.0
 11
211.0425359778
 21
756.0433139806
 31
0.0
  0
LINE
  5
8A
330
1F
100
AcDbEntity
  8
0
  6
Continuous
 62
     7
370
    15
100
AcDbLine
 10
216.7552376432
 20
730.8433139806
 30
0.0
 11
216.7552376432
 21
756.0433139806
 31
0.0
  0
LINE
  5
8B
330
1F
100
AcDbEntity
  8
0
  6
Continuous
 62
     7
370
    15
100
AcDbLine
 10
211.0425359778
 20
730.8433139806
 30
0.0
 11
216.7552376432
 21
730.8433139806
 31
0.0
  0
ARC
  5
8C
330
1F
100
AcDbEntity
  8
0
  6
Continuous
 62
     7
370
    15
100
AcDbCircle
 10
210.6552376432
 20
730.9433139806
 30
0.0
 40
0.4000000000000019
100
AcDbArc
 50
345.5224878141
 51
284.4775121859
  0
LINE
  5
8D
330
1F
100
AcDbEntity
  8
0
  6
Continuous
 62
     7
370
    15
100
AcDbLine
 10
210.7552376432
 20
706.3306123153
 30
0.0
 11
210.7552376432
 21
730.556015646
 31
0.0
  0
ARC
  5
8E
330
1F
100
AcDbEntity
  8
0
  6
Continuous
 62
     7
370
    15
100
AcDbCircle
 10
210.6552376432
 20
705.9433139806
 30
0.0
 40
0.4000000000000773
100
AcDbArc
 50
75.5224878141
 51
14.4775121859
  0
LINE
  5
8F
330
1F
100
AcDbEntity
  8
0
  6
Continuous
 62
     7
370
    15
100
AcDbLine
 10
216.7552376432
 20
706.0433139806
 30
0.0
 11
211.0425359778
 21
706.0433139806
 31
0.0
  0
LINE
  5
90
330
1F
100
AcDbEntity
  8
0
  6
Continuous
 62
     7
370
    15
100
AcDbLine
 10
216.7552376432
 20
680.8433139806
 30
0.0
 11
216.7552376432
 21
706.0433139806
 31
0.0
  0
LINE
  5
91
330
1F
100
AcDbEntity
  8
0
  6
Continuous
 62
     7
370
    15
100
AcDbLine
 10
211.0425359778
 20
680.8433139806
 30
0.0
 11
216.7552376432
 21
680.8433139806
 31
0.0
  0
ARC
  5
92
330
1F
100
AcDbEntity
  8
0
  6
Continuous
 62
     7
370
    15
100
AcDbCircle
 10
210.6552376432
 20
680.9433139806
 30
0.0
 40
0.4000000000000773
100
AcDbArc
 50
345.5224878141
 51
284.4775121859
  0
LINE
  5
93
330
1F
100
AcDbEntity
  8
0
  6
Continuous
 62
     7
370
    15
100
AcDbLine
 10
210.7552376432
 20
656.3306123153
 30
0.0
 11
210.7552376432
 21
680.556015646
 31
0.0
  0
ARC
  5
94
330
1F
100
AcDbEntity
  8
0
  6
Continuous
 62
     7
370
    15
100
AcDbCircle
 10
210.6552376432
 20
655.9433139806
 30
0.0
 40
0.4000000000000019
100
AcDbArc
 50
75.5224878141
 51
14.4775121859
  0
LINE
  5
95
330
1F
100
AcDbEntity
  8
0
  6
Continuous
 62
     7
370
    15
100
AcDbLine
 10
216.7552376432
 20
656.0433139806
 30
0.0
 11
211.0425359778
 21
656.0433139806
 31
0.0
  0
LINE
  5
96
330
1F
100
AcDbEntity
  8
0
  6
Continuous
 62
     7
370
    15
100
AcDbLine
 10
216.7552376432
 20
630.8433139806
 30
0.0
 11
216.7552376432
 21
656.0433139806
 31
0.0
  0
LINE
  5
97
330
1F
100
AcDbEntity
  8
0
  6
Continuous
 62
     7
370
    15
100
AcDbLine
 10
211.0425359778
 20
630.8433139806
 30
0.0
 11
216.7552376432
 21
630.8433139806
 31
0.0
  0
ARC
  5
98
330
1F
100
AcDbEntity
  8
0
  6
Continuous
 62
     7
370
    15
100
AcDbCircle
 10
210.6552376432
 20
630.9433139806
 30
0.0
 40
0.4000000000000009
100
AcDbArc
 50
345.5224878141
 51
284.4775121859
  0
LINE
  5
99
330
1F
100
AcDbEntity
  8
0
  6
Continuous
 62
     7
370
    15
100
AcDbLine
 10
210.7552376432
 20
605.8433139806
 30
0.0
 11
210.7552376432
 21
630.556015646
 31
0.0
  0
LINE
  5
9A
330
1F
100
AcDbEntity
  8
0
  6
Continuous
 62
     7
370
    15
100
AcDbLine
 10
181.251130146
 20
605.8433139806
 30
0.0
 11
210.7552376432
 21
605.8433139806
 31
0.0
  0
LINE
  5
9B
330
1F
100
AcDbEntity
  8
0
  6
Continuous
 62
     7
370
    15
100
AcDbLine
 10
180.7057061123
 20
613.4741625411
 30
0.0
 11
181.251130146
 21
605.8433139806
 31
0.0
  0
ARC
  5
9C
330
1F
100
AcDbEntity
  8
0
  6
Continuous
 62
     7
370
    15
100
AcDbCircle
 10
179.154784163
 20
614.7369535401
 30
0.0
 40
2.00000000000003
100
AcDbArc
 50
320.8468448352
 51
181.2201409359
  0
ARC
  5
9D
330
1F
100
AcDbEntity
  8
0
  6
Continuous
 62
     7
370
    15
100
AcDbCircle
 10
169.1552376432
 20
742.4433139806
 30
0.0
 40
15.0
100
AcDbArc
 50
270.0
 51
0.0
  0
LINE
  5
9E
330
1F
100
AcDbEntity
  8
0
  6
Continuous
 62
     7
370
    15
100
AcDbLine
 10
184.1552376432
 20
742.4433139806
 30
0.0
 11
184.1552376432
 21
846.4433139806
 31
0.0
  0
ARC
  5
9F
330
1F
100
AcDbEntity
  8
0
  6
Continuous
 62
     7
370
    15
100
AcDbCircle
 10
169.1552376432
 20
846.4433139806
 30
0.0
 40
15.0
100
AcDbArc
 50
0.0
 51
90.0
  0
LINE
  5
A0
330
1F
100
AcDbEntity
  8
0
  6
Continuous
 62
     7
370
    15
100
AcDbLine
 10
169.1552376432
 20
861.4433139806
 30
0.0
 11
55.1552376432
 21
861.4433139806
 31
0.0
  0
ARC
  5
A1
330
1F
100
AcDbEntity
  8
0
  6
Continuous
 62
     7
370
    15
100
AcDbCircle
 10
55.1552376432
 20
846.4433139806
 30
0.0
 40
15.0
100
AcDbArc
 50
90.0
 51
180.0
  0
LINE
  5
A2
330
1F
100
AcDbEntity
  8
0
  6
Continuous
 62
     7
370
    15
100
AcDbLine
 10
40.1552376432
 20
846.4433139806
 30
0.0
 11
40.1552376432
 21
742.4433139806
 31
0.0
  0
ARC
  5
A3
330
1F
100
AcDbEntity
  8
0
  6
Continuous
 62
     7
370
    15
100
AcDbCircle
 10
55.1552376432
 20
742.4433139806
 30
0.0
 40
15.0
100
AcDbArc
 50
180.0
 51
270.0
  0
LINE
  5
A4
330
1F
100
AcDbEntity
  8
0
  6
Continuous
 62
     7
370
    15
100
AcDbLine
 10
55.1552376432
 20
727.4433139806
 30
0.0
 11
169.1552376432
 21
727.4433139806
 31
0.0
  0
CIRCLE
  5
A5
330
1F
100
AcDbEntity
  8
0
  6
Continuous
 62
     7
370
    15
100
AcDbCircle
 10
31.1552376432
 20
868.4433139806
 30
0.0
 40
10.99999999999998
  0
CIRCLE
  5
A6
330
1F
100
AcDbEntity
  8
0
  6
Continuous
 62
     7
370
    15
100
AcDbCircle
 10
69.5052376432
 20
657.6933139806
 30
0.0
 40
3.749999999999986
  0
LINE
  5
A7
330
1F
100
AcDbEntity
  8
0
  6
Continuous
 62
     7
370
    15
100
AcDbLine
 10
105.4552376432
 20
684.7933139806
 30
0.0
 11
105.4552376432
 21
709.5433139806
 31
0.0
  0
LINE
  5
A8
330
1F
100
AcDbEntity
  8
0
  6
Continuous
 62
     7
370
    15
100
AcDbLine
 10
105.4552376432
 20
709.5433139806
 30
0.0
 11
33.6552376432
 21
709.5433139806
 31
0.0
  0
LINE
  5
A9
330
1F
100
AcDbEntity
  8
0
  6
Continuous
 62
     7
370
    15
100
AcDbLine
 10
33.6552376432
 20
709.5433139806
 30
0.0
 11
33.6552376432
 21
684.7933139806
 31
0.0
  0
LINE
  5
AA
330
1F
100
AcDbEntity
  8
0
  6
Continuous
 62
     7
370
    15
100
AcDbLine
 10
33.6552376432
 20
684.7933139806
 30
0.0
 11
105.4552376432
 21
684.7933139806
 31
0.0
  0
ARC
  5
AB
330
1F
100
AcDbEntity
  8
0
  6
Continuous
 62
     7
370
    15
100
AcDbCircle
 10
32.0282376432
 20
711.7923139806
 30
0.0
 40
1.500000000000004
100
AcDbArc
 50
180.0
 51
0.0
  0
LINE
  5
AC
330
1F
100
AcDbEntity
  8
0
  6
Continuous
 62
     7
370
    15
100
AcDbLine
 10
33.5282376432
 20
711.7923139806
 30
0.0
 11
33.5282376432
 21
713.5423139806
 31
0.0
  0
ARC
  5
AD
330
1F
100
AcDbEntity
  8
0
  6
Continuous
 62
     7
370
    15
100
AcDbCircle
 10
32.0282376432
 20
713.5423139806
 30
0.0
 40
1.500000000000004
100
AcDbArc
 50
0.0
 51
180.0
  0
LINE
  5
AE
330
1F
100
AcDbEntity
  8
0
  6
Continuous
 62
     7
370
    15
100
AcDbLine
 10
30.5282376432
 20
713.5423139806
 30
0.0
 11
30.5282376432
 21
711.7923139806
 31
0.0
  0
ARC
  5
AF
330
1F
100
AcDbEntity
  8
0
  6
Continuous
 62
     7
370
    15
100
AcDbCircle
 10
107.0282376432
 20
711.7923139806
 30
0.0
 40
1.5
100
AcDbArc
 50
180.0
 51
0.0
  0
LINE
  5
B0
330
1F
100
AcDbEntity
  8
0
  6
Continuous
 62
     7
370
    15
100
AcDbLine
 10
108.5282376432
 20
711.7923139806
 30
0.0
 11
108.5282376432
 21
713.5423139806
 31
0.0
  0
ARC
  5
B1
330
1F
100
AcDbEntity
  8
0
  6
Continuous
 62
     7
370
    15
100
AcDbCircle
 10
107.0282376432
 20
713.5423139806
 30
0.0
 40
1.5
100
AcDbArc
 50
0.0
 51
180.0
  0
LINE
  5
B2
330
1F
100
AcDbEntity
  8
0
  6
Continuous
 62
     7
370
    15
100
AcDbLine
 10
105.5282376432
 20
713.5423139806
 30
0.0
 11
105.5282376432
 21
711.7923139806
 31
0.0
  0
ARC
  5
B3
330
1F
100
AcDbEntity
  8
0
  6
Continuous
 62
     7
370
    15
100
AcDbCircle
 10
107.0282376432
 20
680.7923139806
 30
0.0
 40
1.5
100
AcDbArc
 50
180.0
 51
0.0
  0
LINE
  5
B4
330
1F
100
AcDbEntity
  8
0
  6
Continuous
 62
     7
370
    15
100
AcDbLine
 10
108.5282376432
 20
680.7923139806
 30
0.0
 11
108.5282376432
 21
682.5423139806
 31
0.0
  0
ARC
  5
B5
330
1F
100
AcDbEntity
  8
0
  6
Continuous
 62
     7
370
    15
100
AcDbCircle
 10
107.0282376432
 20
682.5423139806
 30
0.0
 40
1.5
100
AcDbArc
 50
0.0
 51
180.0
  0
LINE
  5
B6
330
1F
100
AcDbEntity
  8
0
  6
Continuous
 62
     7
370
    15
100
AcDbLine
 10
105.5282376432
 20
682.5423139806
 30
0.0
 11
105.5282376432
 21
680.7923139806
 31
0.0
  0
ARC
  5
B7
330
1F
100
AcDbEntity
  8
0
  6
Continuous
 62
     7
370
    15
100
AcDbCircle
 10
32.0282376432
 20
680.7923139806
 30
0.0
 40
1.500000000000004
100
AcDbArc
 50
180.0
 51
0.0
  0
LINE
  5
B8
330
1F
100
AcDbEntity
  8
0
  6
Continuous
 62
     7
370
    15
100
AcDbLine
 10
33.5282376432
 20
680.7923139806
 30
0.0
 11
33.5282376432
 21
682.5423139806
 31
0.0
  0
ARC
  5
B9
330
1F
100
AcDbEntity
  8
0
  6
Continuous
 62
     7
370
    15
100
AcDbCircle
 10
32.0282376432
 20
682.5423139806
 30
0.0
 40
1.500000000000004
100
AcDbArc
 50
0.0
 51
180.0
  0
LINE
  5
BA
330
1F
100
AcDbEntity
  8
0
  6
Continuous
 62
     7
370
    15
100
AcDbLine
 10
30.5282376432
 20
682.5423139806
 30
0.0
 11
30.5282376432
 21
680.7923139806
 31
0.0
  0
CIRCLE
  5
BB
330
1F
100
AcDbEntity
  8
0
  6
Continuous
 62
     7
370
    15
100
AcDbCircle
 10
194.5552376432
 20
747.9433139806
 30
0.0
 40
4.0
  0
LINE
  5
BC
330
1F
100
AcDbEntity
  8
0
  6
Continuous
 62
     7
370
    15
100
AcDbLine
 10
609.3787125417
 20
606.3549313547
 30
0.0
 11
609.3787125096
 21
613.7049879958
 31
0.0
  0
LINE
  5
BD
330
1F
100
AcDbEntity
  8
0
  6
Continuous
 62
     7
370
    15
100
AcDbLine
 10
479.3787125417
 20
606.3549313547
 30
0.0
 11
609.3787125417
 21
606.3549313547
 31
0.0
  0
LINE
  5
BE
330
1F
100
AcDbEntity
  8
0
  6
Continuous
 62
     7
370
    15
100
AcDbLine
 10
479.3787125738
 20
613.7049879958
 30
0.0
 11
479.3787125417
 21
606.3549313547
 31
0.0
  0
ARC
  5
BF
330
1F
100
AcDbEntity
  8
0
  6
Continuous
 62
     7
370
    15
100
AcDbCircle
 10
477.3787138892
 20
613.7073102833
 30
0.0
 40
2.000000032884251
100
AcDbArc
 50
359.9334713515
 51
219.0370165028
  0
LINE
  5
C0
330
1F
100
AcDbEntity
  8
0
  6
Continuous
 62
     7
370
    15
100
AcDbLine
 10
475.3898211234
 20
606.3549313547
 30
0.0
 11
475.8252354478
 21
612.4476655983
 31
0.0
  0
LINE
  5
C1
330
1F
100
AcDbEntity
  8
0
  6
Continuous
 62
     7
370
    15
100
AcDbLine
 10
439.7787125417
 20
606.3549313547
 30
0.0
 11
475.3898211234
 21
606.3549313547
 31
0.0
  0
LINE
  5
C2
330
1F
100
AcDbEntity
  8
0
  6
Continuous
 62
     7
370
    15
100
AcDbLine
 10
439.7787125417
 20
631.5549313547
 30
0.0
 11
439.7787125417
 21
606.3549313547
 31
0.0
  0
LINE
  5
C3
330
1F
100
AcDbEntity
  8
0
  6
Continuous
 62
     7
370
    15
100
AcDbLine
 10
445.4914142071
 20
631.5549313547
 30
0.0
 11
439.7787125417
 21
631.5549313547
 31
0.0
  0
ARC
  5
C4
330
1F
100
AcDbEntity
  8
0
  6
Continuous
 62
     7
370
    15
100
AcDbCircle
 10
445.8787125417
 20
631.4549313547
 30
0.0
 40
0.4000000000000844
100
AcDbArc
 50
165.5224878141
 51
104.4775121859
  0
LINE
  5
C5
330
1F
100
AcDbEntity
  8
0
  6
Continuous
 62
     7
370
    15
100
AcDbLine
 10
445.7787125417
 20
656.06763302
 30
0.0
 11
445.7787125417
 21
631.8422296893
 31
0.0
  0
ARC
  5
C6
330
1F
100
AcDbEntity
  8
0
  6
Continuous
 62
     7
370
    15
100
AcDbCircle
 10
445.8787125417
 20
656.4549313547
 30
0.0
 40
0.3999999999999743
100
AcDbArc
 50
255.5224878141
 51
194.4775121859
  0
LINE
  5
C7
330
1F
100
AcDbEntity
  8
0
  6
Continuous
 62
     7
370
    15
100
AcDbLine
 10
439.7787125417
 20
656.3549313547
 30
0.0
 11
445.4914142071
 21
656.3549313547
 31
0.0
  0
LINE
  5
C8
330
1F
100
AcDbEntity
  8
0
  6
Continuous
 62
     7
370
    15
100
AcDbLine
 10
439.7787125417
 20
681.5549313547
 30
0.0
 11
439.7787125417
 21
656.3549313547
 31
0.0
  0
LINE
  5
C9
330
1F
100
AcDbEntity
  8
0
  6
Continuous
 62
     7
370
    15
100
AcDbLine
 10
445.4914142071
 20
681.5549313547
 30
0.0
 11
439.7787125417
 21
681.5549313547
 31
0.0
  0
ARC
  5
CA
330
1F
100
AcDbEntity
  8
0
  6
Continuous
 62
     7
370
    15
100
AcDbCircle
 10
445.8787125417
 20
681.4549313547
 30
0.0
 40
0.4000000000000844
100
AcDbArc
 50
165.5224878141
 51
104.4775121859
  0
LINE
  5
CB
330
1F
100
AcDbEntity
  8
0
  6
Continuous
 62
     7
370
    15
100
AcDbLine
 10
445.7787125417
 20
706.06763302
 30
0.0
 11
445.7787125417
 21
681.8422296893
 31
0.0
  0
ARC
  5
CC
330
1F
100
AcDbEntity
  8
0
  6
Continuous
 62
     7
370
    15
100
AcDbCircle
 10
445.8787125417
 20
706.4549313547
 30
0.0
 40
0.3999999999999743
100
AcDbArc
 50
255.5224878141
 51
194.4775121859
  0
LINE
  5
CD
330
1F
100
AcDbEntity
  8
0
  6
Continuous
 62
     7
370
    15
100
AcDbLine
 10
439.7787125417
 20
706.3549313547
 30
0.0
 11
445.4914142071
 21
706.3549313547
 31
0.0
  0
LINE
  5
CE
330
1F
100
AcDbEntity
  8
0
  6
Continuous
 62
     7
370
    15
100
AcDbLine
 10
439.7787125417
 20
731.5549313547
 30
0.0
 11
439.7787125417
 21
706.3549313547
 31
0.0
  0
LINE
  5
CF
330
1F
100
AcDbEntity
  8
0
  6
Continuous
 62
     7
370
    15
100
AcDbLine
 10
445.4914142071
 20
731.5549313547
 30
0.0
 11
439.7787125417
 21
731.5549313547
 31
0.0
  0
ARC
  5
D0
330
1F
100
AcDbEntity
  8
0
  6
Continuous
 62
     7
370
    15
100
AcDbCircle
 10
445.8787125417
 20
731.4549313547
 30
0.0
 40
0.3999999999999459
100
AcDbArc
 50
165.5224878141
 51
104.4775121859
  0
LINE
  5
D1
330
1F
100
AcDbEntity
  8
0
  6
Continuous
 62
     7
370
    15
100
AcDbLine
 10
445.7787125417
 20
756.06763302
 30
0.0
 11
445.7787125417
 21
731.8422296893
 31
0.0
  0
ARC
  5
D2
330
1F
100
AcDbEntity
  8
0
  6
Continuous
 62
     7
370
    15
100
AcDbCircle
 10
445.8787125417
 20
756.4549313547
 30
0.0
 40
0.4000000000000844
100
AcDbArc
 50
255.5224878141
 51
194.4775121859
  0
LINE
  5
D3
330
1F
100
AcDbEntity
  8
0
  6
Continuous
 62
     7
370
    15
100
AcDbLine
 10
439.7787125417
 20
756.3549313547
 30
0.0
 11
445.4914142071
 21
756.3549313547
 31
0.0
  0
LINE
  5
D4
330
1F
100
AcDbEntity
  8
0
  6
Continuous
 62
     7
370
    15
100
AcDbLine
 10
439.7787125417
 20
781.5549313547
 30
0.0
 11
439.7787125417
 21
756.3549313547
 31
0.0
  0
LINE
  5
D5
330
1F
100
AcDbEntity
  8
0
  6
Continuous
 62
     7
370
    15
100
AcDbLine
 10
445.4914142071
 20
781.5549313547
 30
0.0
 11
439.7787125417
 21
781.5549313547
 31
0.0
  0
ARC
  5
D6
330
1F
100
AcDbEntity
  8
0
  6
Continuous
 62
     7
370
    15
100
AcDbCircle
 10
445.8787125417
 20
781.4549313547
 30
0.0
 40
0.3999999999999743
100
AcDbArc
 50
165.5224878141
 51
104.4775121859
  0
LINE
  5
D7
330
1F
100
AcDbEntity
  8
0
  6
Continuous
 62
     7
370
    15
100
AcDbLine
 10
445.7787125417
 20
806.06763302
 30
0.0
 11
445.7787125417
 21
781.8422296893
 31
0.0
  0
ARC
  5
D8
330
1F
100
AcDbEntity
  8
0
  6
Continuous
 62
     7
370
    15
100
AcDbCircle
 10
445.8787125417
 20
806.4549313547
 30
0.0
 40
0.4000000000000844
100
AcDbArc
 50
255.5224878141
 51
194.4775121859
  0
LINE
  5
D9
330
1F
100
AcDbEntity
  8
0
  6
Continuous
 62
     7
370
    15
100
AcDbLine
 10
439.7787125417
 20
806.3549313547
 30
0.0
 11
445.4914142071
 21
806.3549313547
 31
0.0
  0
LINE
  5
DA
330
1F
100
AcDbEntity
  8
0
  6
Continuous
 62
     7
370
    15
100
AcDbLine
 10
439.7787125417
 20
831.5549313547
 30
0.0
 11
439.7787125417
 21
806.3549313547
 31
0.0
  0
LINE
  5
DB
330
1F
100
AcDbEntity
  8
0
  6
Continuous
 62
     7
370
    15
100
AcDbLine
 10
445.4914142071
 20
831.5549313547
 30
0.0
 11
439.7787125417
 21
831.5549313547
 31
0.0
  0
ARC
  5
DC
330
1F
100
AcDbEntity
  8
0
  6
Continuous
 62
     7
370
    15
100
AcDbCircle
 10
445.8787125417
 20
831.4549313547
 30
0.0
 40
0.3999999999999743
100
AcDbArc
 50
165.5224878141
 51
104.4775121859
  0
LINE
  5
DD
330
1F
100
AcDbEntity
  8
0
  6
Continuous
 62
     7
370
    15
100
AcDbLine
 10
445.7787125417
 20
856.06763302
 30
0.0
 11
445.7787125417
 21
831.8422296893
 31
0.0
  0
ARC
  5
DE
330
1F
100
AcDbEntity
  8
0
  6
Continuous
 62
     7
370
    15
100
AcDbCircle
 10
445.8787125417
 20
856.4549313547
 30
0.0
 40
0.4000000000000844
100
AcDbArc
 50
255.5224878141
 51
194.4775121859
  0
LINE
  5
DF
330
1F
100
AcDbEntity
  8
0
  6
Continuous
 62
     7
370
    15
100
AcDbLine
 10
439.7787125417
 20
856.3549313547
 30
0.0
 11
445.4914142071
 21
856.3549313547
 31
0.0
  0
LINE
  5
E0
330
1F
100
AcDbEntity
  8
0
  6
Continuous
 62
     7
370
    15
100
AcDbLine
 10
439.7787125417
 20
881.5549313547
 30
0.0
 11
439.7787125417
 21
856.3549313547
 31
0.0
  0
LINE
  5
E1
330
1F
100
AcDbEntity
  8
0
  6
Continuous
 62
     7
370
    15
100
AcDbLine
 10
445.4914142071
 20
881.5549313547
 30
0.0
 11
439.7787125417
 21
881.5549313547
 31
0.0
  0
ARC
  5
E2
330
1F
100
AcDbEntity
  8
0
  6
Continuous
 62
     7
370
    15
100
AcDbCircle
 10
445.8787125417
 20
881.4549313547
 30
0.0
 40
0.3999999999999743
100
AcDbArc
 50
165.5224878141
 51
104.4775121859
  0
LINE
  5
E3
330
1F
100
AcDbEntity
  8
0
  6
Continuous
 62
     7
370
    15
100
AcDbLine
 10
445.7787125417
 20
906.5549313547
 30
0.0
 11
445.7787125417
 21
881.8422296893
 31
0.0
  0
LINE
  5
E4
330
1F
100
AcDbEntity
  8
0
  6
Continuous
 62
     7
370
    15
100
AcDbLine
 10
475.2828324242
 20
906.5549313547
 30
0.0
 11
445.7787125417
 21
906.5549313547
 31
0.0
  0
LINE
  5
E5
330
1F
100
AcDbEntity
  8
0
  6
Continuous
 62
     7
370
    15
100
AcDbLine
 10
475.8272361629
 20
898.9241208198
 30
0.0
 11
475.2828324242
 21
906.5549313547
 31
0.0
  0
ARC
  5
E6
330
1F
100
AcDbEntity
  8
0
  6
Continuous
 62
     7
370
    15
100
AcDbCircle
 10
477.3791405029
 20
897.662537323
 30
0.0
 40
2.000000000000022
100
AcDbArc
 50
140.8914395185
 51
1.1853117216
  0
LINE
  5
E7
330
1F
100
AcDbEntity
  8
0
  6
Continuous
 62
     7
370
    15
100
AcDbLine
 10
479.3787125417
 20
906.5549313547
 30
0.0
 11
479.3787125417
 21
897.7039095562
 31
0.0
  0
LINE
  5
E8
330
1F
100
AcDbEntity
  8
0
  6
Continuous
 62
     7
370
    15
100
AcDbLine
 10
609.3787125417
 20
906.5549313547
 30
0.0
 11
479.3787125417
 21
906.5549313547
 31
0.0
  0
LINE
  5
E9
330
1F
100
AcDbEntity
  8
0
  6
Continuous
 62
     7
370
    15
100
AcDbLine
 10
609.3787125417
 20
897.7039095562
 30
0.0
 11
609.3787125417
 21
906.5549313547
 31
0.0
  0
ARC
  5
EA
330
1F
100
AcDbEntity
  8
0
  6
Continuous
 62
     7
370
    15
100
AcDbCircle
 10
611.3782845805
 20
897.662537323
 30
0.0
 40
1.999999999999997
100
AcDbArc
 50
178.8146882785
 51
39.1085604815
  0
LINE
  5
EB
330
1F
100
AcDbEntity
  8
0
  6
Continuous
 62
     7
370
    15
100
AcDbLine
 10
613.4745926592
 20
906.5549313547
 30
0.0
 11
612.9301889205
 21
898.9241208198
 31
0.0
  0
LINE
  5
EC
330
1F
100
AcDbEntity
  8
0
  6
Continuous
 62
     7
370
    15
100
AcDbLine
 10
648.9787125417
 20
906.5549313547
 30
0.0
 11
613.4745926592
 21
906.5549313547
 31
0.0
  0
LINE
  5
ED
330
1F
100
AcDbEntity
  8
0
  6
Continuous
 62
     7
370
    15
100
AcDbLine
 10
648.9787125417
 20
881.3549313547
 30
0.0
 11
648.9787125417
 21
906.5549313547
 31
0.0
  0
LINE
  5
EE
330
1F
100
AcDbEntity
  8
0
  6
Continuous
 62
     7
370
    15
100
AcDbLine
 10
643.2660108763
 20
881.3549313547
 30
0.0
 11
648.9787125417
 21
881.3549313547
 31
0.0
  0
ARC
  5
EF
330
1F
100
AcDbEntity
  8
0
  6
Continuous
 62
     7
370
    15
100
AcDbCircle
 10
642.8787125417
 20
881.4549313547
 30
0.0
 40
0.4000000000000844
100
AcDbArc
 50
345.5224878141
 51
284.4775121859
  0
LINE
  5
F0
330
1F
100
AcDbEntity
  8
0
  6
Continuous
 62
     7
370
    15
100
AcDbLine
 10
642.9787125417
 20
856.8422296893
 30
0.0
 11
642.9787125417
 21
881.06763302
 31
0.0
  0
ARC
  5
F1
330
1F
100
AcDbEntity
  8
0
  6
Continuous
 62
     7
370
    15
100
AcDbCircle
 10
642.8787125417
 20
856.4549313547
 30
0.0
 40
0.3999999999999991
100
AcDbArc
 50
75.5224878141
 51
14.4775121859
  0
LINE
  5
F2
330
1F
100
AcDbEntity
  8
0
  6
Continuous
 62
     7
370
    15
100
AcDbLine
 10
648.9787125417
 20
856.5549313547
 30
0.0
 11
643.2660108763
 21
856.5549313547
 31
0.0
  0
LINE
  5
F3
330
1F
100
AcDbEntity
  8
0
  6
Continuous
 62
     7
370
    15
100
AcDbLine
 10
648.9787125417
 20
831.3549313547
 30
0.0
 11
648.9787125417
 21
856.5549313547
 31
0.0
  0
LINE
  5
F4
330
1F
100
AcDbEntity
  8
0
  6
Continuous
 62
     7
370
    15
100
AcDbLine
 10
643.2660108763
 20
831.3549313547
 30
0.0
 11
648.9787125417
 21
831.3549313547
 31
0.0
  0
ARC
  5
F5
330
1F
100
AcDbEntity
  8
0
  6
Continuous
 62
     7
370
    15
100
AcDbCircle
 10
642.8787125417
 20
831.4549313547
 30
0.0
 40
0.4000000000000844
100
AcDbArc
 50
345.5224878141
 51
284.4775121859
  0
LINE
  5
F6
330
1F
100
AcDbEntity
  8
0
  6
Continuous
 62
     7
370
    15
100
AcDbLine
 10
642.9787125417
 20
806.8422296893
 30
0.0
 11
642.9787125417
 21
831.06763302
 31
0.0
  0
ARC
  5
F7
330
1F
100
AcDbEntity
  8
0
  6
Continuous
 62
     7
370
    15
100
AcDbCircle
 10
642.8787125417
 20
806.4549313547
 30
0.0
 40
0.4000000000000844
100
AcDbArc
 50
75.5224878141
 51
14.4775121859
  0
LINE
  5
F8
330
1F
100
AcDbEntity
  8
0
  6
Continuous
 62
     7
370
    15
100
AcDbLine
 10
648.9787125417
 20
806.5549313547
 30
0.0
 11
643.2660108763
 21
806.5549313547
 31
0.0
  0
LINE
  5
F9
330
1F
100
AcDbEntity
  8
0
  6
Continuous
 62
     7
370
    15
100
AcDbLine
 10
648.9787125417
 20
781.3549313547
 30
0.0
 11
648.9787125417
 21
806.5549313547
 31
0.0
  0
LINE
  5
FA
330
1F
100
AcDbEntity
  8
0
  6
Continuous
 62
     7
370
    15
100
AcDbLine
 10
643.2660108763
 20
781.3549313547
 30
0.0
 11
648.9787125417
 21
781.3549313547
 31
0.0
  0
ARC
  5
FB
330
1F
100
AcDbEntity
  8
0
  6
Continuous
 62
     7
370
    15
100
AcDbCircle
 10
642.8787125417
 20
781.4549313547
 30
0.0
 40
0.4000000000000844
100
AcDbArc
 50
345.5224878141
 51
284.4775121859
  0
LINE
  5
FC
330
1F
100
AcDbEntity
  8
0
  6
Continuous
 62
     7
370
    15
100
AcDbLine
 10
642.9787125417
 20
756.8422296893
 30
0.0
 11
642.9787125417
 21
781.06763302
 31
0.0
  0
ARC
  5
FD
330
1F
100
AcDbEntity
  8
0
  6
Continuous
 62
     7
370
    15
100
AcDbCircle
 10
642.8787125417
 20
756.4549313547
 30
0.0
 40
0.4000000000000844
100
AcDbArc
 50
75.5224878141
 51
14.4775121859
  0
LINE
  5
FE
330
1F
100
AcDbEntity
  8
0
  6
Continuous
 62
     7
370
    15
100
AcDbLine
 10
648.9787125417
 20
756.5549313547
 30
0.0
 11
643.2660108763
 21
756.5549313547
 31
0.0
  0
LINE
  5
FF
330
1F
100
AcDbEntity
  8
0
  6
Continuous
 62
     7
370
    15
100
AcDbLine
 10
648.9787125417
 20
731.3549313547
 30
0.0
 11
648.9787125417
 21
756.5549313547
 31
0.0
  0
LINE
  5
100
330
1F
100
AcDbEntity
  8
0
  6
Continuous
 62
     7
370
    15
100
AcDbLine
 10
643.2660108763
 20
731.3549313547
 30
0.0
 11
648.9787125417
 21
731.3549313547
 31
0.0
  0
ARC
  5
101
330
1F
100
AcDbEntity
  8
0
  6
Continuous
 62
     7
370
    15
100
AcDbCircle
 10
642.8787125417
 20
731.4549313547
 30
0.0
 40
0.4000000000000844
100
AcDbArc
 50
345.5224878141
 51
284.4775121859
  0
LINE
  5
102
330
1F
100
AcDbEntity
  8
0
  6
Continuous
 62
     7
370
    15
100
AcDbLine
 10
642.9787125417
 20
706.8422296893
 30
0.0
 11
642.9787125417
 21
731.06763302
 31
0.0
  0
ARC
  5
103
330
1F
100
AcDbEntity
  8
0
  6
Continuous
 62
     7
370
    15
100
AcDbCircle
 10
642.8787125417
 20
706.4549313547
 30
0.0
 40
0.4000000000000844
100
AcDbArc
 50
75.5224878141
 51
14.4775121859
  0
LINE
  5
104
330
1F
100
AcDbEntity
  8
0
  6
Continuous
 62
     7
370
    15
100
AcDbLine
 10
648.9787125417
 20
706.5549313547
 30
0.0
 11
643.2660108763
 21
706.5549313547
 31
0.0
  0
LINE
  5
105
330
1F
100
AcDbEntity
  8
0
  6
Continuous
 62
     7
370
    15
100
AcDbLine
 10
648.9787125417
 20
681.3549313547
 30
0.0
 11
648.9787125417
 21
706.5549313547
 31
0.0
  0
LINE
  5
106
330
1F
100
AcDbEntity
  8
0
  6
Continuous
 62
     7
370
    15
100
AcDbLine
 10
643.2660108763
 20
681.3549313547
 30
0.0
 11
648.9787125417
 21
681.3549313547
 31
0.0
  0
ARC
  5
107
330
1F
100
AcDbEntity
  8
0
  6
Continuous
 62
     7
370
    15
100
AcDbCircle
 10
642.8787125417
 20
681.4549313547
 30
0.0
 40
0.4000000000000844
100
AcDbArc
 50
345.5224878141
 51
284.4775121859
  0
LINE
  5
108
330
1F
100
AcDbEntity
  8
0
  6
Continuous
 62
     7
370
    15
100
AcDbLine
 10
642.9787125417
 20
656.8422296893
 30
0.0
 11
642.9787125417
 21
681.06763302
 31
0.0
  0
ARC
  5
109
330
1F
100
AcDbEntity
  8
0
  6
Continuous
 62
     7
370
    15
100
AcDbCircle
 10
642.8787125417
 20
656.4549313547
 30
0.0
 40
0.400000000000056
100
AcDbArc
 50
75.5224878141
 51
14.4775121859
  0
LINE
  5
10A
330
1F
100
AcDbEntity
  8
0
  6
Continuous
 62
     7
370
    15
100
AcDbLine
 10
648.9787125417
 20
656.5549313547
 30
0.0
 11
643.2660108763
 21
656.5549313547
 31
0.0
  0
LINE
  5
10B
330
1F
100
AcDbEntity
  8
0
  6
Continuous
 62
     7
370
    15
100
AcDbLine
 10
648.9787125417
 20
631.3549313547
 30
0.0
 11
648.9787125417
 21
656.5549313547
 31
0.0
  0
LINE
  5
10C
330
1F
100
AcDbEntity
  8
0
  6
Continuous
 62
     7
370
    15
100
AcDbLine
 10
643.2660108763
 20
631.3549313547
 30
0.0
 11
648.9787125417
 21
631.3549313547
 31
0.0
  0
ARC
  5
10D
330
1F
100
AcDbEntity
  8
0
  6
Continuous
 62
     7
370
    15
100
AcDbCircle
 10
642.8787125417
 20
631.4549313547
 30
0.0
 40
0.4000000000000844
100
AcDbArc
 50
345.5224878141
 51
284.4775121859
  0
LINE
  5
10E
330
1F
100
AcDbEntity
  8
0
  6
Continuous
 62
     7
370
    15
100
AcDbLine
 10
642.9787125417
 20
606.3549313547
 30
0.0
 11
642.9787125417
 21
631.06763302
 31
0.0
  0
LINE
  5
10F
330
1F
100
AcDbEntity
  8
0
  6
Continuous
 62
     7
370
    15
100
AcDbLine
 10
613.36760396
 20
606.3549313547
 30
0.0
 11
642.9787125417
 21
606.3549313547
 31
0.0
  0
LINE
  5
110
330
1F
100
AcDbEntity
  8
0
  6
Continuous
 62
     7
370
    15
100
AcDbLine
 10
612.9321896356
 20
612.4476655983
 30
0.0
 11
613.36760396
 21
606.3549313547
 31
0.0
  0
ARC
  5
111
330
1F
100
AcDbEntity
  8
0
  6
Continuous
 62
     7
370
    15
100
AcDbCircle
 10
611.3787111942
 20
613.7073102833
 30
0.0
 40
2.000000032884251
100
AcDbArc
 50
320.9629834972
 51
180.0665286485
  0
CIRCLE
  5
112
330
1F
100
AcDbEntity
  8
0
  6
Continuous
 62
     7
370
    15
100
AcDbCircle
 10
463.3787125417
 20
643.9549313547
 30
0.0
 40
10.89999999999998
  0
CIRCLE
  5
113
330
1F
100
AcDbEntity
  8
0
  6
Continuous
 62
     7
370
    15
100
AcDbCircle
 10
461.3787125417
 20
835.9549313547
 30
0.0
 40
10.0
  0
CIRCLE
  5
114
330
1F
100
AcDbEntity
  8
0
  6
Continuous
 62
     7
370
    15
100
AcDbCircle
 10
461.3787125417
 20
865.9549313547
 30
0.0
 40
10.0
  0
CIRCLE
  5
115
330
1F
100
AcDbEntity
  8
0
  6
Continuous
 62
     7
370
    15
100
AcDbCircle
 10
625.3787125417
 20
643.9549313547
 30
0.0
 40
11.0
  0
ARC
  5
116
330
1F
100
AcDbEntity
  8
0
  6
Continuous
 62
     7
370
    15
100
AcDbCircle
 10
470.8787125417
 20
699.9549313547
 30
0.0
 40
11.0
100
AcDbArc
 50
180.0
 51
0.0
  0
LINE
  5
117
330
1F
100
AcDbEntity
  8
0
  6
Continuous
 62
     7
370
    15
100
AcDbLine
 10
481.8787125417
 20
699.9549313547
 30
0.0
 11
481.8787125417
 21
721.9549313547
 31
0.0
  0
ARC
  5
118
330
1F
100
AcDbEntity
  8
0
  6
Continuous
 62
     7
370
    15
100
AcDbCircle
 10
470.8787125417
 20
721.9549313547
 30
0.0
 40
11.0
100
AcDbArc
 50
0.0
 51
180.0
  0
LINE
  5
119
330
1F
100
AcDbEntity
  8
0
  6
Continuous
 62
     7
370
    15
100
AcDbLine
 10
459.8787125417
 20
721.9549313547
 30
0.0
 11
459.8787125417
 21
699.9549313547
 31
0.0
  0
ARC
  5
11A
330
1F
100
AcDbEntity
  8
0
  6
Continuous
 62
     7
370
    15
100
AcDbCircle
 10
455.3787125417
 20
715.9549313547
 30
0.0
 40
1.649999999999977
100
AcDbArc
 50
180.0
 51
0.0
  0
LINE
  5
11B
330
1F
100
AcDbEntity
  8
0
  6
Continuous
 62
     7
370
    15
100
AcDbLine
 10
457.0287125417
 20
715.9549313547
 30
0.0
 11
457.0287125417
 21
737.9549313547
 31
0.0
  0
ARC
  5
11C
330
1F
100
AcDbEntity
  8
0
  6
Continuous
 62
     7
370
    15
100
AcDbCircle
 10
455.3787125417
 20
737.9549313547
 30
0.0
 40
1.649999999999977
100
AcDbArc
 50
0.0
 51
180.0
  0
LINE
  5
11D
330
1F
100
AcDbEntity
  8
0
  6
Continuous
 62
     7
370
    15
100
AcDbLine
 10
453.7287125417
 20
737.9549313547
 30
0.0
 11
453.7287125417
 21
715.9549313547
 31
0.0
  0
ARC
  5
11E
330
1F
100
AcDbEntity
  8
0
  6
Continuous
 62
     7
370
    15
100
AcDbCircle
 10
486.3787125417
 20
715.9549313547
 30
0.0
 40
1.649999999999977
100
AcDbArc
 50
180.0
 51
0.0
  0
LINE
  5
11F
330
1F
100
AcDbEntity
  8
0
  6
Continuous
 62
     7
370
    15
100
AcDbLine
 10
488.0287125417
 20
715.9549313547
 30
0.0
 11
488.0287125417
 21
737.9549313547
 31
0.0
  0
ARC
  5
120
330
1F
100
AcDbEntity
  8
0
  6
Continuous
 62
     7
370
    15
100
AcDbCircle
 10
486.3787125417
 20
737.9549313547
 30
0.0
 40
1.649999999999977
100
AcDbArc
 50
0.0
 51
180.0
  0
LINE
  5
121
330
1F
100
AcDbEntity
  8
0
  6
Continuous
 62
     7
370
    15
100
AcDbLine
 10
484.7287125417
 20
737.9549313547
 30
0.0
 11
484.7287125417
 21
715.9549313547
 31
0.0
  0
ARC
  5
122
330
1F
100
AcDbEntity
  8
0
  6
Continuous
 62
     7
370
    15
100
AcDbCircle
 10
486.3787125417
 20
683.9549313547
 30
0.0
 40
1.650000000000034
100
AcDbArc
 50
180.0
 51
0.0
  0
LINE
  5
123
330
1F
100
AcDbEntity
  8
0
  6
Continuous
 62
     7
370
    15
100
AcDbLine
 10
488.0287125417
 20
683.9549313547
 30
0.0
 11
488.0287125417
 21
705.9549313547
 31
0.0
  0
ARC
  5
124
330
1F
100
AcDbEntity
  8
0
  6
Continuous
 62
     7
370
    15
100
AcDbCircle
 10
486.3787125417
 20
705.9549313547
 30
0.0
 40
1.649999999999977
100
AcDbArc
 50
0.0
 51
180.0
  0
LINE
  5
125
330
1F
100
AcDbEntity
  8
0
  6
Continuous
 62
     7
370
    15
100
AcDbLine
 10
484.7287125417
 20
705.9549313547
 30
0.0
 11
484.7287125417
 21
683.9549313547
 31
0.0
  0
ARC
  5
126
330
1F
100
AcDbEntity
  8
0
  6
Continuous
 62
     7
370
    15
100
AcDbCircle
 10
455.3787125417
 20
683.9549313547
 30
0.0
 40
1.649999999999977
100
AcDbArc
 50
180.0
 51
0.0
  0
LINE
  5
127
330
1F
100
AcDbEntity
  8
0
  6
Continuous
 62
     7
370
    15
100
AcDbLine
 10
457.0287125417
 20
683.9549313547
 30
0.0
 11
457.0287125417
 21
705.9549313547
 31
0.0
  0
ARC
  5
128
330
1F
100
AcDbEntity
  8
0
  6
Continuous
 62
     7
370
    15
100
AcDbCircle
 10
455.3787125417
 20
705.9549313547
 30
0.0
 40
1.649999999999977
100
AcDbArc
 50
0.0
 51
180.0
  0
LINE
  5
129
330
1F
100
AcDbEntity
  8
0
  6
Continuous
 62
     7
370
    15
100
AcDbLine
 10
453.7287125417
 20
705.9549313547
 30
0.0
 11
453.7287125417
 21
683.9549313547
 31
0.0
  0
ARC
  5
12A
330
1F
100
AcDbEntity
  8
0
  6
Continuous
 62
     7
370
    15
100
AcDbCircle
 10
558.3787125417
 20
668.9549313547
 30
0.0
 40
2.600000000000023
100
AcDbArc
 50
270.0
 51
90.0
  0
LINE
  5
12B
330
1F
100
AcDbEntity
  8
0
  6
Continuous
 62
     7
370
    15
100
AcDbLine
 10
558.3787125417
 20
671.5549313547
 30
0.0
 11
553.3787125417
 21
671.5549313547
 31
0.0
  0
ARC
  5
12C
330
1F
100
AcDbEntity
  8
0
  6
Continuous
 62
     7
370
    15
100
AcDbCircle
 10
553.3787125417
 20
668.9549313547
 30
0.0
 40
2.600000000000023
100
AcDbArc
 50
90.0
 51
270.0
  0
LINE
  5
12D
330
1F
100
AcDbEntity
  8
0
  6
Continuous
 62
     7
370
    15
100
AcDbLine
 10
553.3787125417
 20
666.3549313547
 30
0.0
 11
558.3787125417
 21
666.3549313547
 31
0.0
  0
ARC
  5
12E
330
1F
100
AcDbEntity
  8
0
  6
Continuous
 62
     7
370
    15
100
AcDbCircle
 10
558.3787125417
 20
656.9549313547
 30
0.0
 40
2.600000000000023
100
AcDbArc
 50
270.0
 51
90.0
  0
LINE
  5
12F
330
1F
100
AcDbEntity
  8
0
  6
Continuous
 62
     7
370
    15
100
AcDbLine
 10
558.3787125417
 20
659.5549313547
 30
0.0
 11
553.3787125417
 21
659.5549313547
 31
0.0
  0
ARC
  5
130
330
1F
100
AcDbEntity
  8
0
  6
Continuous
 62
     7
370
    15
100
AcDbCircle
 10
553.3787125417
 20
656.9549313547
 30
0.0
 40
2.600000000000023
100
AcDbArc
 50
90.0
 51
270.0
  0
LINE
  5
131
330
1F
100
AcDbEntity
  8
0
  6
Continuous
 62
     7
370
    15
100
AcDbLine
 10
553.3787125417
 20
654.3549313547
 30
0.0
 11
558.3787125417
 21
654.3549313547
 31
0.0
  0
ARC
  5
132
330
1F
100
AcDbEntity
  8
0
  6
Continuous
 62
     7
370
    15
100
AcDbCircle
 10
525.3787125417
 20
656.9549313547
 30
0.0
 40
2.600000000000023
100
AcDbArc
 50
270.0
 51
90.0
  0
LINE
  5
133
330
1F
100
AcDbEntity
  8
0
  6
Continuous
 62
     7
370
    15
100
AcDbLine
 10
525.3787125417
 20
659.5549313547
 30
0.0
 11
520.3787125417
 21
659.5549313547
 31
0.0
  0
ARC
  5
134
330
1F
100
AcDbEntity
  8
0
  6
Continuous
 62
     7
370
    15
100
AcDbCircle
 10
520.3787125417
 20
656.9549313547
 30
0.0
 40
2.600000000000023
100
AcDbArc
 50
90.0
 51
270.0
  0
LINE
  5
135
330
1F
100
AcDbEntity
  8
0
  6
Continuous
 62
     7
370
    15
100
AcDbLine
 10
520.3787125417
 20
654.3549313547
 30
0.0
 11
525.3787125417
 21
654.3549313547
 31
0.0
  0
ARC
  5
136
330
1F
100
AcDbEntity
  8
0
  6
Continuous
 62
     7
370
    15
100
AcDbCircle
 10
525.3787125417
 20
668.9549313547
 30
0.0
 40
2.600000000000023
100
AcDbArc
 50
270.0
 51
90.0
  0
LINE
  5
137
330
1F
100
AcDbEntity
  8
0
  6
Continuous
 62
     7
370
    15
100
AcDbLine
 10
525.3787125417
 20
671.5549313547
 30
0.0
 11
520.3787125417
 21
671.5549313547
 31
0.0
  0
ARC
  5
138
330
1F
100
AcDbEntity
  8
0
  6
Continuous
 62
     7
370
    15
100
AcDbCircle
 10
520.3787125417
 20
668.9549313547
 30
0.0
 40
2.600000000000023
100
AcDbArc
 50
90.0
 51
270.0
  0
LINE
  5
139
330
1F
100
AcDbEntity
  8
0
  6
Continuous
 62
     7
370
    15
100
AcDbLine
 10
520.3787125417
 20
666.3549313547
 30
0.0
 11
525.3787125417
 21
666.3549313547
 31
0.0
  0
ARC
  5
13A
330
1F
100
AcDbEntity
  8
0
  6
Continuous
 62
     7
370
    15
100
AcDbCircle
 10
531.3787125417
 20
832.9549313547
 30
0.0
 40
2.5
100
AcDbArc
 50
180.0
 51
0.0
  0
LINE
  5
13B
330
1F
100
AcDbEntity
  8
0
  6
Continuous
 62
     7
370
    15
100
AcDbLine
 10
533.8787125417
 20
832.9549313547
 30
0.0
 11
533.8787125417
 21
843.9549313547
 31
0.0
  0
ARC
  5
13C
330
1F
100
AcDbEntity
  8
0
  6
Continuous
 62
     7
370
    15
100
AcDbCircle
 10
531.3787125417
 20
843.9549313547
 30
0.0
 40
2.5
100
AcDbArc
 50
0.0
 51
180.0
  0
LINE
  5
13D
330
1F
100
AcDbEntity
  8
0
  6
Continuous
 62
     7
370
    15
100
AcDbLine
 10
528.8787125417
 20
843.9549313547
 30
0.0
 11
528.8787125417
 21
832.9549313547
 31
0.0
  0
ARC
  5
13E
330
1F
100
AcDbEntity
  8
0
  6
Continuous
 62
     7
370
    15
100
AcDbCircle
 10
547.3787125417
 20
832.9549313547
 30
0.0
 40
2.5
100
AcDbArc
 50
180.0
 51
0.0
  0
LINE
  5
13F
330
1F
100
AcDbEntity
  8
0
  6
Continuous
 62
     7
370
    15
100
AcDbLine
 10
549.8787125417
 20
832.9549313547
 30
0.0
 11
549.8787125417
 21
843.9549313547
 31
0.0
  0
ARC
  5
140
330
1F
100
AcDbEntity
  8
0
  6
Continuous
 62
     7
370
    15
100
AcDbCircle
 10
547.3787125417
 20
843.9549313547
 30
0.0
 40
2.5
100
AcDbArc
 50
0.0
 51
180.0
  0
LINE
  5
141
330
1F
100
AcDbEntity
  8
0
  6
Continuous
 62
     7
370
    15
100
AcDbLine
 10
544.8787125417
 20
843.9549313547
 30
0.0
 11
544.8787125417
 21
832.9549313547
 31
0.0
  0
ARC
  5
142
330
1F
100
AcDbEntity
  8
0
  6
Continuous
 62
     7
370
    15
100
AcDbCircle
 10
527.3787125417
 20
810.9549313547
 30
0.0
 40
2.500000000000114
100
AcDbArc
 50
180.0
 51
0.0
  0
LINE
  5
143
330
1F
100
AcDbEntity
  8
0
  6
Continuous
 62
     7
370
    15
100
AcDbLine
 10
529.8787125417
 20
810.9549313547
 30
0.0
 11
529.8787125417
 21
821.9549313547
 31
0.0
  0
ARC
  5
144
330
1F
100
AcDbEntity
  8
0
  6
Continuous
 62
     7
370
    15
100
AcDbCircle
 10
527.3787125417
 20
821.9549313547
 30
0.0
 40
2.500000000000114
100
AcDbArc
 50
0.0
 51
180.0
  0
LINE
  5
145
330
1F
100
AcDbEntity
  8
0
  6
Continuous
 62
     7
370
    15
100
AcDbLine
 10
524.8787125417
 20
821.9549313547
 30
0.0
 11
524.8787125417
 21
810.9549313547
 31
0.0
  0
ARC
  5
146
330
1F
100
AcDbEntity
  8
0
  6
Continuous
 62
     7
370
    15
100
AcDbCircle
 10
551.3787125417
 20
810.9549313547
 30
0.0
 40
2.500000000000114
100
AcDbArc
 50
180.0
 51
0.0
  0
LINE
  5
147
330
1F
100
AcDbEntity
  8
0
  6
Continuous
 62
     7
370
    15
100
AcDbLine
 10
553.8787125417
 20
810.9549313547
 30
0.0
 11
553.8787125417
 21
821.9549313547
 31
0.0
  0
ARC
  5
148
330
1F
100
AcDbEntity
  8
0
  6
Continuous
 62
     7
370
    15
100
AcDbCircle
 10
551.3787125417
 20
821.9549313547
 30
0.0
 40
2.500000000000114
100
AcDbArc
 50
0.0
 51
180.0
  0
LINE
  5
149
330
1F
100
AcDbEntity
  8
0
  6
Continuous
 62
     7
370
    15
100
AcDbLine
 10
548.8787125417
 20
821.9549313547
 30
0.0
 11
548.8787125417
 21
810.9549313547
 31
0.0
  0
CIRCLE
  5
14A
330
1F
100
AcDbEntity
  8
0
  6
Continuous
 62
     7
370
    15
100
AcDbCircle
 10
564.8787125417
 20
888.9549313547
 30
0.0
 40
2.749999999999886
  0
CIRCLE
  5
14B
330
1F
100
AcDbEntity
  8
0
  6
Continuous
 62
     7
370
    15
100
AcDbCircle
 10
564.8577125417
 20
876.9549313547
 30
0.0
 40
2.749999999999886
  0
CIRCLE
  5
14C
330
1F
100
AcDbEntity
  8
0
  6
Continuous
 62
     7
370
    15
100
AcDbCircle
 10
513.8787125417
 20
876.9549313547
 30
0.0
 40
2.749999999999886
  0
CIRCLE
  5
14D
330
1F
100
AcDbEntity
  8
0
  6
Continuous
 62
     7
370
    15
100
AcDbCircle
 10
513.8787125417
 20
888.9549313547
 30
0.0
 40
2.749999999999886
  0
CIRCLE
  5
14E
330
1F
100
AcDbEntity
  8
0
  6
Continuous
 62
     7
370
    15
100
AcDbCircle
 10
626.7787125417
 20
774.4549313547
 30
0.0
 40
2.999999999999886
  0
CIRCLE
  5
14F
330
1F
100
AcDbEntity
  8
0
  6
Continuous
 62
     7
370
    15
100
AcDbCircle
 10
626.7787125417
 20
764.4549313547
 30
0.0
 40
2.999999999999886
  0
DIMENSION
  5
150
330
1F
100
AcDbEntity
  8
0
  6
Continuous
 62
     7
370
     0
100
AcDbDimension
  2
_D
 10
658.9787125417
 20
606.3549313547
 30
0.0
 11
658.9787125417
 21
756.4549313547
 31
0.0
 70
   160
  1
<>
 71
     2
 42
-1.0
  3
SLDDIMSTYLE0
100
AcDbAlignedDimension
 13
648.9787125417
 23
906.5549313547
 33
0.0
 14
642.9787125417
 24
606.3549313547
 34
0.0
 50
90.0
100
AcDbRotatedDimension
  0
CIRCLE
  5
15C
330
1F
100
AcDbEntity
  8
0
  6
Continuous
 62
     7
370
    15
100
AcDbCircle
 10
409.6057490499
 20
888.7563450624
 30
0.0
 40
10.90000000000003
  0
CIRCLE
  5
15D
330
1F
100
AcDbEntity
  8
0
  6
Continuous
 62
     7
370
    15
100
AcDbCircle
 10
247.6057490499
 20
888.7563450624
 30
0.0
 40
10.89999999999995
  0
LINE
  5
15E
330
1F
100
AcDbEntity
  8
0
  6
Continuous
 62
     7
370
    15
100
AcDbLine
 10
259.5100579964
 20
606.1563450624
 30
0.0
 11
260.0401560316
 21
613.8046117236
 31
0.0
  0
LINE
  5
15F
330
1F
100
AcDbEntity
  8
0
  6
Continuous
 62
     7
370
    15
100
AcDbLine
 10
224.0057490499
 20
606.1563450624
 30
0.0
 11
259.5100579964
 21
606.1563450624
 31
0.0
  0
LINE
  5
160
330
1F
100
AcDbEntity
  8
0
  6
Continuous
 62
     7
370
    15
100
AcDbLine
 10
224.0057490499
 20
631.3563450624
 30
0.0
 11
224.0057490499
 21
606.1563450624
 31
0.0
  0
LINE
  5
161
330
1F
100
AcDbEntity
  8
0
  6
Continuous
 62
     7
370
    15
100
AcDbLine
 10
229.7184507153
 20
631.3563450624
 30
0.0
 11
224.0057490499
 21
631.3563450624
 31
0.0
  0
ARC
  5
162
330
1F
100
AcDbEntity
  8
0
  6
Continuous
 62
     7
370
    15
100
AcDbCircle
 10
230.1057490499
 20
631.2563450624
 30
0.0
 40
0.3999999999999743
100
AcDbArc
 50
165.5224878141
 51
104.4775121859
  0
LINE
  5
163
330
1F
100
AcDbEntity
  8
0
  6
Continuous
 62
     7
370
    15
100
AcDbLine
 10
230.0057490499
 20
655.8690467278
 30
0.0
 11
230.0057490499
 21
631.643643397
 31
0.0
  0
ARC
  5
164
330
1F
100
AcDbEntity
  8
0
  6
Continuous
 62
     7
370
    15
100
AcDbCircle
 10
230.1057490499
 20
656.2563450624
 30
0.0
 40
0.3999999999999743
100
AcDbArc
 50
255.5224878141
 51
194.4775121859
  0
LINE
  5
165
330
1F
100
AcDbEntity
  8
0
  6
Continuous
 62
     7
370
    15
100
AcDbLine
 10
224.0057490499
 20
656.1563450624
 30
0.0
 11
229.7184507153
 21
656.1563450624
 31
0.0
  0
LINE
  5
166
330
1F
100
AcDbEntity
  8
0
  6
Continuous
 62
     7
370
    15
100
AcDbLine
 10
224.0057490499
 20
681.3563450624
 30
0.0
 11
224.0057490499
 21
656.1563450624
 31
0.0
  0
LINE
  5
167
330
1F
100
AcDbEntity
  8
0
  6
Continuous
 62
     7
370
    15
100
AcDbLine
 10
229.7184507153
 20
681.3563450624
 30
0.0
 11
224.0057490499
 21
681.3563450624
 31
0.0
  0
ARC
  5
168
330
1F
100
AcDbEntity
  8
0
  6
Continuous
 62
     7
370
    15
100
AcDbCircle
 10
230.1057490499
 20
681.2563450624
 30
0.0
 40
0.4000000000000773
100
AcDbArc
 50
165.5224878141
 51
104.4775121859
  0
LINE
  5
169
330
1F
100
AcDbEntity
  8
0
  6
Continuous
 62
     7
370
    15
100
AcDbLine
 10
230.0057490499
 20
705.8690467278
 30
0.0
 11
230.0057490499
 21
681.643643397
 31
0.0
  0
ARC
  5
16A
330
1F
100
AcDbEntity
  8
0
  6
Continuous
 62
     7
370
    15
100
AcDbCircle
 10
230.1057490499
 20
706.2563450624
 30
0.0
 40
0.4000000000000773
100
AcDbArc
 50
255.5224878141
 51
194.477512186
  0
LINE
  5
16B
330
1F
100
AcDbEntity
  8
0
  6
Continuous
 62
     7
370
    15
100
AcDbLine
 10
224.0057490499
 20
706.1563450624
 30
0.0
 11
229.7184507153
 21
706.1563450624
 31
0.0
  0
LINE
  5
16C
330
1F
100
AcDbEntity
  8
0
  6
Continuous
 62
     7
370
    15
100
AcDbLine
 10
224.0057490499
 20
731.3563450624
 30
0.0
 11
224.0057490499
 21
706.1563450624
 31
0.0
  0
LINE
  5
16D
330
1F
100
AcDbEntity
  8
0
  6
Continuous
 62
     7
370
    15
100
AcDbLine
 10
229.7184507153
 20
731.3563450624
 30
0.0
 11
224.0057490499
 21
731.3563450624
 31
0.0
  0
ARC
  5
16E
330
1F
100
AcDbEntity
  8
0
  6
Continuous
 62
     7
370
    15
100
AcDbCircle
 10
230.1057490499
 20
731.2563450624
 30
0.0
 40
0.4000000000000019
100
AcDbArc
 50
165.5224878141
 51
104.4775121859
  0
LINE
  5
16F
330
1F
100
AcDbEntity
  8
0
  6
Continuous
 62
     7
370
    15
100
AcDbLine
 10
230.0057490499
 20
755.8690467278
 30
0.0
 11
230.0057490499
 21
731.643643397
 31
0.0
  0
ARC
  5
170
330
1F
100
AcDbEntity
  8
0
  6
Continuous
 62
     7
370
    15
100
AcDbCircle
 10
230.1057490499
 20
756.2563450624
 30
0.0
 40
0.3999999999999734
100
AcDbArc
 50
255.5224878141
 51
194.4775121859
  0
LINE
  5
171
330
1F
100
AcDbEntity
  8
0
  6
Continuous
 62
     7
370
    15
100
AcDbLine
 10
224.0057490499
 20
756.1563450624
 30
0.0
 11
229.7184507153
 21
756.1563450624
 31
0.0
  0
LINE
  5
172
330
1F
100
AcDbEntity
  8
0
  6
Continuous
 62
     7
370
    15
100
AcDbLine
 10
224.0057490499
 20
781.3563450624
 30
0.0
 11
224.0057490499
 21
756.1563450624
 31
0.0
  0
LINE
  5
173
330
1F
100
AcDbEntity
  8
0
  6
Continuous
 62
     7
370
    15
100
AcDbLine
 10
229.7184507153
 20
781.3563450624
 30
0.0
 11
224.0057490499
 21
781.3563450624
 31
0.0
  0
ARC
  5
174
330
1F
100
AcDbEntity
  8
0
  6
Continuous
 62
     7
370
    15
100
AcDbCircle
 10
230.1057490499
 20
781.2563450624
 30
0.0
 40
0.3999999999999734
100
AcDbArc
 50
165.5224878141
 51
104.4775121859
  0
LINE
  5
175
330
1F
100
AcDbEntity
  8
0
  6
Continuous
 62
     7
370
    15
100
AcDbLine
 10
230.0057490499
 20
805.8690467278
 30
0.0
 11
230.0057490499
 21
781.643643397
 31
0.0
  0
ARC
  5
176
330
1F
100
AcDbEntity
  8
0
  6
Continuous
 62
     7
370
    15
100
AcDbCircle
 10
230.1057490499
 20
806.2563450624
 30
0.0
 40
0.4000000000000773
100
AcDbArc
 50
255.5224878141
 51
194.4775121859
  0
LINE
  5
177
330
1F
100
AcDbEntity
  8
0
  6
Continuous
 62
     7
370
    15
100
AcDbLine
 10
224.0057490499
 20
806.1563450624
 30
0.0
 11
229.7184507153
 21
806.1563450624
 31
0.0
  0
LINE
  5
178
330
1F
100
AcDbEntity
  8
0
  6
Continuous
 62
     7
370
    15
100
AcDbLine
 10
224.0057490499
 20
831.3563450624
 30
0.0
 11
224.0057490499
 21
806.1563450624
 31
0.0
  0
LINE
  5
179
330
1F
100
AcDbEntity
  8
0
  6
Continuous
 62
     7
370
    15
100
AcDbLine
 10
229.7184507153
 20
831.3563450624
 30
0.0
 11
224.0057490499
 21
831.3563450624
 31
0.0
  0
ARC
  5
17A
330
1F
100
AcDbEntity
  8
0
  6
Continuous
 62
     7
370
    15
100
AcDbCircle
 10
230.1057490499
 20
831.2563450624
 30
0.0
 40
0.4000000000000773
100
AcDbArc
 50
165.5224878141
 51
104.4775121859
  0
LINE
  5
17B
330
1F
100
AcDbEntity
  8
0
  6
Continuous
 62
     7
370
    15
100
AcDbLine
 10
230.0057490499
 20
855.8690467278
 30
0.0
 11
230.0057490499
 21
831.643643397
 31
0.0
  0
ARC
  5
17C
330
1F
100
AcDbEntity
  8
0
  6
Continuous
 62
     7
370
    15
100
AcDbCircle
 10
230.1057490499
 20
856.2563450624
 30
0.0
 40
0.4000000000000019
100
AcDbArc
 50
255.5224878141
 51
194.4775121859
  0
LINE
  5
17D
330
1F
100
AcDbEntity
  8
0
  6
Continuous
 62
     7
370
    15
100
AcDbLine
 10
224.0057490499
 20
856.1563450624
 30
0.0
 11
229.7184507153
 21
856.1563450624
 31
0.0
  0
LINE
  5
17E
330
1F
100
AcDbEntity
  8
0
  6
Continuous
 62
     7
370
    15
100
AcDbLine
 10
224.0057490499
 20
881.3563450624
 30
0.0
 11
224.0057490499
 21
856.1563450624
 31
0.0
  0
LINE
  5
17F
330
1F
100
AcDbEntity
  8
0
  6
Continuous
 62
     7
370
    15
100
AcDbLine
 10
229.7184507153
 20
881.3563450624
 30
0.0
 11
224.0057490499
 21
881.3563450624
 31
0.0
  0
ARC
  5
180
330
1F
100
AcDbEntity
  8
0
  6
Continuous
 62
     7
370
    15
100
AcDbCircle
 10
230.1057490499
 20
881.2563450624
 30
0.0
 40
0.4000000000000773
100
AcDbArc
 50
165.5224878141
 51
104.4775121859
  0
LINE
  5
181
330
1F
100
AcDbEntity
  8
0
  6
Continuous
 62
     7
370
    15
100
AcDbLine
 10
230.0057490499
 20
906.3563450624
 30
0.0
 11
230.0057490499
 21
881.643643397
 31
0.0
  0
LINE
  5
182
330
1F
100
AcDbEntity
  8
0
  6
Continuous
 62
     7
370
    15
100
AcDbLine
 10
259.617216013
 20
906.3563450624
 30
0.0
 11
230.0057490499
 21
906.3563450624
 31
0.0
  0
LINE
  5
183
330
1F
100
AcDbEntity
  8
0
  6
Continuous
 62
     7
370
    15
100
AcDbLine
 10
260.030826526
 20
900.2390733552
 30
0.0
 11
259.617216013
 21
906.3563450624
 31
0.0
  0
ARC
  5
184
330
1F
100
AcDbEntity
  8
0
  6
Continuous
 62
     7
370
    15
100
AcDbCircle
 10
261.6057490499
 20
899.0063450624
 30
0.0
 40
2.0
100
AcDbArc
 50
141.9488914017
 51
0.0
  0
LINE
  5
185
330
1F
100
AcDbEntity
  8
0
  6
Continuous
 62
     7
370
    15
100
AcDbLine
 10
263.6057490499
 20
906.3563450624
 30
0.0
 11
263.6057490499
 21
899.0063450624
 31
0.0
  0
LINE
  5
186
330
1F
100
AcDbEntity
  8
0
  6
Continuous
 62
     7
370
    15
100
AcDbLine
 10
393.6057490499
 20
906.3563450624
 30
0.0
 11
263.6057490499
 21
906.3563450624
 31
0.0
  0
LINE
  5
187
330
1F
100
AcDbEntity
  8
0
  6
Continuous
 62
     7
370
    15
100
AcDbLine
 10
393.6057490499
 20
899.0063450624
 30
0.0
 11
393.6057490499
 21
906.3563450624
 31
0.0
  0
ARC
  5
188
330
1F
100
AcDbEntity
  8
0
  6
Continuous
 62
     7
370
    15
100
AcDbCircle
 10
395.6057490499
 20
899.0063450624
 30
0.0
 40
2.0
100
AcDbArc
 50
180.0
 51
38.0511085983
  0
LINE
  5
189
330
1F
100
AcDbEntity
  8
0
  6
Continuous
 62
     7
370
    15
100
AcDbLine
 10
397.5942820868
 20
906.3563450624
 30
0.0
 11
397.1806715738
 21
900.2390733552
 31
0.0
  0
LINE
  5
18A
330
1F
100
AcDbEntity
  8
0
  6
Continuous
 62
     7
370
    15
100
AcDbLine
 10
433.2057490499
 20
906.3563450624
 30
0.0
 11
397.5942820868
 21
906.3563450624
 31
0.0
  0
LINE
  5
18B
330
1F
100
AcDbEntity
  8
0
  6
Continuous
 62
     7
370
    15
100
AcDbLine
 10
433.2057490499
 20
881.1563450624
 30
0.0
 11
433.2057490499
 21
906.3563450624
 31
0.0
  0
LINE
  5
18C
330
1F
100
AcDbEntity
  8
0
  6
Continuous
 62
     7
370
    15
100
AcDbLine
 10
427.4930473845
 20
881.1563450624
 30
0.0
 11
433.2057490499
 21
881.1563450624
 31
0.0
  0
ARC
  5
18D
330
1F
100
AcDbEntity
  8
0
  6
Continuous
 62
     7
370
    15
100
AcDbCircle
 10
427.1057490499
 20
881.2563450624
 30
0.0
 40
0.4000000000000844
100
AcDbArc
 50
345.5224878141
 51
284.4775121859
  0
LINE
  5
18E
330
1F
100
AcDbEntity
  8
0
  6
Continuous
 62
     7
370
    15
100
AcDbLine
 10
427.2057490499
 20
856.643643397
 30
0.0
 11
427.2057490499
 21
880.8690467278
 31
0.0
  0
ARC
  5
18F
330
1F
100
AcDbEntity
  8
0
  6
Continuous
 62
     7
370
    15
100
AcDbCircle
 10
427.1057490499
 20
856.2563450624
 30
0.0
 40
0.4000000000000293
100
AcDbArc
 50
75.5224878141
 51
14.4775121859
  0
LINE
  5
190
330
1F
100
AcDbEntity
  8
0
  6
Continuous
 62
     7
370
    15
100
AcDbLine
 10
433.2057490499
 20
856.3563450624
 30
0.0
 11
427.4930473845
 21
856.3563450624
 31
0.0
  0
LINE
  5
191
330
1F
100
AcDbEntity
  8
0
  6
Continuous
 62
     7
370
    15
100
AcDbLine
 10
433.2057490499
 20
831.1563450624
 30
0.0
 11
433.2057490499
 21
856.3563450624
 31
0.0
  0
LINE
  5
192
330
1F
100
AcDbEntity
  8
0
  6
Continuous
 62
     7
370
    15
100
AcDbLine
 10
427.4930473845
 20
831.1563450624
 30
0.0
 11
433.2057490499
 21
831.1563450624
 31
0.0
  0
ARC
  5
193
330
1F
100
AcDbEntity
  8
0
  6
Continuous
 62
     7
370
    15
100
AcDbCircle
 10
427.1057490499
 20
831.2563450624
 30
0.0
 40
0.4000000000000293
100
AcDbArc
 50
345.5224878141
 51
284.4775121859
  0
LINE
  5
194
330
1F
100
AcDbEntity
  8
0
  6
Continuous
 62
     7
370
    15
100
AcDbLine
 10
427.2057490499
 20
806.643643397
 30
0.0
 11
427.2057490499
 21
830.8690467278
 31
0.0
  0
ARC
  5
195
330
1F
100
AcDbEntity
  8
0
  6
Continuous
 62
     7
370
    15
100
AcDbCircle
 10
427.1057490499
 20
806.2563450624
 30
0.0
 40
0.4000000000000844
100
AcDbArc
 50
75.5224878141
 51
14.4775121859
  0
LINE
  5
196
330
1F
100
AcDbEntity
  8
0
  6
Continuous
 62
     7
370
    15
100
AcDbLine
 10
433.2057490499
 20
806.3563450624
 30
0.0
 11
427.4930473845
 21
806.3563450624
 31
0.0
  0
LINE
  5
197
330
1F
100
AcDbEntity
  8
0
  6
Continuous
 62
     7
370
    15
100
AcDbLine
 10
433.2057490499
 20
781.1563450624
 30
0.0
 11
433.2057490499
 21
806.3563450624
 31
0.0
  0
LINE
  5
198
330
1F
100
AcDbEntity
  8
0
  6
Continuous
 62
     7
370
    15
100
AcDbLine
 10
427.4930473845
 20
781.1563450624
 30
0.0
 11
433.2057490499
 21
781.1563450624
 31
0.0
  0
ARC
  5
199
330
1F
100
AcDbEntity
  8
0
  6
Continuous
 62
     7
370
    15
100
AcDbCircle
 10
427.1057490499
 20
781.2563450624
 30
0.0
 40
0.4000000000000844
100
AcDbArc
 50
345.5224878141
 51
284.4775121859
  0
LINE
  5
19A
330
1F
100
AcDbEntity
  8
0
  6
Continuous
 62
     7
370
    15
100
AcDbLine
 10
427.2057490499
 20
756.643643397
 30
0.0
 11
427.2057490499
 21
780.8690467278
 31
0.0
  0
ARC
  5
19B
330
1F
100
AcDbEntity
  8
0
  6
Continuous
 62
     7
370
    15
100
AcDbCircle
 10
427.1057490499
 20
756.2563450624
 30
0.0
 40
0.4000000000000844
100
AcDbArc
 50
75.5224878141
 51
14.4775121859
  0
LINE
  5
19C
330
1F
100
AcDbEntity
  8
0
  6
Continuous
 62
     7
370
    15
100
AcDbLine
 10
433.2057490499
 20
756.3563450624
 30
0.0
 11
427.4930473845
 21
756.3563450624
 31
0.0
  0
LINE
  5
19D
330
1F
100
AcDbEntity
  8
0
  6
Continuous
 62
     7
370
    15
100
AcDbLine
 10
433.2057490499
 20
731.1563450624
 30
0.0
 11
433.2057490499
 21
756.3563450624
 31
0.0
  0
LINE
  5
19E
330
1F
100
AcDbEntity
  8
0
  6
Continuous
 62
     7
370
    15
100
AcDbLine
 10
427.4930473845
 20
731.1563450624
 30
0.0
 11
433.2057490499
 21
731.1563450624
 31
0.0
  0
ARC
  5
19F
330
1F
100
AcDbEntity
  8
0
  6
Continuous
 62
     7
370
    15
100
AcDbCircle
 10
427.1057490499
 20
731.2563450624
 30
0.0
 40
0.3999999999999743
100
AcDbArc
 50
345.5224878141
 51
284.4775121859
  0
LINE
  5
1A0
330
1F
100
AcDbEntity
  8
0
  6
Continuous
 62
     7
370
    15
100
AcDbLine
 10
427.2057490499
 20
706.643643397
 30
0.0
 11
427.2057490499
 21
730.8690467278
 31
0.0
  0
ARC
  5
1A1
330
1F
100
AcDbEntity
  8
0
  6
Continuous
 62
     7
370
    15
100
AcDbCircle
 10
427.1057490499
 20
706.2563450624
 30
0.0
 40
0.4000000000000844
100
AcDbArc
 50
75.5224878141
 51
14.4775121859
  0
LINE
  5
1A2
330
1F
100
AcDbEntity
  8
0
  6
Continuous
 62
     7
370
    15
100
AcDbLine
 10
433.2057490499
 20
706.3563450624
 30
0.0
 11
427.4930473845
 21
706.3563450624
 31
0.0
  0
LINE
  5
1A3
330
1F
100
AcDbEntity
  8
0
  6
Continuous
 62
     7
370
    15
100
AcDbLine
 10
433.2057490499
 20
681.1563450624
 30
0.0
 11
433.2057490499
 21
706.3563450624
 31
0.0
  0
LINE
  5
1A4
330
1F
100
AcDbEntity
  8
0
  6
Continuous
 62
     7
370
    15
100
AcDbLine
 10
427.4930473845
 20
681.1563450624
 30
0.0
 11
433.2057490499
 21
681.1563450624
 31
0.0
  0
ARC
  5
1A5
330
1F
100
AcDbEntity
  8
0
  6
Continuous
 62
     7
370
    15
100
AcDbCircle
 10
427.1057490499
 20
681.2563450624
 30
0.0
 40
0.3999999999999743
100
AcDbArc
 50
345.5224878141
 51
284.4775121859
  0
LINE
  5
1A6
330
1F
100
AcDbEntity
  8
0
  6
Continuous
 62
     7
370
    15
100
AcDbLine
 10
427.2057490499
 20
656.643643397
 30
0.0
 11
427.2057490499
 21
680.8690467278
 31
0.0
  0
ARC
  5
1A7
330
1F
100
AcDbEntity
  8
0
  6
Continuous
 62
     7
370
    15
100
AcDbCircle
 10
427.1057490499
 20
656.2563450624
 30
0.0
 40
0.3999999999999459
100
AcDbArc
 50
75.5224878141
 51
14.4775121859
  0
LINE
  5
1A8
330
1F
100
AcDbEntity
  8
0
  6
Continuous
 62
     7
370
    15
100
AcDbLine
 10
433.2057490499
 20
656.3563450624
 30
0.0
 11
427.4930473845
 21
656.3563450624
 31
0.0
  0
LINE
  5
1A9
330
1F
100
AcDbEntity
  8
0
  6
Continuous
 62
     7
370
    15
100
AcDbLine
 10
433.2057490499
 20
631.1563450624
 30
0.0
 11
433.2057490499
 21
656.3563450624
 31
0.0
  0
LINE
  5
1AA
330
1F
100
AcDbEntity
  8
0
  6
Continuous
 62
     7
370
    15
100
AcDbLine
 10
427.4930473845
 20
631.1563450624
 30
0.0
 11
433.2057490499
 21
631.1563450624
 31
0.0
  0
ARC
  5
1AB
330
1F
100
AcDbEntity
  8
0
  6
Continuous
 62
     7
370
    15
100
AcDbCircle
 10
427.1057490499
 20
631.2563450624
 30
0.0
 40
0.4000000000000844
100
AcDbArc
 50
345.5224878141
 51
284.4775121859
  0
LINE
  5
1AC
330
1F
100
AcDbEntity
  8
0
  6
Continuous
 62
     7
370
    15
100
AcDbLine
 10
427.2057490499
 20
606.1563450624
 30
0.0
 11
427.2057490499
 21
630.8690467278
 31
0.0
  0
LINE
  5
1AD
330
1F
100
AcDbEntity
  8
0
  6
Continuous
 62
     7
370
    15
100
AcDbLine
 10
397.7014401034
 20
606.1563450624
 30
0.0
 11
427.2057490499
 21
606.1563450624
 31
0.0
  0
LINE
  5
1AE
330
1F
100
AcDbEntity
  8
0
  6
Continuous
 62
     7
370
    15
100
AcDbLine
 10
397.1713420682
 20
613.8046117236
 30
0.0
 11
397.7014401034
 21
606.1563450624
 31
0.0
  0
ARC
  5
1AF
330
1F
100
AcDbEntity
  8
0
  6
Continuous
 62
     7
370
    15
100
AcDbCircle
 10
395.6053232594
 20
615.0486314543
 30
0.0
 40
1.999999999999993
100
AcDbArc
 50
321.5369455014
 51
181.1823017666
  0
LINE
  5
1B0
330
1F
100
AcDbEntity
  8
0
  6
Continuous
 62
     7
370
    15
100
AcDbLine
 10
393.6057490499
 20
606.1563450624
 30
0.0
 11
393.6057490499
 21
615.007364266
 31
0.0
  0
LINE
  5
1B1
330
1F
100
AcDbEntity
  8
0
  6
Continuous
 62
     7
370
    15
100
AcDbLine
 10
263.6057490499
 20
606.1563450624
 30
0.0
 11
393.6057490499
 21
606.1563450624
 31
0.0
  0
LINE
  5
1B2
330
1F
100
AcDbEntity
  8
0
  6
Continuous
 62
     7
370
    15
100
AcDbLine
 10
263.6057490499
 20
615.007364266
 30
0.0
 11
263.6057490499
 21
606.1563450624
 31
0.0
  0
ARC
  5
1B3
330
1F
100
AcDbEntity
  8
0
  6
Continuous
 62
     7
370
    15
100
AcDbCircle
 10
261.6061748404
 20
615.0486314543
 30
0.0
 40
2.000000000000071
100
AcDbArc
 50
358.8176982333
 51
218.4630544986
  0
ARC
  5
1B4
330
1F
100
AcDbEntity
  8
0
  6
Continuous
 62
     7
370
    15
100
AcDbCircle
 10
358.1057490499
 20
742.7563450624
 30
0.0
 40
15.00000000000011
100
AcDbArc
 50
270.0
 51
0.0
  0
LINE
  5
1B5
330
1F
100
AcDbEntity
  8
0
  6
Continuous
 62
     7
370
    15
100
AcDbLine
 10
373.1057490499
 20
742.7563450624
 30
0.0
 11
373.1057490499
 21
856.7563450624
 31
0.0
  0
ARC
  5
1B6
330
1F
100
AcDbEntity
  8
0
  6
Continuous
 62
     7
370
    15
100
AcDbCircle
 10
358.1057490499
 20
856.7563450624
 30
0.0
 40
15.00000000000006
100
AcDbArc
 50
0.0
 51
90.0
  0
LINE
  5
1B7
330
1F
100
AcDbEntity
  8
0
  6
Continuous
 62
     7
370
    15
100
AcDbLine
 10
358.1057490499
 20
871.7563450624
 30
0.0
 11
271.6057490499
 21
871.7563450624
 31
0.0
  0
ARC
  5
1B8
330
1F
100
AcDbEntity
  8
0
  6
Continuous
 62
     7
370
    15
100
AcDbCircle
 10
271.6057490499
 20
856.7563450624
 30
0.0
 40
15.0
100
AcDbArc
 50
90.0
 51
180.0
  0
LINE
  5
1B9
330
1F
100
AcDbEntity
  8
0
  6
Continuous
 62
     7
370
    15
100
AcDbLine
 10
256.6057490499
 20
856.7563450624
 30
0.0
 11
256.6057490499
 21
742.7563450624
 31
0.0
  0
ARC
  5
1BA
330
1F
100
AcDbEntity
  8
0
  6
Continuous
 62
     7
370
    15
100
AcDbCircle
 10
271.6057490499
 20
742.7563450624
 30
0.0
 40
15.00000000000011
100
AcDbArc
 50
180.0
 51
270.0
  0
LINE
  5
1BB
330
1F
100
AcDbEntity
  8
0
  6
Continuous
 62
     7
370
    15
100
AcDbLine
 10
271.6057490499
 20
727.7563450624
 30
0.0
 11
358.1057490499
 21
727.7563450624
 31
0.0
  0
CIRCLE
  5
1BC
330
1F
100
AcDbEntity
  8
0
  6
Continuous
 62
     7
370
    15
100
AcDbCircle
 10
308.6057490499
 20
692.2563450624
 30
0.0
 40
2.75
  0
CIRCLE
  5
1BD
330
1F
100
AcDbEntity
  8
0
  6
Continuous
 62
     7
370
    15
100
AcDbCircle
 10
348.6057490499
 20
692.2563450624
 30
0.0
 40
2.750000000000057
  0
CIRCLE
  5
1BE
330
1F
100
AcDbEntity
  8
0
  6
Continuous
 62
     7
370
    15
100
AcDbCircle
 10
348.6057490499
 20
717.2563450624
 30
0.0
 40
2.750000000000057
  0
CIRCLE
  5
1BF
330
1F
100
AcDbEntity
  8
0
  6
Continuous
 62
     7
370
    15
100
AcDbCircle
 10
308.6057490499
 20
717.2563450624
 30
0.0
 40
2.75
  0
ARC
  5
1C0
330
1F
100
AcDbEntity
  8
0
  6
Continuous
 62
     7
370
    15
100
AcDbCircle
 10
402.1057490499
 20
810.5063450624
 30
0.0
 40
11.0
100
AcDbArc
 50
180.0
 51
0.0
  0
LINE
  5
1C1
330
1F
100
AcDbEntity
  8
0
  6
Continuous
 62
     7
370
    15
100
AcDbLine
 10
413.1057490499
 20
810.5063450624
 30
0.0
 11
413.1057490499
 21
832.0063450624
 31
0.0
  0
ARC
  5
1C2
330
1F
100
AcDbEntity
  8
0
  6
Continuous
 62
     7
370
    15
100
AcDbCircle
 10
402.1057490499
 20
832.0063450624
 30
0.0
 40
11.0
100
AcDbArc
 50
0.0
 51
180.0
  0
LINE
  5
1C3
330
1F
100
AcDbEntity
  8
0
  6
Continuous
 62
     7
370
    15
100
AcDbLine
 10
391.1057490499
 20
832.0063450624
 30
0.0
 11
391.1057490499
 21
810.5063450624
 31
0.0
  0
ARC
  5
1C4
330
1F
100
AcDbEntity
  8
0
  6
Continuous
 62
     7
370
    15
100
AcDbCircle
 10
386.6057490499
 20
826.2563450624
 30
0.0
 40
1.650000000000034
100
AcDbArc
 50
180.0
 51
360.0
  0
LINE
  5
1C5
330
1F
100
AcDbEntity
  8
0
  6
Continuous
 62
     7
370
    15
100
AcDbLine
 10
388.2557490499
 20
826.2563450624
 30
0.0
 11
388.2557490499
 21
847.2563450624
 31
0.0
  0
ARC
  5
1C6
330
1F
100
AcDbEntity
  8
0
  6
Continuous
 62
     7
370
    15
100
AcDbCircle
 10
386.6057490499
 20
847.2563450624
 30
0.0
 40
1.650000000000148
100
AcDbArc
 50
360.0
 51
180.0
  0
LINE
  5
1C7
330
1F
100
AcDbEntity
  8
0
  6
Continuous
 62
     7
370
    15
100
AcDbLine
 10
384.9557490499
 20
847.2563450624
 30
0.0
 11
384.9557490499
 21
826.2563450624
 31
0.0
  0
ARC
  5
1C8
330
1F
100
AcDbEntity
  8
0
  6
Continuous
 62
     7
370
    15
100
AcDbCircle
 10
417.6057490499
 20
826.2563450624
 30
0.0
 40
1.650000000000091
100
AcDbArc
 50
180.0
 51
0.0
  0
LINE
  5
1C9
330
1F
100
AcDbEntity
  8
0
  6
Continuous
 62
     7
370
    15
100
AcDbLine
 10
419.2557490499
 20
826.2563450624
 30
0.0
 11
419.2557490499
 21
847.2563450624
 31
0.0
  0
ARC
  5
1CA
330
1F
100
AcDbEntity
  8
0
  6
Continuous
 62
     7
370
    15
100
AcDbCircle
 10
417.6057490499
 20
847.2563450624
 30
0.0
 40
1.650000000000205
100
AcDbArc
 50
0.0
 51
180.0
  0
LINE
  5
1CB
330
1F
100
AcDbEntity
  8
0
  6
Continuous
 62
     7
370
    15
100
AcDbLine
 10
415.9557490499
 20
847.2563450624
 30
0.0
 11
415.9557490499
 21
826.2563450624
 31
0.0
  0
ARC
  5
1CC
330
1F
100
AcDbEntity
  8
0
  6
Continuous
 62
     7
370
    15
100
AcDbCircle
 10
417.6057490499
 20
795.2563450624
 30
0.0
 40
1.650000000000091
100
AcDbArc
 50
180.0
 51
360.0
  0
LINE
  5
1CD
330
1F
100
AcDbEntity
  8
0
  6
Continuous
 62
     7
370
    15
100
AcDbLine
 10
419.2557490499
 20
795.2563450624
 30
0.0
 11
419.2557490499
 21
816.2563450624
 31
0.0
  0
ARC
  5
1CE
330
1F
100
AcDbEntity
  8
0
  6
Continuous
 62
     7
370
    15
100
AcDbCircle
 10
417.6057490499
 20
816.2563450624
 30
0.0
 40
1.650000000000034
100
AcDbArc
 50
0.0
 51
180.0
  0
LINE
  5
1CF
330
1F
100
AcDbEntity
  8
0
  6
Continuous
 62
     7
370
    15
100
AcDbLine
 10
415.9557490499
 20
816.2563450624
 30
0.0
 11
415.9557490499
 21
795.2563450624
 31
0.0
  0
ARC
  5
1D0
330
1F
100
AcDbEntity
  8
0
  6
Continuous
 62
     7
370
    15
100
AcDbCircle
 10
386.6057490499
 20
795.2563450624
 30
0.0
 40
1.649999999999977
100
AcDbArc
 50
180.0
 51
0.0
  0
LINE
  5
1D1
330
1F
100
AcDbEntity
  8
0
  6
Continuous
 62
     7
370
    15
100
AcDbLine
 10
388.2557490499
 20
795.2563450624
 30
0.0
 11
388.2557490499
 21
816.2563450624
 31
0.0
  0
ARC
  5
1D2
330
1F
100
AcDbEntity
  8
0
  6
Continuous
 62
     7
370
    15
100
AcDbCircle
 10
386.6057490499
 20
816.2563450624
 30
0.0
 40
1.650000000000034
100
AcDbArc
 50
0.0
 51
180.0
  0
LINE
  5
1D3
330
1F
100
AcDbEntity
  8
0
  6
Continuous
 62
     7
370
    15
100
AcDbLine
 10
384.9557490499
 20
816.2563450624
 30
0.0
 11
384.9557490499
 21
795.2563450624
 31
0.0
  0
LINE
  5
1D4
330
1F
100
AcDbEntity
  8
0
  6
Continuous
 62
     7
370
    15
100
AcDbLine
 10
856.8902921922
 20
607.1002438521
 30
0.0
 11
857.3257065166
 21
613.1929780958
 31
0.0
  0
LINE
  5
1D5
330
1F
100
AcDbEntity
  8
0
  6
Continuous
 62
     7
370
    15
100
AcDbLine
 10
821.2791836104
 20
607.1002438521
 30
0.0
 11
856.8902921922
 21
607.1002438521
 31
0.0
  0
LINE
  5
1D6
330
1F
100
AcDbEntity
  8
0
  6
Continuous
 62
     7
370
    15
100
AcDbLine
 10
821.2791836104
 20
632.3002438521
 30
0.0
 11
821.2791836104
 21
607.1002438521
 31
0.0
  0
LINE
  5
1D7
330
1F
100
AcDbEntity
  8
0
  6
Continuous
 62
     7
370
    15
100
AcDbLine
 10
826.9918852758
 20
632.3002438521
 30
0.0
 11
821.2791836104
 21
632.3002438521
 31
0.0
  0
ARC
  5
1D8
330
1F
100
AcDbEntity
  8
0
  6
Continuous
 62
     7
370
    15
100
AcDbCircle
 10
827.3791836104
 20
632.2002438521
 30
0.0
 40
0.3999999999999743
100
AcDbArc
 50
165.5224878141
 51
104.4775121859
  0
LINE
  5
1D9
330
1F
100
AcDbEntity
  8
0
  6
Continuous
 62
     7
370
    15
100
AcDbLine
 10
827.2791836104
 20
656.8129455175
 30
0.0
 11
827.2791836104
 21
632.5875421868
 31
0.0
  0
ARC
  5
1DA
330
1F
100
AcDbEntity
  8
0
  6
Continuous
 62
     7
370
    15
100
AcDbCircle
 10
827.3791836104
 20
657.2002438521
 30
0.0
 40
0.4000000000000844
100
AcDbArc
 50
255.5224878141
 51
194.4775121859
  0
LINE
  5
1DB
330
1F
100
AcDbEntity
  8
0
  6
Continuous
 62
     7
370
    15
100
AcDbLine
 10
821.2791836104
 20
657.1002438521
 30
0.0
 11
826.9918852758
 21
657.1002438521
 31
0.0
  0
LINE
  5
1DC
330
1F
100
AcDbEntity
  8
0
  6
Continuous
 62
     7
370
    15
100
AcDbLine
 10
821.2791836104
 20
682.3002438521
 30
0.0
 11
821.2791836104
 21
657.1002438521
 31
0.0
  0
LINE
  5
1DD
330
1F
100
AcDbEntity
  8
0
  6
Continuous
 62
     7
370
    15
100
AcDbLine
 10
826.9918852758
 20
682.3002438521
 30
0.0
 11
821.2791836104
 21
682.3002438521
 31
0.0
  0
ARC
  5
1DE
330
1F
100
AcDbEntity
  8
0
  6
Continuous
 62
     7
370
    15
100
AcDbCircle
 10
827.3791836104
 20
682.2002438521
 30
0.0
 40
0.3999999999999743
100
AcDbArc
 50
165.5224878141
 51
104.4775121859
  0
LINE
  5
1DF
330
1F
100
AcDbEntity
  8
0
  6
Continuous
 62
     7
370
    15
100
AcDbLine
 10
827.2791836104
 20
706.8129455175
 30
0.0
 11
827.2791836104
 21
682.5875421868
 31
0.0
  0
ARC
  5
1E0
330
1F
100
AcDbEntity
  8
0
  6
Continuous
 62
     7
370
    15
100
AcDbCircle
 10
827.3791836104
 20
707.2002438521
 30
0.0
 40
0.3999999999999459
100
AcDbArc
 50
255.5224878141
 51
194.4775121859
  0
LINE
  5
1E1
330
1F
100
AcDbEntity
  8
0
  6
Continuous
 62
     7
370
    15
100
AcDbLine
 10
821.2791836104
 20
707.1002438521
 30
0.0
 11
826.9918852758
 21
707.1002438521
 31
0.0
  0
LINE
  5
1E2
330
1F
100
AcDbEntity
  8
0
  6
Continuous
 62
     7
370
    15
100
AcDbLine
 10
821.2791836104
 20
732.3002438521
 30
0.0
 11
821.2791836104
 21
707.1002438521
 31
0.0
  0
LINE
  5
1E3
330
1F
100
AcDbEntity
  8
0
  6
Continuous
 62
     7
370
    15
100
AcDbLine
 10
826.9918852758
 20
732.3002438521
 30
0.0
 11
821.2791836104
 21
732.3002438521
 31
0.0
  0
ARC
  5
1E4
330
1F
100
AcDbEntity
  8
0
  6
Continuous
 62
     7
370
    15
100
AcDbCircle
 10
827.3791836104
 20
732.2002438521
 30
0.0
 40
0.3999999999999743
100
AcDbArc
 50
165.5224878141
 51
104.4775121859
  0
LINE
  5
1E5
330
1F
100
AcDbEntity
  8
0
  6
Continuous
 62
     7
370
    15
100
AcDbLine
 10
827.2791836104
 20
756.8129455175
 30
0.0
 11
827.2791836104
 21
732.5875421868
 31
0.0
  0
ARC
  5
1E6
330
1F
100
AcDbEntity
  8
0
  6
Continuous
 62
     7
370
    15
100
AcDbCircle
 10
827.3791836104
 20
757.2002438521
 30
0.0
 40
0.3999999999999743
100
AcDbArc
 50
255.5224878141
 51
194.4775121859
  0
LINE
  5
1E7
330
1F
100
AcDbEntity
  8
0
  6
Continuous
 62
     7
370
    15
100
AcDbLine
 10
821.2791836104
 20
757.1002438521
 30
0.0
 11
826.9918852758
 21
757.1002438521
 31
0.0
  0
LINE
  5
1E8
330
1F
100
AcDbEntity
  8
0
  6
Continuous
 62
     7
370
    15
100
AcDbLine
 10
821.2791836104
 20
782.3002438521
 30
0.0
 11
821.2791836104
 21
757.1002438521
 31
0.0
  0
LINE
  5
1E9
330
1F
100
AcDbEntity
  8
0
  6
Continuous
 62
     7
370
    15
100
AcDbLine
 10
826.9918852758
 20
782.3002438521
 30
0.0
 11
821.2791836104
 21
782.3002438521
 31
0.0
  0
ARC
  5
1EA
330
1F
100
AcDbEntity
  8
0
  6
Continuous
 62
     7
370
    15
100
AcDbCircle
 10
827.3791836104
 20
782.2002438521
 30
0.0
 40
0.3999999999999743
100
AcDbArc
 50
165.5224878141
 51
104.4775121859
  0
LINE
  5
1EB
330
1F
100
AcDbEntity
  8
0
  6
Continuous
 62
     7
370
    15
100
AcDbLine
 10
827.2791836104
 20
806.8129455175
 30
0.0
 11
827.2791836104
 21
782.5875421868
 31
0.0
  0
ARC
  5
1EC
330
1F
100
AcDbEntity
  8
0
  6
Continuous
 62
     7
370
    15
100
AcDbCircle
 10
827.3791836104
 20
807.2002438521
 30
0.0
 40
0.3999999999999743
100
AcDbArc
 50
255.5224878141
 51
194.4775121859
  0
LINE
  5
1ED
330
1F
100
AcDbEntity
  8
0
  6
Continuous
 62
     7
370
    15
100
AcDbLine
 10
821.2791836104
 20
807.1002438521
 30
0.0
 11
826.9918852758
 21
807.1002438521
 31
0.0
  0
LINE
  5
1EE
330
1F
100
AcDbEntity
  8
0
  6
Continuous
 62
     7
370
    15
100
AcDbLine
 10
821.2791836104
 20
832.3002438521
 30
0.0
 11
821.2791836104
 21
807.1002438521
 31
0.0
  0
LINE
  5
1EF
330
1F
100
AcDbEntity
  8
0
  6
Continuous
 62
     7
370
    15
100
AcDbLine
 10
826.9918852758
 20
832.3002438521
 30
0.0
 11
821.2791836104
 21
832.3002438521
 31
0.0
  0
ARC
  5
1F0
330
1F
100
AcDbEntity
  8
0
  6
Continuous
 62
     7
370
    15
100
AcDbCircle
 10
827.3791836104
 20
832.2002438521
 30
0.0
 40
0.3999999999999743
100
AcDbArc
 50
165.5224878141
 51
104.4775121859
  0
LINE
  5
1F1
330
1F
100
AcDbEntity
  8
0
  6
Continuous
 62
     7
370
    15
100
AcDbLine
 10
827.2791836104
 20
856.8129455175
 30
0.0
 11
827.2791836104
 21
832.5875421868
 31
0.0
  0
ARC
  5
1F2
330
1F
100
AcDbEntity
  8
0
  6
Continuous
 62
     7
370
    15
100
AcDbCircle
 10
827.3791836104
 20
857.2002438521
 30
0.0
 40
0.4000000000000844
100
AcDbArc
 50
255.5224878141
 51
194.4775121859
  0
LINE
  5
1F3
330
1F
100
AcDbEntity
  8
0
  6
Continuous
 62
     7
370
    15
100
AcDbLine
 10
821.2791836104
 20
857.1002438521
 30
0.0
 11
826.9918852758
 21
857.1002438521
 31
0.0
  0
LINE
  5
1F4
330
1F
100
AcDbEntity
  8
0
  6
Continuous
 62
     7
370
    15
100
AcDbLine
 10
821.2791836104
 20
882.3002438521
 30
0.0
 11
821.2791836104
 21
857.1002438521
 31
0.0
  0
LINE
  5
1F5
330
1F
100
AcDbEntity
  8
0
  6
Continuous
 62
     7
370
    15
100
AcDbLine
 10
826.9918852758
 20
882.3002438521
 30
0.0
 11
821.2791836104
 21
882.3002438521
 31
0.0
  0
ARC
  5
1F6
330
1F
100
AcDbEntity
  8
0
  6
Continuous
 62
     7
370
    15
100
AcDbCircle
 10
827.3791836104
 20
882.2002438521
 30
0.0
 40
0.3999999999999743
100
AcDbArc
 50
165.5224878141
 51
104.4775121859
  0
LINE
  5
1F7
330
1F
100
AcDbEntity
  8
0
  6
Continuous
 62
     7
370
    15
100
AcDbLine
 10
827.2791836104
 20
907.3002438521
 30
0.0
 11
827.2791836104
 21
882.5875421868
 31
0.0
  0
LINE
  5
1F8
330
1F
100
AcDbEntity
  8
0
  6
Continuous
 62
     7
370
    15
100
AcDbLine
 10
856.7833043765
 20
907.3002438521
 30
0.0
 11
827.2791836104
 21
907.3002438521
 31
0.0
  0
LINE
  5
1F9
330
1F
100
AcDbEntity
  8
0
  6
Continuous
 62
     7
370
    15
100
AcDbLine
 10
857.3277068272
 20
899.6684337953
 30
0.0
 11
856.7833043765
 21
907.3002438521
 31
0.0
  0
ARC
  5
1FA
330
1F
100
AcDbEntity
  8
0
  6
Continuous
 62
     7
370
    15
100
AcDbCircle
 10
858.8796314756
 20
898.4068752807
 30
0.0
 40
2.000000000000155
100
AcDbArc
 50
140.8923618452
 51
1.2125631481
  0
LINE
  5
1FB
330
1F
100
AcDbEntity
  8
0
  6
Continuous
 62
     7
370
    15
100
AcDbLine
 10
860.8791836104
 20
907.3002438521
 30
0.0
 11
860.8791836104
 21
898.4491985599
 31
0.0
  0
LINE
  5
1FC
330
1F
100
AcDbEntity
  8
0
  6
Continuous
 62
     7
370
    15
100
AcDbLine
 10
990.8791836104
 20
907.3002438521
 30
0.0
 11
860.8791836104
 21
907.3002438521
 31
0.0
  0
LINE
  5
1FD
330
1F
100
AcDbEntity
  8
0
  6
Continuous
 62
     7
370
    15
100
AcDbLine
 10
990.8791836104
 20
898.4491985599
 30
0.0
 11
990.8791836104
 21
907.3002438521
 31
0.0
  0
ARC
  5
1FE
330
1F
100
AcDbEntity
  8
0
  6
Continuous
 62
     7
370
    15
100
AcDbCircle
 10
992.8787357453
 20
898.4068752807
 30
0.0
 40
2.000000000000053
100
AcDbArc
 50
178.7874368519
 51
39.1076381548
  0
LINE
  5
1FF
330
1F
100
AcDbEntity
  8
0
  6
Continuous
 62
     7
370
    15
100
AcDbLine
 10
994.9750628444
 20
907.3002438521
 30
0.0
 11
994.4306603937
 21
899.6684337953
 31
0.0
  0
LINE
  5
200
330
1F
100
AcDbEntity
  8
0
  6
Continuous
 62
     7
370
    15
100
AcDbLine
 10
1030.4791836104
 20
907.3002438521
 30
0.0
 11
994.9750628444
 21
907.3002438521
 31
0.0
  0
LINE
  5
201
330
1F
100
AcDbEntity
  8
0
  6
Continuous
 62
     7
370
    15
100
AcDbLine
 10
1030.4791836104
 20
882.1002438521
 30
0.0
 11
1030.4791836104
 21
907.3002438521
 31
0.0
  0
LINE
  5
202
330
1F
100
AcDbEntity
  8
0
  6
Continuous
 62
     7
370
    15
100
AcDbLine
 10
1024.7664819451
 20
882.1002438521
 30
0.0
 11
1030.4791836104
 21
882.1002438521
 31
0.0
  0
ARC
  5
203
330
1F
100
AcDbEntity
  8
0
  6
Continuous
 62
     7
370
    15
100
AcDbCircle
 10
1024.3791836104
 20
882.2002438521
 30
0.0
 40
0.3999999999999743
100
AcDbArc
 50
345.5224878141
 51
284.4775121859
  0
LINE
  5
204
330
1F
100
AcDbEntity
  8
0
  6
Continuous
 62
     7
370
    15
100
AcDbLine
 10
1024.4791836104
 20
857.5875421868
 30
0.0
 11
1024.4791836104
 21
881.8129455175
 31
0.0
  0
ARC
  5
205
330
1F
100
AcDbEntity
  8
0
  6
Continuous
 62
     7
370
    15
100
AcDbCircle
 10
1024.3791836104
 20
857.2002438521
 30
0.0
 40
0.400000000000056
100
AcDbArc
 50
75.5224878141
 51
14.4775121859
  0
LINE
  5
206
330
1F
100
AcDbEntity
  8
0
  6
Continuous
 62
     7
370
    15
100
AcDbLine
 10
1030.4791836104
 20
857.3002438521
 30
0.0
 11
1024.7664819451
 21
857.3002438521
 31
0.0
  0
LINE
  5
207
330
1F
100
AcDbEntity
  8
0
  6
Continuous
 62
     7
370
    15
100
AcDbLine
 10
1030.4791836104
 20
832.1002438521
 30
0.0
 11
1030.4791836104
 21
857.3002438521
 31
0.0
  0
LINE
  5
208
330
1F
100
AcDbEntity
  8
0
  6
Continuous
 62
     7
370
    15
100
AcDbLine
 10
1024.7664819451
 20
832.1002438521
 30
0.0
 11
1030.4791836104
 21
832.1002438521
 31
0.0
  0
ARC
  5
209
330
1F
100
AcDbEntity
  8
0
  6
Continuous
 62
     7
370
    15
100
AcDbCircle
 10
1024.3791836104
 20
832.2002438521
 30
0.0
 40
0.3999999999999459
100
AcDbArc
 50
345.5224878141
 51
284.4775121859
  0
LINE
  5
20A
330
1F
100
AcDbEntity
  8
0
  6
Continuous
 62
     7
370
    15
100
AcDbLine
 10
1024.4791836104
 20
807.5875421868
 30
0.0
 11
1024.4791836104
 21
831.8129455175
 31
0.0
  0
ARC
  5
20B
330
1F
100
AcDbEntity
  8
0
  6
Continuous
 62
     7
370
    15
100
AcDbCircle
 10
1024.3791836104
 20
807.2002438521
 30
0.0
 40
0.3999999999999743
100
AcDbArc
 50
75.5224878141
 51
14.4775121859
  0
LINE
  5
20C
330
1F
100
AcDbEntity
  8
0
  6
Continuous
 62
     7
370
    15
100
AcDbLine
 10
1030.4791836104
 20
807.3002438521
 30
0.0
 11
1024.7664819451
 21
807.3002438521
 31
0.0
  0
LINE
  5
20D
330
1F
100
AcDbEntity
  8
0
  6
Continuous
 62
     7
370
    15
100
AcDbLine
 10
1030.4791836104
 20
782.1002438521
 30
0.0
 11
1030.4791836104
 21
807.3002438521
 31
0.0
  0
LINE
  5
20E
330
1F
100
AcDbEntity
  8
0
  6
Continuous
 62
     7
370
    15
100
AcDbLine
 10
1024.7664819451
 20
782.1002438521
 30
0.0
 11
1030.4791836104
 21
782.1002438521
 31
0.0
  0
ARC
  5
20F
330
1F
100
AcDbEntity
  8
0
  6
Continuous
 62
     7
370
    15
100
AcDbCircle
 10
1024.3791836104
 20
782.2002438521
 30
0.0
 40
0.400000000000056
100
AcDbArc
 50
345.5224878141
 51
284.4775121859
  0
LINE
  5
210
330
1F
100
AcDbEntity
  8
0
  6
Continuous
 62
     7
370
    15
100
AcDbLine
 10
1024.4791836104
 20
757.5875421868
 30
0.0
 11
1024.4791836104
 21
781.8129455175
 31
0.0
  0
ARC
  5
211
330
1F
100
AcDbEntity
  8
0
  6
Continuous
 62
     7
370
    15
100
AcDbCircle
 10
1024.3791836104
 20
757.2002438521
 30
0.0
 40
0.3999999999999743
100
AcDbArc
 50
75.5224878141
 51
14.4775121859
  0
LINE
  5
212
330
1F
100
AcDbEntity
  8
0
  6
Continuous
 62
     7
370
    15
100
AcDbLine
 10
1030.4791836104
 20
757.3002438521
 30
0.0
 11
1024.7664819451
 21
757.3002438521
 31
0.0
  0
LINE
  5
213
330
1F
100
AcDbEntity
  8
0
  6
Continuous
 62
     7
370
    15
100
AcDbLine
 10
1030.4791836104
 20
732.1002438521
 30
0.0
 11
1030.4791836104
 21
757.3002438521
 31
0.0
  0
LINE
  5
214
330
1F
100
AcDbEntity
  8
0
  6
Continuous
 62
     7
370
    15
100
AcDbLine
 10
1024.7664819451
 20
732.1002438521
 30
0.0
 11
1030.4791836104
 21
732.1002438521
 31
0.0
  0
ARC
  5
215
330
1F
100
AcDbEntity
  8
0
  6
Continuous
 62
     7
370
    15
100
AcDbCircle
 10
1024.3791836104
 20
732.2002438521
 30
0.0
 40
0.3999999999999743
100
AcDbArc
 50
345.5224878141
 51
284.4775121859
  0
LINE
  5
216
330
1F
100
AcDbEntity
  8
0
  6
Continuous
 62
     7
370
    15
100
AcDbLine
 10
1024.4791836104
 20
707.5875421868
 30
0.0
 11
1024.4791836104
 21
731.8129455175
 31
0.0
  0
ARC
  5
217
330
1F
100
AcDbEntity
  8
0
  6
Continuous
 62
     7
370
    15
100
AcDbCircle
 10
1024.3791836104
 20
707.2002438521
 30
0.0
 40
0.400000000000056
100
AcDbArc
 50
75.5224878141
 51
14.4775121859
  0
LINE
  5
218
330
1F
100
AcDbEntity
  8
0
  6
Continuous
 62
     7
370
    15
100
AcDbLine
 10
1030.4791836104
 20
707.3002438521
 30
0.0
 11
1024.7664819451
 21
707.3002438521
 31
0.0
  0
LINE
  5
219
330
1F
100
AcDbEntity
  8
0
  6
Continuous
 62
     7
370
    15
100
AcDbLine
 10
1030.4791836104
 20
682.1002438521
 30
0.0
 11
1030.4791836104
 21
707.3002438521
 31
0.0
  0
LINE
  5
21A
330
1F
100
AcDbEntity
  8
0
  6
Continuous
 62
     7
370
    15
100
AcDbLine
 10
1024.7664819451
 20
682.1002438521
 30
0.0
 11
1030.4791836104
 21
682.1002438521
 31
0.0
  0
ARC
  5
21B
330
1F
100
AcDbEntity
  8
0
  6
Continuous
 62
     7
370
    15
100
AcDbCircle
 10
1024.3791836104
 20
682.2002438521
 30
0.0
 40
0.400000000000056
100
AcDbArc
 50
345.5224878141
 51
284.4775121859
  0
LINE
  5
21C
330
1F
100
AcDbEntity
  8
0
  6
Continuous
 62
     7
370
    15
100
AcDbLine
 10
1024.4791836104
 20
657.5875421868
 30
0.0
 11
1024.4791836104
 21
681.8129455175
 31
0.0
  0
ARC
  5
21D
330
1F
100
AcDbEntity
  8
0
  6
Continuous
 62
     7
370
    15
100
AcDbCircle
 10
1024.3791836104
 20
657.2002438521
 30
0.0
 40
0.3999999999999743
100
AcDbArc
 50
75.5224878141
 51
14.4775121859
  0
LINE
  5
21E
330
1F
100
AcDbEntity
  8
0
  6
Continuous
 62
     7
370
    15
100
AcDbLine
 10
1030.4791836104
 20
657.3002438521
 30
0.0
 11
1024.7664819451
 21
657.3002438521
 31
0.0
  0
LINE
  5
21F
330
1F
100
AcDbEntity
  8
0
  6
Continuous
 62
     7
370
    15
100
AcDbLine
 10
1030.4791836104
 20
632.1002438521
 30
0.0
 11
1030.4791836104
 21
657.3002438521
 31
0.0
  0
LINE
  5
220
330
1F
100
AcDbEntity
  8
0
  6
Continuous
 62
     7
370
    15
100
AcDbLine
 10
1024.7664819451
 20
632.1002438521
 30
0.0
 11
1030.4791836104
 21
632.1002438521
 31
0.0
  0
ARC
  5
221
330
1F
100
AcDbEntity
  8
0
  6
Continuous
 62
     7
370
    15
100
AcDbCircle
 10
1024.3791836104
 20
632.2002438521
 30
0.0
 40
0.3999999999999743
100
AcDbArc
 50
345.5224878141
 51
284.4775121859
  0
LINE
  5
222
330
1F
100
AcDbEntity
  8
0
  6
Continuous
 62
     7
370
    15
100
AcDbLine
 10
1024.4791836104
 20
607.1002438521
 30
0.0
 11
1024.4791836104
 21
631.8129455175
 31
0.0
  0
LINE
  5
223
330
1F
100
AcDbEntity
  8
0
  6
Continuous
 62
     7
370
    15
100
AcDbLine
 10
994.8680750287
 20
607.1002438521
 30
0.0
 11
1024.4791836104
 21
607.1002438521
 31
0.0
  0
LINE
  5
224
330
1F
100
AcDbEntity
  8
0
  6
Continuous
 62
     7
370
    15
100
AcDbLine
 10
994.4326607043
 20
613.1929780958
 30
0.0
 11
994.8680750287
 21
607.1002438521
 31
0.0
  0
ARC
  5
225
330
1F
100
AcDbEntity
  8
0
  6
Continuous
 62
     7
370
    15
100
AcDbCircle
 10
992.879182263
 20
614.4526227807
 30
0.0
 40
2.000000032884365
100
AcDbArc
 50
320.9629834972
 51
180.0665286485
  0
LINE
  5
226
330
1F
100
AcDbEntity
  8
0
  6
Continuous
 62
     7
370
    15
100
AcDbLine
 10
990.8791836104
 20
607.1002438521
 30
0.0
 11
990.8791835784
 21
614.4503004933
 31
0.0
  0
LINE
  5
227
330
1F
100
AcDbEntity
  8
0
  6
Continuous
 62
     7
370
    15
100
AcDbLine
 10
860.8791836104
 20
607.1002438521
 30
0.0
 11
990.8791836104
 21
607.1002438521
 31
0.0
  0
LINE
  5
228
330
1F
100
AcDbEntity
  8
0
  6
Continuous
 62
     7
370
    15
100
AcDbLine
 10
860.8791836425
 20
614.4503004933
 30
0.0
 11
860.8791836104
 21
607.1002438521
 31
0.0
  0
ARC
  5
229
330
1F
100
AcDbEntity
  8
0
  6
Continuous
 62
     7
370
    15
100
AcDbCircle
 10
858.8791849579
 20
614.4526227807
 30
0.0
 40
2.000000032884251
100
AcDbArc
 50
359.9334713515
 51
219.0370165028
  0
CIRCLE
  5
22A
330
1F
100
AcDbEntity
  8
0
  6
Continuous
 62
     7
370
    15
100
AcDbCircle
 10
844.8791836104
 20
624.7002438521
 30
0.0
 40
10.89999999999998
  0
CIRCLE
  5
22B
330
1F
100
AcDbEntity
  8
0
  6
Continuous
 62
     7
370
    15
100
AcDbCircle
 10
1006.8791836104
 20
624.7002438521
 30
0.0
 40
10.90000000000009
  0
ARC
  5
22C
330
1F
100
AcDbEntity
  8
0
  6
Continuous
 62
     7
370
    15
100
AcDbCircle
 10
955.3791836104
 20
656.6002438521
 30
0.0
 40
15.0
100
AcDbArc
 50
270.0
 51
0.0
  0
LINE
  5
22D
330
1F
100
AcDbEntity
  8
0
  6
Continuous
 62
     7
370
    15
100
AcDbLine
 10
970.3791836104
 20
656.6002438521
 30
0.0
 11
970.3791836104
 21
770.6002438521
 31
0.0
  0
ARC
  5
22E
330
1F
100
AcDbEntity
  8
0
  6
Continuous
 62
     7
370
    15
100
AcDbCircle
 10
955.3791836104
 20
770.6002438521
 30
0.0
 40
15.0
100
AcDbArc
 50
0.0
 51
90.0
  0
LINE
  5
22F
330
1F
100
AcDbEntity
  8
0
  6
Continuous
 62
     7
370
    15
100
AcDbLine
 10
955.3791836104
 20
785.6002438521
 30
0.0
 11
868.8791836104
 21
785.6002438521
 31
0.0
  0
ARC
  5
230
330
1F
100
AcDbEntity
  8
0
  6
Continuous
 62
     7
370
    15
100
AcDbCircle
 10
868.8791836104
 20
770.6002438521
 30
0.0
 40
15.0
100
AcDbArc
 50
90.0
 51
180.0
  0
LINE
  5
231
330
1F
100
AcDbEntity
  8
0
  6
Continuous
 62
     7
370
    15
100
AcDbLine
 10
853.8791836104
 20
770.6002438521
 30
0.0
 11
853.8791836104
 21
656.6002438521
 31
0.0
  0
ARC
  5
232
330
1F
100
AcDbEntity
  8
0
  6
Continuous
 62
     7
370
    15
100
AcDbCircle
 10
868.8791836104
 20
656.6002438521
 30
0.0
 40
15.0
100
AcDbArc
 50
180.0
 51
270.0
  0
LINE
  5
233
330
1F
100
AcDbEntity
  8
0
  6
Continuous
 62
     7
370
    15
100
AcDbLine
 10
868.8791836104
 20
641.6002438521
 30
0.0
 11
955.3791836104
 21
641.6002438521
 31
0.0
  0
CIRCLE
  5
234
330
1F
100
AcDbEntity
  8
0
  6
Continuous
 62
     7
370
    15
100
AcDbCircle
 10
973.3791836104
 20
834.9502438521
 30
0.0
 40
2.25
  0
CIRCLE
  5
235
330
1F
100
AcDbEntity
  8
0
  6
Continuous
 62
     7
370
    15
100
AcDbCircle
 10
962.3791836104
 20
834.9502438521
 30
0.0
 40
2.249999999999886
  0
CIRCLE
  5
236
330
1F
100
AcDbEntity
  8
0
  6
Continuous
 62
     7
370
    15
100
AcDbCircle
 10
879.3791836104
 20
834.9502438521
 30
0.0
 40
2.25
  0
CIRCLE
  5
237
330
1F
100
AcDbEntity
  8
0
  6
Continuous
 62
     7
370
    15
100
AcDbCircle
 10
971.8791836104
 20
878.0502438521
 30
0.0
 40
2.25
  0
CIRCLE
  5
238
330
1F
100
AcDbEntity
  8
0
  6
Continuous
 62
     7
370
    15
100
AcDbCircle
 10
960.8791836104
 20
883.2002438521
 30
0.0
 40
2.25
  0
CIRCLE
  5
239
330
1F
100
AcDbEntity
  8
0
  6
Continuous
 62
     7
370
    15
100
AcDbCircle
 10
879.3791836104
 20
878.0502438521
 30
0.0
 40
2.25
  0
CIRCLE
  5
23A
330
1F
100
AcDbEntity
  8
0
  6
Continuous
 62
     7
370
    15
100
AcDbCircle
 10
885.8791836104
 20
883.2002438521
 30
0.0
 40
2.25
  0
LINE
  5
23B
330
1F
100
AcDbEntity
  8
0
  6
Continuous
 62
     7
370
    15
100
AcDbLine
 10
293.6469454171
 20
787.7977625949
 30
0.0
 11
293.6469454171
 21
737.7977618499
 31
0.0
  0
LINE
  5
23C
330
1F
100
AcDbEntity
  8
0
  6
Continuous
 62
     7
370
    15
100
AcDbLine
 10
358.6469430329
 20
787.7977625949
 30
0.0
 11
293.6469454171
 21
787.7977625949
 31
0.0
  0
LINE
  5
23D
330
1F
100
AcDbEntity
  8
0
  6
Continuous
 62
     7
370
    15
100
AcDbLine
 10
358.6469430329
 20
737.7977618499
 30
0.0
 11
358.6469430329
 21
787.7977625949
 31
0.0
  0
LINE
  5
23E
330
1F
100
AcDbEntity
  8
0
  6
Continuous
 62
     7
370
    15
100
AcDbLine
 10
293.6469454171
 20
737.7977618499
 30
0.0
 11
358.6469430329
 21
737.7977618499
 31
0.0
  0
CIRCLE
  5
23F
330
1F
100
AcDbEntity
  8
0
  6
Continuous
 62
     7
370
    15
100
AcDbCircle
 10
306.1469454171
 20
747.7977618499
 30
0.0
 40
2.649999999999864
  0
CIRCLE
  5
240
330
1F
100
AcDbEntity
  8
0
  6
Continuous
 62
     7
370
    15
100
AcDbCircle
 10
346.1469454171
 20
747.7977618499
 30
0.0
 40
2.649999999999864
  0
CIRCLE
  5
241
330
1F
100
AcDbEntity
  8
0
  6
Continuous
 62
     7
370
    15
100
AcDbCircle
 10
346.1469454171
 20
772.7977618499
 30
0.0
 40
2.649999999999864
  0
CIRCLE
  5
242
330
1F
100
AcDbEntity
  8
0
  6
Continuous
 62
     7
370
    15
100
AcDbCircle
 10
306.1469454171
 20
772.7977618499
 30
0.0
 40
2.649999999999977
  0
LINE
  5
243
330
1F
100
AcDbEntity
  8
0
  6
Continuous
 62
     7
370
    15
100
AcDbLine
 10
46.6359248344
 20
730.8410615967
 30
0.0
 11
48.1359278743
 21
729.8410595701
 31
0.0
  0
LINE
  5
244
330
1F
100
AcDbEntity
  8
0
  6
Continuous
 62
     7
370
    15
100
AcDbLine
 10
46.6359248344
 20
848.0910645173
 30
0.0
 11
46.6359248344
 21
730.8410615967
 31
0.0
  0
LINE
  5
245
330
1F
100
AcDbEntity
  8
0
  6
Continuous
 62
     7
370
    15
100
AcDbLine
 10
58.38593002
 20
859.8410622524
 30
0.0
 11
46.6359248344
 21
848.0910645173
 31
0.0
  0
LINE
  5
246
330
1F
100
AcDbEntity
  8
0
  6
Continuous
 62
     7
370
    15
100
AcDbLine
 10
175.1359282021
 20
859.8410622524
 30
0.0
 11
58.38593002
 21
859.8410622524
 31
0.0
  0
LINE
  5
247
330
1F
100
AcDbEntity
  8
0
  6
Continuous
 62
     7
370
    15
100
AcDbLine
 10
176.6359275166
 20
858.8410602258
 30
0.0
 11
175.1359282021
 21
859.8410622524
 31
0.0
  0
LINE
  5
248
330
1F
100
AcDbEntity
  8
0
  6
Continuous
 62
     7
370
    15
100
AcDbLine
 10
176.6359275166
 20
730.8410615967
 30
0.0
 11
176.6359275166
 21
858.8410602258
 31
0.0
  0
LINE
  5
249
330
1F
100
AcDbEntity
  8
0
  6
Continuous
 62
     7
370
    15
100
AcDbLine
 10
175.1359282021
 20
729.8410595701
 30
0.0
 11
176.6359275166
 21
730.8410615967
 31
0.0
  0
LINE
  5
24A
330
1F
100
AcDbEntity
  8
0
  6
Continuous
 62
     7
370
    15
100
AcDbLine
 10
48.1359278743
 20
729.8410595701
 30
0.0
 11
175.1359282021
 21
729.8410595701
 31
0.0
  0
CIRCLE
  5
24B
330
1F
100
AcDbEntity
  8
0
  6
Continuous
 62
     7
370
    15
100
AcDbCircle
 10
169.1359268482
 20
847.3410613183
 30
0.0
 40
2.249999999999886
  0
CIRCLE
  5
24C
330
1F
100
AcDbEntity
  8
0
  6
Continuous
 62
     7
370
    15
100
AcDbCircle
 10
54.1359268482
 20
847.3410613183
 30
0.0
 40
2.249999999999886
  0
CIRCLE
  5
24D
330
1F
100
AcDbEntity
  8
0
  6
Continuous
 62
     7
370
    15
100
AcDbCircle
 10
54.1359268482
 20
746.5910613183
 30
0.0
 40
2.249999999999886
  0
CIRCLE
  5
24E
330
1F
100
AcDbEntity
  8
0
  6
Continuous
 62
     7
370
    15
100
AcDbCircle
 10
169.1359268482
 20
746.5910613183
 30
0.0
 40
2.249999999999886
  0
ARC
  5
24F
330
1F
100
AcDbEntity
  8
0
  6
Continuous
 62
     7
370
    15
100
AcDbCircle
 10
955.0347935827
 20
656.9009706384
 30
0.0
 40
15.0
100
AcDbArc
 50
330.0
 51
0.0
  0
LINE
  5
250
330
1F
100
AcDbEntity
  8
0
  6
Continuous
 62
     7
370
    15
100
AcDbLine
 10
968.0251746394
 20
649.4009706384
 30
0.0
 11
856.0444125259
 21
649.4009706384
 31
0.0
  0
ARC
  5
251
330
1F
100
AcDbEntity
  8
0
  6
Continuous
 62
     7
370
    15
100
AcDbCircle
 10
869.0347935827
 20
656.9009706384
 30
0.0
 40
14.99999999999997
100
AcDbArc
 50
180.0
 51
210.0
  0
LINE
  5
252
330
1F
100
AcDbEntity
  8
0
  6
Continuous
 62
     7
370
    15
100
AcDbLine
 10
854.0347935827
 20
656.9009706384
 30
0.0
 11
854.0347935827
 21
772.4009706384
 31
0.0
  0
LINE
  5
253
330
1F
100
AcDbEntity
  8
0
  6
Continuous
 62
     7
370
    15
100
AcDbLine
 10
861.0347935827
 20
779.4009706384
 30
0.0
 11
854.0347935827
 21
772.4009706384
 31
0.0
  0
LINE
  5
254
330
1F
100
AcDbEntity
  8
0
  6
Continuous
 62
     7
370
    15
100
AcDbLine
 10
861.0347935827
 20
779.4009706384
 30
0.0
 11
967.394000677
 21
779.4009706384
 31
0.0
  0
ARC
  5
255
330
1F
100
AcDbEntity
  8
0
  6
Continuous
 62
     7
370
    15
100
AcDbCircle
 10
955.0347935827
 20
770.9009706384
 30
0.0
 40
15.00000000000001
100
AcDbArc
 50
0.0
 51
34.5181078411
  0
CIRCLE
  5
256
330
1F
100
AcDbEntity
  8
0
  6
Continuous
 62
     7
370
    15
100
AcDbCircle
 10
903.7847935827
 20
686.9009706384
 30
0.0
 40
2.249999999999886
  0
CIRCLE
  5
257
330
1F
100
AcDbEntity
  8
0
  6
Continuous
 62
     7
370
    15
100
AcDbCircle
 10
865.7847935827
 20
686.9009706384
 30
0.0
 40
2.250000000000114
  0
CIRCLE
  5
258
330
1F
100
AcDbEntity
  8
0
  6
Continuous
 62
     7
370
    15
100
AcDbCircle
 10
903.7847935827
 20
751.9009706384
 30
0.0
 40
2.25
  0
CIRCLE
  5
259
330
1F
100
AcDbEntity
  8
0
  6
Continuous
 62
     7
370
    15
100
AcDbCircle
 10
865.7847935827
 20
751.9009706384
 30
0.0
 40
2.249999999999886
  0
CIRCLE
  5
25A
330
1F
100
AcDbEntity
  8
0
  6
Continuous
 62
     7
370
    15
100
AcDbCircle
 10
962.7847935827
 20
771.9009706384
 30
0.0
 40
2.25
  0
CIRCLE
  5
25B
330
1F
100
AcDbEntity
  8
0
  6
Continuous
 62
     7
370
    15
100
AcDbCircle
 10
962.7847935827
 20
656.9009706384
 30
0.0
 40
2.250000000000114
  0
CIRCLE
  5
25C
330
1F
100
AcDbEntity
  8
0
  6
Continuous
 62
     7
370
    15
100
AcDbCircle
 10
862.0347935827
 20
656.9009706384
 30
0.0
 40
2.25
  0
CIRCLE
  5
25D
330
1F
100
AcDbEntity
  8
0
  6
Continuous
 62
     7
370
    15
100
AcDbCircle
 10
862.0347935827
 20
771.9009706384
 30
0.0
 40
2.25
  0
LINE
  5
25E
330
1F
100
AcDbEntity
  8
0
  6
Continuous
 62
     7
370
    15
100
AcDbLine
 10
970.0347935827
 20
770.9009706384
 30
0.0
 11
970.0347935827
 21
656.9009706384
 31
0.0
  0
ENDSEC
  0
SECTION
  2
OBJECTS
  0
DICTIONARY
  5
C
330
0
100
AcDbDictionary
281
     1
  3
ACAD_GROUP
350
D
  3
ACAD_LAYOUT
350
1A
  3
ACAD_MLINESTYLE
350
17
  3
ACAD_PLOTSETTINGS
350
19
  3
ACAD_PLOTSTYLENAME
350
E
  0
DICTIONARY
  5
D
102
{ACAD_REACTORS
330
C
102
}
330
C
100
AcDbDictionary
281
     1
  0
DICTIONARY
  5
1A
102
{ACAD_REACTORS
330
C
102
}
330
C
100
AcDbDictionary
281
     1
  3
Layout1
350
1E
  3
Layout2
350
26
  3
Model
350
22
  0
DICTIONARY
  5
17
102
{ACAD_REACTORS
330
C
102
}
330
C
100
AcDbDictionary
281
     1
  3
Standard
350
18
  0
DICTIONARY
  5
19
102
{ACAD_REACTORS
330
C
102
}
330
C
100
AcDbDictionary
281
     1
  0
ACDBDICTIONARYWDFLT
  5
E
102
{ACAD_REACTORS
330
C
102
}
330
C
100
AcDbDictionary
281
     1
  3
Normal
350
F
100
AcDbDictionaryWithDefault
340
F
  0
LAYOUT
  5
1E
102
{ACAD_REACTORS
330
1A
102
}
330
1A
100
AcDbPlotSettings
  1

  2
none_device
  4

  6

 40
0.0
 41
0.0
 42
0.0
 43
0.0
 44
0.0
 45
0.0
 46
0.0
 47
0.0
 48
0.0
 49
0.0
140
0.0
141
0.0
142
1.0
143
1.0
 70
   688
 72
     0
 73
     0
 74
     5
  7

 75
    16
147
1.0
148
0.0
149
0.0
100
AcDbLayout
  1
Layout1
 70
     1
 71
     1
 10
0.0
 20
0.0
 11
420.0
 21
297.0
 12
0.0
 22
0.0
 32
0.0
 14
1.0000000000E+20
 24
1.0000000000E+20
 34
1.0000000000E+20
 15
-1.0000000000E+20
 25
-1.0000000000E+20
 35
-1.0000000000E+20
146
0.0
 13
0.0
 23
0.0
 33
0.0
 16
1.0
 26
0.0
 36
0.0
 17
0.0
 27
1.0
 37
0.0
 76
     0
330
1B
  0
LAYOUT
  5
26
102
{ACAD_REACTORS
330
1A
102
}
330
1A
100
AcDbPlotSettings
  1

  2
none_device
  4

  6

 40
0.0
 41
0.0
 42
0.0
 43
0.0
 44
0.0
 45
0.0
 46
0.0
 47
0.0
 48
0.0
 49
0.0
140
0.0
141
0.0
142
1.0
143
1.0
 70
   688
 72
     0
 73
     0
 74
     5
  7

 75
    16
147
1.0
148
0.0
149
0.0
100
AcDbLayout
  1
Layout2
 70
     1
 71
     2
 10
0.0
 20
0.0
 11
0.0
 21
0.0
 12
0.0
 22
0.0
 32
0.0
 14
0.0
 24
0.0
 34
0.0
 15
0.0
 25
0.0
 35
0.0
146
0.0
 13
0.0
 23
0.0
 33
0.0
 16
1.0
 26
0.0
 36
0.0
 17
0.0
 27
1.0
 37
0.0
 76
     0
330
23
  0
LAYOUT
  5
22
102
{ACAD_REACTORS
330
1A
102
}
330
1A
100
AcDbPlotSettings
  1

  2
none_device
  4

  6

 40
0.0
 41
0.0
 42
0.0
 43
0.0
 44
0.0
 45
0.0
 46
0.0
 47
0.0
 48
0.0
 49
0.0
140
0.0
141
0.0
142
1.0
143
1.0
 70
  1712
 72
     0
 73
     0
 74
     0
  7

 75
     0
147
1.0
148
0.0
149
0.0
100
AcDbLayout
  1
Model
 70
     1
 71
     0
 10
0.0
 20
0.0
 11
1624.0
 21
914.0
 12
0.0
 22
0.0
 32
0.0
 14
0.0
 24
0.0
 34
0.0
 15
1624.0
 25
914.0
 35
0.0
146
0.0
 13
0.0
 23
0.0
 33
0.0
 16
1.0
 26
0.0
 36
0.0
 17
0.0
 27
1.0
 37
0.0
 76
     0
330
1F
331
29
  0
MLINESTYLE
  5
18
102
{ACAD_REACTORS
330
17
102
}
330
17
100
AcDbMlineStyle
  2
Standard
 70
     0
  3

 62
   256
 51
90.0
 52
90.0
 71
     2
 49
0.5
 62
   256
  6
BYLAYER
 49
-0.5
 62
   256
  6
BYLAYER
  0
ACDBPLACEHOLDER
  5
F
102
{ACAD_REACTORS
330
E
102
}
330
E
  0
ENDSEC
  0
EOF
