  0
SECTION
  2
HEADER
  9
$ACADVER
  1
AC1015
  9
$ACADMAINTVER
 70
     6
  9
$DWGCODEPAGE
  3
ANSI_1252
  9
$INSBASE
 10
0.0
 20
0.0
 30
0.0
  9
$EXTMIN
 10
0.0
 20
0.0
 30
0.0
  9
$EXTMAX
 10
812.0
 20
457.0
 30
0.0
  9
$LIMMIN
 10
0.0
 20
0.0
  9
$LIMMAX
 10
812.0
 20
457.0
  9
$ORTHOMODE
 70
     0
  9
$REGENMODE
 70
     1
  9
$FILLMODE
 70
     1
  9
$QTEXTMODE
 70
     0
  9
$MIRRTEXT
 70
     1
  9
$LTSCALE
 40
1.0
  9
$ATTMODE
 70
     1
  9
$TEXTSIZE
 40
3.5
  9
$TRACEWID
 40
1.0
  9
$TEXTSTYLE
  7
Standard
  9
$CLAYER
  8
0
  9
$CELTYPE
  6
ByLayer
  9
$CECOLOR
 62
   256
  9
$CELTSCALE
 40
1.0
  9
$DISPSILH
 70
     0
  9
$DIMSCALE
 40
1.0
  9
$DIMASZ
 40
3.302
  9
$DIMEXO
 40
1.0
  9
$DIMDLI
 40
3.75
  9
$DIMRND
 40
0.0
  9
$DIMDLE
 40
0.0
  9
$DIMEXE
 40
1.0
  9
$DIMTP
 40
0.0
  9
$DIMTM
 40
0.0
  9
$DIMTXT
 40
3.5
  9
$DIMCEN
 40
2.5
  9
$DIMTSZ
 40
0.0
  9
$DIMTOL
 70
     0
  9
$DIMLIM
 70
     0
  9
$DIMTIH
 70
     1
  9
$DIMTOH
 70
     1
  9
$DIMSE1
 70
     0
  9
$DIMSE2
 70
     0
  9
$DIMTAD
 70
     1
  9
$DIMZIN
 70
     0
  9
$DIMBLK
  1

  9
$DIMASO
 70
     1
  9
$DIMSHO
 70
     1
  9
$DIMPOST
  1

  9
$DIMAPOST
  1

  9
$DIMALT
 70
     0
  9
$DIMALTD
 70
     3
  9
$DIMALTF
 40
0.0393700787
  9
$DIMLFAC
 40
1.0
  9
$DIMTOFL
 70
     1
  9
$DIMTVP
 40
0.0
  9
$DIMTIX
 70
     0
  9
$DIMSOXD
 70
     0
  9
$DIMSAH
 70
     0
  9
$DIMBLK1
  1

  9
$DIMBLK2
  1

  9
$DIMSTYLE
  2
ISO-25
  9
$DIMCLRD
 70
     0
  9
$DIMCLRE
 70
     0
  9
$DIMCLRT
 70
     0
  9
$DIMTFAC
 40
1.0
  9
$DIMGAP
 40
1.524
  9
$DIMJUST
 70
     0
  9
$DIMSD1
 70
     0
  9
$DIMSD2
 70
     0
  9
$DIMTOLJ
 70
     0
  9
$DIMTZIN
 70
     0
  9
$DIMALTZ
 70
     0
  9
$DIMALTTZ
 70
     0
  9
$DIMUPT
 70
     0
  9
$DIMDEC
 70
     2
  9
$DIMTDEC
 70
     2
  9
$DIMALTU
 70
     2
  9
$DIMALTTD
 70
     3
  9
$DIMTXSTY
  7
Standard
  9
$DIMAUNIT
 70
     0
  9
$DIMADEC
 70
     2
  9
$DIMALTRND
 40
0.0
  9
$DIMAZIN
 70
     0
  9
$DIMDSEP
 70
    44
  9
$DIMATFIT
 70
     3
  9
$DIMFRAC
 70
     0
  9
$DIMLDRBLK
  1

  9
$DIMLUNIT
 70
     2
  9
$DIMLWD
 70
    -2
  9
$DIMLWE
 70
    -2
  9
$DIMTMOVE
 70
     0
  9
$LUNITS
 70
     2
  9
$LUPREC
 70
     2
  9
$SKETCHINC
 40
1.0
  9
$FILLETRAD
 40
10.0
  9
$AUNITS
 70
     0
  9
$AUPREC
 70
     2
  9
$MENU
  1
.
  9
$ELEVATION
 40
0.0
  9
$PELEVATION
 40
0.0
  9
$THICKNESS
 40
0.0
  9
$LIMCHECK
 70
     0
  9
$CHAMFERA
 40
10.0
  9
$CHAMFERB
 40
10.0
  9
$CHAMFERC
 40
20.0
  9
$CHAMFERD
 40
0.0
  9
$SKPOLY
 70
     0
  9
$TDCREATE
 40
2456544.561673658
  9
$TDUCREATE
 40
2456544.061673658
  9
$TDUPDATE
 40
2456544.561674109
  9
$TDUUPDATE
 40
2456544.061674109
  9
$TDINDWG
 40
0.0000000116
  9
$TDUSRTIMER
 40
0.0000000116
  9
$USRTIMER
 70
     1
  9
$ANGBASE
 50
0.0
  9
$ANGDIR
 70
     0
  9
$PDMODE
 70
     0
  9
$PDSIZE
 40
-1.0
  9
$PLINEWID
 40
0.0
  9
$SPLFRAME
 70
     0
  9
$SPLINETYPE
 70
     6
  9
$SPLINESEGS
 70
     8
  9
$HANDSEED
  5
2A0
  9
$SURFTAB1
 70
     6
  9
$SURFTAB2
 70
     6
  9
$SURFTYPE
 70
     6
  9
$SURFU
 70
     6
  9
$SURFV
 70
     6
  9
$UCSBASE
  2

  9
$UCSNAME
  2

  9
$UCSORG
 10
0.0
 20
0.0
 30
0.0
  9
$UCSXDIR
 10
1.0
 20
0.0
 30
0.0
  9
$UCSYDIR
 10
0.0
 20
1.0
 30
0.0
  9
$UCSORTHOREF
  2

  9
$UCSORTHOVIEW
 70
     0
  9
$UCSORGTOP
 10
0.0
 20
0.0
 30
0.0
  9
$UCSORGBOTTOM
 10
0.0
 20
0.0
 30
0.0
  9
$UCSORGLEFT
 10
0.0
 20
0.0
 30
0.0
  9
$UCSORGRIGHT
 10
0.0
 20
0.0
 30
0.0
  9
$UCSORGFRONT
 10
0.0
 20
0.0
 30
0.0
  9
$UCSORGBACK
 10
0.0
 20
0.0
 30
0.0
  9
$PUCSBASE
  2

  9
$PUCSNAME
  2

  9
$PUCSORG
 10
0.0
 20
0.0
 30
0.0
  9
$PUCSXDIR
 10
1.0
 20
0.0
 30
0.0
  9
$PUCSYDIR
 10
0.0
 20
1.0
 30
0.0
  9
$PUCSORTHOREF
  2

  9
$PUCSORTHOVIEW
 70
     0
  9
$PUCSORGTOP
 10
0.0
 20
0.0
 30
0.0
  9
$PUCSORGBOTTOM
 10
0.0
 20
0.0
 30
0.0
  9
$PUCSORGLEFT
 10
0.0
 20
0.0
 30
0.0
  9
$PUCSORGRIGHT
 10
0.0
 20
0.0
 30
0.0
  9
$PUCSORGFRONT
 10
0.0
 20
0.0
 30
0.0
  9
$PUCSORGBACK
 10
0.0
 20
0.0
 30
0.0
  9
$USERI1
 70
     0
  9
$USERI2
 70
     0
  9
$USERI3
 70
     0
  9
$USERI4
 70
     0
  9
$USERI5
 70
     0
  9
$USERR1
 40
0.0
  9
$USERR2
 40
0.0
  9
$USERR3
 40
0.0
  9
$USERR4
 40
0.0
  9
$USERR5
 40
0.0
  9
$WORLDVIEW
 70
     1
  9
$SHADEDGE
 70
     3
  9
$SHADEDIF
 70
    70
  9
$TILEMODE
 70
     1
  9
$MAXACTVP
 70
    64
  9
$PINSBASE
 10
0.0
 20
0.0
 30
0.0
  9
$PLIMCHECK
 70
     0
  9
$PEXTMIN
 10
1.0000000000E+20
 20
1.0000000000E+20
 30
1.0000000000E+20
  9
$PEXTMAX
 10
-1.0000000000E+20
 20
-1.0000000000E+20
 30
-1.0000000000E+20
  9
$PLIMMIN
 10
0.0
 20
0.0
  9
$PLIMMAX
 10
420.0
 20
297.0
  9
$UNITMODE
 70
     0
  9
$VISRETAIN
 70
     1
  9
$PLINEGEN
 70
     0
  9
$PSLTSCALE
 70
     1
  9
$TREEDEPTH
 70
  3020
  9
$CMLSTYLE
  2
Standard
  9
$CMLJUST
 70
     0
  9
$CMLSCALE
 40
20.0
  9
$PROXYGRAPHICS
 70
     1
  9
$MEASUREMENT
 70
     1
  9
$CELWEIGHT
370
    -1
  9
$ENDCAPS
280
     0
  9
$JOINSTYLE
280
     0
  9
$LWDISPLAY
290
     1
  9
$INSUNITS
 70
     4
  9
$HYPERLINKBASE
  1

  9
$STYLESHEET
  1

  9
$XEDIT
290
     1
  9
$CEPSNTYPE
380
     0
  9
$PSTYLEMODE
290
     1
  9
$FINGERPRINTGUID
  2
{AD3BF242-2C4A-4549-A7B8-29D3820A83DC}
  9
$VERSIONGUID
  2
{FAEB1C32-E019-11D5-929B-00C0DF256EC4}
  9
$EXTNAMES
290
     1
  9
$PSVPSCALE
 40
0.0
  9
$OLESTARTUP
290
     0
  0
ENDSEC
  0
SECTION
  2
CLASSES
  0
CLASS
  1
ACDBDICTIONARYWDFLT
  2
AcDbDictionaryWithDefault
  3
ObjectDBX Classes
 90
        0
280
     0
281
     0
  0
CLASS
  1
VISUALSTYLE
  2
AcDbVisualStyle
  3
ObjectDBX Classes
 90
     4095
280
     0
281
     0
  0
CLASS
  1
MATERIAL
  2
AcDbMaterial
  3
ObjectDBX Classes
 90
     1153
280
     0
281
     0
  0
CLASS
  1
ACDBPLACEHOLDER
  2
AcDbPlaceHolder
  3
ObjectDBX Classes
 90
        0
280
     0
281
     0
  0
CLASS
  1
LAYOUT
  2
AcDbLayout
  3
ObjectDBX Classes
 90
        0
280
     0
281
     0
  0
ENDSEC
  0
SECTION
  2
TABLES
  0
TABLE
  2
VPORT
  5
8
330
0
100
AcDbSymbolTable
 70
     1
  0
VPORT
  5
29
330
8
100
AcDbSymbolTableRecord
100
AcDbViewportTableRecord
  2
*Active
 70
     0
 10
0.0
 20
0.0
 11
1.0
 21
1.0
 12
406.0
 22
228.5
 13
0.0
 23
0.0
 14
10.0
 24
10.0
 15
10.0
 25
10.0
 16
0.0
 26
0.0
 36
1.0
 17
0.0
 27
0.0
 37
0.0
 40
457.0
 41
1.7768052516
 42
50.0
 43
0.0
 44
0.0
 50
0.0
 51
0.0
 71
     0
 72
  2000
 73
     1
 74
     3
 75
     0
 76
     0
 77
     0
 78
     0
281
     0
 65
     1
110
0.0
120
0.0
130
0.0
111
1.0
121
0.0
131
0.0
112
0.0
122
1.0
132
0.0
 79
     0
146
0.0
  0
ENDTAB
  0
TABLE
  2
LTYPE
  5
5
330
0
100
AcDbSymbolTable
 70
     6
  0
LTYPE
  5
14
330
5
100
AcDbSymbolTableRecord
100
AcDbLinetypeTableRecord
  2
ByBlock
 70
     0
  3

 72
    65
 73
     0
 40
0.0
  0
LTYPE
  5
15
330
5
100
AcDbSymbolTableRecord
100
AcDbLinetypeTableRecord
  2
ByLayer
 70
     0
  3

 72
    65
 73
     0
 40
0.0
  0
LTYPE
  5
16
330
5
100
AcDbSymbolTableRecord
100
AcDbLinetypeTableRecord
  2
Continuous
 70
     0
  3
Solid line
 72
    65
 73
     0
 40
0.0
  0
LTYPE
  5
3F
330
5
100
AcDbSymbolTableRecord
100
AcDbLinetypeTableRecord
  2
HIDDEN
 70
     0
  3
Hidden __ __ __ __ __ __ __ __ __ __ __ __ __ __
 72
    65
 73
     2
 40
1.905
 49
1.27
 74
     0
 49
-0.635
 74
     0
  0
LTYPE
  5
40
330
5
100
AcDbSymbolTableRecord
100
AcDbLinetypeTableRecord
  2
PHANTOM
 70
     0
  3
Phantom ______  __  __  ______  __  __  ______
 72
    65
 73
     6
 40
12.7
 49
6.35
 74
     0
 49
-1.27
 74
     0
 49
1.27
 74
     0
 49
-1.27
 74
     0
 49
1.27
 74
     0
 49
-1.27
 74
     0
  0
LTYPE
  5
41
330
5
100
AcDbSymbolTableRecord
100
AcDbLinetypeTableRecord
  2
CENTER
 70
     0
  3
Center ____ _ ____ _ ____ _ ____ _ ____ _ ____
 72
    65
 73
     4
 40
10.16
 49
6.35
 74
     0
 49
-1.27
 74
     0
 49
1.27
 74
     0
 49
-1.27
 74
     0
  0
LTYPE
  5
42
330
5
100
AcDbSymbolTableRecord
100
AcDbLinetypeTableRecord
  2
CENTERX2
 70
     0
  3
Center (2x) ________  __  ________  __  _____
 72
    65
 73
     4
 40
20.32
 49
12.7
 74
     0
 49
-2.54
 74
     0
 49
2.54
 74
     0
 49
-2.54
 74
     0
  0
LTYPE
  5
43
330
5
100
AcDbSymbolTableRecord
100
AcDbLinetypeTableRecord
  2
DOT2
 70
     0
  3
Dot (.5x) ........................................
 72
    65
 73
     2
 40
0.635
 49
0.0
 74
     0
 49
-0.635
 74
     0
  0
ENDTAB
  0
TABLE
  2
LAYER
  5
2
330
0
100
AcDbSymbolTable
 70
     1
  0
LAYER
  5
10
330
2
100
AcDbSymbolTableRecord
100
AcDbLayerTableRecord
  2
0
 70
     0
 62
     7
  6
Continuous
370
    -3
390
F
  0
ENDTAB
  0
TABLE
  2
STYLE
  5
3
330
0
100
AcDbSymbolTable
 70
     2
  0
STYLE
  5
11
330
3
100
AcDbSymbolTableRecord
100
AcDbTextStyleTableRecord
  2
Standard
 70
     0
 40
0.0
 41
1.0
 50
0.0
 71
     0
 42
3.5
  3
txt
  4

  0
STYLE
  5
125
330
3
100
AcDbSymbolTableRecord
100
AcDbTextStyleTableRecord
  2
SLDTEXTSTYLE0
 70
     0
 40
0.0
 41
0.75
 50
0.0
 71
     0
 42
0.2
  3
TXT
  4

  0
ENDTAB
  0
TABLE
  2
VIEW
  5
6
330
0
100
AcDbSymbolTable
 70
     0
  0
ENDTAB
  0
TABLE
  2
UCS
  5
7
330
0
100
AcDbSymbolTable
 70
     0
  0
ENDTAB
  0
TABLE
  2
APPID
  5
9
330
0
100
AcDbSymbolTable
 70
     1
  0
APPID
  5
12
330
9
100
AcDbSymbolTableRecord
100
AcDbRegAppTableRecord
  2
ACAD
 70
     0
  0
ENDTAB
  0
TABLE
  2
DIMSTYLE
  5
A
330
0
100
AcDbSymbolTable
 70
     2
100
AcDbDimStyleTable
  0
DIMSTYLE
105
27
330
A
100
AcDbSymbolTableRecord
100
AcDbDimStyleTableRecord
  2
ISO-25
 70
     0
 41
2.5
 42
0.625
 43
3.75
 44
1.25
 73
     0
 74
     0
 77
     1
 78
     8
140
2.5
141
2.5
143
0.0393700787
147
0.625
171
     3
172
     1
178
     0
271
     2
272
     2
274
     3
278
    44
283
     0
284
     8
340
11
  0
DIMSTYLE
105
126
102
{ACAD_REACTORS
330
124
102
}
330
A
100
AcDbSymbolTableRecord
100
AcDbDimStyleTableRecord
  2
SLDDIMSTYLE0
 70
     0
 41
3.302
 44
0.0
 45
0.000000001
 73
     0
 74
     0
 77
     1
 78
    12
 79
     3
140
3.5
147
0.875
173
     1
178
     0
271
     2
272
     2
276
     2
284
    12
340
125
  0
ENDTAB
  0
TABLE
  2
BLOCK_RECORD
  5
1
330
0
100
AcDbSymbolTable
 70
     2
  0
BLOCK_RECORD
  5
1F
330
1
100
AcDbSymbolTableRecord
100
AcDbBlockTableRecord
  2
*Model_Space
340
22
  0
BLOCK_RECORD
  5
1B
330
1
100
AcDbSymbolTableRecord
100
AcDbBlockTableRecord
  2
*Paper_Space
340
1E
  0
BLOCK_RECORD
  5
23
330
1
100
AcDbSymbolTableRecord
100
AcDbBlockTableRecord
  2
*Paper_Space0
340
26
  0
BLOCK_RECORD
  5
127
330
1
100
AcDbSymbolTableRecord
100
AcDbBlockTableRecord
  2
_D
340
0
  0
ENDTAB
  0
ENDSEC
  0
SECTION
  2
BLOCKS
  0
BLOCK
  5
20
330
1F
100
AcDbEntity
  8
0
100
AcDbBlockBegin
  2
*Model_Space
 70
     0
 10
0.0
 20
0.0
 30
0.0
  3
*Model_Space
  1

  0
ENDBLK
  5
21
330
1F
100
AcDbEntity
  8
0
100
AcDbBlockEnd
  0
BLOCK
  5
1C
330
1B
100
AcDbEntity
 67
     1
  8
0
100
AcDbBlockBegin
  2
*Paper_Space
 70
     0
 10
0.0
 20
0.0
 30
0.0
  3
*Paper_Space
  1

  0
ENDBLK
  5
1D
330
1B
100
AcDbEntity
 67
     1
  8
0
100
AcDbBlockEnd
  0
BLOCK
  5
24
330
23
100
AcDbEntity
  8
0
100
AcDbBlockBegin
  2
*Paper_Space0
 70
     0
 10
0.0
 20
0.0
 30
0.0
  3
*Paper_Space0
  1

  0
ENDBLK
  5
25
330
23
100
AcDbEntity
  8
0
100
AcDbBlockEnd
  0
BLOCK
  5
128
330
127
100
AcDbEntity
  8
0
100
AcDbBlockBegin
  2
_D
 70
     0
 10
0.0
 20
0.0
 30
0.0
  3
_D
  1

  0
SOLID
  5
12A
330
127
100
AcDbEntity
  8
0
  6
Continuous
 62
     7
370
     0
100
AcDbTrace
 10
11.6895721754
 20
452.4216421365
 30
0.0
 11
14.9915721754
 21
451.9136421365
 31
0.0
 12
14.9915721754
 22
452.9296421365
 32
0.0
 13
14.9915721754
 23
452.9296421365
 33
0.0
  0
SOLID
  5
12B
330
127
100
AcDbEntity
  8
0
  6
Continuous
 62
     7
370
     0
100
AcDbTrace
 10
211.6895721754
 20
452.4216421365
 30
0.0
 11
208.3875721754
 21
452.9296421365
 31
0.0
 12
208.3875721754
 22
451.9136421365
 32
0.0
 13
208.3875721754
 23
451.9136421365
 33
0.0
  0
LINE
  5
12C
330
127
100
AcDbEntity
  8
0
  6
Continuous
 62
     7
370
     0
100
AcDbLine
 10
11.6895721754
 20
418.4216421365
 30
0.0
 11
11.6895721754
 21
453.4216421365
 31
0.0
  0
LINE
  5
12D
330
127
100
AcDbEntity
  8
0
  6
Continuous
 62
     7
370
     0
100
AcDbLine
 10
211.6895721754
 20
418.4216421365
 30
0.0
 11
211.6895721754
 21
453.4216421365
 31
0.0
  0
LINE
  5
12E
330
127
100
AcDbEntity
  8
0
  6
Continuous
 62
     7
370
     0
100
AcDbLine
 10
11.6895721754
 20
452.4216421365
 30
0.0
 11
211.6895721754
 21
452.4216421365
 31
0.0
  0
MTEXT
  5
12F
330
127
100
AcDbEntity
  8
0
  6
Continuous
 62
     7
370
     0
100
AcDbMText
 10
106.3885306468
 20
456.9333790511
 30
-1.4
 40
3.5
 41
0.0
 71
     1
 72
     1
  1
200
  7
SLDTEXTSTYLE0
 73
     1
 44
1.0
  0
ENDBLK
  5
129
330
127
100
AcDbEntity
  8
0
100
AcDbBlockEnd
  0
ENDSEC
  0
SECTION
  2
ENTITIES
  0
CIRCLE
  5
44
330
1F
100
AcDbEntity
  8
0
  6
Continuous
 62
     7
370
    15
100
AcDbCircle
 10
191.6895721754
 20
242.5671578123
 30
0.0
 40
0.9999999999999716
  0
CIRCLE
  5
45
330
1F
100
AcDbEntity
  8
0
  6
Continuous
 62
     7
370
    15
100
AcDbCircle
 10
181.6895721754
 20
242.5671578123
 30
0.0
 40
0.9999999999999716
  0
CIRCLE
  5
46
330
1F
100
AcDbEntity
  8
0
  6
Continuous
 62
     7
370
    15
100
AcDbCircle
 10
171.6895721754
 20
242.5671578123
 30
0.0
 40
0.9999999999999716
  0
CIRCLE
  5
47
330
1F
100
AcDbEntity
  8
0
  6
Continuous
 62
     7
370
    15
100
AcDbCircle
 10
161.6895721754
 20
242.5671578123
 30
0.0
 40
1.0
  0
CIRCLE
  5
48
330
1F
100
AcDbEntity
  8
0
  6
Continuous
 62
     7
370
    15
100
AcDbCircle
 10
151.6895721754
 20
242.5671578123
 30
0.0
 40
1.0
  0
CIRCLE
  5
49
330
1F
100
AcDbEntity
  8
0
  6
Continuous
 62
     7
370
    15
100
AcDbCircle
 10
141.6895721754
 20
242.5671578123
 30
0.0
 40
1.0
  0
CIRCLE
  5
4A
330
1F
100
AcDbEntity
  8
0
  6
Continuous
 62
     7
370
    15
100
AcDbCircle
 10
131.6895721754
 20
242.5671578123
 30
0.0
 40
0.9999999999999716
  0
CIRCLE
  5
4B
330
1F
100
AcDbEntity
  8
0
  6
Continuous
 62
     7
370
    15
100
AcDbCircle
 10
121.6895721754
 20
242.5671578123
 30
0.0
 40
0.9999999999999858
  0
CIRCLE
  5
4C
330
1F
100
AcDbEntity
  8
0
  6
Continuous
 62
     7
370
    15
100
AcDbCircle
 10
111.6895721754
 20
242.5671578123
 30
0.0
 40
0.9999999999999858
  0
CIRCLE
  5
4D
330
1F
100
AcDbEntity
  8
0
  6
Continuous
 62
     7
370
    15
100
AcDbCircle
 10
101.6895721754
 20
242.5671578123
 30
0.0
 40
0.9999999999999858
  0
CIRCLE
  5
4E
330
1F
100
AcDbEntity
  8
0
  6
Continuous
 62
     7
370
    15
100
AcDbCircle
 10
91.6895721754
 20
242.5671578123
 30
0.0
 40
1.0
  0
CIRCLE
  5
4F
330
1F
100
AcDbEntity
  8
0
  6
Continuous
 62
     7
370
    15
100
AcDbCircle
 10
81.6895721754
 20
242.5671578123
 30
0.0
 40
1.0
  0
CIRCLE
  5
50
330
1F
100
AcDbEntity
  8
0
  6
Continuous
 62
     7
370
    15
100
AcDbCircle
 10
71.6895721754
 20
242.5671578123
 30
0.0
 40
0.9999999999999716
  0
CIRCLE
  5
51
330
1F
100
AcDbEntity
  8
0
  6
Continuous
 62
     7
370
    15
100
AcDbCircle
 10
61.6895721754
 20
242.5671578123
 30
0.0
 40
0.9999999999999858
  0
CIRCLE
  5
52
330
1F
100
AcDbEntity
  8
0
  6
Continuous
 62
     7
370
    15
100
AcDbCircle
 10
51.6895721754
 20
242.5671578123
 30
0.0
 40
0.9999999999999858
  0
CIRCLE
  5
53
330
1F
100
AcDbEntity
  8
0
  6
Continuous
 62
     7
370
    15
100
AcDbCircle
 10
41.6895721754
 20
242.5671578123
 30
0.0
 40
0.9999999999999858
  0
LINE
  5
54
330
1F
100
AcDbEntity
  8
0
  6
Continuous
 62
     7
370
    15
100
AcDbLine
 10
126.6895718401
 20
250.0671576447
 30
0.0
 11
126.6895718401
 21
247.0671576186
 31
0.0
  0
LINE
  5
55
330
1F
100
AcDbEntity
  8
0
  6
Continuous
 62
     7
370
    15
100
AcDbLine
 10
126.6895718401
 20
247.0671576186
 30
0.0
 11
156.6895739635
 21
247.0671576186
 31
0.0
  0
LINE
  5
56
330
1F
100
AcDbEntity
  8
0
  6
Continuous
 62
     7
370
    15
100
AcDbLine
 10
156.6895739635
 20
247.0671576186
 30
0.0
 11
156.6895739635
 21
250.0671576447
 31
0.0
  0
LINE
  5
57
330
1F
100
AcDbEntity
  8
0
  6
Continuous
 62
     7
370
    15
100
AcDbLine
 10
186.6895751556
 20
250.0671576447
 30
0.0
 11
156.6895739635
 21
250.0671576447
 31
0.0
  0
LINE
  5
58
330
1F
100
AcDbEntity
  8
0
  6
Continuous
 62
     7
370
    15
100
AcDbLine
 10
186.6895751556
 20
250.0671576447
 30
0.0
 11
186.6895751556
 21
247.0671576186
 31
0.0
  0
LINE
  5
59
330
1F
100
AcDbEntity
  8
0
  6
Continuous
 62
     7
370
    15
100
AcDbLine
 10
186.6895751556
 20
247.0671576186
 30
0.0
 11
208.6895750364
 21
247.0671576186
 31
0.0
  0
LINE
  5
5A
330
1F
100
AcDbEntity
  8
0
  6
Continuous
 62
     7
370
    15
100
AcDbLine
 10
211.6895736655
 20
246.5671580023
 30
0.0
 11
208.6895750364
 21
246.5671580023
 31
0.0
  0
LINE
  5
5B
330
1F
100
AcDbEntity
  8
0
  6
Continuous
 62
     7
370
    15
100
AcDbLine
 10
208.6895750364
 20
238.067158006
 30
0.0
 11
208.6895750364
 21
238.5671576223
 31
0.0
  0
LINE
  5
5C
330
1F
100
AcDbEntity
  8
0
  6
Continuous
 62
     7
370
    15
100
AcDbLine
 10
208.6895750364
 20
238.067158006
 30
0.0
 11
186.6895751556
 21
238.067158006
 31
0.0
  0
LINE
  5
5D
330
1F
100
AcDbEntity
  8
0
  6
Continuous
 62
     7
370
    15
100
AcDbLine
 10
186.6895751556
 20
238.067158006
 30
0.0
 11
186.6895751556
 21
235.06715798
 31
0.0
  0
LINE
  5
5E
330
1F
100
AcDbEntity
  8
0
  6
Continuous
 62
     7
370
    15
100
AcDbLine
 10
156.6895739635
 20
235.06715798
 30
0.0
 11
186.6895751556
 21
235.06715798
 31
0.0
  0
LINE
  5
5F
330
1F
100
AcDbEntity
  8
0
  6
Continuous
 62
     7
370
    15
100
AcDbLine
 10
156.6895739635
 20
235.06715798
 30
0.0
 11
156.6895739635
 21
238.067158006
 31
0.0
  0
LINE
  5
60
330
1F
100
AcDbEntity
  8
0
  6
Continuous
 62
     7
370
    15
100
AcDbLine
 10
156.6895739635
 20
238.067158006
 30
0.0
 11
126.6895718401
 21
238.067158006
 31
0.0
  0
LINE
  5
61
330
1F
100
AcDbEntity
  8
0
  6
Continuous
 62
     7
370
    15
100
AcDbLine
 10
126.6895718401
 20
238.067158006
 30
0.0
 11
126.6895718401
 21
235.06715798
 31
0.0
  0
LINE
  5
62
330
1F
100
AcDbEntity
  8
0
  6
Continuous
 62
     7
370
    15
100
AcDbLine
 10
96.6895725107
 20
235.06715798
 30
0.0
 11
126.6895718401
 21
235.06715798
 31
0.0
  0
LINE
  5
63
330
1F
100
AcDbEntity
  8
0
  6
Continuous
 62
     7
370
    15
100
AcDbLine
 10
96.6895725107
 20
235.06715798
 30
0.0
 11
96.6895725107
 21
238.067158006
 31
0.0
  0
LINE
  5
64
330
1F
100
AcDbEntity
  8
0
  6
Continuous
 62
     7
370
    15
100
AcDbLine
 10
96.6895725107
 20
238.067158006
 30
0.0
 11
66.6895703873
 21
238.067158006
 31
0.0
  0
LINE
  5
65
330
1F
100
AcDbEntity
  8
0
  6
Continuous
 62
     7
370
    15
100
AcDbLine
 10
66.6895703873
 20
238.067158006
 30
0.0
 11
66.6895703873
 21
235.06715798
 31
0.0
  0
LINE
  5
66
330
1F
100
AcDbEntity
  8
0
  6
Continuous
 62
     7
370
    15
100
AcDbLine
 10
36.6895691952
 20
235.06715798
 30
0.0
 11
66.6895703873
 21
235.06715798
 31
0.0
  0
LINE
  5
67
330
1F
100
AcDbEntity
  8
0
  6
Continuous
 62
     7
370
    15
100
AcDbLine
 10
36.6895691952
 20
235.06715798
 30
0.0
 11
36.6895691952
 21
238.067158006
 31
0.0
  0
LINE
  5
68
330
1F
100
AcDbEntity
  8
0
  6
Continuous
 62
     7
370
    15
100
AcDbLine
 10
36.6895691952
 20
238.067158006
 30
0.0
 11
14.6895693144
 21
238.067158006
 31
0.0
  0
LINE
  5
69
330
1F
100
AcDbEntity
  8
0
  6
Continuous
 62
     7
370
    15
100
AcDbLine
 10
11.6895706853
 20
238.5671576223
 30
0.0
 11
14.6895693144
 21
238.5671576223
 31
0.0
  0
LINE
  5
6A
330
1F
100
AcDbEntity
  8
0
  6
Continuous
 62
     7
370
    15
100
AcDbLine
 10
14.6895693144
 20
247.0671576186
 30
0.0
 11
36.6895691952
 21
247.0671576186
 31
0.0
  0
LINE
  5
6B
330
1F
100
AcDbEntity
  8
0
  6
Continuous
 62
     7
370
    15
100
AcDbLine
 10
36.6895691952
 20
247.0671576186
 30
0.0
 11
36.6895691952
 21
250.0671576447
 31
0.0
  0
LINE
  5
6C
330
1F
100
AcDbEntity
  8
0
  6
Continuous
 62
     7
370
    15
100
AcDbLine
 10
66.6895703873
 20
250.0671576447
 30
0.0
 11
36.6895691952
 21
250.0671576447
 31
0.0
  0
LINE
  5
6D
330
1F
100
AcDbEntity
  8
0
  6
Continuous
 62
     7
370
    15
100
AcDbLine
 10
66.6895703873
 20
250.0671576447
 30
0.0
 11
66.6895703873
 21
247.0671576186
 31
0.0
  0
LINE
  5
6E
330
1F
100
AcDbEntity
  8
0
  6
Continuous
 62
     7
370
    15
100
AcDbLine
 10
66.6895703873
 20
247.0671576186
 30
0.0
 11
96.6895725107
 21
247.0671576186
 31
0.0
  0
LINE
  5
6F
330
1F
100
AcDbEntity
  8
0
  6
Continuous
 62
     7
370
    15
100
AcDbLine
 10
96.6895725107
 20
247.0671576186
 30
0.0
 11
96.6895725107
 21
250.0671576447
 31
0.0
  0
LINE
  5
70
330
1F
100
AcDbEntity
  8
0
  6
Continuous
 62
     7
370
    15
100
AcDbLine
 10
126.6895718401
 20
250.0671576447
 30
0.0
 11
96.6895725107
 21
250.0671576447
 31
0.0
  0
CIRCLE
  5
71
330
1F
100
AcDbEntity
  8
0
  6
Continuous
 62
     7
370
    15
100
AcDbCircle
 10
21.6895721754
 20
242.5671578123
 30
0.0
 40
0.9999999999999858
  0
CIRCLE
  5
72
330
1F
100
AcDbEntity
  8
0
  6
Continuous
 62
     7
370
    15
100
AcDbCircle
 10
31.6895721754
 20
242.5671578123
 30
0.0
 40
0.9999999999999822
  0
LINE
  5
73
330
1F
100
AcDbEntity
  8
0
  6
Continuous
 62
     7
370
    15
100
AcDbLine
 10
208.6895750364
 20
246.5671580023
 30
0.0
 11
208.6895750364
 21
247.0671576186
 31
0.0
  0
LINE
  5
74
330
1F
100
AcDbEntity
  8
0
  6
Continuous
 62
     7
370
    15
100
AcDbLine
 10
11.6895706853
 20
246.5671580023
 30
0.0
 11
11.6895706853
 21
238.5671576223
 31
0.0
  0
LINE
  5
75
330
1F
100
AcDbEntity
  8
0
  6
Continuous
 62
     7
370
    15
100
AcDbLine
 10
208.6895750364
 20
238.5671576223
 30
0.0
 11
211.6895736655
 21
238.5671576223
 31
0.0
  0
LINE
  5
76
330
1F
100
AcDbEntity
  8
0
  6
Continuous
 62
     7
370
    15
100
AcDbLine
 10
211.6895736655
 20
238.5671576223
 30
0.0
 11
211.6895736655
 21
246.5671580023
 31
0.0
  0
LINE
  5
77
330
1F
100
AcDbEntity
  8
0
  6
Continuous
 62
     7
370
    15
100
AcDbLine
 10
14.6895693144
 20
238.5671576223
 30
0.0
 11
14.6895693144
 21
238.067158006
 31
0.0
  0
LINE
  5
78
330
1F
100
AcDbEntity
  8
0
  6
Continuous
 62
     7
370
    15
100
AcDbLine
 10
14.6895693144
 20
247.0671576186
 30
0.0
 11
14.6895693144
 21
246.5671580023
 31
0.0
  0
LINE
  5
79
330
1F
100
AcDbEntity
  8
0
  6
Continuous
 62
     7
370
    15
100
AcDbLine
 10
14.6895693144
 20
246.5671580023
 30
0.0
 11
11.6895706853
 21
246.5671580023
 31
0.0
  0
CIRCLE
  5
7A
330
1F
100
AcDbEntity
  8
0
  6
Continuous
 62
     7
370
    15
100
AcDbCircle
 10
201.6895721754
 20
242.5671578123
 30
0.0
 40
1.0
  0
CIRCLE
  5
7B
330
1F
100
AcDbEntity
  8
0
  6
Continuous
 62
     7
370
    15
100
AcDbCircle
 10
201.6895721754
 20
434.9216421365
 30
0.0
 40
1.000000000000028
  0
CIRCLE
  5
7C
330
1F
100
AcDbEntity
  8
0
  6
Continuous
 62
     7
370
    15
100
AcDbCircle
 10
191.6895721754
 20
434.9216421365
 30
0.0
 40
0.9999999999999716
  0
CIRCLE
  5
7D
330
1F
100
AcDbEntity
  8
0
  6
Continuous
 62
     7
370
    15
100
AcDbCircle
 10
181.6895721754
 20
434.9216421365
 30
0.0
 40
0.9999999999999716
  0
CIRCLE
  5
7E
330
1F
100
AcDbEntity
  8
0
  6
Continuous
 62
     7
370
    15
100
AcDbCircle
 10
171.6895721754
 20
434.9216421365
 30
0.0
 40
1.0
  0
CIRCLE
  5
7F
330
1F
100
AcDbEntity
  8
0
  6
Continuous
 62
     7
370
    15
100
AcDbCircle
 10
161.6895721754
 20
434.9216421365
 30
0.0
 40
1.0
  0
CIRCLE
  5
80
330
1F
100
AcDbEntity
  8
0
  6
Continuous
 62
     7
370
    15
100
AcDbCircle
 10
151.6895721754
 20
434.9216421365
 30
0.0
 40
0.9999999999999716
  0
CIRCLE
  5
81
330
1F
100
AcDbEntity
  8
0
  6
Continuous
 62
     7
370
    15
100
AcDbCircle
 10
141.6895721754
 20
434.9216421365
 30
0.0
 40
0.9999999999999716
  0
CIRCLE
  5
82
330
1F
100
AcDbEntity
  8
0
  6
Continuous
 62
     7
370
    15
100
AcDbCircle
 10
131.6895721754
 20
434.9216421365
 30
0.0
 40
0.9999999999999716
  0
CIRCLE
  5
83
330
1F
100
AcDbEntity
  8
0
  6
Continuous
 62
     7
370
    15
100
AcDbCircle
 10
121.6895721754
 20
434.9216421365
 30
0.0
 40
0.9999999999999858
  0
CIRCLE
  5
84
330
1F
100
AcDbEntity
  8
0
  6
Continuous
 62
     7
370
    15
100
AcDbCircle
 10
111.6895721754
 20
434.9216421365
 30
0.0
 40
0.9999999999999858
  0
CIRCLE
  5
85
330
1F
100
AcDbEntity
  8
0
  6
Continuous
 62
     7
370
    15
100
AcDbCircle
 10
101.6895721754
 20
434.9216421365
 30
0.0
 40
0.9999999999999858
  0
CIRCLE
  5
86
330
1F
100
AcDbEntity
  8
0
  6
Continuous
 62
     7
370
    15
100
AcDbCircle
 10
91.6895721754
 20
434.9216421365
 30
0.0
 40
0.9999999999999716
  0
CIRCLE
  5
87
330
1F
100
AcDbEntity
  8
0
  6
Continuous
 62
     7
370
    15
100
AcDbCircle
 10
81.6895721754
 20
434.9216421365
 30
0.0
 40
0.9999999999999716
  0
CIRCLE
  5
88
330
1F
100
AcDbEntity
  8
0
  6
Continuous
 62
     7
370
    15
100
AcDbCircle
 10
71.6895721754
 20
434.9216421365
 30
0.0
 40
1.0
  0
CIRCLE
  5
89
330
1F
100
AcDbEntity
  8
0
  6
Continuous
 62
     7
370
    15
100
AcDbCircle
 10
61.6895721754
 20
434.9216421365
 30
0.0
 40
0.9999999999999858
  0
CIRCLE
  5
8A
330
1F
100
AcDbEntity
  8
0
  6
Continuous
 62
     7
370
    15
100
AcDbCircle
 10
51.6895721754
 20
434.9216421365
 30
0.0
 40
0.9999999999999858
  0
CIRCLE
  5
8B
330
1F
100
AcDbEntity
  8
0
  6
Continuous
 62
     7
370
    15
100
AcDbCircle
 10
41.6895721754
 20
434.9216421365
 30
0.0
 40
0.9999999999999929
  0
CIRCLE
  5
8C
330
1F
100
AcDbEntity
  8
0
  6
Continuous
 62
     7
370
    15
100
AcDbCircle
 10
31.6895721754
 20
434.9216421365
 30
0.0
 40
0.9999999999999858
  0
CIRCLE
  5
8D
330
1F
100
AcDbEntity
  8
0
  6
Continuous
 62
     7
370
    15
100
AcDbCircle
 10
21.6895721754
 20
434.9216421365
 30
0.0
 40
0.9999999999999858
  0
CIRCLE
  5
8E
330
1F
100
AcDbEntity
  8
0
  6
Continuous
 62
     7
370
    15
100
AcDbCircle
 10
201.6895721754
 20
424.9216421365
 30
0.0
 40
1.000000000000028
  0
CIRCLE
  5
8F
330
1F
100
AcDbEntity
  8
0
  6
Continuous
 62
     7
370
    15
100
AcDbCircle
 10
21.6895721754
 20
424.9216421365
 30
0.0
 40
0.9999999999999858
  0
CIRCLE
  5
90
330
1F
100
AcDbEntity
  8
0
  6
Continuous
 62
     7
370
    15
100
AcDbCircle
 10
201.6895721754
 20
414.9216421365
 30
0.0
 40
1.000000000000028
  0
CIRCLE
  5
91
330
1F
100
AcDbEntity
  8
0
  6
Continuous
 62
     7
370
    15
100
AcDbCircle
 10
21.6895721754
 20
414.9216421365
 30
0.0
 40
0.9999999999999858
  0
CIRCLE
  5
92
330
1F
100
AcDbEntity
  8
0
  6
Continuous
 62
     7
370
    15
100
AcDbCircle
 10
201.6895721754
 20
404.9216421365
 30
0.0
 40
1.000000000000028
  0
CIRCLE
  5
93
330
1F
100
AcDbEntity
  8
0
  6
Continuous
 62
     7
370
    15
100
AcDbCircle
 10
21.6895721754
 20
404.9216421365
 30
0.0
 40
0.9999999999999858
  0
CIRCLE
  5
94
330
1F
100
AcDbEntity
  8
0
  6
Continuous
 62
     7
370
    15
100
AcDbCircle
 10
201.6895721754
 20
394.9216421365
 30
0.0
 40
1.000000000000028
  0
CIRCLE
  5
95
330
1F
100
AcDbEntity
  8
0
  6
Continuous
 62
     7
370
    15
100
AcDbCircle
 10
21.6895721754
 20
394.9216421365
 30
0.0
 40
0.9999999999999858
  0
CIRCLE
  5
96
330
1F
100
AcDbEntity
  8
0
  6
Continuous
 62
     7
370
    15
100
AcDbCircle
 10
201.6895721754
 20
384.9216421365
 30
0.0
 40
1.000000000000028
  0
CIRCLE
  5
97
330
1F
100
AcDbEntity
  8
0
  6
Continuous
 62
     7
370
    15
100
AcDbCircle
 10
21.6895721754
 20
384.9216421365
 30
0.0
 40
0.9999999999999858
  0
CIRCLE
  5
98
330
1F
100
AcDbEntity
  8
0
  6
Continuous
 62
     7
370
    15
100
AcDbCircle
 10
201.6895721754
 20
374.9216421365
 30
0.0
 40
1.000000000000028
  0
CIRCLE
  5
99
330
1F
100
AcDbEntity
  8
0
  6
Continuous
 62
     7
370
    15
100
AcDbCircle
 10
191.6895721754
 20
374.9216421365
 30
0.0
 40
0.9999999999999716
  0
CIRCLE
  5
9A
330
1F
100
AcDbEntity
  8
0
  6
Continuous
 62
     7
370
    15
100
AcDbCircle
 10
181.6895721754
 20
374.9216421365
 30
0.0
 40
0.9999999999999716
  0
CIRCLE
  5
9B
330
1F
100
AcDbEntity
  8
0
  6
Continuous
 62
     7
370
    15
100
AcDbCircle
 10
171.6895721754
 20
374.9216421365
 30
0.0
 40
1.0
  0
CIRCLE
  5
9C
330
1F
100
AcDbEntity
  8
0
  6
Continuous
 62
     7
370
    15
100
AcDbCircle
 10
161.6895721754
 20
374.9216421365
 30
0.0
 40
1.0
  0
CIRCLE
  5
9D
330
1F
100
AcDbEntity
  8
0
  6
Continuous
 62
     7
370
    15
100
AcDbCircle
 10
151.6895721754
 20
374.9216421365
 30
0.0
 40
0.9999999999999716
  0
CIRCLE
  5
9E
330
1F
100
AcDbEntity
  8
0
  6
Continuous
 62
     7
370
    15
100
AcDbCircle
 10
141.6895721754
 20
374.9216421365
 30
0.0
 40
0.9999999999999716
  0
CIRCLE
  5
9F
330
1F
100
AcDbEntity
  8
0
  6
Continuous
 62
     7
370
    15
100
AcDbCircle
 10
131.6895721754
 20
374.9216421365
 30
0.0
 40
0.9999999999999716
  0
CIRCLE
  5
A0
330
1F
100
AcDbEntity
  8
0
  6
Continuous
 62
     7
370
    15
100
AcDbCircle
 10
121.6895721754
 20
374.9216421365
 30
0.0
 40
0.9999999999999858
  0
CIRCLE
  5
A1
330
1F
100
AcDbEntity
  8
0
  6
Continuous
 62
     7
370
    15
100
AcDbCircle
 10
111.6895721754
 20
374.9216421365
 30
0.0
 40
0.9999999999999858
  0
CIRCLE
  5
A2
330
1F
100
AcDbEntity
  8
0
  6
Continuous
 62
     7
370
    15
100
AcDbCircle
 10
101.6895721754
 20
374.9216421365
 30
0.0
 40
0.9999999999999858
  0
CIRCLE
  5
A3
330
1F
100
AcDbEntity
  8
0
  6
Continuous
 62
     7
370
    15
100
AcDbCircle
 10
91.6895721754
 20
374.9216421365
 30
0.0
 40
0.9999999999999716
  0
CIRCLE
  5
A4
330
1F
100
AcDbEntity
  8
0
  6
Continuous
 62
     7
370
    15
100
AcDbCircle
 10
81.6895721754
 20
374.9216421365
 30
0.0
 40
0.9999999999999716
  0
CIRCLE
  5
A5
330
1F
100
AcDbEntity
  8
0
  6
Continuous
 62
     7
370
    15
100
AcDbCircle
 10
71.6895721754
 20
374.9216421365
 30
0.0
 40
1.0
  0
CIRCLE
  5
A6
330
1F
100
AcDbEntity
  8
0
  6
Continuous
 62
     7
370
    15
100
AcDbCircle
 10
61.6895721754
 20
374.9216421365
 30
0.0
 40
0.9999999999999858
  0
CIRCLE
  5
A7
330
1F
100
AcDbEntity
  8
0
  6
Continuous
 62
     7
370
    15
100
AcDbCircle
 10
51.6895721754
 20
374.9216421365
 30
0.0
 40
0.9999999999999858
  0
CIRCLE
  5
A8
330
1F
100
AcDbEntity
  8
0
  6
Continuous
 62
     7
370
    15
100
AcDbCircle
 10
41.6895721754
 20
374.9216421365
 30
0.0
 40
0.9999999999999929
  0
CIRCLE
  5
A9
330
1F
100
AcDbEntity
  8
0
  6
Continuous
 62
     7
370
    15
100
AcDbCircle
 10
191.6895721754
 20
424.9216421365
 30
0.0
 40
0.9999999999999716
  0
CIRCLE
  5
AA
330
1F
100
AcDbEntity
  8
0
  6
Continuous
 62
     7
370
    15
100
AcDbCircle
 10
181.6895721754
 20
424.9216421365
 30
0.0
 40
0.9999999999999716
  0
CIRCLE
  5
AB
330
1F
100
AcDbEntity
  8
0
  6
Continuous
 62
     7
370
    15
100
AcDbCircle
 10
171.6895721754
 20
424.9216421365
 30
0.0
 40
1.0
  0
CIRCLE
  5
AC
330
1F
100
AcDbEntity
  8
0
  6
Continuous
 62
     7
370
    15
100
AcDbCircle
 10
61.6895721754
 20
424.9216421365
 30
0.0
 40
0.9999999999999858
  0
CIRCLE
  5
AD
330
1F
100
AcDbEntity
  8
0
  6
Continuous
 62
     7
370
    15
100
AcDbCircle
 10
51.6895721754
 20
424.9216421365
 30
0.0
 40
0.9999999999999858
  0
CIRCLE
  5
AE
330
1F
100
AcDbEntity
  8
0
  6
Continuous
 62
     7
370
    15
100
AcDbCircle
 10
41.6895721754
 20
424.9216421365
 30
0.0
 40
0.9999999999999929
  0
CIRCLE
  5
AF
330
1F
100
AcDbEntity
  8
0
  6
Continuous
 62
     7
370
    15
100
AcDbCircle
 10
31.6895721754
 20
424.9216421365
 30
0.0
 40
0.9999999999999858
  0
CIRCLE
  5
B0
330
1F
100
AcDbEntity
  8
0
  6
Continuous
 62
     7
370
    15
100
AcDbCircle
 10
191.6895721754
 20
414.9216421365
 30
0.0
 40
0.9999999999999716
  0
CIRCLE
  5
B1
330
1F
100
AcDbEntity
  8
0
  6
Continuous
 62
     7
370
    15
100
AcDbCircle
 10
181.6895721754
 20
414.9216421365
 30
0.0
 40
0.9999999999999716
  0
CIRCLE
  5
B2
330
1F
100
AcDbEntity
  8
0
  6
Continuous
 62
     7
370
    15
100
AcDbCircle
 10
171.6895721754
 20
414.9216421365
 30
0.0
 40
1.0
  0
CIRCLE
  5
B3
330
1F
100
AcDbEntity
  8
0
  6
Continuous
 62
     7
370
    15
100
AcDbCircle
 10
161.6895721754
 20
414.9216421365
 30
0.0
 40
1.0
  0
CIRCLE
  5
B4
330
1F
100
AcDbEntity
  8
0
  6
Continuous
 62
     7
370
    15
100
AcDbCircle
 10
151.6895721754
 20
414.9216421365
 30
0.0
 40
0.9999999999999716
  0
CIRCLE
  5
B5
330
1F
100
AcDbEntity
  8
0
  6
Continuous
 62
     7
370
    15
100
AcDbCircle
 10
141.6895721754
 20
414.9216421365
 30
0.0
 40
0.9999999999999716
  0
CIRCLE
  5
B6
330
1F
100
AcDbEntity
  8
0
  6
Continuous
 62
     7
370
    15
100
AcDbCircle
 10
131.6895721754
 20
414.9216421365
 30
0.0
 40
0.9999999999999716
  0
CIRCLE
  5
B7
330
1F
100
AcDbEntity
  8
0
  6
Continuous
 62
     7
370
    15
100
AcDbCircle
 10
121.6895721754
 20
414.9216421365
 30
0.0
 40
0.9999999999999858
  0
CIRCLE
  5
B8
330
1F
100
AcDbEntity
  8
0
  6
Continuous
 62
     7
370
    15
100
AcDbCircle
 10
111.6895721754
 20
414.9216421365
 30
0.0
 40
0.9999999999999858
  0
CIRCLE
  5
B9
330
1F
100
AcDbEntity
  8
0
  6
Continuous
 62
     7
370
    15
100
AcDbCircle
 10
101.6895721754
 20
414.9216421365
 30
0.0
 40
0.9999999999999858
  0
CIRCLE
  5
BA
330
1F
100
AcDbEntity
  8
0
  6
Continuous
 62
     7
370
    15
100
AcDbCircle
 10
91.6895721754
 20
414.9216421365
 30
0.0
 40
0.9999999999999716
  0
CIRCLE
  5
BB
330
1F
100
AcDbEntity
  8
0
  6
Continuous
 62
     7
370
    15
100
AcDbCircle
 10
81.6895721754
 20
414.9216421365
 30
0.0
 40
0.9999999999999716
  0
CIRCLE
  5
BC
330
1F
100
AcDbEntity
  8
0
  6
Continuous
 62
     7
370
    15
100
AcDbCircle
 10
71.6895721754
 20
414.9216421365
 30
0.0
 40
1.0
  0
CIRCLE
  5
BD
330
1F
100
AcDbEntity
  8
0
  6
Continuous
 62
     7
370
    15
100
AcDbCircle
 10
61.6895721754
 20
414.9216421365
 30
0.0
 40
0.9999999999999858
  0
CIRCLE
  5
BE
330
1F
100
AcDbEntity
  8
0
  6
Continuous
 62
     7
370
    15
100
AcDbCircle
 10
51.6895721754
 20
414.9216421365
 30
0.0
 40
0.9999999999999858
  0
CIRCLE
  5
BF
330
1F
100
AcDbEntity
  8
0
  6
Continuous
 62
     7
370
    15
100
AcDbCircle
 10
41.6895721754
 20
414.9216421365
 30
0.0
 40
0.9999999999999929
  0
CIRCLE
  5
C0
330
1F
100
AcDbEntity
  8
0
  6
Continuous
 62
     7
370
    15
100
AcDbCircle
 10
31.6895721754
 20
414.9216421365
 30
0.0
 40
0.9999999999999858
  0
CIRCLE
  5
C1
330
1F
100
AcDbEntity
  8
0
  6
Continuous
 62
     7
370
    15
100
AcDbCircle
 10
191.6895721754
 20
404.9216421365
 30
0.0
 40
0.9999999999999716
  0
CIRCLE
  5
C2
330
1F
100
AcDbEntity
  8
0
  6
Continuous
 62
     7
370
    15
100
AcDbCircle
 10
181.6895721754
 20
404.9216421365
 30
0.0
 40
0.9999999999999716
  0
CIRCLE
  5
C3
330
1F
100
AcDbEntity
  8
0
  6
Continuous
 62
     7
370
    15
100
AcDbCircle
 10
171.6895721754
 20
404.9216421365
 30
0.0
 40
1.0
  0
CIRCLE
  5
C4
330
1F
100
AcDbEntity
  8
0
  6
Continuous
 62
     7
370
    15
100
AcDbCircle
 10
161.6895721754
 20
404.9216421365
 30
0.0
 40
1.0
  0
CIRCLE
  5
C5
330
1F
100
AcDbEntity
  8
0
  6
Continuous
 62
     7
370
    15
100
AcDbCircle
 10
151.6895721754
 20
404.9216421365
 30
0.0
 40
0.9999999999999716
  0
CIRCLE
  5
C6
330
1F
100
AcDbEntity
  8
0
  6
Continuous
 62
     7
370
    15
100
AcDbCircle
 10
141.6895721754
 20
404.9216421365
 30
0.0
 40
0.9999999999999716
  0
CIRCLE
  5
C7
330
1F
100
AcDbEntity
  8
0
  6
Continuous
 62
     7
370
    15
100
AcDbCircle
 10
131.6895721754
 20
404.9216421365
 30
0.0
 40
0.9999999999999716
  0
CIRCLE
  5
C8
330
1F
100
AcDbEntity
  8
0
  6
Continuous
 62
     7
370
    15
100
AcDbCircle
 10
121.6895721754
 20
404.9216421365
 30
0.0
 40
0.9999999999999858
  0
CIRCLE
  5
C9
330
1F
100
AcDbEntity
  8
0
  6
Continuous
 62
     7
370
    15
100
AcDbCircle
 10
111.6895721754
 20
404.9216421365
 30
0.0
 40
0.9999999999999858
  0
CIRCLE
  5
CA
330
1F
100
AcDbEntity
  8
0
  6
Continuous
 62
     7
370
    15
100
AcDbCircle
 10
101.6895721754
 20
404.9216421365
 30
0.0
 40
0.9999999999999858
  0
CIRCLE
  5
CB
330
1F
100
AcDbEntity
  8
0
  6
Continuous
 62
     7
370
    15
100
AcDbCircle
 10
91.6895721754
 20
404.9216421365
 30
0.0
 40
0.9999999999999716
  0
CIRCLE
  5
CC
330
1F
100
AcDbEntity
  8
0
  6
Continuous
 62
     7
370
    15
100
AcDbCircle
 10
81.6895721754
 20
404.9216421365
 30
0.0
 40
0.9999999999999716
  0
CIRCLE
  5
CD
330
1F
100
AcDbEntity
  8
0
  6
Continuous
 62
     7
370
    15
100
AcDbCircle
 10
71.6895721754
 20
404.9216421365
 30
0.0
 40
1.0
  0
CIRCLE
  5
CE
330
1F
100
AcDbEntity
  8
0
  6
Continuous
 62
     7
370
    15
100
AcDbCircle
 10
61.6895721754
 20
404.9216421365
 30
0.0
 40
0.9999999999999858
  0
CIRCLE
  5
CF
330
1F
100
AcDbEntity
  8
0
  6
Continuous
 62
     7
370
    15
100
AcDbCircle
 10
51.6895721754
 20
404.9216421365
 30
0.0
 40
0.9999999999999858
  0
CIRCLE
  5
D0
330
1F
100
AcDbEntity
  8
0
  6
Continuous
 62
     7
370
    15
100
AcDbCircle
 10
41.6895721754
 20
404.9216421365
 30
0.0
 40
0.9999999999999929
  0
CIRCLE
  5
D1
330
1F
100
AcDbEntity
  8
0
  6
Continuous
 62
     7
370
    15
100
AcDbCircle
 10
31.6895721754
 20
404.9216421365
 30
0.0
 40
0.9999999999999858
  0
CIRCLE
  5
D2
330
1F
100
AcDbEntity
  8
0
  6
Continuous
 62
     7
370
    15
100
AcDbCircle
 10
191.6895721754
 20
394.9216421365
 30
0.0
 40
0.9999999999999716
  0
CIRCLE
  5
D3
330
1F
100
AcDbEntity
  8
0
  6
Continuous
 62
     7
370
    15
100
AcDbCircle
 10
181.6895721754
 20
394.9216421365
 30
0.0
 40
0.9999999999999716
  0
CIRCLE
  5
D4
330
1F
100
AcDbEntity
  8
0
  6
Continuous
 62
     7
370
    15
100
AcDbCircle
 10
171.6895721754
 20
394.9216421365
 30
0.0
 40
1.0
  0
CIRCLE
  5
D5
330
1F
100
AcDbEntity
  8
0
  6
Continuous
 62
     7
370
    15
100
AcDbCircle
 10
161.6895721754
 20
394.9216421365
 30
0.0
 40
1.0
  0
CIRCLE
  5
D6
330
1F
100
AcDbEntity
  8
0
  6
Continuous
 62
     7
370
    15
100
AcDbCircle
 10
151.6895721754
 20
394.9216421365
 30
0.0
 40
0.9999999999999716
  0
CIRCLE
  5
D7
330
1F
100
AcDbEntity
  8
0
  6
Continuous
 62
     7
370
    15
100
AcDbCircle
 10
141.6895721754
 20
394.9216421365
 30
0.0
 40
0.9999999999999716
  0
CIRCLE
  5
D8
330
1F
100
AcDbEntity
  8
0
  6
Continuous
 62
     7
370
    15
100
AcDbCircle
 10
131.6895721754
 20
394.9216421365
 30
0.0
 40
0.9999999999999716
  0
CIRCLE
  5
D9
330
1F
100
AcDbEntity
  8
0
  6
Continuous
 62
     7
370
    15
100
AcDbCircle
 10
121.6895721754
 20
394.9216421365
 30
0.0
 40
0.9999999999999858
  0
CIRCLE
  5
DA
330
1F
100
AcDbEntity
  8
0
  6
Continuous
 62
     7
370
    15
100
AcDbCircle
 10
111.6895721754
 20
394.9216421365
 30
0.0
 40
0.9999999999999858
  0
CIRCLE
  5
DB
330
1F
100
AcDbEntity
  8
0
  6
Continuous
 62
     7
370
    15
100
AcDbCircle
 10
101.6895721754
 20
394.9216421365
 30
0.0
 40
0.9999999999999858
  0
CIRCLE
  5
DC
330
1F
100
AcDbEntity
  8
0
  6
Continuous
 62
     7
370
    15
100
AcDbCircle
 10
91.6895721754
 20
394.9216421365
 30
0.0
 40
0.9999999999999716
  0
CIRCLE
  5
DD
330
1F
100
AcDbEntity
  8
0
  6
Continuous
 62
     7
370
    15
100
AcDbCircle
 10
81.6895721754
 20
394.9216421365
 30
0.0
 40
0.9999999999999716
  0
CIRCLE
  5
DE
330
1F
100
AcDbEntity
  8
0
  6
Continuous
 62
     7
370
    15
100
AcDbCircle
 10
71.6895721754
 20
394.9216421365
 30
0.0
 40
1.0
  0
CIRCLE
  5
DF
330
1F
100
AcDbEntity
  8
0
  6
Continuous
 62
     7
370
    15
100
AcDbCircle
 10
61.6895721754
 20
394.9216421365
 30
0.0
 40
0.9999999999999858
  0
CIRCLE
  5
E0
330
1F
100
AcDbEntity
  8
0
  6
Continuous
 62
     7
370
    15
100
AcDbCircle
 10
51.6895721754
 20
394.9216421365
 30
0.0
 40
0.9999999999999858
  0
CIRCLE
  5
E1
330
1F
100
AcDbEntity
  8
0
  6
Continuous
 62
     7
370
    15
100
AcDbCircle
 10
41.6895721754
 20
394.9216421365
 30
0.0
 40
0.9999999999999929
  0
CIRCLE
  5
E2
330
1F
100
AcDbEntity
  8
0
  6
Continuous
 62
     7
370
    15
100
AcDbCircle
 10
31.6895721754
 20
394.9216421365
 30
0.0
 40
0.9999999999999858
  0
CIRCLE
  5
E3
330
1F
100
AcDbEntity
  8
0
  6
Continuous
 62
     7
370
    15
100
AcDbCircle
 10
191.6895721754
 20
384.9216421365
 30
0.0
 40
0.9999999999999716
  0
CIRCLE
  5
E4
330
1F
100
AcDbEntity
  8
0
  6
Continuous
 62
     7
370
    15
100
AcDbCircle
 10
181.6895721754
 20
384.9216421365
 30
0.0
 40
0.9999999999999716
  0
CIRCLE
  5
E5
330
1F
100
AcDbEntity
  8
0
  6
Continuous
 62
     7
370
    15
100
AcDbCircle
 10
171.6895721754
 20
384.9216421365
 30
0.0
 40
1.0
  0
CIRCLE
  5
E6
330
1F
100
AcDbEntity
  8
0
  6
Continuous
 62
     7
370
    15
100
AcDbCircle
 10
161.6895721754
 20
384.9216421365
 30
0.0
 40
1.0
  0
CIRCLE
  5
E7
330
1F
100
AcDbEntity
  8
0
  6
Continuous
 62
     7
370
    15
100
AcDbCircle
 10
151.6895721754
 20
384.9216421365
 30
0.0
 40
0.9999999999999716
  0
CIRCLE
  5
E8
330
1F
100
AcDbEntity
  8
0
  6
Continuous
 62
     7
370
    15
100
AcDbCircle
 10
141.6895721754
 20
384.9216421365
 30
0.0
 40
0.9999999999999716
  0
CIRCLE
  5
E9
330
1F
100
AcDbEntity
  8
0
  6
Continuous
 62
     7
370
    15
100
AcDbCircle
 10
131.6895721754
 20
384.9216421365
 30
0.0
 40
0.9999999999999716
  0
CIRCLE
  5
EA
330
1F
100
AcDbEntity
  8
0
  6
Continuous
 62
     7
370
    15
100
AcDbCircle
 10
121.6895721754
 20
384.9216421365
 30
0.0
 40
0.9999999999999858
  0
CIRCLE
  5
EB
330
1F
100
AcDbEntity
  8
0
  6
Continuous
 62
     7
370
    15
100
AcDbCircle
 10
111.6895721754
 20
384.9216421365
 30
0.0
 40
0.9999999999999858
  0
CIRCLE
  5
EC
330
1F
100
AcDbEntity
  8
0
  6
Continuous
 62
     7
370
    15
100
AcDbCircle
 10
101.6895721754
 20
384.9216421365
 30
0.0
 40
0.9999999999999858
  0
CIRCLE
  5
ED
330
1F
100
AcDbEntity
  8
0
  6
Continuous
 62
     7
370
    15
100
AcDbCircle
 10
91.6895721754
 20
384.9216421365
 30
0.0
 40
0.9999999999999716
  0
CIRCLE
  5
EE
330
1F
100
AcDbEntity
  8
0
  6
Continuous
 62
     7
370
    15
100
AcDbCircle
 10
81.6895721754
 20
384.9216421365
 30
0.0
 40
0.9999999999999716
  0
CIRCLE
  5
EF
330
1F
100
AcDbEntity
  8
0
  6
Continuous
 62
     7
370
    15
100
AcDbCircle
 10
71.6895721754
 20
384.9216421365
 30
0.0
 40
1.0
  0
CIRCLE
  5
F0
330
1F
100
AcDbEntity
  8
0
  6
Continuous
 62
     7
370
    15
100
AcDbCircle
 10
61.6895721754
 20
384.9216421365
 30
0.0
 40
0.9999999999999858
  0
CIRCLE
  5
F1
330
1F
100
AcDbEntity
  8
0
  6
Continuous
 62
     7
370
    15
100
AcDbCircle
 10
51.6895721754
 20
384.9216421365
 30
0.0
 40
0.9999999999999858
  0
CIRCLE
  5
F2
330
1F
100
AcDbEntity
  8
0
  6
Continuous
 62
     7
370
    15
100
AcDbCircle
 10
41.6895721754
 20
384.9216421365
 30
0.0
 40
0.9999999999999929
  0
LINE
  5
F3
330
1F
100
AcDbEntity
  8
0
  6
Continuous
 62
     7
370
    15
100
AcDbLine
 10
156.6895739635
 20
442.4216436266
 30
0.0
 11
156.6895739635
 21
439.4216412723
 31
0.0
  0
LINE
  5
F4
330
1F
100
AcDbEntity
  8
0
  6
Continuous
 62
     7
370
    15
100
AcDbLine
 10
156.6895739635
 20
439.4216412723
 30
0.0
 11
186.6895751556
 21
439.4216412723
 31
0.0
  0
LINE
  5
F5
330
1F
100
AcDbEntity
  8
0
  6
Continuous
 62
     7
370
    15
100
AcDbLine
 10
186.6895751556
 20
439.4216412723
 30
0.0
 11
186.6895751556
 21
442.4216436266
 31
0.0
  0
LINE
  5
F6
330
1F
100
AcDbEntity
  8
0
  6
Continuous
 62
     7
370
    15
100
AcDbLine
 10
208.6895750364
 20
442.4216436266
 30
0.0
 11
186.6895751556
 21
442.4216436266
 31
0.0
  0
LINE
  5
F7
330
1F
100
AcDbEntity
  8
0
  6
Continuous
 62
     7
370
    15
100
AcDbLine
 10
208.6895750364
 20
442.4216436266
 30
0.0
 11
208.6895750364
 21
417.4216423228
 31
0.0
  0
LINE
  5
F8
330
1F
100
AcDbEntity
  8
0
  6
Continuous
 62
     7
370
    15
100
AcDbLine
 10
208.6895750364
 20
417.4216423228
 30
0.0
 11
211.6895736655
 21
417.4216423228
 31
0.0
  0
LINE
  5
F9
330
1F
100
AcDbEntity
  8
0
  6
Continuous
 62
     7
370
    15
100
AcDbLine
 10
211.6895736655
 20
392.4216419503
 30
0.0
 11
211.6895736655
 21
417.4216423228
 31
0.0
  0
LINE
  5
FA
330
1F
100
AcDbEntity
  8
0
  6
Continuous
 62
     7
370
    15
100
AcDbLine
 10
211.6895736655
 20
392.4216419503
 30
0.0
 11
208.6895750364
 21
392.4216419503
 31
0.0
  0
LINE
  5
FB
330
1F
100
AcDbEntity
  8
0
  6
Continuous
 62
     7
370
    15
100
AcDbLine
 10
208.6895750364
 20
392.4216419503
 30
0.0
 11
208.6895750364
 21
367.4216406464
 31
0.0
  0
LINE
  5
FC
330
1F
100
AcDbEntity
  8
0
  6
Continuous
 62
     7
370
    15
100
AcDbLine
 10
186.6895751556
 20
367.4216406464
 30
0.0
 11
208.6895750364
 21
367.4216406464
 31
0.0
  0
LINE
  5
FD
330
1F
100
AcDbEntity
  8
0
  6
Continuous
 62
     7
370
    15
100
AcDbLine
 10
186.6895751556
 20
367.4216406464
 30
0.0
 11
186.6895751556
 21
370.4216430008
 31
0.0
  0
LINE
  5
FE
330
1F
100
AcDbEntity
  8
0
  6
Continuous
 62
     7
370
    15
100
AcDbLine
 10
186.6895751556
 20
370.4216430008
 30
0.0
 11
156.6895739635
 21
370.4216430008
 31
0.0
  0
LINE
  5
FF
330
1F
100
AcDbEntity
  8
0
  6
Continuous
 62
     7
370
    15
100
AcDbLine
 10
156.6895739635
 20
370.4216430008
 30
0.0
 11
156.6895739635
 21
367.4216406464
 31
0.0
  0
LINE
  5
100
330
1F
100
AcDbEntity
  8
0
  6
Continuous
 62
     7
370
    15
100
AcDbLine
 10
126.6895718401
 20
367.4216406464
 30
0.0
 11
156.6895739635
 21
367.4216406464
 31
0.0
  0
LINE
  5
101
330
1F
100
AcDbEntity
  8
0
  6
Continuous
 62
     7
370
    15
100
AcDbLine
 10
126.6895718401
 20
367.4216406464
 30
0.0
 11
126.6895718401
 21
370.4216430008
 31
0.0
  0
LINE
  5
102
330
1F
100
AcDbEntity
  8
0
  6
Continuous
 62
     7
370
    15
100
AcDbLine
 10
126.6895718401
 20
370.4216430008
 30
0.0
 11
96.6895725107
 21
370.4216430008
 31
0.0
  0
LINE
  5
103
330
1F
100
AcDbEntity
  8
0
  6
Continuous
 62
     7
370
    15
100
AcDbLine
 10
96.6895725107
 20
370.4216430008
 30
0.0
 11
96.6895725107
 21
367.4216406464
 31
0.0
  0
LINE
  5
104
330
1F
100
AcDbEntity
  8
0
  6
Continuous
 62
     7
370
    15
100
AcDbLine
 10
66.6895703873
 20
367.4216406464
 30
0.0
 11
96.6895725107
 21
367.4216406464
 31
0.0
  0
LINE
  5
105
330
1F
100
AcDbEntity
  8
0
  6
Continuous
 62
     7
370
    15
100
AcDbLine
 10
66.6895703873
 20
367.4216406464
 30
0.0
 11
66.6895703873
 21
370.4216430008
 31
0.0
  0
LINE
  5
106
330
1F
100
AcDbEntity
  8
0
  6
Continuous
 62
     7
370
    15
100
AcDbLine
 10
66.6895703873
 20
370.4216430008
 30
0.0
 11
36.6895691952
 21
370.4216430008
 31
0.0
  0
LINE
  5
107
330
1F
100
AcDbEntity
  8
0
  6
Continuous
 62
     7
370
    15
100
AcDbLine
 10
36.6895691952
 20
370.4216430008
 30
0.0
 11
36.6895691952
 21
367.4216406464
 31
0.0
  0
LINE
  5
108
330
1F
100
AcDbEntity
  8
0
  6
Continuous
 62
     7
370
    15
100
AcDbLine
 10
14.6895693144
 20
367.4216406464
 30
0.0
 11
36.6895691952
 21
367.4216406464
 31
0.0
  0
LINE
  5
109
330
1F
100
AcDbEntity
  8
0
  6
Continuous
 62
     7
370
    15
100
AcDbLine
 10
14.6895693144
 20
367.4216406464
 30
0.0
 11
14.6895693144
 21
392.4216419503
 31
0.0
  0
LINE
  5
10A
330
1F
100
AcDbEntity
  8
0
  6
Continuous
 62
     7
370
    15
100
AcDbLine
 10
14.6895693144
 20
392.4216419503
 30
0.0
 11
11.6895706853
 21
392.4216419503
 31
0.0
  0
LINE
  5
10B
330
1F
100
AcDbEntity
  8
0
  6
Continuous
 62
     7
370
    15
100
AcDbLine
 10
11.6895706853
 20
417.4216423228
 30
0.0
 11
11.6895706853
 21
392.4216419503
 31
0.0
  0
LINE
  5
10C
330
1F
100
AcDbEntity
  8
0
  6
Continuous
 62
     7
370
    15
100
AcDbLine
 10
11.6895706853
 20
417.4216423228
 30
0.0
 11
14.6895693144
 21
417.4216423228
 31
0.0
  0
LINE
  5
10D
330
1F
100
AcDbEntity
  8
0
  6
Continuous
 62
     7
370
    15
100
AcDbLine
 10
14.6895693144
 20
417.4216423228
 30
0.0
 11
14.6895693144
 21
442.4216436266
 31
0.0
  0
LINE
  5
10E
330
1F
100
AcDbEntity
  8
0
  6
Continuous
 62
     7
370
    15
100
AcDbLine
 10
36.6895691952
 20
442.4216436266
 30
0.0
 11
14.6895693144
 21
442.4216436266
 31
0.0
  0
LINE
  5
10F
330
1F
100
AcDbEntity
  8
0
  6
Continuous
 62
     7
370
    15
100
AcDbLine
 10
36.6895691952
 20
442.4216436266
 30
0.0
 11
36.6895691952
 21
439.4216412723
 31
0.0
  0
LINE
  5
110
330
1F
100
AcDbEntity
  8
0
  6
Continuous
 62
     7
370
    15
100
AcDbLine
 10
36.6895691952
 20
439.4216412723
 30
0.0
 11
66.6895703873
 21
439.4216412723
 31
0.0
  0
LINE
  5
111
330
1F
100
AcDbEntity
  8
0
  6
Continuous
 62
     7
370
    15
100
AcDbLine
 10
66.6895703873
 20
439.4216412723
 30
0.0
 11
66.6895703873
 21
442.4216436266
 31
0.0
  0
LINE
  5
112
330
1F
100
AcDbEntity
  8
0
  6
Continuous
 62
     7
370
    15
100
AcDbLine
 10
96.6895725107
 20
442.4216436266
 30
0.0
 11
66.6895703873
 21
442.4216436266
 31
0.0
  0
LINE
  5
113
330
1F
100
AcDbEntity
  8
0
  6
Continuous
 62
     7
370
    15
100
AcDbLine
 10
96.6895725107
 20
442.4216436266
 30
0.0
 11
96.6895725107
 21
439.4216412723
 31
0.0
  0
LINE
  5
114
330
1F
100
AcDbEntity
  8
0
  6
Continuous
 62
     7
370
    15
100
AcDbLine
 10
96.6895725107
 20
439.4216412723
 30
0.0
 11
126.6895718401
 21
439.4216412723
 31
0.0
  0
LINE
  5
115
330
1F
100
AcDbEntity
  8
0
  6
Continuous
 62
     7
370
    15
100
AcDbLine
 10
126.6895718401
 20
439.4216412723
 30
0.0
 11
126.6895718401
 21
442.4216436266
 31
0.0
  0
LINE
  5
116
330
1F
100
AcDbEntity
  8
0
  6
Continuous
 62
     7
370
    15
100
AcDbLine
 10
156.6895739635
 20
442.4216436266
 30
0.0
 11
126.6895718401
 21
442.4216436266
 31
0.0
  0
CIRCLE
  5
117
330
1F
100
AcDbEntity
  8
0
  6
Continuous
 62
     7
370
    15
100
AcDbCircle
 10
21.6895721754
 20
374.9216421365
 30
0.0
 40
0.9999999999999858
  0
CIRCLE
  5
118
330
1F
100
AcDbEntity
  8
0
  6
Continuous
 62
     7
370
    15
100
AcDbCircle
 10
31.6895721754
 20
384.9216421365
 30
0.0
 40
0.9999999999999858
  0
CIRCLE
  5
119
330
1F
100
AcDbEntity
  8
0
  6
Continuous
 62
     7
370
    15
100
AcDbCircle
 10
31.6895721754
 20
374.9216421365
 30
0.0
 40
0.9999999999999858
  0
CIRCLE
  5
11A
330
1F
100
AcDbEntity
  8
0
  6
Continuous
 62
     7
370
    15
100
AcDbCircle
 10
161.6895721754
 20
424.9216421365
 30
0.0
 40
1.0
  0
CIRCLE
  5
11B
330
1F
100
AcDbEntity
  8
0
  6
Continuous
 62
     7
370
    15
100
AcDbCircle
 10
151.6895721754
 20
424.9216421365
 30
0.0
 40
0.9999999999999716
  0
CIRCLE
  5
11C
330
1F
100
AcDbEntity
  8
0
  6
Continuous
 62
     7
370
    15
100
AcDbCircle
 10
141.6895721754
 20
424.9216421365
 30
0.0
 40
0.9999999999999716
  0
CIRCLE
  5
11D
330
1F
100
AcDbEntity
  8
0
  6
Continuous
 62
     7
370
    15
100
AcDbCircle
 10
131.6895721754
 20
424.9216421365
 30
0.0
 40
0.9999999999999716
  0
CIRCLE
  5
11E
330
1F
100
AcDbEntity
  8
0
  6
Continuous
 62
     7
370
    15
100
AcDbCircle
 10
121.6895721754
 20
424.9216421365
 30
0.0
 40
0.9999999999999858
  0
CIRCLE
  5
11F
330
1F
100
AcDbEntity
  8
0
  6
Continuous
 62
     7
370
    15
100
AcDbCircle
 10
111.6895721754
 20
424.9216421365
 30
0.0
 40
0.9999999999999858
  0
CIRCLE
  5
120
330
1F
100
AcDbEntity
  8
0
  6
Continuous
 62
     7
370
    15
100
AcDbCircle
 10
101.6895721754
 20
424.9216421365
 30
0.0
 40
0.9999999999999858
  0
CIRCLE
  5
121
330
1F
100
AcDbEntity
  8
0
  6
Continuous
 62
     7
370
    15
100
AcDbCircle
 10
91.6895721754
 20
424.9216421365
 30
0.0
 40
0.9999999999999716
  0
CIRCLE
  5
122
330
1F
100
AcDbEntity
  8
0
  6
Continuous
 62
     7
370
    15
100
AcDbCircle
 10
81.6895721754
 20
424.9216421365
 30
0.0
 40
0.9999999999999716
  0
CIRCLE
  5
123
330
1F
100
AcDbEntity
  8
0
  6
Continuous
 62
     7
370
    15
100
AcDbCircle
 10
71.6895721754
 20
424.9216421365
 30
0.0
 40
1.0
  0
DIMENSION
  5
124
330
1F
100
AcDbEntity
  8
0
  6
Continuous
 62
     7
370
     0
100
AcDbDimension
  2
_D
 10
211.6895721754
 20
452.4216421365
 30
0.0
 11
111.6895721754
 21
452.4216421365
 31
0.0
 70
   160
  1
<>
 71
     2
 42
-1.0
  3
SLDDIMSTYLE0
100
AcDbAlignedDimension
 13
11.6895721754
 23
417.4216421365
 33
0.0
 14
211.6895721754
 24
417.4216421365
 34
0.0
100
AcDbRotatedDimension
  0
LINE
  5
130
330
1F
100
AcDbEntity
  8
0
  6
Continuous
 62
     7
370
    15
100
AcDbLine
 10
60.3868302424
 20
210.7339922049
 30
0.0
 11
85.3868315462
 21
210.7339922049
 31
0.0
  0
LINE
  5
131
330
1F
100
AcDbEntity
  8
0
  6
Continuous
 62
     7
370
    15
100
AcDbLine
 10
60.3868302424
 20
210.7339922049
 30
0.0
 11
60.3868302424
 21
213.733992231
 31
0.0
  0
LINE
  5
132
330
1F
100
AcDbEntity
  8
0
  6
Continuous
 62
     7
370
    15
100
AcDbLine
 10
60.3868302424
 20
213.733992231
 30
0.0
 11
35.3868298698
 21
213.733992231
 31
0.0
  0
LINE
  5
133
330
1F
100
AcDbEntity
  8
0
  6
Continuous
 62
     7
370
    15
100
AcDbLine
 10
35.3868298698
 20
213.733992231
 30
0.0
 11
35.3868298698
 21
210.7339922049
 31
0.0
  0
LINE
  5
134
330
1F
100
AcDbEntity
  8
0
  6
Continuous
 62
     7
370
    15
100
AcDbLine
 10
10.386828566
 20
210.7339922049
 30
0.0
 11
35.3868298698
 21
210.7339922049
 31
0.0
  0
LINE
  5
135
330
1F
100
AcDbEntity
  8
0
  6
Continuous
 62
     7
370
    15
100
AcDbLine
 10
10.386828566
 20
214.2339918473
 30
0.0
 11
10.386828566
 21
210.7339922049
 31
0.0
  0
LINE
  5
136
330
1F
100
AcDbEntity
  8
0
  6
Continuous
 62
     7
370
    15
100
AcDbLine
 10
10.386828566
 20
214.2339918473
 30
0.0
 11
13.3868309204
 21
214.2339918473
 31
0.0
  0
LINE
  5
137
330
1F
100
AcDbEntity
  8
0
  6
Continuous
 62
     7
370
    15
100
AcDbLine
 10
13.3868309204
 20
214.2339918473
 30
0.0
 11
13.3868309204
 21
222.2339922272
 31
0.0
  0
LINE
  5
138
330
1F
100
AcDbEntity
  8
0
  6
Continuous
 62
     7
370
    15
100
AcDbLine
 10
13.3868309204
 20
222.2339922272
 30
0.0
 11
10.386828566
 21
222.2339922272
 31
0.0
  0
LINE
  5
139
330
1F
100
AcDbEntity
  8
0
  6
Continuous
 62
     7
370
    15
100
AcDbLine
 10
10.386828566
 20
225.7339918696
 30
0.0
 11
10.386828566
 21
222.2339922272
 31
0.0
  0
LINE
  5
13A
330
1F
100
AcDbEntity
  8
0
  6
Continuous
 62
     7
370
    15
100
AcDbLine
 10
35.3868298698
 20
225.7339918696
 30
0.0
 11
10.386828566
 21
225.7339918696
 31
0.0
  0
LINE
  5
13B
330
1F
100
AcDbEntity
  8
0
  6
Continuous
 62
     7
370
    15
100
AcDbLine
 10
35.3868298698
 20
225.7339918696
 30
0.0
 11
35.3868298698
 21
222.7339918435
 31
0.0
  0
LINE
  5
13C
330
1F
100
AcDbEntity
  8
0
  6
Continuous
 62
     7
370
    15
100
AcDbLine
 10
35.3868298698
 20
222.7339918435
 30
0.0
 11
60.3868302424
 21
222.7339918435
 31
0.0
  0
LINE
  5
13D
330
1F
100
AcDbEntity
  8
0
  6
Continuous
 62
     7
370
    15
100
AcDbLine
 10
60.3868302424
 20
222.7339918435
 30
0.0
 11
60.3868302424
 21
225.7339918696
 31
0.0
  0
LINE
  5
13E
330
1F
100
AcDbEntity
  8
0
  6
Continuous
 62
     7
370
    15
100
AcDbLine
 10
85.3868315462
 20
225.7339918696
 30
0.0
 11
60.3868302424
 21
225.7339918696
 31
0.0
  0
LINE
  5
13F
330
1F
100
AcDbEntity
  8
0
  6
Continuous
 62
     7
370
    15
100
AcDbLine
 10
85.3868315462
 20
222.2339922272
 30
0.0
 11
85.3868315462
 21
225.7339918696
 31
0.0
  0
LINE
  5
140
330
1F
100
AcDbEntity
  8
0
  6
Continuous
 62
     7
370
    15
100
AcDbLine
 10
85.3868315462
 20
222.2339922272
 30
0.0
 11
82.3868291918
 21
222.2339922272
 31
0.0
  0
LINE
  5
141
330
1F
100
AcDbEntity
  8
0
  6
Continuous
 62
     7
370
    15
100
AcDbLine
 10
82.3868291918
 20
222.2339922272
 30
0.0
 11
82.3868291918
 21
214.2339918473
 31
0.0
  0
LINE
  5
142
330
1F
100
AcDbEntity
  8
0
  6
Continuous
 62
     7
370
    15
100
AcDbLine
 10
82.3868291918
 20
214.2339918473
 30
0.0
 11
85.3868315462
 21
214.2339918473
 31
0.0
  0
LINE
  5
143
330
1F
100
AcDbEntity
  8
0
  6
Continuous
 62
     7
370
    15
100
AcDbLine
 10
85.3868315462
 20
210.7339922049
 30
0.0
 11
85.3868315462
 21
214.2339918473
 31
0.0
  0
CIRCLE
  5
144
330
1F
100
AcDbEntity
  8
0
  6
Continuous
 62
     7
370
    15
100
AcDbCircle
 10
47.8868300561
 20
218.2339920373
 30
0.0
 40
0.9999999999999858
  0
CIRCLE
  5
145
330
1F
100
AcDbEntity
  8
0
  6
Continuous
 62
     7
370
    15
100
AcDbCircle
 10
37.8868300561
 20
218.2339920373
 30
0.0
 40
0.9999999999999858
  0
CIRCLE
  5
146
330
1F
100
AcDbEntity
  8
0
  6
Continuous
 62
     7
370
    15
100
AcDbCircle
 10
27.8868300561
 20
218.2339920373
 30
0.0
 40
0.9999999999999858
  0
CIRCLE
  5
147
330
1F
100
AcDbEntity
  8
0
  6
Continuous
 62
     7
370
    15
100
AcDbCircle
 10
17.8868300561
 20
218.2339920373
 30
0.0
 40
0.9999999999999858
  0
CIRCLE
  5
148
330
1F
100
AcDbEntity
  8
0
  6
Continuous
 62
     7
370
    15
100
AcDbCircle
 10
77.8868300561
 20
218.2339920373
 30
0.0
 40
0.9999999999999716
  0
CIRCLE
  5
149
330
1F
100
AcDbEntity
  8
0
  6
Continuous
 62
     7
370
    15
100
AcDbCircle
 10
67.8868300561
 20
218.2339920373
 30
0.0
 40
1.0
  0
CIRCLE
  5
14A
330
1F
100
AcDbEntity
  8
0
  6
Continuous
 62
     7
370
    15
100
AcDbCircle
 10
57.8868300561
 20
218.2339920373
 30
0.0
 40
0.9999999999999858
  0
ARC
  5
14B
330
1F
100
AcDbEntity
  8
0
  6
Continuous
 62
     7
370
    15
100
AcDbCircle
 10
96.0083560751
 20
146.4910799335
 30
0.0
 40
7.000000000000028
100
AcDbArc
 50
0.0
 51
90.0
  0
ARC
  5
14C
330
1F
100
AcDbEntity
  8
0
  6
Continuous
 62
     7
370
    15
100
AcDbCircle
 10
96.0083560751
 20
130.4910799335
 30
0.0
 40
7.0
100
AcDbArc
 50
270.0
 51
0.0
  0
LINE
  5
14D
330
1F
100
AcDbEntity
  8
0
  6
Continuous
 62
     7
370
    15
100
AcDbLine
 10
88.2583560304
 20
123.4910802687
 30
0.0
 11
96.0083560784
 21
123.4910802687
 31
0.0
  0
LINE
  5
14E
330
1F
100
AcDbEntity
  8
0
  6
Continuous
 62
     7
370
    15
100
AcDbLine
 10
88.2583560304
 20
153.4910795982
 30
0.0
 11
88.2583560304
 21
123.4910802687
 31
0.0
  0
LINE
  5
14F
330
1F
100
AcDbEntity
  8
0
  6
Continuous
 62
     7
370
    15
100
AcDbLine
 10
96.0083560784
 20
153.4910795982
 30
0.0
 11
88.2583560304
 21
153.4910795982
 31
0.0
  0
LINE
  5
150
330
1F
100
AcDbEntity
  8
0
  6
Continuous
 62
     7
370
    15
100
AcDbLine
 10
103.0083561198
 20
130.4910795535
 30
0.0
 11
103.0083561198
 21
146.4910803134
 31
0.0
  0
ARC
  5
151
330
1F
100
AcDbEntity
  8
0
  6
Continuous
 62
     7
370
    15
100
AcDbCircle
 10
73.1113474913
 20
145.2383052758
 30
0.0
 40
7.0
100
AcDbArc
 50
0.0
 51
90.0
  0
ARC
  5
152
330
1F
100
AcDbEntity
  8
0
  6
Continuous
 62
     7
370
    15
100
AcDbCircle
 10
73.1113474913
 20
129.2383052758
 30
0.0
 40
7.0
100
AcDbArc
 50
270.0
 51
0.0
  0
LINE
  5
153
330
1F
100
AcDbEntity
  8
0
  6
Continuous
 62
     7
370
    15
100
AcDbLine
 10
68.1113474391
 20
122.2383056111
 30
0.0
 11
73.1113474438
 21
122.2383056111
 31
0.0
  0
LINE
  5
154
330
1F
100
AcDbEntity
  8
0
  6
Continuous
 62
     7
370
    15
100
AcDbLine
 10
68.1113474391
 20
152.2383049405
 30
0.0
 11
68.1113474391
 21
122.2383056111
 31
0.0
  0
LINE
  5
155
330
1F
100
AcDbEntity
  8
0
  6
Continuous
 62
     7
370
    15
100
AcDbLine
 10
73.1113474438
 20
152.2383049405
 30
0.0
 11
68.1113474391
 21
152.2383049405
 31
0.0
  0
LINE
  5
156
330
1F
100
AcDbEntity
  8
0
  6
Continuous
 62
     7
370
    15
100
AcDbLine
 10
80.1113475435
 20
129.2383048958
 30
0.0
 11
80.1113475435
 21
145.2383056558
 31
0.0
  0
LINE
  5
157
330
1F
100
AcDbEntity
  8
0
  6
Continuous
 62
     7
370
    15
100
AcDbLine
 10
87.6263942202
 20
188.0277589604
 30
0.0
 11
87.6263942202
 21
195.0277582452
 31
0.0
  0
LINE
  5
158
330
1F
100
AcDbEntity
  8
0
  6
Continuous
 62
     7
370
    15
100
AcDbLine
 10
90.6263965746
 20
188.0277589604
 30
0.0
 11
87.6263942202
 21
188.0277589604
 31
0.0
  0
LINE
  5
159
330
1F
100
AcDbEntity
  8
0
  6
Continuous
 62
     7
370
    15
100
AcDbLine
 10
87.6263942202
 20
178.0277584855
 30
0.0
 11
90.6263965746
 21
178.0277584855
 31
0.0
  0
LINE
  5
15A
330
1F
100
AcDbEntity
  8
0
  6
Continuous
 62
     7
370
    15
100
AcDbLine
 10
87.6263942202
 20
171.0277589679
 30
0.0
 11
87.6263942202
 21
178.0277584855
 31
0.0
  0
LINE
  5
15B
330
1F
100
AcDbEntity
  8
0
  6
Continuous
 62
     7
370
    15
100
AcDbLine
 10
79.8763952782
 20
171.0277589679
 30
0.0
 11
87.6263942202
 21
171.0277589679
 31
0.0
  0
LINE
  5
15C
330
1F
100
AcDbEntity
  8
0
  6
Continuous
 62
     7
370
    15
100
AcDbLine
 10
79.8763952782
 20
165.0277589157
 30
0.0
 11
79.8763952782
 21
171.0277589679
 31
0.0
  0
LINE
  5
15D
330
1F
100
AcDbEntity
  8
0
  6
Continuous
 62
     7
370
    15
100
AcDbLine
 10
59.8763957252
 20
171.0277589679
 30
0.0
 11
59.8763957252
 21
165.0277589157
 31
0.0
  0
LINE
  5
15E
330
1F
100
AcDbEntity
  8
0
  6
Continuous
 62
     7
370
    15
100
AcDbLine
 10
39.8763961722
 20
171.0277589679
 30
0.0
 11
59.8763957252
 21
171.0277589679
 31
0.0
  0
LINE
  5
15F
330
1F
100
AcDbEntity
  8
0
  6
Continuous
 62
     7
370
    15
100
AcDbLine
 10
39.8763961722
 20
165.0277589157
 30
0.0
 11
39.8763961722
 21
171.0277589679
 31
0.0
  0
LINE
  5
160
330
1F
100
AcDbEntity
  8
0
  6
Continuous
 62
     7
370
    15
100
AcDbLine
 10
19.8763966193
 20
171.0277589679
 30
0.0
 11
19.8763966193
 21
165.0277589157
 31
0.0
  0
LINE
  5
161
330
1F
100
AcDbEntity
  8
0
  6
Continuous
 62
     7
370
    15
100
AcDbLine
 10
12.1263976773
 20
171.0277589679
 30
0.0
 11
19.8763966193
 21
171.0277589679
 31
0.0
  0
LINE
  5
162
330
1F
100
AcDbEntity
  8
0
  6
Continuous
 62
     7
370
    15
100
AcDbLine
 10
12.1263976773
 20
178.0277584855
 30
0.0
 11
12.1263976773
 21
171.0277589679
 31
0.0
  0
LINE
  5
163
330
1F
100
AcDbEntity
  8
0
  6
Continuous
 62
     7
370
    15
100
AcDbLine
 10
9.1263953229
 20
178.0277584855
 30
0.0
 11
12.1263976773
 21
178.0277584855
 31
0.0
  0
LINE
  5
164
330
1F
100
AcDbEntity
  8
0
  6
Continuous
 62
     7
370
    15
100
AcDbLine
 10
12.1263976773
 20
188.0277589604
 30
0.0
 11
9.1263953229
 21
188.0277589604
 31
0.0
  0
LINE
  5
165
330
1F
100
AcDbEntity
  8
0
  6
Continuous
 62
     7
370
    15
100
AcDbLine
 10
12.1263976773
 20
195.0277582452
 30
0.0
 11
12.1263976773
 21
188.0277589604
 31
0.0
  0
LINE
  5
166
330
1F
100
AcDbEntity
  8
0
  6
Continuous
 62
     7
370
    15
100
AcDbLine
 10
19.8763966193
 20
165.0277589157
 30
0.0
 11
39.8763961722
 21
165.0277589157
 31
0.0
  0
LINE
  5
167
330
1F
100
AcDbEntity
  8
0
  6
Continuous
 62
     7
370
    15
100
AcDbLine
 10
9.1263953229
 20
188.0277589604
 30
0.0
 11
9.1263953229
 21
178.0277584855
 31
0.0
  0
LINE
  5
168
330
1F
100
AcDbEntity
  8
0
  6
Continuous
 62
     7
370
    15
100
AcDbLine
 10
87.6263942202
 20
195.0277582452
 30
0.0
 11
12.1263976773
 21
195.0277582452
 31
0.0
  0
LINE
  5
169
330
1F
100
AcDbEntity
  8
0
  6
Continuous
 62
     7
370
    15
100
AcDbLine
 10
90.6263965746
 20
178.0277584855
 30
0.0
 11
90.6263965746
 21
188.0277589604
 31
0.0
  0
LINE
  5
16A
330
1F
100
AcDbEntity
  8
0
  6
Continuous
 62
     7
370
    15
100
AcDbLine
 10
59.8763957252
 20
165.0277589157
 30
0.0
 11
79.8763952782
 21
165.0277589157
 31
0.0
  0
LINE
  5
16B
330
1F
100
AcDbEntity
  8
0
  6
Continuous
 62
     7
370
    15
100
AcDbLine
 10
182.7851189606
 20
207.9726570515
 30
0.0
 11
179.7851184688
 21
207.9726570515
 31
0.0
  0
LINE
  5
16C
330
1F
100
AcDbEntity
  8
0
  6
Continuous
 62
     7
370
    15
100
AcDbLine
 10
182.7851189606
 20
217.9726575264
 30
0.0
 11
182.7851189606
 21
207.9726570515
 31
0.0
  0
LINE
  5
16D
330
1F
100
AcDbEntity
  8
0
  6
Continuous
 62
     7
370
    15
100
AcDbLine
 10
179.7851184688
 20
217.9726575264
 30
0.0
 11
182.7851189606
 21
217.9726575264
 31
0.0
  0
LINE
  5
16E
330
1F
100
AcDbEntity
  8
0
  6
Continuous
 62
     7
370
    15
100
AcDbLine
 10
185.5351189457
 20
224.972657044
 30
0.0
 11
179.7851184688
 21
224.972657044
 31
0.0
  0
LINE
  5
16F
330
1F
100
AcDbEntity
  8
0
  6
Continuous
 62
     7
370
    15
100
AcDbLine
 10
185.5351189457
 20
230.9726570962
 30
0.0
 11
185.5351189457
 21
224.972657044
 31
0.0
  0
LINE
  5
170
330
1F
100
AcDbEntity
  8
0
  6
Continuous
 62
     7
370
    15
100
AcDbLine
 10
195.5351187221
 20
224.972657044
 30
0.0
 11
195.5351187221
 21
230.9726570962
 31
0.0
  0
LINE
  5
171
330
1F
100
AcDbEntity
  8
0
  6
Continuous
 62
     7
370
    15
100
AcDbLine
 10
201.285119199
 20
224.972657044
 30
0.0
 11
195.5351187221
 21
224.972657044
 31
0.0
  0
LINE
  5
172
330
1F
100
AcDbEntity
  8
0
  6
Continuous
 62
     7
370
    15
100
AcDbLine
 10
198.2851187072
 20
217.9726575264
 30
0.0
 11
201.285119199
 21
217.9726575264
 31
0.0
  0
LINE
  5
173
330
1F
100
AcDbEntity
  8
0
  6
Continuous
 62
     7
370
    15
100
AcDbLine
 10
198.2851187072
 20
207.9726570515
 30
0.0
 11
198.2851187072
 21
217.9726575264
 31
0.0
  0
LINE
  5
174
330
1F
100
AcDbEntity
  8
0
  6
Continuous
 62
     7
370
    15
100
AcDbLine
 10
201.285119199
 20
207.9726570515
 30
0.0
 11
198.2851187072
 21
207.9726570515
 31
0.0
  0
LINE
  5
175
330
1F
100
AcDbEntity
  8
0
  6
Continuous
 62
     7
370
    15
100
AcDbLine
 10
179.7851184688
 20
200.9726577667
 30
0.0
 11
201.285119199
 21
200.9726577667
 31
0.0
  0
LINE
  5
176
330
1F
100
AcDbEntity
  8
0
  6
Continuous
 62
     7
370
    15
100
AcDbLine
 10
179.7851184688
 20
224.972657044
 30
0.0
 11
179.7851184688
 21
217.9726575264
 31
0.0
  0
LINE
  5
177
330
1F
100
AcDbEntity
  8
0
  6
Continuous
 62
     7
370
    15
100
AcDbLine
 10
195.5351187221
 20
230.9726570962
 30
0.0
 11
185.5351189457
 21
230.9726570962
 31
0.0
  0
LINE
  5
178
330
1F
100
AcDbEntity
  8
0
  6
Continuous
 62
     7
370
    15
100
AcDbLine
 10
201.285119199
 20
217.9726575264
 30
0.0
 11
201.285119199
 21
224.972657044
 31
0.0
  0
LINE
  5
179
330
1F
100
AcDbEntity
  8
0
  6
Continuous
 62
     7
370
    15
100
AcDbLine
 10
179.7851184688
 20
207.9726570515
 30
0.0
 11
179.7851184688
 21
200.9726577667
 31
0.0
  0
LINE
  5
17A
330
1F
100
AcDbEntity
  8
0
  6
Continuous
 62
     7
370
    15
100
AcDbLine
 10
201.285119199
 20
200.9726577667
 30
0.0
 11
201.285119199
 21
207.9726570515
 31
0.0
  0
CIRCLE
  5
17B
330
1F
100
AcDbEntity
  8
0
  6
Continuous
 62
     7
370
    15
100
AcDbCircle
 10
201.8754436332
 20
351.3501466348
 30
0.0
 40
0.9999999999999716
  0
CIRCLE
  5
17C
330
1F
100
AcDbEntity
  8
0
  6
Continuous
 62
     7
370
    15
100
AcDbCircle
 10
191.8754436332
 20
351.3501466348
 30
0.0
 40
1.0
  0
CIRCLE
  5
17D
330
1F
100
AcDbEntity
  8
0
  6
Continuous
 62
     7
370
    15
100
AcDbCircle
 10
181.8754436332
 20
351.3501466348
 30
0.0
 40
1.0
  0
CIRCLE
  5
17E
330
1F
100
AcDbEntity
  8
0
  6
Continuous
 62
     7
370
    15
100
AcDbCircle
 10
171.8754436332
 20
351.3501466348
 30
0.0
 40
1.0
  0
CIRCLE
  5
17F
330
1F
100
AcDbEntity
  8
0
  6
Continuous
 62
     7
370
    15
100
AcDbCircle
 10
161.8754436332
 20
351.3501466348
 30
0.0
 40
0.9999999999999716
  0
CIRCLE
  5
180
330
1F
100
AcDbEntity
  8
0
  6
Continuous
 62
     7
370
    15
100
AcDbCircle
 10
151.8754436332
 20
351.3501466348
 30
0.0
 40
1.0
  0
CIRCLE
  5
181
330
1F
100
AcDbEntity
  8
0
  6
Continuous
 62
     7
370
    15
100
AcDbCircle
 10
141.8754436332
 20
351.3501466348
 30
0.0
 40
0.9999999999999716
  0
CIRCLE
  5
182
330
1F
100
AcDbEntity
  8
0
  6
Continuous
 62
     7
370
    15
100
AcDbCircle
 10
131.8754436332
 20
351.3501466348
 30
0.0
 40
1.0
  0
CIRCLE
  5
183
330
1F
100
AcDbEntity
  8
0
  6
Continuous
 62
     7
370
    15
100
AcDbCircle
 10
121.8754436332
 20
351.3501466348
 30
0.0
 40
0.9999999999999858
  0
CIRCLE
  5
184
330
1F
100
AcDbEntity
  8
0
  6
Continuous
 62
     7
370
    15
100
AcDbCircle
 10
111.8754436332
 20
351.3501466348
 30
0.0
 40
0.9999999999999858
  0
CIRCLE
  5
185
330
1F
100
AcDbEntity
  8
0
  6
Continuous
 62
     7
370
    15
100
AcDbCircle
 10
101.8754436332
 20
351.3501466348
 30
0.0
 40
0.9999999999999858
  0
CIRCLE
  5
186
330
1F
100
AcDbEntity
  8
0
  6
Continuous
 62
     7
370
    15
100
AcDbCircle
 10
91.8754436332
 20
351.3501466348
 30
0.0
 40
1.0
  0
CIRCLE
  5
187
330
1F
100
AcDbEntity
  8
0
  6
Continuous
 62
     7
370
    15
100
AcDbCircle
 10
81.8754436332
 20
351.3501466348
 30
0.0
 40
1.0
  0
CIRCLE
  5
188
330
1F
100
AcDbEntity
  8
0
  6
Continuous
 62
     7
370
    15
100
AcDbCircle
 10
71.8754436332
 20
351.3501466348
 30
0.0
 40
0.9999999999999716
  0
CIRCLE
  5
189
330
1F
100
AcDbEntity
  8
0
  6
Continuous
 62
     7
370
    15
100
AcDbCircle
 10
61.8754436332
 20
351.3501466348
 30
0.0
 40
0.9999999999999929
  0
CIRCLE
  5
18A
330
1F
100
AcDbEntity
  8
0
  6
Continuous
 62
     7
370
    15
100
AcDbCircle
 10
51.8754436332
 20
351.3501466348
 30
0.0
 40
0.9999999999999858
  0
CIRCLE
  5
18B
330
1F
100
AcDbEntity
  8
0
  6
Continuous
 62
     7
370
    15
100
AcDbCircle
 10
41.8754436332
 20
351.3501466348
 30
0.0
 40
0.9999999999999858
  0
CIRCLE
  5
18C
330
1F
100
AcDbEntity
  8
0
  6
Continuous
 62
     7
370
    15
100
AcDbCircle
 10
31.8754436332
 20
351.3501466348
 30
0.0
 40
0.9999999999999893
  0
CIRCLE
  5
18D
330
1F
100
AcDbEntity
  8
0
  6
Continuous
 62
     7
370
    15
100
AcDbCircle
 10
21.8754436332
 20
351.3501466348
 30
0.0
 40
0.9999999999999858
  0
CIRCLE
  5
18E
330
1F
100
AcDbEntity
  8
0
  6
Continuous
 62
     7
370
    15
100
AcDbCircle
 10
201.8754436332
 20
341.3501466348
 30
0.0
 40
0.9999999999999716
  0
CIRCLE
  5
18F
330
1F
100
AcDbEntity
  8
0
  6
Continuous
 62
     7
370
    15
100
AcDbCircle
 10
21.8754436332
 20
341.3501466348
 30
0.0
 40
0.9999999999999858
  0
CIRCLE
  5
190
330
1F
100
AcDbEntity
  8
0
  6
Continuous
 62
     7
370
    15
100
AcDbCircle
 10
201.8754436332
 20
331.3501466348
 30
0.0
 40
0.9999999999999716
  0
CIRCLE
  5
191
330
1F
100
AcDbEntity
  8
0
  6
Continuous
 62
     7
370
    15
100
AcDbCircle
 10
21.8754436332
 20
331.3501466348
 30
0.0
 40
0.9999999999999858
  0
CIRCLE
  5
192
330
1F
100
AcDbEntity
  8
0
  6
Continuous
 62
     7
370
    15
100
AcDbCircle
 10
201.8754436332
 20
321.3501466348
 30
0.0
 40
0.9999999999999716
  0
CIRCLE
  5
193
330
1F
100
AcDbEntity
  8
0
  6
Continuous
 62
     7
370
    15
100
AcDbCircle
 10
21.8754436332
 20
321.3501466348
 30
0.0
 40
0.9999999999999858
  0
CIRCLE
  5
194
330
1F
100
AcDbEntity
  8
0
  6
Continuous
 62
     7
370
    15
100
AcDbCircle
 10
201.8754436332
 20
311.3501466348
 30
0.0
 40
0.9999999999999716
  0
CIRCLE
  5
195
330
1F
100
AcDbEntity
  8
0
  6
Continuous
 62
     7
370
    15
100
AcDbCircle
 10
21.8754436332
 20
311.3501466348
 30
0.0
 40
0.9999999999999858
  0
CIRCLE
  5
196
330
1F
100
AcDbEntity
  8
0
  6
Continuous
 62
     7
370
    15
100
AcDbCircle
 10
201.8754436332
 20
301.3501466348
 30
0.0
 40
0.9999999999999716
  0
CIRCLE
  5
197
330
1F
100
AcDbEntity
  8
0
  6
Continuous
 62
     7
370
    15
100
AcDbCircle
 10
21.8754436332
 20
301.3501466348
 30
0.0
 40
0.9999999999999858
  0
CIRCLE
  5
198
330
1F
100
AcDbEntity
  8
0
  6
Continuous
 62
     7
370
    15
100
AcDbCircle
 10
201.8754436332
 20
291.3501466348
 30
0.0
 40
0.9999999999999716
  0
CIRCLE
  5
199
330
1F
100
AcDbEntity
  8
0
  6
Continuous
 62
     7
370
    15
100
AcDbCircle
 10
191.8754436332
 20
291.3501466348
 30
0.0
 40
1.0
  0
CIRCLE
  5
19A
330
1F
100
AcDbEntity
  8
0
  6
Continuous
 62
     7
370
    15
100
AcDbCircle
 10
181.8754436332
 20
291.3501466348
 30
0.0
 40
1.0
  0
CIRCLE
  5
19B
330
1F
100
AcDbEntity
  8
0
  6
Continuous
 62
     7
370
    15
100
AcDbCircle
 10
171.8754436332
 20
291.3501466348
 30
0.0
 40
1.0
  0
CIRCLE
  5
19C
330
1F
100
AcDbEntity
  8
0
  6
Continuous
 62
     7
370
    15
100
AcDbCircle
 10
161.8754436332
 20
291.3501466348
 30
0.0
 40
0.9999999999999716
  0
CIRCLE
  5
19D
330
1F
100
AcDbEntity
  8
0
  6
Continuous
 62
     7
370
    15
100
AcDbCircle
 10
151.8754436332
 20
291.3501466348
 30
0.0
 40
1.0
  0
CIRCLE
  5
19E
330
1F
100
AcDbEntity
  8
0
  6
Continuous
 62
     7
370
    15
100
AcDbCircle
 10
141.8754436332
 20
291.3501466348
 30
0.0
 40
0.9999999999999716
  0
CIRCLE
  5
19F
330
1F
100
AcDbEntity
  8
0
  6
Continuous
 62
     7
370
    15
100
AcDbCircle
 10
131.8754436332
 20
291.3501466348
 30
0.0
 40
1.0
  0
CIRCLE
  5
1A0
330
1F
100
AcDbEntity
  8
0
  6
Continuous
 62
     7
370
    15
100
AcDbCircle
 10
121.8754436332
 20
291.3501466348
 30
0.0
 40
0.9999999999999858
  0
CIRCLE
  5
1A1
330
1F
100
AcDbEntity
  8
0
  6
Continuous
 62
     7
370
    15
100
AcDbCircle
 10
111.8754436332
 20
291.3501466348
 30
0.0
 40
0.9999999999999858
  0
CIRCLE
  5
1A2
330
1F
100
AcDbEntity
  8
0
  6
Continuous
 62
     7
370
    15
100
AcDbCircle
 10
101.8754436332
 20
291.3501466348
 30
0.0
 40
0.9999999999999858
  0
CIRCLE
  5
1A3
330
1F
100
AcDbEntity
  8
0
  6
Continuous
 62
     7
370
    15
100
AcDbCircle
 10
91.8754436332
 20
291.3501466348
 30
0.0
 40
1.0
  0
CIRCLE
  5
1A4
330
1F
100
AcDbEntity
  8
0
  6
Continuous
 62
     7
370
    15
100
AcDbCircle
 10
81.8754436332
 20
291.3501466348
 30
0.0
 40
1.0
  0
CIRCLE
  5
1A5
330
1F
100
AcDbEntity
  8
0
  6
Continuous
 62
     7
370
    15
100
AcDbCircle
 10
71.8754436332
 20
291.3501466348
 30
0.0
 40
0.9999999999999716
  0
CIRCLE
  5
1A6
330
1F
100
AcDbEntity
  8
0
  6
Continuous
 62
     7
370
    15
100
AcDbCircle
 10
61.8754436332
 20
291.3501466348
 30
0.0
 40
0.9999999999999929
  0
CIRCLE
  5
1A7
330
1F
100
AcDbEntity
  8
0
  6
Continuous
 62
     7
370
    15
100
AcDbCircle
 10
51.8754436332
 20
291.3501466348
 30
0.0
 40
0.9999999999999858
  0
CIRCLE
  5
1A8
330
1F
100
AcDbEntity
  8
0
  6
Continuous
 62
     7
370
    15
100
AcDbCircle
 10
41.8754436332
 20
291.3501466348
 30
0.0
 40
0.9999999999999858
  0
CIRCLE
  5
1A9
330
1F
100
AcDbEntity
  8
0
  6
Continuous
 62
     7
370
    15
100
AcDbCircle
 10
191.8754436332
 20
341.3501466348
 30
0.0
 40
1.0
  0
CIRCLE
  5
1AA
330
1F
100
AcDbEntity
  8
0
  6
Continuous
 62
     7
370
    15
100
AcDbCircle
 10
181.8754436332
 20
341.3501466348
 30
0.0
 40
1.0
  0
CIRCLE
  5
1AB
330
1F
100
AcDbEntity
  8
0
  6
Continuous
 62
     7
370
    15
100
AcDbCircle
 10
171.8754436332
 20
341.3501466348
 30
0.0
 40
1.0
  0
CIRCLE
  5
1AC
330
1F
100
AcDbEntity
  8
0
  6
Continuous
 62
     7
370
    15
100
AcDbCircle
 10
61.8754436332
 20
341.3501466348
 30
0.0
 40
0.9999999999999929
  0
CIRCLE
  5
1AD
330
1F
100
AcDbEntity
  8
0
  6
Continuous
 62
     7
370
    15
100
AcDbCircle
 10
51.8754436332
 20
341.3501466348
 30
0.0
 40
0.9999999999999858
  0
CIRCLE
  5
1AE
330
1F
100
AcDbEntity
  8
0
  6
Continuous
 62
     7
370
    15
100
AcDbCircle
 10
41.8754436332
 20
341.3501466348
 30
0.0
 40
0.9999999999999858
  0
CIRCLE
  5
1AF
330
1F
100
AcDbEntity
  8
0
  6
Continuous
 62
     7
370
    15
100
AcDbCircle
 10
31.8754436332
 20
341.3501466348
 30
0.0
 40
0.9999999999999893
  0
CIRCLE
  5
1B0
330
1F
100
AcDbEntity
  8
0
  6
Continuous
 62
     7
370
    15
100
AcDbCircle
 10
191.8754436332
 20
331.3501466348
 30
0.0
 40
1.0
  0
CIRCLE
  5
1B1
330
1F
100
AcDbEntity
  8
0
  6
Continuous
 62
     7
370
    15
100
AcDbCircle
 10
181.8754436332
 20
331.3501466348
 30
0.0
 40
1.0
  0
CIRCLE
  5
1B2
330
1F
100
AcDbEntity
  8
0
  6
Continuous
 62
     7
370
    15
100
AcDbCircle
 10
171.8754436332
 20
331.3501466348
 30
0.0
 40
1.0
  0
CIRCLE
  5
1B3
330
1F
100
AcDbEntity
  8
0
  6
Continuous
 62
     7
370
    15
100
AcDbCircle
 10
161.8754436332
 20
331.3501466348
 30
0.0
 40
0.9999999999999716
  0
CIRCLE
  5
1B4
330
1F
100
AcDbEntity
  8
0
  6
Continuous
 62
     7
370
    15
100
AcDbCircle
 10
151.8754436332
 20
331.3501466348
 30
0.0
 40
1.0
  0
CIRCLE
  5
1B5
330
1F
100
AcDbEntity
  8
0
  6
Continuous
 62
     7
370
    15
100
AcDbCircle
 10
141.8754436332
 20
331.3501466348
 30
0.0
 40
0.9999999999999716
  0
CIRCLE
  5
1B6
330
1F
100
AcDbEntity
  8
0
  6
Continuous
 62
     7
370
    15
100
AcDbCircle
 10
131.8754436332
 20
331.3501466348
 30
0.0
 40
1.0
  0
CIRCLE
  5
1B7
330
1F
100
AcDbEntity
  8
0
  6
Continuous
 62
     7
370
    15
100
AcDbCircle
 10
121.8754436332
 20
331.3501466348
 30
0.0
 40
0.9999999999999858
  0
CIRCLE
  5
1B8
330
1F
100
AcDbEntity
  8
0
  6
Continuous
 62
     7
370
    15
100
AcDbCircle
 10
111.8754436332
 20
331.3501466348
 30
0.0
 40
0.9999999999999858
  0
CIRCLE
  5
1B9
330
1F
100
AcDbEntity
  8
0
  6
Continuous
 62
     7
370
    15
100
AcDbCircle
 10
101.8754436332
 20
331.3501466348
 30
0.0
 40
0.9999999999999858
  0
CIRCLE
  5
1BA
330
1F
100
AcDbEntity
  8
0
  6
Continuous
 62
     7
370
    15
100
AcDbCircle
 10
91.8754436332
 20
331.3501466348
 30
0.0
 40
1.0
  0
CIRCLE
  5
1BB
330
1F
100
AcDbEntity
  8
0
  6
Continuous
 62
     7
370
    15
100
AcDbCircle
 10
81.8754436332
 20
331.3501466348
 30
0.0
 40
1.0
  0
CIRCLE
  5
1BC
330
1F
100
AcDbEntity
  8
0
  6
Continuous
 62
     7
370
    15
100
AcDbCircle
 10
71.8754436332
 20
331.3501466348
 30
0.0
 40
0.9999999999999716
  0
CIRCLE
  5
1BD
330
1F
100
AcDbEntity
  8
0
  6
Continuous
 62
     7
370
    15
100
AcDbCircle
 10
61.8754436332
 20
331.3501466348
 30
0.0
 40
0.9999999999999929
  0
CIRCLE
  5
1BE
330
1F
100
AcDbEntity
  8
0
  6
Continuous
 62
     7
370
    15
100
AcDbCircle
 10
51.8754436332
 20
331.3501466348
 30
0.0
 40
0.9999999999999858
  0
CIRCLE
  5
1BF
330
1F
100
AcDbEntity
  8
0
  6
Continuous
 62
     7
370
    15
100
AcDbCircle
 10
41.8754436332
 20
331.3501466348
 30
0.0
 40
0.9999999999999858
  0
CIRCLE
  5
1C0
330
1F
100
AcDbEntity
  8
0
  6
Continuous
 62
     7
370
    15
100
AcDbCircle
 10
31.8754436332
 20
331.3501466348
 30
0.0
 40
0.9999999999999893
  0
CIRCLE
  5
1C1
330
1F
100
AcDbEntity
  8
0
  6
Continuous
 62
     7
370
    15
100
AcDbCircle
 10
191.8754436332
 20
321.3501466348
 30
0.0
 40
1.0
  0
CIRCLE
  5
1C2
330
1F
100
AcDbEntity
  8
0
  6
Continuous
 62
     7
370
    15
100
AcDbCircle
 10
181.8754436332
 20
321.3501466348
 30
0.0
 40
1.0
  0
CIRCLE
  5
1C3
330
1F
100
AcDbEntity
  8
0
  6
Continuous
 62
     7
370
    15
100
AcDbCircle
 10
171.8754436332
 20
321.3501466348
 30
0.0
 40
1.0
  0
CIRCLE
  5
1C4
330
1F
100
AcDbEntity
  8
0
  6
Continuous
 62
     7
370
    15
100
AcDbCircle
 10
161.8754436332
 20
321.3501466348
 30
0.0
 40
0.9999999999999716
  0
CIRCLE
  5
1C5
330
1F
100
AcDbEntity
  8
0
  6
Continuous
 62
     7
370
    15
100
AcDbCircle
 10
151.8754436332
 20
321.3501466348
 30
0.0
 40
1.0
  0
CIRCLE
  5
1C6
330
1F
100
AcDbEntity
  8
0
  6
Continuous
 62
     7
370
    15
100
AcDbCircle
 10
141.8754436332
 20
321.3501466348
 30
0.0
 40
0.9999999999999716
  0
CIRCLE
  5
1C7
330
1F
100
AcDbEntity
  8
0
  6
Continuous
 62
     7
370
    15
100
AcDbCircle
 10
131.8754436332
 20
321.3501466348
 30
0.0
 40
1.0
  0
CIRCLE
  5
1C8
330
1F
100
AcDbEntity
  8
0
  6
Continuous
 62
     7
370
    15
100
AcDbCircle
 10
121.8754436332
 20
321.3501466348
 30
0.0
 40
0.9999999999999858
  0
CIRCLE
  5
1C9
330
1F
100
AcDbEntity
  8
0
  6
Continuous
 62
     7
370
    15
100
AcDbCircle
 10
111.8754436332
 20
321.3501466348
 30
0.0
 40
0.9999999999999858
  0
CIRCLE
  5
1CA
330
1F
100
AcDbEntity
  8
0
  6
Continuous
 62
     7
370
    15
100
AcDbCircle
 10
101.8754436332
 20
321.3501466348
 30
0.0
 40
0.9999999999999858
  0
CIRCLE
  5
1CB
330
1F
100
AcDbEntity
  8
0
  6
Continuous
 62
     7
370
    15
100
AcDbCircle
 10
91.8754436332
 20
321.3501466348
 30
0.0
 40
1.0
  0
CIRCLE
  5
1CC
330
1F
100
AcDbEntity
  8
0
  6
Continuous
 62
     7
370
    15
100
AcDbCircle
 10
81.8754436332
 20
321.3501466348
 30
0.0
 40
1.0
  0
CIRCLE
  5
1CD
330
1F
100
AcDbEntity
  8
0
  6
Continuous
 62
     7
370
    15
100
AcDbCircle
 10
71.8754436332
 20
321.3501466348
 30
0.0
 40
0.9999999999999716
  0
CIRCLE
  5
1CE
330
1F
100
AcDbEntity
  8
0
  6
Continuous
 62
     7
370
    15
100
AcDbCircle
 10
61.8754436332
 20
321.3501466348
 30
0.0
 40
0.9999999999999929
  0
CIRCLE
  5
1CF
330
1F
100
AcDbEntity
  8
0
  6
Continuous
 62
     7
370
    15
100
AcDbCircle
 10
51.8754436332
 20
321.3501466348
 30
0.0
 40
0.9999999999999858
  0
CIRCLE
  5
1D0
330
1F
100
AcDbEntity
  8
0
  6
Continuous
 62
     7
370
    15
100
AcDbCircle
 10
41.8754436332
 20
321.3501466348
 30
0.0
 40
0.9999999999999858
  0
CIRCLE
  5
1D1
330
1F
100
AcDbEntity
  8
0
  6
Continuous
 62
     7
370
    15
100
AcDbCircle
 10
31.8754436332
 20
321.3501466348
 30
0.0
 40
0.9999999999999893
  0
CIRCLE
  5
1D2
330
1F
100
AcDbEntity
  8
0
  6
Continuous
 62
     7
370
    15
100
AcDbCircle
 10
191.8754436332
 20
311.3501466348
 30
0.0
 40
1.0
  0
CIRCLE
  5
1D3
330
1F
100
AcDbEntity
  8
0
  6
Continuous
 62
     7
370
    15
100
AcDbCircle
 10
181.8754436332
 20
311.3501466348
 30
0.0
 40
1.0
  0
CIRCLE
  5
1D4
330
1F
100
AcDbEntity
  8
0
  6
Continuous
 62
     7
370
    15
100
AcDbCircle
 10
171.8754436332
 20
311.3501466348
 30
0.0
 40
1.0
  0
CIRCLE
  5
1D5
330
1F
100
AcDbEntity
  8
0
  6
Continuous
 62
     7
370
    15
100
AcDbCircle
 10
161.8754436332
 20
311.3501466348
 30
0.0
 40
0.9999999999999716
  0
CIRCLE
  5
1D6
330
1F
100
AcDbEntity
  8
0
  6
Continuous
 62
     7
370
    15
100
AcDbCircle
 10
151.8754436332
 20
311.3501466348
 30
0.0
 40
1.0
  0
CIRCLE
  5
1D7
330
1F
100
AcDbEntity
  8
0
  6
Continuous
 62
     7
370
    15
100
AcDbCircle
 10
141.8754436332
 20
311.3501466348
 30
0.0
 40
0.9999999999999716
  0
CIRCLE
  5
1D8
330
1F
100
AcDbEntity
  8
0
  6
Continuous
 62
     7
370
    15
100
AcDbCircle
 10
131.8754436332
 20
311.3501466348
 30
0.0
 40
1.0
  0
CIRCLE
  5
1D9
330
1F
100
AcDbEntity
  8
0
  6
Continuous
 62
     7
370
    15
100
AcDbCircle
 10
121.8754436332
 20
311.3501466348
 30
0.0
 40
0.9999999999999858
  0
CIRCLE
  5
1DA
330
1F
100
AcDbEntity
  8
0
  6
Continuous
 62
     7
370
    15
100
AcDbCircle
 10
111.8754436332
 20
311.3501466348
 30
0.0
 40
0.9999999999999858
  0
CIRCLE
  5
1DB
330
1F
100
AcDbEntity
  8
0
  6
Continuous
 62
     7
370
    15
100
AcDbCircle
 10
101.8754436332
 20
311.3501466348
 30
0.0
 40
0.9999999999999858
  0
CIRCLE
  5
1DC
330
1F
100
AcDbEntity
  8
0
  6
Continuous
 62
     7
370
    15
100
AcDbCircle
 10
91.8754436332
 20
311.3501466348
 30
0.0
 40
1.0
  0
CIRCLE
  5
1DD
330
1F
100
AcDbEntity
  8
0
  6
Continuous
 62
     7
370
    15
100
AcDbCircle
 10
81.8754436332
 20
311.3501466348
 30
0.0
 40
1.0
  0
CIRCLE
  5
1DE
330
1F
100
AcDbEntity
  8
0
  6
Continuous
 62
     7
370
    15
100
AcDbCircle
 10
71.8754436332
 20
311.3501466348
 30
0.0
 40
0.9999999999999716
  0
CIRCLE
  5
1DF
330
1F
100
AcDbEntity
  8
0
  6
Continuous
 62
     7
370
    15
100
AcDbCircle
 10
61.8754436332
 20
311.3501466348
 30
0.0
 40
0.9999999999999929
  0
CIRCLE
  5
1E0
330
1F
100
AcDbEntity
  8
0
  6
Continuous
 62
     7
370
    15
100
AcDbCircle
 10
51.8754436332
 20
311.3501466348
 30
0.0
 40
0.9999999999999858
  0
CIRCLE
  5
1E1
330
1F
100
AcDbEntity
  8
0
  6
Continuous
 62
     7
370
    15
100
AcDbCircle
 10
41.8754436332
 20
311.3501466348
 30
0.0
 40
0.9999999999999858
  0
CIRCLE
  5
1E2
330
1F
100
AcDbEntity
  8
0
  6
Continuous
 62
     7
370
    15
100
AcDbCircle
 10
31.8754436332
 20
311.3501466348
 30
0.0
 40
0.9999999999999893
  0
CIRCLE
  5
1E3
330
1F
100
AcDbEntity
  8
0
  6
Continuous
 62
     7
370
    15
100
AcDbCircle
 10
191.8754436332
 20
301.3501466348
 30
0.0
 40
1.0
  0
CIRCLE
  5
1E4
330
1F
100
AcDbEntity
  8
0
  6
Continuous
 62
     7
370
    15
100
AcDbCircle
 10
181.8754436332
 20
301.3501466348
 30
0.0
 40
1.0
  0
CIRCLE
  5
1E5
330
1F
100
AcDbEntity
  8
0
  6
Continuous
 62
     7
370
    15
100
AcDbCircle
 10
171.8754436332
 20
301.3501466348
 30
0.0
 40
1.0
  0
CIRCLE
  5
1E6
330
1F
100
AcDbEntity
  8
0
  6
Continuous
 62
     7
370
    15
100
AcDbCircle
 10
161.8754436332
 20
301.3501466348
 30
0.0
 40
0.9999999999999716
  0
CIRCLE
  5
1E7
330
1F
100
AcDbEntity
  8
0
  6
Continuous
 62
     7
370
    15
100
AcDbCircle
 10
151.8754436332
 20
301.3501466348
 30
0.0
 40
1.0
  0
CIRCLE
  5
1E8
330
1F
100
AcDbEntity
  8
0
  6
Continuous
 62
     7
370
    15
100
AcDbCircle
 10
141.8754436332
 20
301.3501466348
 30
0.0
 40
0.9999999999999716
  0
CIRCLE
  5
1E9
330
1F
100
AcDbEntity
  8
0
  6
Continuous
 62
     7
370
    15
100
AcDbCircle
 10
131.8754436332
 20
301.3501466348
 30
0.0
 40
1.0
  0
CIRCLE
  5
1EA
330
1F
100
AcDbEntity
  8
0
  6
Continuous
 62
     7
370
    15
100
AcDbCircle
 10
121.8754436332
 20
301.3501466348
 30
0.0
 40
0.9999999999999858
  0
CIRCLE
  5
1EB
330
1F
100
AcDbEntity
  8
0
  6
Continuous
 62
     7
370
    15
100
AcDbCircle
 10
111.8754436332
 20
301.3501466348
 30
0.0
 40
0.9999999999999858
  0
CIRCLE
  5
1EC
330
1F
100
AcDbEntity
  8
0
  6
Continuous
 62
     7
370
    15
100
AcDbCircle
 10
101.8754436332
 20
301.3501466348
 30
0.0
 40
0.9999999999999858
  0
CIRCLE
  5
1ED
330
1F
100
AcDbEntity
  8
0
  6
Continuous
 62
     7
370
    15
100
AcDbCircle
 10
91.8754436332
 20
301.3501466348
 30
0.0
 40
1.0
  0
CIRCLE
  5
1EE
330
1F
100
AcDbEntity
  8
0
  6
Continuous
 62
     7
370
    15
100
AcDbCircle
 10
81.8754436332
 20
301.3501466348
 30
0.0
 40
1.0
  0
CIRCLE
  5
1EF
330
1F
100
AcDbEntity
  8
0
  6
Continuous
 62
     7
370
    15
100
AcDbCircle
 10
71.8754436332
 20
301.3501466348
 30
0.0
 40
0.9999999999999716
  0
CIRCLE
  5
1F0
330
1F
100
AcDbEntity
  8
0
  6
Continuous
 62
     7
370
    15
100
AcDbCircle
 10
61.8754436332
 20
301.3501466348
 30
0.0
 40
0.9999999999999929
  0
CIRCLE
  5
1F1
330
1F
100
AcDbEntity
  8
0
  6
Continuous
 62
     7
370
    15
100
AcDbCircle
 10
51.8754436332
 20
301.3501466348
 30
0.0
 40
0.9999999999999858
  0
CIRCLE
  5
1F2
330
1F
100
AcDbEntity
  8
0
  6
Continuous
 62
     7
370
    15
100
AcDbCircle
 10
41.8754436332
 20
301.3501466348
 30
0.0
 40
0.9999999999999858
  0
LINE
  5
1F3
330
1F
100
AcDbEntity
  8
0
  6
Continuous
 62
     7
370
    15
100
AcDbLine
 10
156.8754454213
 20
358.8501481249
 30
0.0
 11
156.8754454213
 21
355.8501457705
 31
0.0
  0
LINE
  5
1F4
330
1F
100
AcDbEntity
  8
0
  6
Continuous
 62
     7
370
    15
100
AcDbLine
 10
156.8754454213
 20
355.8501457705
 30
0.0
 11
186.8754466134
 21
355.8501457705
 31
0.0
  0
LINE
  5
1F5
330
1F
100
AcDbEntity
  8
0
  6
Continuous
 62
     7
370
    15
100
AcDbLine
 10
186.8754466134
 20
355.8501457705
 30
0.0
 11
186.8754466134
 21
358.8501481249
 31
0.0
  0
LINE
  5
1F6
330
1F
100
AcDbEntity
  8
0
  6
Continuous
 62
     7
370
    15
100
AcDbLine
 10
208.8754464942
 20
358.8501481249
 30
0.0
 11
186.8754466134
 21
358.8501481249
 31
0.0
  0
LINE
  5
1F7
330
1F
100
AcDbEntity
  8
0
  6
Continuous
 62
     7
370
    15
100
AcDbLine
 10
208.8754464942
 20
358.8501481249
 30
0.0
 11
208.8754464942
 21
333.850146821
 31
0.0
  0
LINE
  5
1F8
330
1F
100
AcDbEntity
  8
0
  6
Continuous
 62
     7
370
    15
100
AcDbLine
 10
208.8754464942
 20
333.850146821
 30
0.0
 11
211.8754451233
 21
333.850146821
 31
0.0
  0
LINE
  5
1F9
330
1F
100
AcDbEntity
  8
0
  6
Continuous
 62
     7
370
    15
100
AcDbLine
 10
211.8754451233
 20
308.8501464485
 30
0.0
 11
211.8754451233
 21
333.850146821
 31
0.0
  0
LINE
  5
1FA
330
1F
100
AcDbEntity
  8
0
  6
Continuous
 62
     7
370
    15
100
AcDbLine
 10
211.8754451233
 20
308.8501464485
 30
0.0
 11
208.8754464942
 21
308.8501464485
 31
0.0
  0
LINE
  5
1FB
330
1F
100
AcDbEntity
  8
0
  6
Continuous
 62
     7
370
    15
100
AcDbLine
 10
208.8754464942
 20
308.8501464485
 30
0.0
 11
208.8754464942
 21
283.8501451447
 31
0.0
  0
LINE
  5
1FC
330
1F
100
AcDbEntity
  8
0
  6
Continuous
 62
     7
370
    15
100
AcDbLine
 10
186.8754466134
 20
283.8501451447
 30
0.0
 11
208.8754464942
 21
283.8501451447
 31
0.0
  0
LINE
  5
1FD
330
1F
100
AcDbEntity
  8
0
  6
Continuous
 62
     7
370
    15
100
AcDbLine
 10
186.8754466134
 20
283.8501451447
 30
0.0
 11
186.8754466134
 21
286.850147499
 31
0.0
  0
LINE
  5
1FE
330
1F
100
AcDbEntity
  8
0
  6
Continuous
 62
     7
370
    15
100
AcDbLine
 10
186.8754466134
 20
286.850147499
 30
0.0
 11
156.8754454213
 21
286.850147499
 31
0.0
  0
LINE
  5
1FF
330
1F
100
AcDbEntity
  8
0
  6
Continuous
 62
     7
370
    15
100
AcDbLine
 10
156.8754454213
 20
286.850147499
 30
0.0
 11
156.8754454213
 21
283.8501451447
 31
0.0
  0
LINE
  5
200
330
1F
100
AcDbEntity
  8
0
  6
Continuous
 62
     7
370
    15
100
AcDbLine
 10
126.8754432979
 20
283.8501451447
 30
0.0
 11
156.8754454213
 21
283.8501451447
 31
0.0
  0
LINE
  5
201
330
1F
100
AcDbEntity
  8
0
  6
Continuous
 62
     7
370
    15
100
AcDbLine
 10
126.8754432979
 20
283.8501451447
 30
0.0
 11
126.8754432979
 21
286.850147499
 31
0.0
  0
LINE
  5
202
330
1F
100
AcDbEntity
  8
0
  6
Continuous
 62
     7
370
    15
100
AcDbLine
 10
126.8754432979
 20
286.850147499
 30
0.0
 11
96.8754439685
 21
286.850147499
 31
0.0
  0
LINE
  5
203
330
1F
100
AcDbEntity
  8
0
  6
Continuous
 62
     7
370
    15
100
AcDbLine
 10
96.8754439685
 20
286.850147499
 30
0.0
 11
96.8754439685
 21
283.8501451447
 31
0.0
  0
LINE
  5
204
330
1F
100
AcDbEntity
  8
0
  6
Continuous
 62
     7
370
    15
100
AcDbLine
 10
66.875441845
 20
283.8501451447
 30
0.0
 11
96.8754439685
 21
283.8501451447
 31
0.0
  0
LINE
  5
205
330
1F
100
AcDbEntity
  8
0
  6
Continuous
 62
     7
370
    15
100
AcDbLine
 10
66.875441845
 20
283.8501451447
 30
0.0
 11
66.875441845
 21
286.850147499
 31
0.0
  0
LINE
  5
206
330
1F
100
AcDbEntity
  8
0
  6
Continuous
 62
     7
370
    15
100
AcDbLine
 10
66.875441845
 20
286.850147499
 30
0.0
 11
36.8754406529
 21
286.850147499
 31
0.0
  0
LINE
  5
207
330
1F
100
AcDbEntity
  8
0
  6
Continuous
 62
     7
370
    15
100
AcDbLine
 10
36.8754406529
 20
286.850147499
 30
0.0
 11
36.8754406529
 21
283.8501451447
 31
0.0
  0
LINE
  5
208
330
1F
100
AcDbEntity
  8
0
  6
Continuous
 62
     7
370
    15
100
AcDbLine
 10
14.8754407722
 20
283.8501451447
 30
0.0
 11
36.8754406529
 21
283.8501451447
 31
0.0
  0
LINE
  5
209
330
1F
100
AcDbEntity
  8
0
  6
Continuous
 62
     7
370
    15
100
AcDbLine
 10
14.8754407722
 20
283.8501451447
 30
0.0
 11
14.8754407722
 21
308.8501464485
 31
0.0
  0
LINE
  5
20A
330
1F
100
AcDbEntity
  8
0
  6
Continuous
 62
     7
370
    15
100
AcDbLine
 10
14.8754407722
 20
308.8501464485
 30
0.0
 11
11.8754421431
 21
308.8501464485
 31
0.0
  0
LINE
  5
20B
330
1F
100
AcDbEntity
  8
0
  6
Continuous
 62
     7
370
    15
100
AcDbLine
 10
11.8754421431
 20
333.850146821
 30
0.0
 11
11.8754421431
 21
308.8501464485
 31
0.0
  0
LINE
  5
20C
330
1F
100
AcDbEntity
  8
0
  6
Continuous
 62
     7
370
    15
100
AcDbLine
 10
11.8754421431
 20
333.850146821
 30
0.0
 11
14.8754407722
 21
333.850146821
 31
0.0
  0
LINE
  5
20D
330
1F
100
AcDbEntity
  8
0
  6
Continuous
 62
     7
370
    15
100
AcDbLine
 10
14.8754407722
 20
333.850146821
 30
0.0
 11
14.8754407722
 21
358.8501481249
 31
0.0
  0
LINE
  5
20E
330
1F
100
AcDbEntity
  8
0
  6
Continuous
 62
     7
370
    15
100
AcDbLine
 10
36.8754406529
 20
358.8501481249
 30
0.0
 11
14.8754407722
 21
358.8501481249
 31
0.0
  0
LINE
  5
20F
330
1F
100
AcDbEntity
  8
0
  6
Continuous
 62
     7
370
    15
100
AcDbLine
 10
36.8754406529
 20
358.8501481249
 30
0.0
 11
36.8754406529
 21
355.8501457705
 31
0.0
  0
LINE
  5
210
330
1F
100
AcDbEntity
  8
0
  6
Continuous
 62
     7
370
    15
100
AcDbLine
 10
36.8754406529
 20
355.8501457705
 30
0.0
 11
66.875441845
 21
355.8501457705
 31
0.0
  0
LINE
  5
211
330
1F
100
AcDbEntity
  8
0
  6
Continuous
 62
     7
370
    15
100
AcDbLine
 10
66.875441845
 20
355.8501457705
 30
0.0
 11
66.875441845
 21
358.8501481249
 31
0.0
  0
LINE
  5
212
330
1F
100
AcDbEntity
  8
0
  6
Continuous
 62
     7
370
    15
100
AcDbLine
 10
96.8754439685
 20
358.8501481249
 30
0.0
 11
66.875441845
 21
358.8501481249
 31
0.0
  0
LINE
  5
213
330
1F
100
AcDbEntity
  8
0
  6
Continuous
 62
     7
370
    15
100
AcDbLine
 10
96.8754439685
 20
358.8501481249
 30
0.0
 11
96.8754439685
 21
355.8501457705
 31
0.0
  0
LINE
  5
214
330
1F
100
AcDbEntity
  8
0
  6
Continuous
 62
     7
370
    15
100
AcDbLine
 10
96.8754439685
 20
355.8501457705
 30
0.0
 11
126.8754432979
 21
355.8501457705
 31
0.0
  0
LINE
  5
215
330
1F
100
AcDbEntity
  8
0
  6
Continuous
 62
     7
370
    15
100
AcDbLine
 10
126.8754432979
 20
355.8501457705
 30
0.0
 11
126.8754432979
 21
358.8501481249
 31
0.0
  0
LINE
  5
216
330
1F
100
AcDbEntity
  8
0
  6
Continuous
 62
     7
370
    15
100
AcDbLine
 10
156.8754454213
 20
358.8501481249
 30
0.0
 11
126.8754432979
 21
358.8501481249
 31
0.0
  0
CIRCLE
  5
217
330
1F
100
AcDbEntity
  8
0
  6
Continuous
 62
     7
370
    15
100
AcDbCircle
 10
21.8754436332
 20
291.3501466348
 30
0.0
 40
0.9999999999999858
  0
CIRCLE
  5
218
330
1F
100
AcDbEntity
  8
0
  6
Continuous
 62
     7
370
    15
100
AcDbCircle
 10
31.8754436332
 20
301.3501466348
 30
0.0
 40
0.9999999999999893
  0
CIRCLE
  5
219
330
1F
100
AcDbEntity
  8
0
  6
Continuous
 62
     7
370
    15
100
AcDbCircle
 10
31.8754436332
 20
291.3501466348
 30
0.0
 40
0.9999999999999893
  0
CIRCLE
  5
21A
330
1F
100
AcDbEntity
  8
0
  6
Continuous
 62
     7
370
    15
100
AcDbCircle
 10
161.8754436332
 20
341.3501466348
 30
0.0
 40
0.9999999999999716
  0
CIRCLE
  5
21B
330
1F
100
AcDbEntity
  8
0
  6
Continuous
 62
     7
370
    15
100
AcDbCircle
 10
151.8754436332
 20
341.3501466348
 30
0.0
 40
1.0
  0
CIRCLE
  5
21C
330
1F
100
AcDbEntity
  8
0
  6
Continuous
 62
     7
370
    15
100
AcDbCircle
 10
141.8754436332
 20
341.3501466348
 30
0.0
 40
0.9999999999999716
  0
CIRCLE
  5
21D
330
1F
100
AcDbEntity
  8
0
  6
Continuous
 62
     7
370
    15
100
AcDbCircle
 10
131.8754436332
 20
341.3501466348
 30
0.0
 40
1.0
  0
CIRCLE
  5
21E
330
1F
100
AcDbEntity
  8
0
  6
Continuous
 62
     7
370
    15
100
AcDbCircle
 10
121.8754436332
 20
341.3501466348
 30
0.0
 40
0.9999999999999858
  0
CIRCLE
  5
21F
330
1F
100
AcDbEntity
  8
0
  6
Continuous
 62
     7
370
    15
100
AcDbCircle
 10
111.8754436332
 20
341.3501466348
 30
0.0
 40
0.9999999999999858
  0
CIRCLE
  5
220
330
1F
100
AcDbEntity
  8
0
  6
Continuous
 62
     7
370
    15
100
AcDbCircle
 10
101.8754436332
 20
341.3501466348
 30
0.0
 40
0.9999999999999858
  0
CIRCLE
  5
221
330
1F
100
AcDbEntity
  8
0
  6
Continuous
 62
     7
370
    15
100
AcDbCircle
 10
91.8754436332
 20
341.3501466348
 30
0.0
 40
1.0
  0
CIRCLE
  5
222
330
1F
100
AcDbEntity
  8
0
  6
Continuous
 62
     7
370
    15
100
AcDbCircle
 10
81.8754436332
 20
341.3501466348
 30
0.0
 40
1.0
  0
CIRCLE
  5
223
330
1F
100
AcDbEntity
  8
0
  6
Continuous
 62
     7
370
    15
100
AcDbCircle
 10
71.8754436332
 20
341.3501466348
 30
0.0
 40
0.9999999999999716
  0
CIRCLE
  5
224
330
1F
100
AcDbEntity
  8
0
  6
Continuous
 62
     7
370
    15
100
AcDbCircle
 10
192.0975350506
 20
270.1502794046
 30
0.0
 40
1.0
  0
CIRCLE
  5
225
330
1F
100
AcDbEntity
  8
0
  6
Continuous
 62
     7
370
    15
100
AcDbCircle
 10
182.0975350506
 20
270.1502794046
 30
0.0
 40
1.0
  0
CIRCLE
  5
226
330
1F
100
AcDbEntity
  8
0
  6
Continuous
 62
     7
370
    15
100
AcDbCircle
 10
172.0975350506
 20
270.1502794046
 30
0.0
 40
1.000000000000028
  0
CIRCLE
  5
227
330
1F
100
AcDbEntity
  8
0
  6
Continuous
 62
     7
370
    15
100
AcDbCircle
 10
162.0975350506
 20
270.1502794046
 30
0.0
 40
0.9999999999999716
  0
CIRCLE
  5
228
330
1F
100
AcDbEntity
  8
0
  6
Continuous
 62
     7
370
    15
100
AcDbCircle
 10
152.0975350506
 20
270.1502794046
 30
0.0
 40
1.0
  0
CIRCLE
  5
229
330
1F
100
AcDbEntity
  8
0
  6
Continuous
 62
     7
370
    15
100
AcDbCircle
 10
142.0975350506
 20
270.1502794046
 30
0.0
 40
1.0
  0
CIRCLE
  5
22A
330
1F
100
AcDbEntity
  8
0
  6
Continuous
 62
     7
370
    15
100
AcDbCircle
 10
132.0975350506
 20
270.1502794046
 30
0.0
 40
1.0
  0
CIRCLE
  5
22B
330
1F
100
AcDbEntity
  8
0
  6
Continuous
 62
     7
370
    15
100
AcDbCircle
 10
122.0975350506
 20
270.1502794046
 30
0.0
 40
0.9999999999999858
  0
CIRCLE
  5
22C
330
1F
100
AcDbEntity
  8
0
  6
Continuous
 62
     7
370
    15
100
AcDbCircle
 10
112.0975350506
 20
270.1502794046
 30
0.0
 40
0.9999999999999858
  0
CIRCLE
  5
22D
330
1F
100
AcDbEntity
  8
0
  6
Continuous
 62
     7
370
    15
100
AcDbCircle
 10
102.0975350506
 20
270.1502794046
 30
0.0
 40
1.0
  0
CIRCLE
  5
22E
330
1F
100
AcDbEntity
  8
0
  6
Continuous
 62
     7
370
    15
100
AcDbCircle
 10
92.0975350506
 20
270.1502794046
 30
0.0
 40
0.9999999999999716
  0
CIRCLE
  5
22F
330
1F
100
AcDbEntity
  8
0
  6
Continuous
 62
     7
370
    15
100
AcDbCircle
 10
82.0975350506
 20
270.1502794046
 30
0.0
 40
0.9999999999999716
  0
CIRCLE
  5
230
330
1F
100
AcDbEntity
  8
0
  6
Continuous
 62
     7
370
    15
100
AcDbCircle
 10
72.0975350506
 20
270.1502794046
 30
0.0
 40
1.0
  0
CIRCLE
  5
231
330
1F
100
AcDbEntity
  8
0
  6
Continuous
 62
     7
370
    15
100
AcDbCircle
 10
62.0975350506
 20
270.1502794046
 30
0.0
 40
0.9999999999999858
  0
CIRCLE
  5
232
330
1F
100
AcDbEntity
  8
0
  6
Continuous
 62
     7
370
    15
100
AcDbCircle
 10
52.0975350506
 20
270.1502794046
 30
0.0
 40
0.9999999999999929
  0
CIRCLE
  5
233
330
1F
100
AcDbEntity
  8
0
  6
Continuous
 62
     7
370
    15
100
AcDbCircle
 10
42.0975350506
 20
270.1502794046
 30
0.0
 40
0.9999999999999858
  0
LINE
  5
234
330
1F
100
AcDbEntity
  8
0
  6
Continuous
 62
     7
370
    15
100
AcDbLine
 10
127.0975347153
 20
277.650279237
 30
0.0
 11
127.0975347153
 21
274.6502792109
 31
0.0
  0
LINE
  5
235
330
1F
100
AcDbEntity
  8
0
  6
Continuous
 62
     7
370
    15
100
AcDbLine
 10
127.0975347153
 20
274.6502792109
 30
0.0
 11
157.0975368387
 21
274.6502792109
 31
0.0
  0
LINE
  5
236
330
1F
100
AcDbEntity
  8
0
  6
Continuous
 62
     7
370
    15
100
AcDbLine
 10
157.0975368387
 20
274.6502792109
 30
0.0
 11
157.0975368387
 21
277.650279237
 31
0.0
  0
LINE
  5
237
330
1F
100
AcDbEntity
  8
0
  6
Continuous
 62
     7
370
    15
100
AcDbLine
 10
187.0975380308
 20
277.650279237
 30
0.0
 11
157.0975368387
 21
277.650279237
 31
0.0
  0
LINE
  5
238
330
1F
100
AcDbEntity
  8
0
  6
Continuous
 62
     7
370
    15
100
AcDbLine
 10
187.0975380308
 20
277.650279237
 30
0.0
 11
187.0975380308
 21
274.6502792109
 31
0.0
  0
LINE
  5
239
330
1F
100
AcDbEntity
  8
0
  6
Continuous
 62
     7
370
    15
100
AcDbLine
 10
187.0975380308
 20
274.6502792109
 30
0.0
 11
209.0975379116
 21
274.6502792109
 31
0.0
  0
LINE
  5
23A
330
1F
100
AcDbEntity
  8
0
  6
Continuous
 62
     7
370
    15
100
AcDbLine
 10
212.0975365407
 20
274.1502795946
 30
0.0
 11
209.0975379116
 21
274.1502795946
 31
0.0
  0
LINE
  5
23B
330
1F
100
AcDbEntity
  8
0
  6
Continuous
 62
     7
370
    15
100
AcDbLine
 10
209.0975379116
 20
265.6502795983
 30
0.0
 11
209.0975379116
 21
266.1502792146
 31
0.0
  0
LINE
  5
23C
330
1F
100
AcDbEntity
  8
0
  6
Continuous
 62
     7
370
    15
100
AcDbLine
 10
209.0975379116
 20
265.6502795983
 30
0.0
 11
187.0975380308
 21
265.6502795983
 31
0.0
  0
LINE
  5
23D
330
1F
100
AcDbEntity
  8
0
  6
Continuous
 62
     7
370
    15
100
AcDbLine
 10
187.0975380308
 20
265.6502795983
 30
0.0
 11
187.0975380308
 21
262.6502795722
 31
0.0
  0
LINE
  5
23E
330
1F
100
AcDbEntity
  8
0
  6
Continuous
 62
     7
370
    15
100
AcDbLine
 10
157.0975368387
 20
262.6502795722
 30
0.0
 11
187.0975380308
 21
262.6502795722
 31
0.0
  0
LINE
  5
23F
330
1F
100
AcDbEntity
  8
0
  6
Continuous
 62
     7
370
    15
100
AcDbLine
 10
157.0975368387
 20
262.6502795722
 30
0.0
 11
157.0975368387
 21
265.6502795983
 31
0.0
  0
LINE
  5
240
330
1F
100
AcDbEntity
  8
0
  6
Continuous
 62
     7
370
    15
100
AcDbLine
 10
157.0975368387
 20
265.6502795983
 30
0.0
 11
127.0975347153
 21
265.6502795983
 31
0.0
  0
LINE
  5
241
330
1F
100
AcDbEntity
  8
0
  6
Continuous
 62
     7
370
    15
100
AcDbLine
 10
127.0975347153
 20
265.6502795983
 30
0.0
 11
127.0975347153
 21
262.6502795722
 31
0.0
  0
LINE
  5
242
330
1F
100
AcDbEntity
  8
0
  6
Continuous
 62
     7
370
    15
100
AcDbLine
 10
97.0975353859
 20
262.6502795722
 30
0.0
 11
127.0975347153
 21
262.6502795722
 31
0.0
  0
LINE
  5
243
330
1F
100
AcDbEntity
  8
0
  6
Continuous
 62
     7
370
    15
100
AcDbLine
 10
97.0975353859
 20
262.6502795722
 30
0.0
 11
97.0975353859
 21
265.6502795983
 31
0.0
  0
LINE
  5
244
330
1F
100
AcDbEntity
  8
0
  6
Continuous
 62
     7
370
    15
100
AcDbLine
 10
97.0975353859
 20
265.6502795983
 30
0.0
 11
67.0975332624
 21
265.6502795983
 31
0.0
  0
LINE
  5
245
330
1F
100
AcDbEntity
  8
0
  6
Continuous
 62
     7
370
    15
100
AcDbLine
 10
67.0975332624
 20
265.6502795983
 30
0.0
 11
67.0975332624
 21
262.6502795722
 31
0.0
  0
LINE
  5
246
330
1F
100
AcDbEntity
  8
0
  6
Continuous
 62
     7
370
    15
100
AcDbLine
 10
37.0975320703
 20
262.6502795722
 30
0.0
 11
67.0975332624
 21
262.6502795722
 31
0.0
  0
LINE
  5
247
330
1F
100
AcDbEntity
  8
0
  6
Continuous
 62
     7
370
    15
100
AcDbLine
 10
37.0975320703
 20
262.6502795722
 30
0.0
 11
37.0975320703
 21
265.6502795983
 31
0.0
  0
LINE
  5
248
330
1F
100
AcDbEntity
  8
0
  6
Continuous
 62
     7
370
    15
100
AcDbLine
 10
37.0975320703
 20
265.6502795983
 30
0.0
 11
15.0975321896
 21
265.6502795983
 31
0.0
  0
LINE
  5
249
330
1F
100
AcDbEntity
  8
0
  6
Continuous
 62
     7
370
    15
100
AcDbLine
 10
12.0975335605
 20
266.1502792146
 30
0.0
 11
15.0975321896
 21
266.1502792146
 31
0.0
  0
LINE
  5
24A
330
1F
100
AcDbEntity
  8
0
  6
Continuous
 62
     7
370
    15
100
AcDbLine
 10
15.0975321896
 20
274.6502792109
 30
0.0
 11
37.0975320703
 21
274.6502792109
 31
0.0
  0
LINE
  5
24B
330
1F
100
AcDbEntity
  8
0
  6
Continuous
 62
     7
370
    15
100
AcDbLine
 10
37.0975320703
 20
274.6502792109
 30
0.0
 11
37.0975320703
 21
277.650279237
 31
0.0
  0
LINE
  5
24C
330
1F
100
AcDbEntity
  8
0
  6
Continuous
 62
     7
370
    15
100
AcDbLine
 10
67.0975332624
 20
277.650279237
 30
0.0
 11
37.0975320703
 21
277.650279237
 31
0.0
  0
LINE
  5
24D
330
1F
100
AcDbEntity
  8
0
  6
Continuous
 62
     7
370
    15
100
AcDbLine
 10
67.0975332624
 20
277.650279237
 30
0.0
 11
67.0975332624
 21
274.6502792109
 31
0.0
  0
LINE
  5
24E
330
1F
100
AcDbEntity
  8
0
  6
Continuous
 62
     7
370
    15
100
AcDbLine
 10
67.0975332624
 20
274.6502792109
 30
0.0
 11
97.0975353859
 21
274.6502792109
 31
0.0
  0
LINE
  5
24F
330
1F
100
AcDbEntity
  8
0
  6
Continuous
 62
     7
370
    15
100
AcDbLine
 10
97.0975353859
 20
274.6502792109
 30
0.0
 11
97.0975353859
 21
277.650279237
 31
0.0
  0
LINE
  5
250
330
1F
100
AcDbEntity
  8
0
  6
Continuous
 62
     7
370
    15
100
AcDbLine
 10
127.0975347153
 20
277.650279237
 30
0.0
 11
97.0975353859
 21
277.650279237
 31
0.0
  0
CIRCLE
  5
251
330
1F
100
AcDbEntity
  8
0
  6
Continuous
 62
     7
370
    15
100
AcDbCircle
 10
22.0975350506
 20
270.1502794046
 30
0.0
 40
0.9999999999999893
  0
CIRCLE
  5
252
330
1F
100
AcDbEntity
  8
0
  6
Continuous
 62
     7
370
    15
100
AcDbCircle
 10
32.0975350506
 20
270.1502794046
 30
0.0
 40
0.9999999999999858
  0
LINE
  5
253
330
1F
100
AcDbEntity
  8
0
  6
Continuous
 62
     7
370
    15
100
AcDbLine
 10
209.0975379116
 20
274.1502795946
 30
0.0
 11
209.0975379116
 21
274.6502792109
 31
0.0
  0
LINE
  5
254
330
1F
100
AcDbEntity
  8
0
  6
Continuous
 62
     7
370
    15
100
AcDbLine
 10
12.0975335605
 20
274.1502795946
 30
0.0
 11
12.0975335605
 21
266.1502792146
 31
0.0
  0
LINE
  5
255
330
1F
100
AcDbEntity
  8
0
  6
Continuous
 62
     7
370
    15
100
AcDbLine
 10
209.0975379116
 20
266.1502792146
 30
0.0
 11
212.0975365407
 21
266.1502792146
 31
0.0
  0
LINE
  5
256
330
1F
100
AcDbEntity
  8
0
  6
Continuous
 62
     7
370
    15
100
AcDbLine
 10
212.0975365407
 20
266.1502792146
 30
0.0
 11
212.0975365407
 21
274.1502795946
 31
0.0
  0
LINE
  5
257
330
1F
100
AcDbEntity
  8
0
  6
Continuous
 62
     7
370
    15
100
AcDbLine
 10
15.0975321896
 20
266.1502792146
 30
0.0
 11
15.0975321896
 21
265.6502795983
 31
0.0
  0
LINE
  5
258
330
1F
100
AcDbEntity
  8
0
  6
Continuous
 62
     7
370
    15
100
AcDbLine
 10
15.0975321896
 20
274.6502792109
 30
0.0
 11
15.0975321896
 21
274.1502795946
 31
0.0
  0
LINE
  5
259
330
1F
100
AcDbEntity
  8
0
  6
Continuous
 62
     7
370
    15
100
AcDbLine
 10
15.0975321896
 20
274.1502795946
 30
0.0
 11
12.0975335605
 21
274.1502795946
 31
0.0
  0
CIRCLE
  5
25A
330
1F
100
AcDbEntity
  8
0
  6
Continuous
 62
     7
370
    15
100
AcDbCircle
 10
202.0975350506
 20
270.1502794046
 30
0.0
 40
0.9999999999999716
  0
LINE
  5
25B
330
1F
100
AcDbEntity
  8
0
  6
Continuous
 62
     7
370
    15
100
AcDbLine
 10
140.1987084868
 20
210.1618535293
 30
0.0
 11
165.1987097906
 21
210.1618535293
 31
0.0
  0
LINE
  5
25C
330
1F
100
AcDbEntity
  8
0
  6
Continuous
 62
     7
370
    15
100
AcDbLine
 10
140.1987084868
 20
210.1618535293
 30
0.0
 11
140.1987084868
 21
213.1618535554
 31
0.0
  0
LINE
  5
25D
330
1F
100
AcDbEntity
  8
0
  6
Continuous
 62
     7
370
    15
100
AcDbLine
 10
140.1987084868
 20
213.1618535554
 30
0.0
 11
115.1987081142
 21
213.1618535554
 31
0.0
  0
LINE
  5
25E
330
1F
100
AcDbEntity
  8
0
  6
Continuous
 62
     7
370
    15
100
AcDbLine
 10
115.1987081142
 20
213.1618535554
 30
0.0
 11
115.1987081142
 21
210.1618535293
 31
0.0
  0
LINE
  5
25F
330
1F
100
AcDbEntity
  8
0
  6
Continuous
 62
     7
370
    15
100
AcDbLine
 10
90.1987068104
 20
210.1618535293
 30
0.0
 11
115.1987081142
 21
210.1618535293
 31
0.0
  0
LINE
  5
260
330
1F
100
AcDbEntity
  8
0
  6
Continuous
 62
     7
370
    15
100
AcDbLine
 10
90.1987068104
 20
213.6618531717
 30
0.0
 11
90.1987068104
 21
210.1618535293
 31
0.0
  0
LINE
  5
261
330
1F
100
AcDbEntity
  8
0
  6
Continuous
 62
     7
370
    15
100
AcDbLine
 10
90.1987068104
 20
213.6618531717
 30
0.0
 11
93.1987091648
 21
213.6618531717
 31
0.0
  0
LINE
  5
262
330
1F
100
AcDbEntity
  8
0
  6
Continuous
 62
     7
370
    15
100
AcDbLine
 10
93.1987091648
 20
213.6618531717
 30
0.0
 11
93.1987091648
 21
221.6618535517
 31
0.0
  0
LINE
  5
263
330
1F
100
AcDbEntity
  8
0
  6
Continuous
 62
     7
370
    15
100
AcDbLine
 10
93.1987091648
 20
221.6618535517
 30
0.0
 11
90.1987068104
 21
221.6618535517
 31
0.0
  0
LINE
  5
264
330
1F
100
AcDbEntity
  8
0
  6
Continuous
 62
     7
370
    15
100
AcDbLine
 10
90.1987068104
 20
225.161853194
 30
0.0
 11
90.1987068104
 21
221.6618535517
 31
0.0
  0
LINE
  5
265
330
1F
100
AcDbEntity
  8
0
  6
Continuous
 62
     7
370
    15
100
AcDbLine
 10
115.1987081142
 20
225.161853194
 30
0.0
 11
90.1987068104
 21
225.161853194
 31
0.0
  0
LINE
  5
266
330
1F
100
AcDbEntity
  8
0
  6
Continuous
 62
     7
370
    15
100
AcDbLine
 10
115.1987081142
 20
225.161853194
 30
0.0
 11
115.1987081142
 21
222.161853168
 31
0.0
  0
LINE
  5
267
330
1F
100
AcDbEntity
  8
0
  6
Continuous
 62
     7
370
    15
100
AcDbLine
 10
115.1987081142
 20
222.161853168
 30
0.0
 11
140.1987084868
 21
222.161853168
 31
0.0
  0
LINE
  5
268
330
1F
100
AcDbEntity
  8
0
  6
Continuous
 62
     7
370
    15
100
AcDbLine
 10
140.1987084868
 20
222.161853168
 30
0.0
 11
140.1987084868
 21
225.161853194
 31
0.0
  0
LINE
  5
269
330
1F
100
AcDbEntity
  8
0
  6
Continuous
 62
     7
370
    15
100
AcDbLine
 10
165.1987097906
 20
225.161853194
 30
0.0
 11
140.1987084868
 21
225.161853194
 31
0.0
  0
LINE
  5
26A
330
1F
100
AcDbEntity
  8
0
  6
Continuous
 62
     7
370
    15
100
AcDbLine
 10
165.1987097906
 20
221.6618535517
 30
0.0
 11
165.1987097906
 21
225.161853194
 31
0.0
  0
LINE
  5
26B
330
1F
100
AcDbEntity
  8
0
  6
Continuous
 62
     7
370
    15
100
AcDbLine
 10
165.1987097906
 20
221.6618535517
 30
0.0
 11
162.1987074362
 21
221.6618535517
 31
0.0
  0
LINE
  5
26C
330
1F
100
AcDbEntity
  8
0
  6
Continuous
 62
     7
370
    15
100
AcDbLine
 10
162.1987074362
 20
221.6618535517
 30
0.0
 11
162.1987074362
 21
213.6618531717
 31
0.0
  0
LINE
  5
26D
330
1F
100
AcDbEntity
  8
0
  6
Continuous
 62
     7
370
    15
100
AcDbLine
 10
162.1987074362
 20
213.6618531717
 30
0.0
 11
165.1987097906
 21
213.6618531717
 31
0.0
  0
LINE
  5
26E
330
1F
100
AcDbEntity
  8
0
  6
Continuous
 62
     7
370
    15
100
AcDbLine
 10
165.1987097906
 20
210.1618535293
 30
0.0
 11
165.1987097906
 21
213.6618531717
 31
0.0
  0
CIRCLE
  5
26F
330
1F
100
AcDbEntity
  8
0
  6
Continuous
 62
     7
370
    15
100
AcDbCircle
 10
127.6987083005
 20
217.6618533617
 30
0.0
 40
0.9999999999999858
  0
CIRCLE
  5
270
330
1F
100
AcDbEntity
  8
0
  6
Continuous
 62
     7
370
    15
100
AcDbCircle
 10
117.6987083005
 20
217.6618533617
 30
0.0
 40
0.9999999999999858
  0
CIRCLE
  5
271
330
1F
100
AcDbEntity
  8
0
  6
Continuous
 62
     7
370
    15
100
AcDbCircle
 10
107.6987083005
 20
217.6618533617
 30
0.0
 40
0.9999999999999716
  0
CIRCLE
  5
272
330
1F
100
AcDbEntity
  8
0
  6
Continuous
 62
     7
370
    15
100
AcDbCircle
 10
97.6987083005
 20
217.6618533617
 30
0.0
 40
0.9999999999999858
  0
CIRCLE
  5
273
330
1F
100
AcDbEntity
  8
0
  6
Continuous
 62
     7
370
    15
100
AcDbCircle
 10
157.6987083005
 20
217.6618533617
 30
0.0
 40
1.0
  0
CIRCLE
  5
274
330
1F
100
AcDbEntity
  8
0
  6
Continuous
 62
     7
370
    15
100
AcDbCircle
 10
147.6987083005
 20
217.6618533617
 30
0.0
 40
1.0
  0
CIRCLE
  5
275
330
1F
100
AcDbEntity
  8
0
  6
Continuous
 62
     7
370
    15
100
AcDbCircle
 10
137.6987083005
 20
217.6618533617
 30
0.0
 40
0.9999999999999716
  0
LINE
  5
276
330
1F
100
AcDbEntity
  8
0
  6
Continuous
 62
     7
370
    15
100
AcDbLine
 10
182.6591654289
 20
189.158265813
 30
0.0
 11
182.6591654289
 21
196.1582650978
 31
0.0
  0
LINE
  5
277
330
1F
100
AcDbEntity
  8
0
  6
Continuous
 62
     7
370
    15
100
AcDbLine
 10
185.6591677833
 20
189.158265813
 30
0.0
 11
182.6591654289
 21
189.158265813
 31
0.0
  0
LINE
  5
278
330
1F
100
AcDbEntity
  8
0
  6
Continuous
 62
     7
370
    15
100
AcDbLine
 10
182.6591654289
 20
179.1582653381
 30
0.0
 11
185.6591677833
 21
179.1582653381
 31
0.0
  0
LINE
  5
279
330
1F
100
AcDbEntity
  8
0
  6
Continuous
 62
     7
370
    15
100
AcDbLine
 10
182.6591654289
 20
172.1582658205
 30
0.0
 11
182.6591654289
 21
179.1582653381
 31
0.0
  0
LINE
  5
27A
330
1F
100
AcDbEntity
  8
0
  6
Continuous
 62
     7
370
    15
100
AcDbLine
 10
174.9091664869
 20
172.1582658205
 30
0.0
 11
182.6591654289
 21
172.1582658205
 31
0.0
  0
LINE
  5
27B
330
1F
100
AcDbEntity
  8
0
  6
Continuous
 62
     7
370
    15
100
AcDbLine
 10
174.9091664869
 20
166.1582657683
 30
0.0
 11
174.9091664869
 21
172.1582658205
 31
0.0
  0
LINE
  5
27C
330
1F
100
AcDbEntity
  8
0
  6
Continuous
 62
     7
370
    15
100
AcDbLine
 10
154.909166934
 20
172.1582658205
 30
0.0
 11
154.909166934
 21
166.1582657683
 31
0.0
  0
LINE
  5
27D
330
1F
100
AcDbEntity
  8
0
  6
Continuous
 62
     7
370
    15
100
AcDbLine
 10
134.909167381
 20
172.1582658205
 30
0.0
 11
154.909166934
 21
172.1582658205
 31
0.0
  0
LINE
  5
27E
330
1F
100
AcDbEntity
  8
0
  6
Continuous
 62
     7
370
    15
100
AcDbLine
 10
134.909167381
 20
166.1582657683
 30
0.0
 11
134.909167381
 21
172.1582658205
 31
0.0
  0
LINE
  5
27F
330
1F
100
AcDbEntity
  8
0
  6
Continuous
 62
     7
370
    15
100
AcDbLine
 10
114.909167828
 20
172.1582658205
 30
0.0
 11
114.909167828
 21
166.1582657683
 31
0.0
  0
LINE
  5
280
330
1F
100
AcDbEntity
  8
0
  6
Continuous
 62
     7
370
    15
100
AcDbLine
 10
107.159168886
 20
172.1582658205
 30
0.0
 11
114.909167828
 21
172.1582658205
 31
0.0
  0
LINE
  5
281
330
1F
100
AcDbEntity
  8
0
  6
Continuous
 62
     7
370
    15
100
AcDbLine
 10
107.159168886
 20
179.1582653381
 30
0.0
 11
107.159168886
 21
172.1582658205
 31
0.0
  0
LINE
  5
282
330
1F
100
AcDbEntity
  8
0
  6
Continuous
 62
     7
370
    15
100
AcDbLine
 10
104.1591665316
 20
179.1582653381
 30
0.0
 11
107.159168886
 21
179.1582653381
 31
0.0
  0
LINE
  5
283
330
1F
100
AcDbEntity
  8
0
  6
Continuous
 62
     7
370
    15
100
AcDbLine
 10
107.159168886
 20
189.158265813
 30
0.0
 11
104.1591665316
 21
189.158265813
 31
0.0
  0
LINE
  5
284
330
1F
100
AcDbEntity
  8
0
  6
Continuous
 62
     7
370
    15
100
AcDbLine
 10
107.159168886
 20
196.1582650978
 30
0.0
 11
107.159168886
 21
189.158265813
 31
0.0
  0
LINE
  5
285
330
1F
100
AcDbEntity
  8
0
  6
Continuous
 62
     7
370
    15
100
AcDbLine
 10
114.909167828
 20
166.1582657683
 30
0.0
 11
134.909167381
 21
166.1582657683
 31
0.0
  0
LINE
  5
286
330
1F
100
AcDbEntity
  8
0
  6
Continuous
 62
     7
370
    15
100
AcDbLine
 10
104.1591665316
 20
189.158265813
 30
0.0
 11
104.1591665316
 21
179.1582653381
 31
0.0
  0
LINE
  5
287
330
1F
100
AcDbEntity
  8
0
  6
Continuous
 62
     7
370
    15
100
AcDbLine
 10
182.6591654289
 20
196.1582650978
 30
0.0
 11
107.159168886
 21
196.1582650978
 31
0.0
  0
LINE
  5
288
330
1F
100
AcDbEntity
  8
0
  6
Continuous
 62
     7
370
    15
100
AcDbLine
 10
185.6591677833
 20
179.1582653381
 30
0.0
 11
185.6591677833
 21
189.158265813
 31
0.0
  0
LINE
  5
289
330
1F
100
AcDbEntity
  8
0
  6
Continuous
 62
     7
370
    15
100
AcDbLine
 10
154.909166934
 20
166.1582657683
 30
0.0
 11
174.9091664869
 21
166.1582657683
 31
0.0
  0
LINE
  5
28A
330
1F
100
AcDbEntity
  8
0
  6
Continuous
 62
     7
370
    15
100
AcDbLine
 10
16.448771314
 20
131.0499873891
 30
0.0
 11
13.4487708223
 21
131.0499873891
 31
0.0
  0
LINE
  5
28B
330
1F
100
AcDbEntity
  8
0
  6
Continuous
 62
     7
370
    15
100
AcDbLine
 10
16.448771314
 20
141.0499878641
 30
0.0
 11
16.448771314
 21
131.0499873891
 31
0.0
  0
LINE
  5
28C
330
1F
100
AcDbEntity
  8
0
  6
Continuous
 62
     7
370
    15
100
AcDbLine
 10
13.4487708223
 20
141.0499878641
 30
0.0
 11
16.448771314
 21
141.0499878641
 31
0.0
  0
LINE
  5
28D
330
1F
100
AcDbEntity
  8
0
  6
Continuous
 62
     7
370
    15
100
AcDbLine
 10
19.1987712991
 20
148.0499873816
 30
0.0
 11
13.4487708223
 21
148.0499873816
 31
0.0
  0
LINE
  5
28E
330
1F
100
AcDbEntity
  8
0
  6
Continuous
 62
     7
370
    15
100
AcDbLine
 10
19.1987712991
 20
154.0499874338
 30
0.0
 11
19.1987712991
 21
148.0499873816
 31
0.0
  0
LINE
  5
28F
330
1F
100
AcDbEntity
  8
0
  6
Continuous
 62
     7
370
    15
100
AcDbLine
 10
29.1987710756
 20
148.0499873816
 30
0.0
 11
29.1987710756
 21
154.0499874338
 31
0.0
  0
LINE
  5
290
330
1F
100
AcDbEntity
  8
0
  6
Continuous
 62
     7
370
    15
100
AcDbLine
 10
34.9487715524
 20
148.0499873816
 30
0.0
 11
29.1987710756
 21
148.0499873816
 31
0.0
  0
LINE
  5
291
330
1F
100
AcDbEntity
  8
0
  6
Continuous
 62
     7
370
    15
100
AcDbLine
 10
31.9487710607
 20
141.0499878641
 30
0.0
 11
34.9487715524
 21
141.0499878641
 31
0.0
  0
LINE
  5
292
330
1F
100
AcDbEntity
  8
0
  6
Continuous
 62
     7
370
    15
100
AcDbLine
 10
31.9487710607
 20
131.0499873891
 30
0.0
 11
31.9487710607
 21
141.0499878641
 31
0.0
  0
LINE
  5
293
330
1F
100
AcDbEntity
  8
0
  6
Continuous
 62
     7
370
    15
100
AcDbLine
 10
34.9487715524
 20
131.0499873891
 30
0.0
 11
31.9487710607
 21
131.0499873891
 31
0.0
  0
LINE
  5
294
330
1F
100
AcDbEntity
  8
0
  6
Continuous
 62
     7
370
    15
100
AcDbLine
 10
13.4487708223
 20
124.0499881043
 30
0.0
 11
34.9487715524
 21
124.0499881043
 31
0.0
  0
LINE
  5
295
330
1F
100
AcDbEntity
  8
0
  6
Continuous
 62
     7
370
    15
100
AcDbLine
 10
13.4487708223
 20
148.0499873816
 30
0.0
 11
13.4487708223
 21
141.0499878641
 31
0.0
  0
LINE
  5
296
330
1F
100
AcDbEntity
  8
0
  6
Continuous
 62
     7
370
    15
100
AcDbLine
 10
29.1987710756
 20
154.0499874338
 30
0.0
 11
19.1987712991
 21
154.0499874338
 31
0.0
  0
LINE
  5
297
330
1F
100
AcDbEntity
  8
0
  6
Continuous
 62
     7
370
    15
100
AcDbLine
 10
34.9487715524
 20
141.0499878641
 30
0.0
 11
34.9487715524
 21
148.0499873816
 31
0.0
  0
LINE
  5
298
330
1F
100
AcDbEntity
  8
0
  6
Continuous
 62
     7
370
    15
100
AcDbLine
 10
13.4487708223
 20
131.0499873891
 30
0.0
 11
13.4487708223
 21
124.0499881043
 31
0.0
  0
LINE
  5
299
330
1F
100
AcDbEntity
  8
0
  6
Continuous
 62
     7
370
    15
100
AcDbLine
 10
34.9487715524
 20
124.0499881043
 30
0.0
 11
34.9487715524
 21
131.0499873891
 31
0.0
  0
ARC
  5
29A
330
1F
100
AcDbEntity
  8
0
  6
Continuous
 62
     7
370
    15
100
AcDbCircle
 10
52.2066958003
 20
145.1785087618
 30
0.0
 40
6.999999999999993
100
AcDbArc
 50
0.0
 51
90.0
  0
ARC
  5
29B
330
1F
100
AcDbEntity
  8
0
  6
Continuous
 62
     7
370
    15
100
AcDbCircle
 10
52.2066958003
 20
129.1785087618
 30
0.0
 40
6.999999999999993
100
AcDbArc
 50
270.0
 51
0.0
  0
LINE
  5
29C
330
1F
100
AcDbEntity
  8
0
  6
Continuous
 62
     7
370
    15
100
AcDbLine
 10
47.2066957482
 20
122.178509097
 30
0.0
 11
52.2066957528
 21
122.178509097
 31
0.0
  0
LINE
  5
29D
330
1F
100
AcDbEntity
  8
0
  6
Continuous
 62
     7
370
    15
100
AcDbLine
 10
47.2066957482
 20
152.1785084265
 30
0.0
 11
47.2066957482
 21
122.178509097
 31
0.0
  0
LINE
  5
29E
330
1F
100
AcDbEntity
  8
0
  6
Continuous
 62
     7
370
    15
100
AcDbLine
 10
52.2066957528
 20
152.1785084265
 30
0.0
 11
47.2066957482
 21
152.1785084265
 31
0.0
  0
LINE
  5
29F
330
1F
100
AcDbEntity
  8
0
  6
Continuous
 62
     7
370
    15
100
AcDbLine
 10
59.2066958525
 20
129.1785083818
 30
0.0
 11
59.2066958525
 21
145.1785091417
 31
0.0
  0
ENDSEC
  0
SECTION
  2
OBJECTS
  0
DICTIONARY
  5
C
330
0
100
AcDbDictionary
281
     1
  3
ACAD_GROUP
350
D
  3
ACAD_LAYOUT
350
1A
  3
ACAD_MLINESTYLE
350
17
  3
ACAD_PLOTSETTINGS
350
19
  3
ACAD_PLOTSTYLENAME
350
E
  0
DICTIONARY
  5
D
102
{ACAD_REACTORS
330
C
102
}
330
C
100
AcDbDictionary
281
     1
  0
DICTIONARY
  5
1A
102
{ACAD_REACTORS
330
C
102
}
330
C
100
AcDbDictionary
281
     1
  3
Layout1
350
1E
  3
Layout2
350
26
  3
Model
350
22
  0
DICTIONARY
  5
17
102
{ACAD_REACTORS
330
C
102
}
330
C
100
AcDbDictionary
281
     1
  3
Standard
350
18
  0
DICTIONARY
  5
19
102
{ACAD_REACTORS
330
C
102
}
330
C
100
AcDbDictionary
281
     1
  0
ACDBDICTIONARYWDFLT
  5
E
102
{ACAD_REACTORS
330
C
102
}
330
C
100
AcDbDictionary
281
     1
  3
Normal
350
F
100
AcDbDictionaryWithDefault
340
F
  0
LAYOUT
  5
1E
102
{ACAD_REACTORS
330
1A
102
}
330
1A
100
AcDbPlotSettings
  1

  2
none_device
  4

  6

 40
0.0
 41
0.0
 42
0.0
 43
0.0
 44
0.0
 45
0.0
 46
0.0
 47
0.0
 48
0.0
 49
0.0
140
0.0
141
0.0
142
1.0
143
1.0
 70
   688
 72
     0
 73
     0
 74
     5
  7

 75
    16
147
1.0
148
0.0
149
0.0
100
AcDbLayout
  1
Layout1
 70
     1
 71
     1
 10
0.0
 20
0.0
 11
420.0
 21
297.0
 12
0.0
 22
0.0
 32
0.0
 14
1.0000000000E+20
 24
1.0000000000E+20
 34
1.0000000000E+20
 15
-1.0000000000E+20
 25
-1.0000000000E+20
 35
-1.0000000000E+20
146
0.0
 13
0.0
 23
0.0
 33
0.0
 16
1.0
 26
0.0
 36
0.0
 17
0.0
 27
1.0
 37
0.0
 76
     0
330
1B
  0
LAYOUT
  5
26
102
{ACAD_REACTORS
330
1A
102
}
330
1A
100
AcDbPlotSettings
  1

  2
none_device
  4

  6

 40
0.0
 41
0.0
 42
0.0
 43
0.0
 44
0.0
 45
0.0
 46
0.0
 47
0.0
 48
0.0
 49
0.0
140
0.0
141
0.0
142
1.0
143
1.0
 70
   688
 72
     0
 73
     0
 74
     5
  7

 75
    16
147
1.0
148
0.0
149
0.0
100
AcDbLayout
  1
Layout2
 70
     1
 71
     2
 10
0.0
 20
0.0
 11
0.0
 21
0.0
 12
0.0
 22
0.0
 32
0.0
 14
0.0
 24
0.0
 34
0.0
 15
0.0
 25
0.0
 35
0.0
146
0.0
 13
0.0
 23
0.0
 33
0.0
 16
1.0
 26
0.0
 36
0.0
 17
0.0
 27
1.0
 37
0.0
 76
     0
330
23
  0
LAYOUT
  5
22
102
{ACAD_REACTORS
330
1A
102
}
330
1A
100
AcDbPlotSettings
  1

  2
none_device
  4

  6

 40
0.0
 41
0.0
 42
0.0
 43
0.0
 44
0.0
 45
0.0
 46
0.0
 47
0.0
 48
0.0
 49
0.0
140
0.0
141
0.0
142
1.0
143
1.0
 70
  1712
 72
     0
 73
     0
 74
     0
  7

 75
     0
147
1.0
148
0.0
149
0.0
100
AcDbLayout
  1
Model
 70
     1
 71
     0
 10
0.0
 20
0.0
 11
812.0
 21
457.0
 12
0.0
 22
0.0
 32
0.0
 14
0.0
 24
0.0
 34
0.0
 15
812.0
 25
457.0
 35
0.0
146
0.0
 13
0.0
 23
0.0
 33
0.0
 16
1.0
 26
0.0
 36
0.0
 17
0.0
 27
1.0
 37
0.0
 76
     0
330
1F
331
29
  0
MLINESTYLE
  5
18
102
{ACAD_REACTORS
330
17
102
}
330
17
100
AcDbMlineStyle
  2
Standard
 70
     0
  3

 62
   256
 51
90.0
 52
90.0
 71
     2
 49
0.5
 62
   256
  6
BYLAYER
 49
-0.5
 62
   256
  6
BYLAYER
  0
ACDBPLACEHOLDER
  5
F
102
{ACAD_REACTORS
330
E
102
}
330
E
  0
ENDSEC
  0
EOF
