solid OpenSCAD_Model
  facet normal 0.707107 -0.707107 0
    outer loop
      vertex 1.71223 3.5833 0
      vertex 2.12893 4 13
      vertex 1.71223 3.5833 13
    endloop
  endfacet
  facet normal 0.707107 -0.707107 0
    outer loop
      vertex 2.12893 4 13
      vertex 1.71223 3.5833 0
      vertex 2.12893 4 0
    endloop
  endfacet
  facet normal 0.707107 0.707107 0
    outer loop
      vertex 4.56343 -4.31317 13
      vertex 2.93708 -2.68683 0
      vertex 2.93708 -2.68683 13
    endloop
  endfacet
  facet normal 0.707107 0.707107 0
    outer loop
      vertex 2.93708 -2.68683 0
      vertex 4.56343 -4.31317 13
      vertex 4.56343 -4.31317 0
    endloop
  endfacet
  facet normal 0 -1 0
    outer loop
      vertex 2.12893 4 0
      vertex 5.5 4 13
      vertex 2.12893 4 13
    endloop
  endfacet
  facet normal 0 -1 -0
    outer loop
      vertex 5.5 4 13
      vertex 2.12893 4 0
      vertex 5.5 4 0
    endloop
  endfacet
  facet normal -0.382683 -0.92388 0
    outer loop
      vertex -3.15 -5.45596 0
      vertex -1.63056 -6.08533 13
      vertex -3.15 -5.45596 13
    endloop
  endfacet
  facet normal -0.382683 -0.92388 -0
    outer loop
      vertex -1.63056 -6.08533 13
      vertex -3.15 -5.45596 0
      vertex -1.63056 -6.08533 0
    endloop
  endfacet
  facet normal 0.608762 -0.793353 0
    outer loop
      vertex 3.15 -5.45596 0
      vertex 4.45477 -4.45477 13
      vertex 3.15 -5.45596 13
    endloop
  endfacet
  facet normal 0.608762 -0.793353 0
    outer loop
      vertex 4.45477 -4.45477 13
      vertex 3.15 -5.45596 0
      vertex 4.45477 -4.45477 0
    endloop
  endfacet
  facet normal -0.608762 -0.793353 0
    outer loop
      vertex -4.45477 -4.45477 0
      vertex -3.15 -5.45596 13
      vertex -4.45477 -4.45477 13
    endloop
  endfacet
  facet normal -0.608762 -0.793353 -0
    outer loop
      vertex -3.15 -5.45596 13
      vertex -4.45477 -4.45477 0
      vertex -3.15 -5.45596 0
    endloop
  endfacet
  facet normal 0 0 -1
    outer loop
      vertex -8.5 -3.8 0
      vertex -5.2 -3.48357 0
      vertex -5.2 -6.1 0
    endloop
  endfacet
  facet normal -0 0 -1
    outer loop
      vertex -5.2 -3.48357 0
      vertex -8.5 -3.8 0
      vertex -8.5 16.4 0
    endloop
  endfacet
  facet normal 0 0 -1
    outer loop
      vertex -10.7 -6.1 0
      vertex -8.5 -3.8 0
      vertex -5.2 -6.1 0
    endloop
  endfacet
  facet normal 0 0 -1
    outer loop
      vertex -10.7 -6.1 0
      vertex -12.9 -3.8 0
      vertex -8.5 -3.8 0
    endloop
  endfacet
  facet normal -0 0 -1
    outer loop
      vertex -12.9 -3.8 0
      vertex -16.2 -6.1 0
      vertex -12.9 16.4 0
    endloop
  endfacet
  facet normal 0 0 -1
    outer loop
      vertex -16.2 -6.1 0
      vertex -12.9 -3.8 0
      vertex -10.7 -6.1 0
    endloop
  endfacet
  facet normal 0 0 -1
    outer loop
      vertex 2.82843 -2.82843 0
      vertex 4.45477 -4.45477 0
      vertex 3.15 -5.45596 0
    endloop
  endfacet
  facet normal 0 0 -1
    outer loop
      vertex 4.45477 -4.45477 0
      vertex 2.82843 -2.82843 0
      vertex 4.56343 -4.31317 0
    endloop
  endfacet
  facet normal 0 0 -1
    outer loop
      vertex 4.56343 -4.31317 0
      vertex 2.82843 -2.82843 0
      vertex 2.93708 -2.68683 0
    endloop
  endfacet
  facet normal 0 0 -1
    outer loop
      vertex 3.15 -5.45596 0
      vertex 2 -3.4641 0
      vertex 2.82843 -2.82843 0
    endloop
  endfacet
  facet normal 0 0 -1
    outer loop
      vertex 1.63056 -6.08533 0
      vertex 2 -3.4641 0
      vertex 3.15 -5.45596 0
    endloop
  endfacet
  facet normal 0 0 -1
    outer loop
      vertex 1.63056 -6.08533 0
      vertex 1.03528 -3.8637 0
      vertex 2 -3.4641 0
    endloop
  endfacet
  facet normal 0 0 -1
    outer loop
      vertex 0 -6.3 0
      vertex 1.03528 -3.8637 0
      vertex 1.63056 -6.08533 0
    endloop
  endfacet
  facet normal 0 0 -1
    outer loop
      vertex 0 -6.3 0
      vertex 0 -4 0
      vertex 1.03528 -3.8637 0
    endloop
  endfacet
  facet normal 0 0 -1
    outer loop
      vertex 0 -6.3 0
      vertex -1.03528 -3.8637 0
      vertex 0 -4 0
    endloop
  endfacet
  facet normal 0 0 -1
    outer loop
      vertex -1.63056 -6.08533 0
      vertex -1.03528 -3.8637 0
      vertex 0 -6.3 0
    endloop
  endfacet
  facet normal 0 0 -1
    outer loop
      vertex -1.63056 -6.08533 0
      vertex -2 -3.4641 0
      vertex -1.03528 -3.8637 0
    endloop
  endfacet
  facet normal 0 0 -1
    outer loop
      vertex -3.15 -5.45596 0
      vertex -2 -3.4641 0
      vertex -1.63056 -6.08533 0
    endloop
  endfacet
  facet normal -0 0 -1
    outer loop
      vertex -2 -3.4641 0
      vertex -3.15 -5.45596 0
      vertex -2.82843 -2.82843 0
    endloop
  endfacet
  facet normal 0 0 -1
    outer loop
      vertex -4.45477 -4.45477 0
      vertex -2.82843 -2.82843 0
      vertex -3.15 -5.45596 0
    endloop
  endfacet
  facet normal 0 0 -1
    outer loop
      vertex -5.2 -3.48357 0
      vertex -2.82843 -2.82843 0
      vertex -4.45477 -4.45477 0
    endloop
  endfacet
  facet normal -0 0 -1
    outer loop
      vertex -3.2 26.5 0
      vertex -6.3 18.7 0
      vertex -4 28.8 0
    endloop
  endfacet
  facet normal -0 0 -1
    outer loop
      vertex -3.8637 -1.03528 0
      vertex -5.2 -3.48357 0
      vertex -4 0 0
    endloop
  endfacet
  facet normal -0 0 -1
    outer loop
      vertex -3.4641 -2 0
      vertex -5.2 -3.48357 0
      vertex -3.8637 -1.03528 0
    endloop
  endfacet
  facet normal -0 0 -1
    outer loop
      vertex -2.82843 -2.82843 0
      vertex -5.2 -3.48357 0
      vertex -3.4641 -2 0
    endloop
  endfacet
  facet normal 0 0 -1
    outer loop
      vertex 2.12893 4 0
      vertex 5.5 6.3 0
      vertex 5.5 4 0
    endloop
  endfacet
  facet normal 0 0 -1
    outer loop
      vertex 1.03528 3.8637 0
      vertex 2.12893 4 0
      vertex 1.71223 3.5833 0
    endloop
  endfacet
  facet normal 0 0 -1
    outer loop
      vertex 0 6.3 0
      vertex 2.12893 4 0
      vertex 1.03528 3.8637 0
    endloop
  endfacet
  facet normal 0 0 -1
    outer loop
      vertex 0 6.3 0
      vertex 1.03528 3.8637 0
      vertex 0 4 0
    endloop
  endfacet
  facet normal 0 0 -1
    outer loop
      vertex 2.12893 4 0
      vertex 0 6.3 0
      vertex 5.5 6.3 0
    endloop
  endfacet
  facet normal 0 0 -1
    outer loop
      vertex -1.03528 3.8637 0
      vertex 0 6.3 0
      vertex 0 4 0
    endloop
  endfacet
  facet normal 0 0 -1
    outer loop
      vertex -3.2 6.3 0
      vertex -1.03528 3.8637 0
      vertex -2 3.4641 0
    endloop
  endfacet
  facet normal 0 0 -1
    outer loop
      vertex -3.2 6.3 0
      vertex -2 3.4641 0
      vertex -2.82843 2.82843 0
    endloop
  endfacet
  facet normal 0 0 -1
    outer loop
      vertex -1.03528 3.8637 0
      vertex -3.2 6.3 0
      vertex 0 6.3 0
    endloop
  endfacet
  facet normal 0 0 -1
    outer loop
      vertex -3.8637 1.03528 0
      vertex -3.2 6.3 0
      vertex -3.4641 2 0
    endloop
  endfacet
  facet normal 0 0 -1
    outer loop
      vertex -3.4641 2 0
      vertex -3.2 6.3 0
      vertex -2.82843 2.82843 0
    endloop
  endfacet
  facet normal 0 0 -1
    outer loop
      vertex -3.2 26.5 0
      vertex 5.5 28.8 0
      vertex 5.5 26.5 0
    endloop
  endfacet
  facet normal 0 0 -1
    outer loop
      vertex -6.3 18.7 0
      vertex -3.2 6.3 0
      vertex -3.8637 1.03528 0
    endloop
  endfacet
  facet normal 0 0 -1
    outer loop
      vertex -6.3 18.7 0
      vertex -3.8637 1.03528 0
      vertex -4 0 0
    endloop
  endfacet
  facet normal 0 0 -1
    outer loop
      vertex -3.2 26.5 0
      vertex -4 28.8 0
      vertex 5.5 28.8 0
    endloop
  endfacet
  facet normal 0 0 -1
    outer loop
      vertex -6.3 18.7 0
      vertex -3.2 26.5 0
      vertex -3.2 6.3 0
    endloop
  endfacet
  facet normal 0 0 -1
    outer loop
      vertex -4 35.6 0
      vertex 5.5 37.9 0
      vertex 5.5 35.6 0
    endloop
  endfacet
  facet normal -0 0 -1
    outer loop
      vertex -4 0 0
      vertex -5.2 -3.48357 0
      vertex -6.3 18.7 0
    endloop
  endfacet
  facet normal 0 0 -1
    outer loop
      vertex -6.3 37.9 0
      vertex -4 28.8 0
      vertex -6.3 18.7 0
    endloop
  endfacet
  facet normal 0 0 -1
    outer loop
      vertex -4 35.6 0
      vertex -6.3 37.9 0
      vertex 5.5 37.9 0
    endloop
  endfacet
  facet normal 0 0 -1
    outer loop
      vertex -4 28.8 0
      vertex -6.3 37.9 0
      vertex -4 35.6 0
    endloop
  endfacet
  facet normal 0 0 -1
    outer loop
      vertex -5.2 -3.48357 0
      vertex -8.5 16.4 0
      vertex -6.3 18.7 0
    endloop
  endfacet
  facet normal 0 0 -1
    outer loop
      vertex -12.9 16.4 0
      vertex -6.3 18.7 0
      vertex -8.5 16.4 0
    endloop
  endfacet
  facet normal 0 0 -1
    outer loop
      vertex -12.9 16.4 0
      vertex -16.2 18.7 0
      vertex -6.3 18.7 0
    endloop
  endfacet
  facet normal 0 0 -1
    outer loop
      vertex -16.2 18.7 0
      vertex -12.9 16.4 0
      vertex -16.2 -6.1 0
    endloop
  endfacet
  facet normal -0.793353 -0.608761 0
    outer loop
      vertex -4.45477 -4.45477 0
      vertex -5.2 -3.48357 13
      vertex -5.2 -3.48357 0
    endloop
  endfacet
  facet normal -0.793353 -0.608761 0
    outer loop
      vertex -5.2 -3.48357 13
      vertex -4.45477 -4.45477 0
      vertex -4.45477 -4.45477 13
    endloop
  endfacet
  facet normal 0.130526 -0.991445 0
    outer loop
      vertex 0 -6.3 0
      vertex 1.63056 -6.08533 13
      vertex 0 -6.3 13
    endloop
  endfacet
  facet normal 0.130526 -0.991445 0
    outer loop
      vertex 1.63056 -6.08533 13
      vertex 0 -6.3 0
      vertex 1.63056 -6.08533 0
    endloop
  endfacet
  facet normal 0.382683 -0.92388 0
    outer loop
      vertex 1.63056 -6.08533 0
      vertex 3.15 -5.45596 13
      vertex 1.63056 -6.08533 13
    endloop
  endfacet
  facet normal 0.382683 -0.92388 0
    outer loop
      vertex 3.15 -5.45596 13
      vertex 1.63056 -6.08533 0
      vertex 3.15 -5.45596 0
    endloop
  endfacet
  facet normal -0.130526 -0.991445 0
    outer loop
      vertex -1.63056 -6.08533 0
      vertex 0 -6.3 13
      vertex -1.63056 -6.08533 13
    endloop
  endfacet
  facet normal -0.130526 -0.991445 -0
    outer loop
      vertex 0 -6.3 13
      vertex -1.63056 -6.08533 0
      vertex 0 -6.3 0
    endloop
  endfacet
  facet normal 0 0 1
    outer loop
      vertex -6.3 18.7 13
      vertex -13.9 16.4 13
      vertex -7.5 16.4 13
    endloop
  endfacet
  facet normal 0 0 1
    outer loop
      vertex -13.9 16.4 13
      vertex -16.2 18.7 13
      vertex -13.9 -3.8 13
    endloop
  endfacet
  facet normal -0 0 1
    outer loop
      vertex -16.2 18.7 13
      vertex -13.9 16.4 13
      vertex -6.3 18.7 13
    endloop
  endfacet
  facet normal 0 0 1
    outer loop
      vertex 5.5 37.9 13
      vertex -4 35.6 13
      vertex 5.5 35.6 13
    endloop
  endfacet
  facet normal 0 0 1
    outer loop
      vertex -6.3 37.9 13
      vertex -4 28.8 13
      vertex -4 35.6 13
    endloop
  endfacet
  facet normal 0 0 1
    outer loop
      vertex -4 28.8 13
      vertex -6.3 18.7 13
      vertex -4 0 13
    endloop
  endfacet
  facet normal -0 0 1
    outer loop
      vertex -7.5 16.4 13
      vertex -4 0 13
      vertex -6.3 18.7 13
    endloop
  endfacet
  facet normal -0 0 1
    outer loop
      vertex -6.3 37.9 13
      vertex -4 35.6 13
      vertex 5.5 37.9 13
    endloop
  endfacet
  facet normal 0 0 1
    outer loop
      vertex -4 28.8 13
      vertex -6.3 37.9 13
      vertex -6.3 18.7 13
    endloop
  endfacet
  facet normal 0 0 1
    outer loop
      vertex -4 0 13
      vertex -5.2 -3.48357 13
      vertex -4.45477 -4.45477 13
    endloop
  endfacet
  facet normal 0 0 1
    outer loop
      vertex -7.5 -3.8 13
      vertex -4 0 13
      vertex -7.5 16.4 13
    endloop
  endfacet
  facet normal 0 0 1
    outer loop
      vertex -4 0 13
      vertex -7.5 -3.8 13
      vertex -5.2 -3.48357 13
    endloop
  endfacet
  facet normal 0 0 1
    outer loop
      vertex -5.2 -3.48357 13
      vertex -7.5 -3.8 13
      vertex -5.2 -6.1 13
    endloop
  endfacet
  facet normal 0 0 1
    outer loop
      vertex -7.5 -3.8 13
      vertex -10.7 -6.1 13
      vertex -5.2 -6.1 13
    endloop
  endfacet
  facet normal -0 0 1
    outer loop
      vertex -13.9 -3.8 13
      vertex -10.7 -6.1 13
      vertex -7.5 -3.8 13
    endloop
  endfacet
  facet normal 0 0 1
    outer loop
      vertex -13.9 -3.8 13
      vertex -16.2 -6.1 13
      vertex -10.7 -6.1 13
    endloop
  endfacet
  facet normal 0 0 1
    outer loop
      vertex -16.2 -6.1 13
      vertex -13.9 -3.8 13
      vertex -16.2 18.7 13
    endloop
  endfacet
  facet normal 0 0 1
    outer loop
      vertex 5.5 28.8 13
      vertex -3.2 26.5 13
      vertex 5.5 26.5 13
    endloop
  endfacet
  facet normal 0 0 1
    outer loop
      vertex -4 28.8 13
      vertex -3.2 6.3 13
      vertex -3.2 26.5 13
    endloop
  endfacet
  facet normal 0 0 1
    outer loop
      vertex -3.2 6.3 13
      vertex -3.8637 1.03528 13
      vertex -3.4641 2 13
    endloop
  endfacet
  facet normal -0 0 1
    outer loop
      vertex -4 28.8 13
      vertex -3.2 26.5 13
      vertex 5.5 28.8 13
    endloop
  endfacet
  facet normal 0 0 1
    outer loop
      vertex -3.2 6.3 13
      vertex -4 28.8 13
      vertex -3.8637 1.03528 13
    endloop
  endfacet
  facet normal 0 0 1
    outer loop
      vertex -3.8637 1.03528 13
      vertex -4 28.8 13
      vertex -4 0 13
    endloop
  endfacet
  facet normal 0 0 1
    outer loop
      vertex 5.5 6.3 13
      vertex 2.12893 4 13
      vertex 5.5 4 13
    endloop
  endfacet
  facet normal 0 0 1
    outer loop
      vertex 2.12893 4 13
      vertex 1.03528 3.8637 13
      vertex 1.71223 3.5833 13
    endloop
  endfacet
  facet normal -0 0 1
    outer loop
      vertex 0 6.3 13
      vertex 2.12893 4 13
      vertex 5.5 6.3 13
    endloop
  endfacet
  facet normal 0 0 1
    outer loop
      vertex 2.12893 4 13
      vertex 0 6.3 13
      vertex 1.03528 3.8637 13
    endloop
  endfacet
  facet normal 0 0 1
    outer loop
      vertex 0 6.3 13
      vertex 0 4 13
      vertex 1.03528 3.8637 13
    endloop
  endfacet
  facet normal 0 0 1
    outer loop
      vertex 0 6.3 13
      vertex -1.03528 3.8637 13
      vertex 0 4 13
    endloop
  endfacet
  facet normal -0 0 1
    outer loop
      vertex -3.2 6.3 13
      vertex -1.03528 3.8637 13
      vertex 0 6.3 13
    endloop
  endfacet
  facet normal 0 0 1
    outer loop
      vertex -1.03528 3.8637 13
      vertex -3.2 6.3 13
      vertex -2 3.4641 13
    endloop
  endfacet
  facet normal 0 0 1
    outer loop
      vertex -2 3.4641 13
      vertex -3.2 6.3 13
      vertex -2.82843 2.82843 13
    endloop
  endfacet
  facet normal 0 0 1
    outer loop
      vertex -2.82843 2.82843 13
      vertex -3.2 6.3 13
      vertex -3.4641 2 13
    endloop
  endfacet
  facet normal 0 0 1
    outer loop
      vertex 2.82843 -2.82843 13
      vertex 4.45477 -4.45477 13
      vertex 4.56343 -4.31317 13
    endloop
  endfacet
  facet normal -0 0 1
    outer loop
      vertex 2.82843 -2.82843 13
      vertex 4.56343 -4.31317 13
      vertex 2.93708 -2.68683 13
    endloop
  endfacet
  facet normal 0 0 1
    outer loop
      vertex 4.45477 -4.45477 13
      vertex 2.82843 -2.82843 13
      vertex 3.15 -5.45596 13
    endloop
  endfacet
  facet normal -0 0 1
    outer loop
      vertex 2 -3.4641 13
      vertex 3.15 -5.45596 13
      vertex 2.82843 -2.82843 13
    endloop
  endfacet
  facet normal 0 0 1
    outer loop
      vertex 2 -3.4641 13
      vertex 1.63056 -6.08533 13
      vertex 3.15 -5.45596 13
    endloop
  endfacet
  facet normal -0 0 1
    outer loop
      vertex 1.03528 -3.8637 13
      vertex 1.63056 -6.08533 13
      vertex 2 -3.4641 13
    endloop
  endfacet
  facet normal -0 0 1
    outer loop
      vertex 0 -4 13
      vertex 1.63056 -6.08533 13
      vertex 1.03528 -3.8637 13
    endloop
  endfacet
  facet normal 0 0 1
    outer loop
      vertex 0 -4 13
      vertex 0 -6.3 13
      vertex 1.63056 -6.08533 13
    endloop
  endfacet
  facet normal 0 0 1
    outer loop
      vertex -1.03528 -3.8637 13
      vertex 0 -6.3 13
      vertex 0 -4 13
    endloop
  endfacet
  facet normal 0 0 1
    outer loop
      vertex -1.03528 -3.8637 13
      vertex -1.63056 -6.08533 13
      vertex 0 -6.3 13
    endloop
  endfacet
  facet normal 0 0 1
    outer loop
      vertex -2 -3.4641 13
      vertex -1.63056 -6.08533 13
      vertex -1.03528 -3.8637 13
    endloop
  endfacet
  facet normal 0 0 1
    outer loop
      vertex -3.15 -5.45596 13
      vertex -2 -3.4641 13
      vertex -2.82843 -2.82843 13
    endloop
  endfacet
  facet normal 0 0 1
    outer loop
      vertex -2 -3.4641 13
      vertex -3.15 -5.45596 13
      vertex -1.63056 -6.08533 13
    endloop
  endfacet
  facet normal 0 0 1
    outer loop
      vertex -4.45477 -4.45477 13
      vertex -2.82843 -2.82843 13
      vertex -3.4641 -2 13
    endloop
  endfacet
  facet normal 0 0 1
    outer loop
      vertex -4.45477 -4.45477 13
      vertex -3.4641 -2 13
      vertex -3.8637 -1.03528 13
    endloop
  endfacet
  facet normal 0 0 1
    outer loop
      vertex -2.82843 -2.82843 13
      vertex -4.45477 -4.45477 13
      vertex -3.15 -5.45596 13
    endloop
  endfacet
  facet normal 0 0 1
    outer loop
      vertex -4.45477 -4.45477 13
      vertex -3.8637 -1.03528 13
      vertex -4 0 13
    endloop
  endfacet
  facet normal 0.793353 -0.608762 0
    outer loop
      vertex 4.45477 -4.45477 13
      vertex 4.56343 -4.31317 0
      vertex 4.56343 -4.31317 13
    endloop
  endfacet
  facet normal 0.793353 -0.608762 0
    outer loop
      vertex 4.56343 -4.31317 0
      vertex 4.45477 -4.45477 13
      vertex 4.45477 -4.45477 0
    endloop
  endfacet
  facet normal 0.991445 -0.130527 0
    outer loop
      vertex -4 0 13
      vertex -3.8637 1.03528 0
      vertex -3.8637 1.03528 13
    endloop
  endfacet
  facet normal 0.991445 -0.130527 0
    outer loop
      vertex -3.8637 1.03528 0
      vertex -4 0 13
      vertex -4 0 0
    endloop
  endfacet
  facet normal -0.130527 -0.991445 0
    outer loop
      vertex 0 4 0
      vertex 1.03528 3.8637 13
      vertex 0 4 13
    endloop
  endfacet
  facet normal -0.130527 -0.991445 -0
    outer loop
      vertex 1.03528 3.8637 13
      vertex 0 4 0
      vertex 1.03528 3.8637 0
    endloop
  endfacet
  facet normal 0.130527 0.991445 -0
    outer loop
      vertex 0 -4 0
      vertex -1.03528 -3.8637 13
      vertex 0 -4 13
    endloop
  endfacet
  facet normal 0.130527 0.991445 0
    outer loop
      vertex -1.03528 -3.8637 13
      vertex 0 -4 0
      vertex -1.03528 -3.8637 0
    endloop
  endfacet
  facet normal -0.382683 -0.92388 0
    outer loop
      vertex 1.03528 3.8637 0
      vertex 1.71223 3.5833 13
      vertex 1.03528 3.8637 13
    endloop
  endfacet
  facet normal -0.382683 -0.92388 -0
    outer loop
      vertex 1.71223 3.5833 13
      vertex 1.03528 3.8637 0
      vertex 1.71223 3.5833 0
    endloop
  endfacet
  facet normal 0.608761 -0.793353 0
    outer loop
      vertex -2.82843 2.82843 0
      vertex -2 3.4641 13
      vertex -2.82843 2.82843 13
    endloop
  endfacet
  facet normal 0.608761 -0.793353 0
    outer loop
      vertex -2 3.4641 13
      vertex -2.82843 2.82843 0
      vertex -2 3.4641 0
    endloop
  endfacet
  facet normal 0.793353 -0.608761 0
    outer loop
      vertex -3.4641 2 13
      vertex -2.82843 2.82843 0
      vertex -2.82843 2.82843 13
    endloop
  endfacet
  facet normal 0.793353 -0.608761 0
    outer loop
      vertex -2.82843 2.82843 0
      vertex -3.4641 2 13
      vertex -3.4641 2 0
    endloop
  endfacet
  facet normal 0.382684 -0.923879 0
    outer loop
      vertex -2 3.4641 0
      vertex -1.03528 3.8637 13
      vertex -2 3.4641 13
    endloop
  endfacet
  facet normal 0.382684 -0.923879 0
    outer loop
      vertex -1.03528 3.8637 13
      vertex -2 3.4641 0
      vertex -1.03528 3.8637 0
    endloop
  endfacet
  facet normal -0.793353 0.608762 0
    outer loop
      vertex 2.82843 -2.82843 0
      vertex 2.93708 -2.68683 13
      vertex 2.93708 -2.68683 0
    endloop
  endfacet
  facet normal -0.793353 0.608762 0
    outer loop
      vertex 2.93708 -2.68683 13
      vertex 2.82843 -2.82843 0
      vertex 2.82843 -2.82843 13
    endloop
  endfacet
  facet normal 0.608762 0.793353 -0
    outer loop
      vertex -2 -3.4641 0
      vertex -2.82843 -2.82843 13
      vertex -2 -3.4641 13
    endloop
  endfacet
  facet normal 0.608762 0.793353 0
    outer loop
      vertex -2.82843 -2.82843 13
      vertex -2 -3.4641 0
      vertex -2.82843 -2.82843 0
    endloop
  endfacet
  facet normal 0.923879 -0.382684 0
    outer loop
      vertex -3.8637 1.03528 13
      vertex -3.4641 2 0
      vertex -3.4641 2 13
    endloop
  endfacet
  facet normal 0.923879 -0.382684 0
    outer loop
      vertex -3.4641 2 0
      vertex -3.8637 1.03528 13
      vertex -3.8637 1.03528 0
    endloop
  endfacet
  facet normal 0.130527 -0.991445 0
    outer loop
      vertex -1.03528 3.8637 0
      vertex 0 4 13
      vertex -1.03528 3.8637 13
    endloop
  endfacet
  facet normal 0.130527 -0.991445 0
    outer loop
      vertex 0 4 13
      vertex -1.03528 3.8637 0
      vertex 0 4 0
    endloop
  endfacet
  facet normal -0.130527 0.991445 0
    outer loop
      vertex 1.03528 -3.8637 0
      vertex 0 -4 13
      vertex 1.03528 -3.8637 13
    endloop
  endfacet
  facet normal -0.130527 0.991445 0
    outer loop
      vertex 0 -4 13
      vertex 1.03528 -3.8637 0
      vertex 0 -4 0
    endloop
  endfacet
  facet normal -0.608762 0.793353 0
    outer loop
      vertex 2.82843 -2.82843 0
      vertex 2 -3.4641 13
      vertex 2.82843 -2.82843 13
    endloop
  endfacet
  facet normal -0.608762 0.793353 0
    outer loop
      vertex 2 -3.4641 13
      vertex 2.82843 -2.82843 0
      vertex 2 -3.4641 0
    endloop
  endfacet
  facet normal 0.382683 0.92388 -0
    outer loop
      vertex -1.03528 -3.8637 0
      vertex -2 -3.4641 13
      vertex -1.03528 -3.8637 13
    endloop
  endfacet
  facet normal 0.382683 0.92388 0
    outer loop
      vertex -2 -3.4641 13
      vertex -1.03528 -3.8637 0
      vertex -2 -3.4641 0
    endloop
  endfacet
  facet normal 0.793353 0.608761 0
    outer loop
      vertex -2.82843 -2.82843 13
      vertex -3.4641 -2 0
      vertex -3.4641 -2 13
    endloop
  endfacet
  facet normal 0.793353 0.608761 0
    outer loop
      vertex -3.4641 -2 0
      vertex -2.82843 -2.82843 13
      vertex -2.82843 -2.82843 0
    endloop
  endfacet
  facet normal 0.991445 0.130527 0
    outer loop
      vertex -3.8637 -1.03528 13
      vertex -4 0 0
      vertex -4 0 13
    endloop
  endfacet
  facet normal 0.991445 0.130527 0
    outer loop
      vertex -4 0 0
      vertex -3.8637 -1.03528 13
      vertex -3.8637 -1.03528 0
    endloop
  endfacet
  facet normal -0.382683 0.92388 0
    outer loop
      vertex 2 -3.4641 0
      vertex 1.03528 -3.8637 13
      vertex 2 -3.4641 13
    endloop
  endfacet
  facet normal -0.382683 0.92388 0
    outer loop
      vertex 1.03528 -3.8637 13
      vertex 2 -3.4641 0
      vertex 1.03528 -3.8637 0
    endloop
  endfacet
  facet normal 0.923879 0.382684 0
    outer loop
      vertex -3.4641 -2 13
      vertex -3.8637 -1.03528 0
      vertex -3.8637 -1.03528 13
    endloop
  endfacet
  facet normal 0.923879 0.382684 0
    outer loop
      vertex -3.8637 -1.03528 0
      vertex -3.4641 -2 13
      vertex -3.4641 -2 0
    endloop
  endfacet
  facet normal -1 0 0
    outer loop
      vertex -6.3 18.7 0
      vertex -6.3 37.9 13
      vertex -6.3 37.9 0
    endloop
  endfacet
  facet normal -1 -0 0
    outer loop
      vertex -6.3 37.9 13
      vertex -6.3 18.7 0
      vertex -6.3 18.7 13
    endloop
  endfacet
  facet normal 1 -0 0
    outer loop
      vertex -4 28.8 13
      vertex -4 35.6 0
      vertex -4 35.6 13
    endloop
  endfacet
  facet normal 1 0 0
    outer loop
      vertex -4 35.6 0
      vertex -4 28.8 13
      vertex -4 28.8 0
    endloop
  endfacet
  facet normal 0 1 -0
    outer loop
      vertex 5.5 37.9 0
      vertex -6.3 37.9 13
      vertex 5.5 37.9 13
    endloop
  endfacet
  facet normal 0 1 0
    outer loop
      vertex -6.3 37.9 13
      vertex 5.5 37.9 0
      vertex -6.3 37.9 0
    endloop
  endfacet
  facet normal 1 -0 0
    outer loop
      vertex 5.5 35.6 13
      vertex 5.5 37.9 0
      vertex 5.5 37.9 13
    endloop
  endfacet
  facet normal 1 0 0
    outer loop
      vertex 5.5 37.9 0
      vertex 5.5 35.6 13
      vertex 5.5 35.6 0
    endloop
  endfacet
  facet normal 0 -1 0
    outer loop
      vertex -4 35.6 0
      vertex 5.5 35.6 13
      vertex -4 35.6 13
    endloop
  endfacet
  facet normal 0 -1 -0
    outer loop
      vertex 5.5 35.6 13
      vertex -4 35.6 0
      vertex 5.5 35.6 0
    endloop
  endfacet
  facet normal 1 -0 0
    outer loop
      vertex -3.2 6.3 13
      vertex -3.2 26.5 3.3
      vertex -3.2 26.5 13
    endloop
  endfacet
  facet normal 1 0 0
    outer loop
      vertex -3.2 26.5 3.3
      vertex -3.2 6.3 13
      vertex -3.2 6.3 3.3
    endloop
  endfacet
  facet normal 0 -1 0
    outer loop
      vertex -3.2 26.5 13
      vertex -3.2 26.5 3.3
      vertex 5.5 26.5 13
    endloop
  endfacet
  facet normal 0 -1 0
    outer loop
      vertex 5.5 26.5 0
      vertex -3.2 26.5 3.3
      vertex -3.2 26.5 0
    endloop
  endfacet
  facet normal 0 -1 0
    outer loop
      vertex -3.2 26.5 3.3
      vertex 5.5 26.5 0
      vertex 5.5 26.5 13
    endloop
  endfacet
  facet normal 0 1 0
    outer loop
      vertex 0 6.3 13
      vertex -3.2 6.3 3.3
      vertex -3.2 6.3 13
    endloop
  endfacet
  facet normal 0 1 -0
    outer loop
      vertex 0 6.3 0
      vertex -3.2 6.3 3.3
      vertex 0 6.3 13
    endloop
  endfacet
  facet normal 0 1 0
    outer loop
      vertex -3.2 6.3 3.3
      vertex 0 6.3 0
      vertex -3.2 6.3 0
    endloop
  endfacet
  facet normal 0 1 -0
    outer loop
      vertex 5.5 6.3 0
      vertex 0 6.3 13
      vertex 5.5 6.3 13
    endloop
  endfacet
  facet normal 0 1 0
    outer loop
      vertex 0 6.3 13
      vertex 5.5 6.3 0
      vertex 0 6.3 0
    endloop
  endfacet
  facet normal 1 -0 0
    outer loop
      vertex 5.5 4 13
      vertex 5.5 6.3 0
      vertex 5.5 6.3 13
    endloop
  endfacet
  facet normal 1 0 0
    outer loop
      vertex 5.5 6.3 0
      vertex 5.5 4 13
      vertex 5.5 4 0
    endloop
  endfacet
  facet normal 1 -0 0
    outer loop
      vertex 5.5 26.5 13
      vertex 5.5 28.8 0
      vertex 5.5 28.8 13
    endloop
  endfacet
  facet normal 1 0 0
    outer loop
      vertex 5.5 28.8 0
      vertex 5.5 26.5 13
      vertex 5.5 26.5 0
    endloop
  endfacet
  facet normal 0 1 -0
    outer loop
      vertex 5.5 28.8 0
      vertex -4 28.8 13
      vertex 5.5 28.8 13
    endloop
  endfacet
  facet normal 0 1 0
    outer loop
      vertex -4 28.8 13
      vertex 5.5 28.8 0
      vertex -4 28.8 0
    endloop
  endfacet
  facet normal 1 -0 0
    outer loop
      vertex -13.9 -3.8 13
      vertex -13.9 16.4 3.3
      vertex -13.9 16.4 13
    endloop
  endfacet
  facet normal 1 0 0
    outer loop
      vertex -13.9 16.4 3.3
      vertex -13.9 -3.8 13
      vertex -13.9 -3.8 3.3
    endloop
  endfacet
  facet normal -1 0 0
    outer loop
      vertex -7.5 -3.8 3.3
      vertex -7.5 16.4 13
      vertex -7.5 16.4 3.3
    endloop
  endfacet
  facet normal -1 -0 0
    outer loop
      vertex -7.5 16.4 13
      vertex -7.5 -3.8 3.3
      vertex -7.5 -3.8 13
    endloop
  endfacet
  facet normal 0 -1 0
    outer loop
      vertex -12.9 16.4 0
      vertex -8.5 16.4 3.3
      vertex -12.9 16.4 3.3
    endloop
  endfacet
  facet normal 0 -1 -0
    outer loop
      vertex -8.5 16.4 3.3
      vertex -12.9 16.4 0
      vertex -8.5 16.4 0
    endloop
  endfacet
  facet normal 0 -1 0
    outer loop
      vertex -12.9 16.4 3.3
      vertex -13.9 16.4 13
      vertex -13.9 16.4 3.3
    endloop
  endfacet
  facet normal 0 -1 0
    outer loop
      vertex -13.9 16.4 13
      vertex -12.9 16.4 3.3
      vertex -7.5 16.4 13
    endloop
  endfacet
  facet normal 0 -1 0
    outer loop
      vertex -8.5 16.4 3.3
      vertex -7.5 16.4 13
      vertex -12.9 16.4 3.3
    endloop
  endfacet
  facet normal 0 -1 -0
    outer loop
      vertex -7.5 16.4 13
      vertex -8.5 16.4 3.3
      vertex -7.5 16.4 3.3
    endloop
  endfacet
  facet normal -0 0 1
    outer loop
      vertex -13.9 16.4 3.3
      vertex -12.9 -3.8 3.3
      vertex -12.9 16.4 3.3
    endloop
  endfacet
  facet normal 0 0 1
    outer loop
      vertex -12.9 -3.8 3.3
      vertex -13.9 16.4 3.3
      vertex -13.9 -3.8 3.3
    endloop
  endfacet
  facet normal -0 0 1
    outer loop
      vertex -8.5 16.4 3.3
      vertex -7.5 -3.8 3.3
      vertex -7.5 16.4 3.3
    endloop
  endfacet
  facet normal 0 0 1
    outer loop
      vertex -7.5 -3.8 3.3
      vertex -8.5 16.4 3.3
      vertex -8.5 -3.8 3.3
    endloop
  endfacet
  facet normal 0 1 -0
    outer loop
      vertex -8.5 -3.8 0
      vertex -12.9 -3.8 3.3
      vertex -8.5 -3.8 3.3
    endloop
  endfacet
  facet normal 0 1 0
    outer loop
      vertex -12.9 -3.8 3.3
      vertex -8.5 -3.8 0
      vertex -12.9 -3.8 0
    endloop
  endfacet
  facet normal 0 1 0
    outer loop
      vertex -8.5 -3.8 3.3
      vertex -7.5 -3.8 13
      vertex -7.5 -3.8 3.3
    endloop
  endfacet
  facet normal 0 1 0
    outer loop
      vertex -7.5 -3.8 13
      vertex -8.5 -3.8 3.3
      vertex -13.9 -3.8 13
    endloop
  endfacet
  facet normal 0 1 -0
    outer loop
      vertex -12.9 -3.8 3.3
      vertex -13.9 -3.8 13
      vertex -8.5 -3.8 3.3
    endloop
  endfacet
  facet normal 0 1 0
    outer loop
      vertex -13.9 -3.8 13
      vertex -12.9 -3.8 3.3
      vertex -13.9 -3.8 3.3
    endloop
  endfacet
  facet normal 1 -0 0
    outer loop
      vertex -12.9 -3.8 3.3
      vertex -12.9 16.4 0
      vertex -12.9 16.4 3.3
    endloop
  endfacet
  facet normal 1 0 0
    outer loop
      vertex -12.9 16.4 0
      vertex -12.9 -3.8 3.3
      vertex -12.9 -3.8 0
    endloop
  endfacet
  facet normal -1 0 0
    outer loop
      vertex -8.5 -3.8 0
      vertex -8.5 16.4 3.3
      vertex -8.5 16.4 0
    endloop
  endfacet
  facet normal -1 -0 0
    outer loop
      vertex -8.5 16.4 3.3
      vertex -8.5 -3.8 0
      vertex -8.5 -3.8 3.3
    endloop
  endfacet
  facet normal -1 0 0
    outer loop
      vertex -16.2 -6.1 0
      vertex -16.2 18.7 13
      vertex -16.2 18.7 0
    endloop
  endfacet
  facet normal -1 -0 0
    outer loop
      vertex -16.2 18.7 13
      vertex -16.2 -6.1 0
      vertex -16.2 -6.1 13
    endloop
  endfacet
  facet normal 1 -0 0
    outer loop
      vertex -5.2 -6.1 13
      vertex -5.2 -3.48357 0
      vertex -5.2 -3.48357 13
    endloop
  endfacet
  facet normal 1 0 0
    outer loop
      vertex -5.2 -3.48357 0
      vertex -5.2 -6.1 13
      vertex -5.2 -6.1 0
    endloop
  endfacet
  facet normal 0 1 -0
    outer loop
      vertex -6.3 18.7 0
      vertex -16.2 18.7 13
      vertex -6.3 18.7 13
    endloop
  endfacet
  facet normal 0 1 0
    outer loop
      vertex -16.2 18.7 13
      vertex -6.3 18.7 0
      vertex -16.2 18.7 0
    endloop
  endfacet
  facet normal 0 -1 0
    outer loop
      vertex -16.2 -6.1 0
      vertex -10.7 -6.1 13
      vertex -16.2 -6.1 13
    endloop
  endfacet
  facet normal 0 -1 -0
    outer loop
      vertex -10.7 -6.1 13
      vertex -16.2 -6.1 0
      vertex -10.7 -6.1 0
    endloop
  endfacet
  facet normal 0 -1 0
    outer loop
      vertex -10.7 -6.1 0
      vertex -5.2 -6.1 13
      vertex -10.7 -6.1 13
    endloop
  endfacet
  facet normal 0 -1 -0
    outer loop
      vertex -5.2 -6.1 13
      vertex -10.7 -6.1 0
      vertex -5.2 -6.1 0
    endloop
  endfacet
  facet normal 1 -0 0
    outer loop
      vertex -3.2 6.3 3.3
      vertex -3.2 26.5 0
      vertex -3.2 26.5 3.3
    endloop
  endfacet
  facet normal 1 0 0
    outer loop
      vertex -3.2 26.5 0
      vertex -3.2 6.3 3.3
      vertex -3.2 6.3 0
    endloop
  endfacet
endsolid OpenSCAD_Model
