solid OpenSCAD_Model
  facet normal 0 0 -1
    outer loop
      vertex -14.4783 -10.3447 -1
      vertex -14.4783 -9.65533 -1
      vertex -14.3069 -11.0123 -1
    endloop
  endfacet
  facet normal 0 0 -1
    outer loop
      vertex -14.3069 -11.0123 -1
      vertex -14.4783 -9.65533 -1
      vertex -14.3069 -8.98766 -1
    endloop
  endfacet
  facet normal 0 0 -1
    outer loop
      vertex -14.3069 -11.0123 -1
      vertex -14.3069 -8.98766 -1
      vertex -13.9748 -8.38359 -1
    endloop
  endfacet
  facet normal 0 0 -1
    outer loop
      vertex -14.3069 -11.0123 -1
      vertex -13.9748 -8.38359 -1
      vertex -13.7703 -8.16579 -1
    endloop
  endfacet
  facet normal 0 0 -1
    outer loop
      vertex -13.7703 -8.16579 -1
      vertex -13.8063 -8.11431 -1
      vertex -13.5599 -7.94177 -1
    endloop
  endfacet
  facet normal 0 0 -1
    outer loop
      vertex -13.7703 -8.16579 -1
      vertex -13.5599 -7.94177 -1
      vertex -14.3069 -11.0123 -1
    endloop
  endfacet
  facet normal 0 0 -1
    outer loop
      vertex -13.5599 -7.94177 -1
      vertex -13.5029 -7.88109 -1
      vertex -14.3069 -11.0123 -1
    endloop
  endfacet
  facet normal 0 0 -1
    outer loop
      vertex -14.3069 -11.0123 -1
      vertex -13.5029 -7.88109 -1
      vertex -13.1861 -7.68002 -1
    endloop
  endfacet
  facet normal 0 0 -1
    outer loop
      vertex -14.3069 -11.0123 -1
      vertex -13.1861 -7.68002 -1
      vertex -2.21788 0 -1
    endloop
  endfacet
  facet normal 0 0 -1
    outer loop
      vertex -13.1861 7.68002 -1
      vertex -13.5029 7.88109 -1
      vertex -13.5599 7.94177 -1
    endloop
  endfacet
  facet normal 0 0 -1
    outer loop
      vertex -13.1861 7.68002 -1
      vertex -13.7703 8.16579 -1
      vertex -2.21788 0 -1
    endloop
  endfacet
  facet normal 0 0 -1
    outer loop
      vertex -13.5599 7.94177 -1
      vertex -13.8063 8.11431 -1
      vertex -13.7703 8.16579 -1
    endloop
  endfacet
  facet normal 0 0 -1
    outer loop
      vertex -13.5599 7.94177 -1
      vertex -13.7703 8.16579 -1
      vertex -13.1861 7.68002 -1
    endloop
  endfacet
  facet normal 0 0 -1
    outer loop
      vertex -13.7703 8.16579 -1
      vertex -13.9748 8.38359 -1
      vertex -2.21788 0 -1
    endloop
  endfacet
  facet normal 0 0 -1
    outer loop
      vertex -2.21788 0 -1
      vertex -13.9748 8.38359 -1
      vertex -14.3069 8.98766 -1
    endloop
  endfacet
  facet normal 0 0 -1
    outer loop
      vertex -2.21788 0 -1
      vertex -14.3069 8.98766 -1
      vertex -14.4783 9.65533 -1
    endloop
  endfacet
  facet normal 0 0 -1
    outer loop
      vertex -2.21788 0 -1
      vertex -14.4783 9.65533 -1
      vertex -14.4783 10.3447 -1
    endloop
  endfacet
  facet normal 0 0 -1
    outer loop
      vertex -13.1142 9.82767 -1
      vertex -14.4783 10.3447 -1
      vertex -14.3069 11.0123 -1
    endloop
  endfacet
  facet normal 0 0 -1
    outer loop
      vertex -13.1142 10.1723 -1
      vertex -14.3069 11.0123 -1
      vertex -13.9748 11.6164 -1
    endloop
  endfacet
  facet normal 0 0 -1
    outer loop
      vertex -12.8624 10.8082 -1
      vertex -13.9748 11.6164 -1
      vertex -13.5029 12.1189 -1
    endloop
  endfacet
  facet normal 0 0 -1
    outer loop
      vertex -12.3354 11.2441 -1
      vertex -13.5029 12.1189 -1
      vertex -12.9209 12.4883 -1
    endloop
  endfacet
  facet normal 0 0 -1
    outer loop
      vertex -11.6637 11.3723 -1
      vertex -12.9209 12.4883 -1
      vertex -12.2653 12.7013 -1
    endloop
  endfacet
  facet normal 0 0 -1
    outer loop
      vertex -10.7477 10.9413 -1
      vertex -12.2653 12.7013 -1
      vertex -11.5773 12.7446 -1
    endloop
  endfacet
  facet normal 0 0 -1
    outer loop
      vertex -2.21788 0 -1
      vertex -11.5773 12.7446 -1
      vertex -11.3437 12.7 -1
    endloop
  endfacet
  facet normal 0 0 -1
    outer loop
      vertex -4.49738 7.7 -1
      vertex -11.3437 12.7 -1
      vertex 9.75 12.7 -1
    endloop
  endfacet
  facet normal 0 0 -1
    outer loop
      vertex 3.80631 1.88569 -1
      vertex -2.21788 0 -1
      vertex -4.49738 7.7 -1
    endloop
  endfacet
  facet normal 0 0 -1
    outer loop
      vertex 9.75 7.73054 -1
      vertex 12.5 10.2 -1
      vertex 12.4215 9.57827 -1
    endloop
  endfacet
  facet normal 0 0 -1
    outer loop
      vertex 10.157 7.70493 -1
      vertex 12.4215 9.57827 -1
      vertex 12.1908 8.99562 -1
    endloop
  endfacet
  facet normal 0 0 -1
    outer loop
      vertex 10.7725 7.82236 -1
      vertex 12.1908 8.99562 -1
      vertex 11.8224 8.48863 -1
    endloop
  endfacet
  facet normal 0 0 -1
    outer loop
      vertex 10.157 7.70493 -1
      vertex 12.1908 8.99562 -1
      vertex 10.7725 7.82236 -1
    endloop
  endfacet
  facet normal 0 0 -1
    outer loop
      vertex -4.49738 7.7 -1
      vertex 10.157 12.6951 -1
      vertex 10.7725 12.5776 -1
    endloop
  endfacet
  facet normal 0 0 -1
    outer loop
      vertex 9.75 7.73054 -1
      vertex 12.4215 9.57827 -1
      vertex 10.157 7.70493 -1
    endloop
  endfacet
  facet normal 0 0 -1
    outer loop
      vertex -4.49738 7.7 -1
      vertex 9.75 12.7 -1
      vertex 9.75 12.6695 -1
    endloop
  endfacet
  facet normal 0 0 -1
    outer loop
      vertex -4.49738 7.7 -1
      vertex 9.75 12.6695 -1
      vertex 10.157 12.6951 -1
    endloop
  endfacet
  facet normal 0 0 -1
    outer loop
      vertex -2.21788 0 -1
      vertex -11.3437 12.7 -1
      vertex -4.49738 7.7 -1
    endloop
  endfacet
  facet normal 0 0 -1
    outer loop
      vertex 3.80631 1.88569 -1
      vertex -14.3069 -11.0123 -1
      vertex -2.21788 0 -1
    endloop
  endfacet
  facet normal 0 0 -1
    outer loop
      vertex -13.1142 9.82767 -1
      vertex -14.3069 11.0123 -1
      vertex -13.1142 10.1723 -1
    endloop
  endfacet
  facet normal 0 0 -1
    outer loop
      vertex -14.3069 -11.0123 -1
      vertex 3.80631 1.88569 -1
      vertex 3.73493 1.78375 -1
    endloop
  endfacet
  facet normal 0 0 -1
    outer loop
      vertex 3.73493 1.78375 -1
      vertex 3.82242 1.71137 -1
      vertex -14.3069 -11.0123 -1
    endloop
  endfacet
  facet normal 0 0 -1
    outer loop
      vertex -14.3069 -11.0123 -1
      vertex 3.82242 1.71137 -1
      vertex 4.19077 1.20438 -1
    endloop
  endfacet
  facet normal 0 0 -1
    outer loop
      vertex -14.3069 -11.0123 -1
      vertex 4.19077 1.20438 -1
      vertex 4.42146 0.621725 -1
    endloop
  endfacet
  facet normal 0 0 -1
    outer loop
      vertex -14.3069 -11.0123 -1
      vertex 4.42146 0.621725 -1
      vertex 4.5 0 -1
    endloop
  endfacet
  facet normal 0 0 -1
    outer loop
      vertex -14.3069 -11.0123 -1
      vertex 4.5 0 -1
      vertex 4.42146 -0.621725 -1
    endloop
  endfacet
  facet normal 0 0 -1
    outer loop
      vertex -14.3069 -11.0123 -1
      vertex 4.42146 -0.621725 -1
      vertex 4.19077 -1.20438 -1
    endloop
  endfacet
  facet normal 0 0 -1
    outer loop
      vertex -14.3069 -11.0123 -1
      vertex 4.19077 -1.20438 -1
      vertex 3.82242 -1.71137 -1
    endloop
  endfacet
  facet normal 0 0 -1
    outer loop
      vertex -14.3069 -11.0123 -1
      vertex 3.82242 -1.71137 -1
      vertex 3.73493 -1.78375 -1
    endloop
  endfacet
  facet normal 0 0 -1
    outer loop
      vertex -14.3069 -11.0123 -1
      vertex 3.73493 -1.78375 -1
      vertex 3.80631 -1.88569 -1
    endloop
  endfacet
  facet normal 0 0 -1
    outer loop
      vertex -14.3069 -11.0123 -1
      vertex 3.80631 -1.88569 -1
      vertex -4.49738 -7.7 -1
    endloop
  endfacet
  facet normal 0 0 -1
    outer loop
      vertex -14.3069 -11.0123 -1
      vertex -4.49738 -7.7 -1
      vertex 9.75 -7.7 -1
    endloop
  endfacet
  facet normal 0 0 -1
    outer loop
      vertex 9.75 -7.7 -1
      vertex 9.75 -7.73054 -1
      vertex -14.3069 -11.0123 -1
    endloop
  endfacet
  facet normal 0 0 -1
    outer loop
      vertex 9.75 -7.73054 -1
      vertex 10.157 -7.70493 -1
      vertex -14.3069 -11.0123 -1
    endloop
  endfacet
  facet normal 0 0 -1
    outer loop
      vertex -14.3069 -11.0123 -1
      vertex 10.157 -7.70493 -1
      vertex 10.7725 -7.82236 -1
    endloop
  endfacet
  facet normal 0 0 -1
    outer loop
      vertex 10.7725 -7.82236 -1
      vertex 11.3396 -8.08918 -1
      vertex -14.3069 -11.0123 -1
    endloop
  endfacet
  facet normal 0 0 -1
    outer loop
      vertex -14.3069 -11.0123 -1
      vertex 11.3396 -8.08918 -1
      vertex 11.8224 -8.48863 -1
    endloop
  endfacet
  facet normal 0 0 -1
    outer loop
      vertex 10.7368 -9.03905 -1
      vertex 11.8224 -8.48863 -1
      vertex 12.1908 -8.99562 -1
    endloop
  endfacet
  facet normal 0 0 -1
    outer loop
      vertex 11.2049 -9.53759 -1
      vertex 12.1908 -8.99562 -1
      vertex 12.4215 -9.57827 -1
    endloop
  endfacet
  facet normal 0 0 -1
    outer loop
      vertex 11.3318 -9.85805 -1
      vertex 12.4215 -9.57827 -1
      vertex 12.5 -10.2 -1
    endloop
  endfacet
  facet normal 0 0 -1
    outer loop
      vertex 11.3318 -10.5419 -1
      vertex 12.5 -10.2 -1
      vertex 12.4215 -10.8217 -1
    endloop
  endfacet
  facet normal 0 0 -1
    outer loop
      vertex 11.0023 -11.1413 -1
      vertex 12.4215 -10.8217 -1
      vertex 12.1908 -11.4044 -1
    endloop
  endfacet
  facet normal 0 0 -1
    outer loop
      vertex 10.0863 -11.5723 -1
      vertex 12.1908 -11.4044 -1
      vertex 11.8224 -11.9114 -1
    endloop
  endfacet
  facet normal 0 0 -1
    outer loop
      vertex -14.3069 -11.0123 -1
      vertex 11.8224 -11.9114 -1
      vertex 11.3396 -12.3108 -1
    endloop
  endfacet
  facet normal 0 0 -1
    outer loop
      vertex -14.3069 -11.0123 -1
      vertex 11.3396 -12.3108 -1
      vertex 10.7725 -12.5776 -1
    endloop
  endfacet
  facet normal 0 0 -1
    outer loop
      vertex -14.3069 -11.0123 -1
      vertex 10.7725 -12.5776 -1
      vertex 10.157 -12.6951 -1
    endloop
  endfacet
  facet normal 0 0 -1
    outer loop
      vertex -14.3069 -11.0123 -1
      vertex 10.157 -12.6951 -1
      vertex 9.75 -12.6695 -1
    endloop
  endfacet
  facet normal 0 0 -1
    outer loop
      vertex -14.3069 -11.0123 -1
      vertex 9.75 -12.6695 -1
      vertex 9.75 -12.7 -1
    endloop
  endfacet
  facet normal 0 0 -1
    outer loop
      vertex -14.3069 -11.0123 -1
      vertex 9.75 -12.7 -1
      vertex -11.3437 -12.7 -1
    endloop
  endfacet
  facet normal 0 0 -1
    outer loop
      vertex -14.3069 -11.0123 -1
      vertex -11.3437 -12.7 -1
      vertex -11.5773 -12.7446 -1
    endloop
  endfacet
  facet normal 0 0 -1
    outer loop
      vertex -14.3069 -11.0123 -1
      vertex -11.5773 -12.7446 -1
      vertex -12.2653 -12.7013 -1
    endloop
  endfacet
  facet normal 0 0 -1
    outer loop
      vertex -14.3069 -11.0123 -1
      vertex -12.2653 -12.7013 -1
      vertex -12.9209 -12.4883 -1
    endloop
  endfacet
  facet normal 0 0 -1
    outer loop
      vertex -14.3069 -11.0123 -1
      vertex -12.9209 -12.4883 -1
      vertex -13.5029 -12.1189 -1
    endloop
  endfacet
  facet normal 0 0 -1
    outer loop
      vertex -14.3069 -11.0123 -1
      vertex -13.5029 -12.1189 -1
      vertex -13.9748 -11.6164 -1
    endloop
  endfacet
  facet normal 0 0 -1
    outer loop
      vertex -13.0284 10.5062 -1
      vertex -13.1142 10.1723 -1
      vertex -13.9748 11.6164 -1
    endloop
  endfacet
  facet normal 0 0 -1
    outer loop
      vertex -13.0284 9.49383 -1
      vertex -14.4783 10.3447 -1
      vertex -13.1142 9.82767 -1
    endloop
  endfacet
  facet normal 0 0 -1
    outer loop
      vertex -12.3354 8.75586 -1
      vertex -2.21788 0 -1
      vertex -12.6265 8.94054 -1
    endloop
  endfacet
  facet normal 0 0 -1
    outer loop
      vertex -12.8624 9.19179 -1
      vertex -14.4783 10.3447 -1
      vertex -13.0284 9.49383 -1
    endloop
  endfacet
  facet normal 0 0 -1
    outer loop
      vertex -12.6265 8.94054 -1
      vertex -14.4783 10.3447 -1
      vertex -12.8624 9.19179 -1
    endloop
  endfacet
  facet normal 0 0 -1
    outer loop
      vertex -2.21788 0 -1
      vertex -14.4783 10.3447 -1
      vertex -12.6265 8.94054 -1
    endloop
  endfacet
  facet normal 0 0 -1
    outer loop
      vertex -12.0076 8.64935 -1
      vertex -2.21788 0 -1
      vertex -12.3354 8.75586 -1
    endloop
  endfacet
  facet normal 0 0 -1
    outer loop
      vertex -11.6637 8.62771 -1
      vertex -2.21788 0 -1
      vertex -12.0076 8.64935 -1
    endloop
  endfacet
  facet normal 0 0 -1
    outer loop
      vertex 8.72156 -9.69383 -1
      vertex -14.3069 -11.0123 -1
      vertex 8.8876 -9.39179 -1
    endloop
  endfacet
  facet normal 0 0 -1
    outer loop
      vertex -11.0132 8.83905 -1
      vertex -2.21788 0 -1
      vertex -11.3251 8.6923 -1
    endloop
  endfacet
  facet normal 0 0 -1
    outer loop
      vertex -10.5451 9.33759 -1
      vertex -2.21788 0 -1
      vertex -10.7477 9.05875 -1
    endloop
  endfacet
  facet normal 0 0 -1
    outer loop
      vertex -2.21788 0 -1
      vertex -11.0132 8.83905 -1
      vertex -10.7477 9.05875 -1
    endloop
  endfacet
  facet normal 0 0 -1
    outer loop
      vertex -12.3354 11.2441 -1
      vertex -12.9209 12.4883 -1
      vertex -12.0076 11.3506 -1
    endloop
  endfacet
  facet normal 0 0 -1
    outer loop
      vertex -10.4182 9.65805 -1
      vertex -2.21788 0 -1
      vertex -10.5451 9.33759 -1
    endloop
  endfacet
  facet normal 0 0 -1
    outer loop
      vertex -10.5451 10.6624 -1
      vertex -2.21788 0 -1
      vertex -10.4182 10.3419 -1
    endloop
  endfacet
  facet normal 0 0 -1
    outer loop
      vertex -2.21788 0 -1
      vertex -10.4182 9.65805 -1
      vertex -10.375 10 -1
    endloop
  endfacet
  facet normal 0 0 -1
    outer loop
      vertex -2.21788 0 -1
      vertex -10.375 10 -1
      vertex -10.4182 10.3419 -1
    endloop
  endfacet
  facet normal 0 0 -1
    outer loop
      vertex -11.3251 11.3077 -1
      vertex -12.2653 12.7013 -1
      vertex -11.0132 11.161 -1
    endloop
  endfacet
  facet normal 0 0 -1
    outer loop
      vertex -2.21788 0 -1
      vertex -10.5451 10.6624 -1
      vertex -11.5773 12.7446 -1
    endloop
  endfacet
  facet normal 0 0 -1
    outer loop
      vertex -10.5451 10.6624 -1
      vertex -10.7477 10.9413 -1
      vertex -11.5773 12.7446 -1
    endloop
  endfacet
  facet normal 0 0 -1
    outer loop
      vertex -11.0132 11.161 -1
      vertex -12.2653 12.7013 -1
      vertex -10.7477 10.9413 -1
    endloop
  endfacet
  facet normal 0 0 -1
    outer loop
      vertex -11.6637 11.3723 -1
      vertex -12.2653 12.7013 -1
      vertex -11.3251 11.3077 -1
    endloop
  endfacet
  facet normal 0 0 -1
    outer loop
      vertex -12.0076 11.3506 -1
      vertex -12.9209 12.4883 -1
      vertex -11.6637 11.3723 -1
    endloop
  endfacet
  facet normal 0 0 -1
    outer loop
      vertex -12.6265 11.0595 -1
      vertex -13.5029 12.1189 -1
      vertex -12.3354 11.2441 -1
    endloop
  endfacet
  facet normal 0 0 -1
    outer loop
      vertex -12.8624 10.8082 -1
      vertex -13.5029 12.1189 -1
      vertex -12.6265 11.0595 -1
    endloop
  endfacet
  facet normal 0 0 -1
    outer loop
      vertex -13.0284 10.5062 -1
      vertex -13.9748 11.6164 -1
      vertex -12.8624 10.8082 -1
    endloop
  endfacet
  facet normal 0 0 -1
    outer loop
      vertex 8.63584 -10.0277 -1
      vertex -14.3069 -11.0123 -1
      vertex 8.72156 -9.69383 -1
    endloop
  endfacet
  facet normal 0 0 -1
    outer loop
      vertex 8.63584 -10.3723 -1
      vertex -14.3069 -11.0123 -1
      vertex 8.63584 -10.0277 -1
    endloop
  endfacet
  facet normal 0 0 -1
    outer loop
      vertex 8.8876 -11.0082 -1
      vertex -14.3069 -11.0123 -1
      vertex 8.72156 -10.7062 -1
    endloop
  endfacet
  facet normal 0 0 -1
    outer loop
      vertex -14.3069 -11.0123 -1
      vertex 8.63584 -10.3723 -1
      vertex 8.72156 -10.7062 -1
    endloop
  endfacet
  facet normal 0 0 -1
    outer loop
      vertex 11.3318 -10.5419 -1
      vertex 12.4215 -10.8217 -1
      vertex 11.2049 -10.8624 -1
    endloop
  endfacet
  facet normal 0 0 -1
    outer loop
      vertex -14.3069 -11.0123 -1
      vertex 8.8876 -11.0082 -1
      vertex 9.12354 -11.2595 -1
    endloop
  endfacet
  facet normal 0 0 -1
    outer loop
      vertex 10.0863 -11.5723 -1
      vertex 11.8224 -11.9114 -1
      vertex 9.74235 -11.5506 -1
    endloop
  endfacet
  facet normal 0 0 -1
    outer loop
      vertex -14.3069 -11.0123 -1
      vertex 9.41455 -11.4441 -1
      vertex 9.74235 -11.5506 -1
    endloop
  endfacet
  facet normal 0 0 -1
    outer loop
      vertex -14.3069 -11.0123 -1
      vertex 9.74235 -11.5506 -1
      vertex 11.8224 -11.9114 -1
    endloop
  endfacet
  facet normal 0 0 -1
    outer loop
      vertex 10.4249 -11.5077 -1
      vertex 12.1908 -11.4044 -1
      vertex 10.0863 -11.5723 -1
    endloop
  endfacet
  facet normal 0 0 -1
    outer loop
      vertex 10.7368 -11.361 -1
      vertex 12.1908 -11.4044 -1
      vertex 10.4249 -11.5077 -1
    endloop
  endfacet
  facet normal 0 0 -1
    outer loop
      vertex 11.2049 -10.8624 -1
      vertex 12.4215 -10.8217 -1
      vertex 11.0023 -11.1413 -1
    endloop
  endfacet
  facet normal 0 0 -1
    outer loop
      vertex 11.0023 -11.1413 -1
      vertex 12.1908 -11.4044 -1
      vertex 10.7368 -11.361 -1
    endloop
  endfacet
  facet normal 0 0 -1
    outer loop
      vertex 9.41455 -11.4441 -1
      vertex -14.3069 -11.0123 -1
      vertex 9.12354 -11.2595 -1
    endloop
  endfacet
  facet normal 0 0 -1
    outer loop
      vertex 11.375 -10.2 -1
      vertex 12.5 -10.2 -1
      vertex 11.3318 -10.5419 -1
    endloop
  endfacet
  facet normal 0 0 -1
    outer loop
      vertex 11.2049 -9.53759 -1
      vertex 12.4215 -9.57827 -1
      vertex 11.3318 -9.85805 -1
    endloop
  endfacet
  facet normal 0 0 -1
    outer loop
      vertex 11.0023 -9.25875 -1
      vertex 12.1908 -8.99562 -1
      vertex 11.2049 -9.53759 -1
    endloop
  endfacet
  facet normal 0 0 -1
    outer loop
      vertex 10.7368 -9.03905 -1
      vertex 12.1908 -8.99562 -1
      vertex 11.0023 -9.25875 -1
    endloop
  endfacet
  facet normal 0 0 -1
    outer loop
      vertex 10.4249 -8.8923 -1
      vertex 11.8224 -8.48863 -1
      vertex 10.7368 -9.03905 -1
    endloop
  endfacet
  facet normal 0 0 -1
    outer loop
      vertex 9.41455 -8.95586 -1
      vertex -14.3069 -11.0123 -1
      vertex 9.74235 -8.84935 -1
    endloop
  endfacet
  facet normal 0 0 -1
    outer loop
      vertex 10.0863 -8.82771 -1
      vertex 11.8224 -8.48863 -1
      vertex 10.4249 -8.8923 -1
    endloop
  endfacet
  facet normal 0 0 -1
    outer loop
      vertex 9.74235 -8.84935 -1
      vertex 11.8224 -8.48863 -1
      vertex 10.0863 -8.82771 -1
    endloop
  endfacet
  facet normal 0 0 -1
    outer loop
      vertex -14.3069 -11.0123 -1
      vertex 11.8224 -8.48863 -1
      vertex 9.74235 -8.84935 -1
    endloop
  endfacet
  facet normal 0 0 -1
    outer loop
      vertex 9.12354 -9.14054 -1
      vertex -14.3069 -11.0123 -1
      vertex 9.41455 -8.95586 -1
    endloop
  endfacet
  facet normal 0 0 -1
    outer loop
      vertex 8.8876 -9.39179 -1
      vertex -14.3069 -11.0123 -1
      vertex 9.12354 -9.14054 -1
    endloop
  endfacet
  facet normal 0 0 -1
    outer loop
      vertex 11.3318 -9.85805 -1
      vertex 12.5 -10.2 -1
      vertex 11.375 -10.2 -1
    endloop
  endfacet
  facet normal 0 0 -1
    outer loop
      vertex 10.7725 7.82236 -1
      vertex 11.8224 8.48863 -1
      vertex 11.3396 8.08918 -1
    endloop
  endfacet
  facet normal 0 0 -1
    outer loop
      vertex -11.3251 8.6923 -1
      vertex -2.21788 0 -1
      vertex -11.6637 8.62771 -1
    endloop
  endfacet
  facet normal 0 0 -1
    outer loop
      vertex -4.49738 7.7 -1
      vertex 10.7725 12.5776 -1
      vertex 11.3396 12.3108 -1
    endloop
  endfacet
  facet normal 0 0 -1
    outer loop
      vertex -4.49738 7.7 -1
      vertex 11.3396 12.3108 -1
      vertex 11.8224 11.9114 -1
    endloop
  endfacet
  facet normal 0 0 -1
    outer loop
      vertex -4.49738 7.7 -1
      vertex 11.8224 11.9114 -1
      vertex 12.1908 11.4044 -1
    endloop
  endfacet
  facet normal 0 0 -1
    outer loop
      vertex -4.49738 7.7 -1
      vertex 12.1908 11.4044 -1
      vertex 12.4215 10.8217 -1
    endloop
  endfacet
  facet normal 0 0 -1
    outer loop
      vertex -4.49738 7.7 -1
      vertex 12.4215 10.8217 -1
      vertex 12.5 10.2 -1
    endloop
  endfacet
  facet normal 0 0 -1
    outer loop
      vertex -4.49738 7.7 -1
      vertex 12.5 10.2 -1
      vertex 9.75 7.73054 -1
    endloop
  endfacet
  facet normal 0 0 -1
    outer loop
      vertex -4.49738 7.7 -1
      vertex 9.75 7.73054 -1
      vertex 9.75 7.7 -1
    endloop
  endfacet
  facet normal -1 0 0
    outer loop
      vertex -14.4783 -10.3447 -1
      vertex -14.4783 -10.3447 1
      vertex -14.4783 -9.65533 -1
    endloop
  endfacet
  facet normal -1 0 0
    outer loop
      vertex -14.4783 -9.65533 -1
      vertex -14.4783 -10.3447 1
      vertex -14.4783 -9.65533 1
    endloop
  endfacet
  facet normal -0.968583 -0.248689 0
    outer loop
      vertex -14.4783 -10.3447 -1
      vertex -14.3069 -11.0123 -1
      vertex -14.4783 -10.3447 1
    endloop
  endfacet
  facet normal -0.968583 -0.248689 0
    outer loop
      vertex -14.4783 -10.3447 1
      vertex -14.3069 -11.0123 -1
      vertex -14.3069 -11.0123 1
    endloop
  endfacet
  facet normal -0.876307 -0.481754 0
    outer loop
      vertex -14.3069 -11.0123 -1
      vertex -13.9748 -11.6164 -1
      vertex -14.3069 -11.0123 1
    endloop
  endfacet
  facet normal -0.876307 -0.481754 0
    outer loop
      vertex -14.3069 -11.0123 1
      vertex -13.9748 -11.6164 -1
      vertex -13.9748 -11.6164 1
    endloop
  endfacet
  facet normal -0.728968 -0.684547 0
    outer loop
      vertex -13.9748 -11.6164 -1
      vertex -13.5029 -12.1189 -1
      vertex -13.9748 -11.6164 1
    endloop
  endfacet
  facet normal -0.728968 -0.684547 0
    outer loop
      vertex -13.9748 -11.6164 1
      vertex -13.5029 -12.1189 -1
      vertex -13.5029 -12.1189 1
    endloop
  endfacet
  facet normal -0.535827 -0.844328 0
    outer loop
      vertex -13.5029 -12.1189 1
      vertex -13.5029 -12.1189 -1
      vertex -12.9209 -12.4883 -1
    endloop
  endfacet
  facet normal -0.535827 -0.844328 0
    outer loop
      vertex -12.9209 -12.4883 1
      vertex -13.5029 -12.1189 1
      vertex -12.9209 -12.4883 -1
    endloop
  endfacet
  facet normal -0.309018 -0.951056 0
    outer loop
      vertex -12.9209 -12.4883 1
      vertex -12.9209 -12.4883 -1
      vertex -12.2653 -12.7013 -1
    endloop
  endfacet
  facet normal -0.309018 -0.951056 0
    outer loop
      vertex -12.2653 -12.7013 1
      vertex -12.9209 -12.4883 1
      vertex -12.2653 -12.7013 -1
    endloop
  endfacet
  facet normal -0.0627911 -0.998027 0
    outer loop
      vertex -12.2653 -12.7013 1
      vertex -12.2653 -12.7013 -1
      vertex -11.5773 -12.7446 -1
    endloop
  endfacet
  facet normal -0.0627911 -0.998027 0
    outer loop
      vertex -11.5773 -12.7446 1
      vertex -12.2653 -12.7013 1
      vertex -11.5773 -12.7446 -1
    endloop
  endfacet
  facet normal 0.187383 -0.982287 0
    outer loop
      vertex -11.5773 -12.7446 1
      vertex -11.5773 -12.7446 -1
      vertex -11.3437 -12.7 -1
    endloop
  endfacet
  facet normal 0.187383 -0.982287 0
    outer loop
      vertex -11.3437 -12.7 1
      vertex -11.5773 -12.7446 1
      vertex -11.3437 -12.7 -1
    endloop
  endfacet
  facet normal 0 -1 0
    outer loop
      vertex -11.3437 -12.7 1
      vertex -11.3437 -12.7 -1
      vertex 9.75 -12.7 -1
    endloop
  endfacet
  facet normal 0 -1 0
    outer loop
      vertex 9.75 -12.7 1
      vertex -11.3437 -12.7 1
      vertex 9.75 -12.7 -1
    endloop
  endfacet
  facet normal 1 0 0
    outer loop
      vertex 9.75 -12.7 1
      vertex 9.75 -12.7 -1
      vertex 9.75 -12.6695 -1
    endloop
  endfacet
  facet normal 1 0 0
    outer loop
      vertex 9.75 -12.6695 1
      vertex 9.75 -12.7 1
      vertex 9.75 -12.6695 -1
    endloop
  endfacet
  facet normal -0.0627911 -0.998027 0
    outer loop
      vertex 9.75 -12.6695 1
      vertex 9.75 -12.6695 -1
      vertex 10.157 -12.6951 -1
    endloop
  endfacet
  facet normal -0.0627911 -0.998027 0
    outer loop
      vertex 10.157 -12.6951 1
      vertex 9.75 -12.6695 1
      vertex 10.157 -12.6951 -1
    endloop
  endfacet
  facet normal 0.187382 -0.982287 0
    outer loop
      vertex 10.157 -12.6951 1
      vertex 10.157 -12.6951 -1
      vertex 10.7725 -12.5776 -1
    endloop
  endfacet
  facet normal 0.187382 -0.982287 0
    outer loop
      vertex 10.7725 -12.5776 1
      vertex 10.157 -12.6951 1
      vertex 10.7725 -12.5776 -1
    endloop
  endfacet
  facet normal 0.425778 -0.904827 0
    outer loop
      vertex 10.7725 -12.5776 1
      vertex 10.7725 -12.5776 -1
      vertex 11.3396 -12.3108 -1
    endloop
  endfacet
  facet normal 0.425778 -0.904827 0
    outer loop
      vertex 11.3396 -12.3108 1
      vertex 10.7725 -12.5776 1
      vertex 11.3396 -12.3108 -1
    endloop
  endfacet
  facet normal 0.637424 -0.770514 0
    outer loop
      vertex 11.3396 -12.3108 1
      vertex 11.3396 -12.3108 -1
      vertex 11.8224 -11.9114 -1
    endloop
  endfacet
  facet normal 0.637424 -0.770514 0
    outer loop
      vertex 11.8224 -11.9114 1
      vertex 11.3396 -12.3108 1
      vertex 11.8224 -11.9114 -1
    endloop
  endfacet
  facet normal 0.809017 -0.587785 0
    outer loop
      vertex 11.8224 -11.9114 1
      vertex 11.8224 -11.9114 -1
      vertex 12.1908 -11.4044 -1
    endloop
  endfacet
  facet normal 0.809017 -0.587785 0
    outer loop
      vertex 12.1908 -11.4044 1
      vertex 11.8224 -11.9114 1
      vertex 12.1908 -11.4044 -1
    endloop
  endfacet
  facet normal 0.929776 -0.368125 0
    outer loop
      vertex 12.1908 -11.4044 1
      vertex 12.1908 -11.4044 -1
      vertex 12.4215 -10.8217 -1
    endloop
  endfacet
  facet normal 0.929776 -0.368125 0
    outer loop
      vertex 12.4215 -10.8217 1
      vertex 12.1908 -11.4044 1
      vertex 12.4215 -10.8217 -1
    endloop
  endfacet
  facet normal 0.992115 -0.125333 0
    outer loop
      vertex 12.4215 -10.8217 1
      vertex 12.4215 -10.8217 -1
      vertex 12.5 -10.2 -1
    endloop
  endfacet
  facet normal 0.992115 -0.125333 0
    outer loop
      vertex 12.5 -10.2 1
      vertex 12.4215 -10.8217 1
      vertex 12.5 -10.2 -1
    endloop
  endfacet
  facet normal 0.992115 0.125333 0
    outer loop
      vertex 12.5 -10.2 -1
      vertex 12.4215 -9.57827 -1
      vertex 12.4215 -9.57827 1
    endloop
  endfacet
  facet normal 0.992115 0.125333 0
    outer loop
      vertex 12.5 -10.2 1
      vertex 12.5 -10.2 -1
      vertex 12.4215 -9.57827 1
    endloop
  endfacet
  facet normal 0.929776 0.368125 0
    outer loop
      vertex 12.4215 -9.57827 -1
      vertex 12.1908 -8.99562 -1
      vertex 12.1908 -8.99562 1
    endloop
  endfacet
  facet normal 0.929776 0.368125 0
    outer loop
      vertex 12.4215 -9.57827 1
      vertex 12.4215 -9.57827 -1
      vertex 12.1908 -8.99562 1
    endloop
  endfacet
  facet normal 0.809017 0.587785 0
    outer loop
      vertex 12.1908 -8.99562 -1
      vertex 11.8224 -8.48863 -1
      vertex 11.8224 -8.48863 1
    endloop
  endfacet
  facet normal 0.809017 0.587785 0
    outer loop
      vertex 12.1908 -8.99562 1
      vertex 12.1908 -8.99562 -1
      vertex 11.8224 -8.48863 1
    endloop
  endfacet
  facet normal 0.637424 0.770514 0
    outer loop
      vertex 11.3396 -8.08918 -1
      vertex 11.3396 -8.08918 1
      vertex 11.8224 -8.48863 -1
    endloop
  endfacet
  facet normal 0.637424 0.770514 0
    outer loop
      vertex 11.8224 -8.48863 -1
      vertex 11.3396 -8.08918 1
      vertex 11.8224 -8.48863 1
    endloop
  endfacet
  facet normal 0.425778 0.904827 0
    outer loop
      vertex 10.7725 -7.82236 -1
      vertex 10.7725 -7.82236 1
      vertex 11.3396 -8.08918 -1
    endloop
  endfacet
  facet normal 0.425778 0.904827 0
    outer loop
      vertex 11.3396 -8.08918 -1
      vertex 10.7725 -7.82236 1
      vertex 11.3396 -8.08918 1
    endloop
  endfacet
  facet normal 0.187382 0.982287 0
    outer loop
      vertex 10.157 -7.70493 -1
      vertex 10.157 -7.70493 1
      vertex 10.7725 -7.82236 -1
    endloop
  endfacet
  facet normal 0.187382 0.982287 0
    outer loop
      vertex 10.7725 -7.82236 -1
      vertex 10.157 -7.70493 1
      vertex 10.7725 -7.82236 1
    endloop
  endfacet
  facet normal -0.0627911 0.998027 0
    outer loop
      vertex 9.75 -7.73054 -1
      vertex 9.75 -7.73054 1
      vertex 10.157 -7.70493 -1
    endloop
  endfacet
  facet normal -0.0627911 0.998027 0
    outer loop
      vertex 10.157 -7.70493 -1
      vertex 9.75 -7.73054 1
      vertex 10.157 -7.70493 1
    endloop
  endfacet
  facet normal 1 0 0
    outer loop
      vertex 9.75 -7.73054 1
      vertex 9.75 -7.73054 -1
      vertex 9.75 -7.7 -1
    endloop
  endfacet
  facet normal 1 0 0
    outer loop
      vertex 9.75 -7.7 1
      vertex 9.75 -7.73054 1
      vertex 9.75 -7.7 -1
    endloop
  endfacet
  facet normal 0 1 0
    outer loop
      vertex -4.49738 -7.7 -1
      vertex -4.49738 -7.7 1
      vertex 9.75 -7.7 -1
    endloop
  endfacet
  facet normal 0 1 0
    outer loop
      vertex 9.75 -7.7 -1
      vertex -4.49738 -7.7 1
      vertex 9.75 -7.7 1
    endloop
  endfacet
  facet normal 0.573576 -0.819152 0
    outer loop
      vertex -4.49738 -7.7 1
      vertex -4.49738 -7.7 -1
      vertex 3.80631 -1.88569 -1
    endloop
  endfacet
  facet normal 0.573576 -0.819152 0
    outer loop
      vertex 3.80631 -1.88569 1
      vertex -4.49738 -7.7 1
      vertex 3.80631 -1.88569 -1
    endloop
  endfacet
  facet normal 0.819152 0.573576 0
    outer loop
      vertex 3.80631 -1.88569 -1
      vertex 3.73493 -1.78375 -1
      vertex 3.73493 -1.78375 1
    endloop
  endfacet
  facet normal 0.819152 0.573576 0
    outer loop
      vertex 3.80631 -1.88569 1
      vertex 3.80631 -1.88569 -1
      vertex 3.73493 -1.78375 1
    endloop
  endfacet
  facet normal 0.637424 -0.770514 0
    outer loop
      vertex 3.73493 -1.78375 1
      vertex 3.73493 -1.78375 -1
      vertex 3.82242 -1.71137 -1
    endloop
  endfacet
  facet normal 0.637424 -0.770514 0
    outer loop
      vertex 3.82242 -1.71137 1
      vertex 3.73493 -1.78375 1
      vertex 3.82242 -1.71137 -1
    endloop
  endfacet
  facet normal 0.809017 -0.587785 0
    outer loop
      vertex 3.82242 -1.71137 1
      vertex 3.82242 -1.71137 -1
      vertex 4.19077 -1.20438 -1
    endloop
  endfacet
  facet normal 0.809017 -0.587785 0
    outer loop
      vertex 4.19077 -1.20438 1
      vertex 3.82242 -1.71137 1
      vertex 4.19077 -1.20438 -1
    endloop
  endfacet
  facet normal 0.929776 -0.368125 0
    outer loop
      vertex 4.19077 -1.20438 1
      vertex 4.19077 -1.20438 -1
      vertex 4.42146 -0.621725 -1
    endloop
  endfacet
  facet normal 0.929776 -0.368125 0
    outer loop
      vertex 4.42146 -0.621725 1
      vertex 4.19077 -1.20438 1
      vertex 4.42146 -0.621725 -1
    endloop
  endfacet
  facet normal 0.992115 -0.125333 0
    outer loop
      vertex 4.42146 -0.621725 1
      vertex 4.42146 -0.621725 -1
      vertex 4.5 0 -1
    endloop
  endfacet
  facet normal 0.992115 -0.125333 0
    outer loop
      vertex 4.5 0 1
      vertex 4.42146 -0.621725 1
      vertex 4.5 0 -1
    endloop
  endfacet
  facet normal 0.992115 0.125333 0
    outer loop
      vertex 4.5 0 -1
      vertex 4.42146 0.621725 -1
      vertex 4.42146 0.621725 1
    endloop
  endfacet
  facet normal 0.992115 0.125333 0
    outer loop
      vertex 4.5 0 1
      vertex 4.5 0 -1
      vertex 4.42146 0.621725 1
    endloop
  endfacet
  facet normal 0.929776 0.368125 0
    outer loop
      vertex 4.42146 0.621725 -1
      vertex 4.19077 1.20438 -1
      vertex 4.19077 1.20438 1
    endloop
  endfacet
  facet normal 0.929776 0.368125 0
    outer loop
      vertex 4.42146 0.621725 1
      vertex 4.42146 0.621725 -1
      vertex 4.19077 1.20438 1
    endloop
  endfacet
  facet normal 0.809017 0.587785 0
    outer loop
      vertex 4.19077 1.20438 -1
      vertex 3.82242 1.71137 -1
      vertex 3.82242 1.71137 1
    endloop
  endfacet
  facet normal 0.809017 0.587785 0
    outer loop
      vertex 4.19077 1.20438 1
      vertex 4.19077 1.20438 -1
      vertex 3.82242 1.71137 1
    endloop
  endfacet
  facet normal 0.637424 0.770514 0
    outer loop
      vertex 3.73493 1.78375 -1
      vertex 3.73493 1.78375 1
      vertex 3.82242 1.71137 -1
    endloop
  endfacet
  facet normal 0.637424 0.770514 0
    outer loop
      vertex 3.82242 1.71137 -1
      vertex 3.73493 1.78375 1
      vertex 3.82242 1.71137 1
    endloop
  endfacet
  facet normal 0.819152 -0.573576 0
    outer loop
      vertex 3.73493 1.78375 1
      vertex 3.73493 1.78375 -1
      vertex 3.80631 1.88569 -1
    endloop
  endfacet
  facet normal 0.819152 -0.573576 0
    outer loop
      vertex 3.80631 1.88569 1
      vertex 3.73493 1.78375 1
      vertex 3.80631 1.88569 -1
    endloop
  endfacet
  facet normal 0.573576 0.819152 0
    outer loop
      vertex -4.49738 7.7 -1
      vertex -4.49738 7.7 1
      vertex 3.80631 1.88569 -1
    endloop
  endfacet
  facet normal 0.573576 0.819152 0
    outer loop
      vertex 3.80631 1.88569 -1
      vertex -4.49738 7.7 1
      vertex 3.80631 1.88569 1
    endloop
  endfacet
  facet normal 0 -1 0
    outer loop
      vertex -4.49738 7.7 1
      vertex -4.49738 7.7 -1
      vertex 9.75 7.7 -1
    endloop
  endfacet
  facet normal 0 -1 0
    outer loop
      vertex 9.75 7.7 1
      vertex -4.49738 7.7 1
      vertex 9.75 7.7 -1
    endloop
  endfacet
  facet normal 1 0 0
    outer loop
      vertex 9.75 7.7 1
      vertex 9.75 7.7 -1
      vertex 9.75 7.73054 -1
    endloop
  endfacet
  facet normal 1 0 0
    outer loop
      vertex 9.75 7.73054 1
      vertex 9.75 7.7 1
      vertex 9.75 7.73054 -1
    endloop
  endfacet
  facet normal -0.0627911 -0.998027 0
    outer loop
      vertex 9.75 7.73054 1
      vertex 9.75 7.73054 -1
      vertex 10.157 7.70493 -1
    endloop
  endfacet
  facet normal -0.0627911 -0.998027 0
    outer loop
      vertex 10.157 7.70493 1
      vertex 9.75 7.73054 1
      vertex 10.157 7.70493 -1
    endloop
  endfacet
  facet normal 0.187382 -0.982287 0
    outer loop
      vertex 10.157 7.70493 1
      vertex 10.157 7.70493 -1
      vertex 10.7725 7.82236 -1
    endloop
  endfacet
  facet normal 0.187382 -0.982287 0
    outer loop
      vertex 10.7725 7.82236 1
      vertex 10.157 7.70493 1
      vertex 10.7725 7.82236 -1
    endloop
  endfacet
  facet normal 0.425778 -0.904827 0
    outer loop
      vertex 10.7725 7.82236 1
      vertex 10.7725 7.82236 -1
      vertex 11.3396 8.08918 -1
    endloop
  endfacet
  facet normal 0.425778 -0.904827 0
    outer loop
      vertex 11.3396 8.08918 1
      vertex 10.7725 7.82236 1
      vertex 11.3396 8.08918 -1
    endloop
  endfacet
  facet normal 0.637424 -0.770514 0
    outer loop
      vertex 11.3396 8.08918 1
      vertex 11.3396 8.08918 -1
      vertex 11.8224 8.48863 -1
    endloop
  endfacet
  facet normal 0.637424 -0.770514 0
    outer loop
      vertex 11.8224 8.48863 1
      vertex 11.3396 8.08918 1
      vertex 11.8224 8.48863 -1
    endloop
  endfacet
  facet normal 0.809017 -0.587785 0
    outer loop
      vertex 11.8224 8.48863 1
      vertex 11.8224 8.48863 -1
      vertex 12.1908 8.99562 -1
    endloop
  endfacet
  facet normal 0.809017 -0.587785 0
    outer loop
      vertex 12.1908 8.99562 1
      vertex 11.8224 8.48863 1
      vertex 12.1908 8.99562 -1
    endloop
  endfacet
  facet normal 0.929776 -0.368125 0
    outer loop
      vertex 12.1908 8.99562 1
      vertex 12.1908 8.99562 -1
      vertex 12.4215 9.57827 -1
    endloop
  endfacet
  facet normal 0.929776 -0.368125 0
    outer loop
      vertex 12.4215 9.57827 1
      vertex 12.1908 8.99562 1
      vertex 12.4215 9.57827 -1
    endloop
  endfacet
  facet normal 0.992115 -0.125333 0
    outer loop
      vertex 12.4215 9.57827 1
      vertex 12.4215 9.57827 -1
      vertex 12.5 10.2 -1
    endloop
  endfacet
  facet normal 0.992115 -0.125333 0
    outer loop
      vertex 12.5 10.2 1
      vertex 12.4215 9.57827 1
      vertex 12.5 10.2 -1
    endloop
  endfacet
  facet normal 0.992115 0.125333 0
    outer loop
      vertex 12.5 10.2 -1
      vertex 12.4215 10.8217 -1
      vertex 12.4215 10.8217 1
    endloop
  endfacet
  facet normal 0.992115 0.125333 0
    outer loop
      vertex 12.5 10.2 1
      vertex 12.5 10.2 -1
      vertex 12.4215 10.8217 1
    endloop
  endfacet
  facet normal 0.929776 0.368125 0
    outer loop
      vertex 12.4215 10.8217 -1
      vertex 12.1908 11.4044 -1
      vertex 12.1908 11.4044 1
    endloop
  endfacet
  facet normal 0.929776 0.368125 0
    outer loop
      vertex 12.4215 10.8217 1
      vertex 12.4215 10.8217 -1
      vertex 12.1908 11.4044 1
    endloop
  endfacet
  facet normal 0.809017 0.587785 0
    outer loop
      vertex 12.1908 11.4044 -1
      vertex 11.8224 11.9114 -1
      vertex 11.8224 11.9114 1
    endloop
  endfacet
  facet normal 0.809017 0.587785 0
    outer loop
      vertex 12.1908 11.4044 1
      vertex 12.1908 11.4044 -1
      vertex 11.8224 11.9114 1
    endloop
  endfacet
  facet normal 0.637424 0.770514 0
    outer loop
      vertex 11.3396 12.3108 -1
      vertex 11.3396 12.3108 1
      vertex 11.8224 11.9114 -1
    endloop
  endfacet
  facet normal 0.637424 0.770514 0
    outer loop
      vertex 11.8224 11.9114 -1
      vertex 11.3396 12.3108 1
      vertex 11.8224 11.9114 1
    endloop
  endfacet
  facet normal 0.425778 0.904827 0
    outer loop
      vertex 10.7725 12.5776 -1
      vertex 10.7725 12.5776 1
      vertex 11.3396 12.3108 -1
    endloop
  endfacet
  facet normal 0.425778 0.904827 0
    outer loop
      vertex 11.3396 12.3108 -1
      vertex 10.7725 12.5776 1
      vertex 11.3396 12.3108 1
    endloop
  endfacet
  facet normal 0.187382 0.982287 0
    outer loop
      vertex 10.157 12.6951 -1
      vertex 10.157 12.6951 1
      vertex 10.7725 12.5776 -1
    endloop
  endfacet
  facet normal 0.187382 0.982287 0
    outer loop
      vertex 10.7725 12.5776 -1
      vertex 10.157 12.6951 1
      vertex 10.7725 12.5776 1
    endloop
  endfacet
  facet normal -0.0627911 0.998027 0
    outer loop
      vertex 9.75 12.6695 -1
      vertex 9.75 12.6695 1
      vertex 10.157 12.6951 -1
    endloop
  endfacet
  facet normal -0.0627911 0.998027 0
    outer loop
      vertex 10.157 12.6951 -1
      vertex 9.75 12.6695 1
      vertex 10.157 12.6951 1
    endloop
  endfacet
  facet normal 1 0 0
    outer loop
      vertex 9.75 12.6695 1
      vertex 9.75 12.6695 -1
      vertex 9.75 12.7 -1
    endloop
  endfacet
  facet normal 1 0 0
    outer loop
      vertex 9.75 12.7 1
      vertex 9.75 12.6695 1
      vertex 9.75 12.7 -1
    endloop
  endfacet
  facet normal 0 1 0
    outer loop
      vertex -11.3437 12.7 -1
      vertex -11.3437 12.7 1
      vertex 9.75 12.7 -1
    endloop
  endfacet
  facet normal 0 1 0
    outer loop
      vertex 9.75 12.7 -1
      vertex -11.3437 12.7 1
      vertex 9.75 12.7 1
    endloop
  endfacet
  facet normal 0.187383 0.982287 0
    outer loop
      vertex -11.5773 12.7446 -1
      vertex -11.5773 12.7446 1
      vertex -11.3437 12.7 -1
    endloop
  endfacet
  facet normal 0.187383 0.982287 0
    outer loop
      vertex -11.3437 12.7 -1
      vertex -11.5773 12.7446 1
      vertex -11.3437 12.7 1
    endloop
  endfacet
  facet normal -0.0627911 0.998027 0
    outer loop
      vertex -12.2653 12.7013 -1
      vertex -12.2653 12.7013 1
      vertex -11.5773 12.7446 -1
    endloop
  endfacet
  facet normal -0.0627911 0.998027 0
    outer loop
      vertex -11.5773 12.7446 -1
      vertex -12.2653 12.7013 1
      vertex -11.5773 12.7446 1
    endloop
  endfacet
  facet normal -0.309018 0.951056 0
    outer loop
      vertex -12.9209 12.4883 -1
      vertex -12.9209 12.4883 1
      vertex -12.2653 12.7013 -1
    endloop
  endfacet
  facet normal -0.309018 0.951056 0
    outer loop
      vertex -12.2653 12.7013 -1
      vertex -12.9209 12.4883 1
      vertex -12.2653 12.7013 1
    endloop
  endfacet
  facet normal -0.535827 0.844328 0
    outer loop
      vertex -13.5029 12.1189 -1
      vertex -13.5029 12.1189 1
      vertex -12.9209 12.4883 -1
    endloop
  endfacet
  facet normal -0.535827 0.844328 0
    outer loop
      vertex -12.9209 12.4883 -1
      vertex -13.5029 12.1189 1
      vertex -12.9209 12.4883 1
    endloop
  endfacet
  facet normal -0.728968 0.684547 0
    outer loop
      vertex -13.9748 11.6164 -1
      vertex -13.9748 11.6164 1
      vertex -13.5029 12.1189 -1
    endloop
  endfacet
  facet normal -0.728968 0.684547 0
    outer loop
      vertex -13.5029 12.1189 -1
      vertex -13.9748 11.6164 1
      vertex -13.5029 12.1189 1
    endloop
  endfacet
  facet normal -0.876307 0.481754 0
    outer loop
      vertex -14.3069 11.0123 -1
      vertex -14.3069 11.0123 1
      vertex -13.9748 11.6164 -1
    endloop
  endfacet
  facet normal -0.876307 0.481754 0
    outer loop
      vertex -13.9748 11.6164 -1
      vertex -14.3069 11.0123 1
      vertex -13.9748 11.6164 1
    endloop
  endfacet
  facet normal -0.968583 0.248689 0
    outer loop
      vertex -14.4783 10.3447 -1
      vertex -14.4783 10.3447 1
      vertex -14.3069 11.0123 -1
    endloop
  endfacet
  facet normal -0.968583 0.248689 0
    outer loop
      vertex -14.3069 11.0123 -1
      vertex -14.4783 10.3447 1
      vertex -14.3069 11.0123 1
    endloop
  endfacet
  facet normal -1 0 0
    outer loop
      vertex -14.4783 9.65533 -1
      vertex -14.4783 9.65533 1
      vertex -14.4783 10.3447 -1
    endloop
  endfacet
  facet normal -1 0 0
    outer loop
      vertex -14.4783 10.3447 -1
      vertex -14.4783 9.65533 1
      vertex -14.4783 10.3447 1
    endloop
  endfacet
  facet normal -0.968583 -0.248689 0
    outer loop
      vertex -14.4783 9.65533 -1
      vertex -14.3069 8.98766 -1
      vertex -14.4783 9.65533 1
    endloop
  endfacet
  facet normal -0.968583 -0.248689 0
    outer loop
      vertex -14.4783 9.65533 1
      vertex -14.3069 8.98766 -1
      vertex -14.3069 8.98766 1
    endloop
  endfacet
  facet normal -0.876307 -0.481754 0
    outer loop
      vertex -14.3069 8.98766 -1
      vertex -13.9748 8.38359 -1
      vertex -14.3069 8.98766 1
    endloop
  endfacet
  facet normal -0.876307 -0.481754 0
    outer loop
      vertex -14.3069 8.98766 1
      vertex -13.9748 8.38359 -1
      vertex -13.9748 8.38359 1
    endloop
  endfacet
  facet normal -0.728968 -0.684547 0
    outer loop
      vertex -13.9748 8.38359 -1
      vertex -13.7703 8.16579 -1
      vertex -13.9748 8.38359 1
    endloop
  endfacet
  facet normal -0.728968 -0.684547 0
    outer loop
      vertex -13.9748 8.38359 1
      vertex -13.7703 8.16579 -1
      vertex -13.7703 8.16579 1
    endloop
  endfacet
  facet normal -0.819152 0.573576 0
    outer loop
      vertex -13.8063 8.11431 -1
      vertex -13.8063 8.11431 1
      vertex -13.7703 8.16579 -1
    endloop
  endfacet
  facet normal -0.819152 0.573576 0
    outer loop
      vertex -13.7703 8.16579 -1
      vertex -13.8063 8.11431 1
      vertex -13.7703 8.16579 1
    endloop
  endfacet
  facet normal -0.573576 -0.819152 0
    outer loop
      vertex -13.8063 8.11431 1
      vertex -13.8063 8.11431 -1
      vertex -13.5599 7.94177 -1
    endloop
  endfacet
  facet normal -0.573576 -0.819152 0
    outer loop
      vertex -13.5599 7.94177 1
      vertex -13.8063 8.11431 1
      vertex -13.5599 7.94177 -1
    endloop
  endfacet
  facet normal -0.728968 -0.684547 0
    outer loop
      vertex -13.5599 7.94177 -1
      vertex -13.5029 7.88109 -1
      vertex -13.5599 7.94177 1
    endloop
  endfacet
  facet normal -0.728968 -0.684547 0
    outer loop
      vertex -13.5599 7.94177 1
      vertex -13.5029 7.88109 -1
      vertex -13.5029 7.88109 1
    endloop
  endfacet
  facet normal -0.535827 -0.844328 0
    outer loop
      vertex -13.5029 7.88109 1
      vertex -13.5029 7.88109 -1
      vertex -13.1861 7.68002 -1
    endloop
  endfacet
  facet normal -0.535827 -0.844328 0
    outer loop
      vertex -13.1861 7.68002 1
      vertex -13.5029 7.88109 1
      vertex -13.1861 7.68002 -1
    endloop
  endfacet
  facet normal -0.573576 -0.819152 0
    outer loop
      vertex -13.1861 7.68002 1
      vertex -13.1861 7.68002 -1
      vertex -2.21788 0 -1
    endloop
  endfacet
  facet normal -0.573576 -0.819152 0
    outer loop
      vertex -2.21788 0 1
      vertex -13.1861 7.68002 1
      vertex -2.21788 0 -1
    endloop
  endfacet
  facet normal -0.573576 0.819152 0
    outer loop
      vertex -13.1861 -7.68002 -1
      vertex -13.1861 -7.68002 1
      vertex -2.21788 0 -1
    endloop
  endfacet
  facet normal -0.573576 0.819152 0
    outer loop
      vertex -2.21788 0 -1
      vertex -13.1861 -7.68002 1
      vertex -2.21788 0 1
    endloop
  endfacet
  facet normal -0.535827 0.844328 0
    outer loop
      vertex -13.5029 -7.88109 -1
      vertex -13.5029 -7.88109 1
      vertex -13.1861 -7.68002 -1
    endloop
  endfacet
  facet normal -0.535827 0.844328 0
    outer loop
      vertex -13.1861 -7.68002 -1
      vertex -13.5029 -7.88109 1
      vertex -13.1861 -7.68002 1
    endloop
  endfacet
  facet normal -0.728968 0.684547 0
    outer loop
      vertex -13.5599 -7.94177 -1
      vertex -13.5599 -7.94177 1
      vertex -13.5029 -7.88109 -1
    endloop
  endfacet
  facet normal -0.728968 0.684547 0
    outer loop
      vertex -13.5029 -7.88109 -1
      vertex -13.5599 -7.94177 1
      vertex -13.5029 -7.88109 1
    endloop
  endfacet
  facet normal -0.573576 0.819152 0
    outer loop
      vertex -13.8063 -8.11431 -1
      vertex -13.8063 -8.11431 1
      vertex -13.5599 -7.94177 -1
    endloop
  endfacet
  facet normal -0.573576 0.819152 0
    outer loop
      vertex -13.5599 -7.94177 -1
      vertex -13.8063 -8.11431 1
      vertex -13.5599 -7.94177 1
    endloop
  endfacet
  facet normal -0.819152 -0.573576 0
    outer loop
      vertex -13.8063 -8.11431 -1
      vertex -13.7703 -8.16579 -1
      vertex -13.8063 -8.11431 1
    endloop
  endfacet
  facet normal -0.819152 -0.573576 0
    outer loop
      vertex -13.8063 -8.11431 1
      vertex -13.7703 -8.16579 -1
      vertex -13.7703 -8.16579 1
    endloop
  endfacet
  facet normal -0.728968 0.684547 0
    outer loop
      vertex -13.9748 -8.38359 -1
      vertex -13.9748 -8.38359 1
      vertex -13.7703 -8.16579 -1
    endloop
  endfacet
  facet normal -0.728968 0.684547 0
    outer loop
      vertex -13.7703 -8.16579 -1
      vertex -13.9748 -8.38359 1
      vertex -13.7703 -8.16579 1
    endloop
  endfacet
  facet normal -0.876307 0.481754 0
    outer loop
      vertex -14.3069 -8.98766 -1
      vertex -14.3069 -8.98766 1
      vertex -13.9748 -8.38359 -1
    endloop
  endfacet
  facet normal -0.876307 0.481754 0
    outer loop
      vertex -13.9748 -8.38359 -1
      vertex -14.3069 -8.98766 1
      vertex -13.9748 -8.38359 1
    endloop
  endfacet
  facet normal -0.968583 0.248689 0
    outer loop
      vertex -14.4783 -9.65533 -1
      vertex -14.4783 -9.65533 1
      vertex -14.3069 -8.98766 -1
    endloop
  endfacet
  facet normal -0.968583 0.248689 0
    outer loop
      vertex -14.3069 -8.98766 -1
      vertex -14.4783 -9.65533 1
      vertex -14.3069 -8.98766 1
    endloop
  endfacet
  facet normal 0.968583 -0.24869 0
    outer loop
      vertex -13.0284 10.5062 -1
      vertex -13.0284 10.5062 1
      vertex -13.1142 10.1723 1
    endloop
  endfacet
  facet normal 0.968583 -0.24869 0
    outer loop
      vertex -13.1142 10.1723 -1
      vertex -13.0284 10.5062 -1
      vertex -13.1142 10.1723 1
    endloop
  endfacet
  facet normal 1 0 0
    outer loop
      vertex -13.1142 10.1723 -1
      vertex -13.1142 10.1723 1
      vertex -13.1142 9.82767 1
    endloop
  endfacet
  facet normal 1 0 0
    outer loop
      vertex -13.1142 9.82767 -1
      vertex -13.1142 10.1723 -1
      vertex -13.1142 9.82767 1
    endloop
  endfacet
  facet normal 0.876306 -0.481755 0
    outer loop
      vertex -12.8624 10.8082 -1
      vertex -12.8624 10.8082 1
      vertex -13.0284 10.5062 1
    endloop
  endfacet
  facet normal 0.876306 -0.481755 0
    outer loop
      vertex -13.0284 10.5062 -1
      vertex -12.8624 10.8082 -1
      vertex -13.0284 10.5062 1
    endloop
  endfacet
  facet normal 0.728969 -0.684546 0
    outer loop
      vertex -12.6265 11.0595 -1
      vertex -12.6265 11.0595 1
      vertex -12.8624 10.8082 1
    endloop
  endfacet
  facet normal 0.728969 -0.684546 0
    outer loop
      vertex -12.8624 10.8082 -1
      vertex -12.6265 11.0595 -1
      vertex -12.8624 10.8082 1
    endloop
  endfacet
  facet normal 0.535826 -0.844328 0
    outer loop
      vertex -12.3354 11.2441 -1
      vertex -12.3354 11.2441 1
      vertex -12.6265 11.0595 1
    endloop
  endfacet
  facet normal 0.535826 -0.844328 0
    outer loop
      vertex -12.6265 11.0595 -1
      vertex -12.3354 11.2441 -1
      vertex -12.6265 11.0595 1
    endloop
  endfacet
  facet normal 0.309017 -0.951057 0
    outer loop
      vertex -12.0076 11.3506 -1
      vertex -12.0076 11.3506 1
      vertex -12.3354 11.2441 1
    endloop
  endfacet
  facet normal 0.309017 -0.951057 0
    outer loop
      vertex -12.3354 11.2441 -1
      vertex -12.0076 11.3506 -1
      vertex -12.3354 11.2441 1
    endloop
  endfacet
  facet normal 0.0627912 -0.998027 0
    outer loop
      vertex -11.6637 11.3723 -1
      vertex -11.6637 11.3723 1
      vertex -12.0076 11.3506 1
    endloop
  endfacet
  facet normal 0.0627912 -0.998027 0
    outer loop
      vertex -12.0076 11.3506 -1
      vertex -11.6637 11.3723 -1
      vertex -12.0076 11.3506 1
    endloop
  endfacet
  facet normal -0.187381 -0.982287 0
    outer loop
      vertex -11.3251 11.3077 -1
      vertex -11.3251 11.3077 1
      vertex -11.6637 11.3723 1
    endloop
  endfacet
  facet normal -0.187381 -0.982287 0
    outer loop
      vertex -11.6637 11.3723 -1
      vertex -11.3251 11.3077 -1
      vertex -11.6637 11.3723 1
    endloop
  endfacet
  facet normal -0.425779 -0.904827 0
    outer loop
      vertex -11.0132 11.161 -1
      vertex -11.0132 11.161 1
      vertex -11.3251 11.3077 1
    endloop
  endfacet
  facet normal -0.425779 -0.904827 0
    outer loop
      vertex -11.3251 11.3077 -1
      vertex -11.0132 11.161 -1
      vertex -11.3251 11.3077 1
    endloop
  endfacet
  facet normal -0.637425 -0.770513 0
    outer loop
      vertex -10.7477 10.9413 -1
      vertex -10.7477 10.9413 1
      vertex -11.0132 11.161 1
    endloop
  endfacet
  facet normal -0.637425 -0.770513 0
    outer loop
      vertex -11.0132 11.161 -1
      vertex -10.7477 10.9413 -1
      vertex -11.0132 11.161 1
    endloop
  endfacet
  facet normal -0.809017 -0.587786 0
    outer loop
      vertex -10.5451 10.6624 1
      vertex -10.7477 10.9413 1
      vertex -10.5451 10.6624 -1
    endloop
  endfacet
  facet normal -0.809017 -0.587786 0
    outer loop
      vertex -10.5451 10.6624 -1
      vertex -10.7477 10.9413 1
      vertex -10.7477 10.9413 -1
    endloop
  endfacet
  facet normal -0.929776 -0.368125 0
    outer loop
      vertex -10.4182 10.3419 1
      vertex -10.5451 10.6624 1
      vertex -10.4182 10.3419 -1
    endloop
  endfacet
  facet normal -0.929776 -0.368125 0
    outer loop
      vertex -10.4182 10.3419 -1
      vertex -10.5451 10.6624 1
      vertex -10.5451 10.6624 -1
    endloop
  endfacet
  facet normal -0.992115 -0.125333 0
    outer loop
      vertex -10.375 10 1
      vertex -10.4182 10.3419 1
      vertex -10.375 10 -1
    endloop
  endfacet
  facet normal -0.992115 -0.125333 0
    outer loop
      vertex -10.375 10 -1
      vertex -10.4182 10.3419 1
      vertex -10.4182 10.3419 -1
    endloop
  endfacet
  facet normal -0.992115 0.125333 0
    outer loop
      vertex -10.375 10 1
      vertex -10.375 10 -1
      vertex -10.4182 9.65805 1
    endloop
  endfacet
  facet normal -0.992115 0.125333 0
    outer loop
      vertex -10.4182 9.65805 1
      vertex -10.375 10 -1
      vertex -10.4182 9.65805 -1
    endloop
  endfacet
  facet normal -0.929776 0.368125 0
    outer loop
      vertex -10.4182 9.65805 1
      vertex -10.4182 9.65805 -1
      vertex -10.5451 9.33759 1
    endloop
  endfacet
  facet normal -0.929776 0.368125 0
    outer loop
      vertex -10.5451 9.33759 1
      vertex -10.4182 9.65805 -1
      vertex -10.5451 9.33759 -1
    endloop
  endfacet
  facet normal -0.809017 0.587786 0
    outer loop
      vertex -10.5451 9.33759 1
      vertex -10.5451 9.33759 -1
      vertex -10.7477 9.05875 1
    endloop
  endfacet
  facet normal -0.809017 0.587786 0
    outer loop
      vertex -10.7477 9.05875 1
      vertex -10.5451 9.33759 -1
      vertex -10.7477 9.05875 -1
    endloop
  endfacet
  facet normal -0.637425 0.770513 0
    outer loop
      vertex -10.7477 9.05875 1
      vertex -10.7477 9.05875 -1
      vertex -11.0132 8.83905 1
    endloop
  endfacet
  facet normal -0.637425 0.770513 0
    outer loop
      vertex -11.0132 8.83905 1
      vertex -10.7477 9.05875 -1
      vertex -11.0132 8.83905 -1
    endloop
  endfacet
  facet normal -0.425779 0.904827 0
    outer loop
      vertex -11.0132 8.83905 1
      vertex -11.0132 8.83905 -1
      vertex -11.3251 8.6923 1
    endloop
  endfacet
  facet normal -0.425779 0.904827 0
    outer loop
      vertex -11.3251 8.6923 1
      vertex -11.0132 8.83905 -1
      vertex -11.3251 8.6923 -1
    endloop
  endfacet
  facet normal -0.187381 0.982287 0
    outer loop
      vertex -11.3251 8.6923 1
      vertex -11.3251 8.6923 -1
      vertex -11.6637 8.62771 1
    endloop
  endfacet
  facet normal -0.187381 0.982287 0
    outer loop
      vertex -11.6637 8.62771 1
      vertex -11.3251 8.6923 -1
      vertex -11.6637 8.62771 -1
    endloop
  endfacet
  facet normal 0.0627912 0.998027 0
    outer loop
      vertex -11.6637 8.62771 1
      vertex -11.6637 8.62771 -1
      vertex -12.0076 8.64935 1
    endloop
  endfacet
  facet normal 0.0627912 0.998027 0
    outer loop
      vertex -12.0076 8.64935 1
      vertex -11.6637 8.62771 -1
      vertex -12.0076 8.64935 -1
    endloop
  endfacet
  facet normal 0.309017 0.951057 0
    outer loop
      vertex -12.0076 8.64935 1
      vertex -12.0076 8.64935 -1
      vertex -12.3354 8.75586 1
    endloop
  endfacet
  facet normal 0.309017 0.951057 0
    outer loop
      vertex -12.3354 8.75586 1
      vertex -12.0076 8.64935 -1
      vertex -12.3354 8.75586 -1
    endloop
  endfacet
  facet normal 0.535826 0.844328 0
    outer loop
      vertex -12.3354 8.75586 1
      vertex -12.3354 8.75586 -1
      vertex -12.6265 8.94054 1
    endloop
  endfacet
  facet normal 0.535826 0.844328 0
    outer loop
      vertex -12.6265 8.94054 1
      vertex -12.3354 8.75586 -1
      vertex -12.6265 8.94054 -1
    endloop
  endfacet
  facet normal 0.728969 0.684546 0
    outer loop
      vertex -12.8624 9.19179 1
      vertex -12.6265 8.94054 1
      vertex -12.6265 8.94054 -1
    endloop
  endfacet
  facet normal 0.728969 0.684546 0
    outer loop
      vertex -12.8624 9.19179 -1
      vertex -12.8624 9.19179 1
      vertex -12.6265 8.94054 -1
    endloop
  endfacet
  facet normal 0.876306 0.481755 0
    outer loop
      vertex -13.0284 9.49383 1
      vertex -12.8624 9.19179 1
      vertex -12.8624 9.19179 -1
    endloop
  endfacet
  facet normal 0.876306 0.481755 0
    outer loop
      vertex -13.0284 9.49383 -1
      vertex -13.0284 9.49383 1
      vertex -12.8624 9.19179 -1
    endloop
  endfacet
  facet normal 0.968583 0.24869 0
    outer loop
      vertex -13.1142 9.82767 1
      vertex -13.0284 9.49383 1
      vertex -13.0284 9.49383 -1
    endloop
  endfacet
  facet normal 0.968583 0.24869 0
    outer loop
      vertex -13.1142 9.82767 -1
      vertex -13.1142 9.82767 1
      vertex -13.0284 9.49383 -1
    endloop
  endfacet
  facet normal 0.968583 -0.24869 0
    outer loop
      vertex 8.72156 -9.69383 -1
      vertex 8.72156 -9.69383 1
      vertex 8.63584 -10.0277 1
    endloop
  endfacet
  facet normal 0.968583 -0.24869 0
    outer loop
      vertex 8.63584 -10.0277 -1
      vertex 8.72156 -9.69383 -1
      vertex 8.63584 -10.0277 1
    endloop
  endfacet
  facet normal 1 0 0
    outer loop
      vertex 8.63584 -10.0277 -1
      vertex 8.63584 -10.0277 1
      vertex 8.63584 -10.3723 1
    endloop
  endfacet
  facet normal 1 0 0
    outer loop
      vertex 8.63584 -10.3723 -1
      vertex 8.63584 -10.0277 -1
      vertex 8.63584 -10.3723 1
    endloop
  endfacet
  facet normal 0.876306 -0.481755 0
    outer loop
      vertex 8.8876 -9.39179 -1
      vertex 8.8876 -9.39179 1
      vertex 8.72156 -9.69383 1
    endloop
  endfacet
  facet normal 0.876306 -0.481755 0
    outer loop
      vertex 8.72156 -9.69383 -1
      vertex 8.8876 -9.39179 -1
      vertex 8.72156 -9.69383 1
    endloop
  endfacet
  facet normal 0.728969 -0.684546 0
    outer loop
      vertex 9.12354 -9.14054 -1
      vertex 9.12354 -9.14054 1
      vertex 8.8876 -9.39179 1
    endloop
  endfacet
  facet normal 0.728969 -0.684546 0
    outer loop
      vertex 8.8876 -9.39179 -1
      vertex 9.12354 -9.14054 -1
      vertex 8.8876 -9.39179 1
    endloop
  endfacet
  facet normal 0.535826 -0.844328 0
    outer loop
      vertex 9.41455 -8.95586 -1
      vertex 9.41455 -8.95586 1
      vertex 9.12354 -9.14054 1
    endloop
  endfacet
  facet normal 0.535826 -0.844328 0
    outer loop
      vertex 9.12354 -9.14054 -1
      vertex 9.41455 -8.95586 -1
      vertex 9.12354 -9.14054 1
    endloop
  endfacet
  facet normal 0.309017 -0.951057 0
    outer loop
      vertex 9.74235 -8.84935 -1
      vertex 9.74235 -8.84935 1
      vertex 9.41455 -8.95586 1
    endloop
  endfacet
  facet normal 0.309017 -0.951057 0
    outer loop
      vertex 9.41455 -8.95586 -1
      vertex 9.74235 -8.84935 -1
      vertex 9.41455 -8.95586 1
    endloop
  endfacet
  facet normal 0.0627912 -0.998027 0
    outer loop
      vertex 10.0863 -8.82771 -1
      vertex 10.0863 -8.82771 1
      vertex 9.74235 -8.84935 1
    endloop
  endfacet
  facet normal 0.0627912 -0.998027 0
    outer loop
      vertex 9.74235 -8.84935 -1
      vertex 10.0863 -8.82771 -1
      vertex 9.74235 -8.84935 1
    endloop
  endfacet
  facet normal -0.187381 -0.982287 0
    outer loop
      vertex 10.4249 -8.8923 -1
      vertex 10.4249 -8.8923 1
      vertex 10.0863 -8.82771 1
    endloop
  endfacet
  facet normal -0.187381 -0.982287 0
    outer loop
      vertex 10.0863 -8.82771 -1
      vertex 10.4249 -8.8923 -1
      vertex 10.0863 -8.82771 1
    endloop
  endfacet
  facet normal -0.425779 -0.904827 0
    outer loop
      vertex 10.7368 -9.03905 -1
      vertex 10.7368 -9.03905 1
      vertex 10.4249 -8.8923 1
    endloop
  endfacet
  facet normal -0.425779 -0.904827 0
    outer loop
      vertex 10.4249 -8.8923 -1
      vertex 10.7368 -9.03905 -1
      vertex 10.4249 -8.8923 1
    endloop
  endfacet
  facet normal -0.637425 -0.770513 0
    outer loop
      vertex 11.0023 -9.25875 -1
      vertex 11.0023 -9.25875 1
      vertex 10.7368 -9.03905 1
    endloop
  endfacet
  facet normal -0.637425 -0.770513 0
    outer loop
      vertex 10.7368 -9.03905 -1
      vertex 11.0023 -9.25875 -1
      vertex 10.7368 -9.03905 1
    endloop
  endfacet
  facet normal -0.809017 -0.587786 0
    outer loop
      vertex 11.2049 -9.53759 1
      vertex 11.0023 -9.25875 1
      vertex 11.2049 -9.53759 -1
    endloop
  endfacet
  facet normal -0.809017 -0.587786 0
    outer loop
      vertex 11.2049 -9.53759 -1
      vertex 11.0023 -9.25875 1
      vertex 11.0023 -9.25875 -1
    endloop
  endfacet
  facet normal -0.929776 -0.368125 0
    outer loop
      vertex 11.3318 -9.85805 1
      vertex 11.2049 -9.53759 1
      vertex 11.3318 -9.85805 -1
    endloop
  endfacet
  facet normal -0.929776 -0.368125 0
    outer loop
      vertex 11.3318 -9.85805 -1
      vertex 11.2049 -9.53759 1
      vertex 11.2049 -9.53759 -1
    endloop
  endfacet
  facet normal -0.992115 -0.125333 0
    outer loop
      vertex 11.375 -10.2 1
      vertex 11.3318 -9.85805 1
      vertex 11.375 -10.2 -1
    endloop
  endfacet
  facet normal -0.992115 -0.125333 0
    outer loop
      vertex 11.375 -10.2 -1
      vertex 11.3318 -9.85805 1
      vertex 11.3318 -9.85805 -1
    endloop
  endfacet
  facet normal -0.992115 0.125333 0
    outer loop
      vertex 11.375 -10.2 1
      vertex 11.375 -10.2 -1
      vertex 11.3318 -10.5419 1
    endloop
  endfacet
  facet normal -0.992115 0.125333 0
    outer loop
      vertex 11.3318 -10.5419 1
      vertex 11.375 -10.2 -1
      vertex 11.3318 -10.5419 -1
    endloop
  endfacet
  facet normal -0.929776 0.368125 0
    outer loop
      vertex 11.3318 -10.5419 1
      vertex 11.3318 -10.5419 -1
      vertex 11.2049 -10.8624 1
    endloop
  endfacet
  facet normal -0.929776 0.368125 0
    outer loop
      vertex 11.2049 -10.8624 1
      vertex 11.3318 -10.5419 -1
      vertex 11.2049 -10.8624 -1
    endloop
  endfacet
  facet normal -0.809017 0.587786 0
    outer loop
      vertex 11.2049 -10.8624 1
      vertex 11.2049 -10.8624 -1
      vertex 11.0023 -11.1413 1
    endloop
  endfacet
  facet normal -0.809017 0.587786 0
    outer loop
      vertex 11.0023 -11.1413 1
      vertex 11.2049 -10.8624 -1
      vertex 11.0023 -11.1413 -1
    endloop
  endfacet
  facet normal -0.637425 0.770513 0
    outer loop
      vertex 11.0023 -11.1413 1
      vertex 11.0023 -11.1413 -1
      vertex 10.7368 -11.361 1
    endloop
  endfacet
  facet normal -0.637425 0.770513 0
    outer loop
      vertex 10.7368 -11.361 1
      vertex 11.0023 -11.1413 -1
      vertex 10.7368 -11.361 -1
    endloop
  endfacet
  facet normal -0.425779 0.904827 0
    outer loop
      vertex 10.7368 -11.361 1
      vertex 10.7368 -11.361 -1
      vertex 10.4249 -11.5077 1
    endloop
  endfacet
  facet normal -0.425779 0.904827 0
    outer loop
      vertex 10.4249 -11.5077 1
      vertex 10.7368 -11.361 -1
      vertex 10.4249 -11.5077 -1
    endloop
  endfacet
  facet normal -0.187381 0.982287 0
    outer loop
      vertex 10.4249 -11.5077 1
      vertex 10.4249 -11.5077 -1
      vertex 10.0863 -11.5723 1
    endloop
  endfacet
  facet normal -0.187381 0.982287 0
    outer loop
      vertex 10.0863 -11.5723 1
      vertex 10.4249 -11.5077 -1
      vertex 10.0863 -11.5723 -1
    endloop
  endfacet
  facet normal 0.0627912 0.998027 0
    outer loop
      vertex 10.0863 -11.5723 1
      vertex 10.0863 -11.5723 -1
      vertex 9.74235 -11.5506 1
    endloop
  endfacet
  facet normal 0.0627912 0.998027 0
    outer loop
      vertex 9.74235 -11.5506 1
      vertex 10.0863 -11.5723 -1
      vertex 9.74235 -11.5506 -1
    endloop
  endfacet
  facet normal 0.309017 0.951057 0
    outer loop
      vertex 9.74235 -11.5506 1
      vertex 9.74235 -11.5506 -1
      vertex 9.41455 -11.4441 1
    endloop
  endfacet
  facet normal 0.309017 0.951057 0
    outer loop
      vertex 9.41455 -11.4441 1
      vertex 9.74235 -11.5506 -1
      vertex 9.41455 -11.4441 -1
    endloop
  endfacet
  facet normal 0.535826 0.844328 0
    outer loop
      vertex 9.41455 -11.4441 1
      vertex 9.41455 -11.4441 -1
      vertex 9.12354 -11.2595 1
    endloop
  endfacet
  facet normal 0.535826 0.844328 0
    outer loop
      vertex 9.12354 -11.2595 1
      vertex 9.41455 -11.4441 -1
      vertex 9.12354 -11.2595 -1
    endloop
  endfacet
  facet normal 0.728969 0.684546 0
    outer loop
      vertex 8.8876 -11.0082 1
      vertex 9.12354 -11.2595 1
      vertex 9.12354 -11.2595 -1
    endloop
  endfacet
  facet normal 0.728969 0.684546 0
    outer loop
      vertex 8.8876 -11.0082 -1
      vertex 8.8876 -11.0082 1
      vertex 9.12354 -11.2595 -1
    endloop
  endfacet
  facet normal 0.876306 0.481755 0
    outer loop
      vertex 8.72156 -10.7062 1
      vertex 8.8876 -11.0082 1
      vertex 8.8876 -11.0082 -1
    endloop
  endfacet
  facet normal 0.876306 0.481755 0
    outer loop
      vertex 8.72156 -10.7062 -1
      vertex 8.72156 -10.7062 1
      vertex 8.8876 -11.0082 -1
    endloop
  endfacet
  facet normal 0.968583 0.24869 0
    outer loop
      vertex 8.63584 -10.3723 1
      vertex 8.72156 -10.7062 1
      vertex 8.72156 -10.7062 -1
    endloop
  endfacet
  facet normal 0.968583 0.24869 0
    outer loop
      vertex 8.63584 -10.3723 -1
      vertex 8.63584 -10.3723 1
      vertex 8.72156 -10.7062 -1
    endloop
  endfacet
  facet normal 0 0 1
    outer loop
      vertex -14.4783 -9.65533 1
      vertex -14.4783 -10.3447 1
      vertex -14.3069 -11.0123 1
    endloop
  endfacet
  facet normal 0 0 1
    outer loop
      vertex -13.5029 -12.1189 1
      vertex -14.4783 -9.65533 1
      vertex -13.9748 -11.6164 1
    endloop
  endfacet
  facet normal 0 0 1
    outer loop
      vertex -13.9748 -11.6164 1
      vertex -14.4783 -9.65533 1
      vertex -14.3069 -11.0123 1
    endloop
  endfacet
  facet normal 0 0 1
    outer loop
      vertex -12.9209 -12.4883 1
      vertex -14.4783 -9.65533 1
      vertex -13.5029 -12.1189 1
    endloop
  endfacet
  facet normal 0 0 1
    outer loop
      vertex -12.2653 -12.7013 1
      vertex -14.4783 -9.65533 1
      vertex -12.9209 -12.4883 1
    endloop
  endfacet
  facet normal 0 0 1
    outer loop
      vertex -11.5773 -12.7446 1
      vertex -14.4783 -9.65533 1
      vertex -12.2653 -12.7013 1
    endloop
  endfacet
  facet normal 0 0 1
    outer loop
      vertex -11.3437 -12.7 1
      vertex -14.4783 -9.65533 1
      vertex -11.5773 -12.7446 1
    endloop
  endfacet
  facet normal 0 0 1
    outer loop
      vertex 9.75 -12.7 1
      vertex -14.4783 -9.65533 1
      vertex -11.3437 -12.7 1
    endloop
  endfacet
  facet normal 0 0 1
    outer loop
      vertex 9.75 -12.6695 1
      vertex -14.4783 -9.65533 1
      vertex 9.75 -12.7 1
    endloop
  endfacet
  facet normal 0 0 1
    outer loop
      vertex 10.157 -12.6951 1
      vertex -14.4783 -9.65533 1
      vertex 9.75 -12.6695 1
    endloop
  endfacet
  facet normal 0 0 1
    outer loop
      vertex 10.7725 -12.5776 1
      vertex -14.4783 -9.65533 1
      vertex 10.157 -12.6951 1
    endloop
  endfacet
  facet normal 0 0 1
    outer loop
      vertex 11.3396 -12.3108 1
      vertex -14.4783 -9.65533 1
      vertex 10.7725 -12.5776 1
    endloop
  endfacet
  facet normal 0 0 1
    outer loop
      vertex 11.8224 -11.9114 1
      vertex -14.4783 -9.65533 1
      vertex 11.3396 -12.3108 1
    endloop
  endfacet
  facet normal 0 0 1
    outer loop
      vertex 9.74235 -11.5506 1
      vertex -14.4783 -9.65533 1
      vertex 11.8224 -11.9114 1
    endloop
  endfacet
  facet normal 0 0 1
    outer loop
      vertex 9.74235 -11.5506 1
      vertex 9.41455 -11.4441 1
      vertex -14.4783 -9.65533 1
    endloop
  endfacet
  facet normal 0 0 1
    outer loop
      vertex 11.3318 -10.5419 1
      vertex 11.2049 -10.8624 1
      vertex 12.4215 -10.8217 1
    endloop
  endfacet
  facet normal 0 0 1
    outer loop
      vertex 11.3396 -8.08918 1
      vertex -14.4783 -9.65533 1
      vertex 11.8224 -8.48863 1
    endloop
  endfacet
  facet normal 0 0 1
    outer loop
      vertex 10.7725 -7.82236 1
      vertex -14.4783 -9.65533 1
      vertex 11.3396 -8.08918 1
    endloop
  endfacet
  facet normal 0 0 1
    outer loop
      vertex 10.157 -7.70493 1
      vertex -14.4783 -9.65533 1
      vertex 10.7725 -7.82236 1
    endloop
  endfacet
  facet normal 0 0 1
    outer loop
      vertex 9.75 -7.73054 1
      vertex -14.4783 -9.65533 1
      vertex 10.157 -7.70493 1
    endloop
  endfacet
  facet normal 0 0 1
    outer loop
      vertex 9.75 -7.7 1
      vertex -14.4783 -9.65533 1
      vertex 9.75 -7.73054 1
    endloop
  endfacet
  facet normal 0 0 1
    outer loop
      vertex -4.49738 -7.7 1
      vertex -14.4783 -9.65533 1
      vertex 9.75 -7.7 1
    endloop
  endfacet
  facet normal 0 0 1
    outer loop
      vertex 3.80631 -1.88569 1
      vertex -14.4783 -9.65533 1
      vertex -4.49738 -7.7 1
    endloop
  endfacet
  facet normal 0 0 1
    outer loop
      vertex 3.73493 -1.78375 1
      vertex -14.4783 -9.65533 1
      vertex 3.80631 -1.88569 1
    endloop
  endfacet
  facet normal 0 0 1
    outer loop
      vertex 3.82242 -1.71137 1
      vertex -14.4783 -9.65533 1
      vertex 3.73493 -1.78375 1
    endloop
  endfacet
  facet normal 0 0 1
    outer loop
      vertex 4.19077 -1.20438 1
      vertex -14.4783 -9.65533 1
      vertex 3.82242 -1.71137 1
    endloop
  endfacet
  facet normal 0 0 1
    outer loop
      vertex 4.42146 -0.621725 1
      vertex -14.4783 -9.65533 1
      vertex 4.19077 -1.20438 1
    endloop
  endfacet
  facet normal 0 0 1
    outer loop
      vertex 4.5 0 1
      vertex -14.4783 -9.65533 1
      vertex 4.42146 -0.621725 1
    endloop
  endfacet
  facet normal 0 0 1
    outer loop
      vertex 4.42146 0.621725 1
      vertex -14.4783 -9.65533 1
      vertex 4.5 0 1
    endloop
  endfacet
  facet normal 0 0 1
    outer loop
      vertex 4.19077 1.20438 1
      vertex -14.4783 -9.65533 1
      vertex 4.42146 0.621725 1
    endloop
  endfacet
  facet normal 0 0 1
    outer loop
      vertex 3.82242 1.71137 1
      vertex -14.4783 -9.65533 1
      vertex 4.19077 1.20438 1
    endloop
  endfacet
  facet normal 0 0 1
    outer loop
      vertex 3.73493 1.78375 1
      vertex -14.4783 -9.65533 1
      vertex 3.82242 1.71137 1
    endloop
  endfacet
  facet normal 0 0 1
    outer loop
      vertex 3.80631 1.88569 1
      vertex -14.4783 -9.65533 1
      vertex 3.73493 1.78375 1
    endloop
  endfacet
  facet normal 0 0 1
    outer loop
      vertex -2.21788 0 1
      vertex -14.4783 -9.65533 1
      vertex 3.80631 1.88569 1
    endloop
  endfacet
  facet normal 0 0 1
    outer loop
      vertex -13.0284 9.49383 1
      vertex -13.1142 9.82767 1
      vertex -13.1861 7.68002 1
    endloop
  endfacet
  facet normal 0 0 1
    outer loop
      vertex 9.75 7.73054 1
      vertex -4.49738 7.7 1
      vertex 9.75 7.7 1
    endloop
  endfacet
  facet normal 0 0 1
    outer loop
      vertex 10.7725 7.82236 1
      vertex -4.49738 7.7 1
      vertex 9.75 7.73054 1
    endloop
  endfacet
  facet normal 0 0 1
    outer loop
      vertex 10.7725 7.82236 1
      vertex 9.75 7.73054 1
      vertex 10.157 7.70493 1
    endloop
  endfacet
  facet normal 0 0 1
    outer loop
      vertex 11.3396 8.08918 1
      vertex -4.49738 7.7 1
      vertex 10.7725 7.82236 1
    endloop
  endfacet
  facet normal 0 0 1
    outer loop
      vertex 11.8224 8.48863 1
      vertex -4.49738 7.7 1
      vertex 11.3396 8.08918 1
    endloop
  endfacet
  facet normal 0 0 1
    outer loop
      vertex 12.1908 8.99562 1
      vertex -4.49738 7.7 1
      vertex 11.8224 8.48863 1
    endloop
  endfacet
  facet normal 0 0 1
    outer loop
      vertex 12.4215 9.57827 1
      vertex -4.49738 7.7 1
      vertex 12.1908 8.99562 1
    endloop
  endfacet
  facet normal 0 0 1
    outer loop
      vertex 12.5 10.2 1
      vertex -4.49738 7.7 1
      vertex 12.4215 9.57827 1
    endloop
  endfacet
  facet normal 0 0 1
    outer loop
      vertex 12.4215 10.8217 1
      vertex -4.49738 7.7 1
      vertex 12.5 10.2 1
    endloop
  endfacet
  facet normal 0 0 1
    outer loop
      vertex 12.1908 11.4044 1
      vertex -4.49738 7.7 1
      vertex 12.4215 10.8217 1
    endloop
  endfacet
  facet normal 0 0 1
    outer loop
      vertex 11.8224 11.9114 1
      vertex -4.49738 7.7 1
      vertex 12.1908 11.4044 1
    endloop
  endfacet
  facet normal 0 0 1
    outer loop
      vertex 11.3396 12.3108 1
      vertex -4.49738 7.7 1
      vertex 11.8224 11.9114 1
    endloop
  endfacet
  facet normal 0 0 1
    outer loop
      vertex 10.7725 12.5776 1
      vertex -4.49738 7.7 1
      vertex 11.3396 12.3108 1
    endloop
  endfacet
  facet normal 0 0 1
    outer loop
      vertex 10.157 12.6951 1
      vertex -4.49738 7.7 1
      vertex 10.7725 12.5776 1
    endloop
  endfacet
  facet normal 0 0 1
    outer loop
      vertex 9.75 12.6695 1
      vertex -4.49738 7.7 1
      vertex 10.157 12.6951 1
    endloop
  endfacet
  facet normal 0 0 1
    outer loop
      vertex 9.75 12.7 1
      vertex -4.49738 7.7 1
      vertex 9.75 12.6695 1
    endloop
  endfacet
  facet normal 0 0 1
    outer loop
      vertex -11.3437 12.7 1
      vertex -4.49738 7.7 1
      vertex 9.75 12.7 1
    endloop
  endfacet
  facet normal 0 0 1
    outer loop
      vertex -13.7703 8.16579 1
      vertex -13.5599 7.94177 1
      vertex -13.5029 12.1189 1
    endloop
  endfacet
  facet normal 0 0 1
    outer loop
      vertex -14.3069 8.98766 1
      vertex -13.9748 8.38359 1
      vertex -13.9748 11.6164 1
    endloop
  endfacet
  facet normal 0 0 1
    outer loop
      vertex -14.4783 10.3447 1
      vertex -14.4783 9.65533 1
      vertex -14.3069 11.0123 1
    endloop
  endfacet
  facet normal 0 0 1
    outer loop
      vertex -14.3069 11.0123 1
      vertex -14.3069 8.98766 1
      vertex -13.9748 11.6164 1
    endloop
  endfacet
  facet normal 0 0 1
    outer loop
      vertex -13.9748 11.6164 1
      vertex -13.9748 8.38359 1
      vertex -13.5029 12.1189 1
    endloop
  endfacet
  facet normal 0 0 1
    outer loop
      vertex -13.9748 8.38359 1
      vertex -13.7703 8.16579 1
      vertex -13.5029 12.1189 1
    endloop
  endfacet
  facet normal 0 0 1
    outer loop
      vertex -13.5029 7.88109 1
      vertex -13.1861 7.68002 1
      vertex -13.1142 9.82767 1
    endloop
  endfacet
  facet normal 0 0 1
    outer loop
      vertex -13.5029 12.1189 1
      vertex -13.5599 7.94177 1
      vertex -12.9209 12.4883 1
    endloop
  endfacet
  facet normal 0 0 1
    outer loop
      vertex -13.5599 7.94177 1
      vertex -13.5029 7.88109 1
      vertex -12.9209 12.4883 1
    endloop
  endfacet
  facet normal 0 0 1
    outer loop
      vertex -13.1861 -7.68002 1
      vertex -13.5029 -7.88109 1
      vertex -14.4783 -9.65533 1
    endloop
  endfacet
  facet normal 0 0 1
    outer loop
      vertex -4.49738 7.7 1
      vertex -2.21788 0 1
      vertex 3.80631 1.88569 1
    endloop
  endfacet
  facet normal 0 0 1
    outer loop
      vertex -13.1861 -7.68002 1
      vertex -14.4783 -9.65533 1
      vertex -2.21788 0 1
    endloop
  endfacet
  facet normal 0 0 1
    outer loop
      vertex -13.7703 -8.16579 1
      vertex -13.9748 -8.38359 1
      vertex -14.4783 -9.65533 1
    endloop
  endfacet
  facet normal 0 0 1
    outer loop
      vertex -12.6265 11.0595 1
      vertex -12.3354 11.2441 1
      vertex -12.2653 12.7013 1
    endloop
  endfacet
  facet normal 0 0 1
    outer loop
      vertex -13.5599 -7.94177 1
      vertex -14.4783 -9.65533 1
      vertex -13.5029 -7.88109 1
    endloop
  endfacet
  facet normal 0 0 1
    outer loop
      vertex -13.7703 -8.16579 1
      vertex -14.4783 -9.65533 1
      vertex -13.5599 -7.94177 1
    endloop
  endfacet
  facet normal 0 0 1
    outer loop
      vertex -13.8063 -8.11431 1
      vertex -13.7703 -8.16579 1
      vertex -13.5599 -7.94177 1
    endloop
  endfacet
  facet normal 0 0 1
    outer loop
      vertex -14.3069 -8.98766 1
      vertex -14.4783 -9.65533 1
      vertex -13.9748 -8.38359 1
    endloop
  endfacet
  facet normal 0 0 1
    outer loop
      vertex 8.63584 -10.3723 1
      vertex 8.63584 -10.0277 1
      vertex -14.4783 -9.65533 1
    endloop
  endfacet
  facet normal 0 0 1
    outer loop
      vertex -13.5029 7.88109 1
      vertex -13.1142 10.1723 1
      vertex -12.9209 12.4883 1
    endloop
  endfacet
  facet normal 0 0 1
    outer loop
      vertex -13.5029 7.88109 1
      vertex -13.1142 9.82767 1
      vertex -13.1142 10.1723 1
    endloop
  endfacet
  facet normal 0 0 1
    outer loop
      vertex -12.9209 12.4883 1
      vertex -13.0284 10.5062 1
      vertex -12.2653 12.7013 1
    endloop
  endfacet
  facet normal 0 0 1
    outer loop
      vertex -13.1142 10.1723 1
      vertex -13.0284 10.5062 1
      vertex -12.9209 12.4883 1
    endloop
  endfacet
  facet normal 0 0 1
    outer loop
      vertex -13.0284 10.5062 1
      vertex -12.8624 10.8082 1
      vertex -12.2653 12.7013 1
    endloop
  endfacet
  facet normal 0 0 1
    outer loop
      vertex 11.0023 -11.1413 1
      vertex 10.7368 -11.361 1
      vertex 12.1908 -11.4044 1
    endloop
  endfacet
  facet normal 0 0 1
    outer loop
      vertex -12.8624 10.8082 1
      vertex -12.6265 11.0595 1
      vertex -12.2653 12.7013 1
    endloop
  endfacet
  facet normal 0 0 1
    outer loop
      vertex 8.72156 -10.7062 1
      vertex 8.63584 -10.3723 1
      vertex -14.4783 -9.65533 1
    endloop
  endfacet
  facet normal 0 0 1
    outer loop
      vertex -12.2653 12.7013 1
      vertex -12.3354 11.2441 1
      vertex -11.5773 12.7446 1
    endloop
  endfacet
  facet normal 0 0 1
    outer loop
      vertex -12.3354 11.2441 1
      vertex -12.0076 11.3506 1
      vertex -11.5773 12.7446 1
    endloop
  endfacet
  facet normal 0 0 1
    outer loop
      vertex -11.5773 12.7446 1
      vertex -11.6637 11.3723 1
      vertex -11.3437 12.7 1
    endloop
  endfacet
  facet normal 0 0 1
    outer loop
      vertex -11.3437 12.7 1
      vertex -11.0132 11.161 1
      vertex -4.49738 7.7 1
    endloop
  endfacet
  facet normal 0 0 1
    outer loop
      vertex -11.3437 12.7 1
      vertex -11.3251 11.3077 1
      vertex -11.0132 11.161 1
    endloop
  endfacet
  facet normal 0 0 1
    outer loop
      vertex -10.7477 10.9413 1
      vertex -10.5451 10.6624 1
      vertex -4.49738 7.7 1
    endloop
  endfacet
  facet normal 0 0 1
    outer loop
      vertex -10.5451 10.6624 1
      vertex -10.4182 10.3419 1
      vertex -4.49738 7.7 1
    endloop
  endfacet
  facet normal 0 0 1
    outer loop
      vertex -10.4182 10.3419 1
      vertex -10.375 10 1
      vertex -4.49738 7.7 1
    endloop
  endfacet
  facet normal 0 0 1
    outer loop
      vertex -10.375 10 1
      vertex -10.4182 9.65805 1
      vertex -4.49738 7.7 1
    endloop
  endfacet
  facet normal 0 0 1
    outer loop
      vertex -12.8624 9.19179 1
      vertex -13.0284 9.49383 1
      vertex -13.1861 7.68002 1
    endloop
  endfacet
  facet normal 0 0 1
    outer loop
      vertex -11.6637 11.3723 1
      vertex -11.3251 11.3077 1
      vertex -11.3437 12.7 1
    endloop
  endfacet
  facet normal 0 0 1
    outer loop
      vertex 9.12354 -11.2595 1
      vertex 8.8876 -11.0082 1
      vertex -14.4783 -9.65533 1
    endloop
  endfacet
  facet normal 0 0 1
    outer loop
      vertex 8.72156 -9.69383 1
      vertex 8.8876 -9.39179 1
      vertex -14.4783 -9.65533 1
    endloop
  endfacet
  facet normal 0 0 1
    outer loop
      vertex 11.375 -10.2 1
      vertex 11.3318 -10.5419 1
      vertex 12.5 -10.2 1
    endloop
  endfacet
  facet normal 0 0 1
    outer loop
      vertex 8.72156 -9.69383 1
      vertex -14.4783 -9.65533 1
      vertex 8.63584 -10.0277 1
    endloop
  endfacet
  facet normal 0 0 1
    outer loop
      vertex 11.3318 -9.85805 1
      vertex 11.375 -10.2 1
      vertex 12.5 -10.2 1
    endloop
  endfacet
  facet normal 0 0 1
    outer loop
      vertex 9.12354 -9.14054 1
      vertex 9.41455 -8.95586 1
      vertex -14.4783 -9.65533 1
    endloop
  endfacet
  facet normal 0 0 1
    outer loop
      vertex 9.12354 -9.14054 1
      vertex -14.4783 -9.65533 1
      vertex 8.8876 -9.39179 1
    endloop
  endfacet
  facet normal 0 0 1
    outer loop
      vertex 11.0023 -9.25875 1
      vertex 11.2049 -9.53759 1
      vertex 12.4215 -9.57827 1
    endloop
  endfacet
  facet normal 0 0 1
    outer loop
      vertex 10.7368 -9.03905 1
      vertex 11.0023 -9.25875 1
      vertex 12.1908 -8.99562 1
    endloop
  endfacet
  facet normal 0 0 1
    outer loop
      vertex 9.74235 -8.84935 1
      vertex -14.4783 -9.65533 1
      vertex 9.41455 -8.95586 1
    endloop
  endfacet
  facet normal 0 0 1
    outer loop
      vertex 10.4249 -8.8923 1
      vertex 10.7368 -9.03905 1
      vertex 12.1908 -8.99562 1
    endloop
  endfacet
  facet normal 0 0 1
    outer loop
      vertex 11.8224 -8.48863 1
      vertex -14.4783 -9.65533 1
      vertex 9.74235 -8.84935 1
    endloop
  endfacet
  facet normal 0 0 1
    outer loop
      vertex 11.8224 -8.48863 1
      vertex 10.0863 -8.82771 1
      vertex 12.1908 -8.99562 1
    endloop
  endfacet
  facet normal 0 0 1
    outer loop
      vertex 10.0863 -8.82771 1
      vertex 10.4249 -8.8923 1
      vertex 12.1908 -8.99562 1
    endloop
  endfacet
  facet normal 0 0 1
    outer loop
      vertex 11.2049 -9.53759 1
      vertex 11.3318 -9.85805 1
      vertex 12.4215 -9.57827 1
    endloop
  endfacet
  facet normal 0 0 1
    outer loop
      vertex 9.74235 -8.84935 1
      vertex 10.0863 -8.82771 1
      vertex 11.8224 -8.48863 1
    endloop
  endfacet
  facet normal 0 0 1
    outer loop
      vertex 12.1908 -8.99562 1
      vertex 11.0023 -9.25875 1
      vertex 12.4215 -9.57827 1
    endloop
  endfacet
  facet normal 0 0 1
    outer loop
      vertex 12.4215 -9.57827 1
      vertex 11.3318 -9.85805 1
      vertex 12.5 -10.2 1
    endloop
  endfacet
  facet normal 0 0 1
    outer loop
      vertex 12.5 -10.2 1
      vertex 11.3318 -10.5419 1
      vertex 12.4215 -10.8217 1
    endloop
  endfacet
  facet normal 0 0 1
    outer loop
      vertex 12.4215 -10.8217 1
      vertex 11.2049 -10.8624 1
      vertex 12.1908 -11.4044 1
    endloop
  endfacet
  facet normal 0 0 1
    outer loop
      vertex 11.2049 -10.8624 1
      vertex 11.0023 -11.1413 1
      vertex 12.1908 -11.4044 1
    endloop
  endfacet
  facet normal 0 0 1
    outer loop
      vertex 12.1908 -11.4044 1
      vertex 10.7368 -11.361 1
      vertex 11.8224 -11.9114 1
    endloop
  endfacet
  facet normal 0 0 1
    outer loop
      vertex 10.7368 -11.361 1
      vertex 10.4249 -11.5077 1
      vertex 11.8224 -11.9114 1
    endloop
  endfacet
  facet normal 0 0 1
    outer loop
      vertex 10.4249 -11.5077 1
      vertex 10.0863 -11.5723 1
      vertex 11.8224 -11.9114 1
    endloop
  endfacet
  facet normal 0 0 1
    outer loop
      vertex 10.0863 -11.5723 1
      vertex 9.74235 -11.5506 1
      vertex 11.8224 -11.9114 1
    endloop
  endfacet
  facet normal 0 0 1
    outer loop
      vertex 9.41455 -11.4441 1
      vertex 9.12354 -11.2595 1
      vertex -14.4783 -9.65533 1
    endloop
  endfacet
  facet normal 0 0 1
    outer loop
      vertex 8.8876 -11.0082 1
      vertex 8.72156 -10.7062 1
      vertex -14.4783 -9.65533 1
    endloop
  endfacet
  facet normal 0 0 1
    outer loop
      vertex -14.4783 9.65533 1
      vertex -14.3069 8.98766 1
      vertex -14.3069 11.0123 1
    endloop
  endfacet
  facet normal 0 0 1
    outer loop
      vertex -13.8063 8.11431 1
      vertex -13.5599 7.94177 1
      vertex -13.7703 8.16579 1
    endloop
  endfacet
  facet normal 0 0 1
    outer loop
      vertex -12.0076 11.3506 1
      vertex -11.6637 11.3723 1
      vertex -11.5773 12.7446 1
    endloop
  endfacet
  facet normal 0 0 1
    outer loop
      vertex -13.1861 7.68002 1
      vertex -12.6265 8.94054 1
      vertex -12.8624 9.19179 1
    endloop
  endfacet
  facet normal 0 0 1
    outer loop
      vertex -13.1861 7.68002 1
      vertex -12.3354 8.75586 1
      vertex -12.6265 8.94054 1
    endloop
  endfacet
  facet normal 0 0 1
    outer loop
      vertex -13.1861 7.68002 1
      vertex -12.0076 8.64935 1
      vertex -12.3354 8.75586 1
    endloop
  endfacet
  facet normal 0 0 1
    outer loop
      vertex -11.0132 11.161 1
      vertex -10.7477 10.9413 1
      vertex -4.49738 7.7 1
    endloop
  endfacet
  facet normal 0 0 1
    outer loop
      vertex -13.1861 7.68002 1
      vertex -11.6637 8.62771 1
      vertex -12.0076 8.64935 1
    endloop
  endfacet
  facet normal 0 0 1
    outer loop
      vertex -13.1861 7.68002 1
      vertex -11.3251 8.6923 1
      vertex -11.6637 8.62771 1
    endloop
  endfacet
  facet normal 0 0 1
    outer loop
      vertex -13.1861 7.68002 1
      vertex -11.0132 8.83905 1
      vertex -11.3251 8.6923 1
    endloop
  endfacet
  facet normal 0 0 1
    outer loop
      vertex -10.5451 9.33759 1
      vertex -4.49738 7.7 1
      vertex -10.4182 9.65805 1
    endloop
  endfacet
  facet normal 0 0 1
    outer loop
      vertex -10.7477 9.05875 1
      vertex -4.49738 7.7 1
      vertex -10.5451 9.33759 1
    endloop
  endfacet
  facet normal 0 0 1
    outer loop
      vertex -11.0132 8.83905 1
      vertex -4.49738 7.7 1
      vertex -10.7477 9.05875 1
    endloop
  endfacet
  facet normal 0 0 1
    outer loop
      vertex -13.1861 7.68002 1
      vertex -4.49738 7.7 1
      vertex -11.0132 8.83905 1
    endloop
  endfacet
  facet normal 0 0 1
    outer loop
      vertex -13.1861 7.68002 1
      vertex -2.21788 0 1
      vertex -4.49738 7.7 1
    endloop
  endfacet
endsolid OpenSCAD_Model
