<?xml version="1.0" encoding="UTF-8" standalone="no"?>
<!-- Created with Inkscape (http://www.inkscape.org/) -->

<svg
   xmlns:dc="http://purl.org/dc/elements/1.1/"
   xmlns:cc="http://creativecommons.org/ns#"
   xmlns:rdf="http://www.w3.org/1999/02/22-rdf-syntax-ns#"
   xmlns:svg="http://www.w3.org/2000/svg"
   xmlns="http://www.w3.org/2000/svg"
   xmlns:sodipodi="http://sodipodi.sourceforge.net/DTD/sodipodi-0.dtd"
   xmlns:inkscape="http://www.inkscape.org/namespaces/inkscape"
   width="210mm"
   height="297mm"
   id="svg2"
   version="1.1"
   inkscape:version="0.48.4 r9939"
   sodipodi:docname="Clau3.svg">
  <defs
     id="defs4" />
  <sodipodi:namedview
     id="base"
     pagecolor="#ffffff"
     bordercolor="#666666"
     borderopacity="1.0"
     inkscape:pageopacity="0.0"
     inkscape:pageshadow="2"
     inkscape:zoom="4"
     inkscape:cx="124.63468"
     inkscape:cy="-5.325603"
     inkscape:document-units="px"
     inkscape:current-layer="layer1"
     showgrid="false"
     inkscape:window-width="1877"
     inkscape:window-height="1056"
     inkscape:window-x="43"
     inkscape:window-y="24"
     inkscape:window-maximized="1">
    <sodipodi:guide
       position="0,0"
       orientation="0,744.09448"
       id="guide3133" />
    <sodipodi:guide
       position="744.09448,0"
       orientation="-1052.3622,0"
       id="guide3135" />
    <sodipodi:guide
       position="744.09448,1052.3622"
       orientation="0,-744.09448"
       id="guide3137" />
    <sodipodi:guide
       position="0,1052.3622"
       orientation="1052.3622,0"
       id="guide3139" />
    <sodipodi:guide
       position="0,0"
       orientation="0,744.09448"
       id="guide3141" />
    <sodipodi:guide
       position="744.09448,0"
       orientation="-1052.3622,0"
       id="guide3143" />
    <sodipodi:guide
       position="744.09448,1052.3622"
       orientation="0,-744.09448"
       id="guide3145" />
    <sodipodi:guide
       position="0,1052.3622"
       orientation="1052.3622,0"
       id="guide3147" />
  </sodipodi:namedview>
  <metadata
     id="metadata7">
    <rdf:RDF>
      <cc:Work
         rdf:about="">
        <dc:format>image/svg+xml</dc:format>
        <dc:type
           rdf:resource="http://purl.org/dc/dcmitype/StillImage" />
        <dc:title></dc:title>
      </cc:Work>
    </rdf:RDF>
  </metadata>
  <g
     inkscape:label="Capa 1"
     inkscape:groupmode="layer"
     id="layer1"
     style="display:inline">
    <flowRoot
       xml:space="preserve"
       id="flowRoot2993"
       style="font-size:40px;font-style:normal;font-weight:bold;line-height:125%;letter-spacing:0px;word-spacing:0px;fill:#000000;fill-opacity:1;stroke:none;font-family:Sans;-inkscape-font-specification:Sans Bold"><flowRegion
         id="flowRegion2995"><rect
           id="rect2997"
           width="185.71428"
           height="62.857143"
           x="80"
           y="1020.9336" /></flowRegion><flowPara
         id="flowPara2999"></flowPara></flowRoot>    <g
       style="font-size:74.48777771px;font-style:normal;font-variant:normal;font-weight:500;font-stretch:normal;line-height:125%;letter-spacing:0px;word-spacing:0px;fill:#000000;fill-opacity:1;stroke:none;font-family:Ubuntu;-inkscape-font-specification:Ubuntu Medium"
       id="text3168">
      <path
         d="m 28.158918,1052.7122 c -3.87339,0 -7.349483,-0.5959 -10.428289,-1.7877 -3.078844,-1.1918 -5.685913,-2.9299 -7.8212168,-5.2142 -2.135325,-2.3339 -3.7740545,-5.1645 -4.9161933,-8.4916 -1.1421508,-3.3271 -1.7132231,-7.1508 -1.7132189,-11.4711 -4.2e-6,-4.3203 0.6455559,-8.144 1.9366822,-11.4711 1.3407725,-3.3271 3.1533066,-6.1328 5.4376078,-8.4171 2.284278,-2.3339 4.965835,-4.0968 8.04468,-5.2887 3.078805,-1.19173 6.381094,-1.78763 9.906874,-1.78769 2.135285,6e-5 4.071965,0.17386 5.810047,0.52142 1.738011,0.298 3.252594,0.64561 4.543755,1.04287 1.29108,0.3973 2.358737,0.8194 3.202974,1.2662 0.844151,0.447 1.440052,0.7698 1.787707,0.9684 l -2.756048,7.6722 c -1.191846,-0.7448 -2.905063,-1.44 -5.139657,-2.0856 -2.185009,-0.6952 -4.568616,-1.0428 -7.150826,-1.0429 -2.234661,1e-4 -4.320317,0.3974 -6.256974,1.1918 -1.936704,0.745 -3.625092,1.8871 -5.065169,3.4265 -1.390455,1.5394 -2.482942,3.4761 -3.277462,5.81 -0.794551,2.334 -1.191818,5.0404 -1.191804,8.1192 -1.4e-5,2.7312 0.297936,5.239 0.893853,7.5233 0.645545,2.2843 1.613885,4.2706 2.905023,5.959 1.291103,1.6387 2.929832,2.9299 4.916194,3.8734 1.986316,0.8938 4.369922,1.3407 7.150826,1.3407 3.327088,0 6.033474,-0.3227 8.119168,-0.9683 2.085618,-0.6952 3.699518,-1.3408 4.841706,-1.9367 l 2.532584,7.6723 c -0.595947,0.3972 -1.415312,0.7945 -2.458097,1.1918 -0.993212,0.3972 -2.185015,0.7945 -3.575413,1.1918 -1.390476,0.3476 -2.954718,0.6207 -4.69273,0.8193 -1.738081,0.2483 -3.600274,0.3725 -5.586583,0.3725"
         style=""
         id="path3173" />
      <path
         d="m 65.899781,1052.3397 c -2.681577,-0.05 -4.916208,-0.3476 -6.7039,-0.8938 -1.738059,-0.5463 -3.128496,-1.316 -4.171316,-2.3091 -1.042836,-1.0429 -1.787713,-2.3092 -2.234633,-3.7989 -0.397274,-1.5394 -0.595908,-3.2775 -0.595902,-5.2142 l 0,-44.84161 9.013021,-1.48976 0,44.61817 c -1.5e-5,1.0925 0.07447,2.0112 0.223463,2.7561 0.198619,0.7448 0.521399,1.3904 0.968341,1.9366 0.446911,0.4966 1.042812,0.8939 1.787707,1.1918 0.794518,0.2483 1.787687,0.447 2.979511,0.5959 l -1.266292,7.4488"
         style=""
         id="path3175" />
      <path
         d="m 88.16232,1045.2634 c 2.780855,0 4.89134,-0.149 6.331461,-0.4469 l 0,-9.9814 c -0.49661,-0.149 -1.216658,-0.2979 -2.160145,-0.4469 -0.943535,-0.149 -1.986363,-0.2235 -3.128487,-0.2235 -0.99319,0 -2.011189,0.074 -3.053999,0.2235 -0.993187,0.149 -1.911868,0.4221 -2.756048,0.8193 -0.79455,0.3973 -1.44011,0.9684 -1.936682,1.7133 -0.496597,0.6952 -0.74489,1.589 -0.744878,2.6815 -1.2e-5,2.1353 0.670378,3.6251 2.01117,4.4693 1.340765,0.7945 3.153299,1.1918 5.437608,1.1918 m -0.744878,-33.594 c 2.97949,0 5.487242,0.3725 7.523266,1.1173 2.035971,0.7449 3.649871,1.7878 4.841705,3.1285 1.241427,1.3408 2.110457,2.9795 2.607077,4.9162 0.54621,1.887 0.81933,3.9727 0.81936,6.257 l 0,23.6126 c -1.39047,0.2979 -3.500955,0.6456 -6.33146,1.0428 -2.780902,0.447 -5.934215,0.6704 -9.459948,0.6704 -2.333966,0 -4.469281,-0.2234 -6.405949,-0.6704 -1.936692,-0.4469 -3.600251,-1.1669 -4.990681,-2.1601 -1.340786,-0.9932 -2.408443,-2.2843 -3.202974,-3.8734 -0.744881,-1.5891 -1.11732,-3.5506 -1.117317,-5.8845 -3e-6,-2.2346 0.422094,-4.1217 1.266292,-5.6611 0.893849,-1.5394 2.085652,-2.7808 3.575414,-3.7244 1.489746,-0.9931 3.202963,-1.6883 5.139656,-2.0856 1.986326,-0.4469 4.047153,-0.6704 6.182486,-0.6704 0.99315,0 2.035978,0.075 3.128487,0.2234 1.092464,0.099 2.259438,0.298 3.500925,0.5959 l 0,-1.4897 c -2.6e-5,-1.0428 -0.124172,-2.036 -0.372439,-2.9795 -0.248318,-0.9435 -0.695244,-1.7629 -1.34078,-2.4581 -0.595925,-0.7449 -1.41529,-1.3159 -2.458096,-1.7132 -0.993191,-0.3973 -2.259482,-0.5959 -3.798877,-0.5959 -2.085674,0 -3.997525,0.149 -5.735559,0.4469 -1.738058,0.298 -3.153325,0.6456 -4.245803,1.0428 l -1.117317,-7.2998 c 1.142138,-0.3972 2.805697,-0.7945 4.990681,-1.1918 2.184961,-0.3972 4.518909,-0.5959 7.001851,-0.5959"
         style=""
         id="path3177" />
      <path
         d="m 146.12894,1050.403 c -1.73808,0.447 -3.99754,0.8939 -6.77838,1.3408 -2.78091,0.4966 -5.83491,0.7449 -9.162,0.7449 -3.12851,0 -5.76041,-0.4469 -7.89571,-1.3408 -2.08567,-0.8938 -3.77405,-2.1353 -5.06516,-3.7244 -1.24148,-1.589 -2.13533,-3.4761 -2.68156,-5.661 -0.54625,-2.2347 -0.81938,-4.6679 -0.81937,-7.2998 l 0,-21.825 9.01302,0 0,20.4097 c -1e-5,4.1713 0.59589,7.1508 1.78771,8.9385 1.24144,1.7877 3.37676,2.6816 6.40595,2.6816 1.09246,0 2.2346,-0.05 3.42643,-0.149 1.24144,-0.099 2.16012,-0.2234 2.75605,-0.3724 l 0,-31.5084 9.01302,0 0,37.7653"
         style=""
         id="path3179" />
      <path
         d="m 164.74972,1032.0046 c -1e-5,3.9727 0.9435,7.1011 2.83054,9.3854 1.887,2.2347 4.49407,3.352 7.82121,3.352 1.44007,0 2.65671,-0.05 3.6499,-0.149 1.0428,-0.149 1.887,-0.2979 2.53259,-0.4469 l 0,-22.3464 c -0.79457,-0.5462 -1.86222,-1.0428 -3.20298,-1.4897 -1.29114,-0.4966 -2.68158,-0.7449 -4.17131,-0.7449 -3.27748,0 -5.68592,1.1174 -7.22532,3.352 -1.48977,2.2346 -2.23464,5.2638 -2.23463,9.0875 m 25.84726,18.3984 c -1.78774,0.5463 -4.04721,1.0429 -6.77839,1.4898 -2.68159,0.4469 -5.51212,0.6704 -8.49161,0.6704 -3.07884,0 -5.83489,-0.4718 -8.26814,-1.4153 -2.43328,-0.9435 -4.51893,-2.2843 -6.25697,-4.0223 -1.6884,-1.7877 -3.00435,-3.923 -3.94785,-6.406 -0.89386,-2.5325 -1.34079,-5.3631 -1.34078,-8.4916 -1e-5,-3.0788 0.37243,-5.8597 1.11731,-8.3426 0.79453,-2.5326 1.93668,-4.6927 3.42644,-6.4804 1.48975,-1.7877 3.30228,-3.1533 5.43761,-4.0969 2.1353,-0.9931 4.59339,-1.4897 7.37429,-1.4897 1.887,0 3.55056,0.2235 4.99068,0.6704 1.44007,0.4469 2.68153,0.9435 3.72439,1.4897 l 0,-18.69641 9.01302,-1.48976 0,56.61067"
         style=""
         id="path3181" />
      <path
         d="m 211.13349,1051.5948 -9.01302,0 0,-38.9571 9.01302,0 0,38.9571 m 0.96835,-50.3537 c -2e-5,1.6884 -0.54626,3.0292 -1.63874,4.0224 -1.0925,0.9932 -2.38362,1.4898 -3.87336,1.4897 -1.53942,10e-5 -2.85537,-0.4965 -3.94785,-1.4897 -1.0925,-0.9932 -1.63874,-2.334 -1.63873,-4.0224 -1e-5,-1.73799 0.54623,-3.10359 1.63873,-4.09682 1.09248,-0.99311 2.40843,-1.4897 3.94785,-1.48975 1.48974,5e-5 2.78086,0.49664 3.87336,1.48975 1.09248,0.99323 1.63872,2.35883 1.63874,4.09682"
         style=""
         id="path3183" />
      <path
         d="m 236.26497,1045.2634 c 2.78085,0 4.89134,-0.149 6.33146,-0.4469 l 0,-9.9814 c -0.49661,-0.149 -1.21666,-0.2979 -2.16015,-0.4469 -0.94353,-0.149 -1.98636,-0.2235 -3.12849,-0.2235 -0.99319,0 -2.01118,0.074 -3.05399,0.2235 -0.99319,0.149 -1.91187,0.4221 -2.75605,0.8193 -0.79455,0.3973 -1.44011,0.9684 -1.93668,1.7133 -0.4966,0.6952 -0.74489,1.589 -0.74488,2.6815 -1e-5,2.1353 0.67038,3.6251 2.01117,4.4693 1.34076,0.7945 3.1533,1.1918 5.43761,1.1918 m -0.74488,-33.594 c 2.97949,0 5.48724,0.3725 7.52326,1.1173 2.03597,0.7449 3.64987,1.7878 4.84171,3.1285 1.24143,1.3408 2.11045,2.9795 2.60707,4.9162 0.54621,1.887 0.81933,3.9727 0.81937,6.257 l 0,23.6126 c -1.39047,0.2979 -3.50096,0.6456 -6.33146,1.0428 -2.78091,0.447 -5.93422,0.6704 -9.45995,0.6704 -2.33397,0 -4.46928,-0.2234 -6.40595,-0.6704 -1.93669,-0.4469 -3.60025,-1.1669 -4.99068,-2.1601 -1.34079,-0.9932 -2.40844,-2.2843 -3.20298,-3.8734 -0.74488,-1.5891 -1.11732,-3.5506 -1.11731,-5.8845 -1e-5,-2.2346 0.42209,-4.1217 1.26629,-5.6611 0.89385,-1.5394 2.08565,-2.7808 3.57541,-3.7244 1.48975,-0.9931 3.20297,-1.6883 5.13966,-2.0856 1.98633,-0.4469 4.04715,-0.6704 6.18248,-0.6704 0.99316,0 2.03598,0.075 3.12849,0.2234 1.09247,0.099 2.25944,0.298 3.50093,0.5959 l 0,-1.4897 c -3e-5,-1.0428 -0.12417,-2.036 -0.37244,-2.9795 -0.24832,-0.9435 -0.69525,-1.7629 -1.34078,-2.4581 -0.59593,-0.7449 -1.41529,-1.3159 -2.4581,-1.7132 -0.99319,-0.3973 -2.25948,-0.5959 -3.79888,-0.5959 -2.08567,0 -3.99752,0.149 -5.73555,0.4469 -1.73806,0.298 -3.15333,0.6456 -4.24581,1.0428 l -1.11731,-7.2998 c 1.14213,-0.3972 2.80569,-0.7945 4.99068,-1.1918 2.18496,-0.3972 4.51891,-0.5959 7.00185,-0.5959"
         style=""
         id="path3185" />
    </g>
  </g>
</svg>
