<?xml version="1.0" encoding="UTF-8" standalone="no"?>
<!-- Created with Inkscape (http://www.inkscape.org/) -->

<svg
   xmlns:dc="http://purl.org/dc/elements/1.1/"
   xmlns:cc="http://creativecommons.org/ns#"
   xmlns:rdf="http://www.w3.org/1999/02/22-rdf-syntax-ns#"
   xmlns:svg="http://www.w3.org/2000/svg"
   xmlns="http://www.w3.org/2000/svg"
   xmlns:sodipodi="http://sodipodi.sourceforge.net/DTD/sodipodi-0.dtd"
   xmlns:inkscape="http://www.inkscape.org/namespaces/inkscape"
   width="210mm"
   height="297mm"
   id="svg2"
   version="1.1"
   inkscape:version="0.48.4 r9939"
   sodipodi:docname="Clau2.svg">
  <defs
     id="defs4" />
  <sodipodi:namedview
     id="base"
     pagecolor="#ffffff"
     bordercolor="#666666"
     borderopacity="1.0"
     inkscape:pageopacity="0.0"
     inkscape:pageshadow="2"
     inkscape:zoom="1.979899"
     inkscape:cx="124.63468"
     inkscape:cy="-5.325603"
     inkscape:document-units="px"
     inkscape:current-layer="layer1"
     showgrid="false"
     inkscape:window-width="1877"
     inkscape:window-height="1056"
     inkscape:window-x="43"
     inkscape:window-y="24"
     inkscape:window-maximized="1" />
  <metadata
     id="metadata7">
    <rdf:RDF>
      <cc:Work
         rdf:about="">
        <dc:format>image/svg+xml</dc:format>
        <dc:type
           rdf:resource="http://purl.org/dc/dcmitype/StillImage" />
        <dc:title></dc:title>
      </cc:Work>
    </rdf:RDF>
  </metadata>
  <g
     inkscape:label="Capa 1"
     inkscape:groupmode="layer"
     id="layer1">
    <flowRoot
       xml:space="preserve"
       id="flowRoot2993"
       style="fill:black;stroke:none;stroke-opacity:1;stroke-width:1px;stroke-linejoin:miter;stroke-linecap:butt;fill-opacity:1;font-family:Sans;font-style:normal;font-weight:bold;font-size:40px;line-height:125%;letter-spacing:0px;word-spacing:0px;-inkscape-font-specification:Sans Bold"><flowRegion
         id="flowRegion2995"><rect
           id="rect2997"
           width="185.71428"
           height="62.857143"
           x="80"
           y="1020.9336" /></flowRegion><flowPara
         id="flowPara2999"></flowPara></flowRoot>    <g
       style="font-size:60.88559341px;font-style:normal;font-weight:bold;line-height:125%;letter-spacing:0px;word-spacing:0px;fill:#000000;fill-opacity:1;stroke:none;font-family:Sans;-inkscape-font-specification:Sans Bold"
       id="text3054">
      <path
         d="m -80.251608,1063.9142 c -2.100909,1.0901 -4.290965,1.9126 -6.570174,2.4676 -2.279278,0.5549 -4.657619,0.8324 -7.135031,0.8324 -7.392707,0 -13.249367,-2.0612 -17.570017,-6.1837 -4.32066,-4.1423 -6.48098,-9.7512 -6.48098,-16.8268 0,-7.0953 2.16032,-12.7043 6.48098,-16.8268 4.32065,-4.1422 10.17731,-6.2133 17.570017,-6.2134 2.477412,10e-5 4.855753,0.2775 7.135031,0.8324 2.279209,0.555 4.469265,1.3775 6.570174,2.4676 l 0,9.1863 c -2.120729,-1.4468 -4.211687,-2.5071 -6.272881,-3.181 -2.061264,-0.6738 -4.2315,-1.0108 -6.510716,-1.0108 -4.082847,0 -7.293605,1.3081 -9.632295,3.9243 -2.33872,2.6162 -3.50807,6.2233 -3.50805,10.8214 -2e-5,4.5784 1.16933,8.1756 3.50805,10.7918 2.33869,2.6161 5.549448,3.9242 9.632295,3.9242 2.279216,0 4.449452,-0.3369 6.510716,-1.0108 2.061194,-0.6738 4.152152,-1.7342 6.272881,-3.181 l 0,9.1863"
         style=""
         id="path3059" />
      <path
         d="m -71.213904,1020.0933 10.643087,0 0,46.2588 -10.643087,0 0,-46.2588"
         style=""
         id="path3061" />
      <path
         d="m -35.360375,1051.3685 c -2.219805,0 -3.894553,0.3766 -5.02425,1.1297 -1.109908,0.7532 -1.664854,1.863 -1.664841,3.3297 -1.3e-5,1.3477 0.445926,2.4081 1.337818,3.181 0.911683,0.7532 2.170222,1.1297 3.775621,1.1297 2.001752,0 3.68641,-0.7135 5.05398,-2.1405 1.367522,-1.4468 2.051295,-3.2504 2.051321,-5.4107 l 0,-1.2189 -5.529649,0 m 16.261924,-4.0135 0,18.9971 -10.732275,0 0,-4.9351 c -1.42703,2.0216 -3.032411,3.4981 -4.816146,4.4297 -1.783776,0.9117 -3.954013,1.3675 -6.510715,1.3675 -3.448609,0 -6.253069,-1.0009 -8.41339,-3.0027 -2.140513,-2.0215 -3.210766,-4.6377 -3.210764,-7.8485 -2e-6,-3.9044 1.337814,-6.7683 4.013455,-8.5918 2.695446,-1.8233 6.917002,-2.735 12.664679,-2.7351 l 6.272881,0 0,-0.8324 c -2.6e-5,-1.6846 -0.663979,-2.9134 -1.991863,-3.6864 -1.327931,-0.7928 -3.399069,-1.1892 -6.213422,-1.1892 -2.279261,0 -4.399949,0.228 -6.362069,0.6838 -1.962142,0.4559 -3.785537,1.1396 -5.47019,2.0513 l 0,-8.1161 c 2.279238,-0.5549 4.568391,-0.9711 6.867467,-1.2486 2.29905,-0.2973 4.598114,-0.4459 6.897196,-0.4459 6.005292,0 10.335855,1.1892 12.991701,3.5675 2.675602,2.3585 4.013419,6.2035 4.013455,11.5349"
         style=""
         id="path3063" />
      <path
         d="m -9.4958917,1053.3901 0,-5.0837 0,-5.0837 0,-5.0838 0,-5.0837 2.6756364,0 2.6756365,0 2.6756364,0 2.6756364,0 0,0.8324 0,0.8325 0,0.8324 0,0.8324 c 0,0.4509 -6.226e-4,0.9309 -0.00186,1.44 -0.00124,0.5092 -0.0031,1.0474 -0.00558,1.6147 -0.00248,0.5674 -0.00557,1.1638 -0.00929,1.7894 -0.00371,0.6255 -0.00805,1.2802 -0.012996,1.9639 -0.00496,0.6788 -0.0093,1.3013 -0.013015,1.8674 -0.00372,0.5661 -0.00682,1.0758 -0.00929,1.5292 -0.00248,0.4534 -0.00433,0.8504 -0.00557,1.191 -0.00124,0.3407 -0.00185,0.625 -0.00185,0.8529 -3.8e-6,0.6689 0.00433,1.2914 0.012998,1.8674 0.00867,0.576 0.021675,1.1055 0.039017,1.5886 0.017342,0.4831 0.039021,0.9197 0.065036,1.31 0.026015,0.3902 0.056367,0.7339 0.091055,1.0312 0.03468,0.2923 0.075555,0.5649 0.1226245,0.8176 0.047069,0.2527 0.1003334,0.4856 0.1597919,0.6986 0.059459,0.2131 0.1251118,0.4063 0.1969595,0.5797 0.071848,0.1734 0.1498902,0.327 0.2341272,0.4608 0.1090032,0.1734 0.2260591,0.3369 0.3511678,0.4905 0.1251086,0.1536 0.25827,0.2973 0.3994841,0.4311 0.1412141,0.1338 0.2904809,0.2577 0.4478006,0.3716 0.1573196,0.114 0.322692,0.2181 0.4961172,0.3122 0.1783711,0.094 0.3629369,0.1765 0.5536974,0.2471 0.1907606,0.071 0.3877159,0.1295 0.590866,0.1766 0.2031502,0.047 0.4124951,0.082 0.6280349,0.1059 0.2155397,0.024 0.4372743,0.035 0.6652038,0.035 0.5549411,0 1.0801543,-0.053 1.5756396,-0.1598 0.4954853,-0.1065 0.9612427,-0.2663 1.3972722,-0.4794 0.4360296,-0.2131 0.8423313,-0.4794 1.2189053,-0.799 0.376574,-0.3196 0.72342,-0.6925 1.040539,-1.1186 0.317102,-0.4261 0.594568,-0.8937 0.832398,-1.4028 0.23783,-0.5091 0.436024,-1.0597 0.594582,-1.6519 0.158557,-0.5921 0.27748,-1.2257 0.356765,-1.9008 0.07928,-0.6751 0.11893,-1.3917 0.11893,-2.1498 l 0,-4.1101 0,-4.1101 0,-4.11 0,-4.1101 2.660771,0 2.660772,0 2.660772,0 2.660772,0 0,8.3242 0,8.3243 0,8.3242 0,8.3242 -2.660772,0 -2.660772,0 -2.660772,0 -2.660771,0 0,-1.204 0,-1.2041 0,-1.204 0,-1.2041 c -0.401352,0.4856 -0.808896,0.9396 -1.222632,1.362 -0.413736,0.4224 -0.833664,0.8132 -1.259783,1.1724 -0.42612,0.3592 -0.8584321,0.6869 -1.296936,0.983 -0.4385039,0.296 -0.8831999,0.5605 -1.3340881,0.7934 -0.4459446,0.2279 -0.9036556,0.4274 -1.3731331,0.5983 -0.4694775,0.1709 -0.9507216,0.3134 -1.4437323,0.4273 -0.4930106,0.114 -0.9977879,0.1995 -1.5143319,0.2564 -0.516544,0.057 -1.0448547,0.085 -1.5849322,0.085 -0.9612503,0 -1.86551853,-0.074 -2.71280475,-0.2211 -0.84728625,-0.1474 -1.63759045,-0.3685 -2.37091285,-0.6634 -0.7333224,-0.2948 -1.409663,-0.6633 -2.0290218,-1.1055 -0.6193588,-0.4422 -1.181736,-0.9582 -1.6871315,-1.5478 -0.5004446,-0.5896 -0.9383333,-1.2461 -1.3136663,-1.9696 -0.3753329,-0.7234 -0.6881101,-1.5137 -0.9383316,-2.3709 -0.2502215,-0.8572 -0.4378873,-1.7812 -0.5629974,-2.7722 -0.1251101,-0.991 -0.1876645,-2.0488 -0.1876633,-3.1736"
         id="path3065"
         inkscape:connector-curvature="0"
         sodipodi:nodetypes="ccccccccccccsssscssscssscssscssscssssssssssssccccccccccccccccccccssscssssssscsssc" />
      <path
         d="m 56.919359,1037.9308 0,-17.8375 10.702546,0 0,46.2588 -10.702546,0 0,-4.8162 c -1.466671,1.9621 -3.081961,3.3991 -4.845875,4.3108 -1.763959,0.9117 -3.805369,1.3675 -6.124234,1.3675 -4.102656,0 -7.471972,-1.6252 -10.10796,-4.8756 -2.636002,-3.2702 -3.953999,-7.472 -3.953996,-12.6052 -3e-6,-5.1333 1.317994,-9.3251 3.953996,-12.5755 2.635988,-3.2702 6.005304,-4.9053 10.10796,-4.9053 2.299046,0 4.330546,0.4657 6.094505,1.3972 1.783733,0.9118 3.408933,2.3388 4.875604,4.281 m -7.016113,21.5538 c 2.279223,0 4.01343,-0.8324 5.202626,-2.4973 1.208964,-1.6648 1.813459,-4.0828 1.813487,-7.2539 -2.8e-5,-3.1711 -0.604523,-5.5891 -1.813487,-7.254 -1.189196,-1.6648 -2.923403,-2.4972 -5.202626,-2.4972 -2.259445,0 -3.993652,0.8324 -5.202627,2.4972 -1.189186,1.6649 -1.783771,4.0829 -1.783757,7.254 -1.4e-5,3.1711 0.594571,5.5891 1.783757,7.2539 1.208975,1.6649 2.943182,2.4973 5.202627,2.4973"
         style=""
         id="path3067" />
      <path
         d="m 77.908231,1033.0552 10.643087,0 0,33.2969 -10.643087,0 0,-33.2969 m 0,-12.9619 10.643087,0 0,8.6809 -10.643087,0 0,-8.6809"
         style=""
         id="path3069" />
      <path
         d="m 113.76176,1051.3685 c -2.2198,0 -3.89455,0.3766 -5.02425,1.1297 -1.1099,0.7532 -1.66485,1.863 -1.66484,3.3297 -1e-5,1.3477 0.44593,2.4081 1.33782,3.181 0.91168,0.7532 2.17022,1.1297 3.77562,1.1297 2.00175,0 3.68641,-0.7135 5.05398,-2.1405 1.36752,-1.4468 2.0513,-3.2504 2.05132,-5.4107 l 0,-1.2189 -5.52965,0 m 16.26193,-4.0135 0,18.9971 -10.73228,0 0,-4.9351 c -1.42703,2.0216 -3.03241,3.4981 -4.81614,4.4297 -1.78378,0.9117 -3.95402,1.3675 -6.51072,1.3675 -3.44861,0 -6.25307,-1.0009 -8.413388,-3.0027 -2.140513,-2.0215 -3.210766,-4.6377 -3.210764,-7.8485 -2e-6,-3.9044 1.337814,-6.7683 4.013452,-8.5918 2.69545,-1.8233 6.917,-2.735 12.66468,-2.7351 l 6.27288,0 0,-0.8324 c -2e-5,-1.6846 -0.66398,-2.9134 -1.99186,-3.6864 -1.32793,-0.7928 -3.39907,-1.1892 -6.21342,-1.1892 -2.27926,0 -4.39995,0.228 -6.36207,0.6838 -1.96214,0.4559 -3.78554,1.1396 -5.470191,2.0513 l 0,-8.1161 c 2.279241,-0.5549 4.568391,-0.9711 6.867471,-1.2486 2.29905,-0.2973 4.59811,-0.4459 6.89719,-0.4459 6.00529,0 10.33586,1.1892 12.9917,3.5675 2.6756,2.3585 4.01342,6.2035 4.01346,11.5349"
         style=""
         id="path3071" />
    </g>
  </g>
</svg>
