<?xml version="1.0" encoding="UTF-8" standalone="no"?>
<!-- Created with Inkscape (http://www.inkscape.org/) -->

<svg
   xmlns:dc="http://purl.org/dc/elements/1.1/"
   xmlns:cc="http://creativecommons.org/ns#"
   xmlns:rdf="http://www.w3.org/1999/02/22-rdf-syntax-ns#"
   xmlns:svg="http://www.w3.org/2000/svg"
   xmlns="http://www.w3.org/2000/svg"
   version="1.2"
   width="210mm"
   height="297mm"
   id="svg2">
  <defs
     id="defs4" />
  <metadata
     id="metadata7">
    <rdf:RDF>
      <cc:Work
         rdf:about="">
        <dc:format>image/svg+xml</dc:format>
        <dc:type
           rdf:resource="http://purl.org/dc/dcmitype/StillImage" />
        <dc:title></dc:title>
      </cc:Work>
    </rdf:RDF>
  </metadata>
  <g
     id="layer1">
    <g
       id="flowRoot2985"
       style="font-size:144px;font-style:normal;font-variant:normal;font-weight:bold;font-stretch:normal;line-height:125%;letter-spacing:0px;word-spacing:0px;fill:#000000;fill-opacity:1;stroke:none;font-family:Waree;-inkscape-font-specification:Waree Bold">
      <path
         d="m -59.484375,1093.3798 c 10.499923,0 20.578038,-3.3047 30.234375,-9.9141 l 0,21.7266 c -9.984461,5.2031 -20.789138,7.8046 -32.414062,7.8046 -17.578172,0 -31.453158,-4.8515 -41.624998,-14.5546 -10.17189,-9.75 -15.25782,-23.0391 -15.25782,-39.8672 0,-16.8281 5.06249,-30.1171 15.1875,-39.8672 10.171847,-9.7499 24.070271,-14.6249 41.695318,-14.625 11.624924,10e-5 22.429601,2.6017 32.414062,7.8047 l 0,21.7265 c -9.750087,-6.6093 -19.828202,-9.9139 -30.234375,-9.914 -9.843806,10e-5 -17.484424,3.1407 -22.921875,9.4218 -5.437538,6.2345 -8.156285,14.7189 -8.15625,25.4532 -3.5e-5,10.7344 2.718712,19.2188 8.15625,25.4531 5.437451,6.2344 13.078069,9.3516 22.921875,9.3516"
         id="path3021" />
      <path
         d="m -7.875,1001.5516 25.171875,0 0,109.4063 -25.171875,0 0,-109.4063"
         id="path3023" />
      <path
         d="m 73.195312,1096.2626 c 4.781202,0 8.765573,-1.6875 11.953125,-5.0625 3.234317,-3.375 4.851503,-7.6406 4.851563,-12.7969 l 0,-2.8828 -13.078125,0 c -10.546912,0 -15.820344,3.5156 -15.820313,10.5469 -3.1e-5,3.2812 1.078093,5.8125 3.234375,7.5937 2.203088,1.7344 5.156211,2.6016 8.859375,2.6016 m 1.96875,-65.9532 c 6.843698,10e-5 12.703067,0.6329 17.578125,1.8985 4.874932,1.2188 9.023363,3.2344 12.445313,6.0469 3.46867,2.7657 6.02336,6.4453 7.66406,11.039 1.68742,4.5938 2.53117,10.1719 2.53125,16.7344 l 0,44.9297 -25.38281,0 0,-11.6719 c -3.140682,4.4531 -6.796929,7.8516 -10.96875,10.1953 -4.125045,2.3438 -9.398478,3.5156 -15.820313,3.5156 -8.20315,0 -14.835956,-2.3437 -19.898437,-7.0312 -5.062509,-4.7344 -7.593756,-10.9453 -7.59375,-18.6328 -6e-6,-4.2187 0.632806,-7.8984 1.898437,-11.0391 1.312491,-3.1406 3.445301,-5.9296 6.398438,-8.3672 2.953108,-2.4374 7.031228,-4.2655 12.234375,-5.4843 5.203093,-1.2656 11.507774,-1.8984 18.914062,-1.8985 l 14.835938,0 0,-1.9687 c -6e-5,-3.7031 -1.476621,-6.539 -4.429688,-8.5078 -2.906303,-2.0156 -7.898485,-3.0234 -14.976562,-3.0235 -10.640655,10e-5 -19.968771,2.1563 -27.984375,6.4688 l 0,-19.1953 c 10.921851,-2.6718 21.773403,-4.0078 32.554687,-4.0079"
         id="path3025" />
      <path
         d="m 166.00781,1112.9969 c -9.32815,0 -16.31252,-2.8359 -20.95312,-8.5078 -4.64064,-5.7187 -6.96095,-13.7812 -6.96094,-24.1875 l 0,-48.0937 25.3125,0 0,36.8437 c -4e-5,2.0626 -4e-5,3.7266 0,4.9922 0.0468,1.2657 0.14059,2.8829 0.28125,4.8516 0.18746,1.9688 0.42184,3.5625 0.70312,4.7812 0.28122,1.2188 0.70309,2.5547 1.26563,4.0078 0.60934,1.4063 1.31246,2.5313 2.10937,3.375 0.84371,0.7969 1.8984,1.4766 3.16407,2.0391 1.26558,0.5625 2.69526,0.8438 4.28906,0.8438 5.57807,0 9.77338,-2.086 12.58594,-6.2579 2.85931,-4.2187 4.28899,-9.7499 4.28906,-16.5937 l 0,-38.8828 25.17187,0 0,78.75 -25.17187,0 0,-11.3906 c -7.40631,8.9531 -16.10161,13.4296 -26.08594,13.4296"
         id="path3027" />
      <path
         d="m 269.22656,1030.3094 c 10.54683,10e-5 19.19526,4.4767 25.94531,13.4297 l 0,-42.1875 25.3125,0 0,109.4063 -25.3125,0 0,-11.3906 c -3.14068,4.2187 -6.77349,7.5234 -10.89843,9.914 -4.07818,2.3438 -9.0938,3.5156 -15.04688,3.5156 -9.89065,0 -17.90627,-3.8671 -24.04687,-11.6015 -6.14064,-7.7344 -9.21095,-17.6484 -9.21094,-29.7422 -1e-5,-12.0937 3.0703,-22.0078 9.21094,-29.7422 6.1406,-7.7343 14.15622,-11.6015 24.04687,-11.6016 m -7.17187,41.3438 c -4e-5,3.7969 0.37496,7.125 1.125,9.9844 0.74996,2.8594 1.66402,5.1094 2.74218,6.75 1.12497,1.5937 2.4609,2.9062 4.00782,3.9375 1.54683,0.9844 2.99995,1.6406 4.35937,1.9687 1.35933,0.2813 2.78902,0.4219 4.28906,0.4219 5.7187,0 9.91401,-2.0625 12.58594,-6.1875 2.67181,-4.1719 4.00775,-9.7968 4.00781,-16.875 -6e-5,-3.4218 -0.30475,-6.4921 -0.91406,-9.2109 -0.60944,-2.7187 -1.54694,-5.1328 -2.8125,-7.2422 -1.26568,-2.1093 -3.00006,-3.7265 -5.20312,-4.8516 -2.15631,-1.1718 -4.71099,-1.7577 -7.66407,-1.7578 -5.67191,10e-5 -9.84378,2.086 -12.51562,6.2578 -2.67191,4.1251 -4.00785,9.7266 -4.00781,16.8047"
         id="path3029" />
      <path
         d="m 344.8125,1032.2079 25.17187,0 0,78.75 -25.17187,0 0,-78.75 m 0,-30.6563 25.17187,0 0,20.5313 -25.17187,0 0,-20.5313"
         id="path3031" />
      <path
         d="m 425.88281,1096.2626 c 4.7812,0 8.76558,-1.6875 11.95313,-5.0625 3.23431,-3.375 4.8515,-7.6406 4.85156,-12.7969 l 0,-2.8828 -13.07813,0 c -10.54691,0 -15.82034,3.5156 -15.82031,10.5469 -3e-5,3.2812 1.07809,5.8125 3.23438,7.5937 2.20309,1.7344 5.15621,2.6016 8.85937,2.6016 m 1.96875,-65.9532 c 6.8437,10e-5 12.70307,0.6329 17.57813,1.8985 4.87493,1.2188 9.02336,3.2344 12.44531,6.0469 3.46867,2.7657 6.02336,6.4453 7.66406,11.039 1.68742,4.5938 2.53117,10.1719 2.53125,16.7344 l 0,44.9297 -25.38281,0 0,-11.6719 c -3.14068,4.4531 -6.79693,7.8516 -10.96875,10.1953 -4.12505,2.3438 -9.39848,3.5156 -15.82031,3.5156 -8.20315,0 -14.83596,-2.3437 -19.89844,-7.0312 -5.06251,-4.7344 -7.59376,-10.9453 -7.59375,-18.6328 -10e-6,-4.2187 0.63281,-7.8984 1.89844,-11.0391 1.31249,-3.1406 3.4453,-5.9296 6.39843,-8.3672 2.95311,-2.4374 7.03123,-4.2655 12.23438,-5.4843 5.20309,-1.2656 11.50777,-1.8984 18.91406,-1.8985 l 14.83594,0 0,-1.9687 c -6e-5,-3.7031 -1.47662,-6.539 -4.42969,-8.5078 -2.9063,-2.0156 -7.89848,-3.0234 -14.97656,-3.0235 -10.64066,10e-5 -19.96877,2.1563 -27.98438,6.4688 l 0,-19.1953 c 10.92186,-2.6718 21.77341,-4.0078 32.55469,-4.0079"
         id="path3033" />
    </g>
    <flowRoot
       id="flowRoot2993"
       xml:space="preserve"
       style="font-size:40px;font-style:normal;font-weight:bold;line-height:125%;letter-spacing:0px;word-spacing:0px;fill:#000000;fill-opacity:1;stroke:none;font-family:Sans;-inkscape-font-specification:Sans Bold"><flowRegion
         id="flowRegion2995"><rect
           width="185.71428"
           height="62.857143"
           x="80"
           y="1020.9336"
           id="rect2997" /></flowRegion><flowPara
         id="flowPara2999"></flowPara></flowRoot>  </g>
</svg>
