<?xml version="1.0" encoding="UTF-8" standalone="no"?>
<!-- Created with Inkscape (http://www.inkscape.org/) -->

<svg
   xmlns:dc="http://purl.org/dc/elements/1.1/"
   xmlns:cc="http://creativecommons.org/ns#"
   xmlns:rdf="http://www.w3.org/1999/02/22-rdf-syntax-ns#"
   xmlns:svg="http://www.w3.org/2000/svg"
   xmlns="http://www.w3.org/2000/svg"
   version="1.2"
   width="210mm"
   height="297mm"
   id="svg2">
  <defs
     id="defs4" />
  <metadata
     id="metadata7">
    <rdf:RDF>
      <cc:Work
         rdf:about="">
        <dc:format>image/svg+xml</dc:format>
        <dc:type
           rdf:resource="http://purl.org/dc/dcmitype/StillImage" />
        <dc:title></dc:title>
      </cc:Work>
    </rdf:RDF>
  </metadata>
  <g
     id="layer1"
     style="display:inline">
    <flowRoot
       id="flowRoot2993"
       xml:space="preserve"
       style="font-size:40px;font-style:normal;font-weight:bold;line-height:125%;letter-spacing:0px;word-spacing:0px;fill:#000000;fill-opacity:1;stroke:none;font-family:Sans;-inkscape-font-specification:Sans Bold"><flowRegion
         id="flowRegion2995"><rect
           width="185.71428"
           height="62.857143"
           x="80"
           y="1020.9336"
           id="rect2997" /></flowRegion><flowPara
         id="flowPara2999" /></flowRoot>    <g
       transform="matrix(1.7309735,0,0,1.7309735,0,-847.87267)"
       id="flowRoot3091"
       style="font-size:40px;font-style:normal;font-variant:normal;font-weight:bold;font-stretch:normal;line-height:125%;letter-spacing:0px;word-spacing:0px;fill:#000000;fill-opacity:1;stroke:none;font-family:Saab;-inkscape-font-specification:Saab Bold">
      <path
         d="m 3.671875,1068.3348 7.519531,0 0,17.4805 c -1.1e-5,2.4088 0.390614,4.1341 1.171875,5.1758 0.794258,1.0286 2.083319,1.5429 3.867188,1.5429 1.796857,0 3.085918,-0.5143 3.867187,-1.5429 0.79425,-1.0417 1.191385,-2.767 1.191406,-5.1758 l 0,-17.4805 7.519532,0 0,17.4805 c -2.9e-5,4.1276 -1.035184,7.2005 -3.105469,9.2187 -2.070336,2.0183 -5.227885,3.0274 -9.472656,3.0274 -4.231783,0 -7.3828216,-1.0091 -9.4531253,-3.0274 -2.0703172,-2.0182 -3.1054724,-5.0911 -3.1054687,-9.2187 l 0,-17.4805"
         id="path3106" />
      <path
         d="m 39.921875,1095.5223 c -7e-6,0.2734 -0.05209,0.5339 -0.15625,0.7813 -0.104174,0.2343 -0.247403,0.4427 -0.429688,0.625 -0.169277,0.1692 -0.37761,0.306 -0.625,0.4101 -0.23438,0.1042 -0.488286,0.1563 -0.761718,0.1563 -0.273443,0 -0.533859,-0.052 -0.78125,-0.1563 -0.23438,-0.1041 -0.442713,-0.2409 -0.625,-0.4101 -0.169275,-0.1823 -0.305994,-0.3907 -0.410157,-0.625 -0.10417,-0.2474 -0.156253,-0.5079 -0.15625,-0.7813 -3e-6,-0.2734 0.05208,-0.5273 0.15625,-0.7617 0.104163,-0.2474 0.240882,-0.4557 0.410157,-0.625 0.182287,-0.1823 0.39062,-0.3255 0.625,-0.4297 0.247391,-0.1042 0.507807,-0.1562 0.78125,-0.1562 0.273432,0 0.527338,0.052 0.761718,0.1562 0.24739,0.1042 0.455723,0.2474 0.625,0.4297 0.182285,0.1693 0.325514,0.3776 0.429688,0.625 0.104159,0.2344 0.156243,0.4883 0.15625,0.7617"
         id="path3108" />
      <path
         d="m 69.6875,1095.8934 c -1.380234,0.7162 -2.819034,1.2565 -4.316406,1.6211 -1.497417,0.3646 -3.059916,0.5469 -4.6875,0.5469 -4.856784,0 -8.704436,-1.3542 -11.542969,-4.0625 -2.838545,-2.7214 -4.257814,-6.4063 -4.257813,-11.0547 -1e-6,-4.6615 1.419268,-8.3463 4.257813,-11.0547 2.838533,-2.7213 6.686185,-4.082 11.542969,-4.082 1.627584,0 3.190083,0.1823 4.6875,0.5468 1.497372,0.3647 2.936172,0.905 4.316406,1.6211 l 0,6.0352 c -1.393255,-0.9505 -2.766951,-1.6471 -4.121094,-2.0899 -1.354188,-0.4426 -2.779968,-0.664 -4.277344,-0.664 -2.682307,0 -4.79168,0.8594 -6.328125,2.5781 -1.536468,1.7188 -2.304697,4.0886 -2.304687,7.1094 -1e-5,3.0078 0.768219,5.3711 2.304687,7.0898 1.536445,1.7188 3.645818,2.5782 6.328125,2.5782 1.497376,0 2.923156,-0.2214 4.277344,-0.6641 1.354143,-0.4427 2.727839,-1.1393 4.121094,-2.0899 l 0,6.0352"
         id="path3110" />
      <path
         d="m 79.6875,1095.5223 c -7e-6,0.2734 -0.05209,0.5339 -0.15625,0.7813 -0.104174,0.2343 -0.247403,0.4427 -0.429688,0.625 -0.169277,0.1692 -0.37761,0.306 -0.625,0.4101 -0.23438,0.1042 -0.488286,0.1563 -0.761718,0.1563 -0.273443,0 -0.533859,-0.052 -0.78125,-0.1563 -0.23438,-0.1041 -0.442713,-0.2409 -0.625,-0.4101 -0.169275,-0.1823 -0.305994,-0.3907 -0.410157,-0.625 -0.10417,-0.2474 -0.156253,-0.5079 -0.15625,-0.7813 -3e-6,-0.2734 0.05208,-0.5273 0.15625,-0.7617 0.104163,-0.2474 0.240882,-0.4557 0.410157,-0.625 0.182287,-0.1823 0.39062,-0.3255 0.625,-0.4297 0.247391,-0.1042 0.507807,-0.1562 0.78125,-0.1562 0.273432,0 0.527338,0.052 0.761718,0.1562 0.24739,0.1042 0.455723,0.2474 0.625,0.4297 0.182285,0.1693 0.325514,0.3776 0.429688,0.625 0.104159,0.2344 0.156243,0.4883 0.15625,0.7617"
         id="path3112" />
      <path
         d="m 86.328125,1068.3348 7.519531,0 0,29.1602 -7.519531,0 0,-29.1602"
         id="path3114" />
      <path
         d="m 105,1095.5223 c -1e-5,0.2734 -0.0521,0.5339 -0.15625,0.7813 -0.10417,0.2343 -0.2474,0.4427 -0.42969,0.625 -0.16927,0.1692 -0.37761,0.306 -0.625,0.4101 -0.23438,0.1042 -0.48828,0.1563 -0.76172,0.1563 -0.27344,0 -0.53386,-0.052 -0.78125,-0.1563 -0.23438,-0.1041 -0.44271,-0.2409 -0.625,-0.4101 -0.16927,-0.1823 -0.30599,-0.3907 -0.41015,-0.625 -0.10417,-0.2474 -0.15626,-0.5079 -0.15625,-0.7813 -10e-6,-0.2734 0.0521,-0.5273 0.15625,-0.7617 0.10416,-0.2474 0.24088,-0.4557 0.41015,-0.625 0.18229,-0.1823 0.39062,-0.3255 0.625,-0.4297 0.24739,-0.1042 0.50781,-0.1562 0.78125,-0.1562 0.27344,0 0.52734,0.052 0.76172,0.1562 0.24739,0.1042 0.45573,0.2474 0.625,0.4297 0.18229,0.1693 0.32552,0.3776 0.42969,0.625 0.10416,0.2344 0.15624,0.4883 0.15625,0.7617"
         id="path3116" />
      <path
         d="m 17.578125,1130.196 8.398437,0 10.605469,20 0,-20 7.128906,0 0,29.1602 -8.398437,0 -10.605469,-20 0,20 -7.128906,0 0,-29.1602"
         id="path3118" />
      <path
         d="m 72.617187,1148.3601 0,1.9922 -16.347656,0 c 0.169262,1.6406 0.761709,2.8711 1.777344,3.6914 1.015613,0.8203 2.434883,1.2304 4.257812,1.2304 1.471338,0 2.975243,-0.2148 4.511719,-0.6445 1.549458,-0.4427 3.137999,-1.1068 4.765625,-1.9922 l 0,5.3906 c -1.653668,0.625 -3.307312,1.0938 -4.960937,1.4063 -1.653664,0.3255 -3.307308,0.4883 -4.960938,0.4883 -3.958343,0 -7.037767,-1.0026 -9.238281,-3.0078 -2.187503,-2.0183 -3.281252,-4.8438 -3.28125,-8.4766 -2e-6,-3.5677 1.074216,-6.3737 3.222656,-8.418 2.161451,-2.0442 5.130199,-3.0663 8.90625,-3.0664 3.437483,10e-5 6.184876,1.0352 8.242188,3.1055 2.070288,2.0703 3.105443,4.8373 3.105468,8.3008 m -7.1875,-2.3242 c -1.8e-5,-1.3282 -0.390642,-2.3959 -1.171875,-3.2032 -0.768245,-0.8203 -1.777358,-1.2304 -3.027343,-1.2304 -1.354179,0 -2.454439,0.3841 -3.300782,1.1523 -0.846363,0.7552 -1.373707,1.849 -1.582031,3.2813 l 9.082031,0"
         id="path3120" />
      <path
         d="m 88.300781,1141.9538 c -1.549491,0 -2.734386,0.5599 -3.554687,1.6797 -0.807301,1.1068 -1.210947,2.7084 -1.210938,4.8047 -9e-6,2.0964 0.403637,3.7044 1.210938,4.8242 0.820301,1.1068 2.005196,1.6602 3.554687,1.6602 1.523422,0 2.688786,-0.5534 3.496094,-1.6602 0.807274,-1.1198 1.210919,-2.7278 1.210937,-4.8242 -1.8e-5,-2.0963 -0.403663,-3.6979 -1.210937,-4.8047 -0.807308,-1.1198 -1.972672,-1.6797 -3.496094,-1.6797 m 0,-5 c 3.763004,10e-5 6.699199,1.0157 8.808594,3.0469 2.122371,2.0313 3.183565,4.8438 3.183595,8.4375 -3e-5,3.5938 -1.061224,6.4063 -3.183595,8.4375 -2.109395,2.0313 -5.04559,3.0469 -8.808594,3.0469 -3.776051,0 -6.731778,-1.0156 -8.867187,-3.0469 -2.122399,-2.0312 -3.183596,-4.8437 -3.183594,-8.4375 -2e-6,-3.5937 1.061195,-6.4062 3.183594,-8.4375 2.135409,-2.0312 5.091136,-3.0468 8.867187,-3.0469"
         id="path3122" />
    </g>
  </g>
</svg>
