solid OpenSCAD_Model
  facet normal -1 0 0
    outer loop
      vertex 0 0 0
      vertex 0 0 10
      vertex 0 3.5 0
    endloop
  endfacet
  facet normal -1 0 0
    outer loop
      vertex 0 3.5 0
      vertex 0 0 10
      vertex 0 3.5 10
    endloop
  endfacet
  facet normal 0 -1 0
    outer loop
      vertex 0 0 10
      vertex 0 0 0
      vertex 24 0 0
    endloop
  endfacet
  facet normal 0 -1 0
    outer loop
      vertex 24 0 10
      vertex 0 0 10
      vertex 24 0 0
    endloop
  endfacet
  facet normal 0 0 -1
    outer loop
      vertex 8 2.5 0
      vertex 24 0 0
      vertex 1.5 2.5 0
    endloop
  endfacet
  facet normal 0 0 -1
    outer loop
      vertex 0 0 0
      vertex 0 3.5 0
      vertex 1.5 2.5 0
    endloop
  endfacet
  facet normal 0 0 -1
    outer loop
      vertex 0 0 0
      vertex 1.5 2.5 0
      vertex 24 0 0
    endloop
  endfacet
  facet normal 0 0 -1
    outer loop
      vertex 0 57.5 0
      vertex 1.5 58 0
      vertex 1.5 57.5 0
    endloop
  endfacet
  facet normal 0 0 -1
    outer loop
      vertex 15 5 0
      vertex 8 2.5 0
      vertex 8 58 0
    endloop
  endfacet
  facet normal 0 0 -1
    outer loop
      vertex 21 57.5 0
      vertex 24 56 0
      vertex 21 56 0
    endloop
  endfacet
  facet normal 0 0 -1
    outer loop
      vertex 1.5 58 0
      vertex 0 57.5 0
      vertex 0 60.5 0
    endloop
  endfacet
  facet normal 0 0 -1
    outer loop
      vertex 1.5 58 0
      vertex 0 60.5 0
      vertex 8 58 0
    endloop
  endfacet
  facet normal 0 0 -1
    outer loop
      vertex 8 58 0
      vertex 0 60.5 0
      vertex 24 60.5 0
    endloop
  endfacet
  facet normal 0 0 -1
    outer loop
      vertex 21 57.5 0
      vertex 24 60.5 0
      vertex 24 56 0
    endloop
  endfacet
  facet normal 0 0 -1
    outer loop
      vertex 8 58 0
      vertex 24 60.5 0
      vertex 21 57.5 0
    endloop
  endfacet
  facet normal 0 0 -1
    outer loop
      vertex 18 56 0
      vertex 8 58 0
      vertex 18 57.5 0
    endloop
  endfacet
  facet normal 0 0 -1
    outer loop
      vertex 8 58 0
      vertex 21 57.5 0
      vertex 18 57.5 0
    endloop
  endfacet
  facet normal 0 0 -1
    outer loop
      vertex 15 5 0
      vertex 8 58 0
      vertex 15 56 0
    endloop
  endfacet
  facet normal 0 0 -1
    outer loop
      vertex 8 58 0
      vertex 18 56 0
      vertex 15 56 0
    endloop
  endfacet
  facet normal 0 0 -1
    outer loop
      vertex 24 0 0
      vertex 8 2.5 0
      vertex 15 5 0
    endloop
  endfacet
  facet normal 0 0 -1
    outer loop
      vertex 21 3.5 0
      vertex 24 0 0
      vertex 18 3.5 0
    endloop
  endfacet
  facet normal 0 0 -1
    outer loop
      vertex 18 3.5 0
      vertex 15 5 0
      vertex 18 5 0
    endloop
  endfacet
  facet normal 0 0 -1
    outer loop
      vertex 24 0 0
      vertex 15 5 0
      vertex 18 3.5 0
    endloop
  endfacet
  facet normal 0 0 -1
    outer loop
      vertex 24 5 0
      vertex 24 0 0
      vertex 21 5 0
    endloop
  endfacet
  facet normal 0 0 -1
    outer loop
      vertex 24 0 0
      vertex 21 3.5 0
      vertex 21 5 0
    endloop
  endfacet
  facet normal 0 0 -1
    outer loop
      vertex 1.5 2.5 0
      vertex 0 3.5 0
      vertex 1.5 3.5 0
    endloop
  endfacet
  facet normal 0 1 0
    outer loop
      vertex 1.5 3.5 10
      vertex 1.5 3.5 0
      vertex 0 3.5 10
    endloop
  endfacet
  facet normal 0 1 0
    outer loop
      vertex 0 3.5 10
      vertex 1.5 3.5 0
      vertex 0 3.5 0
    endloop
  endfacet
  facet normal 0 0 1
    outer loop
      vertex 1.5 2.5 10
      vertex 0 0 10
      vertex 24 0 10
    endloop
  endfacet
  facet normal 0 0 1
    outer loop
      vertex 21 3.5 10
      vertex 18 3.5 10
      vertex 24 0 10
    endloop
  endfacet
  facet normal 0 0 1
    outer loop
      vertex 24 5 10
      vertex 21 3.5 10
      vertex 24 0 10
    endloop
  endfacet
  facet normal 0 0 1
    outer loop
      vertex 1.5 2.5 10
      vertex 1.5 3.5 10
      vertex 0 3.5 10
    endloop
  endfacet
  facet normal 0 0 1
    outer loop
      vertex 18 57.5 10
      vertex 15 56 10
      vertex 18 56 10
    endloop
  endfacet
  facet normal 0 0 1
    outer loop
      vertex 0 60.5 10
      vertex 15 56 10
      vertex 18 57.5 10
    endloop
  endfacet
  facet normal 0 0 1
    outer loop
      vertex 24 60.5 10
      vertex 18 57.5 10
      vertex 21 57.5 10
    endloop
  endfacet
  facet normal 0 0 1
    outer loop
      vertex 24 60.5 10
      vertex 21 57.5 10
      vertex 24 56 10
    endloop
  endfacet
  facet normal 0 0 1
    outer loop
      vertex 0 60.5 10
      vertex 18 57.5 10
      vertex 24 60.5 10
    endloop
  endfacet
  facet normal 0 0 1
    outer loop
      vertex 0 60.5 10
      vertex 0 57.5 10
      vertex 1.5 57.5 10
    endloop
  endfacet
  facet normal 0 0 1
    outer loop
      vertex 0 60.5 10
      vertex 1.5 57.5 10
      vertex 1.5 58 10
    endloop
  endfacet
  facet normal 0 0 1
    outer loop
      vertex 0 60.5 10
      vertex 8 58 10
      vertex 15 56 10
    endloop
  endfacet
  facet normal 0 0 1
    outer loop
      vertex 0 60.5 10
      vertex 1.5 58 10
      vertex 8 58 10
    endloop
  endfacet
  facet normal 0 0 1
    outer loop
      vertex 18 3.5 10
      vertex 8 2.5 10
      vertex 24 0 10
    endloop
  endfacet
  facet normal 0 0 1
    outer loop
      vertex 0 3.5 10
      vertex 0 0 10
      vertex 1.5 2.5 10
    endloop
  endfacet
  facet normal 0 0 1
    outer loop
      vertex 8 2.5 10
      vertex 1.5 2.5 10
      vertex 24 0 10
    endloop
  endfacet
  facet normal 0 0 1
    outer loop
      vertex 21 56 10
      vertex 24 56 10
      vertex 21 57.5 10
    endloop
  endfacet
  facet normal 0 0 1
    outer loop
      vertex 21 5 10
      vertex 21 3.5 10
      vertex 24 5 10
    endloop
  endfacet
  facet normal 0 0 1
    outer loop
      vertex 8 58 10
      vertex 15 5 10
      vertex 15 56 10
    endloop
  endfacet
  facet normal 0 0 1
    outer loop
      vertex 15 5 10
      vertex 18 3.5 10
      vertex 18 5 10
    endloop
  endfacet
  facet normal 0 0 1
    outer loop
      vertex 15 5 10
      vertex 8 2.5 10
      vertex 18 3.5 10
    endloop
  endfacet
  facet normal 0 0 1
    outer loop
      vertex 8 58 10
      vertex 8 2.5 10
      vertex 15 5 10
    endloop
  endfacet
  facet normal 1 0 0
    outer loop
      vertex 24 0 10
      vertex 24 0 0
      vertex 24 5 0
    endloop
  endfacet
  facet normal 1 0 0
    outer loop
      vertex 24 5 10
      vertex 24 0 10
      vertex 24 5 0
    endloop
  endfacet
  facet normal 0 1 0
    outer loop
      vertex 24 5 10
      vertex 24 5 0
      vertex 21 5 10
    endloop
  endfacet
  facet normal 0 1 0
    outer loop
      vertex 21 5 10
      vertex 24 5 0
      vertex 21 5 0
    endloop
  endfacet
  facet normal -1 0 0
    outer loop
      vertex 21 5 10
      vertex 21 5 0
      vertex 21 3.5 10
    endloop
  endfacet
  facet normal -1 0 0
    outer loop
      vertex 21 3.5 10
      vertex 21 5 0
      vertex 21 3.5 0
    endloop
  endfacet
  facet normal 0 1 0
    outer loop
      vertex 21 3.5 10
      vertex 21 3.5 0
      vertex 18 3.5 10
    endloop
  endfacet
  facet normal 0 1 0
    outer loop
      vertex 18 3.5 10
      vertex 21 3.5 0
      vertex 18 3.5 0
    endloop
  endfacet
  facet normal 1 0 0
    outer loop
      vertex 18 5 0
      vertex 18 5 10
      vertex 18 3.5 10
    endloop
  endfacet
  facet normal 1 0 0
    outer loop
      vertex 18 3.5 0
      vertex 18 5 0
      vertex 18 3.5 10
    endloop
  endfacet
  facet normal 0 1 0
    outer loop
      vertex 18 5 10
      vertex 18 5 0
      vertex 15 5 10
    endloop
  endfacet
  facet normal 0 1 0
    outer loop
      vertex 15 5 10
      vertex 18 5 0
      vertex 15 5 0
    endloop
  endfacet
  facet normal 1 0 0
    outer loop
      vertex 15 56 0
      vertex 15 56 10
      vertex 15 5 10
    endloop
  endfacet
  facet normal 1 0 0
    outer loop
      vertex 15 5 0
      vertex 15 56 0
      vertex 15 5 10
    endloop
  endfacet
  facet normal 0 -1 0
    outer loop
      vertex 18 56 0
      vertex 18 56 10
      vertex 15 56 10
    endloop
  endfacet
  facet normal 0 -1 0
    outer loop
      vertex 15 56 0
      vertex 18 56 0
      vertex 15 56 10
    endloop
  endfacet
  facet normal 1 0 0
    outer loop
      vertex 18 57.5 0
      vertex 18 57.5 10
      vertex 18 56 10
    endloop
  endfacet
  facet normal 1 0 0
    outer loop
      vertex 18 56 0
      vertex 18 57.5 0
      vertex 18 56 10
    endloop
  endfacet
  facet normal 0 -1 0
    outer loop
      vertex 21 57.5 0
      vertex 21 57.5 10
      vertex 18 57.5 10
    endloop
  endfacet
  facet normal 0 -1 0
    outer loop
      vertex 18 57.5 0
      vertex 21 57.5 0
      vertex 18 57.5 10
    endloop
  endfacet
  facet normal -1 0 0
    outer loop
      vertex 21 57.5 10
      vertex 21 57.5 0
      vertex 21 56 10
    endloop
  endfacet
  facet normal -1 0 0
    outer loop
      vertex 21 56 10
      vertex 21 57.5 0
      vertex 21 56 0
    endloop
  endfacet
  facet normal 0 -1 0
    outer loop
      vertex 24 56 0
      vertex 24 56 10
      vertex 21 56 10
    endloop
  endfacet
  facet normal 0 -1 0
    outer loop
      vertex 21 56 0
      vertex 24 56 0
      vertex 21 56 10
    endloop
  endfacet
  facet normal 1 0 0
    outer loop
      vertex 24 56 10
      vertex 24 56 0
      vertex 24 60.5 0
    endloop
  endfacet
  facet normal 1 0 0
    outer loop
      vertex 24 60.5 10
      vertex 24 56 10
      vertex 24 60.5 0
    endloop
  endfacet
  facet normal 0 1 0
    outer loop
      vertex 0 60.5 0
      vertex 0 60.5 10
      vertex 24 60.5 0
    endloop
  endfacet
  facet normal 0 1 0
    outer loop
      vertex 24 60.5 0
      vertex 0 60.5 10
      vertex 24 60.5 10
    endloop
  endfacet
  facet normal -1 0 0
    outer loop
      vertex 0 57.5 0
      vertex 0 57.5 10
      vertex 0 60.5 0
    endloop
  endfacet
  facet normal -1 0 0
    outer loop
      vertex 0 60.5 0
      vertex 0 57.5 10
      vertex 0 60.5 10
    endloop
  endfacet
  facet normal 0 -1 0
    outer loop
      vertex 1.5 57.5 0
      vertex 1.5 57.5 10
      vertex 0 57.5 10
    endloop
  endfacet
  facet normal 0 -1 0
    outer loop
      vertex 0 57.5 0
      vertex 1.5 57.5 0
      vertex 0 57.5 10
    endloop
  endfacet
  facet normal 1 0 0
    outer loop
      vertex 1.5 58 0
      vertex 1.5 58 10
      vertex 1.5 57.5 10
    endloop
  endfacet
  facet normal 1 0 0
    outer loop
      vertex 1.5 57.5 0
      vertex 1.5 58 0
      vertex 1.5 57.5 10
    endloop
  endfacet
  facet normal 0 -1 0
    outer loop
      vertex 8 58 0
      vertex 8 58 10
      vertex 1.5 58 10
    endloop
  endfacet
  facet normal 0 -1 0
    outer loop
      vertex 1.5 58 0
      vertex 8 58 0
      vertex 1.5 58 10
    endloop
  endfacet
  facet normal -1 0 0
    outer loop
      vertex 8 58 10
      vertex 8 58 0
      vertex 8 2.5 10
    endloop
  endfacet
  facet normal -1 0 0
    outer loop
      vertex 8 2.5 10
      vertex 8 58 0
      vertex 8 2.5 0
    endloop
  endfacet
  facet normal 0 1 0
    outer loop
      vertex 8 2.5 10
      vertex 8 2.5 0
      vertex 1.5 2.5 10
    endloop
  endfacet
  facet normal 0 1 0
    outer loop
      vertex 1.5 2.5 10
      vertex 8 2.5 0
      vertex 1.5 2.5 0
    endloop
  endfacet
  facet normal 1 0 0
    outer loop
      vertex 1.5 3.5 0
      vertex 1.5 3.5 10
      vertex 1.5 2.5 10
    endloop
  endfacet
  facet normal 1 0 0
    outer loop
      vertex 1.5 2.5 0
      vertex 1.5 3.5 0
      vertex 1.5 2.5 10
    endloop
  endfacet
endsolid OpenSCAD_Model
