  0
SECTION
  2
HEADER
  9
$ACADVER
  1
AC1014
  9
$HANDSEED
  5
FFFF
  9
$MEASUREMENT
 70
     1
  0
ENDSEC
  0
SECTION
  2
TABLES
  0
TABLE
  2
VPORT
  5
8
330
0
100
AcDbSymbolTable
 70
     4
  0
VPORT
  5
2E
330
8
100
AcDbSymbolTableRecord
100
AcDbViewportTableRecord
  2
*ACTIVE
 70
     0
 10
0.0
 20
0.0
 11
1.0
 21
1.0
 12
210.0
 22
148.5
 13
0.0
 23
0.0
 14
10.0
 24
10.0
 15
10.0
 25
10.0
 16
0.0
 26
0.0
 36
1.0
 17
0.0
 27
0.0
 37
0.0
 40
341.0
 41
1.24
 42
50.0
 43
0.0
 44
0.0
 50
0.0
 51
0.0
 71
     0
 72
   100
 73
     1
 74
     3
 75
     0
 76
     0
 77
     0
 78
     0
  0
ENDTAB
  0
TABLE
  2
LTYPE
  5
5
330
0
100
AcDbSymbolTable
 70
     1
  0
LTYPE
  5
14
330
5
100
AcDbSymbolTableRecord
100
AcDbLinetypeTableRecord
  2
BYBLOCK
 70
     0
  3

 72
    65
 73
     0
 40
0.0
  0
LTYPE
  5
15
330
5
100
AcDbSymbolTableRecord
100
AcDbLinetypeTableRecord
  2
BYLAYER
 70
     0
  3

 72
    65
 73
     0
 40
0.0
  0
LTYPE
  5
16
330
5
100
AcDbSymbolTableRecord
100
AcDbLinetypeTableRecord
  2
CONTINUOUS
 70
     0
  3
Solid line
 72
    65
 73
     0
 40
0.0
  0
ENDTAB
  0
TABLE
  2
LAYER
  5
2
100
AcDbSymbolTable
 70
3
  0
LAYER
  5
50
100
AcDbSymbolTableRecord
100
AcDbLayerTableRecord
  2
0
 70
0
  6
CONTINUOUS
  0
LAYER
  5
51
100
AcDbSymbolTableRecord
100
AcDbLayerTableRecord
  2
Negro
 70
0
  6
CONTINUOUS
  0
LAYER
  5
52
100
AcDbSymbolTableRecord
100
AcDbLayerTableRecord
  2
rojo
 70
0
  6
CONTINUOUS
  0
ENDTAB
  0
TABLE
  2
STYLE
  5
3
330
0
100
AcDbSymbolTable
 70
     1
  0
STYLE
  5
11
330
3
100
AcDbSymbolTableRecord
100
AcDbTextStyleTableRecord
  2
STANDARD
 70
     0
 40
0.0
 41
1.0
 50
0.0
 71
     0
 42
2.5
  3
txt
  4

  0
ENDTAB
  0
TABLE
  2
VIEW
  5
6
330
0
100
AcDbSymbolTable
 70
     0
  0
ENDTAB
  0
TABLE
  2
UCS
  5
7
330
0
100
AcDbSymbolTable
 70
     0
  0
ENDTAB
  0
TABLE
  2
APPID
  5
9
330
0
100
AcDbSymbolTable
 70
     2
  0
APPID
  5
12
330
9
100
AcDbSymbolTableRecord
100
AcDbRegAppTableRecord
  2
ACAD
 70
     0
  0
ENDTAB
  0
TABLE
  2
DIMSTYLE
  5
A
330
0
100
AcDbSymbolTable
 70
     1
  0
DIMSTYLE
105
27
330
A
100
AcDbSymbolTableRecord
100
AcDbDimStyleTableRecord
  2
ISO-25
 70
     0
  3

  4

  5

  6

  7

 40
1.0
 41
2.5
 42
0.625
 43
3.75
 44
1.25
 45
0.0
 46
0.0
 47
0.0
 48
0.0
140
2.5
141
2.5
142
0.0
143
0.03937007874016
144
1.0
145
0.0
146
1.0
147
0.625
 71
     0
 72
     0
 73
     0
 74
     0
 75
     0
 76
     0
 77
     1
 78
     8
170
     0
171
     3
172
     1
173
     0
174
     0
175
     0
176
     0
177
     0
178
     0
270
     2
271
     2
272
     2
273
     2
274
     3
340
11
275
     0
280
     0
281
     0
282
     0
283
     0
284
     8
285
     0
286
     0
287
     3
288
     0
  0
ENDTAB
  0
TABLE
  2
BLOCK_RECORD
  5
1
330
0
100
AcDbSymbolTable
 70
     1
  0
BLOCK_RECORD
  5
1F
330
1
100
AcDbSymbolTableRecord
100
AcDbBlockTableRecord
  2
*MODEL_SPACE
  0
BLOCK_RECORD
  5
1B
330
1
100
AcDbSymbolTableRecord
100
AcDbBlockTableRecord
  2
*PAPER_SPACE
  0
ENDTAB
  0
ENDSEC
  0
SECTION
  2
BLOCKS
  0
BLOCK
  5
20
330
1F
100
AcDbEntity
  8
0
100
AcDbBlockBegin
  2
*MODEL_SPACE
 70
     0
 10
0.0
 20
0.0
 30
0.0
  3
*MODEL_SPACE
  1

  0
ENDBLK
  5
21
330
1F
100
AcDbEntity
  8
0
100
AcDbBlockEnd
  0
BLOCK
  5
1C
330
1B
100
AcDbEntity
 67
     1
  8
0
100
AcDbBlockBegin
  2
*PAPER_SPACE
  1

  0
ENDBLK
  5
1D
330
1B
100
AcDbEntity
 67
     1
  8
0
100
AcDbBlockEnd
  0
ENDSEC
  0
SECTION
  2
ENTITIES
  0
LWPOLYLINE
  5
100
100
AcDbEntity
  8
Negro
 62
7
100
AcDbPolyline
 90
93
 70
0
 10
-3.505803
 20
-27.086966
 30
0.0
 10
-8.914627
 20
-26.966779
 30
0.0
 10
-11.975519
 20
-26.814343
 30
0.0
 10
-13.546043
 20
-26.553047
 30
0.0
 10
-14.483768
 20
-26.106287
 30
0.0
 10
-15.752043
 20
-25.193521
 30
0.0
 10
-16.828778
 20
-24.160093
 30
0.0
 10
-17.696616
 20
-23.025354
 30
0.0
 10
-18.338201
 20
-21.808657
 30
0.0
 10
-18.656436
 20
-20.418696
 30
0.0
 10
-18.846160
 20
-17.311057
 30
0.0
 10
-18.946854
 20
-11.237685
 30
0.0
 10
-18.997995
 20
-0.950524
 30
0.0
 10
-18.997205
 20
6.759318
 30
0.0
 10
-18.950763
 20
13.394004
 30
0.0
 10
-18.866704
 20
18.246130
 30
0.0
 10
-18.753064
 20
20.608301
 30
0.0
 10
-18.304751
 20
22.295702
 30
0.0
 10
-17.459612
 20
23.818260
 30
0.0
 10
-16.207905
 20
25.189423
 30
0.0
 10
-14.539886
 20
26.422629
 30
0.0
 10
-14.205665
 20
26.630463
 30
0.0
 10
-13.871444
 20
26.838298
 30
0.0
 10
-13.537223
 20
27.046132
 30
0.0
 10
-13.203002
 20
27.253966
 30
0.0
 10
-8.255363
 20
27.280495
 30
0.0
 10
-3.307723
 20
27.307052
 30
0.0
 10
1.639916
 20
27.333581
 30
0.0
 10
6.587555
 20
27.360138
 30
0.0
 10
11.535195
 20
27.386695
 30
0.0
 10
16.482833
 20
27.413224
 30
0.0
 10
21.430474
 20
27.439781
 30
0.0
 10
26.378111
 20
27.466338
 30
0.0
 10
26.827974
 20
27.159227
 30
0.0
 10
27.277833
 20
26.852115
 30
0.0
 10
27.727695
 20
26.545004
 30
0.0
 10
28.177557
 20
26.237892
 30
0.0
 10
28.971291
 20
25.620624
 30
0.0
 10
29.802243
 20
24.848047
 30
0.0
 10
30.571849
 20
24.018807
 30
0.0
 10
31.181534
 20
23.231554
 30
0.0
 10
31.831647
 20
22.201629
 30
0.0
 10
32.180248
 20
21.357480
 30
0.0
 10
32.303943
 20
20.408237
 30
0.0
 10
32.279333
 20
19.063030
 30
0.0
 10
32.252663
 20
18.465374
 30
0.0
 10
32.225993
 20
17.867717
 30
0.0
 10
32.199295
 20
17.270061
 30
0.0
 10
32.172625
 20
16.672405
 30
0.0
 10
31.532243
 20
16.308214
 30
0.0
 10
30.891864
 20
15.944023
 30
0.0
 10
30.251482
 20
15.579832
 30
0.0
 10
29.611100
 20
15.215641
 30
0.0
 10
27.198619
 20
13.581755
 30
0.0
 10
24.908434
 20
11.543318
 30
0.0
 10
22.911212
 20
9.271895
 30
0.0
 10
21.377625
 20
6.939049
 30
0.0
 10
20.638840
 20
5.493910
 30
0.0
 10
20.258721
 20
4.265495
 30
0.0
 10
20.118516
 20
2.591370
 30
0.0
 10
20.099466
 20
-0.190915
 30
0.0
 10
20.100030
 20
-1.380194
 30
0.0
 10
20.100595
 20
-2.569475
 30
0.0
 10
20.101159
 20
-3.758754
 30
0.0
 10
20.101723
 20
-4.948036
 30
0.0
 10
20.464531
 20
-5.634157
 30
0.0
 10
20.827339
 20
-6.320282
 30
0.0
 10
21.190147
 20
-7.006404
 30
0.0
 10
21.552955
 20
-7.692525
 30
0.0
 10
23.087790
 20
-10.133138
 30
0.0
 10
24.950417
 20
-12.273384
 30
0.0
 10
27.134707
 20
-14.107247
 30
0.0
 10
29.634533
 20
-15.628707
 30
0.0
 10
30.313924
 20
-15.977481
 30
0.0
 10
30.993314
 20
-16.326251
 30
0.0
 10
31.672708
 20
-16.675024
 30
0.0
 10
32.352099
 20
-17.023797
 30
0.0
 10
32.351816
 20
-17.481211
 30
0.0
 10
32.351534
 20
-17.938629
 30
0.0
 10
32.350970
 20
-18.396043
 30
0.0
 10
32.350687
 20
-18.853458
 30
0.0
 10
31.788292
 20
-21.459421
 30
0.0
 10
30.324230
 20
-23.945144
 30
0.0
 10
28.285765
 20
-25.896118
 30
0.0
 10
26.000159
 20
-26.897841
 30
0.0
 10
22.217589
 20
-27.078833
 30
0.0
 10
14.739188
 20
-27.179008
 30
0.0
 10
5.514817
 20
-27.185866
 30
0.0
 10
-3.505655
 20
-27.086924
 30
0.0
 10
-3.505684
 20
-27.086924
 30
0.0
 10
-3.505713
 20
-27.086924
 30
0.0
 10
-3.505742
 20
-27.086924
 30
0.0
 10
-3.505803
 20
-27.086966
 30
0.0
  0
LWPOLYLINE
  5
101
100
AcDbEntity
  8
Negro
 62
7
100
AcDbPolyline
 90
98
 70
0
 10
10.216656
 20
-17.019820
 30
0.0
 10
11.107544
 20
-16.657249
 30
0.0
 10
12.180683
 20
-16.135110
 30
0.0
 10
13.300995
 20
-15.523241
 30
0.0
 10
14.333395
 20
-14.891478
 30
0.0
 10
14.905163
 20
-14.516673
 30
0.0
 10
15.476931
 20
-14.141865
 30
0.0
 10
16.048702
 20
-13.767060
 30
0.0
 10
16.620470
 20
-13.392254
 30
0.0
 10
16.620470
 20
-11.673479
 30
0.0
 10
16.620470
 20
-9.954703
 30
0.0
 10
16.620470
 20
-8.235927
 30
0.0
 10
16.620470
 20
-6.517152
 30
0.0
 10
16.620470
 20
-4.798376
 30
0.0
 10
16.620470
 20
-3.079600
 30
0.0
 10
16.620470
 20
-1.360828
 30
0.0
 10
16.620470
 20
0.357948
 30
0.0
 10
15.842863
 20
0.357948
 30
0.0
 10
15.065259
 20
0.357948
 30
0.0
 10
14.287652
 20
0.357948
 30
0.0
 10
13.510045
 20
0.357948
 30
0.0
 10
12.301254
 20
0.336302
 30
0.0
 10
11.309316
 20
0.277337
 30
0.0
 10
10.636738
 20
0.190071
 30
0.0
 10
10.386026
 20
0.083507
 30
0.0
 10
10.355134
 20
-0.397829
 30
0.0
 10
10.281076
 20
-1.505512
 30
0.0
 10
10.174943
 20
-3.074693
 30
0.0
 10
10.047839
 20
-4.940520
 30
0.0
 10
9.747797
 20
-8.189084
 30
0.0
 10
9.207376
 20
-9.980682
 30
0.0
 10
8.116666
 20
-10.814056
 30
0.0
 10
6.165751
 20
-11.187946
 30
0.0
 10
3.419864
 20
-11.263743
 30
0.0
 10
0.883914
 20
-10.772521
 30
0.0
 10
-1.463137
 20
-9.707584
 30
0.0
 10
-3.642328
 20
-8.062222
 30
0.0
 10
-5.282470
 20
-5.962001
 30
0.0
 10
-6.322786
 20
-3.330107
 30
0.0
 10
-6.717050
 20
-0.347452
 30
0.0
 10
-6.419034
 20
2.805035
 30
0.0
 10
-6.120966
 20
3.959408
 30
0.0
 10
-5.693470
 20
4.887936
 30
0.0
 10
-5.000565
 20
5.815942
 30
0.0
 10
-3.906270
 20
6.968750
 30
0.0
 10
-1.876874
 20
8.804331
 30
0.0
 10
-0.044663
 20
9.971289
 30
0.0
 10
1.832264
 20
10.585803
 30
0.0
 10
3.995808
 20
10.764057
 30
0.0
 10
5.392397
 20
10.720270
 30
0.0
 10
6.490510
 20
10.551524
 30
0.0
 10
7.530549
 20
10.199206
 30
0.0
 10
8.752927
 20
9.604702
 30
0.0
 10
9.692058
 20
9.095960
 30
0.0
 10
10.626045
 20
8.566901
 30
0.0
 10
11.446817
 20
8.080081
 30
0.0
 10
12.046317
 20
7.698068
 30
0.0
 10
12.506432
 20
7.407247
 30
0.0
 10
12.947689
 20
7.168727
 30
0.0
 10
13.319991
 20
7.007146
 30
0.0
 10
13.573235
 20
6.947148
 30
0.0
 10
13.874391
 20
7.103652
 30
0.0
 10
14.377148
 20
7.531662
 30
0.0
 10
15.011482
 20
8.165744
 30
0.0
 10
15.707365
 20
8.940473
 30
0.0
 10
16.490944
 20
9.910747
 30
0.0
 10
16.978328
 20
10.653593
 30
0.0
 10
17.198247
 20
11.222290
 30
0.0
 10
17.179451
 20
11.670123
 30
0.0
 10
16.317250
 20
12.647631
 30
0.0
 10
14.515925
 20
13.983772
 30
0.0
 10
12.305665
 20
15.324726
 30
0.0
 10
10.216667
 20
16.316672
 30
0.0
 10
7.736651
 20
16.807823
 30
0.0
 10
4.245714
 20
17.018810
 30
0.0
 10
0.699617
 20
16.932676
 30
0.0
 10
-1.945876
 20
16.532459
 30
0.0
 10
-4.870881
 20
15.127311
 30
0.0
 10
-7.840826
 20
12.798267
 30
0.0
 10
-10.511714
 20
9.866170
 30
0.0
 10
-12.539547
 20
6.651865
 30
0.0
 10
-13.011129
 20
5.551624
 30
0.0
 10
-13.330094
 20
4.419631
 30
0.0
 10
-13.534204
 20
3.077252
 30
0.0
 10
-13.661222
 20
1.345850
 30
0.0
 10
-13.607725
 20
-2.917673
 30
0.0
 10
-12.872539
 20
-6.367295
 30
0.0
 10
-11.325533
 20
-9.370991
 30
0.0
 10
-8.836574
 20
-12.296733
 30
0.0
 10
-6.787422
 20
-14.188858
 30
0.0
 10
-4.826444
 20
-15.658795
 30
0.0
 10
-2.903917
 20
-16.739198
 30
0.0
 10
-0.970118
 20
-17.462717
 30
0.0
 10
1.393519
 20
-17.781151
 30
0.0
 10
4.568698
 20
-17.792779
 30
0.0
 10
7.771164
 20
-17.528650
 30
0.0
 10
10.216667
 20
-17.019812
 30
0.0
 10
10.216656
 20
-17.019820
 30
0.0
  0
LWPOLYLINE
  5
102
100
AcDbEntity
  8
Negro
 62
7
100
AcDbPolyline
 90
65
 70
0
 10
7.973714
 20
33.383330
 30
0.0
 10
8.048966
 20
33.682565
 30
0.0
 10
8.176457
 20
34.078359
 30
0.0
 10
8.349296
 20
34.553703
 30
0.0
 10
8.560598
 20
35.091601
 30
0.0
 10
8.803479
 20
35.675048
 30
0.0
 10
9.071048
 20
36.287044
 30
0.0
 10
9.356423
 20
36.910583
 30
0.0
 10
9.652714
 20
37.528664
 30
0.0
 10
10.081858
 20
38.366155
 30
0.0
 10
10.517666
 20
39.134133
 30
0.0
 10
10.982105
 20
39.861453
 30
0.0
 10
11.497152
 20
40.576977
 30
0.0
 10
12.084783
 20
41.309558
 30
0.0
 10
12.766974
 20
42.088054
 30
0.0
 10
13.565694
 20
42.941327
 30
0.0
 10
14.502923
 20
43.898233
 30
0.0
 10
15.512640
 20
44.898832
 30
0.0
 10
16.382305
 20
45.723528
 30
0.0
 10
17.157192
 20
46.405865
 30
0.0
 10
17.882576
 20
46.979391
 30
0.0
 10
18.603736
 20
47.477652
 30
0.0
 10
19.365945
 20
47.934194
 30
0.0
 10
20.214482
 20
48.382563
 30
0.0
 10
21.194623
 20
48.856305
 30
0.0
 10
22.389595
 20
49.392671
 30
0.0
 10
23.575933
 20
49.881028
 30
0.0
 10
24.712851
 20
50.308476
 30
0.0
 10
25.759548
 20
50.662112
 30
0.0
 10
26.675238
 20
50.929038
 30
0.0
 10
27.419125
 20
51.096353
 30
0.0
 10
27.950417
 20
51.151161
 30
0.0
 10
28.228318
 20
51.080554
 30
0.0
 10
28.302579
 20
50.574846
 30
0.0
 10
28.062140
 20
49.636000
 30
0.0
 10
27.565147
 20
48.378454
 30
0.0
 10
26.869748
 20
46.916656
 30
0.0
 10
26.034085
 20
45.365046
 30
0.0
 10
25.116304
 20
43.838066
 30
0.0
 10
24.174554
 20
42.450156
 30
0.0
 10
23.266984
 20
41.315759
 30
0.0
 10
21.972704
 20
39.934659
 30
0.0
 10
20.698982
 20
38.700030
 30
0.0
 10
19.427701
 20
37.599002
 30
0.0
 10
18.140745
 20
36.618703
 30
0.0
 10
16.820004
 20
35.746269
 30
0.0
 10
15.447365
 20
34.968823
 30
0.0
 10
14.004710
 20
34.273501
 30
0.0
 10
12.473928
 20
33.647434
 30
0.0
 10
11.690293
 20
33.355478
 30
0.0
 10
10.942057
 20
33.083111
 30
0.0
 10
10.246823
 20
32.836290
 30
0.0
 10
9.622200
 20
32.620980
 30
0.0
 10
9.085786
 20
32.443141
 30
0.0
 10
8.655191
 20
32.308732
 30
0.0
 10
8.348015
 20
32.223713
 30
0.0
 10
8.181865
 20
32.194051
 30
0.0
 10
8.082316
 20
32.212226
 30
0.0
 10
8.003895
 20
32.267017
 30
0.0
 10
7.946542
 20
32.358745
 30
0.0
 10
7.910198
 20
32.487754
 30
0.0
 10
7.894788
 20
32.654378
 30
0.0
 10
7.900292
 20
32.858956
 30
0.0
 10
7.926623
 20
33.101822
 30
0.0
 10
7.973714
 20
33.383330
 30
0.0
  0
LWPOLYLINE
  5
103
100
AcDbEntity
  8
rojo
 62
7
100
AcDbPolyline
 90
69
 70
0
 10
32.218924
 20
-15.527520
 30
0.0
 10
31.359447
 20
-15.217761
 30
0.0
 10
30.507091
 20
-14.886982
 30
0.0
 10
29.760331
 20
-14.574782
 30
0.0
 10
29.217648
 20
-14.320757
 30
0.0
 10
27.824843
 20
-13.376933
 30
0.0
 10
26.105694
 20
-11.949111
 30
0.0
 10
24.577134
 20
-10.495856
 30
0.0
 10
23.756090
 20
-9.475747
 30
0.0
 10
23.560544
 20
-9.073738
 30
0.0
 10
23.273377
 20
-8.520179
 30
0.0
 10
22.933223
 20
-7.888083
 30
0.0
 10
22.578715
 20
-7.250472
 30
0.0
 10
21.418404
 20
-4.111399
 30
0.0
 10
20.944618
 20
-0.385747
 30
0.0
 10
21.177028
 20
3.320836
 30
0.0
 10
22.135299
 20
6.402688
 30
0.0
 10
22.363301
 20
6.863306
 30
0.0
 10
22.552232
 20
7.282318
 30
0.0
 10
22.682435
 20
7.613523
 30
0.0
 10
22.734256
 20
7.810720
 30
0.0
 10
22.801010
 20
7.983739
 30
0.0
 10
22.971879
 20
8.249116
 30
0.0
 10
23.220997
 20
8.570702
 30
0.0
 10
23.522495
 20
8.912349
 30
0.0
 10
23.805580
 20
9.232039
 30
0.0
 10
24.004561
 20
9.493837
 30
0.0
 10
24.101234
 20
9.670728
 30
0.0
 10
24.077386
 20
9.735696
 30
0.0
 10
24.261471
 20
10.105655
 30
0.0
 10
25.138869
 20
11.003542
 30
0.0
 10
26.374576
 20
12.111378
 30
0.0
 10
27.633589
 20
13.111181
 30
0.0
 10
29.614441
 20
14.395069
 30
0.0
 10
31.507769
 20
15.199967
 30
0.0
 10
33.717320
 20
15.649298
 30
0.0
 10
36.646841
 20
15.866485
 30
0.0
 10
39.290405
 20
15.936798
 30
0.0
 10
41.085632
 20
15.776990
 30
0.0
 10
42.750494
 20
15.243121
 30
0.0
 10
45.002972
 20
14.191254
 30
0.0
 10
46.240615
 20
13.330995
 30
0.0
 10
47.928874
 20
11.877260
 30
0.0
 10
49.578068
 20
10.277997
 30
0.0
 10
50.698502
 20
8.981158
 30
0.0
 10
51.688379
 20
7.136793
 30
0.0
 10
52.558750
 20
4.775327
 30
0.0
 10
53.181857
 20
2.309656
 30
0.0
 10
53.429958
 20
0.152685
 30
0.0
 10
53.282204
 20
-1.530827
 30
0.0
 10
52.874791
 20
-3.576746
 30
0.0
 10
52.301278
 20
-5.597229
 30
0.0
 10
51.655224
 20
-7.204425
 30
0.0
 10
50.863373
 20
-8.572206
 30
0.0
 10
49.920838
 20
-9.927023
 30
0.0
 10
48.945360
 20
-11.112909
 30
0.0
 10
48.054681
 20
-11.973901
 30
0.0
 10
47.693953
 20
-12.268948
 30
0.0
 10
47.330126
 20
-12.578128
 30
0.0
 10
47.005598
 20
-12.864744
 30
0.0
 10
46.762755
 20
-13.092111
 30
0.0
 10
45.929914
 20
-13.702600
 30
0.0
 10
44.644344
 20
-14.406809
 30
0.0
 10
43.121411
 20
-15.097754
 30
0.0
 10
41.576490
 20
-15.668442
 30
0.0
 10
39.424082
 20
-16.102511
 30
0.0
 10
36.913346
 20
-16.220192
 30
0.0
 10
34.394786
 20
-16.026771
 30
0.0
 10
32.218924
 20
-15.527520
 30
0.0
  0
LWPOLYLINE
  5
104
100
AcDbEntity
  8
rojo
 62
7
100
AcDbPolyline
 90
98
 70
0
 10
33.464873
 20
-8.743882
 30
0.0
 10
34.002630
 20
-8.388672
 30
0.0
 10
34.470278
 20
-8.097782
 30
0.0
 10
34.817626
 20
-7.901237
 30
0.0
 10
34.994483
 20
-7.829050
 30
0.0
 10
35.151311
 20
-7.765215
 30
0.0
 10
35.444125
 20
-7.591402
 30
0.0
 10
35.831063
 20
-7.334163
 30
0.0
 10
36.270263
 20
-7.020041
 30
0.0
 10
36.910583
 20
-6.577432
 30
0.0
 10
37.376114
 20
-6.408524
 30
0.0
 10
37.856787
 20
-6.497216
 30
0.0
 10
38.542522
 20
-6.827404
 30
0.0
 10
39.975866
 20
-7.522089
 30
0.0
 10
41.543224
 20
-8.203032
 30
0.0
 10
42.882806
 20
-8.721025
 30
0.0
 10
43.632828
 20
-8.926847
 30
0.0
 10
43.768721
 20
-8.855529
 30
0.0
 10
43.836514
 20
-8.653803
 30
0.0
 10
43.833974
 20
-8.340019
 30
0.0
 10
43.758615
 20
-7.932522
 30
0.0
 10
43.649996
 20
-7.458874
 30
0.0
 10
43.538738
 20
-6.904279
 30
0.0
 10
43.437900
 20
-6.337777
 30
0.0
 10
43.360546
 20
-5.828408
 30
0.0
 10
43.275902
 20
-5.305312
 30
0.0
 10
43.155224
 20
-4.701427
 30
0.0
 10
43.014598
 20
-4.091503
 30
0.0
 10
42.870123
 20
-3.550293
 30
0.0
 10
42.726672
 20
-2.866192
 30
0.0
 10
42.832026
 20
-2.291120
 30
0.0
 10
43.279444
 20
-1.613766
 30
0.0
 10
44.162193
 20
-0.622833
 30
0.0
 10
45.393850
 20
0.753810
 30
0.0
 10
46.265965
 20
1.838681
 30
0.0
 10
46.746343
 20
2.588116
 30
0.0
 10
46.802794
 20
2.958462
 30
0.0
 10
46.556758
 20
3.030768
 30
0.0
 10
45.999694
 20
3.114805
 30
0.0
 10
45.214278
 20
3.200143
 30
0.0
 10
44.283181
 20
3.276349
 30
0.0
 10
42.294099
 20
3.465737
 30
0.0
 10
40.933587
 20
3.718862
 30
0.0
 10
40.152969
 20
4.048980
 30
0.0
 10
39.903581
 20
4.469350
 30
0.0
 10
39.880495
 20
4.667072
 30
0.0
 10
39.817672
 20
4.828992
 30
0.0
 10
39.724691
 20
4.938398
 30
0.0
 10
39.611150
 20
4.978578
 30
0.0
 10
39.461065
 20
5.079639
 30
0.0
 10
39.268583
 20
5.354803
 30
0.0
 10
39.058497
 20
5.762044
 30
0.0
 10
38.855599
 20
6.259342
 30
0.0
 10
38.651900
 20
6.756637
 30
0.0
 10
38.439632
 20
7.163878
 30
0.0
 10
38.243922
 20
7.439042
 30
0.0
 10
38.089894
 20
7.540103
 30
0.0
 10
37.954291
 20
7.612290
 30
0.0
 10
37.808752
 20
7.808835
 30
0.0
 10
37.670737
 20
8.099724
 30
0.0
 10
37.557710
 20
8.454935
 30
0.0
 10
37.170775
 20
9.312258
 30
0.0
 10
36.639847
 20
9.228892
 30
0.0
 10
35.920361
 20
8.163907
 30
0.0
 10
34.967751
 20
6.076374
 30
0.0
 10
34.253198
 20
4.410304
 30
0.0
 10
33.740231
 20
3.536673
 30
0.0
 10
33.195537
 20
3.185245
 30
0.0
 10
32.385799
 20
3.085770
 30
0.0
 10
31.936947
 20
3.043530
 30
0.0
 10
31.514401
 20
2.978362
 30
0.0
 10
31.165665
 20
2.899150
 30
0.0
 10
30.938230
 20
2.814791
 30
0.0
 10
30.632372
 20
2.665273
 30
0.0
 10
30.307119
 20
2.569492
 30
0.0
 10
29.862876
 20
2.506960
 30
0.0
 10
29.200052
 20
2.457190
 30
0.0
 10
28.837052
 20
2.408789
 30
0.0
 10
28.457325
 20
2.314962
 30
0.0
 10
28.105902
 20
2.189229
 30
0.0
 10
27.827809
 20
2.045112
 30
0.0
 10
27.648742
 20
1.773369
 30
0.0
 10
27.833527
 20
1.328014
 30
0.0
 10
28.456580
 20
0.601057
 30
0.0
 10
29.592326
 20
-0.515501
 30
0.0
 10
31.052581
 20
-1.980624
 30
0.0
 10
31.756395
 20
-3.183828
 30
0.0
 10
31.898663
 20
-4.766900
 30
0.0
 10
31.674271
 20
-7.371636
 30
0.0
 10
31.605022
 20
-8.289725
 30
0.0
 10
31.600874
 20
-9.013605
 30
0.0
 10
31.659311
 20
-9.488266
 30
0.0
 10
31.777855
 20
-9.658711
 30
0.0
 10
32.015862
 20
-9.586524
 30
0.0
 10
32.413287
 20
-9.389979
 30
0.0
 10
32.914771
 20
-9.099093
 30
0.0
 10
33.464954
 20
-8.743882
 30
0.0
 10
33.464873
 20
-8.743882
 30
0.0
  0
ENDSEC
  0
SECTION
  2
OBJECTS
  0
DICTIONARY
  5
C
330
0
100
AcDbDictionary
  3
ACAD_GROUP
350
D
  3
ACAD_MLINESTYLE
350
17
  0
DICTIONARY
  5
D
330
C
100
AcDbDictionary
  0
DICTIONARY
  5
1A
330
C
100
AcDbDictionary
  0
DICTIONARY
  5
17
330
C
100
AcDbDictionary
  3
STANDARD
350
18
  0
DICTIONARY
  5
19
330
C
100
AcDbDictionary
  0
ENDSEC
  0
EOF
