  0
SECTION
  2
HEADER
  9
$ACADVER
  1
AC1014
  9
$HANDSEED
  5
FFFF
  9
$MEASUREMENT
 70
     1
  0
ENDSEC
  0
SECTION
  2
TABLES
  0
TABLE
  2
VPORT
  5
8
330
0
100
AcDbSymbolTable
 70
     4
  0
VPORT
  5
2E
330
8
100
AcDbSymbolTableRecord
100
AcDbViewportTableRecord
  2
*ACTIVE
 70
     0
 10
0.0
 20
0.0
 11
1.0
 21
1.0
 12
210.0
 22
148.5
 13
0.0
 23
0.0
 14
10.0
 24
10.0
 15
10.0
 25
10.0
 16
0.0
 26
0.0
 36
1.0
 17
0.0
 27
0.0
 37
0.0
 40
341.0
 41
1.24
 42
50.0
 43
0.0
 44
0.0
 50
0.0
 51
0.0
 71
     0
 72
   100
 73
     1
 74
     3
 75
     0
 76
     0
 77
     0
 78
     0
  0
ENDTAB
  0
TABLE
  2
LTYPE
  5
5
330
0
100
AcDbSymbolTable
 70
     1
  0
LTYPE
  5
14
330
5
100
AcDbSymbolTableRecord
100
AcDbLinetypeTableRecord
  2
BYBLOCK
 70
     0
  3

 72
    65
 73
     0
 40
0.0
  0
LTYPE
  5
15
330
5
100
AcDbSymbolTableRecord
100
AcDbLinetypeTableRecord
  2
BYLAYER
 70
     0
  3

 72
    65
 73
     0
 40
0.0
  0
LTYPE
  5
16
330
5
100
AcDbSymbolTableRecord
100
AcDbLinetypeTableRecord
  2
CONTINUOUS
 70
     0
  3
Solid line
 72
    65
 73
     0
 40
0.0
  0
ENDTAB
  0
TABLE
  2
LAYER
  5
2
100
AcDbSymbolTable
 70
2
  0
LAYER
  5
50
100
AcDbSymbolTableRecord
100
AcDbLayerTableRecord
  2
0
 70
0
  6
CONTINUOUS
  0
LAYER
  5
51
100
AcDbSymbolTableRecord
100
AcDbLayerTableRecord
  2
Negro
 70
0
  6
CONTINUOUS
  0
ENDTAB
  0
TABLE
  2
STYLE
  5
3
330
0
100
AcDbSymbolTable
 70
     1
  0
STYLE
  5
11
330
3
100
AcDbSymbolTableRecord
100
AcDbTextStyleTableRecord
  2
STANDARD
 70
     0
 40
0.0
 41
1.0
 50
0.0
 71
     0
 42
2.5
  3
txt
  4

  0
ENDTAB
  0
TABLE
  2
VIEW
  5
6
330
0
100
AcDbSymbolTable
 70
     0
  0
ENDTAB
  0
TABLE
  2
UCS
  5
7
330
0
100
AcDbSymbolTable
 70
     0
  0
ENDTAB
  0
TABLE
  2
APPID
  5
9
330
0
100
AcDbSymbolTable
 70
     2
  0
APPID
  5
12
330
9
100
AcDbSymbolTableRecord
100
AcDbRegAppTableRecord
  2
ACAD
 70
     0
  0
ENDTAB
  0
TABLE
  2
DIMSTYLE
  5
A
330
0
100
AcDbSymbolTable
 70
     1
  0
DIMSTYLE
105
27
330
A
100
AcDbSymbolTableRecord
100
AcDbDimStyleTableRecord
  2
ISO-25
 70
     0
  3

  4

  5

  6

  7

 40
1.0
 41
2.5
 42
0.625
 43
3.75
 44
1.25
 45
0.0
 46
0.0
 47
0.0
 48
0.0
140
2.5
141
2.5
142
0.0
143
0.03937007874016
144
1.0
145
0.0
146
1.0
147
0.625
 71
     0
 72
     0
 73
     0
 74
     0
 75
     0
 76
     0
 77
     1
 78
     8
170
     0
171
     3
172
     1
173
     0
174
     0
175
     0
176
     0
177
     0
178
     0
270
     2
271
     2
272
     2
273
     2
274
     3
340
11
275
     0
280
     0
281
     0
282
     0
283
     0
284
     8
285
     0
286
     0
287
     3
288
     0
  0
ENDTAB
  0
TABLE
  2
BLOCK_RECORD
  5
1
330
0
100
AcDbSymbolTable
 70
     1
  0
BLOCK_RECORD
  5
1F
330
1
100
AcDbSymbolTableRecord
100
AcDbBlockTableRecord
  2
*MODEL_SPACE
  0
BLOCK_RECORD
  5
1B
330
1
100
AcDbSymbolTableRecord
100
AcDbBlockTableRecord
  2
*PAPER_SPACE
  0
ENDTAB
  0
ENDSEC
  0
SECTION
  2
BLOCKS
  0
BLOCK
  5
20
330
1F
100
AcDbEntity
  8
0
100
AcDbBlockBegin
  2
*MODEL_SPACE
 70
     0
 10
0.0
 20
0.0
 30
0.0
  3
*MODEL_SPACE
  1

  0
ENDBLK
  5
21
330
1F
100
AcDbEntity
  8
0
100
AcDbBlockEnd
  0
BLOCK
  5
1C
330
1B
100
AcDbEntity
 67
     1
  8
0
100
AcDbBlockBegin
  2
*PAPER_SPACE
  1

  0
ENDBLK
  5
1D
330
1B
100
AcDbEntity
 67
     1
  8
0
100
AcDbBlockEnd
  0
ENDSEC
  0
SECTION
  2
ENTITIES
  0
LWPOLYLINE
  5
100
100
AcDbEntity
  8
Negro
 62
7
100
AcDbPolyline
 90
195
 70
0
 10
12.412249
 20
-16.836853
 30
0.0
 10
12.857693
 20
-16.655567
 30
0.0
 10
13.303137
 20
-16.474282
 30
0.0
 10
13.839706
 20
-16.213212
 30
0.0
 10
14.376276
 20
-15.952143
 30
0.0
 10
14.936432
 20
-15.646208
 30
0.0
 10
15.496588
 20
-15.340274
 30
0.0
 10
16.012788
 20
-15.024394
 30
0.0
 10
16.528988
 20
-14.708511
 30
0.0
 10
16.814872
 20
-14.521107
 30
0.0
 10
17.100756
 20
-14.333705
 30
0.0
 10
17.386640
 20
-14.146301
 30
0.0
 10
17.672524
 20
-13.958897
 30
0.0
 10
17.958410
 20
-13.771493
 30
0.0
 10
18.244295
 20
-13.584092
 30
0.0
 10
18.530179
 20
-13.396688
 30
0.0
 10
18.816063
 20
-13.209287
 30
0.0
 10
18.816063
 20
-12.349898
 30
0.0
 10
18.816063
 20
-11.490511
 30
0.0
 10
18.816063
 20
-10.631122
 30
0.0
 10
18.816063
 20
-9.771736
 30
0.0
 10
18.816063
 20
-8.912346
 30
0.0
 10
18.816063
 20
-8.052960
 30
0.0
 10
18.816063
 20
-7.193571
 30
0.0
 10
18.816063
 20
-6.334184
 30
0.0
 10
18.816063
 20
-5.474795
 30
0.0
 10
18.816063
 20
-4.615409
 30
0.0
 10
18.816063
 20
-3.756019
 30
0.0
 10
18.816063
 20
-2.896633
 30
0.0
 10
18.816063
 20
-2.037247
 30
0.0
 10
18.816063
 20
-1.177860
 30
0.0
 10
18.816063
 20
-0.318471
 30
0.0
 10
18.816063
 20
0.540916
 30
0.0
 10
18.427260
 20
0.540916
 30
0.0
 10
18.038456
 20
0.540916
 30
0.0
 10
17.649654
 20
0.540916
 30
0.0
 10
17.260852
 20
0.540916
 30
0.0
 10
16.872049
 20
0.540916
 30
0.0
 10
16.483245
 20
0.540916
 30
0.0
 10
16.094442
 20
0.540916
 30
0.0
 10
15.705638
 20
0.540916
 30
0.0
 10
15.101243
 20
0.530106
 30
0.0
 10
14.496847
 20
0.519269
 30
0.0
 10
14.000878
 20
0.489788
 30
0.0
 10
13.504909
 20
0.460304
 30
0.0
 10
13.168620
 20
0.416673
 30
0.0
 10
12.832331
 20
0.373039
 30
0.0
 10
12.706975
 20
0.319758
 30
0.0
 10
12.581619
 20
0.266474
 30
0.0
 10
12.566173
 20
0.025806
 30
0.0
 10
12.550727
 20
-0.214861
 30
0.0
 10
12.513698
 20
-0.768703
 30
0.0
 10
12.476669
 20
-1.322544
 30
0.0
 10
12.423603
 20
-2.107133
 30
0.0
 10
12.370537
 20
-2.891725
 30
0.0
 10
12.306984
 20
-3.824639
 30
0.0
 10
12.243432
 20
-4.757553
 30
0.0
 10
12.093411
 20
-6.381835
 30
0.0
 10
11.943390
 20
-8.006117
 30
0.0
 10
11.673180
 20
-8.901915
 30
0.0
 10
11.402969
 20
-9.797714
 30
0.0
 10
10.857614
 20
-10.214401
 30
0.0
 10
10.312259
 20
-10.631088
 30
0.0
 10
9.336802
 20
-10.818032
 30
0.0
 10
8.361344
 20
-11.004979
 30
0.0
 10
6.988400
 20
-11.042876
 30
0.0
 10
5.615457
 20
-11.080775
 30
0.0
 10
4.347482
 20
-10.835163
 30
0.0
 10
3.079507
 20
-10.589554
 30
0.0
 10
1.905981
 20
-10.057085
 30
0.0
 10
0.732456
 20
-9.524616
 30
0.0
 10
-0.357139
 20
-8.701936
 30
0.0
 10
-1.446734
 20
-7.879255
 30
0.0
 10
-2.266806
 20
-6.829146
 30
0.0
 10
-3.086877
 20
-5.779033
 30
0.0
 10
-3.607035
 20
-4.463088
 30
0.0
 10
-4.127193
 20
-3.147139
 30
0.0
 10
-4.324325
 20
-1.655812
 30
0.0
 10
-4.521457
 20
-0.164485
 30
0.0
 10
-4.372449
 20
1.411760
 30
0.0
 10
-4.223441
 20
2.988002
 30
0.0
 10
-4.074407
 20
3.565189
 30
0.0
 10
-3.925372
 20
4.142376
 30
0.0
 10
-3.711624
 20
4.606640
 30
0.0
 10
-3.497876
 20
5.070904
 30
0.0
 10
-3.151424
 20
5.534906
 30
0.0
 10
-2.804972
 20
5.998910
 30
0.0
 10
-2.257824
 20
6.575312
 30
0.0
 10
-1.710677
 20
7.151717
 30
0.0
 10
-0.695979
 20
8.069507
 30
0.0
 10
0.318719
 20
8.987299
 30
0.0
 10
1.234825
 20
9.570776
 30
0.0
 10
2.150930
 20
10.154257
 30
0.0
 10
3.089394
 20
10.461512
 30
0.0
 10
4.027857
 20
10.768770
 30
0.0
 10
5.109629
 20
10.857896
 30
0.0
 10
6.191401
 20
10.947025
 30
0.0
 10
6.889696
 20
10.925124
 30
0.0
 10
7.587990
 20
10.903224
 30
0.0
 10
8.137047
 20
10.818851
 30
0.0
 10
8.686103
 20
10.734477
 30
0.0
 10
9.206123
 20
10.558317
 30
0.0
 10
9.726143
 20
10.382160
 30
0.0
 10
10.337332
 20
10.084906
 30
0.0
 10
10.948520
 20
9.787656
 30
0.0
 10
11.418086
 20
9.533283
 30
0.0
 10
11.887652
 20
9.278914
 30
0.0
 10
12.354645
 20
9.014384
 30
0.0
 10
12.821638
 20
8.749854
 30
0.0
 10
13.232024
 20
8.506443
 30
0.0
 10
13.642411
 20
8.263035
 30
0.0
 10
13.942160
 20
8.072030
 30
0.0
 10
14.241910
 20
7.881022
 30
0.0
 10
14.471967
 20
7.735610
 30
0.0
 10
14.702025
 20
7.590200
 30
0.0
 10
14.922654
 20
7.470939
 30
0.0
 10
15.143282
 20
7.351680
 30
0.0
 10
15.329433
 20
7.270891
 30
0.0
 10
15.515584
 20
7.190099
 30
0.0
 10
15.642206
 20
7.160102
 30
0.0
 10
15.768828
 20
7.130102
 30
0.0
 10
15.919406
 20
7.208353
 30
0.0
 10
16.069985
 20
7.286605
 30
0.0
 10
16.321363
 20
7.500612
 30
0.0
 10
16.572741
 20
7.714615
 30
0.0
 10
16.889908
 20
8.031658
 30
0.0
 10
17.207075
 20
8.348698
 30
0.0
 10
17.555017
 20
8.736062
 30
0.0
 10
17.902959
 20
9.123426
 30
0.0
 10
18.294748
 20
9.608563
 30
0.0
 10
18.686537
 20
10.093700
 30
0.0
 10
18.930229
 20
10.465122
 30
0.0
 10
19.173921
 20
10.836546
 30
0.0
 10
19.283880
 20
11.120896
 30
0.0
 10
19.393840
 20
11.405243
 30
0.0
 10
19.384442
 20
11.629161
 30
0.0
 10
19.375044
 20
11.853077
 30
0.0
 10
18.943944
 20
12.341832
 30
0.0
 10
18.512844
 20
12.830584
 30
0.0
 10
17.612181
 20
13.498655
 30
0.0
 10
16.711518
 20
14.166726
 30
0.0
 10
15.606388
 20
14.837204
 30
0.0
 10
14.501258
 20
15.507679
 30
0.0
 10
13.456759
 20
16.003654
 30
0.0
 10
12.412260
 20
16.499626
 30
0.0
 10
11.172252
 20
16.745201
 30
0.0
 10
9.932244
 20
16.990777
 30
0.0
 10
8.186776
 20
17.096272
 30
0.0
 10
6.441307
 20
17.201763
 30
0.0
 10
4.668259
 20
17.158696
 30
0.0
 10
2.895210
 20
17.115629
 30
0.0
 10
1.572464
 20
16.915522
 30
0.0
 10
0.249717
 20
16.715413
 30
0.0
 10
-1.212785
 20
16.012840
 30
0.0
 10
-2.675288
 20
15.310265
 30
0.0
 10
-4.160260
 20
14.145743
 30
0.0
 10
-5.645233
 20
12.981220
 30
0.0
 10
-6.980677
 20
11.515172
 30
0.0
 10
-8.316121
 20
10.049123
 30
0.0
 10
-9.330037
 20
8.441972
 30
0.0
 10
-10.343954
 20
6.834818
 30
0.0
 10
-10.579745
 20
6.284699
 30
0.0
 10
-10.815536
 20
5.734578
 30
0.0
 10
-10.975018
 20
5.168581
 30
0.0
 10
-11.134501
 20
4.602584
 30
0.0
 10
-11.236556
 20
3.931395
 30
0.0
 10
-11.338611
 20
3.260206
 30
0.0
 10
-11.402120
 20
2.394506
 30
0.0
 10
-11.465629
 20
1.528803
 30
0.0
 10
-11.438880
 20
-0.602956
 30
0.0
 10
-11.412131
 20
-2.734719
 30
0.0
 10
-11.044538
 20
-4.459529
 30
0.0
 10
-10.676945
 20
-6.184341
 30
0.0
 10
-9.903442
 20
-7.686190
 30
0.0
 10
-9.129939
 20
-9.188038
 30
0.0
 10
-7.885459
 20
-10.650909
 30
0.0
 10
-6.640980
 20
-12.113779
 30
0.0
 10
-5.616404
 20
-13.059842
 30
0.0
 10
-4.591828
 20
-14.005904
 30
0.0
 10
-3.611340
 20
-14.740873
 30
0.0
 10
-2.630851
 20
-15.475842
 30
0.0
 10
-1.669587
 20
-16.016043
 30
0.0
 10
-0.708323
 20
-16.556245
 30
0.0
 10
0.258577
 20
-16.918003
 30
0.0
 10
1.225476
 20
-17.279764
 30
0.0
 10
2.407294
 20
-17.438980
 30
0.0
 10
3.589113
 20
-17.598198
 30
0.0
 10
5.176702
 20
-17.604012
 30
0.0
 10
6.764292
 20
-17.609826
 30
0.0
 10
8.365525
 20
-17.477760
 30
0.0
 10
9.966758
 20
-17.345697
 30
0.0
 10
11.189509
 20
-17.091276
 30
0.0
 10
12.412261
 20
-16.836858
 30
0.0
 10
12.412256
 20
-16.836861
 30
0.0
 10
12.412249
 20
-16.836853
 30
0.0
  0
LWPOLYLINE
  5
101
100
AcDbEntity
  8
Negro
 62
7
100
AcDbPolyline
 90
65
 70
0
 10
10.169308
 20
33.566298
 30
0.0
 10
10.244559
 20
33.865532
 30
0.0
 10
10.372050
 20
34.261326
 30
0.0
 10
10.544889
 20
34.736670
 30
0.0
 10
10.756192
 20
35.274569
 30
0.0
 10
10.999072
 20
35.858015
 30
0.0
 10
11.266641
 20
36.470011
 30
0.0
 10
11.552016
 20
37.093550
 30
0.0
 10
11.848307
 20
37.711631
 30
0.0
 10
12.277451
 20
38.549123
 30
0.0
 10
12.713259
 20
39.317100
 30
0.0
 10
13.177698
 20
40.044421
 30
0.0
 10
13.692745
 20
40.759944
 30
0.0
 10
14.280377
 20
41.492526
 30
0.0
 10
14.962567
 20
42.271021
 30
0.0
 10
15.761287
 20
43.124295
 30
0.0
 10
16.698516
 20
44.081200
 30
0.0
 10
17.708234
 20
45.081800
 30
0.0
 10
18.577899
 20
45.906495
 30
0.0
 10
19.352785
 20
46.588832
 30
0.0
 10
20.078169
 20
47.162359
 30
0.0
 10
20.799329
 20
47.660619
 30
0.0
 10
21.561538
 20
48.117162
 30
0.0
 10
22.410076
 20
48.565531
 30
0.0
 10
23.390217
 20
49.039272
 30
0.0
 10
24.585188
 20
49.575638
 30
0.0
 10
25.771526
 20
50.063995
 30
0.0
 10
26.908444
 20
50.491444
 30
0.0
 10
27.955141
 20
50.845079
 30
0.0
 10
28.870831
 20
51.112005
 30
0.0
 10
29.614718
 20
51.279321
 30
0.0
 10
30.146010
 20
51.334128
 30
0.0
 10
30.423911
 20
51.263522
 30
0.0
 10
30.498172
 20
50.757813
 30
0.0
 10
30.257733
 20
49.818967
 30
0.0
 10
29.760740
 20
48.561422
 30
0.0
 10
29.065341
 20
47.099624
 30
0.0
 10
28.229679
 20
45.548014
 30
0.0
 10
27.311898
 20
44.021034
 30
0.0
 10
26.370147
 20
42.633124
 30
0.0
 10
25.462577
 20
41.498726
 30
0.0
 10
24.168298
 20
40.117626
 30
0.0
 10
22.894575
 20
38.882997
 30
0.0
 10
21.623294
 20
37.781969
 30
0.0
 10
20.336338
 20
36.801671
 30
0.0
 10
19.015597
 20
35.929237
 30
0.0
 10
17.642959
 20
35.151791
 30
0.0
 10
16.200303
 20
34.456469
 30
0.0
 10
14.669522
 20
33.830401
 30
0.0
 10
13.885886
 20
33.538445
 30
0.0
 10
13.137650
 20
33.266078
 30
0.0
 10
12.442416
 20
33.019258
 30
0.0
 10
11.817793
 20
32.803948
 30
0.0
 10
11.281379
 20
32.626108
 30
0.0
 10
10.850784
 20
32.491700
 30
0.0
 10
10.543608
 20
32.406680
 30
0.0
 10
10.377458
 20
32.377019
 30
0.0
 10
10.277910
 20
32.395194
 30
0.0
 10
10.199489
 20
32.449984
 30
0.0
 10
10.142135
 20
32.541712
 30
0.0
 10
10.105791
 20
32.670722
 30
0.0
 10
10.090381
 20
32.837346
 30
0.0
 10
10.095885
 20
33.041923
 30
0.0
 10
10.122216
 20
33.284789
 30
0.0
 10
10.169308
 20
33.566298
 30
0.0
  0
LWPOLYLINE
  5
102
100
AcDbEntity
  8
Negro
 62
7
100
AcDbPolyline
 90
99
 70
0
 10
34.368218
 20
16.855372
 30
0.0
 10
34.213255
 20
15.574524
 30
0.0
 10
36.235736
 20
15.825216
 30
0.0
 10
38.879300
 20
15.895529
 30
0.0
 10
40.674527
 20
15.735721
 30
0.0
 10
42.339390
 20
15.201852
 30
0.0
 10
44.591867
 20
14.149984
 30
0.0
 10
45.829511
 20
13.289726
 30
0.0
 10
47.517770
 20
11.835991
 30
0.0
 10
49.166963
 20
10.236728
 30
0.0
 10
50.287397
 20
8.939888
 30
0.0
 10
51.277274
 20
7.095524
 30
0.0
 10
52.147645
 20
4.734058
 30
0.0
 10
52.770752
 20
2.268387
 30
0.0
 10
53.018854
 20
0.111416
 30
0.0
 10
52.871099
 20
-1.572096
 30
0.0
 10
52.463686
 20
-3.618016
 30
0.0
 10
51.890174
 20
-5.638498
 30
0.0
 10
51.244119
 20
-7.245694
 30
0.0
 10
50.452268
 20
-8.613476
 30
0.0
 10
49.509734
 20
-9.968292
 30
0.0
 10
48.534255
 20
-11.154179
 30
0.0
 10
47.643576
 20
-12.015171
 30
0.0
 10
47.282848
 20
-12.310217
 30
0.0
 10
46.919021
 20
-12.619397
 30
0.0
 10
46.594494
 20
-12.906014
 30
0.0
 10
46.351650
 20
-13.133380
 30
0.0
 10
45.518809
 20
-13.743869
 30
0.0
 10
44.233239
 20
-14.448079
 30
0.0
 10
42.710306
 20
-15.139024
 30
0.0
 10
41.165385
 20
-15.709711
 30
0.0
 10
39.012978
 20
-16.143780
 30
0.0
 10
36.502241
 20
-16.261461
 30
0.0
 10
34.524439
 20
-16.486779
 30
0.0
 10
34.547412
 20
-17.298244
 30
0.0
 10
34.547130
 20
-17.755661
 30
0.0
 10
34.546565
 20
-18.213076
 30
0.0
 10
34.546283
 20
-18.670490
 30
0.0
 10
33.983888
 20
-21.276454
 30
0.0
 10
32.519826
 20
-23.762177
 30
0.0
 10
30.481360
 20
-25.713151
 30
0.0
 10
28.195755
 20
-26.714873
 30
0.0
 10
24.413185
 20
-26.895865
 30
0.0
 10
16.934784
 20
-26.996040
 30
0.0
 10
7.710413
 20
-27.002898
 30
0.0
 10
-1.310059
 20
-26.903957
 30
0.0
 10
-1.310088
 20
-26.903957
 30
0.0
 10
-1.310117
 20
-26.903957
 30
0.0
 10
-1.310146
 20
-26.903957
 30
0.0
 10
-1.310207
 20
-26.903999
 30
0.0
 10
-6.719031
 20
-26.783812
 30
0.0
 10
-9.779923
 20
-26.631375
 30
0.0
 10
-11.350447
 20
-26.370080
 30
0.0
 10
-12.288172
 20
-25.923319
 30
0.0
 10
-13.556447
 20
-25.010553
 30
0.0
 10
-14.633182
 20
-23.977126
 30
0.0
 10
-15.501020
 20
-22.842387
 30
0.0
 10
-16.142605
 20
-21.625690
 30
0.0
 10
-16.460840
 20
-20.235728
 30
0.0
 10
-16.650564
 20
-17.128089
 30
0.0
 10
-16.751258
 20
-11.054718
 30
0.0
 10
-16.802399
 20
-0.767557
 30
0.0
 10
-16.801609
 20
6.942286
 30
0.0
 10
-16.755167
 20
13.576972
 30
0.0
 10
-16.671108
 20
18.429097
 30
0.0
 10
-16.557468
 20
20.791269
 30
0.0
 10
-16.109155
 20
22.478670
 30
0.0
 10
-15.264016
 20
24.001228
 30
0.0
 10
-14.012308
 20
25.372390
 30
0.0
 10
-12.344290
 20
26.605597
 30
0.0
 10
-12.010069
 20
26.813431
 30
0.0
 10
-11.675848
 20
27.021265
 30
0.0
 10
-11.341627
 20
27.229099
 30
0.0
 10
-11.007406
 20
27.436933
 30
0.0
 10
-6.059767
 20
27.463462
 30
0.0
 10
-1.112127
 20
27.490019
 30
0.0
 10
3.835512
 20
27.516548
 30
0.0
 10
8.783151
 20
27.543105
 30
0.0
 10
13.730791
 20
27.569662
 30
0.0
 10
18.678429
 20
27.596191
 30
0.0
 10
23.626070
 20
27.622748
 30
0.0
 10
28.573707
 20
27.649305
 30
0.0
 10
29.023570
 20
27.342194
 30
0.0
 10
29.473429
 20
27.035083
 30
0.0
 10
29.923291
 20
26.727971
 30
0.0
 10
30.373153
 20
26.420860
 30
0.0
 10
31.166887
 20
25.803592
 30
0.0
 10
31.997839
 20
25.031014
 30
0.0
 10
32.767445
 20
24.201775
 30
0.0
 10
33.377130
 20
23.414522
 30
0.0
 10
34.027243
 20
22.384597
 30
0.0
 10
34.375844
 20
21.540447
 30
0.0
 10
34.499539
 20
20.591204
 30
0.0
 10
34.474929
 20
19.245998
 30
0.0
 10
34.448259
 20
18.648341
 30
0.0
 10
34.421589
 20
18.050685
 30
0.0
 10
34.394891
 20
17.453029
 30
0.0
 10
34.368221
 20
16.855372
 30
0.0
 10
34.214664
 20
15.735086
 30
0.0
  0
LWPOLYLINE
  5
103
100
AcDbEntity
  8
Negro
 62
7
100
AcDbPolyline
 90
98
 70
0
 10
33.053771
 20
-8.785152
 30
0.0
 10
33.591528
 20
-8.429941
 30
0.0
 10
34.059176
 20
-8.139052
 30
0.0
 10
34.406524
 20
-7.942507
 30
0.0
 10
34.583381
 20
-7.870320
 30
0.0
 10
34.740209
 20
-7.806484
 30
0.0
 10
35.033023
 20
-7.632672
 30
0.0
 10
35.419961
 20
-7.375432
 30
0.0
 10
35.859161
 20
-7.061310
 30
0.0
 10
36.499481
 20
-6.618701
 30
0.0
 10
36.965012
 20
-6.449794
 30
0.0
 10
37.445685
 20
-6.538485
 30
0.0
 10
38.131420
 20
-6.868674
 30
0.0
 10
39.564764
 20
-7.563358
 30
0.0
 10
41.132122
 20
-8.244301
 30
0.0
 10
42.471704
 20
-8.762294
 30
0.0
 10
43.221727
 20
-8.968116
 30
0.0
 10
43.357619
 20
-8.896799
 30
0.0
 10
43.425412
 20
-8.695072
 30
0.0
 10
43.422872
 20
-8.381289
 30
0.0
 10
43.347513
 20
-7.973791
 30
0.0
 10
43.238894
 20
-7.500143
 30
0.0
 10
43.127636
 20
-6.945548
 30
0.0
 10
43.026798
 20
-6.379046
 30
0.0
 10
42.949444
 20
-5.869678
 30
0.0
 10
42.864800
 20
-5.346581
 30
0.0
 10
42.744122
 20
-4.742696
 30
0.0
 10
42.603496
 20
-4.132772
 30
0.0
 10
42.459021
 20
-3.591563
 30
0.0
 10
42.315570
 20
-2.907462
 30
0.0
 10
42.420924
 20
-2.332389
 30
0.0
 10
42.868342
 20
-1.655036
 30
0.0
 10
43.751091
 20
-0.664103
 30
0.0
 10
44.982748
 20
0.712541
 30
0.0
 10
45.854863
 20
1.797411
 30
0.0
 10
46.335242
 20
2.546847
 30
0.0
 10
46.391692
 20
2.917193
 30
0.0
 10
46.145656
 20
2.989498
 30
0.0
 10
45.588592
 20
3.073535
 30
0.0
 10
44.803176
 20
3.158874
 30
0.0
 10
43.872079
 20
3.235079
 30
0.0
 10
41.882997
 20
3.424468
 30
0.0
 10
40.522485
 20
3.677593
 30
0.0
 10
39.741867
 20
4.007711
 30
0.0
 10
39.492479
 20
4.428081
 30
0.0
 10
39.469393
 20
4.625803
 30
0.0
 10
39.406570
 20
4.787722
 30
0.0
 10
39.313589
 20
4.897128
 30
0.0
 10
39.200049
 20
4.937308
 30
0.0
 10
39.049963
 20
5.038369
 30
0.0
 10
38.857482
 20
5.313533
 30
0.0
 10
38.647395
 20
5.720774
 30
0.0
 10
38.444497
 20
6.218072
 30
0.0
 10
38.240798
 20
6.715368
 30
0.0
 10
38.028530
 20
7.122609
 30
0.0
 10
37.832820
 20
7.397773
 30
0.0
 10
37.678792
 20
7.498834
 30
0.0
 10
37.543190
 20
7.571020
 30
0.0
 10
37.397650
 20
7.767566
 30
0.0
 10
37.259635
 20
8.058455
 30
0.0
 10
37.146608
 20
8.413665
 30
0.0
 10
36.759673
 20
9.270989
 30
0.0
 10
36.228745
 20
9.187623
 30
0.0
 10
35.509259
 20
8.122638
 30
0.0
 10
34.556649
 20
6.035105
 30
0.0
 10
33.842096
 20
4.369034
 30
0.0
 10
33.329129
 20
3.495404
 30
0.0
 10
32.784435
 20
3.143975
 30
0.0
 10
31.974697
 20
3.044500
 30
0.0
 10
31.525845
 20
3.002260
 30
0.0
 10
31.103299
 20
2.937092
 30
0.0
 10
30.754563
 20
2.857881
 30
0.0
 10
30.527128
 20
2.773522
 30
0.0
 10
30.221270
 20
2.624003
 30
0.0
 10
29.896017
 20
2.528223
 30
0.0
 10
29.451774
 20
2.465691
 30
0.0
 10
28.788950
 20
2.415921
 30
0.0
 10
28.425950
 20
2.367520
 30
0.0
 10
28.046223
 20
2.273692
 30
0.0
 10
27.694800
 20
2.147959
 30
0.0
 10
27.416706
 20
2.003843
 30
0.0
 10
27.237639
 20
1.732099
 30
0.0
 10
27.422424
 20
1.286744
 30
0.0
 10
28.045478
 20
0.559788
 30
0.0
 10
29.181225
 20
-0.556771
 30
0.0
 10
30.641479
 20
-2.021894
 30
0.0
 10
31.345293
 20
-3.225097
 30
0.0
 10
31.487562
 20
-4.808169
 30
0.0
 10
31.263169
 20
-7.412905
 30
0.0
 10
31.193921
 20
-8.330994
 30
0.0
 10
31.189772
 20
-9.054874
 30
0.0
 10
31.248209
 20
-9.529535
 30
0.0
 10
31.366754
 20
-9.699981
 30
0.0
 10
31.604760
 20
-9.627794
 30
0.0
 10
32.002185
 20
-9.431249
 30
0.0
 10
32.503669
 20
-9.140362
 30
0.0
 10
33.053853
 20
-8.785152
 30
0.0
 10
33.053771
 20
-8.785152
 30
0.0
  0
LWPOLYLINE
  5
104
100
AcDbEntity
  8
Negro
 62
7
100
AcDbPolyline
 90
2
 70
0
 10
34.397625
 20
-15.918050
 30
0.0
 10
34.397625
 20
-15.918050
 30
0.0
  0
ENDSEC
  0
SECTION
  2
OBJECTS
  0
DICTIONARY
  5
C
330
0
100
AcDbDictionary
  3
ACAD_GROUP
350
D
  3
ACAD_MLINESTYLE
350
17
  0
DICTIONARY
  5
D
330
C
100
AcDbDictionary
  0
DICTIONARY
  5
1A
330
C
100
AcDbDictionary
  0
DICTIONARY
  5
17
330
C
100
AcDbDictionary
  3
STANDARD
350
18
  0
DICTIONARY
  5
19
330
C
100
AcDbDictionary
  0
ENDSEC
  0
EOF
