solid OpenSCAD_Model
  facet normal -1 0 0
    outer loop
      vertex -15 -4 9
      vertex -15 52 9
      vertex -15 -4 -9
    endloop
  endfacet
  facet normal -1 0 0
    outer loop
      vertex -15 -4 -9
      vertex -15 52 9
      vertex -15 52 -9
    endloop
  endfacet
  facet normal 0 -2.22045e-16 1
    outer loop
      vertex -13 -2 9
      vertex -15 -4 9
      vertex 15 -4 9
    endloop
  endfacet
  facet normal 0 -2.22045e-16 1
    outer loop
      vertex 13 50 9
      vertex 13 -2 9
      vertex 15 -4 9
    endloop
  endfacet
  facet normal 0 -2.22045e-16 1
    outer loop
      vertex 9 63.5 9
      vertex -9 52 9
      vertex 9 52 9
    endloop
  endfacet
  facet normal 0 -2.22045e-16 1
    outer loop
      vertex 13 -2 9
      vertex -13 -2 9
      vertex 15 -4 9
    endloop
  endfacet
  facet normal 0 -2.22045e-16 1
    outer loop
      vertex -15 52 9
      vertex -15 -4 9
      vertex -13 -2 9
    endloop
  endfacet
  facet normal 0 -2.22045e-16 1
    outer loop
      vertex -9 52 9
      vertex -15 52 9
      vertex -13 50 9
    endloop
  endfacet
  facet normal 0 -2.22045e-16 1
    outer loop
      vertex 15 52 9
      vertex 13 50 9
      vertex 15 -4 9
    endloop
  endfacet
  facet normal 0 -2.22045e-16 1
    outer loop
      vertex 15 52 9
      vertex 9 52 9
      vertex 13 50 9
    endloop
  endfacet
  facet normal 0 -2.22045e-16 1
    outer loop
      vertex -13 50 9
      vertex 9 52 9
      vertex -9 52 9
    endloop
  endfacet
  facet normal 0 -2.22045e-16 1
    outer loop
      vertex -13 50 9
      vertex 13 50 9
      vertex 9 52 9
    endloop
  endfacet
  facet normal 0 -2.22045e-16 1
    outer loop
      vertex -9 63.5 9
      vertex -9 52 9
      vertex 9 63.5 9
    endloop
  endfacet
  facet normal 0 -2.22045e-16 1
    outer loop
      vertex -13 -2 9
      vertex -13 50 9
      vertex -15 52 9
    endloop
  endfacet
  facet normal 0 -1 -2.22045e-16
    outer loop
      vertex 15 -4 9
      vertex -15 -4 9
      vertex -15 -4 -9
    endloop
  endfacet
  facet normal 0 -1 -2.22045e-16
    outer loop
      vertex 15 -4 -9
      vertex 15 -4 9
      vertex -15 -4 -9
    endloop
  endfacet
  facet normal 0 2.22045e-16 -1
    outer loop
      vertex -15 -4 -9
      vertex -15 52 -9
      vertex 15 -4 -9
    endloop
  endfacet
  facet normal 0 2.22045e-16 -1
    outer loop
      vertex 15 -4 -9
      vertex -15 52 -9
      vertex -9 52 -9
    endloop
  endfacet
  facet normal 0 2.22045e-16 -1
    outer loop
      vertex 15 -4 -9
      vertex -9 52 -9
      vertex -9 63.5 -9
    endloop
  endfacet
  facet normal 0 2.22045e-16 -1
    outer loop
      vertex 9 52 -9
      vertex -9 63.5 -9
      vertex 9 63.5 -9
    endloop
  endfacet
  facet normal 0 2.22045e-16 -1
    outer loop
      vertex 15 -4 -9
      vertex -9 63.5 -9
      vertex 9 52 -9
    endloop
  endfacet
  facet normal 0 2.22045e-16 -1
    outer loop
      vertex 15 52 -9
      vertex 15 -4 -9
      vertex 9 52 -9
    endloop
  endfacet
  facet normal 0 1 2.22045e-16
    outer loop
      vertex -15 52 9
      vertex -9 52 9
      vertex -15 52 -9
    endloop
  endfacet
  facet normal 0 1 2.22045e-16
    outer loop
      vertex -15 52 -9
      vertex -9 52 9
      vertex -9 52 -9
    endloop
  endfacet
  facet normal -1 0 0
    outer loop
      vertex -9 52 9
      vertex -9 63.5 9
      vertex -9 52 -9
    endloop
  endfacet
  facet normal -1 0 0
    outer loop
      vertex -9 52 -9
      vertex -9 63.5 9
      vertex -9 63.5 -9
    endloop
  endfacet
  facet normal 0 1 2.22045e-16
    outer loop
      vertex 6.71645 63.5 -1.97213
      vertex 9 63.5 9
      vertex 9 63.5 -9
    endloop
  endfacet
  facet normal 0 1 2.22045e-16
    outer loop
      vertex -0.996204 63.5 6.92875
      vertex -9 63.5 9
      vertex 0.996204 63.5 6.92875
    endloop
  endfacet
  facet normal 0 1 2.22045e-16
    outer loop
      vertex -9 63.5 9
      vertex -6.71645 63.5 1.97213
      vertex -9 63.5 -9
    endloop
  endfacet
  facet normal 0 1 2.22045e-16
    outer loop
      vertex -6.71645 63.5 1.97213
      vertex -7 63.5 1.40998e-14
      vertex -9 63.5 -9
    endloop
  endfacet
  facet normal 0 1 2.22045e-16
    outer loop
      vertex -7 63.5 1.40998e-14
      vertex -6.71645 63.5 -1.97213
      vertex -9 63.5 -9
    endloop
  endfacet
  facet normal 0 1 2.22045e-16
    outer loop
      vertex 2.9079 63.5 6.36742
      vertex 9 63.5 9
      vertex 4.58402 63.5 5.29025
    endloop
  endfacet
  facet normal 0 1 2.22045e-16
    outer loop
      vertex -6.71645 63.5 -1.97213
      vertex -5.88877 63.5 -3.78449
      vertex -9 63.5 -9
    endloop
  endfacet
  facet normal 0 1 2.22045e-16
    outer loop
      vertex 0.996204 63.5 -6.92875
      vertex 9 63.5 -9
      vertex -0.996204 63.5 -6.92875
    endloop
  endfacet
  facet normal 0 1 2.22045e-16
    outer loop
      vertex -9 63.5 -9
      vertex -4.58402 63.5 -5.29025
      vertex -2.9079 63.5 -6.36742
    endloop
  endfacet
  facet normal 0 1 2.22045e-16
    outer loop
      vertex -9 63.5 -9
      vertex -2.9079 63.5 -6.36742
      vertex -0.996204 63.5 -6.92875
    endloop
  endfacet
  facet normal 0 1 2.22045e-16
    outer loop
      vertex -9 63.5 -9
      vertex -0.996204 63.5 -6.92875
      vertex 9 63.5 -9
    endloop
  endfacet
  facet normal 0 1 2.22045e-16
    outer loop
      vertex 2.9079 63.5 -6.36742
      vertex 9 63.5 -9
      vertex 0.996204 63.5 -6.92875
    endloop
  endfacet
  facet normal 0 1 2.22045e-16
    outer loop
      vertex 4.58402 63.5 5.29025
      vertex 9 63.5 9
      vertex 5.88877 63.5 3.78449
    endloop
  endfacet
  facet normal 0 1 2.22045e-16
    outer loop
      vertex 6.71645 63.5 1.97213
      vertex 9 63.5 9
      vertex 7 63.5 1.40998e-14
    endloop
  endfacet
  facet normal 0 1 2.22045e-16
    outer loop
      vertex 5.88877 63.5 3.78449
      vertex 9 63.5 9
      vertex 6.71645 63.5 1.97213
    endloop
  endfacet
  facet normal 0 1 2.22045e-16
    outer loop
      vertex 2.9079 63.5 -6.36742
      vertex 4.58402 63.5 -5.29025
      vertex 9 63.5 -9
    endloop
  endfacet
  facet normal 0 1 2.22045e-16
    outer loop
      vertex 4.58402 63.5 -5.29025
      vertex 5.88877 63.5 -3.78449
      vertex 9 63.5 -9
    endloop
  endfacet
  facet normal 0 1 2.22045e-16
    outer loop
      vertex 7 63.5 1.40998e-14
      vertex 9 63.5 9
      vertex 6.71645 63.5 -1.97213
    endloop
  endfacet
  facet normal 0 1 2.22045e-16
    outer loop
      vertex 5.88877 63.5 -3.78449
      vertex 6.71645 63.5 -1.97213
      vertex 9 63.5 -9
    endloop
  endfacet
  facet normal 0 1 2.22045e-16
    outer loop
      vertex 0.996204 63.5 6.92875
      vertex 9 63.5 9
      vertex 2.9079 63.5 6.36742
    endloop
  endfacet
  facet normal 0 1 2.22045e-16
    outer loop
      vertex -9 63.5 9
      vertex 9 63.5 9
      vertex 0.996204 63.5 6.92875
    endloop
  endfacet
  facet normal 0 1 2.22045e-16
    outer loop
      vertex -9 63.5 9
      vertex -0.996204 63.5 6.92875
      vertex -2.9079 63.5 6.36742
    endloop
  endfacet
  facet normal 0 1 2.22045e-16
    outer loop
      vertex -9 63.5 9
      vertex -2.9079 63.5 6.36742
      vertex -4.58402 63.5 5.29025
    endloop
  endfacet
  facet normal 0 1 2.22045e-16
    outer loop
      vertex -9 63.5 9
      vertex -4.58402 63.5 5.29025
      vertex -5.88877 63.5 3.78449
    endloop
  endfacet
  facet normal 0 1 2.22045e-16
    outer loop
      vertex -9 63.5 9
      vertex -5.88877 63.5 3.78449
      vertex -6.71645 63.5 1.97213
    endloop
  endfacet
  facet normal 0 1 2.22045e-16
    outer loop
      vertex -4.58402 63.5 -5.29025
      vertex -9 63.5 -9
      vertex -5.88877 63.5 -3.78449
    endloop
  endfacet
  facet normal 1 0 0
    outer loop
      vertex 9 63.5 9
      vertex 9 52 9
      vertex 9 52 -9
    endloop
  endfacet
  facet normal 1 0 0
    outer loop
      vertex 9 63.5 -9
      vertex 9 63.5 9
      vertex 9 52 -9
    endloop
  endfacet
  facet normal 0 1 2.22045e-16
    outer loop
      vertex 9 52 9
      vertex 15 52 9
      vertex 9 52 -9
    endloop
  endfacet
  facet normal 0 1 2.22045e-16
    outer loop
      vertex 9 52 -9
      vertex 15 52 9
      vertex 15 52 -9
    endloop
  endfacet
  facet normal 1 0 0
    outer loop
      vertex 15 52 9
      vertex 15 -4 9
      vertex 15 -4 -9
    endloop
  endfacet
  facet normal 1 0 0
    outer loop
      vertex 15 52 -9
      vertex 15 52 9
      vertex 15 -4 -9
    endloop
  endfacet
  facet normal 1 0 0
    outer loop
      vertex -13 -2 -7
      vertex -13 50 -7
      vertex -13 50 9
    endloop
  endfacet
  facet normal 1 0 0
    outer loop
      vertex -13 -2 9
      vertex -13 -2 -7
      vertex -13 50 9
    endloop
  endfacet
  facet normal 0 1 2.22045e-16
    outer loop
      vertex 13 -2 -7
      vertex -13 -2 -7
      vertex 13 -2 9
    endloop
  endfacet
  facet normal 0 1 2.22045e-16
    outer loop
      vertex 13 -2 9
      vertex -13 -2 -7
      vertex -13 -2 9
    endloop
  endfacet
  facet normal -1 0 0
    outer loop
      vertex 13 50 -7
      vertex 13 -2 -7
      vertex 13 50 9
    endloop
  endfacet
  facet normal -1 0 0
    outer loop
      vertex 13 50 9
      vertex 13 -2 -7
      vertex 13 -2 9
    endloop
  endfacet
  facet normal 0 -1 -2.22045e-16
    outer loop
      vertex 3.54182 50 1.85889
      vertex 13 50 -7
      vertex 13 50 9
    endloop
  endfacet
  facet normal 0 -1 -2.22045e-16
    outer loop
      vertex 0.482147 50 -3.97083
      vertex -1.41842 50 -3.74006
      vertex -13 50 -7
    endloop
  endfacet
  facet normal 0 -1 -2.22045e-16
    outer loop
      vertex -13 50 9
      vertex -13 50 -7
      vertex -3.88377 50 0.957263
    endloop
  endfacet
  facet normal 0 -1 -2.22045e-16
    outer loop
      vertex 0.482147 50 3.97084
      vertex 2.27226 50 3.29194
      vertex 13 50 9
    endloop
  endfacet
  facet normal 0 -1 -2.22045e-16
    outer loop
      vertex -13 50 9
      vertex -3.88377 50 0.957263
      vertex -2.99404 50 2.65249
    endloop
  endfacet
  facet normal 0 -1 -2.22045e-16
    outer loop
      vertex -13 50 9
      vertex -1.41842 50 3.74007
      vertex 13 50 9
    endloop
  endfacet
  facet normal 0 -1 -2.22045e-16
    outer loop
      vertex -13 50 9
      vertex -2.99404 50 2.65249
      vertex -1.41842 50 3.74007
    endloop
  endfacet
  facet normal 0 -1 -2.22045e-16
    outer loop
      vertex 4 50 1.11022e-14
      vertex 13 50 -7
      vertex 3.54182 50 1.85889
    endloop
  endfacet
  facet normal 0 -1 -2.22045e-16
    outer loop
      vertex 3.54182 50 -1.85889
      vertex 13 50 -7
      vertex 4 50 1.11022e-14
    endloop
  endfacet
  facet normal 0 -1 -2.22045e-16
    outer loop
      vertex -2.99404 50 -2.65249
      vertex -3.88377 50 -0.957263
      vertex -13 50 -7
    endloop
  endfacet
  facet normal 0 -1 -2.22045e-16
    outer loop
      vertex 2.27226 50 -3.29193
      vertex 13 50 -7
      vertex 3.54182 50 -1.85889
    endloop
  endfacet
  facet normal 0 -1 -2.22045e-16
    outer loop
      vertex 0.482147 50 -3.97083
      vertex 13 50 -7
      vertex 2.27226 50 -3.29193
    endloop
  endfacet
  facet normal 0 -1 -2.22045e-16
    outer loop
      vertex -13 50 -7
      vertex 13 50 -7
      vertex 0.482147 50 -3.97083
    endloop
  endfacet
  facet normal 0 -1 -2.22045e-16
    outer loop
      vertex -1.41842 50 -3.74006
      vertex -2.99404 50 -2.65249
      vertex -13 50 -7
    endloop
  endfacet
  facet normal 0 -1 -2.22045e-16
    outer loop
      vertex -1.41842 50 3.74007
      vertex 0.482147 50 3.97084
      vertex 13 50 9
    endloop
  endfacet
  facet normal 0 -1 -2.22045e-16
    outer loop
      vertex -3.88377 50 -0.957263
      vertex -3.88377 50 0.957263
      vertex -13 50 -7
    endloop
  endfacet
  facet normal 0 -1 -2.22045e-16
    outer loop
      vertex 2.27226 50 3.29194
      vertex 3.54182 50 1.85889
      vertex 13 50 9
    endloop
  endfacet
  facet normal 0.989821 3.16002e-17 -0.142315
    outer loop
      vertex -7 63.5 1.40998e-14
      vertex -6.71645 63.5 1.97213
      vertex -6.71645 52 1.97213
    endloop
  endfacet
  facet normal 0.989821 3.16002e-17 -0.142315
    outer loop
      vertex -7 52 1.15463e-14
      vertex -7 63.5 1.40998e-14
      vertex -6.71645 52 1.97213
    endloop
  endfacet
  facet normal 0.909632 9.22406e-17 -0.415415
    outer loop
      vertex -6.71645 63.5 1.97213
      vertex -5.88877 63.5 3.78449
      vertex -5.88877 52 3.78449
    endloop
  endfacet
  facet normal 0.909632 9.22406e-17 -0.415415
    outer loop
      vertex -6.71645 52 1.97213
      vertex -6.71645 63.5 1.97213
      vertex -5.88877 52 3.78449
    endloop
  endfacet
  facet normal 0.755749 1.45408e-16 -0.654861
    outer loop
      vertex -5.88877 63.5 3.78449
      vertex -4.58402 63.5 5.29025
      vertex -4.58402 52 5.29025
    endloop
  endfacet
  facet normal 0.755749 1.45408e-16 -0.654861
    outer loop
      vertex -5.88877 52 3.78449
      vertex -5.88877 63.5 3.78449
      vertex -4.58402 52 5.29025
    endloop
  endfacet
  facet normal 0.540641 1.86796e-16 -0.841254
    outer loop
      vertex -2.9079 63.5 6.36742
      vertex -2.9079 52 6.36742
      vertex -4.58402 63.5 5.29025
    endloop
  endfacet
  facet normal 0.540641 1.86796e-16 -0.841254
    outer loop
      vertex -4.58402 63.5 5.29025
      vertex -2.9079 52 6.36742
      vertex -4.58402 52 5.29025
    endloop
  endfacet
  facet normal 0.281733 2.1305e-16 -0.959493
    outer loop
      vertex -0.996204 63.5 6.92875
      vertex -0.996204 52 6.92875
      vertex -2.9079 63.5 6.36742
    endloop
  endfacet
  facet normal 0.281733 2.1305e-16 -0.959493
    outer loop
      vertex -2.9079 63.5 6.36742
      vertex -0.996204 52 6.92875
      vertex -2.9079 52 6.36742
    endloop
  endfacet
  facet normal 0 2.22045e-16 -1
    outer loop
      vertex 0.996204 63.5 6.92875
      vertex 0.996204 52 6.92875
      vertex -0.996204 63.5 6.92875
    endloop
  endfacet
  facet normal 0 2.22045e-16 -1
    outer loop
      vertex -0.996204 63.5 6.92875
      vertex 0.996204 52 6.92875
      vertex -0.996204 52 6.92875
    endloop
  endfacet
  facet normal -0.281733 2.1305e-16 -0.959493
    outer loop
      vertex 2.9079 63.5 6.36742
      vertex 2.9079 52 6.36742
      vertex 0.996204 63.5 6.92875
    endloop
  endfacet
  facet normal -0.281733 2.1305e-16 -0.959493
    outer loop
      vertex 0.996204 63.5 6.92875
      vertex 2.9079 52 6.36742
      vertex 0.996204 52 6.92875
    endloop
  endfacet
  facet normal -0.540641 1.86796e-16 -0.841254
    outer loop
      vertex 4.58402 63.5 5.29025
      vertex 4.58402 52 5.29025
      vertex 2.9079 63.5 6.36742
    endloop
  endfacet
  facet normal -0.540641 1.86796e-16 -0.841254
    outer loop
      vertex 2.9079 63.5 6.36742
      vertex 4.58402 52 5.29025
      vertex 2.9079 52 6.36742
    endloop
  endfacet
  facet normal -0.755749 1.45408e-16 -0.654861
    outer loop
      vertex 5.88877 63.5 3.78449
      vertex 5.88877 52 3.78449
      vertex 4.58402 63.5 5.29025
    endloop
  endfacet
  facet normal -0.755749 1.45408e-16 -0.654861
    outer loop
      vertex 4.58402 63.5 5.29025
      vertex 5.88877 52 3.78449
      vertex 4.58402 52 5.29025
    endloop
  endfacet
  facet normal -0.909632 9.22406e-17 -0.415415
    outer loop
      vertex 6.71645 63.5 1.97213
      vertex 6.71645 52 1.97213
      vertex 5.88877 63.5 3.78449
    endloop
  endfacet
  facet normal -0.909632 9.22406e-17 -0.415415
    outer loop
      vertex 5.88877 63.5 3.78449
      vertex 6.71645 52 1.97213
      vertex 5.88877 52 3.78449
    endloop
  endfacet
  facet normal -0.989821 3.16002e-17 -0.142315
    outer loop
      vertex 7 63.5 1.40998e-14
      vertex 7 52 1.15463e-14
      vertex 6.71645 63.5 1.97213
    endloop
  endfacet
  facet normal -0.989821 3.16002e-17 -0.142315
    outer loop
      vertex 6.71645 63.5 1.97213
      vertex 7 52 1.15463e-14
      vertex 6.71645 52 1.97213
    endloop
  endfacet
  facet normal -0.989821 -3.16002e-17 0.142315
    outer loop
      vertex 7 63.5 1.40998e-14
      vertex 6.71645 63.5 -1.97213
      vertex 7 52 1.15463e-14
    endloop
  endfacet
  facet normal -0.989821 -3.16002e-17 0.142315
    outer loop
      vertex 7 52 1.15463e-14
      vertex 6.71645 63.5 -1.97213
      vertex 6.71645 52 -1.97213
    endloop
  endfacet
  facet normal -0.909632 -9.22406e-17 0.415415
    outer loop
      vertex 6.71645 63.5 -1.97213
      vertex 5.88877 63.5 -3.78449
      vertex 6.71645 52 -1.97213
    endloop
  endfacet
  facet normal -0.909632 -9.22406e-17 0.415415
    outer loop
      vertex 6.71645 52 -1.97213
      vertex 5.88877 63.5 -3.78449
      vertex 5.88877 52 -3.78449
    endloop
  endfacet
  facet normal -0.755749 -1.45408e-16 0.654861
    outer loop
      vertex 5.88877 63.5 -3.78449
      vertex 4.58402 63.5 -5.29025
      vertex 5.88877 52 -3.78449
    endloop
  endfacet
  facet normal -0.755749 -1.45408e-16 0.654861
    outer loop
      vertex 5.88877 52 -3.78449
      vertex 4.58402 63.5 -5.29025
      vertex 4.58402 52 -5.29025
    endloop
  endfacet
  facet normal -0.540641 -1.86796e-16 0.841254
    outer loop
      vertex 4.58402 52 -5.29025
      vertex 4.58402 63.5 -5.29025
      vertex 2.9079 63.5 -6.36742
    endloop
  endfacet
  facet normal -0.540641 -1.86796e-16 0.841254
    outer loop
      vertex 2.9079 52 -6.36742
      vertex 4.58402 52 -5.29025
      vertex 2.9079 63.5 -6.36742
    endloop
  endfacet
  facet normal -0.281733 -2.1305e-16 0.959493
    outer loop
      vertex 2.9079 52 -6.36742
      vertex 2.9079 63.5 -6.36742
      vertex 0.996204 63.5 -6.92875
    endloop
  endfacet
  facet normal -0.281733 -2.1305e-16 0.959493
    outer loop
      vertex 0.996204 52 -6.92875
      vertex 2.9079 52 -6.36742
      vertex 0.996204 63.5 -6.92875
    endloop
  endfacet
  facet normal 0 -2.22045e-16 1
    outer loop
      vertex 0.996204 52 -6.92875
      vertex 0.996204 63.5 -6.92875
      vertex -0.996204 63.5 -6.92875
    endloop
  endfacet
  facet normal 0 -2.22045e-16 1
    outer loop
      vertex -0.996204 52 -6.92875
      vertex 0.996204 52 -6.92875
      vertex -0.996204 63.5 -6.92875
    endloop
  endfacet
  facet normal 0.281733 -2.1305e-16 0.959493
    outer loop
      vertex -0.996204 52 -6.92875
      vertex -0.996204 63.5 -6.92875
      vertex -2.9079 63.5 -6.36742
    endloop
  endfacet
  facet normal 0.281733 -2.1305e-16 0.959493
    outer loop
      vertex -2.9079 52 -6.36742
      vertex -0.996204 52 -6.92875
      vertex -2.9079 63.5 -6.36742
    endloop
  endfacet
  facet normal 0.540641 -1.86796e-16 0.841254
    outer loop
      vertex -2.9079 52 -6.36742
      vertex -2.9079 63.5 -6.36742
      vertex -4.58402 63.5 -5.29025
    endloop
  endfacet
  facet normal 0.540641 -1.86796e-16 0.841254
    outer loop
      vertex -4.58402 52 -5.29025
      vertex -2.9079 52 -6.36742
      vertex -4.58402 63.5 -5.29025
    endloop
  endfacet
  facet normal 0.755749 -1.45408e-16 0.654861
    outer loop
      vertex -4.58402 52 -5.29025
      vertex -4.58402 63.5 -5.29025
      vertex -5.88877 63.5 -3.78449
    endloop
  endfacet
  facet normal 0.755749 -1.45408e-16 0.654861
    outer loop
      vertex -5.88877 52 -3.78449
      vertex -4.58402 52 -5.29025
      vertex -5.88877 63.5 -3.78449
    endloop
  endfacet
  facet normal 0.909632 -9.22406e-17 0.415415
    outer loop
      vertex -5.88877 52 -3.78449
      vertex -5.88877 63.5 -3.78449
      vertex -6.71645 63.5 -1.97213
    endloop
  endfacet
  facet normal 0.909632 -9.22406e-17 0.415415
    outer loop
      vertex -6.71645 52 -1.97213
      vertex -5.88877 52 -3.78449
      vertex -6.71645 63.5 -1.97213
    endloop
  endfacet
  facet normal 0.989821 -3.16002e-17 0.142315
    outer loop
      vertex -6.71645 52 -1.97213
      vertex -6.71645 63.5 -1.97213
      vertex -7 63.5 1.40998e-14
    endloop
  endfacet
  facet normal 0.989821 -3.16002e-17 0.142315
    outer loop
      vertex -7 52 1.15463e-14
      vertex -6.71645 52 -1.97213
      vertex -7 63.5 1.40998e-14
    endloop
  endfacet
  facet normal 0 -2.22045e-16 1
    outer loop
      vertex 13 -2 -7
      vertex 13 50 -7
      vertex -13 50 -7
    endloop
  endfacet
  facet normal 0 -2.22045e-16 1
    outer loop
      vertex -13 -2 -7
      vertex 13 -2 -7
      vertex -13 50 -7
    endloop
  endfacet
  facet normal 1 0 0
    outer loop
      vertex -3.88377 50 -0.957263
      vertex -3.88377 52 -0.957263
      vertex -3.88377 52 0.957263
    endloop
  endfacet
  facet normal 1 0 0
    outer loop
      vertex -3.88377 50 0.957263
      vertex -3.88377 50 -0.957263
      vertex -3.88377 52 0.957263
    endloop
  endfacet
  facet normal 0.885456 1.03189e-16 -0.464723
    outer loop
      vertex -3.88377 52 0.957263
      vertex -2.99404 52 2.65249
      vertex -2.99404 50 2.65249
    endloop
  endfacet
  facet normal 0.885456 1.03189e-16 -0.464723
    outer loop
      vertex -3.88377 50 0.957263
      vertex -3.88377 52 0.957263
      vertex -2.99404 50 2.65249
    endloop
  endfacet
  facet normal 0.885456 -1.03189e-16 0.464723
    outer loop
      vertex -2.99404 50 -2.65249
      vertex -2.99404 52 -2.65249
      vertex -3.88377 52 -0.957263
    endloop
  endfacet
  facet normal 0.885456 -1.03189e-16 0.464723
    outer loop
      vertex -3.88377 50 -0.957263
      vertex -2.99404 50 -2.65249
      vertex -3.88377 52 -0.957263
    endloop
  endfacet
  facet normal 0.568065 -1.82739e-16 0.822984
    outer loop
      vertex -1.41842 50 -3.74006
      vertex -1.41842 52 -3.74006
      vertex -2.99404 52 -2.65249
    endloop
  endfacet
  facet normal 0.568065 -1.82739e-16 0.822984
    outer loop
      vertex -2.99404 50 -2.65249
      vertex -1.41842 50 -3.74006
      vertex -2.99404 52 -2.65249
    endloop
  endfacet
  facet normal 0.120536 -2.20426e-16 0.992709
    outer loop
      vertex 0.482147 50 -3.97083
      vertex 0.482147 52 -3.97083
      vertex -1.41842 52 -3.74006
    endloop
  endfacet
  facet normal 0.120536 -2.20426e-16 0.992709
    outer loop
      vertex -1.41842 50 -3.74006
      vertex 0.482147 50 -3.97083
      vertex -1.41842 52 -3.74006
    endloop
  endfacet
  facet normal -0.354605 -2.07615e-16 0.935016
    outer loop
      vertex 2.27226 50 -3.29193
      vertex 2.27226 52 -3.29193
      vertex 0.482147 52 -3.97083
    endloop
  endfacet
  facet normal -0.354605 -2.07615e-16 0.935016
    outer loop
      vertex 0.482147 50 -3.97083
      vertex 2.27226 50 -3.29193
      vertex 0.482147 52 -3.97083
    endloop
  endfacet
  facet normal -0.748511 -1.47243e-16 0.663123
    outer loop
      vertex 3.54182 52 -1.85889
      vertex 2.27226 52 -3.29193
      vertex 3.54182 50 -1.85889
    endloop
  endfacet
  facet normal -0.748511 -1.47243e-16 0.663123
    outer loop
      vertex 3.54182 50 -1.85889
      vertex 2.27226 52 -3.29193
      vertex 2.27226 50 -3.29193
    endloop
  endfacet
  facet normal -0.970942 -5.31388e-17 0.239316
    outer loop
      vertex 4 52 1.15463e-14
      vertex 3.54182 52 -1.85889
      vertex 4 50 1.11022e-14
    endloop
  endfacet
  facet normal -0.970942 -5.31388e-17 0.239316
    outer loop
      vertex 4 50 1.11022e-14
      vertex 3.54182 52 -1.85889
      vertex 3.54182 50 -1.85889
    endloop
  endfacet
  facet normal -0.970942 5.31388e-17 -0.239316
    outer loop
      vertex 4 52 1.15463e-14
      vertex 4 50 1.11022e-14
      vertex 3.54182 52 1.85889
    endloop
  endfacet
  facet normal -0.970942 5.31388e-17 -0.239316
    outer loop
      vertex 3.54182 52 1.85889
      vertex 4 50 1.11022e-14
      vertex 3.54182 50 1.85889
    endloop
  endfacet
  facet normal -0.748511 1.47243e-16 -0.663123
    outer loop
      vertex 3.54182 52 1.85889
      vertex 3.54182 50 1.85889
      vertex 2.27226 52 3.29194
    endloop
  endfacet
  facet normal -0.748511 1.47243e-16 -0.663123
    outer loop
      vertex 2.27226 52 3.29194
      vertex 3.54182 50 1.85889
      vertex 2.27226 50 3.29194
    endloop
  endfacet
  facet normal -0.354605 2.07615e-16 -0.935016
    outer loop
      vertex 2.27226 52 3.29194
      vertex 2.27226 50 3.29194
      vertex 0.482147 52 3.97084
    endloop
  endfacet
  facet normal -0.354605 2.07615e-16 -0.935016
    outer loop
      vertex 0.482147 52 3.97084
      vertex 2.27226 50 3.29194
      vertex 0.482147 50 3.97084
    endloop
  endfacet
  facet normal 0.120536 2.20426e-16 -0.992709
    outer loop
      vertex 0.482147 52 3.97084
      vertex 0.482147 50 3.97084
      vertex -1.41842 52 3.74007
    endloop
  endfacet
  facet normal 0.120536 2.20426e-16 -0.992709
    outer loop
      vertex -1.41842 52 3.74007
      vertex 0.482147 50 3.97084
      vertex -1.41842 50 3.74007
    endloop
  endfacet
  facet normal 0.568065 1.82739e-16 -0.822984
    outer loop
      vertex -1.41842 52 3.74007
      vertex -1.41842 50 3.74007
      vertex -2.99404 52 2.65249
    endloop
  endfacet
  facet normal 0.568065 1.82739e-16 -0.822984
    outer loop
      vertex -2.99404 52 2.65249
      vertex -1.41842 50 3.74007
      vertex -2.99404 50 2.65249
    endloop
  endfacet
  facet normal 0 1 2.22045e-16
    outer loop
      vertex -7 52 1.15463e-14
      vertex -6.71645 52 1.97213
      vertex -6.71645 52 -1.97213
    endloop
  endfacet
  facet normal 0 1 2.22045e-16
    outer loop
      vertex -6.71645 52 -1.97213
      vertex -6.71645 52 1.97213
      vertex -5.88877 52 3.78449
    endloop
  endfacet
  facet normal 0 1 2.22045e-16
    outer loop
      vertex -6.71645 52 -1.97213
      vertex -5.88877 52 3.78449
      vertex -4.58402 52 5.29025
    endloop
  endfacet
  facet normal 0 1 2.22045e-16
    outer loop
      vertex -6.71645 52 -1.97213
      vertex -4.58402 52 5.29025
      vertex -2.9079 52 6.36742
    endloop
  endfacet
  facet normal 0 1 2.22045e-16
    outer loop
      vertex -6.71645 52 -1.97213
      vertex -2.9079 52 6.36742
      vertex -0.996204 52 6.92875
    endloop
  endfacet
  facet normal 0 1 2.22045e-16
    outer loop
      vertex -2.99404 52 2.65249
      vertex -0.996204 52 6.92875
      vertex 0.996204 52 6.92875
    endloop
  endfacet
  facet normal 0 1 2.22045e-16
    outer loop
      vertex -1.41842 52 3.74007
      vertex 0.996204 52 6.92875
      vertex 2.9079 52 6.36742
    endloop
  endfacet
  facet normal 0 1 2.22045e-16
    outer loop
      vertex 0.482147 52 3.97084
      vertex 2.9079 52 6.36742
      vertex 4.58402 52 5.29025
    endloop
  endfacet
  facet normal 0 1 2.22045e-16
    outer loop
      vertex 2.27226 52 3.29194
      vertex 4.58402 52 5.29025
      vertex 5.88877 52 3.78449
    endloop
  endfacet
  facet normal 0 1 2.22045e-16
    outer loop
      vertex 3.54182 52 1.85889
      vertex 5.88877 52 3.78449
      vertex 6.71645 52 1.97213
    endloop
  endfacet
  facet normal 0 1 2.22045e-16
    outer loop
      vertex 4 52 1.15463e-14
      vertex 6.71645 52 1.97213
      vertex 7 52 1.15463e-14
    endloop
  endfacet
  facet normal 0 1 2.22045e-16
    outer loop
      vertex 3.54182 52 -1.85889
      vertex 7 52 1.15463e-14
      vertex 6.71645 52 -1.97213
    endloop
  endfacet
  facet normal 0 1 2.22045e-16
    outer loop
      vertex -1.41842 52 -3.74006
      vertex 4.58402 52 -5.29025
      vertex 2.9079 52 -6.36742
    endloop
  endfacet
  facet normal 0 1 2.22045e-16
    outer loop
      vertex -6.71645 52 -1.97213
      vertex 2.9079 52 -6.36742
      vertex 0.996204 52 -6.92875
    endloop
  endfacet
  facet normal 0 1 2.22045e-16
    outer loop
      vertex -6.71645 52 -1.97213
      vertex 0.996204 52 -6.92875
      vertex -0.996204 52 -6.92875
    endloop
  endfacet
  facet normal 0 1 2.22045e-16
    outer loop
      vertex -6.71645 52 -1.97213
      vertex -0.996204 52 -6.92875
      vertex -2.9079 52 -6.36742
    endloop
  endfacet
  facet normal 0 1 2.22045e-16
    outer loop
      vertex -6.71645 52 -1.97213
      vertex -2.9079 52 -6.36742
      vertex -4.58402 52 -5.29025
    endloop
  endfacet
  facet normal 0 1 2.22045e-16
    outer loop
      vertex -6.71645 52 -1.97213
      vertex -4.58402 52 -5.29025
      vertex -5.88877 52 -3.78449
    endloop
  endfacet
  facet normal 0 1 2.22045e-16
    outer loop
      vertex -3.88377 52 -0.957263
      vertex -6.71645 52 -1.97213
      vertex -3.88377 52 0.957263
    endloop
  endfacet
  facet normal 0 1 2.22045e-16
    outer loop
      vertex 4 52 1.15463e-14
      vertex 7 52 1.15463e-14
      vertex 3.54182 52 -1.85889
    endloop
  endfacet
  facet normal 0 1 2.22045e-16
    outer loop
      vertex -2.99404 52 -2.65249
      vertex -6.71645 52 -1.97213
      vertex -3.88377 52 -0.957263
    endloop
  endfacet
  facet normal 0 1 2.22045e-16
    outer loop
      vertex 3.54182 52 -1.85889
      vertex 5.88877 52 -3.78449
      vertex 2.27226 52 -3.29193
    endloop
  endfacet
  facet normal 0 1 2.22045e-16
    outer loop
      vertex 2.27226 52 -3.29193
      vertex 5.88877 52 -3.78449
      vertex 4.58402 52 -5.29025
    endloop
  endfacet
  facet normal 0 1 2.22045e-16
    outer loop
      vertex -6.71645 52 -1.97213
      vertex -1.41842 52 -3.74006
      vertex 2.9079 52 -6.36742
    endloop
  endfacet
  facet normal 0 1 2.22045e-16
    outer loop
      vertex 2.27226 52 -3.29193
      vertex 4.58402 52 -5.29025
      vertex 0.482147 52 -3.97083
    endloop
  endfacet
  facet normal 0 1 2.22045e-16
    outer loop
      vertex 0.482147 52 -3.97083
      vertex 4.58402 52 -5.29025
      vertex -1.41842 52 -3.74006
    endloop
  endfacet
  facet normal 0 1 2.22045e-16
    outer loop
      vertex -1.41842 52 -3.74006
      vertex -6.71645 52 -1.97213
      vertex -2.99404 52 -2.65249
    endloop
  endfacet
  facet normal 0 1 2.22045e-16
    outer loop
      vertex 2.27226 52 3.29194
      vertex 5.88877 52 3.78449
      vertex 3.54182 52 1.85889
    endloop
  endfacet
  facet normal 0 1 2.22045e-16
    outer loop
      vertex 3.54182 52 1.85889
      vertex 6.71645 52 1.97213
      vertex 4 52 1.15463e-14
    endloop
  endfacet
  facet normal 0 1 2.22045e-16
    outer loop
      vertex 3.54182 52 -1.85889
      vertex 6.71645 52 -1.97213
      vertex 5.88877 52 -3.78449
    endloop
  endfacet
  facet normal 0 1 2.22045e-16
    outer loop
      vertex -2.99404 52 2.65249
      vertex 0.996204 52 6.92875
      vertex -1.41842 52 3.74007
    endloop
  endfacet
  facet normal 0 1 2.22045e-16
    outer loop
      vertex -6.71645 52 -1.97213
      vertex -0.996204 52 6.92875
      vertex -2.99404 52 2.65249
    endloop
  endfacet
  facet normal 0 1 2.22045e-16
    outer loop
      vertex -3.88377 52 0.957263
      vertex -6.71645 52 -1.97213
      vertex -2.99404 52 2.65249
    endloop
  endfacet
  facet normal 0 1 2.22045e-16
    outer loop
      vertex -1.41842 52 3.74007
      vertex 2.9079 52 6.36742
      vertex 0.482147 52 3.97084
    endloop
  endfacet
  facet normal 0 1 2.22045e-16
    outer loop
      vertex 0.482147 52 3.97084
      vertex 4.58402 52 5.29025
      vertex 2.27226 52 3.29194
    endloop
  endfacet
endsolid OpenSCAD_Model
