solid OpenSCAD_Model
  facet normal -1 0 0
    outer loop
      vertex -15 -28 1
      vertex -15 28 1
      vertex -15 -28 -1
    endloop
  endfacet
  facet normal -1 0 0
    outer loop
      vertex -15 -28 -1
      vertex -15 28 1
      vertex -15 28 -1
    endloop
  endfacet
  facet normal 0 -2.22045e-16 1
    outer loop
      vertex -13 -26 1
      vertex -15 -28 1
      vertex 15 -28 1
    endloop
  endfacet
  facet normal 0 -2.22045e-16 1
    outer loop
      vertex 13 -26 1
      vertex -13 -26 1
      vertex 15 -28 1
    endloop
  endfacet
  facet normal 0 -2.22045e-16 1
    outer loop
      vertex -15 28 1
      vertex -15 -28 1
      vertex -13 -26 1
    endloop
  endfacet
  facet normal 0 -2.22045e-16 1
    outer loop
      vertex 15 28 1
      vertex -15 28 1
      vertex -13 26 1
    endloop
  endfacet
  facet normal 0 -2.22045e-16 1
    outer loop
      vertex 15 28 1
      vertex 13 26 1
      vertex 15 -28 1
    endloop
  endfacet
  facet normal 0 -2.22045e-16 1
    outer loop
      vertex 15 28 1
      vertex -13 26 1
      vertex 13 26 1
    endloop
  endfacet
  facet normal 0 -2.22045e-16 1
    outer loop
      vertex 13 26 1
      vertex 13 -26 1
      vertex 15 -28 1
    endloop
  endfacet
  facet normal 0 -2.22045e-16 1
    outer loop
      vertex -13 -26 1
      vertex -13 26 1
      vertex -15 28 1
    endloop
  endfacet
  facet normal 0 -1 -2.22045e-16
    outer loop
      vertex 15 -28 1
      vertex -15 -28 1
      vertex -15 -28 -1
    endloop
  endfacet
  facet normal 0 -1 -2.22045e-16
    outer loop
      vertex 15 -28 -1
      vertex 15 -28 1
      vertex -15 -28 -1
    endloop
  endfacet
  facet normal 0 2.22045e-16 -1
    outer loop
      vertex -15 -28 -1
      vertex -15 28 -1
      vertex 15 -28 -1
    endloop
  endfacet
  facet normal 0 2.22045e-16 -1
    outer loop
      vertex 15 -28 -1
      vertex -15 28 -1
      vertex 15 28 -1
    endloop
  endfacet
  facet normal 0 1 2.22045e-16
    outer loop
      vertex -15 28 1
      vertex 15 28 1
      vertex -15 28 -1
    endloop
  endfacet
  facet normal 0 1 2.22045e-16
    outer loop
      vertex -15 28 -1
      vertex 15 28 1
      vertex 15 28 -1
    endloop
  endfacet
  facet normal 1 0 0
    outer loop
      vertex 15 28 1
      vertex 15 -28 1
      vertex 15 -28 -1
    endloop
  endfacet
  facet normal 1 0 0
    outer loop
      vertex 15 28 -1
      vertex 15 28 1
      vertex 15 -28 -1
    endloop
  endfacet
  facet normal -1 0 0
    outer loop
      vertex -13 -26 3.5
      vertex -13 26 3.5
      vertex -13 -26 1
    endloop
  endfacet
  facet normal -1 0 0
    outer loop
      vertex -13 -26 1
      vertex -13 26 3.5
      vertex -13 26 1
    endloop
  endfacet
  facet normal 0 -1 -2.22045e-16
    outer loop
      vertex 13 -26 3.5
      vertex -13 -26 3.5
      vertex -13 -26 1
    endloop
  endfacet
  facet normal 0 -1 -2.22045e-16
    outer loop
      vertex 13 -26 1
      vertex 13 -26 3.5
      vertex -13 -26 1
    endloop
  endfacet
  facet normal 1 0 0
    outer loop
      vertex 13 26 3.5
      vertex 13 -26 3.5
      vertex 13 -26 1
    endloop
  endfacet
  facet normal 1 0 0
    outer loop
      vertex 13 26 1
      vertex 13 26 3.5
      vertex 13 -26 1
    endloop
  endfacet
  facet normal 0 1 2.22045e-16
    outer loop
      vertex -13 26 3.5
      vertex 13 26 3.5
      vertex -13 26 1
    endloop
  endfacet
  facet normal 0 1 2.22045e-16
    outer loop
      vertex -13 26 1
      vertex 13 26 3.5
      vertex 13 26 1
    endloop
  endfacet
  facet normal 0 -2.22045e-16 1
    outer loop
      vertex -12 -25 3.5
      vertex -13 -26 3.5
      vertex 13 -26 3.5
    endloop
  endfacet
  facet normal 0 -2.22045e-16 1
    outer loop
      vertex 12 -25 3.5
      vertex -12 -25 3.5
      vertex 13 -26 3.5
    endloop
  endfacet
  facet normal 0 -2.22045e-16 1
    outer loop
      vertex -13 26 3.5
      vertex -13 -26 3.5
      vertex -12 -25 3.5
    endloop
  endfacet
  facet normal 0 -2.22045e-16 1
    outer loop
      vertex 13 26 3.5
      vertex -13 26 3.5
      vertex -12 25 3.5
    endloop
  endfacet
  facet normal 0 -2.22045e-16 1
    outer loop
      vertex 13 26 3.5
      vertex 12 25 3.5
      vertex 13 -26 3.5
    endloop
  endfacet
  facet normal 0 -2.22045e-16 1
    outer loop
      vertex 13 26 3.5
      vertex -12 25 3.5
      vertex 12 25 3.5
    endloop
  endfacet
  facet normal 0 -2.22045e-16 1
    outer loop
      vertex 12 25 3.5
      vertex 12 -25 3.5
      vertex 13 -26 3.5
    endloop
  endfacet
  facet normal 0 -2.22045e-16 1
    outer loop
      vertex -12 -25 3.5
      vertex -12 25 3.5
      vertex -13 26 3.5
    endloop
  endfacet
  facet normal 1 0 0
    outer loop
      vertex -12 -25 1
      vertex -12 25 1
      vertex -12 25 3.5
    endloop
  endfacet
  facet normal 1 0 0
    outer loop
      vertex -12 -25 3.5
      vertex -12 -25 1
      vertex -12 25 3.5
    endloop
  endfacet
  facet normal 0 1 2.22045e-16
    outer loop
      vertex 12 -25 1
      vertex -12 -25 1
      vertex 12 -25 3.5
    endloop
  endfacet
  facet normal 0 1 2.22045e-16
    outer loop
      vertex 12 -25 3.5
      vertex -12 -25 1
      vertex -12 -25 3.5
    endloop
  endfacet
  facet normal -1 0 0
    outer loop
      vertex 12 25 1
      vertex 12 -25 1
      vertex 12 25 3.5
    endloop
  endfacet
  facet normal -1 0 0
    outer loop
      vertex 12 25 3.5
      vertex 12 -25 1
      vertex 12 -25 3.5
    endloop
  endfacet
  facet normal 0 -1 -2.22045e-16
    outer loop
      vertex -12 25 1
      vertex 12 25 1
      vertex 12 25 3.5
    endloop
  endfacet
  facet normal 0 -1 -2.22045e-16
    outer loop
      vertex -12 25 3.5
      vertex -12 25 1
      vertex 12 25 3.5
    endloop
  endfacet
  facet normal 0 -2.22045e-16 1
    outer loop
      vertex -12 25 1
      vertex -12 -25 1
      vertex 12 -25 1
    endloop
  endfacet
  facet normal 0 -2.22045e-16 1
    outer loop
      vertex 12 25 1
      vertex -12 25 1
      vertex 12 -25 1
    endloop
  endfacet
endsolid OpenSCAD_Model
