solid OpenSCAD_Model
  facet normal -1 0 0
    outer loop
      vertex -14.5 -9 0
      vertex -14.5 -9 48
      vertex -14.5 9 0
    endloop
  endfacet
  facet normal -1 0 0
    outer loop
      vertex -14.5 9 0
      vertex -14.5 -9 48
      vertex -14.5 9 48
    endloop
  endfacet
  facet normal 0 -1 0
    outer loop
      vertex -13 -9 1.5
      vertex -14.5 -9 0
      vertex 14.5 -9 0
    endloop
  endfacet
  facet normal 0 -1 0
    outer loop
      vertex 13 -9 1.5
      vertex -13 -9 1.5
      vertex 14.5 -9 0
    endloop
  endfacet
  facet normal 0 -1 0
    outer loop
      vertex -14.5 -9 48
      vertex -14.5 -9 0
      vertex -13 -9 1.5
    endloop
  endfacet
  facet normal 0 -1 0
    outer loop
      vertex 14.5 -9 48
      vertex -14.5 -9 48
      vertex -13 -9 46.5
    endloop
  endfacet
  facet normal 0 -1 0
    outer loop
      vertex 14.5 -9 48
      vertex 13 -9 46.5
      vertex 14.5 -9 0
    endloop
  endfacet
  facet normal 0 -1 0
    outer loop
      vertex 14.5 -9 48
      vertex -13 -9 46.5
      vertex 13 -9 46.5
    endloop
  endfacet
  facet normal 0 -1 0
    outer loop
      vertex 13 -9 46.5
      vertex 13 -9 1.5
      vertex 14.5 -9 0
    endloop
  endfacet
  facet normal 0 -1 0
    outer loop
      vertex -13 -9 1.5
      vertex -13 -9 46.5
      vertex -14.5 -9 48
    endloop
  endfacet
  facet normal 0 0 -1
    outer loop
      vertex -14.5 -9 0
      vertex -14.5 9 0
      vertex 14.5 -9 0
    endloop
  endfacet
  facet normal 0 0 -1
    outer loop
      vertex 14.5 -9 0
      vertex -14.5 9 0
      vertex 14.5 9 0
    endloop
  endfacet
  facet normal 0 1 0
    outer loop
      vertex -14.5 9 0
      vertex -14.5 9 48
      vertex 14.5 9 0
    endloop
  endfacet
  facet normal 0 1 0
    outer loop
      vertex 14.5 9 0
      vertex -14.5 9 48
      vertex 14.5 9 48
    endloop
  endfacet
  facet normal 0 0 1
    outer loop
      vertex 0.996204 -6.92875 48
      vertex -14.5 -9 48
      vertex 14.5 -9 48
    endloop
  endfacet
  facet normal 0 0 1
    outer loop
      vertex 0.996204 -6.92875 48
      vertex -0.996204 -6.92875 48
      vertex -14.5 -9 48
    endloop
  endfacet
  facet normal 0 0 1
    outer loop
      vertex -14.5 9 48
      vertex -14.5 -9 48
      vertex -6.71645 -1.97213 48
    endloop
  endfacet
  facet normal 0 0 1
    outer loop
      vertex 4.58402 -5.29025 48
      vertex 2.9079 -6.36742 48
      vertex 14.5 -9 48
    endloop
  endfacet
  facet normal 0 0 1
    outer loop
      vertex -14.5 9 48
      vertex -6.71645 -1.97213 48
      vertex -7 0 48
    endloop
  endfacet
  facet normal 0 0 1
    outer loop
      vertex -14.5 9 48
      vertex -7 0 48
      vertex -6.71645 1.97213 48
    endloop
  endfacet
  facet normal 0 0 1
    outer loop
      vertex -4.58402 5.29025 48
      vertex -14.5 9 48
      vertex -5.88877 3.78449 48
    endloop
  endfacet
  facet normal 0 0 1
    outer loop
      vertex -2.9079 6.36742 48
      vertex -14.5 9 48
      vertex -4.58402 5.29025 48
    endloop
  endfacet
  facet normal 0 0 1
    outer loop
      vertex -0.996204 6.92875 48
      vertex -14.5 9 48
      vertex -2.9079 6.36742 48
    endloop
  endfacet
  facet normal 0 0 1
    outer loop
      vertex 0.996204 6.92875 48
      vertex 2.9079 6.36742 48
      vertex 14.5 9 48
    endloop
  endfacet
  facet normal 0 0 1
    outer loop
      vertex 14.5 9 48
      vertex -14.5 9 48
      vertex -0.996204 6.92875 48
    endloop
  endfacet
  facet normal 0 0 1
    outer loop
      vertex 2.9079 6.36742 48
      vertex 4.58402 5.29025 48
      vertex 14.5 9 48
    endloop
  endfacet
  facet normal 0 0 1
    outer loop
      vertex 5.88877 3.78449 48
      vertex 6.71645 1.97213 48
      vertex 14.5 -9 48
    endloop
  endfacet
  facet normal 0 0 1
    outer loop
      vertex 6.71645 -1.97213 48
      vertex 5.88877 -3.78449 48
      vertex 14.5 -9 48
    endloop
  endfacet
  facet normal 0 0 1
    outer loop
      vertex 14.5 9 48
      vertex 5.88877 3.78449 48
      vertex 14.5 -9 48
    endloop
  endfacet
  facet normal 0 0 1
    outer loop
      vertex 14.5 9 48
      vertex 4.58402 5.29025 48
      vertex 5.88877 3.78449 48
    endloop
  endfacet
  facet normal 0 0 1
    outer loop
      vertex 6.71645 1.97213 48
      vertex 7 0 48
      vertex 14.5 -9 48
    endloop
  endfacet
  facet normal 0 0 1
    outer loop
      vertex 7 0 48
      vertex 6.71645 -1.97213 48
      vertex 14.5 -9 48
    endloop
  endfacet
  facet normal 0 0 1
    outer loop
      vertex -0.996204 6.92875 48
      vertex 0.996204 6.92875 48
      vertex 14.5 9 48
    endloop
  endfacet
  facet normal 0 0 1
    outer loop
      vertex 5.88877 -3.78449 48
      vertex 4.58402 -5.29025 48
      vertex 14.5 -9 48
    endloop
  endfacet
  facet normal 0 0 1
    outer loop
      vertex 2.9079 -6.36742 48
      vertex 0.996204 -6.92875 48
      vertex 14.5 -9 48
    endloop
  endfacet
  facet normal 0 0 1
    outer loop
      vertex -2.9079 -6.36742 48
      vertex -14.5 -9 48
      vertex -0.996204 -6.92875 48
    endloop
  endfacet
  facet normal 0 0 1
    outer loop
      vertex -4.58402 -5.29025 48
      vertex -14.5 -9 48
      vertex -2.9079 -6.36742 48
    endloop
  endfacet
  facet normal 0 0 1
    outer loop
      vertex -5.88877 -3.78449 48
      vertex -14.5 -9 48
      vertex -4.58402 -5.29025 48
    endloop
  endfacet
  facet normal 0 0 1
    outer loop
      vertex -6.71645 -1.97213 48
      vertex -14.5 -9 48
      vertex -5.88877 -3.78449 48
    endloop
  endfacet
  facet normal 0 0 1
    outer loop
      vertex -6.71645 1.97213 48
      vertex -5.88877 3.78449 48
      vertex -14.5 9 48
    endloop
  endfacet
  facet normal 1 0 0
    outer loop
      vertex 14.5 -9 48
      vertex 14.5 -9 0
      vertex 14.5 9 0
    endloop
  endfacet
  facet normal 1 0 0
    outer loop
      vertex 14.5 9 48
      vertex 14.5 -9 48
      vertex 14.5 9 0
    endloop
  endfacet
  facet normal 1 0 0
    outer loop
      vertex -13 7 1.5
      vertex -13 7 46.5
      vertex -13 -9 46.5
    endloop
  endfacet
  facet normal 1 0 0
    outer loop
      vertex -13 -9 1.5
      vertex -13 7 1.5
      vertex -13 -9 46.5
    endloop
  endfacet
  facet normal 0 0 1
    outer loop
      vertex 13 -9 1.5
      vertex 13 7 1.5
      vertex -13 7 1.5
    endloop
  endfacet
  facet normal 0 0 1
    outer loop
      vertex -13 -9 1.5
      vertex 13 -9 1.5
      vertex -13 7 1.5
    endloop
  endfacet
  facet normal -1 0 0
    outer loop
      vertex 13 7 46.5
      vertex 13 7 1.5
      vertex 13 -9 46.5
    endloop
  endfacet
  facet normal -1 0 0
    outer loop
      vertex 13 -9 46.5
      vertex 13 7 1.5
      vertex 13 -9 1.5
    endloop
  endfacet
  facet normal 0 0 -1
    outer loop
      vertex 6 -1 46.5
      vertex 3.02657 -1.61236 46.5
      vertex 3.20637 -1 46.5
    endloop
  endfacet
  facet normal 0 0 -1
    outer loop
      vertex -1 -6 46.5
      vertex 13 -9 46.5
      vertex -13 -9 46.5
    endloop
  endfacet
  facet normal 0 0 -1
    outer loop
      vertex 3.53553 -4.94975 46.5
      vertex 13 -9 46.5
      vertex 1 -6 46.5
    endloop
  endfacet
  facet normal 0 0 -1
    outer loop
      vertex 3.53553 -4.94975 46.5
      vertex 1 -3.24898 46.5
      vertex 1.45395 -3.18371 46.5
    endloop
  endfacet
  facet normal 0 0 -1
    outer loop
      vertex -4.94975 -3.53553 46.5
      vertex -6 -1 46.5
      vertex -2.98345 -1.56923 46.5
    endloop
  endfacet
  facet normal 0 0 -1
    outer loop
      vertex -1 -6 46.5
      vertex -1.56358 -2.97779 46.5
      vertex -1 -3.23517 46.5
    endloop
  endfacet
  facet normal 0 0 -1
    outer loop
      vertex -6 -1 46.5
      vertex -4.94975 -3.53553 46.5
      vertex -13 -9 46.5
    endloop
  endfacet
  facet normal 0 0 -1
    outer loop
      vertex 1 -6 46.5
      vertex 13 -9 46.5
      vertex -1 -6 46.5
    endloop
  endfacet
  facet normal 0 0 -1
    outer loop
      vertex 4.94975 -3.53553 46.5
      vertex 13 -9 46.5
      vertex 3.53553 -4.94975 46.5
    endloop
  endfacet
  facet normal 0 0 -1
    outer loop
      vertex -4.94975 -3.53553 46.5
      vertex -3.53553 -4.94975 46.5
      vertex -13 -9 46.5
    endloop
  endfacet
  facet normal 0 0 -1
    outer loop
      vertex 1 -3.24898 46.5
      vertex 3.53553 -4.94975 46.5
      vertex 1 -6 46.5
    endloop
  endfacet
  facet normal 0 0 -1
    outer loop
      vertex -1 -6 46.5
      vertex -3.53553 -4.94975 46.5
      vertex -1.56358 -2.97779 46.5
    endloop
  endfacet
  facet normal 0 0 -1
    outer loop
      vertex -6 1 46.5
      vertex -13 7 46.5
      vertex -3.34927 1 46.5
    endloop
  endfacet
  facet normal 0 0 -1
    outer loop
      vertex -3.53553 -4.94975 46.5
      vertex -1 -6 46.5
      vertex -13 -9 46.5
    endloop
  endfacet
  facet normal 0 0 -1
    outer loop
      vertex 3.53553 -4.94975 46.5
      vertex 1.45395 -3.18371 46.5
      vertex 1.62301 -3.03722 46.5
    endloop
  endfacet
  facet normal 0 0 -1
    outer loop
      vertex -6 -1 46.5
      vertex -6 1 46.5
      vertex -6 1.46958e-15 46.5
    endloop
  endfacet
  facet normal 0 0 -1
    outer loop
      vertex 13 7 46.5
      vertex 13 -9 46.5
      vertex 4.94975 -3.53553 46.5
    endloop
  endfacet
  facet normal 0 0 -1
    outer loop
      vertex 6 -1 46.5
      vertex 4.94975 -3.53553 46.5
      vertex 3.02657 -1.61236 46.5
    endloop
  endfacet
  facet normal 0 0 -1
    outer loop
      vertex 13 7 46.5
      vertex 4.94975 -3.53553 46.5
      vertex 6 -1 46.5
    endloop
  endfacet
  facet normal 0 0 -1
    outer loop
      vertex 1.62301 3.03722 46.5
      vertex 1.45395 3.18371 46.5
      vertex 3.53553 4.94975 46.5
    endloop
  endfacet
  facet normal 0 0 -1
    outer loop
      vertex 6 -1.46958e-15 46.5
      vertex 13 7 46.5
      vertex 6 -1 46.5
    endloop
  endfacet
  facet normal 0 0 -1
    outer loop
      vertex 3.20637 1 46.5
      vertex 13 7 46.5
      vertex 6 1 46.5
    endloop
  endfacet
  facet normal 0 0 -1
    outer loop
      vertex -1 3.23517 46.5
      vertex -3.53553 4.94975 46.5
      vertex -1 6 46.5
    endloop
  endfacet
  facet normal 0 0 -1
    outer loop
      vertex 13 7 46.5
      vertex 3.20637 1 46.5
      vertex 3.02657 1.61236 46.5
    endloop
  endfacet
  facet normal 0 0 -1
    outer loop
      vertex 13 7 46.5
      vertex 3.02657 1.61236 46.5
      vertex 4.94975 3.53553 46.5
    endloop
  endfacet
  facet normal 0 0 -1
    outer loop
      vertex -3.53553 4.94975 46.5
      vertex -13 7 46.5
      vertex -1 6 46.5
    endloop
  endfacet
  facet normal 0 0 -1
    outer loop
      vertex 13 7 46.5
      vertex 4.94975 3.53553 46.5
      vertex 3.53553 4.94975 46.5
    endloop
  endfacet
  facet normal 0 0 -1
    outer loop
      vertex -4.94975 3.53553 46.5
      vertex -13 7 46.5
      vertex -3.53553 4.94975 46.5
    endloop
  endfacet
  facet normal 0 0 -1
    outer loop
      vertex 1 6 46.5
      vertex 3.53553 4.94975 46.5
      vertex 1.45395 3.18371 46.5
    endloop
  endfacet
  facet normal 0 0 -1
    outer loop
      vertex 13 7 46.5
      vertex 3.53553 4.94975 46.5
      vertex 1 6 46.5
    endloop
  endfacet
  facet normal 0 0 -1
    outer loop
      vertex 13 7 46.5
      vertex 1 6 46.5
      vertex -13 7 46.5
    endloop
  endfacet
  facet normal 0 0 -1
    outer loop
      vertex 1 6 46.5
      vertex -1 6 46.5
      vertex -13 7 46.5
    endloop
  endfacet
  facet normal 0 0 -1
    outer loop
      vertex -3.53553 4.94975 46.5
      vertex -1 3.23517 46.5
      vertex -1.56358 2.97779 46.5
    endloop
  endfacet
  facet normal 0 0 -1
    outer loop
      vertex 1 6 46.5
      vertex 1.45395 3.18371 46.5
      vertex 1 3.24898 46.5
    endloop
  endfacet
  facet normal 0 0 -1
    outer loop
      vertex -2.98345 1.56923 46.5
      vertex -13 7 46.5
      vertex -4.94975 3.53553 46.5
    endloop
  endfacet
  facet normal 0 0 -1
    outer loop
      vertex -3.34927 1 46.5
      vertex -13 7 46.5
      vertex -2.98345 1.56923 46.5
    endloop
  endfacet
  facet normal 0 0 -1
    outer loop
      vertex 6 1 46.5
      vertex 13 7 46.5
      vertex 6 -1.46958e-15 46.5
    endloop
  endfacet
  facet normal 0 0 -1
    outer loop
      vertex -6 -1 46.5
      vertex -13 7 46.5
      vertex -6 1 46.5
    endloop
  endfacet
  facet normal 0 0 -1
    outer loop
      vertex -13 7 46.5
      vertex -6 -1 46.5
      vertex -13 -9 46.5
    endloop
  endfacet
  facet normal 0 0 -1
    outer loop
      vertex -3.34927 -1 46.5
      vertex -2.98345 -1.56923 46.5
      vertex -6 -1 46.5
    endloop
  endfacet
  facet normal -0.989821 -0.142315 0
    outer loop
      vertex -7 0 48
      vertex -6.71645 -1.97213 48
      vertex -7 0 149.8
    endloop
  endfacet
  facet normal -0.989821 -0.142315 0
    outer loop
      vertex -7 0 149.8
      vertex -6.71645 -1.97213 48
      vertex -6.71645 -1.97213 149.8
    endloop
  endfacet
  facet normal -0.909632 -0.415415 0
    outer loop
      vertex -6.71645 -1.97213 48
      vertex -5.88877 -3.78449 48
      vertex -6.71645 -1.97213 149.8
    endloop
  endfacet
  facet normal -0.909632 -0.415415 0
    outer loop
      vertex -6.71645 -1.97213 149.8
      vertex -5.88877 -3.78449 48
      vertex -5.88877 -3.78449 149.8
    endloop
  endfacet
  facet normal -0.755749 -0.654861 0
    outer loop
      vertex -5.88877 -3.78449 48
      vertex -4.58402 -5.29025 48
      vertex -5.88877 -3.78449 149.8
    endloop
  endfacet
  facet normal -0.755749 -0.654861 0
    outer loop
      vertex -5.88877 -3.78449 149.8
      vertex -4.58402 -5.29025 48
      vertex -4.58402 -5.29025 149.8
    endloop
  endfacet
  facet normal -0.540641 -0.841254 0
    outer loop
      vertex -4.58402 -5.29025 149.8
      vertex -4.58402 -5.29025 48
      vertex -2.9079 -6.36742 48
    endloop
  endfacet
  facet normal -0.540641 -0.841254 0
    outer loop
      vertex -2.9079 -6.36742 149.8
      vertex -4.58402 -5.29025 149.8
      vertex -2.9079 -6.36742 48
    endloop
  endfacet
  facet normal -0.281733 -0.959493 0
    outer loop
      vertex -2.9079 -6.36742 149.8
      vertex -2.9079 -6.36742 48
      vertex -0.996204 -6.92875 48
    endloop
  endfacet
  facet normal -0.281733 -0.959493 0
    outer loop
      vertex -0.996204 -6.92875 149.8
      vertex -2.9079 -6.36742 149.8
      vertex -0.996204 -6.92875 48
    endloop
  endfacet
  facet normal 0 -1 0
    outer loop
      vertex -0.996204 -6.92875 149.8
      vertex -0.996204 -6.92875 48
      vertex 0.996204 -6.92875 48
    endloop
  endfacet
  facet normal 0 -1 0
    outer loop
      vertex 0.996204 -6.92875 149.8
      vertex -0.996204 -6.92875 149.8
      vertex 0.996204 -6.92875 48
    endloop
  endfacet
  facet normal 0.281733 -0.959493 0
    outer loop
      vertex 0.996204 -6.92875 149.8
      vertex 0.996204 -6.92875 48
      vertex 2.9079 -6.36742 48
    endloop
  endfacet
  facet normal 0.281733 -0.959493 0
    outer loop
      vertex 2.9079 -6.36742 149.8
      vertex 0.996204 -6.92875 149.8
      vertex 2.9079 -6.36742 48
    endloop
  endfacet
  facet normal 0.540641 -0.841254 0
    outer loop
      vertex 2.9079 -6.36742 149.8
      vertex 2.9079 -6.36742 48
      vertex 4.58402 -5.29025 48
    endloop
  endfacet
  facet normal 0.540641 -0.841254 0
    outer loop
      vertex 4.58402 -5.29025 149.8
      vertex 2.9079 -6.36742 149.8
      vertex 4.58402 -5.29025 48
    endloop
  endfacet
  facet normal 0.755749 -0.654861 0
    outer loop
      vertex 4.58402 -5.29025 149.8
      vertex 4.58402 -5.29025 48
      vertex 5.88877 -3.78449 48
    endloop
  endfacet
  facet normal 0.755749 -0.654861 0
    outer loop
      vertex 5.88877 -3.78449 149.8
      vertex 4.58402 -5.29025 149.8
      vertex 5.88877 -3.78449 48
    endloop
  endfacet
  facet normal 0.909632 -0.415415 0
    outer loop
      vertex 5.88877 -3.78449 149.8
      vertex 5.88877 -3.78449 48
      vertex 6.71645 -1.97213 48
    endloop
  endfacet
  facet normal 0.909632 -0.415415 0
    outer loop
      vertex 6.71645 -1.97213 149.8
      vertex 5.88877 -3.78449 149.8
      vertex 6.71645 -1.97213 48
    endloop
  endfacet
  facet normal 0.989821 -0.142315 0
    outer loop
      vertex 6.71645 -1.97213 149.8
      vertex 6.71645 -1.97213 48
      vertex 7 0 48
    endloop
  endfacet
  facet normal 0.989821 -0.142315 0
    outer loop
      vertex 7 0 149.8
      vertex 6.71645 -1.97213 149.8
      vertex 7 0 48
    endloop
  endfacet
  facet normal 0.989821 0.142315 0
    outer loop
      vertex 7 0 48
      vertex 6.71645 1.97213 48
      vertex 6.71645 1.97213 149.8
    endloop
  endfacet
  facet normal 0.989821 0.142315 0
    outer loop
      vertex 7 0 149.8
      vertex 7 0 48
      vertex 6.71645 1.97213 149.8
    endloop
  endfacet
  facet normal 0.909632 0.415415 0
    outer loop
      vertex 6.71645 1.97213 48
      vertex 5.88877 3.78449 48
      vertex 5.88877 3.78449 149.8
    endloop
  endfacet
  facet normal 0.909632 0.415415 0
    outer loop
      vertex 6.71645 1.97213 149.8
      vertex 6.71645 1.97213 48
      vertex 5.88877 3.78449 149.8
    endloop
  endfacet
  facet normal 0.755749 0.654861 0
    outer loop
      vertex 5.88877 3.78449 48
      vertex 4.58402 5.29025 48
      vertex 4.58402 5.29025 149.8
    endloop
  endfacet
  facet normal 0.755749 0.654861 0
    outer loop
      vertex 5.88877 3.78449 149.8
      vertex 5.88877 3.78449 48
      vertex 4.58402 5.29025 149.8
    endloop
  endfacet
  facet normal 0.540641 0.841254 0
    outer loop
      vertex 2.9079 6.36742 48
      vertex 2.9079 6.36742 149.8
      vertex 4.58402 5.29025 48
    endloop
  endfacet
  facet normal 0.540641 0.841254 0
    outer loop
      vertex 4.58402 5.29025 48
      vertex 2.9079 6.36742 149.8
      vertex 4.58402 5.29025 149.8
    endloop
  endfacet
  facet normal 0.281733 0.959493 0
    outer loop
      vertex 0.996204 6.92875 48
      vertex 0.996204 6.92875 149.8
      vertex 2.9079 6.36742 48
    endloop
  endfacet
  facet normal 0.281733 0.959493 0
    outer loop
      vertex 2.9079 6.36742 48
      vertex 0.996204 6.92875 149.8
      vertex 2.9079 6.36742 149.8
    endloop
  endfacet
  facet normal 0 1 0
    outer loop
      vertex -0.996204 6.92875 48
      vertex -0.996204 6.92875 149.8
      vertex 0.996204 6.92875 48
    endloop
  endfacet
  facet normal 0 1 0
    outer loop
      vertex 0.996204 6.92875 48
      vertex -0.996204 6.92875 149.8
      vertex 0.996204 6.92875 149.8
    endloop
  endfacet
  facet normal -0.281733 0.959493 0
    outer loop
      vertex -2.9079 6.36742 48
      vertex -2.9079 6.36742 149.8
      vertex -0.996204 6.92875 48
    endloop
  endfacet
  facet normal -0.281733 0.959493 0
    outer loop
      vertex -0.996204 6.92875 48
      vertex -2.9079 6.36742 149.8
      vertex -0.996204 6.92875 149.8
    endloop
  endfacet
  facet normal -0.540641 0.841254 0
    outer loop
      vertex -4.58402 5.29025 48
      vertex -4.58402 5.29025 149.8
      vertex -2.9079 6.36742 48
    endloop
  endfacet
  facet normal -0.540641 0.841254 0
    outer loop
      vertex -2.9079 6.36742 48
      vertex -4.58402 5.29025 149.8
      vertex -2.9079 6.36742 149.8
    endloop
  endfacet
  facet normal -0.755749 0.654861 0
    outer loop
      vertex -5.88877 3.78449 48
      vertex -5.88877 3.78449 149.8
      vertex -4.58402 5.29025 48
    endloop
  endfacet
  facet normal -0.755749 0.654861 0
    outer loop
      vertex -4.58402 5.29025 48
      vertex -5.88877 3.78449 149.8
      vertex -4.58402 5.29025 149.8
    endloop
  endfacet
  facet normal -0.909632 0.415415 0
    outer loop
      vertex -6.71645 1.97213 48
      vertex -6.71645 1.97213 149.8
      vertex -5.88877 3.78449 48
    endloop
  endfacet
  facet normal -0.909632 0.415415 0
    outer loop
      vertex -5.88877 3.78449 48
      vertex -6.71645 1.97213 149.8
      vertex -5.88877 3.78449 149.8
    endloop
  endfacet
  facet normal -0.989821 0.142315 0
    outer loop
      vertex -7 0 48
      vertex -7 0 149.8
      vertex -6.71645 1.97213 48
    endloop
  endfacet
  facet normal -0.989821 0.142315 0
    outer loop
      vertex -6.71645 1.97213 48
      vertex -7 0 149.8
      vertex -6.71645 1.97213 149.8
    endloop
  endfacet
  facet normal 0 -1 0
    outer loop
      vertex 13 7 1.5
      vertex 13 7 46.5
      vertex -13 7 46.5
    endloop
  endfacet
  facet normal 0 -1 0
    outer loop
      vertex -13 7 1.5
      vertex 13 7 1.5
      vertex -13 7 46.5
    endloop
  endfacet
  facet normal 1 -2.44929e-16 0
    outer loop
      vertex -6 1.46958e-15 46.5
      vertex -6 1.46958e-15 149.8
      vertex -6 -1 149.8
    endloop
  endfacet
  facet normal 1 -2.44929e-16 0
    outer loop
      vertex -6 -1 46.5
      vertex -6 1.46958e-15 46.5
      vertex -6 -1 149.8
    endloop
  endfacet
  facet normal 1 0 0
    outer loop
      vertex -6 1 46.5
      vertex -6 1 149.8
      vertex -6 1.46958e-15 149.8
    endloop
  endfacet
  facet normal 1 0 0
    outer loop
      vertex -6 1.46958e-15 46.5
      vertex -6 1 46.5
      vertex -6 1.46958e-15 149.8
    endloop
  endfacet
  facet normal -2.44929e-16 -1 0
    outer loop
      vertex -3.34927 1 46.5
      vertex -3.34927 1 149.8
      vertex -6 1 149.8
    endloop
  endfacet
  facet normal -2.44929e-16 -1 0
    outer loop
      vertex -6 1 46.5
      vertex -3.34927 1 46.5
      vertex -6 1 149.8
    endloop
  endfacet
  facet normal 0.841254 -0.54064 0
    outer loop
      vertex -2.98345 1.56923 46.5
      vertex -2.98345 1.56923 149.8
      vertex -3.34927 1 149.8
    endloop
  endfacet
  facet normal 0.841254 -0.54064 0
    outer loop
      vertex -3.34927 1 46.5
      vertex -2.98345 1.56923 46.5
      vertex -3.34927 1 149.8
    endloop
  endfacet
  facet normal 0.707107 0.707107 0
    outer loop
      vertex -4.94975 3.53553 149.8
      vertex -2.98345 1.56923 149.8
      vertex -2.98345 1.56923 46.5
    endloop
  endfacet
  facet normal 0.707107 0.707107 0
    outer loop
      vertex -4.94975 3.53553 46.5
      vertex -4.94975 3.53553 149.8
      vertex -2.98345 1.56923 46.5
    endloop
  endfacet
  facet normal 0.707107 -0.707107 0
    outer loop
      vertex -3.53553 4.94975 46.5
      vertex -3.53553 4.94975 149.8
      vertex -4.94975 3.53553 149.8
    endloop
  endfacet
  facet normal 0.707107 -0.707107 0
    outer loop
      vertex -4.94975 3.53553 46.5
      vertex -3.53553 4.94975 46.5
      vertex -4.94975 3.53553 149.8
    endloop
  endfacet
  facet normal -0.707107 -0.707107 0
    outer loop
      vertex -1.56358 2.97779 149.8
      vertex -3.53553 4.94975 149.8
      vertex -1.56358 2.97779 46.5
    endloop
  endfacet
  facet normal -0.707107 -0.707107 0
    outer loop
      vertex -1.56358 2.97779 46.5
      vertex -3.53553 4.94975 149.8
      vertex -3.53553 4.94975 46.5
    endloop
  endfacet
  facet normal 0.415415 -0.909632 0
    outer loop
      vertex -1 3.23517 46.5
      vertex -1 3.23517 149.8
      vertex -1.56358 2.97779 149.8
    endloop
  endfacet
  facet normal 0.415415 -0.909632 0
    outer loop
      vertex -1.56358 2.97779 46.5
      vertex -1 3.23517 46.5
      vertex -1.56358 2.97779 149.8
    endloop
  endfacet
  facet normal 1 -2.22045e-16 0
    outer loop
      vertex -1 6 46.5
      vertex -1 6 149.8
      vertex -1 3.23517 149.8
    endloop
  endfacet
  facet normal 1 -2.22045e-16 0
    outer loop
      vertex -1 3.23517 46.5
      vertex -1 6 46.5
      vertex -1 3.23517 149.8
    endloop
  endfacet
  facet normal -2.22045e-16 -1 0
    outer loop
      vertex 1 6 46.5
      vertex 1 6 149.8
      vertex -1 6 149.8
    endloop
  endfacet
  facet normal -2.22045e-16 -1 0
    outer loop
      vertex -1 6 46.5
      vertex 1 6 46.5
      vertex -1 6 149.8
    endloop
  endfacet
  facet normal -1 2.22045e-16 0
    outer loop
      vertex 1 6 149.8
      vertex 1 6 46.5
      vertex 1 3.24898 149.8
    endloop
  endfacet
  facet normal -1 2.22045e-16 0
    outer loop
      vertex 1 3.24898 149.8
      vertex 1 6 46.5
      vertex 1 3.24898 46.5
    endloop
  endfacet
  facet normal -0.142315 -0.989821 0
    outer loop
      vertex 1.45395 3.18371 46.5
      vertex 1.45395 3.18371 149.8
      vertex 1 3.24898 149.8
    endloop
  endfacet
  facet normal -0.142315 -0.989821 0
    outer loop
      vertex 1 3.24898 46.5
      vertex 1.45395 3.18371 46.5
      vertex 1 3.24898 149.8
    endloop
  endfacet
  facet normal -0.654861 -0.755749 0
    outer loop
      vertex 1.62301 3.03722 46.5
      vertex 1.62301 3.03722 149.8
      vertex 1.45395 3.18371 149.8
    endloop
  endfacet
  facet normal -0.654861 -0.755749 0
    outer loop
      vertex 1.45395 3.18371 46.5
      vertex 1.62301 3.03722 46.5
      vertex 1.45395 3.18371 149.8
    endloop
  endfacet
  facet normal 0.707107 -0.707107 0
    outer loop
      vertex 3.53553 4.94975 46.5
      vertex 3.53553 4.94975 149.8
      vertex 1.62301 3.03722 149.8
    endloop
  endfacet
  facet normal 0.707107 -0.707107 0
    outer loop
      vertex 1.62301 3.03722 46.5
      vertex 3.53553 4.94975 46.5
      vertex 1.62301 3.03722 149.8
    endloop
  endfacet
  facet normal -0.707107 -0.707107 0
    outer loop
      vertex 4.94975 3.53553 46.5
      vertex 4.94975 3.53553 149.8
      vertex 3.53553 4.94975 149.8
    endloop
  endfacet
  facet normal -0.707107 -0.707107 0
    outer loop
      vertex 3.53553 4.94975 46.5
      vertex 4.94975 3.53553 46.5
      vertex 3.53553 4.94975 149.8
    endloop
  endfacet
  facet normal -0.707107 0.707107 0
    outer loop
      vertex 4.94975 3.53553 149.8
      vertex 4.94975 3.53553 46.5
      vertex 3.02657 1.61236 149.8
    endloop
  endfacet
  facet normal -0.707107 0.707107 0
    outer loop
      vertex 3.02657 1.61236 149.8
      vertex 4.94975 3.53553 46.5
      vertex 3.02657 1.61236 46.5
    endloop
  endfacet
  facet normal -0.959493 -0.281733 0
    outer loop
      vertex 3.20637 1 149.8
      vertex 3.02657 1.61236 149.8
      vertex 3.20637 1 46.5
    endloop
  endfacet
  facet normal -0.959493 -0.281733 0
    outer loop
      vertex 3.20637 1 46.5
      vertex 3.02657 1.61236 149.8
      vertex 3.02657 1.61236 46.5
    endloop
  endfacet
  facet normal 0 -1 0
    outer loop
      vertex 6 1 46.5
      vertex 6 1 149.8
      vertex 3.20637 1 149.8
    endloop
  endfacet
  facet normal 0 -1 0
    outer loop
      vertex 3.20637 1 46.5
      vertex 6 1 46.5
      vertex 3.20637 1 149.8
    endloop
  endfacet
  facet normal -1 2.44929e-16 0
    outer loop
      vertex 6 1 149.8
      vertex 6 1 46.5
      vertex 6 -1.46958e-15 149.8
    endloop
  endfacet
  facet normal -1 2.44929e-16 0
    outer loop
      vertex 6 -1.46958e-15 149.8
      vertex 6 1 46.5
      vertex 6 -1.46958e-15 46.5
    endloop
  endfacet
  facet normal -1 0 0
    outer loop
      vertex 6 -1.46958e-15 149.8
      vertex 6 -1.46958e-15 46.5
      vertex 6 -1 149.8
    endloop
  endfacet
  facet normal -1 0 0
    outer loop
      vertex 6 -1 149.8
      vertex 6 -1.46958e-15 46.5
      vertex 6 -1 46.5
    endloop
  endfacet
  facet normal 2.44929e-16 1 0
    outer loop
      vertex 6 -1 149.8
      vertex 6 -1 46.5
      vertex 3.20637 -1 149.8
    endloop
  endfacet
  facet normal 2.44929e-16 1 0
    outer loop
      vertex 3.20637 -1 149.8
      vertex 6 -1 46.5
      vertex 3.20637 -1 46.5
    endloop
  endfacet
  facet normal -0.959493 0.281733 0
    outer loop
      vertex 3.20637 -1 149.8
      vertex 3.20637 -1 46.5
      vertex 3.02657 -1.61236 149.8
    endloop
  endfacet
  facet normal -0.959493 0.281733 0
    outer loop
      vertex 3.02657 -1.61236 149.8
      vertex 3.20637 -1 46.5
      vertex 3.02657 -1.61236 46.5
    endloop
  endfacet
  facet normal -0.707107 -0.707107 0
    outer loop
      vertex 4.94975 -3.53553 149.8
      vertex 3.02657 -1.61236 149.8
      vertex 4.94975 -3.53553 46.5
    endloop
  endfacet
  facet normal -0.707107 -0.707107 0
    outer loop
      vertex 4.94975 -3.53553 46.5
      vertex 3.02657 -1.61236 149.8
      vertex 3.02657 -1.61236 46.5
    endloop
  endfacet
  facet normal -0.707107 0.707107 0
    outer loop
      vertex 4.94975 -3.53553 149.8
      vertex 4.94975 -3.53553 46.5
      vertex 3.53553 -4.94975 149.8
    endloop
  endfacet
  facet normal -0.707107 0.707107 0
    outer loop
      vertex 3.53553 -4.94975 149.8
      vertex 4.94975 -3.53553 46.5
      vertex 3.53553 -4.94975 46.5
    endloop
  endfacet
  facet normal 0.707107 0.707107 0
    outer loop
      vertex 1.62301 -3.03722 149.8
      vertex 3.53553 -4.94975 149.8
      vertex 3.53553 -4.94975 46.5
    endloop
  endfacet
  facet normal 0.707107 0.707107 0
    outer loop
      vertex 1.62301 -3.03722 46.5
      vertex 1.62301 -3.03722 149.8
      vertex 3.53553 -4.94975 46.5
    endloop
  endfacet
  facet normal -0.654861 0.755749 0
    outer loop
      vertex 1.62301 -3.03722 149.8
      vertex 1.62301 -3.03722 46.5
      vertex 1.45395 -3.18371 149.8
    endloop
  endfacet
  facet normal -0.654861 0.755749 0
    outer loop
      vertex 1.45395 -3.18371 149.8
      vertex 1.62301 -3.03722 46.5
      vertex 1.45395 -3.18371 46.5
    endloop
  endfacet
  facet normal -0.142315 0.989821 0
    outer loop
      vertex 1.45395 -3.18371 149.8
      vertex 1.45395 -3.18371 46.5
      vertex 1 -3.24898 149.8
    endloop
  endfacet
  facet normal -0.142315 0.989821 0
    outer loop
      vertex 1 -3.24898 149.8
      vertex 1.45395 -3.18371 46.5
      vertex 1 -3.24898 46.5
    endloop
  endfacet
  facet normal -1 2.22045e-16 0
    outer loop
      vertex 1 -3.24898 149.8
      vertex 1 -3.24898 46.5
      vertex 1 -6 149.8
    endloop
  endfacet
  facet normal -1 2.22045e-16 0
    outer loop
      vertex 1 -6 149.8
      vertex 1 -3.24898 46.5
      vertex 1 -6 46.5
    endloop
  endfacet
  facet normal 2.22045e-16 1 0
    outer loop
      vertex 1 -6 149.8
      vertex 1 -6 46.5
      vertex -1 -6 149.8
    endloop
  endfacet
  facet normal 2.22045e-16 1 0
    outer loop
      vertex -1 -6 149.8
      vertex 1 -6 46.5
      vertex -1 -6 46.5
    endloop
  endfacet
  facet normal 1 -2.22045e-16 0
    outer loop
      vertex -1 -3.23517 46.5
      vertex -1 -3.23517 149.8
      vertex -1 -6 149.8
    endloop
  endfacet
  facet normal 1 -2.22045e-16 0
    outer loop
      vertex -1 -6 46.5
      vertex -1 -3.23517 46.5
      vertex -1 -6 149.8
    endloop
  endfacet
  facet normal 0.415415 0.909632 0
    outer loop
      vertex -1 -3.23517 149.8
      vertex -1 -3.23517 46.5
      vertex -1.56358 -2.97779 149.8
    endloop
  endfacet
  facet normal 0.415415 0.909632 0
    outer loop
      vertex -1.56358 -2.97779 149.8
      vertex -1 -3.23517 46.5
      vertex -1.56358 -2.97779 46.5
    endloop
  endfacet
  facet normal -0.707107 0.707107 0
    outer loop
      vertex -1.56358 -2.97779 149.8
      vertex -1.56358 -2.97779 46.5
      vertex -3.53553 -4.94975 149.8
    endloop
  endfacet
  facet normal -0.707107 0.707107 0
    outer loop
      vertex -3.53553 -4.94975 149.8
      vertex -1.56358 -2.97779 46.5
      vertex -3.53553 -4.94975 46.5
    endloop
  endfacet
  facet normal 0.707107 0.707107 0
    outer loop
      vertex -3.53553 -4.94975 149.8
      vertex -3.53553 -4.94975 46.5
      vertex -4.94975 -3.53553 149.8
    endloop
  endfacet
  facet normal 0.707107 0.707107 0
    outer loop
      vertex -4.94975 -3.53553 149.8
      vertex -3.53553 -4.94975 46.5
      vertex -4.94975 -3.53553 46.5
    endloop
  endfacet
  facet normal 0.707107 -0.707107 0
    outer loop
      vertex -2.98345 -1.56923 46.5
      vertex -2.98345 -1.56923 149.8
      vertex -4.94975 -3.53553 149.8
    endloop
  endfacet
  facet normal 0.707107 -0.707107 0
    outer loop
      vertex -4.94975 -3.53553 46.5
      vertex -2.98345 -1.56923 46.5
      vertex -4.94975 -3.53553 149.8
    endloop
  endfacet
  facet normal 0.841254 0.54064 0
    outer loop
      vertex -3.34927 -1 149.8
      vertex -2.98345 -1.56923 149.8
      vertex -2.98345 -1.56923 46.5
    endloop
  endfacet
  facet normal 0.841254 0.54064 0
    outer loop
      vertex -3.34927 -1 46.5
      vertex -3.34927 -1 149.8
      vertex -2.98345 -1.56923 46.5
    endloop
  endfacet
  facet normal 0 1 0
    outer loop
      vertex -3.34927 -1 149.8
      vertex -3.34927 -1 46.5
      vertex -6 -1 149.8
    endloop
  endfacet
  facet normal 0 1 0
    outer loop
      vertex -6 -1 149.8
      vertex -3.34927 -1 46.5
      vertex -6 -1 46.5
    endloop
  endfacet
  facet normal 0 0 1
    outer loop
      vertex -6.71645 1.97213 149.8
      vertex -7 0 149.8
      vertex -6.71645 -1.97213 149.8
    endloop
  endfacet
  facet normal 0 0 1
    outer loop
      vertex -6 -1 149.8
      vertex -6.71645 1.97213 149.8
      vertex -5.88877 -3.78449 149.8
    endloop
  endfacet
  facet normal 0 0 1
    outer loop
      vertex -5.88877 -3.78449 149.8
      vertex -6.71645 1.97213 149.8
      vertex -6.71645 -1.97213 149.8
    endloop
  endfacet
  facet normal 0 0 1
    outer loop
      vertex 1 6 149.8
      vertex 4.58402 5.29025 149.8
      vertex 2.9079 6.36742 149.8
    endloop
  endfacet
  facet normal 0 0 1
    outer loop
      vertex -1 3.23517 149.8
      vertex -1 6 149.8
      vertex -3.53553 4.94975 149.8
    endloop
  endfacet
  facet normal 0 0 1
    outer loop
      vertex 6 -1 149.8
      vertex 3.20637 -1 149.8
      vertex 6.71645 -1.97213 149.8
    endloop
  endfacet
  facet normal 0 0 1
    outer loop
      vertex -1.56358 -2.97779 149.8
      vertex -3.53553 -4.94975 149.8
      vertex -0.996204 -6.92875 149.8
    endloop
  endfacet
  facet normal 0 0 1
    outer loop
      vertex -3.34927 -1 149.8
      vertex -6 -1 149.8
      vertex -4.94975 -3.53553 149.8
    endloop
  endfacet
  facet normal 0 0 1
    outer loop
      vertex -3.53553 4.94975 149.8
      vertex -1 6 149.8
      vertex -0.996204 6.92875 149.8
    endloop
  endfacet
  facet normal 0 0 1
    outer loop
      vertex -4.58402 5.29025 149.8
      vertex -6.71645 1.97213 149.8
      vertex -2.9079 6.36742 149.8
    endloop
  endfacet
  facet normal 0 0 1
    outer loop
      vertex -5.88877 3.78449 149.8
      vertex -6.71645 1.97213 149.8
      vertex -4.58402 5.29025 149.8
    endloop
  endfacet
  facet normal 0 0 1
    outer loop
      vertex -1 -6 149.8
      vertex -1 -3.23517 149.8
      vertex -1.56358 -2.97779 149.8
    endloop
  endfacet
  facet normal 0 0 1
    outer loop
      vertex 3.02657 -1.61236 149.8
      vertex 4.94975 -3.53553 149.8
      vertex 5.88877 -3.78449 149.8
    endloop
  endfacet
  facet normal 0 0 1
    outer loop
      vertex 3.53553 4.94975 149.8
      vertex 4.94975 3.53553 149.8
      vertex 5.88877 3.78449 149.8
    endloop
  endfacet
  facet normal 0 0 1
    outer loop
      vertex -3.34927 -1 149.8
      vertex -4.94975 -3.53553 149.8
      vertex -2.98345 -1.56923 149.8
    endloop
  endfacet
  facet normal 0 0 1
    outer loop
      vertex -2.9079 6.36742 149.8
      vertex -6.71645 1.97213 149.8
      vertex -4.94975 3.53553 149.8
    endloop
  endfacet
  facet normal 0 0 1
    outer loop
      vertex -2.9079 6.36742 149.8
      vertex -3.53553 4.94975 149.8
      vertex -0.996204 6.92875 149.8
    endloop
  endfacet
  facet normal 0 0 1
    outer loop
      vertex -2.9079 6.36742 149.8
      vertex -4.94975 3.53553 149.8
      vertex -3.53553 4.94975 149.8
    endloop
  endfacet
  facet normal 0 0 1
    outer loop
      vertex -4.94975 -3.53553 149.8
      vertex -6 -1 149.8
      vertex -4.58402 -5.29025 149.8
    endloop
  endfacet
  facet normal 0 0 1
    outer loop
      vertex 1.45395 3.18371 149.8
      vertex 1 6 149.8
      vertex 1 3.24898 149.8
    endloop
  endfacet
  facet normal 0 0 1
    outer loop
      vertex 3.53553 4.94975 149.8
      vertex 5.88877 3.78449 149.8
      vertex 4.58402 5.29025 149.8
    endloop
  endfacet
  facet normal 0 0 1
    outer loop
      vertex 1.62301 3.03722 149.8
      vertex 1 6 149.8
      vertex 1.45395 3.18371 149.8
    endloop
  endfacet
  facet normal 0 0 1
    outer loop
      vertex 1 6 149.8
      vertex 3.53553 4.94975 149.8
      vertex 4.58402 5.29025 149.8
    endloop
  endfacet
  facet normal 0 0 1
    outer loop
      vertex -0.996204 6.92875 149.8
      vertex -1 6 149.8
      vertex 0.996204 6.92875 149.8
    endloop
  endfacet
  facet normal 0 0 1
    outer loop
      vertex 0.996204 6.92875 149.8
      vertex 1 6 149.8
      vertex 2.9079 6.36742 149.8
    endloop
  endfacet
  facet normal 0 0 1
    outer loop
      vertex -1 6 149.8
      vertex 1 6 149.8
      vertex 0.996204 6.92875 149.8
    endloop
  endfacet
  facet normal 0 0 1
    outer loop
      vertex -3.53553 4.94975 149.8
      vertex -1.56358 2.97779 149.8
      vertex -1 3.23517 149.8
    endloop
  endfacet
  facet normal 0 0 1
    outer loop
      vertex 3.20637 1 149.8
      vertex 6 1 149.8
      vertex 3.02657 1.61236 149.8
    endloop
  endfacet
  facet normal 0 0 1
    outer loop
      vertex 1.62301 3.03722 149.8
      vertex 3.53553 4.94975 149.8
      vertex 1 6 149.8
    endloop
  endfacet
  facet normal 0 0 1
    outer loop
      vertex 5.88877 3.78449 149.8
      vertex 4.94975 3.53553 149.8
      vertex 6.71645 1.97213 149.8
    endloop
  endfacet
  facet normal 0 0 1
    outer loop
      vertex 4.94975 -3.53553 149.8
      vertex 3.53553 -4.94975 149.8
      vertex 4.58402 -5.29025 149.8
    endloop
  endfacet
  facet normal 0 0 1
    outer loop
      vertex 6.71645 1.97213 149.8
      vertex 6 1 149.8
      vertex 7 0 149.8
    endloop
  endfacet
  facet normal 0 0 1
    outer loop
      vertex 6.71645 1.97213 149.8
      vertex 3.02657 1.61236 149.8
      vertex 6 1 149.8
    endloop
  endfacet
  facet normal 0 0 1
    outer loop
      vertex 7 0 149.8
      vertex 6 -1.46958e-15 149.8
      vertex 6.71645 -1.97213 149.8
    endloop
  endfacet
  facet normal 0 0 1
    outer loop
      vertex 6 -1.46958e-15 149.8
      vertex 6 -1 149.8
      vertex 6.71645 -1.97213 149.8
    endloop
  endfacet
  facet normal 0 0 1
    outer loop
      vertex 6.71645 -1.97213 149.8
      vertex 3.20637 -1 149.8
      vertex 5.88877 -3.78449 149.8
    endloop
  endfacet
  facet normal 0 0 1
    outer loop
      vertex -3.34927 1 149.8
      vertex -2.98345 1.56923 149.8
      vertex -6.71645 1.97213 149.8
    endloop
  endfacet
  facet normal 0 0 1
    outer loop
      vertex 3.20637 -1 149.8
      vertex 3.02657 -1.61236 149.8
      vertex 5.88877 -3.78449 149.8
    endloop
  endfacet
  facet normal 0 0 1
    outer loop
      vertex 5.88877 -3.78449 149.8
      vertex 4.94975 -3.53553 149.8
      vertex 4.58402 -5.29025 149.8
    endloop
  endfacet
  facet normal 0 0 1
    outer loop
      vertex 6 1 149.8
      vertex 6 -1.46958e-15 149.8
      vertex 7 0 149.8
    endloop
  endfacet
  facet normal 0 0 1
    outer loop
      vertex 4.58402 -5.29025 149.8
      vertex 3.53553 -4.94975 149.8
      vertex 2.9079 -6.36742 149.8
    endloop
  endfacet
  facet normal 0 0 1
    outer loop
      vertex 4.94975 3.53553 149.8
      vertex 3.02657 1.61236 149.8
      vertex 6.71645 1.97213 149.8
    endloop
  endfacet
  facet normal 0 0 1
    outer loop
      vertex 1 -3.24898 149.8
      vertex 1 -6 149.8
      vertex 2.9079 -6.36742 149.8
    endloop
  endfacet
  facet normal 0 0 1
    outer loop
      vertex 1 -6 149.8
      vertex -1 -6 149.8
      vertex 0.996204 -6.92875 149.8
    endloop
  endfacet
  facet normal 0 0 1
    outer loop
      vertex 3.53553 -4.94975 149.8
      vertex 1 -3.24898 149.8
      vertex 2.9079 -6.36742 149.8
    endloop
  endfacet
  facet normal 0 0 1
    outer loop
      vertex 2.9079 -6.36742 149.8
      vertex 1 -6 149.8
      vertex 0.996204 -6.92875 149.8
    endloop
  endfacet
  facet normal 0 0 1
    outer loop
      vertex 0.996204 -6.92875 149.8
      vertex -1 -6 149.8
      vertex -0.996204 -6.92875 149.8
    endloop
  endfacet
  facet normal 0 0 1
    outer loop
      vertex -3.53553 -4.94975 149.8
      vertex -4.94975 -3.53553 149.8
      vertex -2.9079 -6.36742 149.8
    endloop
  endfacet
  facet normal 0 0 1
    outer loop
      vertex -2.98345 1.56923 149.8
      vertex -4.94975 3.53553 149.8
      vertex -6.71645 1.97213 149.8
    endloop
  endfacet
  facet normal 0 0 1
    outer loop
      vertex -0.996204 -6.92875 149.8
      vertex -3.53553 -4.94975 149.8
      vertex -2.9079 -6.36742 149.8
    endloop
  endfacet
  facet normal 0 0 1
    outer loop
      vertex -2.9079 -6.36742 149.8
      vertex -4.94975 -3.53553 149.8
      vertex -4.58402 -5.29025 149.8
    endloop
  endfacet
  facet normal 0 0 1
    outer loop
      vertex -4.58402 -5.29025 149.8
      vertex -6 -1 149.8
      vertex -5.88877 -3.78449 149.8
    endloop
  endfacet
  facet normal 0 0 1
    outer loop
      vertex -6 -1 149.8
      vertex -6 1.46958e-15 149.8
      vertex -6.71645 1.97213 149.8
    endloop
  endfacet
  facet normal 0 0 1
    outer loop
      vertex -6 1.46958e-15 149.8
      vertex -6 1 149.8
      vertex -6.71645 1.97213 149.8
    endloop
  endfacet
  facet normal 0 0 1
    outer loop
      vertex 3.53553 -4.94975 149.8
      vertex 1.62301 -3.03722 149.8
      vertex 1.45395 -3.18371 149.8
    endloop
  endfacet
  facet normal 0 0 1
    outer loop
      vertex 1.45395 -3.18371 149.8
      vertex 1 -3.24898 149.8
      vertex 3.53553 -4.94975 149.8
    endloop
  endfacet
  facet normal 0 0 1
    outer loop
      vertex -1.56358 -2.97779 149.8
      vertex -0.996204 -6.92875 149.8
      vertex -1 -6 149.8
    endloop
  endfacet
  facet normal 0 0 1
    outer loop
      vertex -6 1 149.8
      vertex -3.34927 1 149.8
      vertex -6.71645 1.97213 149.8
    endloop
  endfacet
endsolid OpenSCAD_Model
