solid OpenSCAD_Model
  facet normal -1 0 0
    outer loop
      vertex -46.75 31.9054 2.46963
      vertex -46.75 50.5 0
      vertex -46.75 30 2
    endloop
  endfacet
  facet normal -1 0 0
    outer loop
      vertex -46.75 30.9812 10.0809
      vertex -46.75 5 11
      vertex -46.75 50.5 11
    endloop
  endfacet
  facet normal -1 0 0
    outer loop
      vertex -46.75 5 0
      vertex -46.75 5 11
      vertex -46.75 25.9299 5.6058
    endloop
  endfacet
  facet normal -1 0 0
    outer loop
      vertex -46.75 5 0
      vertex -46.75 25.9299 5.6058
      vertex -46.75 26.6258 3.77094
    endloop
  endfacet
  facet normal -1 0 0
    outer loop
      vertex -46.75 5 0
      vertex -46.75 26.6258 3.77094
      vertex -46.75 28.0946 2.46963
    endloop
  endfacet
  facet normal -1 0 0
    outer loop
      vertex -46.75 5 0
      vertex -46.75 28.0946 2.46963
      vertex -46.75 30 2
    endloop
  endfacet
  facet normal -1 0 0
    outer loop
      vertex -46.75 5 0
      vertex -46.75 30 2
      vertex -46.75 50.5 0
    endloop
  endfacet
  facet normal -1 0 0
    outer loop
      vertex -46.75 33.3742 3.77094
      vertex -46.75 50.5 0
      vertex -46.75 31.9054 2.46963
    endloop
  endfacet
  facet normal -1 0 0
    outer loop
      vertex -46.75 34.0701 5.6058
      vertex -46.75 50.5 0
      vertex -46.75 33.3742 3.77094
    endloop
  endfacet
  facet normal -1 0 0
    outer loop
      vertex -46.75 32.7188 9.16889
      vertex -46.75 50.5 11
      vertex -46.75 33.8336 7.55388
    endloop
  endfacet
  facet normal -1 0 0
    outer loop
      vertex -46.75 50.5 0
      vertex -46.75 34.0701 5.6058
      vertex -46.75 50.5 11
    endloop
  endfacet
  facet normal -1 0 0
    outer loop
      vertex -46.75 34.0701 5.6058
      vertex -46.75 33.8336 7.55388
      vertex -46.75 50.5 11
    endloop
  endfacet
  facet normal -1 0 0
    outer loop
      vertex -46.75 27.2812 9.16889
      vertex -46.75 5 11
      vertex -46.75 29.0188 10.0809
    endloop
  endfacet
  facet normal -1 0 0
    outer loop
      vertex -46.75 29.0188 10.0809
      vertex -46.75 5 11
      vertex -46.75 30.9812 10.0809
    endloop
  endfacet
  facet normal -1 0 0
    outer loop
      vertex -46.75 32.7188 9.16889
      vertex -46.75 30.9812 10.0809
      vertex -46.75 50.5 11
    endloop
  endfacet
  facet normal -1 0 0
    outer loop
      vertex -46.75 26.1664 7.55388
      vertex -46.75 5 11
      vertex -46.75 27.2812 9.16889
    endloop
  endfacet
  facet normal -1 0 0
    outer loop
      vertex -46.75 25.9299 5.6058
      vertex -46.75 5 11
      vertex -46.75 26.1664 7.55388
    endloop
  endfacet
  facet normal 0 -1 0
    outer loop
      vertex -46.75 5 11
      vertex -46.75 5 0
      vertex -27.25 5 0
    endloop
  endfacet
  facet normal 0 -1 0
    outer loop
      vertex -27.25 5 11
      vertex -46.75 5 11
      vertex -27.25 5 0
    endloop
  endfacet
  facet normal 0 0 -1
    outer loop
      vertex -32 18.5 0
      vertex -40.6283 11.72 0
      vertex -42 18.5 0
    endloop
  endfacet
  facet normal 0 0 -1
    outer loop
      vertex -42 41.5 0
      vertex -46.75 50.5 0
      vertex -27.25 50.5 0
    endloop
  endfacet
  facet normal 0 0 -1
    outer loop
      vertex -46.75 5 0
      vertex -46.75 50.5 0
      vertex -43.9821 10.9545 0
    endloop
  endfacet
  facet normal 0 0 -1
    outer loop
      vertex -46.75 5 0
      vertex -43.9821 10.9545 0
      vertex -43.9821 9.04546 0
    endloop
  endfacet
  facet normal 0 0 -1
    outer loop
      vertex -46.75 5 0
      vertex -43.9821 9.04546 0
      vertex -42.4895 7.85516 0
    endloop
  endfacet
  facet normal 0 0 -1
    outer loop
      vertex -46.75 5 0
      vertex -42.4895 7.85516 0
      vertex -27.25 5 0
    endloop
  endfacet
  facet normal 0 0 -1
    outer loop
      vertex -39.8 10 0
      vertex -27.25 5 0
      vertex -40.6283 8.27997 0
    endloop
  endfacet
  facet normal 0 0 -1
    outer loop
      vertex -32 18.5 0
      vertex -29.8 10 0
      vertex -30.6283 11.72 0
    endloop
  endfacet
  facet normal 0 0 -1
    outer loop
      vertex -42 18.5 0
      vertex -46.75 50.5 0
      vertex -42 41.5 0
    endloop
  endfacet
  facet normal 0 0 -1
    outer loop
      vertex -32 18.5 0
      vertex -27.25 5 0
      vertex -29.8 10 0
    endloop
  endfacet
  facet normal 0 0 -1
    outer loop
      vertex -43.9821 10.9545 0
      vertex -46.75 50.5 0
      vertex -42.4895 12.1448 0
    endloop
  endfacet
  facet normal 0 0 -1
    outer loop
      vertex -32 41.5 0
      vertex -42 41.5 0
      vertex -27.25 50.5 0
    endloop
  endfacet
  facet normal 0 0 -1
    outer loop
      vertex -42.4895 12.1448 0
      vertex -46.75 50.5 0
      vertex -42 18.5 0
    endloop
  endfacet
  facet normal 0 0 -1
    outer loop
      vertex -42.4895 12.1448 0
      vertex -42 18.5 0
      vertex -40.6283 11.72 0
    endloop
  endfacet
  facet normal 0 0 -1
    outer loop
      vertex -30.6283 8.27997 0
      vertex -27.25 5 0
      vertex -32.4895 7.85516 0
    endloop
  endfacet
  facet normal 0 0 -1
    outer loop
      vertex -27.25 5 0
      vertex -32 18.5 0
      vertex -27.25 50.5 0
    endloop
  endfacet
  facet normal 0 0 -1
    outer loop
      vertex -32 18.5 0
      vertex -32 41.5 0
      vertex -27.25 50.5 0
    endloop
  endfacet
  facet normal 0 0 -1
    outer loop
      vertex -39.8 10 0
      vertex -33.9821 10.9545 0
      vertex -33.9821 9.04546 0
    endloop
  endfacet
  facet normal 0 0 -1
    outer loop
      vertex -39.8 10 0
      vertex -33.9821 9.04546 0
      vertex -32.4895 7.85516 0
    endloop
  endfacet
  facet normal 0 0 -1
    outer loop
      vertex -39.8 10 0
      vertex -32.4895 7.85516 0
      vertex -27.25 5 0
    endloop
  endfacet
  facet normal 0 0 -1
    outer loop
      vertex -32 18.5 0
      vertex -32.4895 12.1448 0
      vertex -33.9821 10.9545 0
    endloop
  endfacet
  facet normal 0 0 -1
    outer loop
      vertex -32.4895 12.1448 0
      vertex -32 18.5 0
      vertex -30.6283 11.72 0
    endloop
  endfacet
  facet normal 0 0 -1
    outer loop
      vertex -32 18.5 0
      vertex -39.8 10 0
      vertex -40.6283 11.72 0
    endloop
  endfacet
  facet normal 0 0 -1
    outer loop
      vertex -30.6283 8.27997 0
      vertex -29.8 10 0
      vertex -27.25 5 0
    endloop
  endfacet
  facet normal 0 0 -1
    outer loop
      vertex -32 18.5 0
      vertex -33.9821 10.9545 0
      vertex -39.8 10 0
    endloop
  endfacet
  facet normal 0 0 -1
    outer loop
      vertex -40.6283 8.27997 0
      vertex -27.25 5 0
      vertex -42.4895 7.85516 0
    endloop
  endfacet
  facet normal 0 1 0
    outer loop
      vertex -46.75 50.5 0
      vertex -46.75 50.5 11
      vertex -27.25 50.5 0
    endloop
  endfacet
  facet normal 0 1 0
    outer loop
      vertex -27.25 50.5 0
      vertex -46.75 50.5 11
      vertex -27.25 50.5 11
    endloop
  endfacet
  facet normal 0 0 1
    outer loop
      vertex -42.4895 7.85516 11
      vertex -46.75 5 11
      vertex -27.25 5 11
    endloop
  endfacet
  facet normal 0 0 1
    outer loop
      vertex -46.75 50.5 11
      vertex -46.75 5 11
      vertex -43.9821 9.04546 11
    endloop
  endfacet
  facet normal 0 0 1
    outer loop
      vertex -40.6283 8.27997 11
      vertex -42.4895 7.85516 11
      vertex -27.25 5 11
    endloop
  endfacet
  facet normal 0 0 1
    outer loop
      vertex -46.75 50.5 11
      vertex -43.9821 9.04546 11
      vertex -43.9821 10.9545 11
    endloop
  endfacet
  facet normal 0 0 1
    outer loop
      vertex -39.8 10 11
      vertex -40.6283 8.27997 11
      vertex -27.25 5 11
    endloop
  endfacet
  facet normal 0 0 1
    outer loop
      vertex -46.75 50.5 11
      vertex -43.9821 10.9545 11
      vertex -42.4895 12.1448 11
    endloop
  endfacet
  facet normal 0 0 1
    outer loop
      vertex -32.4895 7.85516 11
      vertex -40.6283 11.72 11
      vertex -27.25 5 11
    endloop
  endfacet
  facet normal 0 0 1
    outer loop
      vertex -42 18.5 11
      vertex -42.4895 12.1448 11
      vertex -40.6283 11.72 11
    endloop
  endfacet
  facet normal 0 0 1
    outer loop
      vertex -42 18.5 11
      vertex -42 41.5 11
      vertex -46.75 50.5 11
    endloop
  endfacet
  facet normal 0 0 1
    outer loop
      vertex -43.9821 9.04546 11
      vertex -46.75 5 11
      vertex -42.4895 7.85516 11
    endloop
  endfacet
  facet normal 0 0 1
    outer loop
      vertex -46.75 50.5 11
      vertex -42.4895 12.1448 11
      vertex -42 18.5 11
    endloop
  endfacet
  facet normal 0 0 1
    outer loop
      vertex -27.25 50.5 11
      vertex -46.75 50.5 11
      vertex -42 41.5 11
    endloop
  endfacet
  facet normal 0 0 1
    outer loop
      vertex -27.25 50.5 11
      vertex -32 41.5 11
      vertex -27.25 5 11
    endloop
  endfacet
  facet normal 0 0 1
    outer loop
      vertex -27.25 50.5 11
      vertex -42 41.5 11
      vertex -32 41.5 11
    endloop
  endfacet
  facet normal 0 0 1
    outer loop
      vertex -32 41.5 11
      vertex -32 18.5 11
      vertex -27.25 5 11
    endloop
  endfacet
  facet normal 0 0 1
    outer loop
      vertex -29.8 10 11
      vertex -30.6283 8.27997 11
      vertex -27.25 5 11
    endloop
  endfacet
  facet normal 0 0 1
    outer loop
      vertex -30.6283 8.27997 11
      vertex -32.4895 7.85516 11
      vertex -27.25 5 11
    endloop
  endfacet
  facet normal 0 0 1
    outer loop
      vertex -30.6283 11.72 11
      vertex -29.8 10 11
      vertex -27.25 5 11
    endloop
  endfacet
  facet normal 0 0 1
    outer loop
      vertex -33.9821 9.04546 11
      vertex -40.6283 11.72 11
      vertex -32.4895 7.85516 11
    endloop
  endfacet
  facet normal 0 0 1
    outer loop
      vertex -40.6283 11.72 11
      vertex -39.8 10 11
      vertex -27.25 5 11
    endloop
  endfacet
  facet normal 0 0 1
    outer loop
      vertex -32 18.5 11
      vertex -30.6283 11.72 11
      vertex -27.25 5 11
    endloop
  endfacet
  facet normal 0 0 1
    outer loop
      vertex -32 18.5 11
      vertex -32.4895 12.1448 11
      vertex -30.6283 11.72 11
    endloop
  endfacet
  facet normal 0 0 1
    outer loop
      vertex -32 18.5 11
      vertex -33.9821 10.9545 11
      vertex -32.4895 12.1448 11
    endloop
  endfacet
  facet normal 0 0 1
    outer loop
      vertex -33.9821 10.9545 11
      vertex -40.6283 11.72 11
      vertex -33.9821 9.04546 11
    endloop
  endfacet
  facet normal 0 0 1
    outer loop
      vertex -32 18.5 11
      vertex -40.6283 11.72 11
      vertex -33.9821 10.9545 11
    endloop
  endfacet
  facet normal 0 0 1
    outer loop
      vertex -32 18.5 11
      vertex -42 18.5 11
      vertex -40.6283 11.72 11
    endloop
  endfacet
  facet normal 2.67644e-17 0.992709 -0.120536
    outer loop
      vertex -42 26.1664 7.55388
      vertex -42 25.9299 5.6058
      vertex -46.75 26.1664 7.55388
    endloop
  endfacet
  facet normal 2.67644e-17 0.992709 -0.120536
    outer loop
      vertex -46.75 26.1664 7.55388
      vertex -42 25.9299 5.6058
      vertex -46.75 25.9299 5.6058
    endloop
  endfacet
  facet normal 1.26136e-16 0.822984 -0.568065
    outer loop
      vertex -42 27.2812 9.16889
      vertex -42 26.1664 7.55388
      vertex -46.75 27.2812 9.16889
    endloop
  endfacet
  facet normal 1.26136e-16 0.822984 -0.568065
    outer loop
      vertex -46.75 27.2812 9.16889
      vertex -42 26.1664 7.55388
      vertex -46.75 26.1664 7.55388
    endloop
  endfacet
  facet normal 1.96611e-16 0.464723 -0.885456
    outer loop
      vertex -42 29.0188 10.0809
      vertex -42 27.2812 9.16889
      vertex -46.75 29.0188 10.0809
    endloop
  endfacet
  facet normal 1.96611e-16 0.464723 -0.885456
    outer loop
      vertex -46.75 29.0188 10.0809
      vertex -42 27.2812 9.16889
      vertex -46.75 27.2812 9.16889
    endloop
  endfacet
  facet normal 2.22045e-16 0 -1
    outer loop
      vertex -42 30.9812 10.0809
      vertex -42 29.0188 10.0809
      vertex -46.75 30.9812 10.0809
    endloop
  endfacet
  facet normal 2.22045e-16 0 -1
    outer loop
      vertex -46.75 30.9812 10.0809
      vertex -42 29.0188 10.0809
      vertex -46.75 29.0188 10.0809
    endloop
  endfacet
  facet normal 1.96611e-16 -0.464723 -0.885456
    outer loop
      vertex -42 32.7188 9.16889
      vertex -42 30.9812 10.0809
      vertex -46.75 32.7188 9.16889
    endloop
  endfacet
  facet normal 1.96611e-16 -0.464723 -0.885456
    outer loop
      vertex -46.75 32.7188 9.16889
      vertex -42 30.9812 10.0809
      vertex -46.75 30.9812 10.0809
    endloop
  endfacet
  facet normal 1.26136e-16 -0.822984 -0.568065
    outer loop
      vertex -46.75 33.8336 7.55388
      vertex -42 33.8336 7.55388
      vertex -42 32.7188 9.16889
    endloop
  endfacet
  facet normal 1.26136e-16 -0.822984 -0.568065
    outer loop
      vertex -46.75 32.7188 9.16889
      vertex -46.75 33.8336 7.55388
      vertex -42 32.7188 9.16889
    endloop
  endfacet
  facet normal 2.67644e-17 -0.992709 -0.120536
    outer loop
      vertex -46.75 34.0701 5.6058
      vertex -42 34.0701 5.6058
      vertex -42 33.8336 7.55388
    endloop
  endfacet
  facet normal 2.67644e-17 -0.992709 -0.120536
    outer loop
      vertex -46.75 33.8336 7.55388
      vertex -46.75 34.0701 5.6058
      vertex -42 33.8336 7.55388
    endloop
  endfacet
  facet normal -7.87381e-17 -0.935016 0.354605
    outer loop
      vertex -42 33.3742 3.77094
      vertex -42 34.0701 5.6058
      vertex -46.75 34.0701 5.6058
    endloop
  endfacet
  facet normal -7.87381e-17 -0.935016 0.354605
    outer loop
      vertex -46.75 33.3742 3.77094
      vertex -42 33.3742 3.77094
      vertex -46.75 34.0701 5.6058
    endloop
  endfacet
  facet normal -1.66203e-16 -0.663123 0.748511
    outer loop
      vertex -42 31.9054 2.46963
      vertex -42 33.3742 3.77094
      vertex -46.75 33.3742 3.77094
    endloop
  endfacet
  facet normal -1.66203e-16 -0.663123 0.748511
    outer loop
      vertex -46.75 31.9054 2.46963
      vertex -42 31.9054 2.46963
      vertex -46.75 33.3742 3.77094
    endloop
  endfacet
  facet normal -2.15592e-16 -0.239316 0.970942
    outer loop
      vertex -42 30 2
      vertex -42 31.9054 2.46963
      vertex -46.75 31.9054 2.46963
    endloop
  endfacet
  facet normal -2.15592e-16 -0.239316 0.970942
    outer loop
      vertex -46.75 30 2
      vertex -42 30 2
      vertex -46.75 31.9054 2.46963
    endloop
  endfacet
  facet normal -2.15592e-16 0.239316 0.970942
    outer loop
      vertex -42 28.0946 2.46963
      vertex -42 30 2
      vertex -46.75 30 2
    endloop
  endfacet
  facet normal -2.15592e-16 0.239316 0.970942
    outer loop
      vertex -46.75 28.0946 2.46963
      vertex -42 28.0946 2.46963
      vertex -46.75 30 2
    endloop
  endfacet
  facet normal -1.66203e-16 0.663123 0.748511
    outer loop
      vertex -42 26.6258 3.77094
      vertex -42 28.0946 2.46963
      vertex -46.75 28.0946 2.46963
    endloop
  endfacet
  facet normal -1.66203e-16 0.663123 0.748511
    outer loop
      vertex -46.75 26.6258 3.77094
      vertex -42 26.6258 3.77094
      vertex -46.75 28.0946 2.46963
    endloop
  endfacet
  facet normal -7.87381e-17 0.935016 0.354605
    outer loop
      vertex -42 26.6258 3.77094
      vertex -46.75 26.6258 3.77094
      vertex -42 25.9299 5.6058
    endloop
  endfacet
  facet normal -7.87381e-17 0.935016 0.354605
    outer loop
      vertex -42 25.9299 5.6058
      vertex -46.75 26.6258 3.77094
      vertex -46.75 25.9299 5.6058
    endloop
  endfacet
  facet normal 1 0 0
    outer loop
      vertex -27.25 30 2
      vertex -27.25 5 0
      vertex -27.25 50.5 0
    endloop
  endfacet
  facet normal 1 0 0
    outer loop
      vertex -27.25 30.9812 10.0809
      vertex -27.25 32.7188 9.16889
      vertex -27.25 50.5 11
    endloop
  endfacet
  facet normal 1 0 0
    outer loop
      vertex -27.25 5 11
      vertex -27.25 5 0
      vertex -27.25 25.9299 5.6058
    endloop
  endfacet
  facet normal 1 0 0
    outer loop
      vertex -27.25 27.2812 9.16889
      vertex -27.25 5 11
      vertex -27.25 26.1664 7.55388
    endloop
  endfacet
  facet normal 1 0 0
    outer loop
      vertex -27.25 29.0188 10.0809
      vertex -27.25 5 11
      vertex -27.25 27.2812 9.16889
    endloop
  endfacet
  facet normal 1 0 0
    outer loop
      vertex -27.25 50.5 11
      vertex -27.25 5 11
      vertex -27.25 29.0188 10.0809
    endloop
  endfacet
  facet normal 1 0 0
    outer loop
      vertex -27.25 32.7188 9.16889
      vertex -27.25 33.8336 7.55388
      vertex -27.25 50.5 11
    endloop
  endfacet
  facet normal 1 0 0
    outer loop
      vertex -27.25 50.5 11
      vertex -27.25 29.0188 10.0809
      vertex -27.25 30.9812 10.0809
    endloop
  endfacet
  facet normal 1 0 0
    outer loop
      vertex -27.25 50.5 11
      vertex -27.25 33.8336 7.55388
      vertex -27.25 50.5 0
    endloop
  endfacet
  facet normal 1 0 0
    outer loop
      vertex -27.25 33.8336 7.55388
      vertex -27.25 34.0701 5.6058
      vertex -27.25 50.5 0
    endloop
  endfacet
  facet normal 1 0 0
    outer loop
      vertex -27.25 33.3742 3.77094
      vertex -27.25 31.9054 2.46963
      vertex -27.25 50.5 0
    endloop
  endfacet
  facet normal 1 0 0
    outer loop
      vertex -27.25 31.9054 2.46963
      vertex -27.25 30 2
      vertex -27.25 50.5 0
    endloop
  endfacet
  facet normal 1 0 0
    outer loop
      vertex -27.25 28.0946 2.46963
      vertex -27.25 26.6258 3.77094
      vertex -27.25 5 0
    endloop
  endfacet
  facet normal 1 0 0
    outer loop
      vertex -27.25 25.9299 5.6058
      vertex -27.25 5 0
      vertex -27.25 26.6258 3.77094
    endloop
  endfacet
  facet normal 1 0 0
    outer loop
      vertex -27.25 30 2
      vertex -27.25 28.0946 2.46963
      vertex -27.25 5 0
    endloop
  endfacet
  facet normal 1 0 0
    outer loop
      vertex -27.25 25.9299 5.6058
      vertex -27.25 26.1664 7.55388
      vertex -27.25 5 11
    endloop
  endfacet
  facet normal 1 0 0
    outer loop
      vertex -27.25 34.0701 5.6058
      vertex -27.25 33.3742 3.77094
      vertex -27.25 50.5 0
    endloop
  endfacet
  facet normal 0.62349 -0.781832 0
    outer loop
      vertex -42.4895 12.1448 0
      vertex -42.4895 12.1448 11
      vertex -43.9821 10.9545 11
    endloop
  endfacet
  facet normal 0.62349 -0.781832 0
    outer loop
      vertex -43.9821 10.9545 0
      vertex -42.4895 12.1448 0
      vertex -43.9821 10.9545 11
    endloop
  endfacet
  facet normal 1 0 0
    outer loop
      vertex -43.9821 10.9545 0
      vertex -43.9821 10.9545 11
      vertex -43.9821 9.04546 11
    endloop
  endfacet
  facet normal 1 0 0
    outer loop
      vertex -43.9821 9.04546 0
      vertex -43.9821 10.9545 0
      vertex -43.9821 9.04546 11
    endloop
  endfacet
  facet normal -0.222521 -0.974928 0
    outer loop
      vertex -40.6283 11.72 0
      vertex -40.6283 11.72 11
      vertex -42.4895 12.1448 11
    endloop
  endfacet
  facet normal -0.222521 -0.974928 0
    outer loop
      vertex -42.4895 12.1448 0
      vertex -40.6283 11.72 0
      vertex -42.4895 12.1448 11
    endloop
  endfacet
  facet normal -0.900969 -0.433884 0
    outer loop
      vertex -39.8 10 11
      vertex -40.6283 11.72 11
      vertex -39.8 10 0
    endloop
  endfacet
  facet normal -0.900969 -0.433884 0
    outer loop
      vertex -39.8 10 0
      vertex -40.6283 11.72 11
      vertex -40.6283 11.72 0
    endloop
  endfacet
  facet normal -0.900969 0.433884 0
    outer loop
      vertex -39.8 10 11
      vertex -39.8 10 0
      vertex -40.6283 8.27997 11
    endloop
  endfacet
  facet normal -0.900969 0.433884 0
    outer loop
      vertex -40.6283 8.27997 11
      vertex -39.8 10 0
      vertex -40.6283 8.27997 0
    endloop
  endfacet
  facet normal -0.222521 0.974928 0
    outer loop
      vertex -40.6283 8.27997 11
      vertex -40.6283 8.27997 0
      vertex -42.4895 7.85516 11
    endloop
  endfacet
  facet normal -0.222521 0.974928 0
    outer loop
      vertex -42.4895 7.85516 11
      vertex -40.6283 8.27997 0
      vertex -42.4895 7.85516 0
    endloop
  endfacet
  facet normal 0.62349 0.781832 0
    outer loop
      vertex -42.4895 7.85516 11
      vertex -42.4895 7.85516 0
      vertex -43.9821 9.04546 11
    endloop
  endfacet
  facet normal 0.62349 0.781832 0
    outer loop
      vertex -43.9821 9.04546 11
      vertex -42.4895 7.85516 0
      vertex -43.9821 9.04546 0
    endloop
  endfacet
  facet normal 1 0 0
    outer loop
      vertex -42 29.0188 10.0809
      vertex -42 41.5 11
      vertex -42 18.5 11
    endloop
  endfacet
  facet normal 1 0 0
    outer loop
      vertex -42 30.9812 10.0809
      vertex -42 32.7188 9.16889
      vertex -42 41.5 11
    endloop
  endfacet
  facet normal 1 0 0
    outer loop
      vertex -42 26.1664 7.55388
      vertex -42 27.2812 9.16889
      vertex -42 18.5 11
    endloop
  endfacet
  facet normal 1 0 0
    outer loop
      vertex -42 27.2812 9.16889
      vertex -42 29.0188 10.0809
      vertex -42 18.5 11
    endloop
  endfacet
  facet normal 1 0 0
    outer loop
      vertex -42 30.9812 10.0809
      vertex -42 41.5 11
      vertex -42 29.0188 10.0809
    endloop
  endfacet
  facet normal 1 0 0
    outer loop
      vertex -42 32.7188 9.16889
      vertex -42 33.8336 7.55388
      vertex -42 41.5 11
    endloop
  endfacet
  facet normal 1 0 0
    outer loop
      vertex -42 34.0701 5.6058
      vertex -42 33.3742 3.77094
      vertex -42 41.5 0
    endloop
  endfacet
  facet normal 1 0 0
    outer loop
      vertex -42 41.5 0
      vertex -42 41.5 11
      vertex -42 33.8336 7.55388
    endloop
  endfacet
  facet normal 1 0 0
    outer loop
      vertex -42 41.5 0
      vertex -42 33.8336 7.55388
      vertex -42 34.0701 5.6058
    endloop
  endfacet
  facet normal 1 0 0
    outer loop
      vertex -42 30 2
      vertex -42 28.0946 2.46963
      vertex -42 18.5 0
    endloop
  endfacet
  facet normal 1 0 0
    outer loop
      vertex -42 31.9054 2.46963
      vertex -42 41.5 0
      vertex -42 33.3742 3.77094
    endloop
  endfacet
  facet normal 1 0 0
    outer loop
      vertex -42 26.6258 3.77094
      vertex -42 25.9299 5.6058
      vertex -42 18.5 11
    endloop
  endfacet
  facet normal 1 0 0
    outer loop
      vertex -42 30 2
      vertex -42 41.5 0
      vertex -42 31.9054 2.46963
    endloop
  endfacet
  facet normal 1 0 0
    outer loop
      vertex -42 18.5 0
      vertex -42 41.5 0
      vertex -42 30 2
    endloop
  endfacet
  facet normal 1 0 0
    outer loop
      vertex -42 18.5 0
      vertex -42 26.6258 3.77094
      vertex -42 18.5 11
    endloop
  endfacet
  facet normal 1 0 0
    outer loop
      vertex -42 18.5 0
      vertex -42 28.0946 2.46963
      vertex -42 26.6258 3.77094
    endloop
  endfacet
  facet normal 1 0 0
    outer loop
      vertex -42 25.9299 5.6058
      vertex -42 26.1664 7.55388
      vertex -42 18.5 11
    endloop
  endfacet
  facet normal 0 -1 0
    outer loop
      vertex -32 41.5 0
      vertex -32 41.5 11
      vertex -42 41.5 11
    endloop
  endfacet
  facet normal 0 -1 0
    outer loop
      vertex -42 41.5 0
      vertex -32 41.5 0
      vertex -42 41.5 11
    endloop
  endfacet
  facet normal -1 0 0
    outer loop
      vertex -32 30 2
      vertex -32 41.5 0
      vertex -32 18.5 0
    endloop
  endfacet
  facet normal -1 0 0
    outer loop
      vertex -32 34.0701 5.6058
      vertex -32 41.5 0
      vertex -32 33.3742 3.77094
    endloop
  endfacet
  facet normal -1 0 0
    outer loop
      vertex -32 18.5 11
      vertex -32 25.9299 5.6058
      vertex -32 18.5 0
    endloop
  endfacet
  facet normal -1 0 0
    outer loop
      vertex -32 33.3742 3.77094
      vertex -32 41.5 0
      vertex -32 31.9054 2.46963
    endloop
  endfacet
  facet normal -1 0 0
    outer loop
      vertex -32 25.9299 5.6058
      vertex -32 26.6258 3.77094
      vertex -32 18.5 0
    endloop
  endfacet
  facet normal -1 0 0
    outer loop
      vertex -32 26.6258 3.77094
      vertex -32 28.0946 2.46963
      vertex -32 18.5 0
    endloop
  endfacet
  facet normal -1 0 0
    outer loop
      vertex -32 28.0946 2.46963
      vertex -32 30 2
      vertex -32 18.5 0
    endloop
  endfacet
  facet normal -1 0 0
    outer loop
      vertex -32 31.9054 2.46963
      vertex -32 41.5 0
      vertex -32 30 2
    endloop
  endfacet
  facet normal -1 0 0
    outer loop
      vertex -32 41.5 11
      vertex -32 41.5 0
      vertex -32 34.0701 5.6058
    endloop
  endfacet
  facet normal -1 0 0
    outer loop
      vertex -32 41.5 11
      vertex -32 34.0701 5.6058
      vertex -32 33.8336 7.55388
    endloop
  endfacet
  facet normal -1 0 0
    outer loop
      vertex -32 41.5 11
      vertex -32 33.8336 7.55388
      vertex -32 32.7188 9.16889
    endloop
  endfacet
  facet normal -1 0 0
    outer loop
      vertex -32 41.5 11
      vertex -32 32.7188 9.16889
      vertex -32 30.9812 10.0809
    endloop
  endfacet
  facet normal -1 0 0
    outer loop
      vertex -32 41.5 11
      vertex -32 30.9812 10.0809
      vertex -32 18.5 11
    endloop
  endfacet
  facet normal -1 0 0
    outer loop
      vertex -32 30.9812 10.0809
      vertex -32 29.0188 10.0809
      vertex -32 18.5 11
    endloop
  endfacet
  facet normal -1 0 0
    outer loop
      vertex -32 26.1664 7.55388
      vertex -32 18.5 11
      vertex -32 27.2812 9.16889
    endloop
  endfacet
  facet normal -1 0 0
    outer loop
      vertex -32 27.2812 9.16889
      vertex -32 18.5 11
      vertex -32 29.0188 10.0809
    endloop
  endfacet
  facet normal -1 0 0
    outer loop
      vertex -32 25.9299 5.6058
      vertex -32 18.5 11
      vertex -32 26.1664 7.55388
    endloop
  endfacet
  facet normal 0 1 0
    outer loop
      vertex -32 18.5 11
      vertex -32 18.5 0
      vertex -42 18.5 11
    endloop
  endfacet
  facet normal 0 1 0
    outer loop
      vertex -42 18.5 11
      vertex -32 18.5 0
      vertex -42 18.5 0
    endloop
  endfacet
  facet normal 0.62349 -0.781832 0
    outer loop
      vertex -32.4895 12.1448 0
      vertex -32.4895 12.1448 11
      vertex -33.9821 10.9545 11
    endloop
  endfacet
  facet normal 0.62349 -0.781832 0
    outer loop
      vertex -33.9821 10.9545 0
      vertex -32.4895 12.1448 0
      vertex -33.9821 10.9545 11
    endloop
  endfacet
  facet normal 1 0 0
    outer loop
      vertex -33.9821 10.9545 0
      vertex -33.9821 10.9545 11
      vertex -33.9821 9.04546 11
    endloop
  endfacet
  facet normal 1 0 0
    outer loop
      vertex -33.9821 9.04546 0
      vertex -33.9821 10.9545 0
      vertex -33.9821 9.04546 11
    endloop
  endfacet
  facet normal -0.222521 -0.974928 0
    outer loop
      vertex -30.6283 11.72 0
      vertex -30.6283 11.72 11
      vertex -32.4895 12.1448 11
    endloop
  endfacet
  facet normal -0.222521 -0.974928 0
    outer loop
      vertex -32.4895 12.1448 0
      vertex -30.6283 11.72 0
      vertex -32.4895 12.1448 11
    endloop
  endfacet
  facet normal -0.900969 -0.433884 0
    outer loop
      vertex -29.8 10 11
      vertex -30.6283 11.72 11
      vertex -29.8 10 0
    endloop
  endfacet
  facet normal -0.900969 -0.433884 0
    outer loop
      vertex -29.8 10 0
      vertex -30.6283 11.72 11
      vertex -30.6283 11.72 0
    endloop
  endfacet
  facet normal -0.900969 0.433884 0
    outer loop
      vertex -29.8 10 11
      vertex -29.8 10 0
      vertex -30.6283 8.27997 11
    endloop
  endfacet
  facet normal -0.900969 0.433884 0
    outer loop
      vertex -30.6283 8.27997 11
      vertex -29.8 10 0
      vertex -30.6283 8.27997 0
    endloop
  endfacet
  facet normal -0.222521 0.974928 0
    outer loop
      vertex -30.6283 8.27997 11
      vertex -30.6283 8.27997 0
      vertex -32.4895 7.85516 11
    endloop
  endfacet
  facet normal -0.222521 0.974928 0
    outer loop
      vertex -32.4895 7.85516 11
      vertex -30.6283 8.27997 0
      vertex -32.4895 7.85516 0
    endloop
  endfacet
  facet normal 0.62349 0.781832 0
    outer loop
      vertex -32.4895 7.85516 11
      vertex -32.4895 7.85516 0
      vertex -33.9821 9.04546 11
    endloop
  endfacet
  facet normal 0.62349 0.781832 0
    outer loop
      vertex -33.9821 9.04546 11
      vertex -32.4895 7.85516 0
      vertex -33.9821 9.04546 0
    endloop
  endfacet
  facet normal 2.67644e-17 0.992709 -0.120536
    outer loop
      vertex -27.25 26.1664 7.55388
      vertex -27.25 25.9299 5.6058
      vertex -32 26.1664 7.55388
    endloop
  endfacet
  facet normal 2.67644e-17 0.992709 -0.120536
    outer loop
      vertex -32 26.1664 7.55388
      vertex -27.25 25.9299 5.6058
      vertex -32 25.9299 5.6058
    endloop
  endfacet
  facet normal -7.87381e-17 0.935016 0.354605
    outer loop
      vertex -27.25 26.6258 3.77094
      vertex -32 26.6258 3.77094
      vertex -27.25 25.9299 5.6058
    endloop
  endfacet
  facet normal -7.87381e-17 0.935016 0.354605
    outer loop
      vertex -27.25 25.9299 5.6058
      vertex -32 26.6258 3.77094
      vertex -32 25.9299 5.6058
    endloop
  endfacet
  facet normal -1.66203e-16 0.663123 0.748511
    outer loop
      vertex -27.25 26.6258 3.77094
      vertex -27.25 28.0946 2.46963
      vertex -32 28.0946 2.46963
    endloop
  endfacet
  facet normal -1.66203e-16 0.663123 0.748511
    outer loop
      vertex -32 26.6258 3.77094
      vertex -27.25 26.6258 3.77094
      vertex -32 28.0946 2.46963
    endloop
  endfacet
  facet normal -2.15592e-16 0.239316 0.970942
    outer loop
      vertex -27.25 28.0946 2.46963
      vertex -27.25 30 2
      vertex -32 30 2
    endloop
  endfacet
  facet normal -2.15592e-16 0.239316 0.970942
    outer loop
      vertex -32 28.0946 2.46963
      vertex -27.25 28.0946 2.46963
      vertex -32 30 2
    endloop
  endfacet
  facet normal -2.15592e-16 -0.239316 0.970942
    outer loop
      vertex -27.25 30 2
      vertex -27.25 31.9054 2.46963
      vertex -32 31.9054 2.46963
    endloop
  endfacet
  facet normal -2.15592e-16 -0.239316 0.970942
    outer loop
      vertex -32 30 2
      vertex -27.25 30 2
      vertex -32 31.9054 2.46963
    endloop
  endfacet
  facet normal -1.66203e-16 -0.663123 0.748511
    outer loop
      vertex -27.25 31.9054 2.46963
      vertex -27.25 33.3742 3.77094
      vertex -32 33.3742 3.77094
    endloop
  endfacet
  facet normal -1.66203e-16 -0.663123 0.748511
    outer loop
      vertex -32 31.9054 2.46963
      vertex -27.25 31.9054 2.46963
      vertex -32 33.3742 3.77094
    endloop
  endfacet
  facet normal -7.87381e-17 -0.935016 0.354605
    outer loop
      vertex -27.25 33.3742 3.77094
      vertex -27.25 34.0701 5.6058
      vertex -32 34.0701 5.6058
    endloop
  endfacet
  facet normal -7.87381e-17 -0.935016 0.354605
    outer loop
      vertex -32 33.3742 3.77094
      vertex -27.25 33.3742 3.77094
      vertex -32 34.0701 5.6058
    endloop
  endfacet
  facet normal 2.67644e-17 -0.992709 -0.120536
    outer loop
      vertex -32 34.0701 5.6058
      vertex -27.25 34.0701 5.6058
      vertex -27.25 33.8336 7.55388
    endloop
  endfacet
  facet normal 2.67644e-17 -0.992709 -0.120536
    outer loop
      vertex -32 33.8336 7.55388
      vertex -32 34.0701 5.6058
      vertex -27.25 33.8336 7.55388
    endloop
  endfacet
  facet normal 1.26136e-16 -0.822984 -0.568065
    outer loop
      vertex -32 33.8336 7.55388
      vertex -27.25 33.8336 7.55388
      vertex -27.25 32.7188 9.16889
    endloop
  endfacet
  facet normal 1.26136e-16 -0.822984 -0.568065
    outer loop
      vertex -32 32.7188 9.16889
      vertex -32 33.8336 7.55388
      vertex -27.25 32.7188 9.16889
    endloop
  endfacet
  facet normal 1.96611e-16 -0.464723 -0.885456
    outer loop
      vertex -27.25 32.7188 9.16889
      vertex -27.25 30.9812 10.0809
      vertex -32 32.7188 9.16889
    endloop
  endfacet
  facet normal 1.96611e-16 -0.464723 -0.885456
    outer loop
      vertex -32 32.7188 9.16889
      vertex -27.25 30.9812 10.0809
      vertex -32 30.9812 10.0809
    endloop
  endfacet
  facet normal 2.22045e-16 0 -1
    outer loop
      vertex -27.25 30.9812 10.0809
      vertex -27.25 29.0188 10.0809
      vertex -32 30.9812 10.0809
    endloop
  endfacet
  facet normal 2.22045e-16 0 -1
    outer loop
      vertex -32 30.9812 10.0809
      vertex -27.25 29.0188 10.0809
      vertex -32 29.0188 10.0809
    endloop
  endfacet
  facet normal 1.96611e-16 0.464723 -0.885456
    outer loop
      vertex -27.25 29.0188 10.0809
      vertex -27.25 27.2812 9.16889
      vertex -32 29.0188 10.0809
    endloop
  endfacet
  facet normal 1.96611e-16 0.464723 -0.885456
    outer loop
      vertex -32 29.0188 10.0809
      vertex -27.25 27.2812 9.16889
      vertex -32 27.2812 9.16889
    endloop
  endfacet
  facet normal 1.26136e-16 0.822984 -0.568065
    outer loop
      vertex -27.25 27.2812 9.16889
      vertex -27.25 26.1664 7.55388
      vertex -32 27.2812 9.16889
    endloop
  endfacet
  facet normal 1.26136e-16 0.822984 -0.568065
    outer loop
      vertex -32 27.2812 9.16889
      vertex -27.25 26.1664 7.55388
      vertex -32 26.1664 7.55388
    endloop
  endfacet
endsolid OpenSCAD_Model
