solid OpenSCAD_Model
  facet normal 0 0 -1
    outer loop
      vertex -20 0 0
      vertex -19.563 4.15823 0
      vertex -19.563 -4.15823 0
    endloop
  endfacet
  facet normal 0 0 -1
    outer loop
      vertex -19.563 -4.15823 0
      vertex -19.563 4.15823 0
      vertex -18.2709 8.13473 0
    endloop
  endfacet
  facet normal 0 0 -1
    outer loop
      vertex -19.563 -4.15823 0
      vertex -18.2709 8.13473 0
      vertex -16.1803 11.7557 0
    endloop
  endfacet
  facet normal 0 0 -1
    outer loop
      vertex -19.563 -4.15823 0
      vertex -16.1803 11.7557 0
      vertex -13.3826 14.8629 0
    endloop
  endfacet
  facet normal 0 0 -1
    outer loop
      vertex -19.563 -4.15823 0
      vertex -13.3826 14.8629 0
      vertex -10 17.3205 0
    endloop
  endfacet
  facet normal 0 0 -1
    outer loop
      vertex -19.563 -4.15823 0
      vertex -10 17.3205 0
      vertex -6.18034 19.0211 0
    endloop
  endfacet
  facet normal 0 0 -1
    outer loop
      vertex -19.563 -4.15823 0
      vertex -6.18034 19.0211 0
      vertex -2.09057 19.8904 0
    endloop
  endfacet
  facet normal 0 0 -1
    outer loop
      vertex -19.563 -4.15823 0
      vertex -2.09057 19.8904 0
      vertex 2.09057 19.8904 0
    endloop
  endfacet
  facet normal 0 0 -1
    outer loop
      vertex -1.91342 13.1194 0
      vertex 2.09057 19.8904 0
      vertex 6.18034 19.0211 0
    endloop
  endfacet
  facet normal 0 0 -1
    outer loop
      vertex 1.91342 13.1194 0
      vertex 6.18034 19.0211 0
      vertex 10 17.3205 0
    endloop
  endfacet
  facet normal 0 0 -1
    outer loop
      vertex 4.6194 10.4134 0
      vertex 10 17.3205 0
      vertex 13.3826 14.8629 0
    endloop
  endfacet
  facet normal 0 0 -1
    outer loop
      vertex 5 8.5 0
      vertex 13.3826 14.8629 0
      vertex 16.1803 11.7557 0
    endloop
  endfacet
  facet normal 0 0 -1
    outer loop
      vertex 3.53553 4.96447 0
      vertex 16.1803 11.7557 0
      vertex 18.2709 8.13473 0
    endloop
  endfacet
  facet normal 0 0 -1
    outer loop
      vertex 12.0355 3.53553 0
      vertex 18.2709 8.13473 0
      vertex 19.563 4.15823 0
    endloop
  endfacet
  facet normal 0 0 -1
    outer loop
      vertex 13.5 0 0
      vertex 19.563 4.15823 0
      vertex 20 0 0
    endloop
  endfacet
  facet normal 0 0 -1
    outer loop
      vertex 12.0355 -3.53553 0
      vertex 20 0 0
      vertex 19.563 -4.15823 0
    endloop
  endfacet
  facet normal 0 0 -1
    outer loop
      vertex 8.5 -5 0
      vertex 19.563 -4.15823 0
      vertex 18.2709 -8.13473 0
    endloop
  endfacet
  facet normal 0 0 -1
    outer loop
      vertex 5 -8.5 0
      vertex 18.2709 -8.13473 0
      vertex 16.1803 -11.7557 0
    endloop
  endfacet
  facet normal 0 0 -1
    outer loop
      vertex 4.6194 -10.4134 0
      vertex 16.1803 -11.7557 0
      vertex 13.3826 -14.8629 0
    endloop
  endfacet
  facet normal 0 0 -1
    outer loop
      vertex 1.91342 -13.1194 0
      vertex 13.3826 -14.8629 0
      vertex 10 -17.3205 0
    endloop
  endfacet
  facet normal 0 0 -1
    outer loop
      vertex -1.91342 -13.1194 0
      vertex 10 -17.3205 0
      vertex 6.18034 -19.0211 0
    endloop
  endfacet
  facet normal 0 0 -1
    outer loop
      vertex -19.563 -4.15823 0
      vertex 6.18034 -19.0211 0
      vertex 2.09057 -19.8904 0
    endloop
  endfacet
  facet normal 0 0 -1
    outer loop
      vertex -19.563 -4.15823 0
      vertex 2.09057 -19.8904 0
      vertex -2.09057 -19.8904 0
    endloop
  endfacet
  facet normal 0 0 -1
    outer loop
      vertex -19.563 -4.15823 0
      vertex -2.09057 -19.8904 0
      vertex -6.18034 -19.0211 0
    endloop
  endfacet
  facet normal 0 0 -1
    outer loop
      vertex -19.563 -4.15823 0
      vertex -6.18034 -19.0211 0
      vertex -10 -17.3205 0
    endloop
  endfacet
  facet normal 0 0 -1
    outer loop
      vertex -19.563 -4.15823 0
      vertex -10 -17.3205 0
      vertex -13.3826 -14.8629 0
    endloop
  endfacet
  facet normal 0 0 -1
    outer loop
      vertex -19.563 -4.15823 0
      vertex -13.3826 -14.8629 0
      vertex -16.1803 -11.7557 0
    endloop
  endfacet
  facet normal 0 0 -1
    outer loop
      vertex -19.563 -4.15823 0
      vertex -16.1803 -11.7557 0
      vertex -18.2709 -8.13473 0
    endloop
  endfacet
  facet normal 0 0 -1
    outer loop
      vertex 3.8806 1.91342 0
      vertex -3.5 0 0
      vertex 4.96447 3.53553 0
    endloop
  endfacet
  facet normal 0 0 -1
    outer loop
      vertex -4.96447 3.53553 0
      vertex -1.91342 3.8806 0
      vertex -3.8806 1.91342 0
    endloop
  endfacet
  facet normal 0 0 -1
    outer loop
      vertex -10.4134 -4.6194 0
      vertex -19.563 -4.15823 0
      vertex -12.0355 -3.53553 0
    endloop
  endfacet
  facet normal 0 0 -1
    outer loop
      vertex -3.8806 -1.91342 0
      vertex 3.8806 -1.91342 0
      vertex -4.96447 -3.53553 0
    endloop
  endfacet
  facet normal 0 0 -1
    outer loop
      vertex -4.6194 -6.58658 0
      vertex -8.5 -5 0
      vertex -6.58658 -4.6194 0
    endloop
  endfacet
  facet normal 0 0 -1
    outer loop
      vertex -3.53553 -4.96447 0
      vertex -6.58658 -4.6194 0
      vertex -1.91342 -3.8806 0
    endloop
  endfacet
  facet normal 0 0 -1
    outer loop
      vertex -19.563 -4.15823 0
      vertex -10.4134 -4.6194 0
      vertex -8.5 -5 0
    endloop
  endfacet
  facet normal 0 0 -1
    outer loop
      vertex 0 -3.5 0
      vertex -4.96447 -3.53553 0
      vertex 3.8806 -1.91342 0
    endloop
  endfacet
  facet normal 0 0 -1
    outer loop
      vertex 6.58658 4.6194 0
      vertex -3.8806 1.91342 0
      vertex 18.2709 8.13473 0
    endloop
  endfacet
  facet normal 0 0 -1
    outer loop
      vertex 12.0355 3.53553 0
      vertex 19.563 4.15823 0
      vertex 13.1194 1.91342 0
    endloop
  endfacet
  facet normal 0 0 -1
    outer loop
      vertex 0 3.5 0
      vertex -3.8806 1.91342 0
      vertex -1.91342 3.8806 0
    endloop
  endfacet
  facet normal 0 0 -1
    outer loop
      vertex -3.53553 4.96447 0
      vertex -6.58658 4.6194 0
      vertex -4.6194 6.58658 0
    endloop
  endfacet
  facet normal 0 0 -1
    outer loop
      vertex 1.91342 13.1194 0
      vertex 10 17.3205 0
      vertex 3.53553 12.0355 0
    endloop
  endfacet
  facet normal 0 0 -1
    outer loop
      vertex -8.5 5 0
      vertex -4.6194 6.58658 0
      vertex -6.58658 4.6194 0
    endloop
  endfacet
  facet normal 0 0 -1
    outer loop
      vertex -12.0355 3.53553 0
      vertex 2.09057 19.8904 0
      vertex -10.4134 4.6194 0
    endloop
  endfacet
  facet normal 0 0 -1
    outer loop
      vertex -13.1194 1.91342 0
      vertex -19.563 -4.15823 0
      vertex -12.0355 3.53553 0
    endloop
  endfacet
  facet normal 0 0 -1
    outer loop
      vertex -19.563 -4.15823 0
      vertex 2.09057 19.8904 0
      vertex -12.0355 3.53553 0
    endloop
  endfacet
  facet normal 0 0 -1
    outer loop
      vertex 4.6194 -6.58658 0
      vertex 18.2709 -8.13473 0
      vertex 5 -8.5 0
    endloop
  endfacet
  facet normal 0 0 -1
    outer loop
      vertex -5 -8.5 0
      vertex -19.563 -4.15823 0
      vertex -4.6194 -6.58658 0
    endloop
  endfacet
  facet normal 0 0 -1
    outer loop
      vertex -4.6194 -10.4134 0
      vertex -19.563 -4.15823 0
      vertex -5 -8.5 0
    endloop
  endfacet
  facet normal 0 0 -1
    outer loop
      vertex 4.6194 -10.4134 0
      vertex 13.3826 -14.8629 0
      vertex 3.53553 -12.0355 0
    endloop
  endfacet
  facet normal 0 0 -1
    outer loop
      vertex 1.91342 -13.1194 0
      vertex 10 -17.3205 0
      vertex 0 -13.5 0
    endloop
  endfacet
  facet normal 0 0 -1
    outer loop
      vertex -19.563 -4.15823 0
      vertex -3.53553 -12.0355 0
      vertex 6.18034 -19.0211 0
    endloop
  endfacet
  facet normal 0 0 -1
    outer loop
      vertex 0 -13.5 0
      vertex 10 -17.3205 0
      vertex -1.91342 -13.1194 0
    endloop
  endfacet
  facet normal 0 0 -1
    outer loop
      vertex -3.53553 -12.0355 0
      vertex -1.91342 -13.1194 0
      vertex 6.18034 -19.0211 0
    endloop
  endfacet
  facet normal 0 0 -1
    outer loop
      vertex 3.53553 -12.0355 0
      vertex 13.3826 -14.8629 0
      vertex 1.91342 -13.1194 0
    endloop
  endfacet
  facet normal 0 0 -1
    outer loop
      vertex -3.53553 -12.0355 0
      vertex -19.563 -4.15823 0
      vertex -4.6194 -10.4134 0
    endloop
  endfacet
  facet normal 0 0 -1
    outer loop
      vertex 5 -8.5 0
      vertex 16.1803 -11.7557 0
      vertex 4.6194 -10.4134 0
    endloop
  endfacet
  facet normal 0 0 -1
    outer loop
      vertex 8.5 5 0
      vertex 18.2709 8.13473 0
      vertex 10.4134 4.6194 0
    endloop
  endfacet
  facet normal 0 0 -1
    outer loop
      vertex 3.53553 -4.96447 0
      vertex 18.2709 -8.13473 0
      vertex 4.6194 -6.58658 0
    endloop
  endfacet
  facet normal 0 0 -1
    outer loop
      vertex 8.5 -5 0
      vertex 3.53553 -4.96447 0
      vertex 6.58658 -4.6194 0
    endloop
  endfacet
  facet normal 0 0 -1
    outer loop
      vertex 6.58658 -4.6194 0
      vertex 0 -3.5 0
      vertex 4.96447 -3.53553 0
    endloop
  endfacet
  facet normal 0 0 -1
    outer loop
      vertex -1.91342 -3.8806 0
      vertex -4.96447 -3.53553 0
      vertex 0 -3.5 0
    endloop
  endfacet
  facet normal 0 0 -1
    outer loop
      vertex -4.96447 -3.53553 0
      vertex -1.91342 -3.8806 0
      vertex -6.58658 -4.6194 0
    endloop
  endfacet
  facet normal 0 0 -1
    outer loop
      vertex -4.6194 -6.58658 0
      vertex -19.563 -4.15823 0
      vertex -8.5 -5 0
    endloop
  endfacet
  facet normal 0 0 -1
    outer loop
      vertex 1.91342 -3.8806 0
      vertex 6.58658 -4.6194 0
      vertex 3.53553 -4.96447 0
    endloop
  endfacet
  facet normal 0 0 -1
    outer loop
      vertex -1.91342 3.8806 0
      vertex -4.96447 3.53553 0
      vertex -3.53553 4.96447 0
    endloop
  endfacet
  facet normal 0 0 -1
    outer loop
      vertex -13.1194 -1.91342 0
      vertex -19.563 -4.15823 0
      vertex -13.5 0 0
    endloop
  endfacet
  facet normal 0 0 -1
    outer loop
      vertex 6.58658 4.6194 0
      vertex 18.2709 8.13473 0
      vertex 8.5 5 0
    endloop
  endfacet
  facet normal 0 0 -1
    outer loop
      vertex 3.53553 4.96447 0
      vertex 18.2709 8.13473 0
      vertex 1.91342 3.8806 0
    endloop
  endfacet
  facet normal 0 0 -1
    outer loop
      vertex -3.8806 1.91342 0
      vertex 0 3.5 0
      vertex 1.91342 3.8806 0
    endloop
  endfacet
  facet normal 0 0 -1
    outer loop
      vertex -3.8806 1.91342 0
      vertex 1.91342 3.8806 0
      vertex 18.2709 8.13473 0
    endloop
  endfacet
  facet normal 0 0 -1
    outer loop
      vertex 4.6194 6.58658 0
      vertex 16.1803 11.7557 0
      vertex 3.53553 4.96447 0
    endloop
  endfacet
  facet normal 0 0 -1
    outer loop
      vertex 4.96447 3.53553 0
      vertex -3.8806 1.91342 0
      vertex 6.58658 4.6194 0
    endloop
  endfacet
  facet normal 0 0 -1
    outer loop
      vertex -12.0355 -3.53553 0
      vertex -19.563 -4.15823 0
      vertex -13.1194 -1.91342 0
    endloop
  endfacet
  facet normal 0 0 -1
    outer loop
      vertex 5 8.5 0
      vertex 16.1803 11.7557 0
      vertex 4.6194 6.58658 0
    endloop
  endfacet
  facet normal 0 0 -1
    outer loop
      vertex 3.53553 12.0355 0
      vertex 10 17.3205 0
      vertex 4.6194 10.4134 0
    endloop
  endfacet
  facet normal 0 0 -1
    outer loop
      vertex 4.6194 10.4134 0
      vertex 13.3826 14.8629 0
      vertex 5 8.5 0
    endloop
  endfacet
  facet normal 0 0 -1
    outer loop
      vertex -6.58658 4.6194 0
      vertex -3.53553 4.96447 0
      vertex -4.96447 3.53553 0
    endloop
  endfacet
  facet normal 0 0 -1
    outer loop
      vertex -3.53553 12.0355 0
      vertex 2.09057 19.8904 0
      vertex -1.91342 13.1194 0
    endloop
  endfacet
  facet normal 0 0 -1
    outer loop
      vertex 3.5 0 0
      vertex -3.5 0 0
      vertex 3.8806 1.91342 0
    endloop
  endfacet
  facet normal 0 0 -1
    outer loop
      vertex -10.4134 4.6194 0
      vertex 2.09057 19.8904 0
      vertex -3.53553 12.0355 0
    endloop
  endfacet
  facet normal 0 0 -1
    outer loop
      vertex -10.4134 4.6194 0
      vertex -3.53553 12.0355 0
      vertex -4.6194 10.4134 0
    endloop
  endfacet
  facet normal 0 0 -1
    outer loop
      vertex 0 13.5 0
      vertex 6.18034 19.0211 0
      vertex 1.91342 13.1194 0
    endloop
  endfacet
  facet normal 0 0 -1
    outer loop
      vertex -3.8806 1.91342 0
      vertex 4.96447 3.53553 0
      vertex -3.5 0 0
    endloop
  endfacet
  facet normal 0 0 -1
    outer loop
      vertex -3.5 0 0
      vertex 3.5 0 0
      vertex -3.8806 -1.91342 0
    endloop
  endfacet
  facet normal 0 0 -1
    outer loop
      vertex 6.58658 -4.6194 0
      vertex 1.91342 -3.8806 0
      vertex 0 -3.5 0
    endloop
  endfacet
  facet normal 0 0 -1
    outer loop
      vertex -4.6194 -6.58658 0
      vertex -6.58658 -4.6194 0
      vertex -3.53553 -4.96447 0
    endloop
  endfacet
  facet normal 0 0 -1
    outer loop
      vertex 10.4134 -4.6194 0
      vertex 19.563 -4.15823 0
      vertex 8.5 -5 0
    endloop
  endfacet
  facet normal 0 0 -1
    outer loop
      vertex 3.53553 -4.96447 0
      vertex 8.5 -5 0
      vertex 18.2709 -8.13473 0
    endloop
  endfacet
  facet normal 0 0 -1
    outer loop
      vertex 12.0355 -3.53553 0
      vertex 19.563 -4.15823 0
      vertex 10.4134 -4.6194 0
    endloop
  endfacet
  facet normal 0 0 -1
    outer loop
      vertex 13.1194 -1.91342 0
      vertex 20 0 0
      vertex 12.0355 -3.53553 0
    endloop
  endfacet
  facet normal 0 0 -1
    outer loop
      vertex 13.5 0 0
      vertex 20 0 0
      vertex 13.1194 -1.91342 0
    endloop
  endfacet
  facet normal 0 0 -1
    outer loop
      vertex 13.1194 1.91342 0
      vertex 19.563 4.15823 0
      vertex 13.5 0 0
    endloop
  endfacet
  facet normal 0 0 -1
    outer loop
      vertex 4.96447 -3.53553 0
      vertex 0 -3.5 0
      vertex 3.8806 -1.91342 0
    endloop
  endfacet
  facet normal 0 0 -1
    outer loop
      vertex 10.4134 4.6194 0
      vertex 18.2709 8.13473 0
      vertex 12.0355 3.53553 0
    endloop
  endfacet
  facet normal 0 0 -1
    outer loop
      vertex -13.5 0 0
      vertex -19.563 -4.15823 0
      vertex -13.1194 1.91342 0
    endloop
  endfacet
  facet normal 0 0 -1
    outer loop
      vertex -1.91342 13.1194 0
      vertex 6.18034 19.0211 0
      vertex 0 13.5 0
    endloop
  endfacet
  facet normal 0 0 -1
    outer loop
      vertex -5 8.5 0
      vertex -10.4134 4.6194 0
      vertex -4.6194 10.4134 0
    endloop
  endfacet
  facet normal 0 0 -1
    outer loop
      vertex -4.6194 6.58658 0
      vertex -8.5 5 0
      vertex -5 8.5 0
    endloop
  endfacet
  facet normal 0 0 -1
    outer loop
      vertex -10.4134 4.6194 0
      vertex -5 8.5 0
      vertex -8.5 5 0
    endloop
  endfacet
  facet normal 0 0 -1
    outer loop
      vertex 3.8806 -1.91342 0
      vertex -3.8806 -1.91342 0
      vertex 3.5 0 0
    endloop
  endfacet
  facet normal -0.994522 0.104528 0
    outer loop
      vertex -20 0 0
      vertex -20 0 5
      vertex -19.563 4.15823 0
    endloop
  endfacet
  facet normal -0.994522 0.104528 0
    outer loop
      vertex -19.563 4.15823 0
      vertex -20 0 5
      vertex -19.563 4.15823 5
    endloop
  endfacet
  facet normal -0.994522 -0.104528 0
    outer loop
      vertex -20 0 0
      vertex -19.563 -4.15823 0
      vertex -20 0 5
    endloop
  endfacet
  facet normal -0.994522 -0.104528 0
    outer loop
      vertex -20 0 5
      vertex -19.563 -4.15823 0
      vertex -19.563 -4.15823 5
    endloop
  endfacet
  facet normal -0.951057 -0.309017 0
    outer loop
      vertex -19.563 -4.15823 0
      vertex -18.2709 -8.13473 0
      vertex -19.563 -4.15823 5
    endloop
  endfacet
  facet normal -0.951057 -0.309017 0
    outer loop
      vertex -19.563 -4.15823 5
      vertex -18.2709 -8.13473 0
      vertex -18.2709 -8.13473 5
    endloop
  endfacet
  facet normal -0.866025 -0.5 0
    outer loop
      vertex -18.2709 -8.13473 0
      vertex -16.1803 -11.7557 0
      vertex -18.2709 -8.13473 5
    endloop
  endfacet
  facet normal -0.866025 -0.5 0
    outer loop
      vertex -18.2709 -8.13473 5
      vertex -16.1803 -11.7557 0
      vertex -16.1803 -11.7557 5
    endloop
  endfacet
  facet normal -0.743145 -0.669131 0
    outer loop
      vertex -16.1803 -11.7557 0
      vertex -13.3826 -14.8629 0
      vertex -16.1803 -11.7557 5
    endloop
  endfacet
  facet normal -0.743145 -0.669131 0
    outer loop
      vertex -16.1803 -11.7557 5
      vertex -13.3826 -14.8629 0
      vertex -13.3826 -14.8629 5
    endloop
  endfacet
  facet normal -0.587785 -0.809017 0
    outer loop
      vertex -13.3826 -14.8629 5
      vertex -13.3826 -14.8629 0
      vertex -10 -17.3205 0
    endloop
  endfacet
  facet normal -0.587785 -0.809017 0
    outer loop
      vertex -10 -17.3205 5
      vertex -13.3826 -14.8629 5
      vertex -10 -17.3205 0
    endloop
  endfacet
  facet normal -0.406737 -0.913545 0
    outer loop
      vertex -10 -17.3205 5
      vertex -10 -17.3205 0
      vertex -6.18034 -19.0211 0
    endloop
  endfacet
  facet normal -0.406737 -0.913545 0
    outer loop
      vertex -6.18034 -19.0211 5
      vertex -10 -17.3205 5
      vertex -6.18034 -19.0211 0
    endloop
  endfacet
  facet normal -0.207912 -0.978148 0
    outer loop
      vertex -6.18034 -19.0211 5
      vertex -6.18034 -19.0211 0
      vertex -2.09057 -19.8904 0
    endloop
  endfacet
  facet normal -0.207912 -0.978148 0
    outer loop
      vertex -2.09057 -19.8904 5
      vertex -6.18034 -19.0211 5
      vertex -2.09057 -19.8904 0
    endloop
  endfacet
  facet normal 0 -1 0
    outer loop
      vertex -2.09057 -19.8904 5
      vertex -2.09057 -19.8904 0
      vertex 2.09057 -19.8904 0
    endloop
  endfacet
  facet normal 0 -1 0
    outer loop
      vertex 2.09057 -19.8904 5
      vertex -2.09057 -19.8904 5
      vertex 2.09057 -19.8904 0
    endloop
  endfacet
  facet normal 0.207912 -0.978148 0
    outer loop
      vertex 2.09057 -19.8904 5
      vertex 2.09057 -19.8904 0
      vertex 6.18034 -19.0211 0
    endloop
  endfacet
  facet normal 0.207912 -0.978148 0
    outer loop
      vertex 6.18034 -19.0211 5
      vertex 2.09057 -19.8904 5
      vertex 6.18034 -19.0211 0
    endloop
  endfacet
  facet normal 0.406737 -0.913545 0
    outer loop
      vertex 6.18034 -19.0211 5
      vertex 6.18034 -19.0211 0
      vertex 10 -17.3205 0
    endloop
  endfacet
  facet normal 0.406737 -0.913545 0
    outer loop
      vertex 10 -17.3205 5
      vertex 6.18034 -19.0211 5
      vertex 10 -17.3205 0
    endloop
  endfacet
  facet normal 0.587785 -0.809017 0
    outer loop
      vertex 10 -17.3205 5
      vertex 10 -17.3205 0
      vertex 13.3826 -14.8629 0
    endloop
  endfacet
  facet normal 0.587785 -0.809017 0
    outer loop
      vertex 13.3826 -14.8629 5
      vertex 10 -17.3205 5
      vertex 13.3826 -14.8629 0
    endloop
  endfacet
  facet normal 0.743145 -0.669131 0
    outer loop
      vertex 13.3826 -14.8629 5
      vertex 13.3826 -14.8629 0
      vertex 16.1803 -11.7557 0
    endloop
  endfacet
  facet normal 0.743145 -0.669131 0
    outer loop
      vertex 16.1803 -11.7557 5
      vertex 13.3826 -14.8629 5
      vertex 16.1803 -11.7557 0
    endloop
  endfacet
  facet normal 0.866025 -0.5 0
    outer loop
      vertex 16.1803 -11.7557 5
      vertex 16.1803 -11.7557 0
      vertex 18.2709 -8.13473 0
    endloop
  endfacet
  facet normal 0.866025 -0.5 0
    outer loop
      vertex 18.2709 -8.13473 5
      vertex 16.1803 -11.7557 5
      vertex 18.2709 -8.13473 0
    endloop
  endfacet
  facet normal 0.951057 -0.309017 0
    outer loop
      vertex 18.2709 -8.13473 5
      vertex 18.2709 -8.13473 0
      vertex 19.563 -4.15823 0
    endloop
  endfacet
  facet normal 0.951057 -0.309017 0
    outer loop
      vertex 19.563 -4.15823 5
      vertex 18.2709 -8.13473 5
      vertex 19.563 -4.15823 0
    endloop
  endfacet
  facet normal 0.994522 -0.104528 0
    outer loop
      vertex 19.563 -4.15823 5
      vertex 19.563 -4.15823 0
      vertex 20 0 0
    endloop
  endfacet
  facet normal 0.994522 -0.104528 0
    outer loop
      vertex 20 0 5
      vertex 19.563 -4.15823 5
      vertex 20 0 0
    endloop
  endfacet
  facet normal 0.994522 0.104528 0
    outer loop
      vertex 20 0 0
      vertex 19.563 4.15823 0
      vertex 19.563 4.15823 5
    endloop
  endfacet
  facet normal 0.994522 0.104528 0
    outer loop
      vertex 20 0 5
      vertex 20 0 0
      vertex 19.563 4.15823 5
    endloop
  endfacet
  facet normal 0.951057 0.309017 0
    outer loop
      vertex 19.563 4.15823 0
      vertex 18.2709 8.13473 0
      vertex 18.2709 8.13473 5
    endloop
  endfacet
  facet normal 0.951057 0.309017 0
    outer loop
      vertex 19.563 4.15823 5
      vertex 19.563 4.15823 0
      vertex 18.2709 8.13473 5
    endloop
  endfacet
  facet normal 0.866025 0.5 0
    outer loop
      vertex 18.2709 8.13473 0
      vertex 16.1803 11.7557 0
      vertex 16.1803 11.7557 5
    endloop
  endfacet
  facet normal 0.866025 0.5 0
    outer loop
      vertex 18.2709 8.13473 5
      vertex 18.2709 8.13473 0
      vertex 16.1803 11.7557 5
    endloop
  endfacet
  facet normal 0.743145 0.669131 0
    outer loop
      vertex 16.1803 11.7557 0
      vertex 13.3826 14.8629 0
      vertex 13.3826 14.8629 5
    endloop
  endfacet
  facet normal 0.743145 0.669131 0
    outer loop
      vertex 16.1803 11.7557 5
      vertex 16.1803 11.7557 0
      vertex 13.3826 14.8629 5
    endloop
  endfacet
  facet normal 0.587785 0.809017 0
    outer loop
      vertex 10 17.3205 0
      vertex 10 17.3205 5
      vertex 13.3826 14.8629 0
    endloop
  endfacet
  facet normal 0.587785 0.809017 0
    outer loop
      vertex 13.3826 14.8629 0
      vertex 10 17.3205 5
      vertex 13.3826 14.8629 5
    endloop
  endfacet
  facet normal 0.406737 0.913545 0
    outer loop
      vertex 6.18034 19.0211 0
      vertex 6.18034 19.0211 5
      vertex 10 17.3205 0
    endloop
  endfacet
  facet normal 0.406737 0.913545 0
    outer loop
      vertex 10 17.3205 0
      vertex 6.18034 19.0211 5
      vertex 10 17.3205 5
    endloop
  endfacet
  facet normal 0.207912 0.978148 0
    outer loop
      vertex 2.09057 19.8904 0
      vertex 2.09057 19.8904 5
      vertex 6.18034 19.0211 0
    endloop
  endfacet
  facet normal 0.207912 0.978148 0
    outer loop
      vertex 6.18034 19.0211 0
      vertex 2.09057 19.8904 5
      vertex 6.18034 19.0211 5
    endloop
  endfacet
  facet normal 0 1 0
    outer loop
      vertex -2.09057 19.8904 0
      vertex -2.09057 19.8904 5
      vertex 2.09057 19.8904 0
    endloop
  endfacet
  facet normal 0 1 0
    outer loop
      vertex 2.09057 19.8904 0
      vertex -2.09057 19.8904 5
      vertex 2.09057 19.8904 5
    endloop
  endfacet
  facet normal -0.207912 0.978148 0
    outer loop
      vertex -6.18034 19.0211 0
      vertex -6.18034 19.0211 5
      vertex -2.09057 19.8904 0
    endloop
  endfacet
  facet normal -0.207912 0.978148 0
    outer loop
      vertex -2.09057 19.8904 0
      vertex -6.18034 19.0211 5
      vertex -2.09057 19.8904 5
    endloop
  endfacet
  facet normal -0.406737 0.913545 0
    outer loop
      vertex -10 17.3205 0
      vertex -10 17.3205 5
      vertex -6.18034 19.0211 0
    endloop
  endfacet
  facet normal -0.406737 0.913545 0
    outer loop
      vertex -6.18034 19.0211 0
      vertex -10 17.3205 5
      vertex -6.18034 19.0211 5
    endloop
  endfacet
  facet normal -0.587785 0.809017 0
    outer loop
      vertex -13.3826 14.8629 0
      vertex -13.3826 14.8629 5
      vertex -10 17.3205 0
    endloop
  endfacet
  facet normal -0.587785 0.809017 0
    outer loop
      vertex -10 17.3205 0
      vertex -13.3826 14.8629 5
      vertex -10 17.3205 5
    endloop
  endfacet
  facet normal -0.743145 0.669131 0
    outer loop
      vertex -16.1803 11.7557 0
      vertex -16.1803 11.7557 5
      vertex -13.3826 14.8629 0
    endloop
  endfacet
  facet normal -0.743145 0.669131 0
    outer loop
      vertex -13.3826 14.8629 0
      vertex -16.1803 11.7557 5
      vertex -13.3826 14.8629 5
    endloop
  endfacet
  facet normal -0.866025 0.5 0
    outer loop
      vertex -18.2709 8.13473 0
      vertex -18.2709 8.13473 5
      vertex -16.1803 11.7557 0
    endloop
  endfacet
  facet normal -0.866025 0.5 0
    outer loop
      vertex -16.1803 11.7557 0
      vertex -18.2709 8.13473 5
      vertex -16.1803 11.7557 5
    endloop
  endfacet
  facet normal -0.951057 0.309017 0
    outer loop
      vertex -19.563 4.15823 0
      vertex -19.563 4.15823 5
      vertex -18.2709 8.13473 0
    endloop
  endfacet
  facet normal -0.951057 0.309017 0
    outer loop
      vertex -18.2709 8.13473 0
      vertex -19.563 4.15823 5
      vertex -18.2709 8.13473 5
    endloop
  endfacet
  facet normal 0.980785 -0.19509 0
    outer loop
      vertex -13.1194 1.91342 0
      vertex -13.1194 1.91342 5
      vertex -13.5 0 5
    endloop
  endfacet
  facet normal 0.980785 -0.19509 0
    outer loop
      vertex -13.5 0 0
      vertex -13.1194 1.91342 0
      vertex -13.5 0 5
    endloop
  endfacet
  facet normal 0.980785 0.19509 0
    outer loop
      vertex -13.5 0 5
      vertex -13.1194 -1.91342 5
      vertex -13.1194 -1.91342 0
    endloop
  endfacet
  facet normal 0.980785 0.19509 0
    outer loop
      vertex -13.5 0 0
      vertex -13.5 0 5
      vertex -13.1194 -1.91342 0
    endloop
  endfacet
  facet normal 0.83147 -0.55557 0
    outer loop
      vertex -12.0355 3.53553 0
      vertex -12.0355 3.53553 5
      vertex -13.1194 1.91342 5
    endloop
  endfacet
  facet normal 0.83147 -0.55557 0
    outer loop
      vertex -13.1194 1.91342 0
      vertex -12.0355 3.53553 0
      vertex -13.1194 1.91342 5
    endloop
  endfacet
  facet normal 0.55557 -0.83147 0
    outer loop
      vertex -10.4134 4.6194 0
      vertex -10.4134 4.6194 5
      vertex -12.0355 3.53553 5
    endloop
  endfacet
  facet normal 0.55557 -0.83147 0
    outer loop
      vertex -12.0355 3.53553 0
      vertex -10.4134 4.6194 0
      vertex -12.0355 3.53553 5
    endloop
  endfacet
  facet normal 0.19509 -0.980785 0
    outer loop
      vertex -8.5 5 0
      vertex -8.5 5 5
      vertex -10.4134 4.6194 5
    endloop
  endfacet
  facet normal 0.19509 -0.980785 0
    outer loop
      vertex -10.4134 4.6194 0
      vertex -8.5 5 0
      vertex -10.4134 4.6194 5
    endloop
  endfacet
  facet normal -0.19509 -0.980785 0
    outer loop
      vertex -6.58658 4.6194 0
      vertex -6.58658 4.6194 5
      vertex -8.5 5 5
    endloop
  endfacet
  facet normal -0.19509 -0.980785 0
    outer loop
      vertex -8.5 5 0
      vertex -6.58658 4.6194 0
      vertex -8.5 5 5
    endloop
  endfacet
  facet normal -0.55557 -0.83147 0
    outer loop
      vertex -4.96447 3.53553 0
      vertex -4.96447 3.53553 5
      vertex -6.58658 4.6194 5
    endloop
  endfacet
  facet normal -0.55557 -0.83147 0
    outer loop
      vertex -6.58658 4.6194 0
      vertex -4.96447 3.53553 0
      vertex -6.58658 4.6194 5
    endloop
  endfacet
  facet normal -0.83147 -0.55557 0
    outer loop
      vertex -3.8806 1.91342 5
      vertex -4.96447 3.53553 5
      vertex -3.8806 1.91342 0
    endloop
  endfacet
  facet normal -0.83147 -0.55557 0
    outer loop
      vertex -3.8806 1.91342 0
      vertex -4.96447 3.53553 5
      vertex -4.96447 3.53553 0
    endloop
  endfacet
  facet normal -0.980785 -0.19509 0
    outer loop
      vertex -3.5 0 5
      vertex -3.8806 1.91342 5
      vertex -3.5 0 0
    endloop
  endfacet
  facet normal -0.980785 -0.19509 0
    outer loop
      vertex -3.5 0 0
      vertex -3.8806 1.91342 5
      vertex -3.8806 1.91342 0
    endloop
  endfacet
  facet normal -0.980785 0.19509 0
    outer loop
      vertex -3.5 0 5
      vertex -3.5 0 0
      vertex -3.8806 -1.91342 5
    endloop
  endfacet
  facet normal -0.980785 0.19509 0
    outer loop
      vertex -3.8806 -1.91342 5
      vertex -3.5 0 0
      vertex -3.8806 -1.91342 0
    endloop
  endfacet
  facet normal -0.83147 0.55557 0
    outer loop
      vertex -3.8806 -1.91342 5
      vertex -3.8806 -1.91342 0
      vertex -4.96447 -3.53553 5
    endloop
  endfacet
  facet normal -0.83147 0.55557 0
    outer loop
      vertex -4.96447 -3.53553 5
      vertex -3.8806 -1.91342 0
      vertex -4.96447 -3.53553 0
    endloop
  endfacet
  facet normal -0.55557 0.83147 0
    outer loop
      vertex -4.96447 -3.53553 5
      vertex -4.96447 -3.53553 0
      vertex -6.58658 -4.6194 5
    endloop
  endfacet
  facet normal -0.55557 0.83147 0
    outer loop
      vertex -6.58658 -4.6194 5
      vertex -4.96447 -3.53553 0
      vertex -6.58658 -4.6194 0
    endloop
  endfacet
  facet normal -0.19509 0.980785 0
    outer loop
      vertex -6.58658 -4.6194 5
      vertex -6.58658 -4.6194 0
      vertex -8.5 -5 5
    endloop
  endfacet
  facet normal -0.19509 0.980785 0
    outer loop
      vertex -8.5 -5 5
      vertex -6.58658 -4.6194 0
      vertex -8.5 -5 0
    endloop
  endfacet
  facet normal 0.19509 0.980785 0
    outer loop
      vertex -8.5 -5 5
      vertex -8.5 -5 0
      vertex -10.4134 -4.6194 5
    endloop
  endfacet
  facet normal 0.19509 0.980785 0
    outer loop
      vertex -10.4134 -4.6194 5
      vertex -8.5 -5 0
      vertex -10.4134 -4.6194 0
    endloop
  endfacet
  facet normal 0.55557 0.83147 0
    outer loop
      vertex -10.4134 -4.6194 5
      vertex -10.4134 -4.6194 0
      vertex -12.0355 -3.53553 5
    endloop
  endfacet
  facet normal 0.55557 0.83147 0
    outer loop
      vertex -12.0355 -3.53553 5
      vertex -10.4134 -4.6194 0
      vertex -12.0355 -3.53553 0
    endloop
  endfacet
  facet normal 0.83147 0.55557 0
    outer loop
      vertex -13.1194 -1.91342 5
      vertex -12.0355 -3.53553 5
      vertex -12.0355 -3.53553 0
    endloop
  endfacet
  facet normal 0.83147 0.55557 0
    outer loop
      vertex -13.1194 -1.91342 0
      vertex -13.1194 -1.91342 5
      vertex -12.0355 -3.53553 0
    endloop
  endfacet
  facet normal 0.980785 -0.19509 0
    outer loop
      vertex -4.6194 -6.58658 0
      vertex -4.6194 -6.58658 5
      vertex -5 -8.5 5
    endloop
  endfacet
  facet normal 0.980785 -0.19509 0
    outer loop
      vertex -5 -8.5 0
      vertex -4.6194 -6.58658 0
      vertex -5 -8.5 5
    endloop
  endfacet
  facet normal 0.980785 0.19509 0
    outer loop
      vertex -5 -8.5 5
      vertex -4.6194 -10.4134 5
      vertex -4.6194 -10.4134 0
    endloop
  endfacet
  facet normal 0.980785 0.19509 0
    outer loop
      vertex -5 -8.5 0
      vertex -5 -8.5 5
      vertex -4.6194 -10.4134 0
    endloop
  endfacet
  facet normal 0.83147 -0.55557 0
    outer loop
      vertex -3.53553 -4.96447 0
      vertex -3.53553 -4.96447 5
      vertex -4.6194 -6.58658 5
    endloop
  endfacet
  facet normal 0.83147 -0.55557 0
    outer loop
      vertex -4.6194 -6.58658 0
      vertex -3.53553 -4.96447 0
      vertex -4.6194 -6.58658 5
    endloop
  endfacet
  facet normal 0.55557 -0.83147 0
    outer loop
      vertex -1.91342 -3.8806 0
      vertex -1.91342 -3.8806 5
      vertex -3.53553 -4.96447 5
    endloop
  endfacet
  facet normal 0.55557 -0.83147 0
    outer loop
      vertex -3.53553 -4.96447 0
      vertex -1.91342 -3.8806 0
      vertex -3.53553 -4.96447 5
    endloop
  endfacet
  facet normal 0.19509 -0.980785 0
    outer loop
      vertex 0 -3.5 0
      vertex 0 -3.5 5
      vertex -1.91342 -3.8806 5
    endloop
  endfacet
  facet normal 0.19509 -0.980785 0
    outer loop
      vertex -1.91342 -3.8806 0
      vertex 0 -3.5 0
      vertex -1.91342 -3.8806 5
    endloop
  endfacet
  facet normal -0.19509 -0.980785 0
    outer loop
      vertex 1.91342 -3.8806 0
      vertex 1.91342 -3.8806 5
      vertex 0 -3.5 5
    endloop
  endfacet
  facet normal -0.19509 -0.980785 0
    outer loop
      vertex 0 -3.5 0
      vertex 1.91342 -3.8806 0
      vertex 0 -3.5 5
    endloop
  endfacet
  facet normal -0.55557 -0.83147 0
    outer loop
      vertex 3.53553 -4.96447 0
      vertex 3.53553 -4.96447 5
      vertex 1.91342 -3.8806 5
    endloop
  endfacet
  facet normal -0.55557 -0.83147 0
    outer loop
      vertex 1.91342 -3.8806 0
      vertex 3.53553 -4.96447 0
      vertex 1.91342 -3.8806 5
    endloop
  endfacet
  facet normal -0.83147 -0.55557 0
    outer loop
      vertex 4.6194 -6.58658 5
      vertex 3.53553 -4.96447 5
      vertex 4.6194 -6.58658 0
    endloop
  endfacet
  facet normal -0.83147 -0.55557 0
    outer loop
      vertex 4.6194 -6.58658 0
      vertex 3.53553 -4.96447 5
      vertex 3.53553 -4.96447 0
    endloop
  endfacet
  facet normal -0.980785 -0.19509 0
    outer loop
      vertex 5 -8.5 5
      vertex 4.6194 -6.58658 5
      vertex 5 -8.5 0
    endloop
  endfacet
  facet normal -0.980785 -0.19509 0
    outer loop
      vertex 5 -8.5 0
      vertex 4.6194 -6.58658 5
      vertex 4.6194 -6.58658 0
    endloop
  endfacet
  facet normal -0.980785 0.19509 0
    outer loop
      vertex 5 -8.5 5
      vertex 5 -8.5 0
      vertex 4.6194 -10.4134 5
    endloop
  endfacet
  facet normal -0.980785 0.19509 0
    outer loop
      vertex 4.6194 -10.4134 5
      vertex 5 -8.5 0
      vertex 4.6194 -10.4134 0
    endloop
  endfacet
  facet normal -0.83147 0.55557 0
    outer loop
      vertex 4.6194 -10.4134 5
      vertex 4.6194 -10.4134 0
      vertex 3.53553 -12.0355 5
    endloop
  endfacet
  facet normal -0.83147 0.55557 0
    outer loop
      vertex 3.53553 -12.0355 5
      vertex 4.6194 -10.4134 0
      vertex 3.53553 -12.0355 0
    endloop
  endfacet
  facet normal -0.55557 0.83147 0
    outer loop
      vertex 3.53553 -12.0355 5
      vertex 3.53553 -12.0355 0
      vertex 1.91342 -13.1194 5
    endloop
  endfacet
  facet normal -0.55557 0.83147 0
    outer loop
      vertex 1.91342 -13.1194 5
      vertex 3.53553 -12.0355 0
      vertex 1.91342 -13.1194 0
    endloop
  endfacet
  facet normal -0.19509 0.980785 0
    outer loop
      vertex 1.91342 -13.1194 5
      vertex 1.91342 -13.1194 0
      vertex 0 -13.5 5
    endloop
  endfacet
  facet normal -0.19509 0.980785 0
    outer loop
      vertex 0 -13.5 5
      vertex 1.91342 -13.1194 0
      vertex 0 -13.5 0
    endloop
  endfacet
  facet normal 0.19509 0.980785 0
    outer loop
      vertex 0 -13.5 5
      vertex 0 -13.5 0
      vertex -1.91342 -13.1194 5
    endloop
  endfacet
  facet normal 0.19509 0.980785 0
    outer loop
      vertex -1.91342 -13.1194 5
      vertex 0 -13.5 0
      vertex -1.91342 -13.1194 0
    endloop
  endfacet
  facet normal 0.55557 0.83147 0
    outer loop
      vertex -1.91342 -13.1194 5
      vertex -1.91342 -13.1194 0
      vertex -3.53553 -12.0355 5
    endloop
  endfacet
  facet normal 0.55557 0.83147 0
    outer loop
      vertex -3.53553 -12.0355 5
      vertex -1.91342 -13.1194 0
      vertex -3.53553 -12.0355 0
    endloop
  endfacet
  facet normal 0.83147 0.55557 0
    outer loop
      vertex -4.6194 -10.4134 5
      vertex -3.53553 -12.0355 5
      vertex -3.53553 -12.0355 0
    endloop
  endfacet
  facet normal 0.83147 0.55557 0
    outer loop
      vertex -4.6194 -10.4134 0
      vertex -4.6194 -10.4134 5
      vertex -3.53553 -12.0355 0
    endloop
  endfacet
  facet normal 0.980785 -0.19509 0
    outer loop
      vertex -4.6194 10.4134 0
      vertex -4.6194 10.4134 5
      vertex -5 8.5 5
    endloop
  endfacet
  facet normal 0.980785 -0.19509 0
    outer loop
      vertex -5 8.5 0
      vertex -4.6194 10.4134 0
      vertex -5 8.5 5
    endloop
  endfacet
  facet normal 0.980785 0.19509 0
    outer loop
      vertex -5 8.5 5
      vertex -4.6194 6.58658 5
      vertex -4.6194 6.58658 0
    endloop
  endfacet
  facet normal 0.980785 0.19509 0
    outer loop
      vertex -5 8.5 0
      vertex -5 8.5 5
      vertex -4.6194 6.58658 0
    endloop
  endfacet
  facet normal 0.83147 -0.55557 0
    outer loop
      vertex -3.53553 12.0355 0
      vertex -3.53553 12.0355 5
      vertex -4.6194 10.4134 5
    endloop
  endfacet
  facet normal 0.83147 -0.55557 0
    outer loop
      vertex -4.6194 10.4134 0
      vertex -3.53553 12.0355 0
      vertex -4.6194 10.4134 5
    endloop
  endfacet
  facet normal 0.55557 -0.83147 0
    outer loop
      vertex -1.91342 13.1194 0
      vertex -1.91342 13.1194 5
      vertex -3.53553 12.0355 5
    endloop
  endfacet
  facet normal 0.55557 -0.83147 0
    outer loop
      vertex -3.53553 12.0355 0
      vertex -1.91342 13.1194 0
      vertex -3.53553 12.0355 5
    endloop
  endfacet
  facet normal 0.19509 -0.980785 0
    outer loop
      vertex 0 13.5 0
      vertex 0 13.5 5
      vertex -1.91342 13.1194 5
    endloop
  endfacet
  facet normal 0.19509 -0.980785 0
    outer loop
      vertex -1.91342 13.1194 0
      vertex 0 13.5 0
      vertex -1.91342 13.1194 5
    endloop
  endfacet
  facet normal -0.19509 -0.980785 0
    outer loop
      vertex 1.91342 13.1194 0
      vertex 1.91342 13.1194 5
      vertex 0 13.5 5
    endloop
  endfacet
  facet normal -0.19509 -0.980785 0
    outer loop
      vertex 0 13.5 0
      vertex 1.91342 13.1194 0
      vertex 0 13.5 5
    endloop
  endfacet
  facet normal -0.55557 -0.83147 0
    outer loop
      vertex 3.53553 12.0355 0
      vertex 3.53553 12.0355 5
      vertex 1.91342 13.1194 5
    endloop
  endfacet
  facet normal -0.55557 -0.83147 0
    outer loop
      vertex 1.91342 13.1194 0
      vertex 3.53553 12.0355 0
      vertex 1.91342 13.1194 5
    endloop
  endfacet
  facet normal -0.83147 -0.55557 0
    outer loop
      vertex 4.6194 10.4134 5
      vertex 3.53553 12.0355 5
      vertex 4.6194 10.4134 0
    endloop
  endfacet
  facet normal -0.83147 -0.55557 0
    outer loop
      vertex 4.6194 10.4134 0
      vertex 3.53553 12.0355 5
      vertex 3.53553 12.0355 0
    endloop
  endfacet
  facet normal -0.980785 -0.19509 0
    outer loop
      vertex 5 8.5 5
      vertex 4.6194 10.4134 5
      vertex 5 8.5 0
    endloop
  endfacet
  facet normal -0.980785 -0.19509 0
    outer loop
      vertex 5 8.5 0
      vertex 4.6194 10.4134 5
      vertex 4.6194 10.4134 0
    endloop
  endfacet
  facet normal -0.980785 0.19509 0
    outer loop
      vertex 5 8.5 5
      vertex 5 8.5 0
      vertex 4.6194 6.58658 5
    endloop
  endfacet
  facet normal -0.980785 0.19509 0
    outer loop
      vertex 4.6194 6.58658 5
      vertex 5 8.5 0
      vertex 4.6194 6.58658 0
    endloop
  endfacet
  facet normal -0.83147 0.55557 0
    outer loop
      vertex 4.6194 6.58658 5
      vertex 4.6194 6.58658 0
      vertex 3.53553 4.96447 5
    endloop
  endfacet
  facet normal -0.83147 0.55557 0
    outer loop
      vertex 3.53553 4.96447 5
      vertex 4.6194 6.58658 0
      vertex 3.53553 4.96447 0
    endloop
  endfacet
  facet normal -0.55557 0.83147 0
    outer loop
      vertex 3.53553 4.96447 5
      vertex 3.53553 4.96447 0
      vertex 1.91342 3.8806 5
    endloop
  endfacet
  facet normal -0.55557 0.83147 0
    outer loop
      vertex 1.91342 3.8806 5
      vertex 3.53553 4.96447 0
      vertex 1.91342 3.8806 0
    endloop
  endfacet
  facet normal -0.19509 0.980785 0
    outer loop
      vertex 1.91342 3.8806 5
      vertex 1.91342 3.8806 0
      vertex 0 3.5 5
    endloop
  endfacet
  facet normal -0.19509 0.980785 0
    outer loop
      vertex 0 3.5 5
      vertex 1.91342 3.8806 0
      vertex 0 3.5 0
    endloop
  endfacet
  facet normal 0.19509 0.980785 0
    outer loop
      vertex 0 3.5 5
      vertex 0 3.5 0
      vertex -1.91342 3.8806 5
    endloop
  endfacet
  facet normal 0.19509 0.980785 0
    outer loop
      vertex -1.91342 3.8806 5
      vertex 0 3.5 0
      vertex -1.91342 3.8806 0
    endloop
  endfacet
  facet normal 0.55557 0.83147 0
    outer loop
      vertex -1.91342 3.8806 5
      vertex -1.91342 3.8806 0
      vertex -3.53553 4.96447 5
    endloop
  endfacet
  facet normal 0.55557 0.83147 0
    outer loop
      vertex -3.53553 4.96447 5
      vertex -1.91342 3.8806 0
      vertex -3.53553 4.96447 0
    endloop
  endfacet
  facet normal 0.83147 0.55557 0
    outer loop
      vertex -4.6194 6.58658 5
      vertex -3.53553 4.96447 5
      vertex -3.53553 4.96447 0
    endloop
  endfacet
  facet normal 0.83147 0.55557 0
    outer loop
      vertex -4.6194 6.58658 0
      vertex -4.6194 6.58658 5
      vertex -3.53553 4.96447 0
    endloop
  endfacet
  facet normal 0.980785 -0.19509 0
    outer loop
      vertex 3.8806 1.91342 0
      vertex 3.8806 1.91342 5
      vertex 3.5 0 5
    endloop
  endfacet
  facet normal 0.980785 -0.19509 0
    outer loop
      vertex 3.5 0 0
      vertex 3.8806 1.91342 0
      vertex 3.5 0 5
    endloop
  endfacet
  facet normal 0.980785 0.19509 0
    outer loop
      vertex 3.5 0 5
      vertex 3.8806 -1.91342 5
      vertex 3.8806 -1.91342 0
    endloop
  endfacet
  facet normal 0.980785 0.19509 0
    outer loop
      vertex 3.5 0 0
      vertex 3.5 0 5
      vertex 3.8806 -1.91342 0
    endloop
  endfacet
  facet normal 0.83147 -0.55557 0
    outer loop
      vertex 4.96447 3.53553 0
      vertex 4.96447 3.53553 5
      vertex 3.8806 1.91342 5
    endloop
  endfacet
  facet normal 0.83147 -0.55557 0
    outer loop
      vertex 3.8806 1.91342 0
      vertex 4.96447 3.53553 0
      vertex 3.8806 1.91342 5
    endloop
  endfacet
  facet normal 0.55557 -0.83147 0
    outer loop
      vertex 6.58658 4.6194 0
      vertex 6.58658 4.6194 5
      vertex 4.96447 3.53553 5
    endloop
  endfacet
  facet normal 0.55557 -0.83147 0
    outer loop
      vertex 4.96447 3.53553 0
      vertex 6.58658 4.6194 0
      vertex 4.96447 3.53553 5
    endloop
  endfacet
  facet normal 0.19509 -0.980785 0
    outer loop
      vertex 8.5 5 0
      vertex 8.5 5 5
      vertex 6.58658 4.6194 5
    endloop
  endfacet
  facet normal 0.19509 -0.980785 0
    outer loop
      vertex 6.58658 4.6194 0
      vertex 8.5 5 0
      vertex 6.58658 4.6194 5
    endloop
  endfacet
  facet normal -0.19509 -0.980785 0
    outer loop
      vertex 10.4134 4.6194 0
      vertex 10.4134 4.6194 5
      vertex 8.5 5 5
    endloop
  endfacet
  facet normal -0.19509 -0.980785 0
    outer loop
      vertex 8.5 5 0
      vertex 10.4134 4.6194 0
      vertex 8.5 5 5
    endloop
  endfacet
  facet normal -0.55557 -0.83147 0
    outer loop
      vertex 12.0355 3.53553 0
      vertex 12.0355 3.53553 5
      vertex 10.4134 4.6194 5
    endloop
  endfacet
  facet normal -0.55557 -0.83147 0
    outer loop
      vertex 10.4134 4.6194 0
      vertex 12.0355 3.53553 0
      vertex 10.4134 4.6194 5
    endloop
  endfacet
  facet normal -0.83147 -0.55557 0
    outer loop
      vertex 13.1194 1.91342 5
      vertex 12.0355 3.53553 5
      vertex 13.1194 1.91342 0
    endloop
  endfacet
  facet normal -0.83147 -0.55557 0
    outer loop
      vertex 13.1194 1.91342 0
      vertex 12.0355 3.53553 5
      vertex 12.0355 3.53553 0
    endloop
  endfacet
  facet normal -0.980785 -0.19509 0
    outer loop
      vertex 13.5 0 5
      vertex 13.1194 1.91342 5
      vertex 13.5 0 0
    endloop
  endfacet
  facet normal -0.980785 -0.19509 0
    outer loop
      vertex 13.5 0 0
      vertex 13.1194 1.91342 5
      vertex 13.1194 1.91342 0
    endloop
  endfacet
  facet normal -0.980785 0.19509 0
    outer loop
      vertex 13.5 0 5
      vertex 13.5 0 0
      vertex 13.1194 -1.91342 5
    endloop
  endfacet
  facet normal -0.980785 0.19509 0
    outer loop
      vertex 13.1194 -1.91342 5
      vertex 13.5 0 0
      vertex 13.1194 -1.91342 0
    endloop
  endfacet
  facet normal -0.83147 0.55557 0
    outer loop
      vertex 13.1194 -1.91342 5
      vertex 13.1194 -1.91342 0
      vertex 12.0355 -3.53553 5
    endloop
  endfacet
  facet normal -0.83147 0.55557 0
    outer loop
      vertex 12.0355 -3.53553 5
      vertex 13.1194 -1.91342 0
      vertex 12.0355 -3.53553 0
    endloop
  endfacet
  facet normal -0.55557 0.83147 0
    outer loop
      vertex 12.0355 -3.53553 5
      vertex 12.0355 -3.53553 0
      vertex 10.4134 -4.6194 5
    endloop
  endfacet
  facet normal -0.55557 0.83147 0
    outer loop
      vertex 10.4134 -4.6194 5
      vertex 12.0355 -3.53553 0
      vertex 10.4134 -4.6194 0
    endloop
  endfacet
  facet normal -0.19509 0.980785 0
    outer loop
      vertex 10.4134 -4.6194 5
      vertex 10.4134 -4.6194 0
      vertex 8.5 -5 5
    endloop
  endfacet
  facet normal -0.19509 0.980785 0
    outer loop
      vertex 8.5 -5 5
      vertex 10.4134 -4.6194 0
      vertex 8.5 -5 0
    endloop
  endfacet
  facet normal 0.19509 0.980785 0
    outer loop
      vertex 8.5 -5 5
      vertex 8.5 -5 0
      vertex 6.58658 -4.6194 5
    endloop
  endfacet
  facet normal 0.19509 0.980785 0
    outer loop
      vertex 6.58658 -4.6194 5
      vertex 8.5 -5 0
      vertex 6.58658 -4.6194 0
    endloop
  endfacet
  facet normal 0.55557 0.83147 0
    outer loop
      vertex 6.58658 -4.6194 5
      vertex 6.58658 -4.6194 0
      vertex 4.96447 -3.53553 5
    endloop
  endfacet
  facet normal 0.55557 0.83147 0
    outer loop
      vertex 4.96447 -3.53553 5
      vertex 6.58658 -4.6194 0
      vertex 4.96447 -3.53553 0
    endloop
  endfacet
  facet normal 0.83147 0.55557 0
    outer loop
      vertex 3.8806 -1.91342 5
      vertex 4.96447 -3.53553 5
      vertex 4.96447 -3.53553 0
    endloop
  endfacet
  facet normal 0.83147 0.55557 0
    outer loop
      vertex 3.8806 -1.91342 0
      vertex 3.8806 -1.91342 5
      vertex 4.96447 -3.53553 0
    endloop
  endfacet
  facet normal 0 0 1
    outer loop
      vertex -19.563 4.15823 5
      vertex -20 0 5
      vertex -19.563 -4.15823 5
    endloop
  endfacet
  facet normal 0 0 1
    outer loop
      vertex -16.1803 -11.7557 5
      vertex -19.563 4.15823 5
      vertex -18.2709 -8.13473 5
    endloop
  endfacet
  facet normal 0 0 1
    outer loop
      vertex -18.2709 -8.13473 5
      vertex -19.563 4.15823 5
      vertex -19.563 -4.15823 5
    endloop
  endfacet
  facet normal 0 0 1
    outer loop
      vertex -13.3826 -14.8629 5
      vertex -19.563 4.15823 5
      vertex -16.1803 -11.7557 5
    endloop
  endfacet
  facet normal 0 0 1
    outer loop
      vertex -10 -17.3205 5
      vertex -19.563 4.15823 5
      vertex -13.3826 -14.8629 5
    endloop
  endfacet
  facet normal 0 0 1
    outer loop
      vertex -6.18034 -19.0211 5
      vertex -19.563 4.15823 5
      vertex -10 -17.3205 5
    endloop
  endfacet
  facet normal 0 0 1
    outer loop
      vertex -2.09057 -19.8904 5
      vertex -19.563 4.15823 5
      vertex -6.18034 -19.0211 5
    endloop
  endfacet
  facet normal 0 0 1
    outer loop
      vertex 2.09057 -19.8904 5
      vertex -19.563 4.15823 5
      vertex -2.09057 -19.8904 5
    endloop
  endfacet
  facet normal 0 0 1
    outer loop
      vertex -12.0355 -3.53553 5
      vertex -19.563 4.15823 5
      vertex 2.09057 -19.8904 5
    endloop
  endfacet
  facet normal 0 0 1
    outer loop
      vertex -8.5 5 5
      vertex -4.6194 6.58658 5
      vertex -19.563 4.15823 5
    endloop
  endfacet
  facet normal 0 0 1
    outer loop
      vertex 8.5 -5 5
      vertex 6.58658 -4.6194 5
      vertex 18.2709 -8.13473 5
    endloop
  endfacet
  facet normal 0 0 1
    outer loop
      vertex -6.58658 4.6194 5
      vertex -4.96447 3.53553 5
      vertex -1.91342 3.8806 5
    endloop
  endfacet
  facet normal 0 0 1
    outer loop
      vertex -12.0355 3.53553 5
      vertex -10.4134 4.6194 5
      vertex -19.563 4.15823 5
    endloop
  endfacet
  facet normal 0 0 1
    outer loop
      vertex -3.5 0 5
      vertex -3.8806 -1.91342 5
      vertex 6.58658 -4.6194 5
    endloop
  endfacet
  facet normal 0 0 1
    outer loop
      vertex 5 8.5 5
      vertex 4.6194 6.58658 5
      vertex 18.2709 8.13473 5
    endloop
  endfacet
  facet normal 0 0 1
    outer loop
      vertex -4.6194 10.4134 5
      vertex -3.53553 12.0355 5
      vertex -19.563 4.15823 5
    endloop
  endfacet
  facet normal 0 0 1
    outer loop
      vertex 2.09057 19.8904 5
      vertex -19.563 4.15823 5
      vertex 6.18034 19.0211 5
    endloop
  endfacet
  facet normal 0 0 1
    outer loop
      vertex -2.09057 19.8904 5
      vertex -19.563 4.15823 5
      vertex 2.09057 19.8904 5
    endloop
  endfacet
  facet normal 0 0 1
    outer loop
      vertex -6.18034 19.0211 5
      vertex -19.563 4.15823 5
      vertex -2.09057 19.8904 5
    endloop
  endfacet
  facet normal 0 0 1
    outer loop
      vertex -10 17.3205 5
      vertex -19.563 4.15823 5
      vertex -6.18034 19.0211 5
    endloop
  endfacet
  facet normal 0 0 1
    outer loop
      vertex -13.3826 14.8629 5
      vertex -19.563 4.15823 5
      vertex -10 17.3205 5
    endloop
  endfacet
  facet normal 0 0 1
    outer loop
      vertex -16.1803 11.7557 5
      vertex -19.563 4.15823 5
      vertex -13.3826 14.8629 5
    endloop
  endfacet
  facet normal 0 0 1
    outer loop
      vertex -18.2709 8.13473 5
      vertex -19.563 4.15823 5
      vertex -16.1803 11.7557 5
    endloop
  endfacet
  facet normal 0 0 1
    outer loop
      vertex -13.5 0 5
      vertex -13.1194 1.91342 5
      vertex -19.563 4.15823 5
    endloop
  endfacet
  facet normal 0 0 1
    outer loop
      vertex -3.8806 -1.91342 5
      vertex -4.96447 -3.53553 5
      vertex -1.91342 -3.8806 5
    endloop
  endfacet
  facet normal 0 0 1
    outer loop
      vertex -4.96447 -3.53553 5
      vertex -6.58658 -4.6194 5
      vertex -3.53553 -4.96447 5
    endloop
  endfacet
  facet normal 0 0 1
    outer loop
      vertex 10.4134 -4.6194 5
      vertex 8.5 -5 5
      vertex 18.2709 -8.13473 5
    endloop
  endfacet
  facet normal 0 0 1
    outer loop
      vertex -8.5 5 5
      vertex -19.563 4.15823 5
      vertex -10.4134 4.6194 5
    endloop
  endfacet
  facet normal 0 0 1
    outer loop
      vertex -5 8.5 5
      vertex -4.6194 10.4134 5
      vertex -19.563 4.15823 5
    endloop
  endfacet
  facet normal 0 0 1
    outer loop
      vertex 4.96447 3.53553 5
      vertex 1.91342 3.8806 5
      vertex 0 3.5 5
    endloop
  endfacet
  facet normal 0 0 1
    outer loop
      vertex -3.5 0 5
      vertex 6.58658 -4.6194 5
      vertex 4.96447 -3.53553 5
    endloop
  endfacet
  facet normal 0 0 1
    outer loop
      vertex 0 3.5 5
      vertex -1.91342 3.8806 5
      vertex -4.96447 3.53553 5
    endloop
  endfacet
  facet normal 0 0 1
    outer loop
      vertex -1.91342 -3.8806 5
      vertex 0 -3.5 5
      vertex -3.8806 -1.91342 5
    endloop
  endfacet
  facet normal 0 0 1
    outer loop
      vertex -3.53553 -4.96447 5
      vertex -1.91342 -3.8806 5
      vertex -4.96447 -3.53553 5
    endloop
  endfacet
  facet normal 0 0 1
    outer loop
      vertex -3.53553 -12.0355 5
      vertex -10.4134 -4.6194 5
      vertex 2.09057 -19.8904 5
    endloop
  endfacet
  facet normal 0 0 1
    outer loop
      vertex -1.91342 -13.1194 5
      vertex -3.53553 -12.0355 5
      vertex 2.09057 -19.8904 5
    endloop
  endfacet
  facet normal 0 0 1
    outer loop
      vertex -13.1194 -1.91342 5
      vertex -19.563 4.15823 5
      vertex -12.0355 -3.53553 5
    endloop
  endfacet
  facet normal 0 0 1
    outer loop
      vertex 13.1194 1.91342 5
      vertex 13.5 0 5
      vertex 20 0 5
    endloop
  endfacet
  facet normal 0 0 1
    outer loop
      vertex 0 -13.5 5
      vertex -1.91342 -13.1194 5
      vertex 6.18034 -19.0211 5
    endloop
  endfacet
  facet normal 0 0 1
    outer loop
      vertex -8.5 -5 5
      vertex -10.4134 -4.6194 5
      vertex -5 -8.5 5
    endloop
  endfacet
  facet normal 0 0 1
    outer loop
      vertex -3.53553 4.96447 5
      vertex -8.5 5 5
      vertex -6.58658 4.6194 5
    endloop
  endfacet
  facet normal 0 0 1
    outer loop
      vertex -3.53553 4.96447 5
      vertex -4.6194 6.58658 5
      vertex -8.5 5 5
    endloop
  endfacet
  facet normal 0 0 1
    outer loop
      vertex 4.6194 -6.58658 5
      vertex 5 -8.5 5
      vertex 16.1803 -11.7557 5
    endloop
  endfacet
  facet normal 0 0 1
    outer loop
      vertex 1.91342 -3.8806 5
      vertex -3.8806 -1.91342 5
      vertex 0 -3.5 5
    endloop
  endfacet
  facet normal 0 0 1
    outer loop
      vertex 3.53553 -4.96447 5
      vertex 4.6194 -6.58658 5
      vertex 16.1803 -11.7557 5
    endloop
  endfacet
  facet normal 0 0 1
    outer loop
      vertex 18.2709 -8.13473 5
      vertex -3.8806 -1.91342 5
      vertex 1.91342 -3.8806 5
    endloop
  endfacet
  facet normal 0 0 1
    outer loop
      vertex 18.2709 -8.13473 5
      vertex 3.53553 -4.96447 5
      vertex 16.1803 -11.7557 5
    endloop
  endfacet
  facet normal 0 0 1
    outer loop
      vertex 16.1803 -11.7557 5
      vertex 5 -8.5 5
      vertex 13.3826 -14.8629 5
    endloop
  endfacet
  facet normal 0 0 1
    outer loop
      vertex 13.3826 -14.8629 5
      vertex 4.6194 -10.4134 5
      vertex 10 -17.3205 5
    endloop
  endfacet
  facet normal 0 0 1
    outer loop
      vertex 1.91342 -13.1194 5
      vertex 0 -13.5 5
      vertex 6.18034 -19.0211 5
    endloop
  endfacet
  facet normal 0 0 1
    outer loop
      vertex 4.6194 -10.4134 5
      vertex 3.53553 -12.0355 5
      vertex 10 -17.3205 5
    endloop
  endfacet
  facet normal 0 0 1
    outer loop
      vertex 3.53553 -12.0355 5
      vertex 1.91342 -13.1194 5
      vertex 10 -17.3205 5
    endloop
  endfacet
  facet normal 0 0 1
    outer loop
      vertex 10 -17.3205 5
      vertex 1.91342 -13.1194 5
      vertex 6.18034 -19.0211 5
    endloop
  endfacet
  facet normal 0 0 1
    outer loop
      vertex -10.4134 -4.6194 5
      vertex -12.0355 -3.53553 5
      vertex 2.09057 -19.8904 5
    endloop
  endfacet
  facet normal 0 0 1
    outer loop
      vertex -6.58658 -4.6194 5
      vertex -8.5 -5 5
      vertex -4.6194 -6.58658 5
    endloop
  endfacet
  facet normal 0 0 1
    outer loop
      vertex 6.18034 -19.0211 5
      vertex -1.91342 -13.1194 5
      vertex 2.09057 -19.8904 5
    endloop
  endfacet
  facet normal 0 0 1
    outer loop
      vertex -4.6194 -10.4134 5
      vertex -10.4134 -4.6194 5
      vertex -3.53553 -12.0355 5
    endloop
  endfacet
  facet normal 0 0 1
    outer loop
      vertex 4.6194 6.58658 5
      vertex 3.53553 4.96447 5
      vertex 18.2709 8.13473 5
    endloop
  endfacet
  facet normal 0 0 1
    outer loop
      vertex 3.53553 4.96447 5
      vertex 1.91342 3.8806 5
      vertex 6.58658 4.6194 5
    endloop
  endfacet
  facet normal 0 0 1
    outer loop
      vertex 0 13.5 5
      vertex 1.91342 13.1194 5
      vertex 10 17.3205 5
    endloop
  endfacet
  facet normal 0 0 1
    outer loop
      vertex 3.53553 12.0355 5
      vertex 4.6194 10.4134 5
      vertex 13.3826 14.8629 5
    endloop
  endfacet
  facet normal 0 0 1
    outer loop
      vertex 4.6194 10.4134 5
      vertex 5 8.5 5
      vertex 16.1803 11.7557 5
    endloop
  endfacet
  facet normal 0 0 1
    outer loop
      vertex 6.18034 19.0211 5
      vertex -19.563 4.15823 5
      vertex -3.53553 12.0355 5
    endloop
  endfacet
  facet normal 0 0 1
    outer loop
      vertex 6.18034 19.0211 5
      vertex -1.91342 13.1194 5
      vertex 10 17.3205 5
    endloop
  endfacet
  facet normal 0 0 1
    outer loop
      vertex 6.18034 19.0211 5
      vertex -3.53553 12.0355 5
      vertex -1.91342 13.1194 5
    endloop
  endfacet
  facet normal 0 0 1
    outer loop
      vertex -1.91342 13.1194 5
      vertex 0 13.5 5
      vertex 10 17.3205 5
    endloop
  endfacet
  facet normal 0 0 1
    outer loop
      vertex 10 17.3205 5
      vertex 1.91342 13.1194 5
      vertex 13.3826 14.8629 5
    endloop
  endfacet
  facet normal 0 0 1
    outer loop
      vertex 1.91342 13.1194 5
      vertex 3.53553 12.0355 5
      vertex 13.3826 14.8629 5
    endloop
  endfacet
  facet normal 0 0 1
    outer loop
      vertex 13.3826 14.8629 5
      vertex 4.6194 10.4134 5
      vertex 16.1803 11.7557 5
    endloop
  endfacet
  facet normal 0 0 1
    outer loop
      vertex 16.1803 11.7557 5
      vertex 5 8.5 5
      vertex 18.2709 8.13473 5
    endloop
  endfacet
  facet normal 0 0 1
    outer loop
      vertex -4.6194 6.58658 5
      vertex -5 8.5 5
      vertex -19.563 4.15823 5
    endloop
  endfacet
  facet normal 0 0 1
    outer loop
      vertex 3.5 0 5
      vertex 3.8806 1.91342 5
      vertex -3.8806 1.91342 5
    endloop
  endfacet
  facet normal 0 0 1
    outer loop
      vertex -4.96447 3.53553 5
      vertex -3.8806 1.91342 5
      vertex 3.8806 1.91342 5
    endloop
  endfacet
  facet normal 0 0 1
    outer loop
      vertex 4.96447 -3.53553 5
      vertex 3.8806 -1.91342 5
      vertex -3.5 0 5
    endloop
  endfacet
  facet normal 0 0 1
    outer loop
      vertex 4.96447 3.53553 5
      vertex 6.58658 4.6194 5
      vertex 1.91342 3.8806 5
    endloop
  endfacet
  facet normal 0 0 1
    outer loop
      vertex -3.8806 1.91342 5
      vertex -3.5 0 5
      vertex 3.5 0 5
    endloop
  endfacet
  facet normal 0 0 1
    outer loop
      vertex 13.1194 -1.91342 5
      vertex 12.0355 -3.53553 5
      vertex 19.563 -4.15823 5
    endloop
  endfacet
  facet normal 0 0 1
    outer loop
      vertex 6.58658 4.6194 5
      vertex 8.5 5 5
      vertex 3.53553 4.96447 5
    endloop
  endfacet
  facet normal 0 0 1
    outer loop
      vertex 10.4134 4.6194 5
      vertex 12.0355 3.53553 5
      vertex 19.563 4.15823 5
    endloop
  endfacet
  facet normal 0 0 1
    outer loop
      vertex -1.91342 3.8806 5
      vertex -3.53553 4.96447 5
      vertex -6.58658 4.6194 5
    endloop
  endfacet
  facet normal 0 0 1
    outer loop
      vertex 18.2709 8.13473 5
      vertex 8.5 5 5
      vertex 19.563 4.15823 5
    endloop
  endfacet
  facet normal 0 0 1
    outer loop
      vertex 18.2709 8.13473 5
      vertex 3.53553 4.96447 5
      vertex 8.5 5 5
    endloop
  endfacet
  facet normal 0 0 1
    outer loop
      vertex 8.5 5 5
      vertex 10.4134 4.6194 5
      vertex 19.563 4.15823 5
    endloop
  endfacet
  facet normal 0 0 1
    outer loop
      vertex 19.563 4.15823 5
      vertex 12.0355 3.53553 5
      vertex 20 0 5
    endloop
  endfacet
  facet normal 0 0 1
    outer loop
      vertex 12.0355 3.53553 5
      vertex 13.1194 1.91342 5
      vertex 20 0 5
    endloop
  endfacet
  facet normal 0 0 1
    outer loop
      vertex 20 0 5
      vertex 13.5 0 5
      vertex 19.563 -4.15823 5
    endloop
  endfacet
  facet normal 0 0 1
    outer loop
      vertex 3.8806 1.91342 5
      vertex 0 3.5 5
      vertex -4.96447 3.53553 5
    endloop
  endfacet
  facet normal 0 0 1
    outer loop
      vertex 13.5 0 5
      vertex 13.1194 -1.91342 5
      vertex 19.563 -4.15823 5
    endloop
  endfacet
  facet normal 0 0 1
    outer loop
      vertex 3.8806 1.91342 5
      vertex 4.96447 3.53553 5
      vertex 0 3.5 5
    endloop
  endfacet
  facet normal 0 0 1
    outer loop
      vertex 19.563 -4.15823 5
      vertex 12.0355 -3.53553 5
      vertex 18.2709 -8.13473 5
    endloop
  endfacet
  facet normal 0 0 1
    outer loop
      vertex 12.0355 -3.53553 5
      vertex 10.4134 -4.6194 5
      vertex 18.2709 -8.13473 5
    endloop
  endfacet
  facet normal 0 0 1
    outer loop
      vertex 5 -8.5 5
      vertex 4.6194 -10.4134 5
      vertex 13.3826 -14.8629 5
    endloop
  endfacet
  facet normal 0 0 1
    outer loop
      vertex 18.2709 -8.13473 5
      vertex 6.58658 -4.6194 5
      vertex -3.8806 -1.91342 5
    endloop
  endfacet
  facet normal 0 0 1
    outer loop
      vertex 1.91342 -3.8806 5
      vertex 3.53553 -4.96447 5
      vertex 18.2709 -8.13473 5
    endloop
  endfacet
  facet normal 0 0 1
    outer loop
      vertex 3.8806 -1.91342 5
      vertex 3.5 0 5
      vertex -3.5 0 5
    endloop
  endfacet
  facet normal 0 0 1
    outer loop
      vertex -4.6194 -10.4134 5
      vertex -5 -8.5 5
      vertex -10.4134 -4.6194 5
    endloop
  endfacet
  facet normal 0 0 1
    outer loop
      vertex -5 -8.5 5
      vertex -4.6194 -6.58658 5
      vertex -8.5 -5 5
    endloop
  endfacet
  facet normal 0 0 1
    outer loop
      vertex -13.1194 -1.91342 5
      vertex -13.5 0 5
      vertex -19.563 4.15823 5
    endloop
  endfacet
  facet normal 0 0 1
    outer loop
      vertex -4.6194 -6.58658 5
      vertex -3.53553 -4.96447 5
      vertex -6.58658 -4.6194 5
    endloop
  endfacet
  facet normal 0 0 1
    outer loop
      vertex -13.1194 1.91342 5
      vertex -12.0355 3.53553 5
      vertex -19.563 4.15823 5
    endloop
  endfacet
endsolid OpenSCAD_Model
