  0
SECTION
  2
HEADER
  9
$ACADVER
  1
AC1014
  9
$ACADMAINTVER
 70
     9
  9
$DWGCODEPAGE
  3
ANSI_1252
  9
$INSBASE
 10
0.0
 20
0.0
 30
0.0
  9
$EXTMIN
 10
1.000000000000000E+20
 20
1.000000000000000E+20
 30
1.000000000000000E+20
  9
$EXTMAX
 10
-1.000000000000000E+20
 20
-1.000000000000000E+20
 30
-1.000000000000000E+20
  9
$LIMMIN
 10
0.0
 20
0.0
  9
$LIMMAX
 10
12.0
 20
9.0
  9
$ORTHOMODE
 70
     0
  9
$REGENMODE
 70
     1
  9
$FILLMODE
 70
     1
  9
$QTEXTMODE
 70
     0
  9
$MIRRTEXT
 70
     1
  9
$DRAGMODE
 70
     2
  9
$LTSCALE
 40
1.0
  9
$OSMODE
 70
    37
  9
$ATTMODE
 70
     1
  9
$TEXTSIZE
 40
0.2
  9
$TRACEWID
 40
0.05
  9
$TEXTSTYLE
  7
STANDARD
  9
$CLAYER
  8
0
  9
$CELTYPE
  6
BYLAYER
  9
$CECOLOR
 62
   256
  9
$CELTSCALE
 40
1.0
  9
$DELOBJ
 70
     1
  9
$DISPSILH
 70
     0
  9
$DIMSCALE
 40
1.0
  9
$DIMASZ
 40
0.18
  9
$DIMEXO
 40
0.0625
  9
$DIMDLI
 40
0.38
  9
$DIMRND
 40
0.0
  9
$DIMDLE
 40
0.0
  9
$DIMEXE
 40
0.18
  9
$DIMTP
 40
0.0
  9
$DIMTM
 40
0.0
  9
$DIMTXT
 40
0.18
  9
$DIMCEN
 40
0.09
  9
$DIMTSZ
 40
0.0
  9
$DIMTOL
 70
     0
  9
$DIMLIM
 70
     0
  9
$DIMTIH
 70
     1
  9
$DIMTOH
 70
     1
  9
$DIMSE1
 70
     0
  9
$DIMSE2
 70
     0
  9
$DIMTAD
 70
     0
  9
$DIMZIN
 70
     0
  9
$DIMBLK
  1

  9
$DIMASO
 70
     1
  9
$DIMSHO
 70
     1
  9
$DIMPOST
  1

  9
$DIMAPOST
  1

  9
$DIMALT
 70
     0
  9
$DIMALTD
 70
     2
  9
$DIMALTF
 40
25.4
  9
$DIMLFAC
 40
1.0
  9
$DIMTOFL
 70
     0
  9
$DIMTVP
 40
0.0
  9
$DIMTIX
 70
     0
  9
$DIMSOXD
 70
     0
  9
$DIMSAH
 70
     0
  9
$DIMBLK1
  1

  9
$DIMBLK2
  1

  9
$DIMSTYLE
  2
STANDARD
  9
$DIMCLRD
 70
     0
  9
$DIMCLRE
 70
     0
  9
$DIMCLRT
 70
     0
  9
$DIMTFAC
 40
1.0
  9
$DIMGAP
 40
0.09
  9
$DIMJUST
 70
     0
  9
$DIMSD1
 70
     0
  9
$DIMSD2
 70
     0
  9
$DIMTOLJ
 70
     1
  9
$DIMTZIN
 70
     0
  9
$DIMALTZ
 70
     0
  9
$DIMALTTZ
 70
     0
  9
$DIMFIT
 70
     3
  9
$DIMUPT
 70
     0
  9
$DIMUNIT
 70
     2
  9
$DIMDEC
 70
     4
  9
$DIMTDEC
 70
     4
  9
$DIMALTU
 70
     2
  9
$DIMALTTD
 70
     2
  9
$DIMTXSTY
  7
STANDARD
  9
$DIMAUNIT
 70
     0
  9
$LUNITS
 70
     2
  9
$LUPREC
 70
     4
  9
$SKETCHINC
 40
0.1
  9
$FILLETRAD
 40
0.5
  9
$AUNITS
 70
     0
  9
$AUPREC
 70
     0
  9
$MENU
  1
.
  9
$ELEVATION
 40
0.0
  9
$PELEVATION
 40
0.0
  9
$THICKNESS
 40
0.0
  9
$LIMCHECK
 70
     0
  9
$CHAMFERA
 40
0.5
  9
$CHAMFERB
 40
0.5
  9
$CHAMFERC
 40
1.0
  9
$CHAMFERD
 40
0.0
  9
$SKPOLY
 70
     0
  9
$TDCREATE
 40
2456592.448667199
  9
$TDUPDATE
 40
2456592.448667211
  9
$TDINDWG
 40
0.0000000116
  9
$TDUSRTIMER
 40
0.0000000116
  9
$USRTIMER
 70
     1
  9
$ANGBASE
 50
0.0
  9
$ANGDIR
 70
     0
  9
$PDMODE
 70
     0
  9
$PDSIZE
 40
0.0
  9
$PLINEWID
 40
0.0
  9
$COORDS
 70
     1
  9
$SPLFRAME
 70
     0
  9
$SPLINETYPE
 70
     6
  9
$SPLINESEGS
 70
     8
  9
$ATTDIA
 70
     0
  9
$ATTREQ
 70
     1
  9
$HANDLING
 70
     1
  9
$HANDSEED
  5
109
  9
$SURFTAB1
 70
     6
  9
$SURFTAB2
 70
     6
  9
$SURFTYPE
 70
     6
  9
$SURFU
 70
     6
  9
$SURFV
 70
     6
  9
$UCSNAME
  2

  9
$UCSORG
 10
0.0
 20
0.0
 30
0.0
  9
$UCSXDIR
 10
1.0
 20
0.0
 30
0.0
  9
$UCSYDIR
 10
0.0
 20
1.0
 30
0.0
  9
$PUCSNAME
  2

  9
$PUCSORG
 10
0.0
 20
0.0
 30
0.0
  9
$PUCSXDIR
 10
1.0
 20
0.0
 30
0.0
  9
$PUCSYDIR
 10
0.0
 20
1.0
 30
0.0
  9
$USERI1
 70
     0
  9
$USERI2
 70
     0
  9
$USERI3
 70
     0
  9
$USERI4
 70
     0
  9
$USERI5
 70
     0
  9
$USERR1
 40
0.0
  9
$USERR2
 40
0.0
  9
$USERR3
 40
0.0
  9
$USERR4
 40
0.0
  9
$USERR5
 40
0.0
  9
$WORLDVIEW
 70
     1
  9
$SHADEDGE
 70
     3
  9
$SHADEDIF
 70
    70
  9
$TILEMODE
 70
     1
  9
$MAXACTVP
 70
    64
  9
$PINSBASE
 10
0.0
 20
0.0
 30
0.0
  9
$PLIMCHECK
 70
     0
  9
$PEXTMIN
 10
1.000000000000000E+20
 20
1.000000000000000E+20
 30
1.000000000000000E+20
  9
$PEXTMAX
 10
-1.000000000000000E+20
 20
-1.000000000000000E+20
 30
-1.000000000000000E+20
  9
$PLIMMIN
 10
0.0
 20
0.0
  9
$PLIMMAX
 10
12.0
 20
9.0
  9
$UNITMODE
 70
     0
  9
$VISRETAIN
 70
     1
  9
$PLINEGEN
 70
     0
  9
$PSLTSCALE
 70
     1
  9
$TREEDEPTH
 70
  3020
  9
$PICKSTYLE
 70
     1
  9
$CMLSTYLE
  2
STANDARD
  9
$CMLJUST
 70
     0
  9
$CMLSCALE
 40
1.0
  9
$PROXYGRAPHICS
 70
     1
  9
$MEASUREMENT
 70
     0
  0
ENDSEC
  0
SECTION
  2
CLASSES
  0
CLASS
  1
ACDBDICTIONARYWDFLT
  2
AcDbDictionaryWithDefault
  3
ObjectDBX Classes
 90
        0
280
     0
281
     0
  0
CLASS
  1
VISUALSTYLE
  2
AcDbVisualStyle
  3
ObjectDBX Classes
 90
     4095
280
     0
281
     0
  0
CLASS
  1
MATERIAL
  2
AcDbMaterial
  3
ObjectDBX Classes
 90
     1153
280
     0
281
     0
  0
CLASS
  1
DICTIONARYVAR
  2
AcDbDictionaryVar
  3
ObjectDBX Classes
 90
        0
280
     0
281
     0
  0
CLASS
  1
XRECORD
  2
AcDbXrecord
  3
AutoCAD 2000
 90
        0
280
     0
281
     0
  0
CLASS
  1
LWPOLYLINE
  2
AcDbPolyline
  3
AutoCAD 2000
 90
        0
280
     0
281
     1
  0
CLASS
  1
HATCH
  2
AcDbHatch
  3
AutoCAD 2000
 90
        0
280
     0
281
     1
  0
CLASS
  1
ACDBPLACEHOLDER
  2
AcDbPlaceHolder
  3
ObjectDBX Classes
 90
        0
280
     0
281
     0
  0
CLASS
  1
LAYOUT
  2
AcDbLayout
  3
ObjectDBX Classes
 90
        0
280
     0
281
     0
  0
ENDSEC
  0
SECTION
  2
TABLES
  0
TABLE
  2
VPORT
  5
8
330
0
100
AcDbSymbolTable
 70
     1
  0
VPORT
  5
29
330
8
100
AcDbSymbolTableRecord
100
AcDbViewportTableRecord
  2
*ACTIVE
 70
     0
 10
0.0
 20
0.0
 11
1.0
 21
1.0
 12
0.0
 22
0.0
 13
0.0
 23
0.0
 14
0.5
 24
0.5
 15
0.5
 25
0.5
 16
-175.3502402593939
 26
-48.40627211669528
 36
5.247678606779668
 17
2.508784559164468
 27
9.84913193448071
 37
16.75558038188572
 40
3.3782
 41
1.3333
 42
50.0
 43
-181.9592478965266
 44
-156.5846478965266
 50
0.0
 51
0.0
 71
     0
 72
   100
 73
     1
 74
     3
 75
     0
 76
     0
 77
     0
 78
     0
  0
ENDTAB
  0
TABLE
  2
LTYPE
  5
5
330
0
100
AcDbSymbolTable
 70
     1
  0
LTYPE
  5
14
330
5
100
AcDbSymbolTableRecord
100
AcDbLinetypeTableRecord
  2
BYBLOCK
 70
     0
  3

 72
    65
 73
     0
 40
0.0
  0
LTYPE
  5
15
330
5
100
AcDbSymbolTableRecord
100
AcDbLinetypeTableRecord
  2
BYLAYER
 70
     0
  3

 72
    65
 73
     0
 40
0.0
  0
LTYPE
  5
16
330
5
100
AcDbSymbolTableRecord
100
AcDbLinetypeTableRecord
  2
CONTINUOUS
 70
     0
  3
Solid line
 72
    65
 73
     0
 40
0.0
  0
ENDTAB
  0
TABLE
  2
LAYER
  5
2
330
0
100
AcDbSymbolTable
 70
     1
  0
LAYER
  5
10
330
2
100
AcDbSymbolTableRecord
100
AcDbLayerTableRecord
  2
0
 70
     0
 62
   144
  6
CONTINUOUS
  0
ENDTAB
  0
TABLE
  2
STYLE
  5
3
330
0
100
AcDbSymbolTable
 70
     3
  0
STYLE
  5
11
330
3
100
AcDbSymbolTableRecord
100
AcDbTextStyleTableRecord
  2
STANDARD
 70
     0
 40
0.0
 41
1.0
 50
0.0
 71
     0
 42
0.2
  3
txt
  4

  0
STYLE
  5
3F
330
3
100
AcDbSymbolTableRecord
100
AcDbTextStyleTableRecord
  2
ARIAL
 70
     0
 40
0.0
 41
1.0
 50
0.0
 71
     0
 42
0.2
  3
Arial
  4

1001
ACAD
1000
Arial
1071
       34
  0
STYLE
  5
40
330
3
100
AcDbSymbolTableRecord
100
AcDbTextStyleTableRecord
  2
TAHOMA
 70
     0
 40
0.0
 41
1.0
 50
0.0
 71
     0
 42
0.2
  3
Tahoma
  4

1001
ACAD
1000
Tahoma
1071
       34
  0
ENDTAB
  0
TABLE
  2
VIEW
  5
6
330
0
100
AcDbSymbolTable
 70
     0
  0
ENDTAB
  0
TABLE
  2
UCS
  5
7
330
0
100
AcDbSymbolTable
 70
     0
  0
ENDTAB
  0
TABLE
  2
APPID
  5
9
330
0
100
AcDbSymbolTable
 70
     1
  0
APPID
  5
12
330
9
100
AcDbSymbolTableRecord
100
AcDbRegAppTableRecord
  2
ACAD
 70
     0
  0
ENDTAB
  0
TABLE
  2
DIMSTYLE
  5
A
330
0
100
AcDbSymbolTable
 70
     1
  0
DIMSTYLE
105
27
330
A
100
AcDbSymbolTableRecord
100
AcDbDimStyleTableRecord
  2
STANDARD
 70
     0
  3

  4

  5

  6

  7

 40
1.0
 41
0.18
 42
0.0625
 43
0.38
 44
0.18
 45
0.0
 46
0.0
 47
0.0
 48
0.0
140
0.18
141
0.09
142
0.0
143
25.4
144
1.0
145
0.0
146
1.0
147
0.09
 71
     0
 72
     0
 73
     1
 74
     1
 75
     0
 76
     0
 77
     0
 78
     0
170
     0
171
     2
172
     0
173
     0
174
     0
175
     0
176
     0
177
     0
178
     0
270
     2
271
     4
272
     4
273
     2
274
     2
340
11
275
     0
280
     0
281
     0
282
     0
283
     1
284
     0
285
     0
286
     0
287
     3
288
     0
  0
ENDTAB
  0
TABLE
  2
BLOCK_RECORD
  5
1
330
0
100
AcDbSymbolTable
 70
     1
  0
BLOCK_RECORD
  5
1F
330
1
100
AcDbSymbolTableRecord
100
AcDbBlockTableRecord
  2
*MODEL_SPACE
  0
BLOCK_RECORD
  5
1B
330
1
100
AcDbSymbolTableRecord
100
AcDbBlockTableRecord
  2
*PAPER_SPACE
  0
ENDTAB
  0
ENDSEC
  0
SECTION
  2
BLOCKS
  0
BLOCK
  5
20
330
1F
100
AcDbEntity
  8
0
100
AcDbBlockBegin
  2
*MODEL_SPACE
 70
     0
 10
0.0
 20
0.0
 30
0.0
  3
*MODEL_SPACE
  1

  0
ENDBLK
  5
21
330
1F
100
AcDbEntity
  8
0
100
AcDbBlockEnd
  0
BLOCK
  5
1C
330
1B
100
AcDbEntity
 67
     1
  8
0
100
AcDbBlockBegin
  2
*PAPER_SPACE
 70
     0
 10
0.0
 20
0.0
 30
0.0
  3
*PAPER_SPACE
  1

  0
ENDBLK
  5
1D
330
1B
100
AcDbEntity
 67
     1
  8
0
100
AcDbBlockEnd
  0
ENDSEC
  0
SECTION
  2
ENTITIES
  0
LINE
  5
41
330
1F
100
AcDbEntity
  8
0
100
AcDbLine
 10
1.205851831163004
 20
-0.5416114156918578
 30
0.0
 11
-3.208865906932139
 21
2.51394553729529
 31
-0.0000000000000014
  0
LINE
  5
42
330
1F
100
AcDbEntity
  8
0
100
AcDbLine
 10
23.08220706073995
 20
-1.455832947673916
 30
1.729001480447304
 11
23.97246500971735
 21
-1.232661953881111
 31
1.729001480447304
  0
LINE
  5
43
330
1F
100
AcDbEntity
  8
0
100
AcDbLine
 10
25.64942898848819
 20
-3.353599884155027
 30
2.292468147113969
 11
25.71001694510858
 21
-3.338411618207636
 31
2.292468147113969
  0
LINE
  5
44
330
1F
100
AcDbEntity
  8
0
100
AcDbLine
 10
-2.590012216742467
 20
17.52183641713726
 30
-3.905665186219365
 11
6.596945655804964
 21
19.82483468938418
 31
-3.905665186219365
  0
LINE
  5
45
330
1F
100
AcDbEntity
  8
0
100
AcDbLine
 10
-30.82945342197315
 20
38.39727271842956
 30
-10.1037985195527
 11
-16.37761941549698
 21
42.02007682937135
 31
-10.1037985195527
  0
LINE
  5
46
330
1F
100
AcDbEntity
  8
0
100
AcDbLine
 10
-28.26223149422491
 20
36.49950578194844
 30
-9.540331852886037
 11
-10.77857369810744
 21
40.88233133264948
 31
-9.540331852886037
  0
LINE
  5
47
330
1F
100
AcDbEntity
  8
0
100
AcDbLine
 10
-23.12778763872842
 20
32.7039719089862
 30
-8.413398519552702
 11
-7.303469827324959
 21
36.67083200399642
 31
-8.413398519552702
  0
LINE
  5
48
330
1F
100
AcDbEntity
  8
0
100
AcDbLine
 10
-33.39667534972139
 20
40.29503965491067
 30
-10.66726518621937
 11
-27.61118034529906
 21
41.74535489354834
 31
-10.66726518621937
  0
LINE
  5
49
330
1F
100
AcDbEntity
  8
0
100
AcDbLine
 10
-20.56056571098018
 20
30.80620497250509
 30
-7.849931852886033
 11
-5.565917891933713
 21
34.56508233966989
 31
-7.849931852886033
  0
LINE
  5
4A
330
1F
100
AcDbEntity
  8
0
100
AcDbLine
 10
-5.157234144490734
 20
19.41960335361838
 30
-4.469131852886032
 11
4.859393720413722
 21
21.93058435371071
 31
-4.469131852886032
  0
LINE
  5
4B
330
1F
100
AcDbEntity
  8
0
100
AcDbLine
 10
-25.69500956647667
 20
34.60173884546733
 30
-8.976865186219369
 11
-9.041021762716195
 21
38.77658166832295
 31
-8.976865186219369
  0
LINE
  5
4C
330
1F
100
AcDbEntity
  8
0
100
AcDbLine
 10
-15.42612185548368
 20
27.01067109954285
 30
-6.7229985195527
 11
-2.090814021151233
 21
30.35358301101683
 31
-6.7229985195527
  0
LINE
  5
4D
330
1F
100
AcDbEntity
  8
0
100
AcDbLine
 10
-17.99334378323193
 20
28.90843803602397
 30
-7.286465186219368
 11
-3.828365956542479
 21
32.45933267534335
 31
-7.286465186219368
  0
LINE
  5
4E
330
1F
100
AcDbEntity
  8
0
100
AcDbLine
 10
-0.0227902889942313
 20
15.62406948065614
 30
-3.342198519552698
 11
8.334497591196198
 21
17.71908502505765
 31
-3.342198519552698
  0
LINE
  5
4F
330
1F
100
AcDbEntity
  8
0
100
AcDbLine
 10
5.111653566502262
 20
11.82853560769391
 30
-2.215265186219364
 11
11.80960146197868
 21
13.50758569640459
 31
-2.215265186219364
  0
LINE
  5
50
330
1F
100
AcDbEntity
  8
0
100
AcDbLine
 10
2.54443163875401
 20
13.72630254417503
 30
-2.778731852886032
 11
10.07204952658744
 21
15.61333536073112
 31
-2.778731852886032
  0
LINE
  5
51
330
1F
100
AcDbEntity
  8
0
100
AcDbLine
 10
7.678875494250502
 20
9.930768671212789
 30
-1.651798519552697
 11
13.54715339736992
 21
11.40183603207806
 31
-1.651798519552697
  0
LINE
  5
52
330
1F
100
AcDbEntity
  8
0
100
AcDbLine
 10
-34.01924053778651
 20
-3.063531648162862
 30
-1.08833185288603
 11
10.24609742199875
 21
8.033001734731672
 31
-1.08833185288603
  0
LINE
  5
53
330
1F
100
AcDbEntity
  8
0
100
AcDbLine
 10
-31.15158247071043
 20
-4.885984584951762
 30
-0.5248651862193631
 11
12.81331934974699
 21
6.135234798250553
 31
-0.5248651862193632
  0
LINE
  5
54
330
1F
100
AcDbEntity
  8
0
100
AcDbLine
 10
-19.91795574809776
 20
-4.611237890038999
 30
0.0386014804473039
 11
15.38054127749524
 21
4.237467861769437
 31
0.0386014804473039
  0
LINE
  5
55
330
1F
100
AcDbEntity
  8
0
100
AcDbLine
 10
10.24609742199875
 20
8.033001734731672
 30
-1.08833185288603
 11
15.28470533276116
 21
9.296086367751531
 31
-1.08833185288603
  0
LINE
  5
56
330
1F
100
AcDbEntity
  8
0
100
AcDbLine
 10
12.81331934974699
 20
6.135234798250553
 30
-0.5248651862193632
 11
17.0222572681524
 21
7.190336703425003
 31
-0.5248651862193632
  0
LINE
  5
57
330
1F
100
AcDbEntity
  8
0
100
AcDbLine
 10
15.38054127749524
 20
4.237467861769437
 30
0.0386014804473039
 11
18.75980920354364
 21
5.084587039098473
 31
0.0386014804473039
  0
LINE
  5
58
330
1F
100
AcDbEntity
  8
0
100
AcDbLine
 10
17.94776320524348
 20
2.339700925288317
 30
0.6020681471139709
 11
20.49736113893488
 21
2.978837374771945
 31
0.6020681471139709
  0
LINE
  5
59
330
1F
100
AcDbEntity
  8
0
100
AcDbLine
 10
20.51498513299172
 20
0.4419339888072
 30
1.165534813780638
 11
22.23491307432612
 21
0.873087710445414
 31
1.165534813780638
  0
LINE
  5
5A
330
1F
100
AcDbEntity
  8
0
100
AcDbLine
 10
-34.20454040251445
 20
4.513988489022791
 30
-2.778731852886032
 11
2.54443163875401
 21
13.72630254417503
 31
-2.778731852886032
  0
LINE
  5
5B
330
1F
100
AcDbEntity
  8
0
100
AcDbLine
 10
-34.08100715936249
 20
-0.5376916024343105
 30
-1.651798519552697
 11
7.678875494250502
 21
9.930768671212789
 31
-1.651798519552697
  0
LINE
  5
5C
330
1F
100
AcDbEntity
  8
0
100
AcDbLine
 10
-8.684329025485098
 20
-4.336491195126238
 30
0.6020681471139709
 11
17.94776320524348
 21
2.339700925288317
 31
0.6020681471139709
  0
LINE
  5
5D
330
1F
100
AcDbEntity
  8
0
100
AcDbLine
 10
2.549297697127562
 20
-4.061744500213477
 30
1.165534813780638
 11
20.51498513299172
 21
0.4419339888072
 31
1.165534813780638
  0
LINE
  5
5E
330
1F
100
AcDbEntity
  8
0
100
AcDbLine
 10
13.78292441974019
 20
-3.786997805300719
 30
1.729001480447304
 11
23.08220706073995
 21
-1.455832947673916
 31
1.729001480447304
  0
LINE
  5
5F
330
1F
100
AcDbEntity
  8
0
100
AcDbLine
 10
25.01655114235284
 20
-3.512251110387956
 30
2.292468147113969
 11
25.64942898848819
 21
-3.353599884155027
 31
2.292468147113969
  0
LINE
  5
60
330
1F
100
AcDbEntity
  8
0
100
AcDbLine
 10
-34.45160688881838
 20
14.61734867193699
 30
-5.0325985195527
 11
-7.72445607223896
 21
21.3173702900995
 31
-5.0325985195527
  0
LINE
  5
61
330
1F
100
AcDbEntity
  8
0
100
AcDbLine
 10
-34.32807364566641
 20
9.565668580479892
 30
-3.905665186219365
 11
-2.590012216742467
 21
17.52183641713726
 31
-3.905665186219365
  0
LINE
  5
62
330
1F
100
AcDbEntity
  8
0
100
AcDbLine
 10
-34.57514013197034
 20
19.6690287633941
 30
-6.159531852886033
 11
-12.85889992773545
 21
25.11290416306174
 31
-6.159531852886033
  0
LINE
  5
63
330
1F
100
AcDbEntity
  8
0
100
AcDbLine
 10
-35.0075064830022
 20
37.34990908349396
 30
-10.1037985195527
 11
-30.82945342197315
 21
38.39727271842956
 31
-10.1037985195527
  0
LINE
  5
64
330
1F
100
AcDbEntity
  8
0
100
AcDbLine
 10
-34.94573986142622
 20
34.82406903776541
 30
-9.540331852886036
 11
-28.26223149422491
 21
36.49950578194844
 31
-9.540331852886037
  0
LINE
  5
65
330
1F
100
AcDbEntity
  8
0
100
AcDbLine
 10
-34.82220661827426
 20
29.77238894630831
 30
-8.413398519552702
 11
-23.12778763872842
 21
32.7039719089862
 31
-8.413398519552702
  0
LINE
  5
66
330
1F
100
AcDbEntity
  8
0
100
AcDbLine
 10
-35.06927310457819
 20
39.87574912922251
 30
-10.66726518621937
 11
-33.39667534972139
 21
40.29503965491067
 31
-10.66726518621937
  0
LINE
  5
67
330
1F
100
AcDbEntity
  8
0
100
AcDbLine
 10
-34.76043999669827
 20
27.24654890057975
 30
-7.849931852886034
 11
-20.56056571098018
 21
30.80620497250509
 31
-7.849931852886033
  0
LINE
  5
68
330
1F
100
AcDbEntity
  8
0
100
AcDbLine
 10
-34.38984026724239
 20
12.09150862620844
 30
-4.469131852886032
 11
-5.157234144490734
 21
19.41960335361838
 31
-4.469131852886032
  0
LINE
  5
69
330
1F
100
AcDbEntity
  8
0
100
AcDbLine
 10
-34.88397323985023
 20
32.29822899203685
 30
-8.976865186219369
 11
-25.69500956647667
 21
34.60173884546733
 31
-8.976865186219369
  0
LINE
  5
6A
330
1F
100
AcDbEntity
  8
0
100
AcDbLine
 10
-34.63690675354632
 20
22.19486880912266
 30
-6.7229985195527
 11
-15.42612185548368
 21
27.01067109954285
 31
-6.7229985195527
  0
LINE
  5
6B
330
1F
100
AcDbEntity
  8
0
100
AcDbLine
 10
-34.69867337512229
 20
24.72070885485121
 30
-7.286465186219368
 11
-17.99334378323193
 21
28.90843803602397
 31
-7.286465186219368
  0
LINE
  5
6C
330
1F
100
AcDbEntity
  8
0
100
AcDbLine
 10
-34.26630702409043
 20
7.039828534751341
 30
-3.342198519552698
 11
-0.0227902889942313
 21
15.62406948065614
 31
-3.342198519552698
  0
LINE
  5
6D
330
1F
100
AcDbEntity
  8
0
100
AcDbLine
 10
-34.14277378093846
 20
1.988148443294241
 30
-2.215265186219364
 11
5.111653566502262
 21
11.82853560769391
 31
-2.215265186219364
  0
LINE
  5
6E
330
1F
100
AcDbEntity
  8
0
100
AcDbLine
 10
10.07204952658744
 20
15.61333536073112
 30
-2.778731852886032
 11
25.38310007073016
 21
15.05968300785335
 31
-2.778731852886031
  0
LINE
  5
6F
330
1F
100
AcDbEntity
  8
0
100
AcDbLine
 10
13.54715339736992
 20
11.40183603207806
 30
-1.651798519552697
 11
25.48313379921222
 21
10.97022726595646
 31
-1.651798519552697
  0
LINE
  5
70
330
1F
100
AcDbEntity
  8
0
100
AcDbLine
 10
15.28470533276116
 20
9.296086367751531
 30
-1.08833185288603
 11
25.53315066345324
 21
8.92549939500802
 31
-1.08833185288603
  0
LINE
  5
71
330
1F
100
AcDbEntity
  8
0
100
AcDbLine
 10
17.0222572681524
 20
7.190336703425003
 30
-0.5248651862193632
 11
25.58316752769427
 21
6.880771524059576
 31
-0.5248651862193632
  0
LINE
  5
72
330
1F
100
AcDbEntity
  8
0
100
AcDbLine
 10
18.75980920354364
 20
5.084587039098473
 30
0.0386014804473039
 11
25.63318439193529
 21
4.836043653111132
 31
0.0386014804473039
  0
LINE
  5
73
330
1F
100
AcDbEntity
  8
0
100
AcDbLine
 10
20.49736113893488
 20
2.978837374771945
 30
0.6020681471139709
 11
25.68320125617632
 21
2.791315782162689
 31
0.6020681471139709
  0
LINE
  5
74
330
1F
100
AcDbEntity
  8
0
100
AcDbLine
 10
22.23491307432612
 20
0.873087710445414
 30
1.165534813780638
 11
25.73321812041735
 21
0.7465879112142458
 31
1.165534813780638
  0
LINE
  5
75
330
1F
100
AcDbEntity
  8
0
100
AcDbLine
 10
23.97246500971735
 20
-1.232661953881111
 30
1.729001480447304
 11
25.78323498465837
 21
-1.298139959734193
 31
1.729001480447304
  0
LINE
  5
76
330
1F
100
AcDbEntity
  8
0
100
AcDbLine
 10
25.71001694510858
 20
-3.338411618207636
 30
2.292468147113969
 11
25.8332518488994
 21
-3.342867830682631
 31
2.292468147113969
  0
LINE
  5
77
330
1F
100
AcDbEntity
  8
0
100
AcDbLine
 10
3.121841785022482
 20
24.03633401803724
 30
-5.0325985195527
 11
25.18303261376605
 21
23.23859449164713
 31
-5.0325985195527
  0
LINE
  5
78
330
1F
100
AcDbEntity
  8
0
100
AcDbLine
 10
6.596945655804964
 20
19.82483468938418
 30
-3.905665186219365
 11
25.28306634224811
 21
19.14913874975024
 31
-3.905665186219365
  0
LINE
  5
79
330
1F
100
AcDbEntity
  8
0
100
AcDbLine
 10
-0.3532620857599996
 20
28.2478333466903
 30
-6.159531852886033
 11
25.082998885284
 21
27.32805023354401
 31
-6.159531852886033
  0
LINE
  5
7A
330
1F
100
AcDbEntity
  8
0
100
AcDbLine
 10
1.894615757722602
 20
42.46698410326773
 30
-10.1037985195527
 11
24.73288083559681
 21
41.64114533018311
 31
-10.1037985195527
  0
LINE
  5
7B
330
1F
100
AcDbEntity
  8
0
100
AcDbLine
 10
-10.77857369810744
 20
40.88233133264948
 30
-9.540331852886037
 11
24.78289769983784
 21
39.59641745923467
 31
-9.540331852886036
  0
LINE
  5
7C
330
1F
100
AcDbEntity
  8
0
100
AcDbLine
 10
-7.303469827324959
 20
36.67083200399642
 30
-8.413398519552702
 11
24.88293142831989
 21
35.50696171733778
 31
-8.413398519552702
  0
LINE
  5
7D
330
1F
100
AcDbEntity
  8
0
100
AcDbLine
 10
-5.565917891933713
 20
34.56508233966989
 30
-7.849931852886033
 11
24.93294829256092
 21
33.46223384638934
 31
-7.849931852886034
  0
LINE
  5
7E
330
1F
100
AcDbEntity
  8
0
100
AcDbLine
 10
1.384289849631243
 20
26.14208368236377
 30
-5.596065186219366
 11
25.13301574952502
 21
25.28332236259557
 31
-5.596065186219366
  0
LINE
  5
7F
330
1F
100
AcDbEntity
  8
0
100
AcDbLine
 10
4.859393720413722
 20
21.93058435371071
 30
-4.469131852886032
 11
25.23304947800708
 21
21.19386662069868
 31
-4.469131852886032
  0
LINE
  5
80
330
1F
100
AcDbEntity
  8
0
100
AcDbLine
 10
-9.041021762716195
 20
38.77658166832295
 30
-8.976865186219369
 11
24.83291456407886
 21
37.55168958828622
 31
-8.976865186219369
  0
LINE
  5
81
330
1F
100
AcDbEntity
  8
0
100
AcDbLine
 10
-2.090814021151233
 20
30.35358301101683
 30
-6.7229985195527
 11
25.03298202104297
 21
29.37277810449246
 31
-6.7229985195527
  0
LINE
  5
82
330
1F
100
AcDbEntity
  8
0
100
AcDbLine
 10
-3.828365956542479
 20
32.45933267534335
 30
-7.286465186219368
 11
24.98296515680195
 21
31.4175059754409
 31
-7.286465186219368
  0
LINE
  5
83
330
1F
100
AcDbEntity
  8
0
100
AcDbLine
 10
8.334497591196198
 20
17.71908502505765
 30
-3.342198519552698
 11
25.33308320648913
 21
17.10441087880179
 31
-3.342198519552698
  0
LINE
  5
84
330
1F
100
AcDbEntity
  8
0
100
AcDbLine
 10
11.80960146197868
 20
13.50758569640459
 30
-2.215265186219364
 11
25.43311693497118
 21
13.01495513690491
 31
-2.215265186219364
  0
LINE
  5
85
330
1F
100
AcDbEntity
  8
0
100
AcDbLine
 10
28.10706314874724
 20
40.50546727254569
 30
-10.1037985195527
 11
42.44394568335351
 21
35.67997310335188
 31
-10.1037985195527
  0
LINE
  5
86
330
1F
100
AcDbEntity
  8
0
100
AcDbLine
 10
33.14349292174522
 20
36.78241878900775
 30
-9.540331852886036
 11
42.49396720530915
 21
33.63524512516399
 31
-9.540331852886036
  0
LINE
  5
87
330
1F
100
AcDbEntity
  8
0
100
AcDbLine
 10
26.51507985607529
 20
43.06918726421704
 30
-10.66726518621937
 11
42.39392416139788
 21
37.72470108153976
 31
-10.66726518621937
  0
LINE
  5
88
330
1F
100
AcDbEntity
  8
0
100
AcDbLine
 10
32.13186088296219
 20
43.2065882770478
 30
-11.23073185288604
 11
42.34390263944224
 21
39.76942905972765
 31
-11.23073185288604
  0
LINE
  5
89
330
1F
100
AcDbEntity
  8
0
100
AcDbLine
 10
38.17992269474319
 20
33.05937030546981
 30
-8.976865186219369
 11
42.54398872726479
 21
31.59051714697609
 31
-8.976865186219369
  0
LINE
  5
8A
330
1F
100
AcDbEntity
  8
0
100
AcDbLine
 10
37.74864190984912
 20
43.34398928987855
 30
-11.7941985195527
 11
42.2938811174866
 21
41.81415703791555
 31
-11.7941985195527
  0
LINE
  5
8B
330
1F
100
AcDbEntity
  8
0
100
AcDbLine
 10
33.75347566100927
 20
12.24239247348734
 30
-2.778731852886031
 11
43.09422313198063
 21
9.098510019104584
 31
-2.778731852886031
  0
LINE
  5
8C
330
1F
100
AcDbEntity
  8
0
100
AcDbLine
 10
32.00839728218406
 20
8.773962254124687
 30
-1.651798519552697
 11
43.19426571429378
 21
5.009054187609261
 31
-1.651798519552697
  0
LINE
  5
8D
330
1F
100
AcDbEntity
  8
0
100
AcDbLine
 10
31.13585809277145
 20
7.039747144443359
 30
-1.08833185288603
 11
43.24428700545034
 21
2.964326271861597
 31
-1.08833185288603
  0
LINE
  5
8E
330
1F
100
AcDbEntity
  8
0
100
AcDbLine
 10
30.26331890335884
 20
5.305532034762035
 30
-0.5248651862193632
 11
43.29430829660691
 21
0.9195983561139318
 31
-0.5248651862193632
  0
LINE
  5
8F
330
1F
100
AcDbEntity
  8
0
100
AcDbLine
 10
29.39077971394624
 20
3.571316925080708
 30
0.0386014804473039
 11
43.34432958776349
 21
-1.12512955963373
 31
0.0386014804473039
  0
LINE
  5
90
330
1F
100
AcDbEntity
  8
0
100
AcDbLine
 10
28.51824052453362
 20
1.837101815399383
 30
0.6020681471139709
 11
43.09752230030807
 21
-3.069951749082966
 31
0.6020681471139709
  0
LINE
  5
91
330
1F
100
AcDbEntity
  8
0
100
AcDbLine
 10
27.64570133512101
 20
0.1028867057180566
 30
1.165534813780638
 11
37.48070855699969
 21
-3.207352302421681
 31
1.165534813780638
  0
LINE
  5
92
330
1F
100
AcDbEntity
  8
0
100
AcDbLine
 10
26.7731621457084
 20
-1.631328403963265
 30
1.729001480447304
 11
31.86389481369131
 21
-3.344752855760397
 31
1.729001480447304
  0
LINE
  5
93
330
1F
100
AcDbEntity
  8
0
100
AcDbLine
 10
25.9006229562958
 20
-3.365543513644588
 30
2.292468147113969
 11
26.24708107038295
 21
-3.482153409099115
 31
2.292468147113969
  0
LINE
  5
94
330
1F
100
AcDbEntity
  8
0
100
AcDbLine
 10
37.24363241865971
 20
19.17925291221264
 30
-5.0325985195527
 11
42.89413796735435
 21
17.27742168209524
 31
-5.0325985195527
  0
LINE
  5
95
330
1F
100
AcDbEntity
  8
0
100
AcDbLine
 10
35.4985540398345
 20
15.71082269284999
 30
-3.905665186219365
 11
42.99418054966749
 21
13.18796585059992
 31
-3.905665186219365
  0
LINE
  5
96
330
1F
100
AcDbEntity
  8
0
100
AcDbLine
 10
38.98871079748492
 20
22.6476831315753
 30
-6.159531852886032
 11
42.7940953850412
 21
21.36687751359057
 31
-6.159531852886032
  0
LINE
  5
97
330
1F
100
AcDbEntity
  8
0
100
AcDbLine
 10
42.47886755513536
 20
29.5845435703006
 30
-8.413398519552702
 11
42.59401022041492
 21
29.54578917658123
 31
-8.413398519552702
  0
LINE
  5
98
330
1F
100
AcDbEntity
  8
0
100
AcDbLine
 10
41.60632836572275
 20
27.85032846061927
 30
-7.849931852886034
 11
42.64403151157149
 21
27.50106126083356
 31
-7.849931852886034
  0
LINE
  5
99
330
1F
100
AcDbEntity
  8
0
100
AcDbLine
 10
38.11617160807232
 20
20.91346802189397
 30
-5.596065186219366
 11
42.84411667619778
 21
19.3221495978429
 31
-5.596065186219366
  0
LINE
  5
9A
330
1F
100
AcDbEntity
  8
0
100
AcDbLine
 10
36.3710932292471
 20
17.44503780253132
 30
-4.469131852886032
 11
42.94415925851092
 21
15.23269376634758
 31
-4.469131852886032
  0
LINE
  5
9B
330
1F
100
AcDbEntity
  8
0
100
AcDbLine
 10
39.86124998689754
 20
24.38189824125662
 30
-6.7229985195527
 11
42.74407409388463
 21
23.41160542933824
 31
-6.7229985195527
  0
LINE
  5
9C
330
1F
100
AcDbEntity
  8
0
100
AcDbLine
 10
40.73378917631015
 20
26.11611335093795
 30
-7.286465186219368
 11
42.69405280272805
 21
25.45633334508591
 31
-7.286465186219368
  0
LINE
  5
9D
330
1F
100
AcDbEntity
  8
0
100
AcDbLine
 10
34.62601485042189
 20
13.97660758316866
 30
-3.342198519552698
 11
43.04420184082405
 21
11.14323793485226
 31
-3.342198519552698
  0
LINE
  5
9E
330
1F
100
AcDbEntity
  8
0
100
AcDbLine
 10
32.88093647159667
 20
10.50817736380601
 30
-2.215265186219364
 11
43.1442444231372
 21
7.053782103356923
 31
-2.215265186219364
  0
LINE
  5
9F
330
1F
100
AcDbEntity
  8
0
100
AcDbLine
 10
25.38310007073016
 20
15.05968300785335
 30
-2.778731852886031
 11
33.75347566100927
 21
12.24239247348734
 31
-2.778731852886031
  0
LINE
  5
A0
330
1F
100
AcDbEntity
  8
0
100
AcDbLine
 10
25.48313379921222
 20
10.97022726595646
 30
-1.651798519552697
 11
32.00839728218406
 21
8.773962254124687
 31
-1.651798519552697
  0
LINE
  5
A1
330
1F
100
AcDbEntity
  8
0
100
AcDbLine
 10
25.53315066345324
 20
8.92549939500802
 30
-1.08833185288603
 11
31.13585809277145
 21
7.039747144443359
 31
-1.08833185288603
  0
LINE
  5
A2
330
1F
100
AcDbEntity
  8
0
100
AcDbLine
 10
25.58316752769427
 20
6.880771524059576
 30
-0.5248651862193632
 11
30.26331890335884
 21
5.305532034762035
 31
-0.5248651862193632
  0
LINE
  5
A3
330
1F
100
AcDbEntity
  8
0
100
AcDbLine
 10
25.63318439193529
 20
4.836043653111132
 30
0.0386014804473039
 11
29.39077971394624
 21
3.571316925080708
 31
0.0386014804473039
  0
LINE
  5
A4
330
1F
100
AcDbEntity
  8
0
100
AcDbLine
 10
25.68320125617632
 20
2.791315782162689
 30
0.6020681471139709
 11
28.51824052453362
 21
1.837101815399383
 31
0.6020681471139709
  0
LINE
  5
A5
330
1F
100
AcDbEntity
  8
0
100
AcDbLine
 10
25.73321812041735
 20
0.7465879112142458
 30
1.165534813780638
 11
27.64570133512101
 21
0.1028867057180566
 31
1.165534813780638
  0
LINE
  5
A6
330
1F
100
AcDbEntity
  8
0
100
AcDbLine
 10
25.78323498465837
 20
-1.298139959734193
 30
1.729001480447304
 11
26.7731621457084
 21
-1.631328403963265
 31
1.729001480447304
  0
LINE
  5
A7
330
1F
100
AcDbEntity
  8
0
100
AcDbLine
 10
25.8332518488994
 20
-3.342867830682631
 30
2.292468147113969
 11
25.9006229562958
 21
-3.365543513644588
 31
2.292468147113969
  0
LINE
  5
A8
330
1F
100
AcDbEntity
  8
0
100
AcDbLine
 10
25.18303261376605
 20
23.23859449164713
 30
-5.0325985195527
 11
37.24363241865971
 21
19.17925291221264
 31
-5.0325985195527
  0
LINE
  5
A9
330
1F
100
AcDbEntity
  8
0
100
AcDbLine
 10
25.28306634224811
 20
19.14913874975024
 30
-3.905665186219365
 11
35.4985540398345
 21
15.71082269284999
 31
-3.905665186219365
  0
LINE
  5
AA
330
1F
100
AcDbEntity
  8
0
100
AcDbLine
 10
25.082998885284
 20
27.32805023354401
 30
-6.159531852886033
 11
38.98871079748492
 21
22.6476831315753
 31
-6.159531852886032
  0
LINE
  5
AB
330
1F
100
AcDbEntity
  8
0
100
AcDbLine
 10
24.73288083559681
 20
41.64114533018311
 30
-10.1037985195527
 11
28.10706314874724
 21
40.50546727254569
 31
-10.1037985195527
  0
LINE
  5
AC
330
1F
100
AcDbEntity
  8
0
100
AcDbLine
 10
24.78289769983784
 20
39.59641745923467
 30
-9.540331852886036
 11
33.14349292174522
 21
36.78241878900775
 31
-9.540331852886036
  0
LINE
  5
AD
330
1F
100
AcDbEntity
  8
0
100
AcDbLine
 10
24.88293142831989
 20
35.50696171733778
 30
-8.413398519552702
 11
42.47886755513536
 21
29.5845435703006
 31
-8.413398519552702
  0
LINE
  5
AE
330
1F
100
AcDbEntity
  8
0
100
AcDbLine
 10
24.93294829256092
 20
33.46223384638934
 30
-7.849931852886034
 11
41.60632836572275
 21
27.85032846061927
 31
-7.849931852886034
  0
LINE
  5
AF
330
1F
100
AcDbEntity
  8
0
100
AcDbLine
 10
25.13301574952502
 20
25.28332236259557
 30
-5.596065186219366
 11
38.11617160807232
 21
20.91346802189397
 31
-5.596065186219366
  0
LINE
  5
B0
330
1F
100
AcDbEntity
  8
0
100
AcDbLine
 10
25.23304947800708
 20
21.19386662069868
 30
-4.469131852886032
 11
36.3710932292471
 21
17.44503780253132
 31
-4.469131852886032
  0
LINE
  5
B1
330
1F
100
AcDbEntity
  8
0
100
AcDbLine
 10
24.83291456407886
 20
37.55168958828622
 30
-8.976865186219369
 11
38.17992269474319
 21
33.05937030546981
 31
-8.976865186219369
  0
LINE
  5
B2
330
1F
100
AcDbEntity
  8
0
100
AcDbLine
 10
25.03298202104297
 20
29.37277810449246
 30
-6.7229985195527
 11
39.86124998689754
 21
24.38189824125662
 31
-6.7229985195527
  0
LINE
  5
B3
330
1F
100
AcDbEntity
  8
0
100
AcDbLine
 10
24.98296515680195
 20
31.4175059754409
 30
-7.286465186219368
 11
40.73378917631015
 21
26.11611335093795
 31
-7.286465186219368
  0
LINE
  5
B4
330
1F
100
AcDbEntity
  8
0
100
AcDbLine
 10
25.33308320648913
 20
17.10441087880179
 30
-3.342198519552698
 11
34.62601485042189
 21
13.97660758316866
 31
-3.342198519552698
  0
LINE
  5
B5
330
1F
100
AcDbEntity
  8
0
100
AcDbLine
 10
25.43311693497118
 20
13.01495513690491
 30
-2.215265186219364
 11
32.88093647159667
 21
10.50817736380601
 31
-2.215265186219364
  0
LINE
  5
B6
330
1F
100
AcDbEntity
  8
0
100
AcDbLine
 10
-32.47756787422446
 20
-42.88173636373393
 30
-1.08833185288603
 11
-33.18668414289017
 21
-37.10976499470485
 31
-1.08833185288603
  0
LINE
  5
B7
330
1F
100
AcDbEntity
  8
0
100
AcDbLine
 10
-28.26493795102758
 20
-42.77871455475635
 30
-0.5248651862193632
 11
-32.72613352916968
 21
-6.466061346098359
 31
-0.5248651862193632
  0
LINE
  5
B8
330
1F
100
AcDbEntity
  8
0
100
AcDbLine
 10
-24.0523080278307
 20
-42.67569274577875
 30
0.0386014804473039
 11
-27.76169593547245
 21
-12.48250476573506
 31
0.0386014804473039
  0
LINE
  5
B9
330
1F
100
AcDbEntity
  8
0
100
AcDbLine
 10
-19.83967810463381
 20
-42.57267093680117
 30
0.6020681471139709
 11
-22.7972583417752
 21
-18.49894818537177
 31
0.6020681471139709
  0
LINE
  5
BA
330
1F
100
AcDbEntity
  8
0
100
AcDbLine
 10
-15.62704818143693
 20
-42.46964912782357
 30
1.165534813780638
 11
-17.83282074807796
 21
-24.51539160500847
 31
1.165534813780638
  0
LINE
  5
BB
330
1F
100
AcDbEntity
  8
0
100
AcDbLine
 10
-11.41441825824005
 20
-42.36662731884599
 30
1.729001480447304
 11
-12.86838315438073
 21
-30.53183502464517
 31
1.729001480447304
  0
LINE
  5
BC
330
1F
100
AcDbEntity
  8
0
100
AcDbLine
 10
-7.201788335043178
 20
-42.26360550986841
 30
2.292468147113969
 11
-7.903945560683506
 21
-36.54827844428185
 31
2.292468147113969
  0
LINE
  5
BD
330
1F
100
AcDbEntity
  8
0
100
AcDbLine
 10
-32.72613352916968
 20
-6.466061346098359
 30
-0.5248651862193632
 11
-32.2509452749477
 21
-5.989208025349992
 31
-0.5248651862193632
  0
LINE
  5
BE
330
1F
100
AcDbEntity
  8
0
100
AcDbLine
 10
-27.76169593547245
 20
-12.48250476573506
 30
0.0386014804473039
 11
-25.39451121562174
 21
-10.10702539633495
 31
0.0386014804473039
  0
LINE
  5
BF
330
1F
100
AcDbEntity
  8
0
100
AcDbLine
 10
-22.7972583417752
 20
-18.49894818537177
 30
0.6020681471139709
 11
-18.53807715629577
 21
-14.22484276731991
 31
0.6020681471139709
  0
LINE
  5
C0
330
1F
100
AcDbEntity
  8
0
100
AcDbLine
 10
-17.83282074807796
 20
-24.51539160500847
 30
1.165534813780638
 11
-11.68164309696981
 21
-18.34266013830487
 31
1.165534813780638
  0
LINE
  5
C1
330
1F
100
AcDbEntity
  8
0
100
AcDbLine
 10
-12.86838315438073
 20
-30.53183502464517
 30
1.729001480447304
 11
-4.825209037643875
 21
-22.46047750928982
 31
1.729001480447304
  0
LINE
  5
C2
330
1F
100
AcDbEntity
  8
0
100
AcDbLine
 10
-7.903945560683506
 20
-36.54827844428185
 30
2.292468147113969
 11
2.031225021682072
 21
-26.57829488027476
 31
2.292468147113969
  0
LINE
  5
C3
330
1F
100
AcDbEntity
  8
0
100
AcDbLine
 10
-2.525478281311634
 20
-42.14924141222768
 30
2.855934813780635
 11
8.887659081008017
 21
-30.69611225125972
 31
2.855934813780635
  0
LINE
  5
C4
330
1F
100
AcDbEntity
  8
0
100
AcDbLine
 10
8.708202103312352
 20
-41.87447452338195
 30
3.4194014804473
 11
15.74409314033396
 21
-34.81392962224466
 31
3.4194014804473
  0
LINE
  5
C5
330
1F
100
AcDbEntity
  8
0
100
AcDbLine
 10
19.94188248793632
 20
-41.59970763453621
 30
3.982868147113966
 11
22.60052719965989
 21
-38.93174699322962
 31
3.982868147113966
  0
LINE
  5
C6
330
1F
100
AcDbEntity
  8
0
100
AcDbLine
 10
-32.2509452749477
 20
-5.989208025349992
 30
-0.5248651862193632
 11
-31.15158247071043
 21
-4.885984584951762
 31
-0.5248651862193631
  0
LINE
  5
C7
330
1F
100
AcDbEntity
  8
0
100
AcDbLine
 10
-18.53807715629577
 20
-14.22484276731991
 30
0.6020681471139709
 11
-8.684329025485098
 21
-4.336491195126238
 31
0.6020681471139709
  0
LINE
  5
C8
330
1F
100
AcDbEntity
  8
0
100
AcDbLine
 10
-11.68164309696981
 20
-18.34266013830487
 30
1.165534813780638
 11
2.549297697127562
 21
-4.061744500213477
 31
1.165534813780638
  0
LINE
  5
C9
330
1F
100
AcDbEntity
  8
0
100
AcDbLine
 10
-4.825209037643875
 20
-22.46047750928982
 30
1.729001480447304
 11
13.78292441974019
 21
-3.786997805300719
 31
1.729001480447304
  0
LINE
  5
CA
330
1F
100
AcDbEntity
  8
0
100
AcDbLine
 10
2.031225021682072
 20
-26.57829488027476
 30
2.292468147113969
 11
25.01655114235284
 21
-3.512251110387956
 31
2.292468147113969
  0
LINE
  5
CB
330
1F
100
AcDbEntity
  8
0
100
AcDbLine
 10
8.887659081008017
 20
-30.69611225125972
 30
2.855934813780635
 11
26.08031496615493
 21
-13.44308085699257
 31
2.855934813780635
  0
LINE
  5
CC
330
1F
100
AcDbEntity
  8
0
100
AcDbLine
 10
15.74409314033396
 20
-34.81392962224466
 30
3.4194014804473
 11
26.34290130365888
 21
-24.17790158764427
 31
3.4194014804473
  0
LINE
  5
CD
330
1F
100
AcDbEntity
  8
0
100
AcDbLine
 10
22.60052719965989
 20
-38.93174699322962
 30
3.982868147113966
 11
26.60548764116283
 21
-34.91272231829598
 31
3.982868147113966
  0
LINE
  5
CE
330
1F
100
AcDbEntity
  8
0
100
AcDbLine
 10
33.9551143367565
 20
-34.73293395694986
 30
3.982868147113966
 11
44.16038341889708
 21
-34.48329079646283
 31
3.982868147113966
  0
LINE
  5
CF
330
1F
100
AcDbEntity
  8
0
100
AcDbLine
 10
26.08031496615493
 20
-13.44308085699257
 30
2.855934813780635
 11
33.89029283882287
 21
-13.2520312728391
 31
2.855934813780635
  0
LINE
  5
D0
330
1F
100
AcDbEntity
  8
0
100
AcDbLine
 10
26.34290130365888
 20
-24.17790158764427
 30
3.4194014804473
 11
42.5781237937215
 21
-23.78075161411867
 31
3.4194014804473
  0
LINE
  5
D1
330
1F
100
AcDbEntity
  8
0
100
AcDbLine
 10
26.60548764116283
 20
-34.91272231829598
 30
3.982868147113966
 11
33.9551143367565
 21
-34.73293395694986
 31
3.982868147113966
  0
LINE
  5
D2
330
1F
100
AcDbEntity
  8
0
100
AcDbLine
 10
28.28408888942107
 20
-4.961896515942263
 30
2.292468147113969
 11
43.7123656313735
 21
-16.16945597878324
 31
2.292468147113969
  0
LINE
  5
D3
330
1F
100
AcDbEntity
  8
0
100
AcDbLine
 10
33.89029283882287
 20
-13.2520312728391
 30
2.855934813780635
 11
43.81740965130831
 21
-20.46338441560229
 31
2.855934813780635
  0
LINE
  5
D4
330
1F
100
AcDbEntity
  8
0
100
AcDbLine
 10
42.5781237937215
 20
-23.78075161411867
 30
3.4194014804473
 11
43.92245367124312
 21
-24.75731285242133
 31
3.4194014804473
  0
LINE
  5
D5
330
1F
100
AcDbEntity
  8
0
100
AcDbLine
 10
43.09752230030807
 20
-3.069951749082966
 30
0.6020681471139709
 11
43.3972329793266
 21
-3.287670506556553
 31
0.6020681471139709
  0
LINE
  5
D6
330
1F
100
AcDbEntity
  8
0
100
AcDbLine
 10
37.48070855699969
 20
-3.207352302421681
 30
1.165534813780638
 11
43.50227723233208
 21
-7.581599007038286
 31
1.165534813780638
  0
LINE
  5
D7
330
1F
100
AcDbEntity
  8
0
100
AcDbLine
 10
31.86389481369131
 20
-3.344752855760397
 30
1.729001480447304
 11
43.60732148533755
 21
-11.87552750752
 31
1.729001480447304
  0
LINE
  5
D8
330
1F
100
AcDbEntity
  8
0
100
AcDbLine
 10
26.24708107038295
 20
-3.482153409099115
 30
2.292468147113969
 11
28.28408888942107
 21
-4.961896515942263
 31
2.292468147113969
  0
LINE
  5
D9
330
1F
100
AcDbEntity
  8
0
100
AcDbLine
 10
-7.72445607223896
 20
21.3173702900995
 30
-5.0325985195527
 11
3.121841785022482
 21
24.03633401803724
 31
-5.0325985195527
  0
LINE
  5
DA
330
1F
100
AcDbEntity
  8
0
100
AcDbLine
 10
-12.85889992773545
 20
25.11290416306174
 30
-6.159531852886033
 11
-0.3532620857599996
 21
28.2478333466903
 31
-6.159531852886033
  0
LINE
  5
DB
330
1F
100
AcDbEntity
  8
0
100
AcDbLine
 10
-34.51337351039435
 20
17.14318871766555
 30
-5.596065186219366
 11
-10.29167799998721
 21
23.21513722658062
 31
-5.596065186219366
  0
LINE
  5
DC
330
1F
100
AcDbEntity
  8
0
100
AcDbLine
 10
-10.29167799998721
 20
23.21513722658062
 30
-5.596065186219366
 11
1.384289849631243
 21
26.14208368236377
 31
-5.596065186219366
  0
LINE
  5
DD
330
1F
100
AcDbEntity
  8
0
100
AcDbLine
 10
-25.39451121562174
 20
-10.10702539633495
 30
0.0386014804473039
 11
-19.91795574809776
 21
-4.611237890038999
 31
0.0386014804473039
  0
ENDSEC
  0
SECTION
  2
OBJECTS
  0
DICTIONARY
  5
C
330
0
100
AcDbDictionary
  3
ACAD_GROUP
350
D
  3
ACAD_LAYOUT
350
1A
  3
ACAD_MATERIAL
350
3B
  3
ACAD_MLEADERSTYLE
350
100
  3
ACAD_MLINESTYLE
350
17
  3
ACAD_PLOTSETTINGS
350
19
  3
ACAD_VISUALSTYLE
350
2A
  3
ACDBHEADERROUNDTRIPXREC
350
DE
  3
ACDBVARIABLEDICTIONARY
350
FE
  0
DICTIONARY
  5
D
102
{ACAD_REACTORS
330
C
102
}
330
C
100
AcDbDictionary
  0
DICTIONARY
  5
1A
102
{ACAD_REACTORS
330
C
102
}
330
C
100
AcDbDictionary
  0
DICTIONARY
  5
3B
102
{ACAD_REACTORS
330
C
102
}
330
C
100
AcDbDictionary
  3
BYBLOCK
350
3D
  3
BYLAYER
350
3C
  3
GLOBAL
350
3E
  0
DICTIONARY
  5
100
102
{ACAD_REACTORS
330
C
102
}
330
C
100
AcDbDictionary
  0
DICTIONARY
  5
17
102
{ACAD_REACTORS
330
C
102
}
330
C
100
AcDbDictionary
  3
STANDARD
350
18
  0
DICTIONARY
  5
19
102
{ACAD_REACTORS
330
C
102
}
330
C
100
AcDbDictionary
  0
DICTIONARY
  5
2A
102
{ACAD_REACTORS
330
C
102
}
330
C
100
AcDbDictionary
  3
2DWIREFRAME
350
2F
  3
3D_HIDDEN
350
31
  3
3DWIREFRAME
350
30
  3
BASIC
350
32
  3
BRIGHTEN
350
36
  3
COLORCHANGE
350
3A
  3
CONCEPTUAL
350
34
  3
DIM
350
35
  3
FACEPATTERN
350
39
  3
FLAT
350
2B
  3
FLATWITHEDGES
350
2C
  3
GOURAUD
350
2D
  3
GOURAUDWITHEDGES
350
2E
  3
LINEPATTERN
350
38
  3
REALISTIC
350
33
  3
THICKEN
350
37
  0
DICTIONARY
  5
DE
102
{ACAD_REACTORS
330
C
102
}
330
C
100
AcDbDictionary
  3
CEPSNTYPE
350
E7
  3
DIMSTYLEDATA
350
FD
  3
FINGERPRINTGUID
350
E8
  3
HYPERLINKBASE
350
E1
  3
INSUNITS
350
E6
  3
LAYOUTDICT
350
E3
  3
LWETCUNION
350
E5
  3
PLOTSETDICT
350
E4
  3
PSVPSCALE
350
EA
  3
PUCSBASE
350
ED
  3
PUCSORGBACK
350
F3
  3
PUCSORGBOTTOM
350
EF
  3
PUCSORGFRONT
350
F2
  3
PUCSORGLEFT
350
F0
  3
PUCSORGRIGHT
350
F1
  3
PUCSORGTOP
350
EE
  3
PUCSORTHOREF
350
EB
  3
PUCSORTHOVIEW
350
EC
  3
STYLESHEET
350
E2
  3
TSTACKALIGN
350
DF
  3
TSTACKSIZE
350
E0
  3
UCSBASE
350
F6
  3
UCSORGBACK
350
FC
  3
UCSORGBOTTOM
350
F8
  3
UCSORGFRONT
350
FB
  3
UCSORGLEFT
350
F9
  3
UCSORGRIGHT
350
FA
  3
UCSORGTOP
350
F7
  3
UCSORTHOREF
350
F4
  3
UCSORTHOVIEW
350
F5
  3
VERSIONGUID
350
E9
  0
DICTIONARY
  5
FE
102
{ACAD_REACTORS
330
C
102
}
330
C
100
AcDbDictionary
  3
DIMASSOC
350
101
  3
HIDETEXT
350
102
  0
MATERIAL
  5
3D
102
{ACAD_REACTORS
330
3B
102
}
102
{ACAD_XDICTIONARY
360
105
102
}
330
3B
100
AcDbMaterial
  1
ByBlock
  0
MATERIAL
  5
3C
102
{ACAD_REACTORS
330
3B
102
}
102
{ACAD_XDICTIONARY
360
103
102
}
330
3B
100
AcDbMaterial
  1
ByLayer
  0
MATERIAL
  5
3E
102
{ACAD_REACTORS
330
3B
102
}
102
{ACAD_XDICTIONARY
360
107
102
}
330
3B
100
AcDbMaterial
  1
Global
  0
MLINESTYLE
  5
18
102
{ACAD_REACTORS
330
17
102
}
330
17
100
AcDbMlineStyle
  2
Standard
 70
     0
  3

 62
   256
 51
90.0
 52
90.0
 71
     2
 49
0.5
 62
   256
  6
BYLAYER
 49
-0.5
 62
   256
  6
BYLAYER
  0
ACAD_PROXY_OBJECT
  5
2F
102
{ACAD_REACTORS
330
2A
102
}
330
2A
100
AcDbProxyObject
 90
      499
 91
      501
 93
      436
310
42CC9915DA5C99599C985B595049028333333333333E3BF0000000000000FB0107901411070040501600405405064090741402480A0340
1001
ACAD
1000
AcDbSavedByObjectVersion
1070
     0
  0
ACAD_PROXY_OBJECT
  5
31
102
{ACAD_REACTORS
330
2A
102
}
330
2A
100
AcDbProxyObject
 90
      499
 91
      501
 93
      500
310
424CD108121A5919195B90640502408333333333333E3BF0000000000000FB01079024090700405020000000000001110200405405064090740C02480A0340
1001
ACAD
1000
AcDbSavedByObjectVersion
1070
     0
  0
ACAD_PROXY_OBJECT
  5
30
102
{ACAD_REACTORS
330
2A
102
}
330
2A
100
AcDbProxyObject
 90
      499
 91
      501
 93
      436
310
42CCD915DA5C99599C985B595059028333333333333E3BF0000000000000FB0107901411070040501600405405064090741402480A0340
1001
ACAD
1000
AcDbSavedByObjectVersion
1070
     0
  0
ACAD_PROXY_OBJECT
  5
32
102
{ACAD_REACTORS
330
2A
102
}
330
2A
100
AcDbProxyObject
 90
      499
 91
      501
 93
      388
310
4150985CDA58D07406404333333333333E3BF0000000000000FB0107A41107004050150841D405064090741402480A0350
1001
ACAD
1000
AcDbSavedByObjectVersion
1070
     0
  0
ACAD_PROXY_OBJECT
  5
36
102
{ACAD_REACTORS
330
2A
102
}
330
2A
100
AcDbProxyObject
 90
      499
 91
      501
 93
      428
310
42109C9A59DA1D195B90C409028333333333333E3BF0000000000000FB010790141107004050150841D405064090741402480A029950
1001
ACAD
1000
AcDbSavedByObjectVersion
1070
     0
  0
ACAD_PROXY_OBJECT
  5
3A
102
{ACAD_REACTORS
330
2A
102
}
330
2A
100
AcDbProxyObject
 90
      499
 91
      501
 93
      452
310
42D0DBDB1BDC90DA185B99D95104090240C333333333333E3BF0000000000000FB0108901411070040501508421405064090741402480A0350
1001
ACAD
1000
AcDbSavedByObjectVersion
1070
     0
  0
ACAD_PROXY_OBJECT
  5
34
102
{ACAD_REACTORS
330
2A
102
}
330
2A
100
AcDbProxyObject
 90
      499
 91
      501
 93
      500
310
4290DBDB98D95C1D1D585B10940D028333333333333E3BF0000000000000FB0107902409070040501000000000000111010841D405064090740C02480A0340
1001
ACAD
1000
AcDbSavedByObjectVersion
1070
     0
  0
ACAD_PROXY_OBJECT
  5
35
102
{ACAD_REACTORS
330
2A
102
}
330
2A
100
AcDbProxyObject
 90
      499
 91
      501
 93
      412
310
40D11A5B50B409028333333333333E3BF0000000000000FB010790141107004050150841D405064090741402480A02677FFFFFD0
1001
ACAD
1000
AcDbSavedByObjectVersion
1070
     0
  0
ACAD_PROXY_OBJECT
  5
39
102
{ACAD_REACTORS
330
2A
102
}
330
2A
100
AcDbProxyObject
 90
      499
 91
      501
 93
      444
310
42D19858D95C185D1D195C9B90F409028333333333333E3BF0000000000000FB010790141107004050150841D405064090741402480A0350
1001
ACAD
1000
AcDbSavedByObjectVersion
1070
     0
  0
ACAD_PROXY_OBJECT
  5
2B
102
{ACAD_REACTORS
330
2A
102
}
330
2A
100
AcDbProxyObject
 90
      499
 91
      501
 93
      388
310
41119B185D240901404333333333333E3BF0000000000000F9010740A41107004050150841D405064090741402480A1B50
1001
ACAD
1000
AcDbSavedByObjectVersion
1070
     0
  0
ACAD_PROXY_OBJECT
  5
2C
102
{ACAD_REACTORS
330
2A
102
}
330
2A
100
AcDbProxyObject
 90
      499
 91
      501
 93
      476
310
43519B185D15DA5D1A115919D95CD0140901404333333333333E3BF0000000000000F9010740901411070040501600405405064090741402480A1B50
1001
ACAD
1000
AcDbSavedByObjectVersion
1070
     0
  0
ACAD_PROXY_OBJECT
  5
2D
102
{ACAD_REACTORS
330
2A
102
}
330
2A
100
AcDbProxyObject
 90
      499
 91
      501
 93
      412
310
41D1DBDD5C985D5910240902404333333333333E3BF0000000000000F9010740A411070040501641D405064090741402480A1B50
1001
ACAD
1000
AcDbSavedByObjectVersion
1070
     0
  0
ACAD_PROXY_OBJECT
  5
2E
102
{ACAD_REACTORS
330
2A
102
}
330
2A
100
AcDbProxyObject
 90
      499
 91
      501
 93
      500
310
4411DBDD5C985D5915DA5D1A115919D95CD0340902404333333333333E3BF0000000000000F9010740901411070040501600405405064090741402480A1B50
1001
ACAD
1000
AcDbSavedByObjectVersion
1070
     0
  0
ACAD_PROXY_OBJECT
  5
38
102
{ACAD_REACTORS
330
2A
102
}
330
2A
100
AcDbProxyObject
 90
      499
 91
      501
 93
      444
310
42D31A5B995C185D1D195C9B90E409028333333333333E3BF0000000000000FB010790141107004050750841D405064090741402483A0350
1001
ACAD
1000
AcDbSavedByObjectVersion
1070
     0
  0
ACAD_PROXY_OBJECT
  5
33
102
{ACAD_REACTORS
330
2A
102
}
330
2A
100
AcDbProxyObject
 90
      499
 91
      501
 93
      420
310
425499585B1A5CDD1A58D08409028333333333333E3BF0000000000000FB01079019070040501508421405064090741402480A1B40
1001
ACAD
1000
AcDbSavedByObjectVersion
1070
     0
  0
ACAD_PROXY_OBJECT
  5
37
102
{ACAD_REACTORS
330
2A
102
}
330
2A
100
AcDbProxyObject
 90
      499
 91
      501
 93
      412
310
41D51A1A58DAD95B90D409028333333333333E3BF0000000000000FB010790141107004050150C41D405064090741402480A0350
1001
ACAD
1000
AcDbSavedByObjectVersion
1070
     0
  0
XRECORD
  5
E7
102
{ACAD_REACTORS
330
DE
102
}
330
DE
100
AcDbXrecord
 90
        0
  0
XRECORD
  5
FD
102
{ACAD_REACTORS
330
DE
102
}
330
DE
100
AcDbXrecord
1000
DSTYLE
1002
{
1070
   340
340
11
1002
}
  0
XRECORD
  5
E8
102
{ACAD_REACTORS
330
DE
102
}
330
DE
100
AcDbXrecord
  1
{14A79C53-DB98-48F1-B2CC-1F83D5ECA123}
  0
XRECORD
  5
E1
102
{ACAD_REACTORS
330
DE
102
}
330
DE
100
AcDbXrecord
  1

  0
XRECORD
  5
E6
102
{ACAD_REACTORS
330
DE
102
}
330
DE
100
AcDbXrecord
 90
        1
  0
XRECORD
  5
E3
102
{ACAD_REACTORS
330
DE
102
}
330
DE
100
AcDbXrecord
340
1A
  0
XRECORD
  5
E5
102
{ACAD_REACTORS
330
DE
102
}
330
DE
100
AcDbXrecord
 90
    10781
  0
XRECORD
  5
E4
102
{ACAD_REACTORS
330
DE
102
}
330
DE
100
AcDbXrecord
340
19
  0
XRECORD
  5
EA
102
{ACAD_REACTORS
330
DE
102
}
330
DE
100
AcDbXrecord
 40
0.0
  0
XRECORD
  5
ED
102
{ACAD_REACTORS
330
DE
102
}
330
DE
100
AcDbXrecord
340
0
  0
XRECORD
  5
F3
102
{ACAD_REACTORS
330
DE
102
}
330
DE
100
AcDbXrecord
 10
0.0
 20
0.0
 30
0.0
  0
XRECORD
  5
EF
102
{ACAD_REACTORS
330
DE
102
}
330
DE
100
AcDbXrecord
 10
0.0
 20
0.0
 30
0.0
  0
XRECORD
  5
F2
102
{ACAD_REACTORS
330
DE
102
}
330
DE
100
AcDbXrecord
 10
0.0
 20
0.0
 30
0.0
  0
XRECORD
  5
F0
102
{ACAD_REACTORS
330
DE
102
}
330
DE
100
AcDbXrecord
 10
0.0
 20
0.0
 30
0.0
  0
XRECORD
  5
F1
102
{ACAD_REACTORS
330
DE
102
}
330
DE
100
AcDbXrecord
 10
0.0
 20
0.0
 30
0.0
  0
XRECORD
  5
EE
102
{ACAD_REACTORS
330
DE
102
}
330
DE
100
AcDbXrecord
 10
0.0
 20
0.0
 30
0.0
  0
XRECORD
  5
EB
102
{ACAD_REACTORS
330
DE
102
}
330
DE
100
AcDbXrecord
340
0
  0
XRECORD
  5
EC
102
{ACAD_REACTORS
330
DE
102
}
330
DE
100
AcDbXrecord
 70
     0
  0
XRECORD
  5
E2
102
{ACAD_REACTORS
330
DE
102
}
330
DE
100
AcDbXrecord
  1

  0
XRECORD
  5
DF
102
{ACAD_REACTORS
330
DE
102
}
330
DE
100
AcDbXrecord
 90
        1
  0
XRECORD
  5
E0
102
{ACAD_REACTORS
330
DE
102
}
330
DE
100
AcDbXrecord
 90
       70
  0
XRECORD
  5
F6
102
{ACAD_REACTORS
330
DE
102
}
330
DE
100
AcDbXrecord
340
0
  0
XRECORD
  5
FC
102
{ACAD_REACTORS
330
DE
102
}
330
DE
100
AcDbXrecord
 10
0.0
 20
0.0
 30
0.0
  0
XRECORD
  5
F8
102
{ACAD_REACTORS
330
DE
102
}
330
DE
100
AcDbXrecord
 10
0.0
 20
0.0
 30
0.0
  0
XRECORD
  5
FB
102
{ACAD_REACTORS
330
DE
102
}
330
DE
100
AcDbXrecord
 10
0.0
 20
0.0
 30
0.0
  0
XRECORD
  5
F9
102
{ACAD_REACTORS
330
DE
102
}
330
DE
100
AcDbXrecord
 10
0.0
 20
0.0
 30
0.0
  0
XRECORD
  5
FA
102
{ACAD_REACTORS
330
DE
102
}
330
DE
100
AcDbXrecord
 10
0.0
 20
0.0
 30
0.0
  0
XRECORD
  5
F7
102
{ACAD_REACTORS
330
DE
102
}
330
DE
100
AcDbXrecord
 10
0.0
 20
0.0
 30
0.0
  0
XRECORD
  5
F4
102
{ACAD_REACTORS
330
DE
102
}
330
DE
100
AcDbXrecord
340
0
  0
XRECORD
  5
F5
102
{ACAD_REACTORS
330
DE
102
}
330
DE
100
AcDbXrecord
 70
     0
  0
XRECORD
  5
E9
102
{ACAD_REACTORS
330
DE
102
}
330
DE
100
AcDbXrecord
  1
{FAEB1C32-E019-11D5-929B-00C0DF256EC4}
  0
DICTIONARYVAR
  5
101
102
{ACAD_REACTORS
330
FE
102
}
330
FE
100
DictionaryVariables
280
     0
  1
2
  0
DICTIONARYVAR
  5
102
102
{ACAD_REACTORS
330
FE
102
}
330
FE
100
DictionaryVariables
280
     0
  1
1
  0
DICTIONARY
  5
105
330
3D
100
AcDbDictionary
280
     1
  3
ACAD_XREC_ROUNDTRIP
360
106
  0
DICTIONARY
  5
103
330
3C
100
AcDbDictionary
280
     1
  3
ACAD_XREC_ROUNDTRIP
360
104
  0
DICTIONARY
  5
107
330
3E
100
AcDbDictionary
280
     1
  3
ACAD_XREC_ROUNDTRIP
360
108
  0
XRECORD
  5
106
102
{ACAD_REACTORS
330
105
102
}
330
105
100
AcDbXrecord
102
MATERIAL
148
0.0
149
0.0
149
0.0
 93
        0
 94
      127
282
     0
 72
     1
 77
     1
171
     1
175
     1
179
     1
273
     0
  0
XRECORD
  5
104
102
{ACAD_REACTORS
330
103
102
}
330
103
100
AcDbXrecord
102
MATERIAL
148
0.0
149
0.0
149
0.0
 93
        0
 94
      127
282
     0
 72
     1
 77
     1
171
     1
175
     1
179
     1
273
     0
  0
XRECORD
  5
108
102
{ACAD_REACTORS
330
107
102
}
330
107
100
AcDbXrecord
102
MATERIAL
148
0.0
149
0.0
149
0.0
 93
        0
 94
      127
282
     0
 72
     1
 77
     1
171
     1
175
     1
179
     1
273
     0
  0
ENDSEC
  0
EOF
