solid untitled
facet normal 0.0163529261994002 0.163609978913369 0.986389556212293
outer loop
vertex 27.9518400321249 -4.4398991027847 2.68177061671814
vertex -13.3771712851012 45.6470147762448 -10.7207253832059
vertex -33.1068443310214 45.164520460181 -11.7103509832173
endloop
endfacet
facet normal 0.0163529261994002 0.163609978913369 0.986389556212293
outer loop
vertex 27.9518400321249 -4.4398991027847 2.68177061671814
vertex -33.1068443310214 45.164520460181 -11.7103509832173
vertex -31.8580514157657 -5.90270095691085 -0.318229383281869
endloop
endfacet
facet normal 0.0163529261994002 0.163609978913369 0.986389556212293
outer loop
vertex 27.9518400321249 -4.4398991027847 2.68177061671814
vertex 26.702664662269 46.6273276815191 -11.3908501832021
vertex -13.3771712851012 45.6470147762448 -10.7207253832059
endloop
endfacet
facet normal 0.08974389328073 0.266635741616194 0.95961003272767
outer loop
vertex 52.4493325325894 25.7107804082334 -7.9868706819777
vertex 52.0936599581037 40.2490336829797 -11.9931840499409
vertex 26.702664662269 46.6273276815191 -11.3908501832021
endloop
endfacet
facet normal 0.0929430986295384 0.269077675300057 0.958623380203225
outer loop
vertex 52.0936599581037 40.2490336829797 -11.9931840499409
vertex 46.4323397818953 47.1099697584287 -13.3701013832249
vertex 26.702664662269 46.6273276815191 -11.3908501832021
endloop
endfacet
facet normal 0.0929308454577154 0.200543465071819 0.97526723341836
outer loop
vertex 53.171860236791 -3.82294563949108 0.15175248338177
vertex 52.4493325325894 25.7107804082334 -7.9868706819777
vertex 27.9518400321249 -4.4398991027847 2.68177061671814
endloop
endfacet
facet normal 0.0897436758444084 0.266635488714019 0.959610123333518
outer loop
vertex 52.4493325325894 25.7107804082334 -7.9868706819777
vertex 26.702664662269 46.6273276815191 -11.3908501832021
vertex 27.9518400321249 -4.4398991027847 2.68177061671814
endloop
endfacet
facet normal 0.0929430986295384 0.269077675300057 0.958623380203225
outer loop
vertex 52.0936599581037 40.2490336829797 -11.9931840499409
vertex 51.9225235973718 47.2442834079266 -14.012662805424
vertex 46.4323397818953 47.1099697584287 -13.3701013832249
endloop
endfacet
facet normal -0.0746032893936619 0.0317874538430084 0.996706530022666
outer loop
vertex 1.36250805156306 -46.1629549544305 3.45232279452815
vertex -31.8580514157657 -5.90270095691085 -0.318229383281869
vertex -30.8542733935174 -46.9508356470615 -0.856879694397586
endloop
endfacet
facet normal -0.0262665646887115 0.0517586649008417 0.998314133019831
outer loop
vertex 28.9559254709166 -45.4880381077528 4.83637186118096
vertex -31.8580514157657 -5.90270095691085 -0.318229383281869
vertex 1.36250805156306 -46.1629549544305 3.45232279452815
endloop
endfacet
facet normal -0.0262665646887115 0.0517586649008417 0.998314133019831
outer loop
vertex 28.9559254709166 -45.4880381077528 4.83637186118096
vertex 27.9518400321249 -4.4398991027847 2.68177061671814
vertex -31.8580514157657 -5.90270095691085 -0.318229383281869
endloop
endfacet
facet normal -0.00128150398445117 0.0523861518816409 0.998626080592016
outer loop
vertex 54.1760753039271 -44.8710864642635 4.83637186118096
vertex 53.9579870069865 -35.9565145149827 4.36844937227569
vertex 28.9559254709166 -45.4880381077528 4.83637186118096
endloop
endfacet
facet normal 0.0193710461710813 0.0693623145541837 0.997403444895758
outer loop
vertex 53.9579870069865 -35.9565145149827 4.36844937227569
vertex 27.9518400321249 -4.4398991027847 2.68177061671814
vertex 28.9559254709166 -45.4880381077528 4.83637186118096
endloop
endfacet
facet normal 0.0193710461710813 0.0693623145541837 0.997403444895758
outer loop
vertex 53.9579870069865 -35.9565145149827 4.36844937227569
vertex 53.5953082886991 -21.1317026801407 2.42307757446515
vertex 27.9518400321249 -4.4398991027847 2.68177061671814
endloop
endfacet
facet normal 0.0957529772222874 0.13181330366877 0.98663905270823
outer loop
vertex 53.5953082886991 -21.1317026801407 2.42307757446515
vertex 53.171860236791 -3.82294563949108 0.15175248338177
vertex 27.9518400321249 -4.4398991027847 2.68177061671814
endloop
endfacet
endsolid untitled
