solid OpenSCAD_Model
  facet normal 0 0 -1
    outer loop
      vertex 33.375 -15 0
      vertex 33.4387 -13.7849 0
      vertex 33.4387 -16.2151 0
    endloop
  endfacet
  facet normal 0 0 -1
    outer loop
      vertex 33.4387 -16.2151 0
      vertex 33.4387 -13.7849 0
      vertex 33.629 -12.583 0
    endloop
  endfacet
  facet normal 0 0 -1
    outer loop
      vertex 33.4387 -16.2151 0
      vertex 33.629 -12.583 0
      vertex 33.944 -11.4077 0
    endloop
  endfacet
  facet normal 0 0 -1
    outer loop
      vertex 33.4387 -16.2151 0
      vertex 33.944 -11.4077 0
      vertex 34.38 -10.2717 0
    endloop
  endfacet
  facet normal 0 0 -1
    outer loop
      vertex 33.4387 -16.2151 0
      vertex 34.38 -10.2717 0
      vertex 34.9325 -9.1875 0
    endloop
  endfacet
  facet normal 0 0 -1
    outer loop
      vertex 33.4387 -16.2151 0
      vertex 34.9325 -9.1875 0
      vertex 35.5952 -8.167 0
    endloop
  endfacet
  facet normal 0 0 -1
    outer loop
      vertex 33.4387 -16.2151 0
      vertex 35.5952 -8.167 0
      vertex 36.3609 -7.22136 0
    endloop
  endfacet
  facet normal 0 0 -1
    outer loop
      vertex 33.4387 -16.2151 0
      vertex 36.3609 -7.22136 0
      vertex 37.2214 -6.36094 0
    endloop
  endfacet
  facet normal 0 0 -1
    outer loop
      vertex 33.4387 -16.2151 0
      vertex 37.2214 -6.36094 0
      vertex 38.167 -5.59518 0
    endloop
  endfacet
  facet normal 0 0 -1
    outer loop
      vertex 33.4387 -16.2151 0
      vertex 38.167 -5.59518 0
      vertex 39.1875 -4.93246 0
    endloop
  endfacet
  facet normal 0 0 -1
    outer loop
      vertex 33.4387 -16.2151 0
      vertex 39.1875 -4.93246 0
      vertex 40.2717 -4.38003 0
    endloop
  endfacet
  facet normal 0 0 -1
    outer loop
      vertex 33.4387 -16.2151 0
      vertex 40.2717 -4.38003 0
      vertex 41.4077 -3.94397 0
    endloop
  endfacet
  facet normal 0 0 -1
    outer loop
      vertex 33.4387 -16.2151 0
      vertex 41.4077 -3.94397 0
      vertex 42.583 -3.62903 0
    endloop
  endfacet
  facet normal 0 0 -1
    outer loop
      vertex 33.4387 -16.2151 0
      vertex 42.583 -3.62903 0
      vertex 43.7849 -3.43868 0
    endloop
  endfacet
  facet normal 0 0 -1
    outer loop
      vertex 33.4387 -16.2151 0
      vertex 43.7849 -3.43868 0
      vertex 45 -3.375 0
    endloop
  endfacet
  facet normal 0 0 -1
    outer loop
      vertex 33.4387 -16.2151 0
      vertex 45 -3.375 0
      vertex 46.2151 -3.43868 0
    endloop
  endfacet
  facet normal 0 0 -1
    outer loop
      vertex 43.9393 -6.43934 0
      vertex 46.2151 -3.43868 0
      vertex 47.417 -3.62903 0
    endloop
  endfacet
  facet normal 0 0 -1
    outer loop
      vertex 45 -6 0
      vertex 48.5923 -3.94397 0
      vertex 46.0607 -6.43934 0
    endloop
  endfacet
  facet normal 0 0 -1
    outer loop
      vertex 46.5 -7.5 0
      vertex 49.7283 -4.38003 0
      vertex 50.8125 -4.93246 0
    endloop
  endfacet
  facet normal 0 0 -1
    outer loop
      vertex 46.0607 -6.43934 0
      vertex 49.7283 -4.38003 0
      vertex 46.5 -7.5 0
    endloop
  endfacet
  facet normal 0 0 -1
    outer loop
      vertex 33.4387 -16.2151 0
      vertex 51.833 -5.59518 0
      vertex 52.7786 -6.36094 0
    endloop
  endfacet
  facet normal 0 0 -1
    outer loop
      vertex 33.4387 -16.2151 0
      vertex 52.7786 -6.36094 0
      vertex 53.6391 -7.22136 0
    endloop
  endfacet
  facet normal 0 0 -1
    outer loop
      vertex 33.4387 -16.2151 0
      vertex 53.6391 -7.22136 0
      vertex 54.4048 -8.167 0
    endloop
  endfacet
  facet normal 0 0 -1
    outer loop
      vertex 33.4387 -16.2151 0
      vertex 54.4048 -8.167 0
      vertex 55.0675 -9.1875 0
    endloop
  endfacet
  facet normal 0 0 -1
    outer loop
      vertex 33.4387 -16.2151 0
      vertex 55.0675 -9.1875 0
      vertex 55.62 -10.2717 0
    endloop
  endfacet
  facet normal 0 0 -1
    outer loop
      vertex 33.4387 -16.2151 0
      vertex 55.62 -10.2717 0
      vertex 56.056 -11.4077 0
    endloop
  endfacet
  facet normal 0 0 -1
    outer loop
      vertex 33.4387 -16.2151 0
      vertex 56.056 -11.4077 0
      vertex 56.371 -12.583 0
    endloop
  endfacet
  facet normal 0 0 -1
    outer loop
      vertex 33.4387 -16.2151 0
      vertex 56.371 -12.583 0
      vertex 56.5613 -13.7849 0
    endloop
  endfacet
  facet normal 0 0 -1
    outer loop
      vertex 33.4387 -16.2151 0
      vertex 56.5613 -13.7849 0
      vertex 56.625 -15 0
    endloop
  endfacet
  facet normal 0 0 -1
    outer loop
      vertex 33.4387 -16.2151 0
      vertex 56.625 -15 0
      vertex 56.5613 -16.2151 0
    endloop
  endfacet
  facet normal 0 0 -1
    outer loop
      vertex 33.4387 -16.2151 0
      vertex 56.5613 -16.2151 0
      vertex 56.371 -17.417 0
    endloop
  endfacet
  facet normal 0 0 -1
    outer loop
      vertex 33.4387 -16.2151 0
      vertex 56.371 -17.417 0
      vertex 56.056 -18.5923 0
    endloop
  endfacet
  facet normal 0 0 -1
    outer loop
      vertex 33.4387 -16.2151 0
      vertex 56.056 -18.5923 0
      vertex 55.62 -19.7283 0
    endloop
  endfacet
  facet normal 0 0 -1
    outer loop
      vertex 33.4387 -16.2151 0
      vertex 55.62 -19.7283 0
      vertex 55.0675 -20.8125 0
    endloop
  endfacet
  facet normal 0 0 -1
    outer loop
      vertex 33.4387 -16.2151 0
      vertex 55.0675 -20.8125 0
      vertex 54.4048 -21.833 0
    endloop
  endfacet
  facet normal 0 0 -1
    outer loop
      vertex 33.4387 -16.2151 0
      vertex 54.4048 -21.833 0
      vertex 53.6391 -22.7786 0
    endloop
  endfacet
  facet normal 0 0 -1
    outer loop
      vertex 33.4387 -16.2151 0
      vertex 53.6391 -22.7786 0
      vertex 52.7786 -23.6391 0
    endloop
  endfacet
  facet normal 0 0 -1
    outer loop
      vertex 33.4387 -16.2151 0
      vertex 52.7786 -23.6391 0
      vertex 51.833 -24.4048 0
    endloop
  endfacet
  facet normal 0 0 -1
    outer loop
      vertex 33.4387 -16.2151 0
      vertex 51.833 -24.4048 0
      vertex 50.8125 -25.0675 0
    endloop
  endfacet
  facet normal 0 0 -1
    outer loop
      vertex 33.4387 -16.2151 0
      vertex 50.8125 -25.0675 0
      vertex 49.7283 -25.62 0
    endloop
  endfacet
  facet normal 0 0 -1
    outer loop
      vertex 33.4387 -16.2151 0
      vertex 49.7283 -25.62 0
      vertex 48.5923 -26.056 0
    endloop
  endfacet
  facet normal 0 0 -1
    outer loop
      vertex 33.4387 -16.2151 0
      vertex 48.5923 -26.056 0
      vertex 47.417 -26.371 0
    endloop
  endfacet
  facet normal 0 0 -1
    outer loop
      vertex 33.4387 -16.2151 0
      vertex 47.417 -26.371 0
      vertex 46.2151 -26.5613 0
    endloop
  endfacet
  facet normal 0 0 -1
    outer loop
      vertex 33.4387 -16.2151 0
      vertex 46.2151 -26.5613 0
      vertex 45 -26.625 0
    endloop
  endfacet
  facet normal 0 0 -1
    outer loop
      vertex 33.4387 -16.2151 0
      vertex 45 -26.625 0
      vertex 43.7849 -26.5613 0
    endloop
  endfacet
  facet normal 0 0 -1
    outer loop
      vertex 33.4387 -16.2151 0
      vertex 43.7849 -26.5613 0
      vertex 42.583 -26.371 0
    endloop
  endfacet
  facet normal 0 0 -1
    outer loop
      vertex 33.4387 -16.2151 0
      vertex 42.583 -26.371 0
      vertex 41.4077 -26.056 0
    endloop
  endfacet
  facet normal 0 0 -1
    outer loop
      vertex 33.4387 -16.2151 0
      vertex 41.4077 -26.056 0
      vertex 40.2717 -25.62 0
    endloop
  endfacet
  facet normal 0 0 -1
    outer loop
      vertex 33.4387 -16.2151 0
      vertex 40.2717 -25.62 0
      vertex 39.1875 -25.0675 0
    endloop
  endfacet
  facet normal 0 0 -1
    outer loop
      vertex 33.4387 -16.2151 0
      vertex 39.1875 -25.0675 0
      vertex 38.167 -24.4048 0
    endloop
  endfacet
  facet normal 0 0 -1
    outer loop
      vertex 33.4387 -16.2151 0
      vertex 38.167 -24.4048 0
      vertex 37.2214 -23.6391 0
    endloop
  endfacet
  facet normal 0 0 -1
    outer loop
      vertex 33.4387 -16.2151 0
      vertex 37.2214 -23.6391 0
      vertex 36.3609 -22.7786 0
    endloop
  endfacet
  facet normal 0 0 -1
    outer loop
      vertex 33.4387 -16.2151 0
      vertex 36.3609 -22.7786 0
      vertex 35.5952 -21.833 0
    endloop
  endfacet
  facet normal 0 0 -1
    outer loop
      vertex 33.4387 -16.2151 0
      vertex 35.5952 -21.833 0
      vertex 34.9325 -20.8125 0
    endloop
  endfacet
  facet normal 0 0 -1
    outer loop
      vertex 33.4387 -16.2151 0
      vertex 34.9325 -20.8125 0
      vertex 34.38 -19.7283 0
    endloop
  endfacet
  facet normal 0 0 -1
    outer loop
      vertex 33.4387 -16.2151 0
      vertex 34.38 -19.7283 0
      vertex 33.944 -18.5923 0
    endloop
  endfacet
  facet normal 0 0 -1
    outer loop
      vertex 33.4387 -16.2151 0
      vertex 33.944 -18.5923 0
      vertex 33.629 -17.417 0
    endloop
  endfacet
  facet normal 0 0 -1
    outer loop
      vertex 46.0607 -6.43934 0
      vertex 48.5923 -3.94397 0
      vertex 49.7283 -4.38003 0
    endloop
  endfacet
  facet normal 0 0 -1
    outer loop
      vertex 45 -6 0
      vertex 47.417 -3.62903 0
      vertex 48.5923 -3.94397 0
    endloop
  endfacet
  facet normal 0 0 -1
    outer loop
      vertex 46.5 -7.5 0
      vertex 50.8125 -4.93246 0
      vertex 51.833 -5.59518 0
    endloop
  endfacet
  facet normal 0 0 -1
    outer loop
      vertex 33.4387 -16.2151 0
      vertex 45 -9 0
      vertex 46.0607 -8.56066 0
    endloop
  endfacet
  facet normal 0 0 -1
    outer loop
      vertex 33.4387 -16.2151 0
      vertex 46.0607 -8.56066 0
      vertex 51.833 -5.59518 0
    endloop
  endfacet
  facet normal 0 0 -1
    outer loop
      vertex 46.5 -7.5 0
      vertex 51.833 -5.59518 0
      vertex 46.0607 -8.56066 0
    endloop
  endfacet
  facet normal 0 0 -1
    outer loop
      vertex 45 -9 0
      vertex 33.4387 -16.2151 0
      vertex 43.9393 -8.56066 0
    endloop
  endfacet
  facet normal 0 0 -1
    outer loop
      vertex 43.9393 -8.56066 0
      vertex 33.4387 -16.2151 0
      vertex 43.5 -7.5 0
    endloop
  endfacet
  facet normal 0 0 -1
    outer loop
      vertex 33.4387 -16.2151 0
      vertex 46.2151 -3.43868 0
      vertex 43.9393 -6.43934 0
    endloop
  endfacet
  facet normal 0 0 -1
    outer loop
      vertex 43.5 -7.5 0
      vertex 33.4387 -16.2151 0
      vertex 43.9393 -6.43934 0
    endloop
  endfacet
  facet normal 0 0 -1
    outer loop
      vertex 43.9393 -6.43934 0
      vertex 47.417 -3.62903 0
      vertex 45 -6 0
    endloop
  endfacet
  facet normal -0.99863 0.052336 0
    outer loop
      vertex 33.375 -15 0
      vertex 33.375 -15 2.3
      vertex 33.4387 -13.7849 0
    endloop
  endfacet
  facet normal -0.99863 0.052336 0
    outer loop
      vertex 33.4387 -13.7849 0
      vertex 33.375 -15 2.3
      vertex 33.4387 -13.7849 2.3
    endloop
  endfacet
  facet normal -0.99863 -0.052336 0
    outer loop
      vertex 33.375 -15 0
      vertex 33.4387 -16.2151 0
      vertex 33.375 -15 2.3
    endloop
  endfacet
  facet normal -0.99863 -0.052336 0
    outer loop
      vertex 33.375 -15 2.3
      vertex 33.4387 -16.2151 0
      vertex 33.4387 -16.2151 2.3
    endloop
  endfacet
  facet normal -0.987688 -0.156434 0
    outer loop
      vertex 33.4387 -16.2151 0
      vertex 33.629 -17.417 0
      vertex 33.4387 -16.2151 2.3
    endloop
  endfacet
  facet normal -0.987688 -0.156434 0
    outer loop
      vertex 33.4387 -16.2151 2.3
      vertex 33.629 -17.417 0
      vertex 33.629 -17.417 2.3
    endloop
  endfacet
  facet normal -0.965926 -0.258819 0
    outer loop
      vertex 33.629 -17.417 0
      vertex 33.944 -18.5923 0
      vertex 33.629 -17.417 2.3
    endloop
  endfacet
  facet normal -0.965926 -0.258819 0
    outer loop
      vertex 33.629 -17.417 2.3
      vertex 33.944 -18.5923 0
      vertex 33.944 -18.5923 2.3
    endloop
  endfacet
  facet normal -0.93358 -0.358368 0
    outer loop
      vertex 33.944 -18.5923 0
      vertex 34.38 -19.7283 0
      vertex 33.944 -18.5923 2.3
    endloop
  endfacet
  facet normal -0.93358 -0.358368 0
    outer loop
      vertex 33.944 -18.5923 2.3
      vertex 34.38 -19.7283 0
      vertex 34.38 -19.7283 2.3
    endloop
  endfacet
  facet normal -0.891006 -0.453991 0
    outer loop
      vertex 34.38 -19.7283 0
      vertex 34.9325 -20.8125 0
      vertex 34.38 -19.7283 2.3
    endloop
  endfacet
  facet normal -0.891006 -0.453991 0
    outer loop
      vertex 34.38 -19.7283 2.3
      vertex 34.9325 -20.8125 0
      vertex 34.9325 -20.8125 2.3
    endloop
  endfacet
  facet normal -0.838671 -0.544638 0
    outer loop
      vertex 34.9325 -20.8125 0
      vertex 35.5952 -21.833 0
      vertex 34.9325 -20.8125 2.3
    endloop
  endfacet
  facet normal -0.838671 -0.544638 0
    outer loop
      vertex 34.9325 -20.8125 2.3
      vertex 35.5952 -21.833 0
      vertex 35.5952 -21.833 2.3
    endloop
  endfacet
  facet normal -0.777146 -0.629321 0
    outer loop
      vertex 35.5952 -21.833 0
      vertex 36.3609 -22.7786 0
      vertex 35.5952 -21.833 2.3
    endloop
  endfacet
  facet normal -0.777146 -0.629321 0
    outer loop
      vertex 35.5952 -21.833 2.3
      vertex 36.3609 -22.7786 0
      vertex 36.3609 -22.7786 2.3
    endloop
  endfacet
  facet normal -0.707107 -0.707107 0
    outer loop
      vertex 36.3609 -22.7786 2.3
      vertex 36.3609 -22.7786 0
      vertex 37.2214 -23.6391 0
    endloop
  endfacet
  facet normal -0.707107 -0.707107 0
    outer loop
      vertex 37.2214 -23.6391 2.3
      vertex 36.3609 -22.7786 2.3
      vertex 37.2214 -23.6391 0
    endloop
  endfacet
  facet normal -0.629321 -0.777146 0
    outer loop
      vertex 37.2214 -23.6391 2.3
      vertex 37.2214 -23.6391 0
      vertex 38.167 -24.4048 0
    endloop
  endfacet
  facet normal -0.629321 -0.777146 0
    outer loop
      vertex 38.167 -24.4048 2.3
      vertex 37.2214 -23.6391 2.3
      vertex 38.167 -24.4048 0
    endloop
  endfacet
  facet normal -0.544638 -0.838671 0
    outer loop
      vertex 38.167 -24.4048 2.3
      vertex 38.167 -24.4048 0
      vertex 39.1875 -25.0675 0
    endloop
  endfacet
  facet normal -0.544638 -0.838671 0
    outer loop
      vertex 39.1875 -25.0675 2.3
      vertex 38.167 -24.4048 2.3
      vertex 39.1875 -25.0675 0
    endloop
  endfacet
  facet normal -0.453991 -0.891006 0
    outer loop
      vertex 39.1875 -25.0675 2.3
      vertex 39.1875 -25.0675 0
      vertex 40.2717 -25.62 0
    endloop
  endfacet
  facet normal -0.453991 -0.891006 0
    outer loop
      vertex 40.2717 -25.62 2.3
      vertex 39.1875 -25.0675 2.3
      vertex 40.2717 -25.62 0
    endloop
  endfacet
  facet normal -0.358368 -0.93358 0
    outer loop
      vertex 40.2717 -25.62 2.3
      vertex 40.2717 -25.62 0
      vertex 41.4077 -26.056 0
    endloop
  endfacet
  facet normal -0.358368 -0.93358 0
    outer loop
      vertex 41.4077 -26.056 2.3
      vertex 40.2717 -25.62 2.3
      vertex 41.4077 -26.056 0
    endloop
  endfacet
  facet normal -0.258819 -0.965926 0
    outer loop
      vertex 41.4077 -26.056 2.3
      vertex 41.4077 -26.056 0
      vertex 42.583 -26.371 0
    endloop
  endfacet
  facet normal -0.258819 -0.965926 0
    outer loop
      vertex 42.583 -26.371 2.3
      vertex 41.4077 -26.056 2.3
      vertex 42.583 -26.371 0
    endloop
  endfacet
  facet normal -0.156434 -0.987688 0
    outer loop
      vertex 42.583 -26.371 2.3
      vertex 42.583 -26.371 0
      vertex 43.7849 -26.5613 0
    endloop
  endfacet
  facet normal -0.156434 -0.987688 0
    outer loop
      vertex 43.7849 -26.5613 2.3
      vertex 42.583 -26.371 2.3
      vertex 43.7849 -26.5613 0
    endloop
  endfacet
  facet normal -0.052336 -0.99863 0
    outer loop
      vertex 43.7849 -26.5613 2.3
      vertex 43.7849 -26.5613 0
      vertex 45 -26.625 0
    endloop
  endfacet
  facet normal -0.052336 -0.99863 0
    outer loop
      vertex 45 -26.625 2.3
      vertex 43.7849 -26.5613 2.3
      vertex 45 -26.625 0
    endloop
  endfacet
  facet normal 0.052336 -0.99863 0
    outer loop
      vertex 45 -26.625 2.3
      vertex 45 -26.625 0
      vertex 46.2151 -26.5613 0
    endloop
  endfacet
  facet normal 0.052336 -0.99863 0
    outer loop
      vertex 46.2151 -26.5613 2.3
      vertex 45 -26.625 2.3
      vertex 46.2151 -26.5613 0
    endloop
  endfacet
  facet normal 0.156434 -0.987688 0
    outer loop
      vertex 46.2151 -26.5613 2.3
      vertex 46.2151 -26.5613 0
      vertex 47.417 -26.371 0
    endloop
  endfacet
  facet normal 0.156434 -0.987688 0
    outer loop
      vertex 47.417 -26.371 2.3
      vertex 46.2151 -26.5613 2.3
      vertex 47.417 -26.371 0
    endloop
  endfacet
  facet normal 0.258819 -0.965926 0
    outer loop
      vertex 47.417 -26.371 2.3
      vertex 47.417 -26.371 0
      vertex 48.5923 -26.056 0
    endloop
  endfacet
  facet normal 0.258819 -0.965926 0
    outer loop
      vertex 48.5923 -26.056 2.3
      vertex 47.417 -26.371 2.3
      vertex 48.5923 -26.056 0
    endloop
  endfacet
  facet normal 0.358368 -0.93358 0
    outer loop
      vertex 48.5923 -26.056 2.3
      vertex 48.5923 -26.056 0
      vertex 49.7283 -25.62 0
    endloop
  endfacet
  facet normal 0.358368 -0.93358 0
    outer loop
      vertex 49.7283 -25.62 2.3
      vertex 48.5923 -26.056 2.3
      vertex 49.7283 -25.62 0
    endloop
  endfacet
  facet normal 0.453991 -0.891006 0
    outer loop
      vertex 49.7283 -25.62 2.3
      vertex 49.7283 -25.62 0
      vertex 50.8125 -25.0675 0
    endloop
  endfacet
  facet normal 0.453991 -0.891006 0
    outer loop
      vertex 50.8125 -25.0675 2.3
      vertex 49.7283 -25.62 2.3
      vertex 50.8125 -25.0675 0
    endloop
  endfacet
  facet normal 0.544638 -0.838671 0
    outer loop
      vertex 50.8125 -25.0675 2.3
      vertex 50.8125 -25.0675 0
      vertex 51.833 -24.4048 0
    endloop
  endfacet
  facet normal 0.544638 -0.838671 0
    outer loop
      vertex 51.833 -24.4048 2.3
      vertex 50.8125 -25.0675 2.3
      vertex 51.833 -24.4048 0
    endloop
  endfacet
  facet normal 0.629321 -0.777146 0
    outer loop
      vertex 51.833 -24.4048 2.3
      vertex 51.833 -24.4048 0
      vertex 52.7786 -23.6391 0
    endloop
  endfacet
  facet normal 0.629321 -0.777146 0
    outer loop
      vertex 52.7786 -23.6391 2.3
      vertex 51.833 -24.4048 2.3
      vertex 52.7786 -23.6391 0
    endloop
  endfacet
  facet normal 0.707107 -0.707107 0
    outer loop
      vertex 52.7786 -23.6391 2.3
      vertex 52.7786 -23.6391 0
      vertex 53.6391 -22.7786 0
    endloop
  endfacet
  facet normal 0.707107 -0.707107 0
    outer loop
      vertex 53.6391 -22.7786 2.3
      vertex 52.7786 -23.6391 2.3
      vertex 53.6391 -22.7786 0
    endloop
  endfacet
  facet normal 0.777146 -0.629321 0
    outer loop
      vertex 53.6391 -22.7786 2.3
      vertex 53.6391 -22.7786 0
      vertex 54.4048 -21.833 0
    endloop
  endfacet
  facet normal 0.777146 -0.629321 0
    outer loop
      vertex 54.4048 -21.833 2.3
      vertex 53.6391 -22.7786 2.3
      vertex 54.4048 -21.833 0
    endloop
  endfacet
  facet normal 0.838671 -0.544638 0
    outer loop
      vertex 54.4048 -21.833 2.3
      vertex 54.4048 -21.833 0
      vertex 55.0675 -20.8125 0
    endloop
  endfacet
  facet normal 0.838671 -0.544638 0
    outer loop
      vertex 55.0675 -20.8125 2.3
      vertex 54.4048 -21.833 2.3
      vertex 55.0675 -20.8125 0
    endloop
  endfacet
  facet normal 0.891006 -0.453991 0
    outer loop
      vertex 55.0675 -20.8125 2.3
      vertex 55.0675 -20.8125 0
      vertex 55.62 -19.7283 0
    endloop
  endfacet
  facet normal 0.891006 -0.453991 0
    outer loop
      vertex 55.62 -19.7283 2.3
      vertex 55.0675 -20.8125 2.3
      vertex 55.62 -19.7283 0
    endloop
  endfacet
  facet normal 0.93358 -0.358368 0
    outer loop
      vertex 55.62 -19.7283 2.3
      vertex 55.62 -19.7283 0
      vertex 56.056 -18.5923 0
    endloop
  endfacet
  facet normal 0.93358 -0.358368 0
    outer loop
      vertex 56.056 -18.5923 2.3
      vertex 55.62 -19.7283 2.3
      vertex 56.056 -18.5923 0
    endloop
  endfacet
  facet normal 0.965926 -0.258819 0
    outer loop
      vertex 56.056 -18.5923 2.3
      vertex 56.056 -18.5923 0
      vertex 56.371 -17.417 0
    endloop
  endfacet
  facet normal 0.965926 -0.258819 0
    outer loop
      vertex 56.371 -17.417 2.3
      vertex 56.056 -18.5923 2.3
      vertex 56.371 -17.417 0
    endloop
  endfacet
  facet normal 0.987688 -0.156434 0
    outer loop
      vertex 56.371 -17.417 2.3
      vertex 56.371 -17.417 0
      vertex 56.5613 -16.2151 0
    endloop
  endfacet
  facet normal 0.987688 -0.156434 0
    outer loop
      vertex 56.5613 -16.2151 2.3
      vertex 56.371 -17.417 2.3
      vertex 56.5613 -16.2151 0
    endloop
  endfacet
  facet normal 0.99863 -0.052336 0
    outer loop
      vertex 56.5613 -16.2151 2.3
      vertex 56.5613 -16.2151 0
      vertex 56.625 -15 0
    endloop
  endfacet
  facet normal 0.99863 -0.052336 0
    outer loop
      vertex 56.625 -15 2.3
      vertex 56.5613 -16.2151 2.3
      vertex 56.625 -15 0
    endloop
  endfacet
  facet normal 0.99863 0.052336 0
    outer loop
      vertex 56.625 -15 0
      vertex 56.5613 -13.7849 0
      vertex 56.5613 -13.7849 2.3
    endloop
  endfacet
  facet normal 0.99863 0.052336 0
    outer loop
      vertex 56.625 -15 2.3
      vertex 56.625 -15 0
      vertex 56.5613 -13.7849 2.3
    endloop
  endfacet
  facet normal 0.987688 0.156434 0
    outer loop
      vertex 56.5613 -13.7849 0
      vertex 56.371 -12.583 0
      vertex 56.371 -12.583 2.3
    endloop
  endfacet
  facet normal 0.987688 0.156434 0
    outer loop
      vertex 56.5613 -13.7849 2.3
      vertex 56.5613 -13.7849 0
      vertex 56.371 -12.583 2.3
    endloop
  endfacet
  facet normal 0.965926 0.258819 0
    outer loop
      vertex 56.371 -12.583 0
      vertex 56.056 -11.4077 0
      vertex 56.056 -11.4077 2.3
    endloop
  endfacet
  facet normal 0.965926 0.258819 0
    outer loop
      vertex 56.371 -12.583 2.3
      vertex 56.371 -12.583 0
      vertex 56.056 -11.4077 2.3
    endloop
  endfacet
  facet normal 0.93358 0.358368 0
    outer loop
      vertex 56.056 -11.4077 0
      vertex 55.62 -10.2717 0
      vertex 55.62 -10.2717 2.3
    endloop
  endfacet
  facet normal 0.93358 0.358368 0
    outer loop
      vertex 56.056 -11.4077 2.3
      vertex 56.056 -11.4077 0
      vertex 55.62 -10.2717 2.3
    endloop
  endfacet
  facet normal 0.891006 0.453991 0
    outer loop
      vertex 55.62 -10.2717 0
      vertex 55.0675 -9.1875 0
      vertex 55.0675 -9.1875 2.3
    endloop
  endfacet
  facet normal 0.891006 0.453991 0
    outer loop
      vertex 55.62 -10.2717 2.3
      vertex 55.62 -10.2717 0
      vertex 55.0675 -9.1875 2.3
    endloop
  endfacet
  facet normal 0.838671 0.544638 0
    outer loop
      vertex 55.0675 -9.1875 0
      vertex 54.4048 -8.167 0
      vertex 54.4048 -8.167 2.3
    endloop
  endfacet
  facet normal 0.838671 0.544638 0
    outer loop
      vertex 55.0675 -9.1875 2.3
      vertex 55.0675 -9.1875 0
      vertex 54.4048 -8.167 2.3
    endloop
  endfacet
  facet normal 0.777146 0.629321 0
    outer loop
      vertex 54.4048 -8.167 0
      vertex 53.6391 -7.22136 0
      vertex 53.6391 -7.22136 2.3
    endloop
  endfacet
  facet normal 0.777146 0.629321 0
    outer loop
      vertex 54.4048 -8.167 2.3
      vertex 54.4048 -8.167 0
      vertex 53.6391 -7.22136 2.3
    endloop
  endfacet
  facet normal 0.707107 0.707107 0
    outer loop
      vertex 52.7786 -6.36094 0
      vertex 52.7786 -6.36094 2.3
      vertex 53.6391 -7.22136 0
    endloop
  endfacet
  facet normal 0.707107 0.707107 0
    outer loop
      vertex 53.6391 -7.22136 0
      vertex 52.7786 -6.36094 2.3
      vertex 53.6391 -7.22136 2.3
    endloop
  endfacet
  facet normal 0.629321 0.777146 0
    outer loop
      vertex 51.833 -5.59518 0
      vertex 51.833 -5.59518 2.3
      vertex 52.7786 -6.36094 0
    endloop
  endfacet
  facet normal 0.629321 0.777146 0
    outer loop
      vertex 52.7786 -6.36094 0
      vertex 51.833 -5.59518 2.3
      vertex 52.7786 -6.36094 2.3
    endloop
  endfacet
  facet normal 0.544638 0.838671 0
    outer loop
      vertex 50.8125 -4.93246 0
      vertex 50.8125 -4.93246 2.3
      vertex 51.833 -5.59518 0
    endloop
  endfacet
  facet normal 0.544638 0.838671 0
    outer loop
      vertex 51.833 -5.59518 0
      vertex 50.8125 -4.93246 2.3
      vertex 51.833 -5.59518 2.3
    endloop
  endfacet
  facet normal 0.453991 0.891006 0
    outer loop
      vertex 49.7283 -4.38003 0
      vertex 49.7283 -4.38003 2.3
      vertex 50.8125 -4.93246 0
    endloop
  endfacet
  facet normal 0.453991 0.891006 0
    outer loop
      vertex 50.8125 -4.93246 0
      vertex 49.7283 -4.38003 2.3
      vertex 50.8125 -4.93246 2.3
    endloop
  endfacet
  facet normal 0.358368 0.93358 0
    outer loop
      vertex 48.5923 -3.94397 0
      vertex 48.5923 -3.94397 2.3
      vertex 49.7283 -4.38003 0
    endloop
  endfacet
  facet normal 0.358368 0.93358 0
    outer loop
      vertex 49.7283 -4.38003 0
      vertex 48.5923 -3.94397 2.3
      vertex 49.7283 -4.38003 2.3
    endloop
  endfacet
  facet normal 0.258819 0.965926 0
    outer loop
      vertex 47.417 -3.62903 0
      vertex 47.417 -3.62903 2.3
      vertex 48.5923 -3.94397 0
    endloop
  endfacet
  facet normal 0.258819 0.965926 0
    outer loop
      vertex 48.5923 -3.94397 0
      vertex 47.417 -3.62903 2.3
      vertex 48.5923 -3.94397 2.3
    endloop
  endfacet
  facet normal 0.156434 0.987688 0
    outer loop
      vertex 46.2151 -3.43868 0
      vertex 46.2151 -3.43868 2.3
      vertex 47.417 -3.62903 0
    endloop
  endfacet
  facet normal 0.156434 0.987688 0
    outer loop
      vertex 47.417 -3.62903 0
      vertex 46.2151 -3.43868 2.3
      vertex 47.417 -3.62903 2.3
    endloop
  endfacet
  facet normal 0.052336 0.99863 0
    outer loop
      vertex 45 -3.375 0
      vertex 45 -3.375 2.3
      vertex 46.2151 -3.43868 0
    endloop
  endfacet
  facet normal 0.052336 0.99863 0
    outer loop
      vertex 46.2151 -3.43868 0
      vertex 45 -3.375 2.3
      vertex 46.2151 -3.43868 2.3
    endloop
  endfacet
  facet normal -0.052336 0.99863 0
    outer loop
      vertex 43.7849 -3.43868 0
      vertex 43.7849 -3.43868 2.3
      vertex 45 -3.375 0
    endloop
  endfacet
  facet normal -0.052336 0.99863 0
    outer loop
      vertex 45 -3.375 0
      vertex 43.7849 -3.43868 2.3
      vertex 45 -3.375 2.3
    endloop
  endfacet
  facet normal -0.156434 0.987688 0
    outer loop
      vertex 42.583 -3.62903 0
      vertex 42.583 -3.62903 2.3
      vertex 43.7849 -3.43868 0
    endloop
  endfacet
  facet normal -0.156434 0.987688 0
    outer loop
      vertex 43.7849 -3.43868 0
      vertex 42.583 -3.62903 2.3
      vertex 43.7849 -3.43868 2.3
    endloop
  endfacet
  facet normal -0.258819 0.965926 0
    outer loop
      vertex 41.4077 -3.94397 0
      vertex 41.4077 -3.94397 2.3
      vertex 42.583 -3.62903 0
    endloop
  endfacet
  facet normal -0.258819 0.965926 0
    outer loop
      vertex 42.583 -3.62903 0
      vertex 41.4077 -3.94397 2.3
      vertex 42.583 -3.62903 2.3
    endloop
  endfacet
  facet normal -0.358368 0.93358 0
    outer loop
      vertex 40.2717 -4.38003 0
      vertex 40.2717 -4.38003 2.3
      vertex 41.4077 -3.94397 0
    endloop
  endfacet
  facet normal -0.358368 0.93358 0
    outer loop
      vertex 41.4077 -3.94397 0
      vertex 40.2717 -4.38003 2.3
      vertex 41.4077 -3.94397 2.3
    endloop
  endfacet
  facet normal -0.453991 0.891006 0
    outer loop
      vertex 39.1875 -4.93246 0
      vertex 39.1875 -4.93246 2.3
      vertex 40.2717 -4.38003 0
    endloop
  endfacet
  facet normal -0.453991 0.891006 0
    outer loop
      vertex 40.2717 -4.38003 0
      vertex 39.1875 -4.93246 2.3
      vertex 40.2717 -4.38003 2.3
    endloop
  endfacet
  facet normal -0.544638 0.838671 0
    outer loop
      vertex 38.167 -5.59518 0
      vertex 38.167 -5.59518 2.3
      vertex 39.1875 -4.93246 0
    endloop
  endfacet
  facet normal -0.544638 0.838671 0
    outer loop
      vertex 39.1875 -4.93246 0
      vertex 38.167 -5.59518 2.3
      vertex 39.1875 -4.93246 2.3
    endloop
  endfacet
  facet normal -0.629321 0.777146 0
    outer loop
      vertex 37.2214 -6.36094 0
      vertex 37.2214 -6.36094 2.3
      vertex 38.167 -5.59518 0
    endloop
  endfacet
  facet normal -0.629321 0.777146 0
    outer loop
      vertex 38.167 -5.59518 0
      vertex 37.2214 -6.36094 2.3
      vertex 38.167 -5.59518 2.3
    endloop
  endfacet
  facet normal -0.707107 0.707107 0
    outer loop
      vertex 36.3609 -7.22136 0
      vertex 36.3609 -7.22136 2.3
      vertex 37.2214 -6.36094 0
    endloop
  endfacet
  facet normal -0.707107 0.707107 0
    outer loop
      vertex 37.2214 -6.36094 0
      vertex 36.3609 -7.22136 2.3
      vertex 37.2214 -6.36094 2.3
    endloop
  endfacet
  facet normal -0.777146 0.629321 0
    outer loop
      vertex 35.5952 -8.167 0
      vertex 35.5952 -8.167 2.3
      vertex 36.3609 -7.22136 0
    endloop
  endfacet
  facet normal -0.777146 0.629321 0
    outer loop
      vertex 36.3609 -7.22136 0
      vertex 35.5952 -8.167 2.3
      vertex 36.3609 -7.22136 2.3
    endloop
  endfacet
  facet normal -0.838671 0.544638 0
    outer loop
      vertex 34.9325 -9.1875 0
      vertex 34.9325 -9.1875 2.3
      vertex 35.5952 -8.167 0
    endloop
  endfacet
  facet normal -0.838671 0.544638 0
    outer loop
      vertex 35.5952 -8.167 0
      vertex 34.9325 -9.1875 2.3
      vertex 35.5952 -8.167 2.3
    endloop
  endfacet
  facet normal -0.891006 0.453991 0
    outer loop
      vertex 34.38 -10.2717 0
      vertex 34.38 -10.2717 2.3
      vertex 34.9325 -9.1875 0
    endloop
  endfacet
  facet normal -0.891006 0.453991 0
    outer loop
      vertex 34.9325 -9.1875 0
      vertex 34.38 -10.2717 2.3
      vertex 34.9325 -9.1875 2.3
    endloop
  endfacet
  facet normal -0.93358 0.358368 0
    outer loop
      vertex 33.944 -11.4077 0
      vertex 33.944 -11.4077 2.3
      vertex 34.38 -10.2717 0
    endloop
  endfacet
  facet normal -0.93358 0.358368 0
    outer loop
      vertex 34.38 -10.2717 0
      vertex 33.944 -11.4077 2.3
      vertex 34.38 -10.2717 2.3
    endloop
  endfacet
  facet normal -0.965926 0.258819 0
    outer loop
      vertex 33.629 -12.583 0
      vertex 33.629 -12.583 2.3
      vertex 33.944 -11.4077 0
    endloop
  endfacet
  facet normal -0.965926 0.258819 0
    outer loop
      vertex 33.944 -11.4077 0
      vertex 33.629 -12.583 2.3
      vertex 33.944 -11.4077 2.3
    endloop
  endfacet
  facet normal -0.987688 0.156434 0
    outer loop
      vertex 33.4387 -13.7849 0
      vertex 33.4387 -13.7849 2.3
      vertex 33.629 -12.583 0
    endloop
  endfacet
  facet normal -0.987688 0.156434 0
    outer loop
      vertex 33.629 -12.583 0
      vertex 33.4387 -13.7849 2.3
      vertex 33.629 -12.583 2.3
    endloop
  endfacet
  facet normal 0.923879 0.382684 0
    outer loop
      vertex 43.5 -7.5 2.3
      vertex 43.9393 -8.56066 2.3
      vertex 43.9393 -8.56066 0
    endloop
  endfacet
  facet normal 0.923879 0.382684 0
    outer loop
      vertex 43.5 -7.5 0
      vertex 43.5 -7.5 2.3
      vertex 43.9393 -8.56066 0
    endloop
  endfacet
  facet normal 0.923879 -0.382684 0
    outer loop
      vertex 43.9393 -6.43934 0
      vertex 43.9393 -6.43934 2.3
      vertex 43.5 -7.5 2.3
    endloop
  endfacet
  facet normal 0.923879 -0.382684 0
    outer loop
      vertex 43.5 -7.5 0
      vertex 43.9393 -6.43934 0
      vertex 43.5 -7.5 2.3
    endloop
  endfacet
  facet normal 0.382684 -0.923879 0
    outer loop
      vertex 45 -6 0
      vertex 45 -6 2.3
      vertex 43.9393 -6.43934 2.3
    endloop
  endfacet
  facet normal 0.382684 -0.923879 0
    outer loop
      vertex 43.9393 -6.43934 0
      vertex 45 -6 0
      vertex 43.9393 -6.43934 2.3
    endloop
  endfacet
  facet normal -0.382684 -0.923879 0
    outer loop
      vertex 46.0607 -6.43934 0
      vertex 46.0607 -6.43934 2.3
      vertex 45 -6 2.3
    endloop
  endfacet
  facet normal -0.382684 -0.923879 0
    outer loop
      vertex 45 -6 0
      vertex 46.0607 -6.43934 0
      vertex 45 -6 2.3
    endloop
  endfacet
  facet normal -0.923879 -0.382684 0
    outer loop
      vertex 46.5 -7.5 2.3
      vertex 46.0607 -6.43934 2.3
      vertex 46.5 -7.5 0
    endloop
  endfacet
  facet normal -0.923879 -0.382684 0
    outer loop
      vertex 46.5 -7.5 0
      vertex 46.0607 -6.43934 2.3
      vertex 46.0607 -6.43934 0
    endloop
  endfacet
  facet normal -0.923879 0.382684 0
    outer loop
      vertex 46.5 -7.5 2.3
      vertex 46.5 -7.5 0
      vertex 46.0607 -8.56066 2.3
    endloop
  endfacet
  facet normal -0.923879 0.382684 0
    outer loop
      vertex 46.0607 -8.56066 2.3
      vertex 46.5 -7.5 0
      vertex 46.0607 -8.56066 0
    endloop
  endfacet
  facet normal -0.382684 0.923879 0
    outer loop
      vertex 46.0607 -8.56066 2.3
      vertex 46.0607 -8.56066 0
      vertex 45 -9 2.3
    endloop
  endfacet
  facet normal -0.382684 0.923879 0
    outer loop
      vertex 45 -9 2.3
      vertex 46.0607 -8.56066 0
      vertex 45 -9 0
    endloop
  endfacet
  facet normal 0.382684 0.923879 0
    outer loop
      vertex 45 -9 2.3
      vertex 45 -9 0
      vertex 43.9393 -8.56066 2.3
    endloop
  endfacet
  facet normal 0.382684 0.923879 0
    outer loop
      vertex 43.9393 -8.56066 2.3
      vertex 45 -9 0
      vertex 43.9393 -8.56066 0
    endloop
  endfacet
  facet normal 0 0 1
    outer loop
      vertex 33.4387 -13.7849 2.3
      vertex 33.375 -15 2.3
      vertex 33.4387 -16.2151 2.3
    endloop
  endfacet
  facet normal 0 0 1
    outer loop
      vertex 33.944 -18.5923 2.3
      vertex 33.4387 -13.7849 2.3
      vertex 33.629 -17.417 2.3
    endloop
  endfacet
  facet normal 0 0 1
    outer loop
      vertex 33.629 -17.417 2.3
      vertex 33.4387 -13.7849 2.3
      vertex 33.4387 -16.2151 2.3
    endloop
  endfacet
  facet normal 0 0 1
    outer loop
      vertex 34.38 -19.7283 2.3
      vertex 33.4387 -13.7849 2.3
      vertex 33.944 -18.5923 2.3
    endloop
  endfacet
  facet normal 0 0 1
    outer loop
      vertex 34.9325 -20.8125 2.3
      vertex 33.4387 -13.7849 2.3
      vertex 34.38 -19.7283 2.3
    endloop
  endfacet
  facet normal 0 0 1
    outer loop
      vertex 35.5952 -21.833 2.3
      vertex 33.4387 -13.7849 2.3
      vertex 34.9325 -20.8125 2.3
    endloop
  endfacet
  facet normal 0 0 1
    outer loop
      vertex 36.3609 -22.7786 2.3
      vertex 33.4387 -13.7849 2.3
      vertex 35.5952 -21.833 2.3
    endloop
  endfacet
  facet normal 0 0 1
    outer loop
      vertex 37.2214 -23.6391 2.3
      vertex 33.4387 -13.7849 2.3
      vertex 36.3609 -22.7786 2.3
    endloop
  endfacet
  facet normal 0 0 1
    outer loop
      vertex 38.167 -24.4048 2.3
      vertex 33.4387 -13.7849 2.3
      vertex 37.2214 -23.6391 2.3
    endloop
  endfacet
  facet normal 0 0 1
    outer loop
      vertex 39.1875 -25.0675 2.3
      vertex 33.4387 -13.7849 2.3
      vertex 38.167 -24.4048 2.3
    endloop
  endfacet
  facet normal 0 0 1
    outer loop
      vertex 40.2717 -25.62 2.3
      vertex 33.4387 -13.7849 2.3
      vertex 39.1875 -25.0675 2.3
    endloop
  endfacet
  facet normal 0 0 1
    outer loop
      vertex 41.4077 -26.056 2.3
      vertex 33.4387 -13.7849 2.3
      vertex 40.2717 -25.62 2.3
    endloop
  endfacet
  facet normal 0 0 1
    outer loop
      vertex 42.583 -26.371 2.3
      vertex 33.4387 -13.7849 2.3
      vertex 41.4077 -26.056 2.3
    endloop
  endfacet
  facet normal 0 0 1
    outer loop
      vertex 43.7849 -26.5613 2.3
      vertex 33.4387 -13.7849 2.3
      vertex 42.583 -26.371 2.3
    endloop
  endfacet
  facet normal 0 0 1
    outer loop
      vertex 45 -26.625 2.3
      vertex 33.4387 -13.7849 2.3
      vertex 43.7849 -26.5613 2.3
    endloop
  endfacet
  facet normal 0 0 1
    outer loop
      vertex 38.086 -18.49 2.3
      vertex 33.4387 -13.7849 2.3
      vertex 45 -26.625 2.3
    endloop
  endfacet
  facet normal 0 0 1
    outer loop
      vertex 43.311 -10.919 2.3
      vertex 46.383 -10.919 2.3
      vertex 55.0675 -9.1875 2.3
    endloop
  endfacet
  facet normal 0 0 1
    outer loop
      vertex 47.33 -10.919 2.3
      vertex 48.218 -13.876 2.3
      vertex 47.994 -12.87 2.3
    endloop
  endfacet
  facet normal 0 0 1
    outer loop
      vertex 52.83 -16.58 2.3
      vertex 56.056 -18.5923 2.3
      vertex 56.371 -17.417 2.3
    endloop
  endfacet
  facet normal 0 0 1
    outer loop
      vertex 49.019 -18.68 2.3
      vertex 54.4048 -21.833 2.3
      vertex 55.0675 -20.8125 2.3
    endloop
  endfacet
  facet normal 0 0 1
    outer loop
      vertex 48.81 -17.172 2.3
      vertex 49.452 -17.801 2.3
      vertex 51.285 -17.859 2.3
    endloop
  endfacet
  facet normal 0 0 1
    outer loop
      vertex 42.929 -12.121 2.3
      vertex 42.929 -19 2.3
      vertex 44.469 -19 2.3
    endloop
  endfacet
  facet normal 0 0 1
    outer loop
      vertex 38.05 -11.139 2.3
      vertex 43.5 -7.5 2.3
      vertex 33.4387 -13.7849 2.3
    endloop
  endfacet
  facet normal 0 0 1
    outer loop
      vertex 46.651 -19 2.3
      vertex 53.6391 -22.7786 2.3
      vertex 54.4048 -21.833 2.3
    endloop
  endfacet
  facet normal 0 0 1
    outer loop
      vertex 49.069 -10.919 2.3
      vertex 50.24 -10.643 2.3
      vertex 47.33 -10.919 2.3
    endloop
  endfacet
  facet normal 0 0 1
    outer loop
      vertex 37.086 -12.658 2.3
      vertex 38.05 -11.139 2.3
      vertex 33.4387 -13.7849 2.3
    endloop
  endfacet
  facet normal 0 0 1
    outer loop
      vertex 52.325 -11.784 2.3
      vertex 52.639 -13.058 2.3
      vertex 56.371 -12.583 2.3
    endloop
  endfacet
  facet normal 0 0 1
    outer loop
      vertex 52.539 -17.795 2.3
      vertex 51.701 -18.683 2.3
      vertex 55.62 -19.7283 2.3
    endloop
  endfacet
  facet normal 0 0 1
    outer loop
      vertex 42.25 -10.919 2.3
      vertex 43.311 -10.919 2.3
      vertex 53.6391 -7.22136 2.3
    endloop
  endfacet
  facet normal 0 0 1
    outer loop
      vertex 38.056 -12.368 2.3
      vertex 40.785 -12.335 2.3
      vertex 40.261 -11.77 2.3
    endloop
  endfacet
  facet normal 0 0 1
    outer loop
      vertex 45 -6 2.3
      vertex 49.7283 -4.38003 2.3
      vertex 48.5923 -3.94397 2.3
    endloop
  endfacet
  facet normal 0 0 1
    outer loop
      vertex 46.2151 -3.43868 2.3
      vertex 33.4387 -13.7849 2.3
      vertex 47.417 -3.62903 2.3
    endloop
  endfacet
  facet normal 0 0 1
    outer loop
      vertex 45 -3.375 2.3
      vertex 33.4387 -13.7849 2.3
      vertex 46.2151 -3.43868 2.3
    endloop
  endfacet
  facet normal 0 0 1
    outer loop
      vertex 43.7849 -3.43868 2.3
      vertex 33.4387 -13.7849 2.3
      vertex 45 -3.375 2.3
    endloop
  endfacet
  facet normal 0 0 1
    outer loop
      vertex 42.583 -3.62903 2.3
      vertex 33.4387 -13.7849 2.3
      vertex 43.7849 -3.43868 2.3
    endloop
  endfacet
  facet normal 0 0 1
    outer loop
      vertex 41.4077 -3.94397 2.3
      vertex 33.4387 -13.7849 2.3
      vertex 42.583 -3.62903 2.3
    endloop
  endfacet
  facet normal 0 0 1
    outer loop
      vertex 40.2717 -4.38003 2.3
      vertex 33.4387 -13.7849 2.3
      vertex 41.4077 -3.94397 2.3
    endloop
  endfacet
  facet normal 0 0 1
    outer loop
      vertex 39.1875 -4.93246 2.3
      vertex 33.4387 -13.7849 2.3
      vertex 40.2717 -4.38003 2.3
    endloop
  endfacet
  facet normal 0 0 1
    outer loop
      vertex 38.167 -5.59518 2.3
      vertex 33.4387 -13.7849 2.3
      vertex 39.1875 -4.93246 2.3
    endloop
  endfacet
  facet normal 0 0 1
    outer loop
      vertex 37.2214 -6.36094 2.3
      vertex 33.4387 -13.7849 2.3
      vertex 38.167 -5.59518 2.3
    endloop
  endfacet
  facet normal 0 0 1
    outer loop
      vertex 36.3609 -7.22136 2.3
      vertex 33.4387 -13.7849 2.3
      vertex 37.2214 -6.36094 2.3
    endloop
  endfacet
  facet normal 0 0 1
    outer loop
      vertex 35.5952 -8.167 2.3
      vertex 33.4387 -13.7849 2.3
      vertex 36.3609 -7.22136 2.3
    endloop
  endfacet
  facet normal 0 0 1
    outer loop
      vertex 34.9325 -9.1875 2.3
      vertex 33.4387 -13.7849 2.3
      vertex 35.5952 -8.167 2.3
    endloop
  endfacet
  facet normal 0 0 1
    outer loop
      vertex 34.38 -10.2717 2.3
      vertex 33.4387 -13.7849 2.3
      vertex 34.9325 -9.1875 2.3
    endloop
  endfacet
  facet normal 0 0 1
    outer loop
      vertex 33.944 -11.4077 2.3
      vertex 33.4387 -13.7849 2.3
      vertex 34.38 -10.2717 2.3
    endloop
  endfacet
  facet normal 0 0 1
    outer loop
      vertex 33.629 -12.583 2.3
      vertex 33.4387 -13.7849 2.3
      vertex 33.944 -11.4077 2.3
    endloop
  endfacet
  facet normal 0 0 1
    outer loop
      vertex 41.83 -17.737 2.3
      vertex 40.725 -18.683 2.3
      vertex 42.25 -19 2.3
    endloop
  endfacet
  facet normal 0 0 1
    outer loop
      vertex 45.104 -19 2.3
      vertex 44.469 -19 2.3
      vertex 53.6391 -22.7786 2.3
    endloop
  endfacet
  facet normal 0 0 1
    outer loop
      vertex 40.261 -11.77 2.3
      vertex 39.504 -11.558 2.3
      vertex 38.642 -11.781 2.3
    endloop
  endfacet
  facet normal 0 0 1
    outer loop
      vertex 43.5 -7.5 2.3
      vertex 43.9393 -6.43934 2.3
      vertex 33.4387 -13.7849 2.3
    endloop
  endfacet
  facet normal 0 0 1
    outer loop
      vertex 51.836 -17.36 2.3
      vertex 52.016 -16.668 2.3
      vertex 48.547 -16.177 2.3
    endloop
  endfacet
  facet normal 0 0 1
    outer loop
      vertex 46.0607 -8.56066 2.3
      vertex 40.577 -10.927 2.3
      vertex 52.7786 -6.36094 2.3
    endloop
  endfacet
  facet normal 0 0 1
    outer loop
      vertex 46.0607 -6.43934 2.3
      vertex 50.8125 -4.93246 2.3
      vertex 49.7283 -4.38003 2.3
    endloop
  endfacet
  facet normal 0 0 1
    outer loop
      vertex 48.808 -12.799 2.3
      vertex 49.056 -13.515 2.3
      vertex 51.829 -13.135 2.3
    endloop
  endfacet
  facet normal 0 0 1
    outer loop
      vertex 51.492 -10.933 2.3
      vertex 56.056 -11.4077 2.3
      vertex 55.62 -10.2717 2.3
    endloop
  endfacet
  facet normal 0 0 1
    outer loop
      vertex 40.577 -10.927 2.3
      vertex 53.6391 -7.22136 2.3
      vertex 52.7786 -6.36094 2.3
    endloop
  endfacet
  facet normal 0 0 1
    outer loop
      vertex 52.325 -11.784 2.3
      vertex 56.371 -12.583 2.3
      vertex 56.056 -11.4077 2.3
    endloop
  endfacet
  facet normal 0 0 1
    outer loop
      vertex 38.056 -12.368 2.3
      vertex 37.709 -13.168 2.3
      vertex 40.785 -12.335 2.3
    endloop
  endfacet
  facet normal 0 0 1
    outer loop
      vertex 52.016 -16.668 2.3
      vertex 51.842 -16.004 2.3
      vertex 48.547 -16.177 2.3
    endloop
  endfacet
  facet normal 0 0 1
    outer loop
      vertex 49.019 -18.68 2.3
      vertex 47.33 -19 2.3
      vertex 54.4048 -21.833 2.3
    endloop
  endfacet
  facet normal 0 0 1
    outer loop
      vertex 40.725 -18.683 2.3
      vertex 39.556 -19 2.3
      vertex 48.5923 -26.056 2.3
    endloop
  endfacet
  facet normal 0 0 1
    outer loop
      vertex 37.709 -13.168 2.3
      vertex 37.5 -14.794 2.3
      vertex 39.504 -14.744 2.3
    endloop
  endfacet
  facet normal 0 0 1
    outer loop
      vertex 42.929 -19 2.3
      vertex 42.25 -19 2.3
      vertex 51.833 -24.4048 2.3
    endloop
  endfacet
  facet normal 0 0 1
    outer loop
      vertex 47.33 -19 2.3
      vertex 46.651 -19 2.3
      vertex 54.4048 -21.833 2.3
    endloop
  endfacet
  facet normal 0 0 1
    outer loop
      vertex 42.25 -19 2.3
      vertex 40.725 -18.683 2.3
      vertex 50.8125 -25.0675 2.3
    endloop
  endfacet
  facet normal 0 0 1
    outer loop
      vertex 44.825 -17.837 2.3
      vertex 45.108 -16.541 2.3
      vertex 44.571 -16.641 2.3
    endloop
  endfacet
  facet normal 0 0 1
    outer loop
      vertex 43.9393 -8.56066 2.3
      vertex 43.5 -7.5 2.3
      vertex 38.05 -11.139 2.3
    endloop
  endfacet
  facet normal 0 0 1
    outer loop
      vertex 50.8125 -25.0675 2.3
      vertex 40.725 -18.683 2.3
      vertex 49.7283 -25.62 2.3
    endloop
  endfacet
  facet normal 0 0 1
    outer loop
      vertex 40.437 -17.768 2.3
      vertex 41.118 -17.197 2.3
      vertex 37.5 -14.794 2.3
    endloop
  endfacet
  facet normal 0 0 1
    outer loop
      vertex 48.5923 -26.056 2.3
      vertex 39.556 -19 2.3
      vertex 47.417 -26.371 2.3
    endloop
  endfacet
  facet normal 0 0 1
    outer loop
      vertex 48.101 -17.718 2.3
      vertex 47.33 -19 2.3
      vertex 49.019 -18.68 2.3
    endloop
  endfacet
  facet normal 0 0 1
    outer loop
      vertex 46.2151 -26.5613 2.3
      vertex 38.086 -18.49 2.3
      vertex 45 -26.625 2.3
    endloop
  endfacet
  facet normal 0 0 1
    outer loop
      vertex 43.311 -10.919 2.3
      vertex 55.0675 -9.1875 2.3
      vertex 54.4048 -8.167 2.3
    endloop
  endfacet
  facet normal 0 0 1
    outer loop
      vertex 48.218 -13.876 2.3
      vertex 48.547 -16.177 2.3
      vertex 48.899 -14.629 2.3
    endloop
  endfacet
  facet normal 0 0 1
    outer loop
      vertex 47.75 -16.266 2.3
      vertex 47.33 -19 2.3
      vertex 48.101 -17.718 2.3
    endloop
  endfacet
  facet normal 0 0 1
    outer loop
      vertex 51.833 -24.4048 2.3
      vertex 42.25 -19 2.3
      vertex 50.8125 -25.0675 2.3
    endloop
  endfacet
  facet normal 0 0 1
    outer loop
      vertex 48.268 -11.726 2.3
      vertex 49.069 -10.919 2.3
      vertex 47.33 -10.919 2.3
    endloop
  endfacet
  facet normal 0 0 1
    outer loop
      vertex 40.577 -10.927 2.3
      vertex 42.25 -10.919 2.3
      vertex 53.6391 -7.22136 2.3
    endloop
  endfacet
  facet normal 0 0 1
    outer loop
      vertex 53.6391 -7.22136 2.3
      vertex 43.311 -10.919 2.3
      vertex 54.4048 -8.167 2.3
    endloop
  endfacet
  facet normal 0 0 1
    outer loop
      vertex 46.383 -10.919 2.3
      vertex 47.33 -10.919 2.3
      vertex 55.0675 -9.1875 2.3
    endloop
  endfacet
  facet normal 0 0 1
    outer loop
      vertex 49.056 -13.515 2.3
      vertex 50.329 -14.091 2.3
      vertex 56.5613 -13.7849 2.3
    endloop
  endfacet
  facet normal 0 0 1
    outer loop
      vertex 45.108 -16.541 2.3
      vertex 46.383 -10.919 2.3
      vertex 43.311 -10.919 2.3
    endloop
  endfacet
  facet normal 0 0 1
    outer loop
      vertex 46.5 -7.5 2.3
      vertex 46.0607 -8.56066 2.3
      vertex 51.833 -5.59518 2.3
    endloop
  endfacet
  facet normal 0 0 1
    outer loop
      vertex 51.701 -18.683 2.3
      vertex 50.471 -19 2.3
      vertex 55.62 -19.7283 2.3
    endloop
  endfacet
  facet normal 0 0 1
    outer loop
      vertex 37.5 -14.794 2.3
      vertex 37.752 -16.602 2.3
      vertex 40.437 -17.768 2.3
    endloop
  endfacet
  facet normal 0 0 1
    outer loop
      vertex 53.6391 -22.7786 2.3
      vertex 44.469 -19 2.3
      vertex 52.7786 -23.6391 2.3
    endloop
  endfacet
  facet normal 0 0 1
    outer loop
      vertex 52.7786 -23.6391 2.3
      vertex 42.929 -19 2.3
      vertex 51.833 -24.4048 2.3
    endloop
  endfacet
  facet normal 0 0 1
    outer loop
      vertex 47.33 -10.919 2.3
      vertex 48.547 -16.177 2.3
      vertex 48.218 -13.876 2.3
    endloop
  endfacet
  facet normal 0 0 1
    outer loop
      vertex 40.261 -11.77 2.3
      vertex 38.642 -11.781 2.3
      vertex 38.056 -12.368 2.3
    endloop
  endfacet
  facet normal 0 0 1
    outer loop
      vertex 45 -6 2.3
      vertex 46.0607 -6.43934 2.3
      vertex 49.7283 -4.38003 2.3
    endloop
  endfacet
  facet normal 0 0 1
    outer loop
      vertex 47.417 -3.62903 2.3
      vertex 43.9393 -6.43934 2.3
      vertex 48.5923 -3.94397 2.3
    endloop
  endfacet
  facet normal 0 0 1
    outer loop
      vertex 47.417 -3.62903 2.3
      vertex 33.4387 -13.7849 2.3
      vertex 43.9393 -6.43934 2.3
    endloop
  endfacet
  facet normal 0 0 1
    outer loop
      vertex 43.9393 -6.43934 2.3
      vertex 45 -6 2.3
      vertex 48.5923 -3.94397 2.3
    endloop
  endfacet
  facet normal 0 0 1
    outer loop
      vertex 46.0607 -6.43934 2.3
      vertex 46.5 -7.5 2.3
      vertex 50.8125 -4.93246 2.3
    endloop
  endfacet
  facet normal 0 0 1
    outer loop
      vertex 50.8125 -4.93246 2.3
      vertex 46.5 -7.5 2.3
      vertex 51.833 -5.59518 2.3
    endloop
  endfacet
  facet normal 0 0 1
    outer loop
      vertex 51.833 -5.59518 2.3
      vertex 46.0607 -8.56066 2.3
      vertex 52.7786 -6.36094 2.3
    endloop
  endfacet
  facet normal 0 0 1
    outer loop
      vertex 45 -9 2.3
      vertex 40.577 -10.927 2.3
      vertex 46.0607 -8.56066 2.3
    endloop
  endfacet
  facet normal 0 0 1
    outer loop
      vertex 45 -9 2.3
      vertex 43.9393 -8.56066 2.3
      vertex 39.5 -10.643 2.3
    endloop
  endfacet
  facet normal 0 0 1
    outer loop
      vertex 51.285 -17.859 2.3
      vertex 48.547 -16.177 2.3
      vertex 48.81 -17.172 2.3
    endloop
  endfacet
  facet normal 0 0 1
    outer loop
      vertex 51.285 -17.859 2.3
      vertex 51.836 -17.36 2.3
      vertex 48.547 -16.177 2.3
    endloop
  endfacet
  facet normal 0 0 1
    outer loop
      vertex 45 -9 2.3
      vertex 39.5 -10.643 2.3
      vertex 40.577 -10.927 2.3
    endloop
  endfacet
  facet normal 0 0 1
    outer loop
      vertex 52.83 -16.58 2.3
      vertex 56.371 -17.417 2.3
      vertex 56.5613 -16.2151 2.3
    endloop
  endfacet
  facet normal 0 0 1
    outer loop
      vertex 48.899 -14.629 2.3
      vertex 51.842 -16.004 2.3
      vertex 50.131 -15.133 2.3
    endloop
  endfacet
  facet normal 0 0 1
    outer loop
      vertex 50.131 -15.133 2.3
      vertex 51.842 -16.004 2.3
      vertex 51.268 -15.527 2.3
    endloop
  endfacet
  facet normal 0 0 1
    outer loop
      vertex 52.565 -15.431 2.3
      vertex 52.83 -16.58 2.3
      vertex 56.5613 -16.2151 2.3
    endloop
  endfacet
  facet normal 0 0 1
    outer loop
      vertex 46.651 -19 2.3
      vertex 45.104 -19 2.3
      vertex 53.6391 -22.7786 2.3
    endloop
  endfacet
  facet normal 0 0 1
    outer loop
      vertex 49.158 -11.941 2.3
      vertex 48.808 -12.799 2.3
      vertex 51.387 -11.977 2.3
    endloop
  endfacet
  facet normal 0 0 1
    outer loop
      vertex 43.311 -10.919 2.3
      vertex 44.571 -16.641 2.3
      vertex 45.108 -16.541 2.3
    endloop
  endfacet
  facet normal 0 0 1
    outer loop
      vertex 50.24 -10.643 2.3
      vertex 51.492 -10.933 2.3
      vertex 55.62 -10.2717 2.3
    endloop
  endfacet
  facet normal 0 0 1
    outer loop
      vertex 55.0675 -9.1875 2.3
      vertex 50.24 -10.643 2.3
      vertex 55.62 -10.2717 2.3
    endloop
  endfacet
  facet normal 0 0 1
    outer loop
      vertex 55.0675 -9.1875 2.3
      vertex 47.33 -10.919 2.3
      vertex 50.24 -10.643 2.3
    endloop
  endfacet
  facet normal 0 0 1
    outer loop
      vertex 41.092 -13.306 2.3
      vertex 40.785 -12.335 2.3
      vertex 37.709 -13.168 2.3
    endloop
  endfacet
  facet normal 0 0 1
    outer loop
      vertex 56.371 -12.583 2.3
      vertex 52.639 -13.058 2.3
      vertex 56.5613 -13.7849 2.3
    endloop
  endfacet
  facet normal 0 0 1
    outer loop
      vertex 52.639 -13.058 2.3
      vertex 51.829 -13.135 2.3
      vertex 56.5613 -13.7849 2.3
    endloop
  endfacet
  facet normal 0 0 1
    outer loop
      vertex 51.742 -14.607 2.3
      vertex 52.565 -15.431 2.3
      vertex 56.625 -15 2.3
    endloop
  endfacet
  facet normal 0 0 1
    outer loop
      vertex 48.899 -14.629 2.3
      vertex 48.547 -16.177 2.3
      vertex 51.842 -16.004 2.3
    endloop
  endfacet
  facet normal 0 0 1
    outer loop
      vertex 51.829 -13.135 2.3
      vertex 51.387 -11.977 2.3
      vertex 48.808 -12.799 2.3
    endloop
  endfacet
  facet normal 0 0 1
    outer loop
      vertex 51.387 -11.977 2.3
      vertex 50.275 -11.586 2.3
      vertex 49.158 -11.941 2.3
    endloop
  endfacet
  facet normal 0 0 1
    outer loop
      vertex 51.829 -13.135 2.3
      vertex 49.056 -13.515 2.3
      vertex 56.5613 -13.7849 2.3
    endloop
  endfacet
  facet normal 0 0 1
    outer loop
      vertex 56.5613 -13.7849 2.3
      vertex 50.329 -14.091 2.3
      vertex 56.625 -15 2.3
    endloop
  endfacet
  facet normal 0 0 1
    outer loop
      vertex 56.625 -15 2.3
      vertex 52.565 -15.431 2.3
      vertex 56.5613 -16.2151 2.3
    endloop
  endfacet
  facet normal 0 0 1
    outer loop
      vertex 52.539 -17.795 2.3
      vertex 55.62 -19.7283 2.3
      vertex 56.056 -18.5923 2.3
    endloop
  endfacet
  facet normal 0 0 1
    outer loop
      vertex 47.994 -12.87 2.3
      vertex 48.268 -11.726 2.3
      vertex 47.33 -10.919 2.3
    endloop
  endfacet
  facet normal 0 0 1
    outer loop
      vertex 50.432 -18.041 2.3
      vertex 51.285 -17.859 2.3
      vertex 49.452 -17.801 2.3
    endloop
  endfacet
  facet normal 0 0 1
    outer loop
      vertex 41.118 -17.197 2.3
      vertex 39.504 -15.692 2.3
      vertex 37.5 -14.794 2.3
    endloop
  endfacet
  facet normal 0 0 1
    outer loop
      vertex 55.62 -19.7283 2.3
      vertex 50.471 -19 2.3
      vertex 55.0675 -20.8125 2.3
    endloop
  endfacet
  facet normal 0 0 1
    outer loop
      vertex 51.492 -10.933 2.3
      vertex 52.325 -11.784 2.3
      vertex 56.056 -11.4077 2.3
    endloop
  endfacet
  facet normal 0 0 1
    outer loop
      vertex 50.471 -19 2.3
      vertex 49.019 -18.68 2.3
      vertex 55.0675 -20.8125 2.3
    endloop
  endfacet
  facet normal 0 0 1
    outer loop
      vertex 46.651 -12.236 2.3
      vertex 45.104 -19 2.3
      vertex 46.651 -19 2.3
    endloop
  endfacet
  facet normal 0 0 1
    outer loop
      vertex 52.83 -16.58 2.3
      vertex 52.539 -17.795 2.3
      vertex 56.056 -18.5923 2.3
    endloop
  endfacet
  facet normal 0 0 1
    outer loop
      vertex 39.515 -18.035 2.3
      vertex 40.437 -17.768 2.3
      vertex 37.752 -16.602 2.3
    endloop
  endfacet
  facet normal 0 0 1
    outer loop
      vertex 47.33 -10.919 2.3
      vertex 47.75 -16.266 2.3
      vertex 48.547 -16.177 2.3
    endloop
  endfacet
  facet normal 0 0 1
    outer loop
      vertex 39.556 -19 2.3
      vertex 38.086 -18.49 2.3
      vertex 46.2151 -26.5613 2.3
    endloop
  endfacet
  facet normal 0 0 1
    outer loop
      vertex 40.725 -18.683 2.3
      vertex 48.5923 -26.056 2.3
      vertex 49.7283 -25.62 2.3
    endloop
  endfacet
  facet normal 0 0 1
    outer loop
      vertex 39.556 -19 2.3
      vertex 46.2151 -26.5613 2.3
      vertex 47.417 -26.371 2.3
    endloop
  endfacet
  facet normal 0 0 1
    outer loop
      vertex 37.752 -16.602 2.3
      vertex 38.489 -17.682 2.3
      vertex 39.515 -18.035 2.3
    endloop
  endfacet
  facet normal 0 0 1
    outer loop
      vertex 38.086 -18.49 2.3
      vertex 37.087 -17.015 2.3
      vertex 33.4387 -13.7849 2.3
    endloop
  endfacet
  facet normal 0 0 1
    outer loop
      vertex 37.087 -17.015 2.3
      vertex 36.75 -14.86 2.3
      vertex 33.4387 -13.7849 2.3
    endloop
  endfacet
  facet normal 0 0 1
    outer loop
      vertex 47.33 -10.919 2.3
      vertex 47.33 -19 2.3
      vertex 47.75 -16.266 2.3
    endloop
  endfacet
  facet normal 0 0 1
    outer loop
      vertex 37.709 -13.168 2.3
      vertex 39.504 -14.744 2.3
      vertex 41.83 -14.739 2.3
    endloop
  endfacet
  facet normal 0 0 1
    outer loop
      vertex 39.504 -15.692 2.3
      vertex 39.504 -14.744 2.3
      vertex 37.5 -14.794 2.3
    endloop
  endfacet
  facet normal 0 0 1
    outer loop
      vertex 50.329 -14.091 2.3
      vertex 51.742 -14.607 2.3
      vertex 56.625 -15 2.3
    endloop
  endfacet
  facet normal 0 0 1
    outer loop
      vertex 41.118 -17.197 2.3
      vertex 41.118 -15.692 2.3
      vertex 39.504 -15.692 2.3
    endloop
  endfacet
  facet normal 0 0 1
    outer loop
      vertex 36.75 -14.86 2.3
      vertex 37.086 -12.658 2.3
      vertex 33.4387 -13.7849 2.3
    endloop
  endfacet
  facet normal 0 0 1
    outer loop
      vertex 43.9393 -8.56066 2.3
      vertex 38.05 -11.139 2.3
      vertex 39.5 -10.643 2.3
    endloop
  endfacet
  facet normal 0 0 1
    outer loop
      vertex 44.469 -19 2.3
      vertex 42.929 -19 2.3
      vertex 52.7786 -23.6391 2.3
    endloop
  endfacet
  facet normal 0 0 1
    outer loop
      vertex 42.25 -19 2.3
      vertex 41.83 -14.739 2.3
      vertex 41.83 -17.737 2.3
    endloop
  endfacet
  facet normal 0 0 1
    outer loop
      vertex 41.83 -14.739 2.3
      vertex 41.092 -13.306 2.3
      vertex 37.709 -13.168 2.3
    endloop
  endfacet
  facet normal 0 0 1
    outer loop
      vertex 41.83 -14.739 2.3
      vertex 41.748 -13.041 2.3
      vertex 41.092 -13.306 2.3
    endloop
  endfacet
  facet normal 0 0 1
    outer loop
      vertex 42.25 -19 2.3
      vertex 41.748 -13.041 2.3
      vertex 41.83 -14.739 2.3
    endloop
  endfacet
  facet normal 0 0 1
    outer loop
      vertex 41.332 -11.718 2.3
      vertex 42.25 -10.919 2.3
      vertex 40.577 -10.927 2.3
    endloop
  endfacet
  facet normal 0 0 1
    outer loop
      vertex 41.748 -13.041 2.3
      vertex 42.25 -10.919 2.3
      vertex 41.332 -11.718 2.3
    endloop
  endfacet
  facet normal 0 0 1
    outer loop
      vertex 42.25 -19 2.3
      vertex 42.25 -10.919 2.3
      vertex 41.748 -13.041 2.3
    endloop
  endfacet
  facet normal 0.987992 0.154503 0
    outer loop
      vertex 36.75 -14.86 2.3
      vertex 37.087 -17.015 2.3
      vertex 37.087 -17.015 1
    endloop
  endfacet
  facet normal 0.987992 0.154503 0
    outer loop
      vertex 36.75 -14.86 1
      vertex 36.75 -14.86 2.3
      vertex 37.087 -17.015 1
    endloop
  endfacet
  facet normal 0.988558 -0.150843 0
    outer loop
      vertex 37.086 -12.658 1
      vertex 37.086 -12.658 2.3
      vertex 36.75 -14.86 2.3
    endloop
  endfacet
  facet normal 0.988558 -0.150843 0
    outer loop
      vertex 36.75 -14.86 1
      vertex 37.086 -12.658 1
      vertex 36.75 -14.86 2.3
    endloop
  endfacet
  facet normal 0.827969 0.560774 0
    outer loop
      vertex 37.087 -17.015 2.3
      vertex 38.086 -18.49 2.3
      vertex 38.086 -18.49 1
    endloop
  endfacet
  facet normal 0.827969 0.560774 0
    outer loop
      vertex 37.087 -17.015 1
      vertex 37.087 -17.015 2.3
      vertex 38.086 -18.49 1
    endloop
  endfacet
  facet normal 0.327773 0.944757 0
    outer loop
      vertex 39.556 -19 2.3
      vertex 39.556 -19 1
      vertex 38.086 -18.49 2.3
    endloop
  endfacet
  facet normal 0.327773 0.944757 0
    outer loop
      vertex 38.086 -18.49 2.3
      vertex 39.556 -19 1
      vertex 38.086 -18.49 1
    endloop
  endfacet
  facet normal -0.26172 0.965144 0
    outer loop
      vertex 40.725 -18.683 2.3
      vertex 40.725 -18.683 1
      vertex 39.556 -19 2.3
    endloop
  endfacet
  facet normal -0.26172 0.965144 0
    outer loop
      vertex 39.556 -19 2.3
      vertex 40.725 -18.683 1
      vertex 39.556 -19 1
    endloop
  endfacet
  facet normal -0.650338 0.759645 0
    outer loop
      vertex 41.83 -17.737 2.3
      vertex 41.83 -17.737 1
      vertex 40.725 -18.683 2.3
    endloop
  endfacet
  facet normal -0.650338 0.759645 0
    outer loop
      vertex 40.725 -18.683 2.3
      vertex 41.83 -17.737 1
      vertex 40.725 -18.683 1
    endloop
  endfacet
  facet normal -1 0 0
    outer loop
      vertex 41.83 -14.739 2.3
      vertex 41.83 -14.739 1
      vertex 41.83 -17.737 2.3
    endloop
  endfacet
  facet normal -1 0 0
    outer loop
      vertex 41.83 -17.737 2.3
      vertex 41.83 -14.739 1
      vertex 41.83 -17.737 1
    endloop
  endfacet
  facet normal 0.00214961 -0.999998 0
    outer loop
      vertex 41.83 -14.739 1
      vertex 41.83 -14.739 2.3
      vertex 39.504 -14.744 2.3
    endloop
  endfacet
  facet normal 0.00214961 -0.999998 0
    outer loop
      vertex 39.504 -14.744 1
      vertex 41.83 -14.739 1
      vertex 39.504 -14.744 2.3
    endloop
  endfacet
  facet normal 1 0 0
    outer loop
      vertex 39.504 -14.744 1
      vertex 39.504 -14.744 2.3
      vertex 39.504 -15.692 2.3
    endloop
  endfacet
  facet normal 1 0 0
    outer loop
      vertex 39.504 -15.692 1
      vertex 39.504 -14.744 1
      vertex 39.504 -15.692 2.3
    endloop
  endfacet
  facet normal 0 1 0
    outer loop
      vertex 41.118 -15.692 2.3
      vertex 41.118 -15.692 1
      vertex 39.504 -15.692 2.3
    endloop
  endfacet
  facet normal 0 1 0
    outer loop
      vertex 39.504 -15.692 2.3
      vertex 41.118 -15.692 1
      vertex 39.504 -15.692 1
    endloop
  endfacet
  facet normal 1 0 0
    outer loop
      vertex 41.118 -15.692 1
      vertex 41.118 -15.692 2.3
      vertex 41.118 -17.197 2.3
    endloop
  endfacet
  facet normal 1 0 0
    outer loop
      vertex 41.118 -17.197 1
      vertex 41.118 -15.692 1
      vertex 41.118 -17.197 2.3
    endloop
  endfacet
  facet normal 0.642506 -0.766281 0
    outer loop
      vertex 41.118 -17.197 1
      vertex 41.118 -17.197 2.3
      vertex 40.437 -17.768 2.3
    endloop
  endfacet
  facet normal 0.642506 -0.766281 0
    outer loop
      vertex 40.437 -17.768 1
      vertex 41.118 -17.197 1
      vertex 40.437 -17.768 2.3
    endloop
  endfacet
  facet normal 0.278159 -0.960535 0
    outer loop
      vertex 40.437 -17.768 1
      vertex 40.437 -17.768 2.3
      vertex 39.515 -18.035 2.3
    endloop
  endfacet
  facet normal 0.278159 -0.960535 0
    outer loop
      vertex 39.515 -18.035 1
      vertex 40.437 -17.768 1
      vertex 39.515 -18.035 2.3
    endloop
  endfacet
  facet normal -0.325337 -0.945598 0
    outer loop
      vertex 39.515 -18.035 1
      vertex 39.515 -18.035 2.3
      vertex 38.489 -17.682 2.3
    endloop
  endfacet
  facet normal -0.325337 -0.945598 0
    outer loop
      vertex 38.489 -17.682 1
      vertex 39.515 -18.035 1
      vertex 38.489 -17.682 2.3
    endloop
  endfacet
  facet normal -0.826001 -0.563669 0
    outer loop
      vertex 38.489 -17.682 2.3
      vertex 37.752 -16.602 2.3
      vertex 38.489 -17.682 1
    endloop
  endfacet
  facet normal -0.826001 -0.563669 0
    outer loop
      vertex 38.489 -17.682 1
      vertex 37.752 -16.602 2.3
      vertex 37.752 -16.602 1
    endloop
  endfacet
  facet normal -0.990426 -0.138046 0
    outer loop
      vertex 37.752 -16.602 2.3
      vertex 37.5 -14.794 2.3
      vertex 37.752 -16.602 1
    endloop
  endfacet
  facet normal -0.990426 -0.138046 0
    outer loop
      vertex 37.752 -16.602 1
      vertex 37.5 -14.794 2.3
      vertex 37.5 -14.794 1
    endloop
  endfacet
  facet normal -0.99184 0.127487 0
    outer loop
      vertex 37.709 -13.168 2.3
      vertex 37.709 -13.168 1
      vertex 37.5 -14.794 2.3
    endloop
  endfacet
  facet normal -0.99184 0.127487 0
    outer loop
      vertex 37.5 -14.794 2.3
      vertex 37.709 -13.168 1
      vertex 37.5 -14.794 1
    endloop
  endfacet
  facet normal -0.917416 0.397929 0
    outer loop
      vertex 38.056 -12.368 2.3
      vertex 38.056 -12.368 1
      vertex 37.709 -13.168 2.3
    endloop
  endfacet
  facet normal -0.917416 0.397929 0
    outer loop
      vertex 37.709 -13.168 2.3
      vertex 38.056 -12.368 1
      vertex 37.709 -13.168 1
    endloop
  endfacet
  facet normal -0.707709 0.706504 0
    outer loop
      vertex 38.642 -11.781 2.3
      vertex 38.642 -11.781 1
      vertex 38.056 -12.368 2.3
    endloop
  endfacet
  facet normal -0.707709 0.706504 0
    outer loop
      vertex 38.056 -12.368 2.3
      vertex 38.642 -11.781 1
      vertex 38.056 -12.368 1
    endloop
  endfacet
  facet normal -0.250455 0.968128 0
    outer loop
      vertex 39.504 -11.558 2.3
      vertex 39.504 -11.558 1
      vertex 38.642 -11.781 2.3
    endloop
  endfacet
  facet normal -0.250455 0.968128 0
    outer loop
      vertex 38.642 -11.781 2.3
      vertex 39.504 -11.558 1
      vertex 38.642 -11.781 1
    endloop
  endfacet
  facet normal 0.269677 0.962951 0
    outer loop
      vertex 40.261 -11.77 2.3
      vertex 40.261 -11.77 1
      vertex 39.504 -11.558 2.3
    endloop
  endfacet
  facet normal 0.269677 0.962951 0
    outer loop
      vertex 39.504 -11.558 2.3
      vertex 40.261 -11.77 1
      vertex 39.504 -11.558 1
    endloop
  endfacet
  facet normal 0.733209 0.680003 0
    outer loop
      vertex 40.261 -11.77 2.3
      vertex 40.785 -12.335 2.3
      vertex 40.785 -12.335 1
    endloop
  endfacet
  facet normal 0.733209 0.680003 0
    outer loop
      vertex 40.261 -11.77 1
      vertex 40.261 -11.77 2.3
      vertex 40.785 -12.335 1
    endloop
  endfacet
  facet normal 0.953479 0.30146 0
    outer loop
      vertex 40.785 -12.335 2.3
      vertex 41.092 -13.306 2.3
      vertex 41.092 -13.306 1
    endloop
  endfacet
  facet normal 0.953479 0.30146 0
    outer loop
      vertex 40.785 -12.335 1
      vertex 40.785 -12.335 2.3
      vertex 41.092 -13.306 1
    endloop
  endfacet
  facet normal -0.374557 0.927204 0
    outer loop
      vertex 41.748 -13.041 2.3
      vertex 41.748 -13.041 1
      vertex 41.092 -13.306 2.3
    endloop
  endfacet
  facet normal -0.374557 0.927204 0
    outer loop
      vertex 41.092 -13.306 2.3
      vertex 41.748 -13.041 1
      vertex 41.092 -13.306 1
    endloop
  endfacet
  facet normal -0.953952 -0.299958 0
    outer loop
      vertex 41.748 -13.041 2.3
      vertex 41.332 -11.718 2.3
      vertex 41.748 -13.041 1
    endloop
  endfacet
  facet normal -0.953952 -0.299958 0
    outer loop
      vertex 41.748 -13.041 1
      vertex 41.332 -11.718 2.3
      vertex 41.332 -11.718 1
    endloop
  endfacet
  facet normal -0.723376 -0.690454 0
    outer loop
      vertex 41.332 -11.718 2.3
      vertex 40.577 -10.927 2.3
      vertex 41.332 -11.718 1
    endloop
  endfacet
  facet normal -0.723376 -0.690454 0
    outer loop
      vertex 41.332 -11.718 1
      vertex 40.577 -10.927 2.3
      vertex 40.577 -10.927 1
    endloop
  endfacet
  facet normal -0.254979 -0.966946 0
    outer loop
      vertex 40.577 -10.927 1
      vertex 40.577 -10.927 2.3
      vertex 39.5 -10.643 2.3
    endloop
  endfacet
  facet normal -0.254979 -0.966946 0
    outer loop
      vertex 39.5 -10.643 1
      vertex 40.577 -10.927 1
      vertex 39.5 -10.643 2.3
    endloop
  endfacet
  facet normal 0.323657 -0.946175 0
    outer loop
      vertex 39.5 -10.643 1
      vertex 39.5 -10.643 2.3
      vertex 38.05 -11.139 2.3
    endloop
  endfacet
  facet normal 0.323657 -0.946175 0
    outer loop
      vertex 38.05 -11.139 1
      vertex 39.5 -10.643 1
      vertex 38.05 -11.139 2.3
    endloop
  endfacet
  facet normal 0.844325 -0.535832 0
    outer loop
      vertex 38.05 -11.139 1
      vertex 38.05 -11.139 2.3
      vertex 37.086 -12.658 2.3
    endloop
  endfacet
  facet normal 0.844325 -0.535832 0
    outer loop
      vertex 37.086 -12.658 1
      vertex 38.05 -11.139 1
      vertex 37.086 -12.658 2.3
    endloop
  endfacet
  facet normal 0 1 0
    outer loop
      vertex 42.929 -19 2.3
      vertex 42.929 -19 1
      vertex 42.25 -19 2.3
    endloop
  endfacet
  facet normal 0 1 0
    outer loop
      vertex 42.25 -19 2.3
      vertex 42.929 -19 1
      vertex 42.25 -19 1
    endloop
  endfacet
  facet normal 1 0 0
    outer loop
      vertex 42.25 -10.919 1
      vertex 42.25 -10.919 2.3
      vertex 42.25 -19 2.3
    endloop
  endfacet
  facet normal 1 0 0
    outer loop
      vertex 42.25 -19 1
      vertex 42.25 -10.919 1
      vertex 42.25 -19 2.3
    endloop
  endfacet
  facet normal -1 0 0
    outer loop
      vertex 42.929 -12.121 2.3
      vertex 42.929 -12.121 1
      vertex 42.929 -19 2.3
    endloop
  endfacet
  facet normal -1 0 0
    outer loop
      vertex 42.929 -19 2.3
      vertex 42.929 -12.121 1
      vertex 42.929 -19 1
    endloop
  endfacet
  facet normal 0.975845 0.218462 0
    outer loop
      vertex 42.929 -12.121 2.3
      vertex 44.469 -19 2.3
      vertex 44.469 -19 1
    endloop
  endfacet
  facet normal 0.975845 0.218462 0
    outer loop
      vertex 42.929 -12.121 1
      vertex 42.929 -12.121 2.3
      vertex 44.469 -19 1
    endloop
  endfacet
  facet normal 0 1 0
    outer loop
      vertex 45.104 -19 2.3
      vertex 45.104 -19 1
      vertex 44.469 -19 2.3
    endloop
  endfacet
  facet normal 0 1 0
    outer loop
      vertex 44.469 -19 2.3
      vertex 45.104 -19 1
      vertex 44.469 -19 1
    endloop
  endfacet
  facet normal -0.974829 0.222954 0
    outer loop
      vertex 46.651 -12.236 2.3
      vertex 46.651 -12.236 1
      vertex 45.104 -19 2.3
    endloop
  endfacet
  facet normal -0.974829 0.222954 0
    outer loop
      vertex 45.104 -19 2.3
      vertex 46.651 -12.236 1
      vertex 45.104 -19 1
    endloop
  endfacet
  facet normal 1 0 0
    outer loop
      vertex 46.651 -12.236 1
      vertex 46.651 -12.236 2.3
      vertex 46.651 -19 2.3
    endloop
  endfacet
  facet normal 1 0 0
    outer loop
      vertex 46.651 -19 1
      vertex 46.651 -12.236 1
      vertex 46.651 -19 2.3
    endloop
  endfacet
  facet normal 0 1 0
    outer loop
      vertex 47.33 -19 2.3
      vertex 47.33 -19 1
      vertex 46.651 -19 2.3
    endloop
  endfacet
  facet normal 0 1 0
    outer loop
      vertex 46.651 -19 2.3
      vertex 47.33 -19 1
      vertex 46.651 -19 1
    endloop
  endfacet
  facet normal -1 0 0
    outer loop
      vertex 47.33 -10.919 2.3
      vertex 47.33 -10.919 1
      vertex 47.33 -19 2.3
    endloop
  endfacet
  facet normal -1 0 0
    outer loop
      vertex 47.33 -19 2.3
      vertex 47.33 -10.919 1
      vertex 47.33 -19 1
    endloop
  endfacet
  facet normal 0 -1 0
    outer loop
      vertex 47.33 -10.919 1
      vertex 47.33 -10.919 2.3
      vertex 46.383 -10.919 2.3
    endloop
  endfacet
  facet normal 0 -1 0
    outer loop
      vertex 46.383 -10.919 1
      vertex 47.33 -10.919 1
      vertex 46.383 -10.919 2.3
    endloop
  endfacet
  facet normal 0.975235 -0.221171 0
    outer loop
      vertex 46.383 -10.919 1
      vertex 46.383 -10.919 2.3
      vertex 45.108 -16.541 2.3
    endloop
  endfacet
  facet normal 0.975235 -0.221171 0
    outer loop
      vertex 45.108 -16.541 1
      vertex 46.383 -10.919 1
      vertex 45.108 -16.541 2.3
    endloop
  endfacet
  facet normal 0.976979 -0.213337 0
    outer loop
      vertex 45.108 -16.541 1
      vertex 45.108 -16.541 2.3
      vertex 44.825 -17.837 2.3
    endloop
  endfacet
  facet normal 0.976979 -0.213337 0
    outer loop
      vertex 44.825 -17.837 1
      vertex 45.108 -16.541 1
      vertex 44.825 -17.837 2.3
    endloop
  endfacet
  facet normal -0.978184 -0.207741 0
    outer loop
      vertex 44.825 -17.837 2.3
      vertex 44.571 -16.641 2.3
      vertex 44.825 -17.837 1
    endloop
  endfacet
  facet normal -0.978184 -0.207741 0
    outer loop
      vertex 44.825 -17.837 1
      vertex 44.571 -16.641 2.3
      vertex 44.571 -16.641 1
    endloop
  endfacet
  facet normal -0.976603 -0.215051 0
    outer loop
      vertex 44.571 -16.641 2.3
      vertex 43.311 -10.919 2.3
      vertex 44.571 -16.641 1
    endloop
  endfacet
  facet normal -0.976603 -0.215051 0
    outer loop
      vertex 44.571 -16.641 1
      vertex 43.311 -10.919 2.3
      vertex 43.311 -10.919 1
    endloop
  endfacet
  facet normal 0 -1 0
    outer loop
      vertex 43.311 -10.919 1
      vertex 43.311 -10.919 2.3
      vertex 42.25 -10.919 2.3
    endloop
  endfacet
  facet normal 0 -1 0
    outer loop
      vertex 42.25 -10.919 1
      vertex 43.311 -10.919 1
      vertex 42.25 -10.919 2.3
    endloop
  endfacet
  facet normal 0.972003 0.234968 0
    outer loop
      vertex 47.75 -16.266 2.3
      vertex 48.101 -17.718 2.3
      vertex 48.101 -17.718 1
    endloop
  endfacet
  facet normal 0.972003 0.234968 0
    outer loop
      vertex 47.75 -16.266 1
      vertex 47.75 -16.266 2.3
      vertex 48.101 -17.718 1
    endloop
  endfacet
  facet normal 0.723458 0.690368 0
    outer loop
      vertex 48.101 -17.718 2.3
      vertex 49.019 -18.68 2.3
      vertex 49.019 -18.68 1
    endloop
  endfacet
  facet normal 0.723458 0.690368 0
    outer loop
      vertex 48.101 -17.718 1
      vertex 48.101 -17.718 2.3
      vertex 49.019 -18.68 1
    endloop
  endfacet
  facet normal 0.215221 0.976565 0
    outer loop
      vertex 50.471 -19 2.3
      vertex 50.471 -19 1
      vertex 49.019 -18.68 2.3
    endloop
  endfacet
  facet normal 0.215221 0.976565 0
    outer loop
      vertex 49.019 -18.68 2.3
      vertex 50.471 -19 1
      vertex 49.019 -18.68 1
    endloop
  endfacet
  facet normal -0.249568 0.968357 0
    outer loop
      vertex 51.701 -18.683 2.3
      vertex 51.701 -18.683 1
      vertex 50.471 -19 2.3
    endloop
  endfacet
  facet normal -0.249568 0.968357 0
    outer loop
      vertex 50.471 -19 2.3
      vertex 51.701 -18.683 1
      vertex 50.471 -19 1
    endloop
  endfacet
  facet normal -0.727286 0.686335 0
    outer loop
      vertex 52.539 -17.795 2.3
      vertex 52.539 -17.795 1
      vertex 51.701 -18.683 2.3
    endloop
  endfacet
  facet normal -0.727286 0.686335 0
    outer loop
      vertex 51.701 -18.683 2.3
      vertex 52.539 -17.795 1
      vertex 51.701 -18.683 1
    endloop
  endfacet
  facet normal -0.972496 0.232919 0
    outer loop
      vertex 52.83 -16.58 2.3
      vertex 52.83 -16.58 1
      vertex 52.539 -17.795 2.3
    endloop
  endfacet
  facet normal -0.972496 0.232919 0
    outer loop
      vertex 52.539 -17.795 2.3
      vertex 52.83 -16.58 1
      vertex 52.539 -17.795 1
    endloop
  endfacet
  facet normal -0.97442 -0.224736 0
    outer loop
      vertex 52.83 -16.58 2.3
      vertex 52.565 -15.431 2.3
      vertex 52.83 -16.58 1
    endloop
  endfacet
  facet normal -0.97442 -0.224736 0
    outer loop
      vertex 52.83 -16.58 1
      vertex 52.565 -15.431 2.3
      vertex 52.565 -15.431 1
    endloop
  endfacet
  facet normal -0.707536 -0.706677 0
    outer loop
      vertex 52.565 -15.431 2.3
      vertex 51.742 -14.607 2.3
      vertex 52.565 -15.431 1
    endloop
  endfacet
  facet normal -0.707536 -0.706677 0
    outer loop
      vertex 52.565 -15.431 1
      vertex 51.742 -14.607 2.3
      vertex 51.742 -14.607 1
    endloop
  endfacet
  facet normal -0.343024 -0.939327 0
    outer loop
      vertex 51.742 -14.607 1
      vertex 51.742 -14.607 2.3
      vertex 50.329 -14.091 2.3
    endloop
  endfacet
  facet normal -0.343024 -0.939327 0
    outer loop
      vertex 50.329 -14.091 1
      vertex 51.742 -14.607 1
      vertex 50.329 -14.091 2.3
    endloop
  endfacet
  facet normal -0.412239 -0.911076 0
    outer loop
      vertex 50.329 -14.091 1
      vertex 50.329 -14.091 2.3
      vertex 49.056 -13.515 2.3
    endloop
  endfacet
  facet normal -0.412239 -0.911076 0
    outer loop
      vertex 49.056 -13.515 1
      vertex 50.329 -14.091 1
      vertex 49.056 -13.515 2.3
    endloop
  endfacet
  facet normal -0.944923 -0.327292 0
    outer loop
      vertex 49.056 -13.515 2.3
      vertex 48.808 -12.799 2.3
      vertex 49.056 -13.515 1
    endloop
  endfacet
  facet normal -0.944923 -0.327292 0
    outer loop
      vertex 49.056 -13.515 1
      vertex 48.808 -12.799 2.3
      vertex 48.808 -12.799 1
    endloop
  endfacet
  facet normal -0.925925 0.377708 0
    outer loop
      vertex 49.158 -11.941 2.3
      vertex 49.158 -11.941 1
      vertex 48.808 -12.799 2.3
    endloop
  endfacet
  facet normal -0.925925 0.377708 0
    outer loop
      vertex 48.808 -12.799 2.3
      vertex 49.158 -11.941 1
      vertex 48.808 -12.799 1
    endloop
  endfacet
  facet normal -0.302887 0.953027 0
    outer loop
      vertex 50.275 -11.586 2.3
      vertex 50.275 -11.586 1
      vertex 49.158 -11.941 2.3
    endloop
  endfacet
  facet normal -0.302887 0.953027 0
    outer loop
      vertex 49.158 -11.941 2.3
      vertex 50.275 -11.586 1
      vertex 49.158 -11.941 1
    endloop
  endfacet
  facet normal 0.33171 0.943381 0
    outer loop
      vertex 51.387 -11.977 2.3
      vertex 51.387 -11.977 1
      vertex 50.275 -11.586 2.3
    endloop
  endfacet
  facet normal 0.33171 0.943381 0
    outer loop
      vertex 50.275 -11.586 2.3
      vertex 51.387 -11.977 1
      vertex 50.275 -11.586 1
    endloop
  endfacet
  facet normal 0.934257 0.356599 0
    outer loop
      vertex 51.387 -11.977 2.3
      vertex 51.829 -13.135 2.3
      vertex 51.829 -13.135 1
    endloop
  endfacet
  facet normal 0.934257 0.356599 0
    outer loop
      vertex 51.387 -11.977 1
      vertex 51.387 -11.977 2.3
      vertex 51.829 -13.135 1
    endloop
  endfacet
  facet normal -0.0946351 0.995512 0
    outer loop
      vertex 52.639 -13.058 2.3
      vertex 52.639 -13.058 1
      vertex 51.829 -13.135 2.3
    endloop
  endfacet
  facet normal -0.0946351 0.995512 0
    outer loop
      vertex 51.829 -13.135 2.3
      vertex 52.639 -13.058 1
      vertex 51.829 -13.135 1
    endloop
  endfacet
  facet normal -0.970944 -0.239306 0
    outer loop
      vertex 52.639 -13.058 2.3
      vertex 52.325 -11.784 2.3
      vertex 52.639 -13.058 1
    endloop
  endfacet
  facet normal -0.970944 -0.239306 0
    outer loop
      vertex 52.639 -13.058 1
      vertex 52.325 -11.784 2.3
      vertex 52.325 -11.784 1
    endloop
  endfacet
  facet normal -0.714624 -0.699509 0
    outer loop
      vertex 52.325 -11.784 2.3
      vertex 51.492 -10.933 2.3
      vertex 52.325 -11.784 1
    endloop
  endfacet
  facet normal -0.714624 -0.699509 0
    outer loop
      vertex 52.325 -11.784 1
      vertex 51.492 -10.933 2.3
      vertex 51.492 -10.933 1
    endloop
  endfacet
  facet normal -0.225655 -0.974207 0
    outer loop
      vertex 51.492 -10.933 1
      vertex 51.492 -10.933 2.3
      vertex 50.24 -10.643 2.3
    endloop
  endfacet
  facet normal -0.225655 -0.974207 0
    outer loop
      vertex 50.24 -10.643 1
      vertex 51.492 -10.933 1
      vertex 50.24 -10.643 2.3
    endloop
  endfacet
  facet normal 0.22941 -0.97333 0
    outer loop
      vertex 50.24 -10.643 1
      vertex 50.24 -10.643 2.3
      vertex 49.069 -10.919 2.3
    endloop
  endfacet
  facet normal 0.22941 -0.97333 0
    outer loop
      vertex 49.069 -10.919 1
      vertex 50.24 -10.643 1
      vertex 49.069 -10.919 2.3
    endloop
  endfacet
  facet normal 0.70974 -0.704463 0
    outer loop
      vertex 49.069 -10.919 1
      vertex 49.069 -10.919 2.3
      vertex 48.268 -11.726 2.3
    endloop
  endfacet
  facet normal 0.70974 -0.704463 0
    outer loop
      vertex 48.268 -11.726 1
      vertex 49.069 -10.919 1
      vertex 48.268 -11.726 2.3
    endloop
  endfacet
  facet normal 0.972495 -0.232923 0
    outer loop
      vertex 48.268 -11.726 1
      vertex 48.268 -11.726 2.3
      vertex 47.994 -12.87 2.3
    endloop
  endfacet
  facet normal 0.972495 -0.232923 0
    outer loop
      vertex 47.994 -12.87 1
      vertex 48.268 -11.726 1
      vertex 47.994 -12.87 2.3
    endloop
  endfacet
  facet normal 0.976096 0.217341 0
    outer loop
      vertex 47.994 -12.87 2.3
      vertex 48.218 -13.876 2.3
      vertex 48.218 -13.876 1
    endloop
  endfacet
  facet normal 0.976096 0.217341 0
    outer loop
      vertex 47.994 -12.87 1
      vertex 47.994 -12.87 2.3
      vertex 48.218 -13.876 1
    endloop
  endfacet
  facet normal 0.741676 0.670759 0
    outer loop
      vertex 48.218 -13.876 2.3
      vertex 48.899 -14.629 2.3
      vertex 48.899 -14.629 1
    endloop
  endfacet
  facet normal 0.741676 0.670759 0
    outer loop
      vertex 48.218 -13.876 1
      vertex 48.218 -13.876 2.3
      vertex 48.899 -14.629 1
    endloop
  endfacet
  facet normal 0.378633 0.925547 0
    outer loop
      vertex 50.131 -15.133 2.3
      vertex 50.131 -15.133 1
      vertex 48.899 -14.629 2.3
    endloop
  endfacet
  facet normal 0.378633 0.925547 0
    outer loop
      vertex 48.899 -14.629 2.3
      vertex 50.131 -15.133 1
      vertex 48.899 -14.629 1
    endloop
  endfacet
  facet normal 0.327425 0.944877 0
    outer loop
      vertex 51.268 -15.527 2.3
      vertex 51.268 -15.527 1
      vertex 50.131 -15.133 2.3
    endloop
  endfacet
  facet normal 0.327425 0.944877 0
    outer loop
      vertex 50.131 -15.133 2.3
      vertex 51.268 -15.527 1
      vertex 50.131 -15.133 1
    endloop
  endfacet
  facet normal 0.639129 0.769099 0
    outer loop
      vertex 51.842 -16.004 2.3
      vertex 51.842 -16.004 1
      vertex 51.268 -15.527 2.3
    endloop
  endfacet
  facet normal 0.639129 0.769099 0
    outer loop
      vertex 51.268 -15.527 2.3
      vertex 51.842 -16.004 1
      vertex 51.268 -15.527 1
    endloop
  endfacet
  facet normal 0.967338 0.253489 0
    outer loop
      vertex 51.842 -16.004 2.3
      vertex 52.016 -16.668 2.3
      vertex 52.016 -16.668 1
    endloop
  endfacet
  facet normal 0.967338 0.253489 0
    outer loop
      vertex 51.842 -16.004 1
      vertex 51.842 -16.004 2.3
      vertex 52.016 -16.668 1
    endloop
  endfacet
  facet normal 0.967795 -0.251739 0
    outer loop
      vertex 52.016 -16.668 1
      vertex 52.016 -16.668 2.3
      vertex 51.836 -17.36 2.3
    endloop
  endfacet
  facet normal 0.967795 -0.251739 0
    outer loop
      vertex 51.836 -17.36 1
      vertex 52.016 -16.668 1
      vertex 51.836 -17.36 2.3
    endloop
  endfacet
  facet normal 0.671265 -0.741217 0
    outer loop
      vertex 51.836 -17.36 1
      vertex 51.836 -17.36 2.3
      vertex 51.285 -17.859 2.3
    endloop
  endfacet
  facet normal 0.671265 -0.741217 0
    outer loop
      vertex 51.285 -17.859 1
      vertex 51.836 -17.36 1
      vertex 51.285 -17.859 2.3
    endloop
  endfacet
  facet normal 0.208668 -0.977987 0
    outer loop
      vertex 51.285 -17.859 1
      vertex 51.285 -17.859 2.3
      vertex 50.432 -18.041 2.3
    endloop
  endfacet
  facet normal 0.208668 -0.977987 0
    outer loop
      vertex 50.432 -18.041 1
      vertex 51.285 -17.859 1
      vertex 50.432 -18.041 2.3
    endloop
  endfacet
  facet normal -0.237869 -0.971297 0
    outer loop
      vertex 50.432 -18.041 1
      vertex 50.432 -18.041 2.3
      vertex 49.452 -17.801 2.3
    endloop
  endfacet
  facet normal -0.237869 -0.971297 0
    outer loop
      vertex 49.452 -17.801 1
      vertex 50.432 -18.041 1
      vertex 49.452 -17.801 2.3
    endloop
  endfacet
  facet normal -0.699838 -0.714302 0
    outer loop
      vertex 49.452 -17.801 1
      vertex 49.452 -17.801 2.3
      vertex 48.81 -17.172 2.3
    endloop
  endfacet
  facet normal -0.699838 -0.714302 0
    outer loop
      vertex 48.81 -17.172 1
      vertex 49.452 -17.801 1
      vertex 48.81 -17.172 2.3
    endloop
  endfacet
  facet normal -0.966797 -0.255545 0
    outer loop
      vertex 48.81 -17.172 2.3
      vertex 48.547 -16.177 2.3
      vertex 48.81 -17.172 1
    endloop
  endfacet
  facet normal -0.966797 -0.255545 0
    outer loop
      vertex 48.81 -17.172 1
      vertex 48.547 -16.177 2.3
      vertex 48.547 -16.177 1
    endloop
  endfacet
  facet normal 0.110979 -0.993823 0
    outer loop
      vertex 48.547 -16.177 1
      vertex 48.547 -16.177 2.3
      vertex 47.75 -16.266 2.3
    endloop
  endfacet
  facet normal 0.110979 -0.993823 0
    outer loop
      vertex 47.75 -16.266 1
      vertex 48.547 -16.177 1
      vertex 47.75 -16.266 2.3
    endloop
  endfacet
  facet normal 0 0 1
    outer loop
      vertex 37.087 -17.015 1
      vertex 38.086 -18.49 1
      vertex 39.556 -19 1
    endloop
  endfacet
  facet normal 0 0 1
    outer loop
      vertex 38.489 -17.682 1
      vertex 37.087 -17.015 1
      vertex 39.556 -19 1
    endloop
  endfacet
  facet normal 0 0 1
    outer loop
      vertex 39.515 -18.035 1
      vertex 38.489 -17.682 1
      vertex 40.725 -18.683 1
    endloop
  endfacet
  facet normal 0 0 1
    outer loop
      vertex 41.118 -17.197 1
      vertex 40.437 -17.768 1
      vertex 41.83 -17.737 1
    endloop
  endfacet
  facet normal 0 0 1
    outer loop
      vertex 39.504 -14.744 1
      vertex 39.504 -15.692 1
      vertex 41.83 -14.739 1
    endloop
  endfacet
  facet normal 0 0 1
    outer loop
      vertex 41.83 -14.739 1
      vertex 41.118 -15.692 1
      vertex 41.83 -17.737 1
    endloop
  endfacet
  facet normal 0 0 1
    outer loop
      vertex 41.118 -15.692 1
      vertex 41.118 -17.197 1
      vertex 41.83 -17.737 1
    endloop
  endfacet
  facet normal 0 0 1
    outer loop
      vertex 41.83 -17.737 1
      vertex 40.437 -17.768 1
      vertex 40.725 -18.683 1
    endloop
  endfacet
  facet normal 0 0 1
    outer loop
      vertex 40.437 -17.768 1
      vertex 39.515 -18.035 1
      vertex 40.725 -18.683 1
    endloop
  endfacet
  facet normal 0 0 1
    outer loop
      vertex 40.725 -18.683 1
      vertex 38.489 -17.682 1
      vertex 39.556 -19 1
    endloop
  endfacet
  facet normal 0 0 1
    outer loop
      vertex 41.092 -13.306 1
      vertex 41.748 -13.041 1
      vertex 40.785 -12.335 1
    endloop
  endfacet
  facet normal 0 0 1
    outer loop
      vertex 37.709 -13.168 1
      vertex 37.087 -17.015 1
      vertex 37.5 -14.794 1
    endloop
  endfacet
  facet normal 0 0 1
    outer loop
      vertex 37.086 -12.658 1
      vertex 37.087 -17.015 1
      vertex 37.709 -13.168 1
    endloop
  endfacet
  facet normal 0 0 1
    outer loop
      vertex 38.05 -11.139 1
      vertex 37.709 -13.168 1
      vertex 38.056 -12.368 1
    endloop
  endfacet
  facet normal 0 0 1
    outer loop
      vertex 39.5 -10.643 1
      vertex 38.056 -12.368 1
      vertex 38.642 -11.781 1
    endloop
  endfacet
  facet normal 0 0 1
    outer loop
      vertex 40.577 -10.927 1
      vertex 38.642 -11.781 1
      vertex 39.504 -11.558 1
    endloop
  endfacet
  facet normal 0 0 1
    outer loop
      vertex 41.332 -11.718 1
      vertex 39.504 -11.558 1
      vertex 40.261 -11.77 1
    endloop
  endfacet
  facet normal 0 0 1
    outer loop
      vertex 41.748 -13.041 1
      vertex 40.261 -11.77 1
      vertex 40.785 -12.335 1
    endloop
  endfacet
  facet normal 0 0 1
    outer loop
      vertex 41.332 -11.718 1
      vertex 40.261 -11.77 1
      vertex 41.748 -13.041 1
    endloop
  endfacet
  facet normal 0 0 1
    outer loop
      vertex 40.577 -10.927 1
      vertex 39.504 -11.558 1
      vertex 41.332 -11.718 1
    endloop
  endfacet
  facet normal 0 0 1
    outer loop
      vertex 39.5 -10.643 1
      vertex 38.642 -11.781 1
      vertex 40.577 -10.927 1
    endloop
  endfacet
  facet normal 0 0 1
    outer loop
      vertex 38.05 -11.139 1
      vertex 38.056 -12.368 1
      vertex 39.5 -10.643 1
    endloop
  endfacet
  facet normal 0 0 1
    outer loop
      vertex 37.086 -12.658 1
      vertex 37.709 -13.168 1
      vertex 38.05 -11.139 1
    endloop
  endfacet
  facet normal 0 0 1
    outer loop
      vertex 36.75 -14.86 1
      vertex 37.087 -17.015 1
      vertex 37.086 -12.658 1
    endloop
  endfacet
  facet normal 0 0 1
    outer loop
      vertex 37.752 -16.602 1
      vertex 37.5 -14.794 1
      vertex 37.087 -17.015 1
    endloop
  endfacet
  facet normal 0 0 1
    outer loop
      vertex 39.504 -15.692 1
      vertex 41.118 -15.692 1
      vertex 41.83 -14.739 1
    endloop
  endfacet
  facet normal 0 0 1
    outer loop
      vertex 38.489 -17.682 1
      vertex 37.752 -16.602 1
      vertex 37.087 -17.015 1
    endloop
  endfacet
  facet normal 0 0 1
    outer loop
      vertex 45.104 -19 1
      vertex 42.929 -12.121 1
      vertex 44.469 -19 1
    endloop
  endfacet
  facet normal 0 0 1
    outer loop
      vertex 44.825 -17.837 1
      vertex 42.929 -12.121 1
      vertex 45.104 -19 1
    endloop
  endfacet
  facet normal 0 0 1
    outer loop
      vertex 42.929 -19 1
      vertex 42.929 -12.121 1
      vertex 42.25 -10.919 1
    endloop
  endfacet
  facet normal 0 0 1
    outer loop
      vertex 47.33 -19 1
      vertex 46.651 -12.236 1
      vertex 46.651 -19 1
    endloop
  endfacet
  facet normal 0 0 1
    outer loop
      vertex 47.33 -10.919 1
      vertex 46.651 -12.236 1
      vertex 47.33 -19 1
    endloop
  endfacet
  facet normal 0 0 1
    outer loop
      vertex 44.571 -16.641 1
      vertex 43.311 -10.919 1
      vertex 42.929 -12.121 1
    endloop
  endfacet
  facet normal 0 0 1
    outer loop
      vertex 46.651 -12.236 1
      vertex 45.108 -16.541 1
      vertex 45.104 -19 1
    endloop
  endfacet
  facet normal 0 0 1
    outer loop
      vertex 45.108 -16.541 1
      vertex 44.825 -17.837 1
      vertex 45.104 -19 1
    endloop
  endfacet
  facet normal 0 0 1
    outer loop
      vertex 44.571 -16.641 1
      vertex 42.929 -12.121 1
      vertex 44.825 -17.837 1
    endloop
  endfacet
  facet normal 0 0 1
    outer loop
      vertex 42.25 -10.919 1
      vertex 42.929 -12.121 1
      vertex 43.311 -10.919 1
    endloop
  endfacet
  facet normal 0 0 1
    outer loop
      vertex 42.25 -19 1
      vertex 42.929 -19 1
      vertex 42.25 -10.919 1
    endloop
  endfacet
  facet normal 0 0 1
    outer loop
      vertex 46.383 -10.919 1
      vertex 46.651 -12.236 1
      vertex 47.33 -10.919 1
    endloop
  endfacet
  facet normal 0 0 1
    outer loop
      vertex 46.383 -10.919 1
      vertex 45.108 -16.541 1
      vertex 46.651 -12.236 1
    endloop
  endfacet
  facet normal 0 0 1
    outer loop
      vertex 48.101 -17.718 1
      vertex 49.019 -18.68 1
      vertex 50.471 -19 1
    endloop
  endfacet
  facet normal 0 0 1
    outer loop
      vertex 50.432 -18.041 1
      vertex 48.101 -17.718 1
      vertex 51.701 -18.683 1
    endloop
  endfacet
  facet normal 0 0 1
    outer loop
      vertex 51.701 -18.683 1
      vertex 48.101 -17.718 1
      vertex 50.471 -19 1
    endloop
  endfacet
  facet normal 0 0 1
    outer loop
      vertex 51.836 -17.36 1
      vertex 51.285 -17.859 1
      vertex 52.539 -17.795 1
    endloop
  endfacet
  facet normal 0 0 1
    outer loop
      vertex 52.016 -16.668 1
      vertex 51.836 -17.36 1
      vertex 52.83 -16.58 1
    endloop
  endfacet
  facet normal 0 0 1
    outer loop
      vertex 48.899 -14.629 1
      vertex 50.131 -15.133 1
      vertex 50.329 -14.091 1
    endloop
  endfacet
  facet normal 0 0 1
    outer loop
      vertex 49.069 -10.919 1
      vertex 48.808 -12.799 1
      vertex 49.158 -11.941 1
    endloop
  endfacet
  facet normal 0 0 1
    outer loop
      vertex 51.492 -10.933 1
      vertex 49.158 -11.941 1
      vertex 50.275 -11.586 1
    endloop
  endfacet
  facet normal 0 0 1
    outer loop
      vertex 52.325 -11.784 1
      vertex 50.275 -11.586 1
      vertex 51.387 -11.977 1
    endloop
  endfacet
  facet normal 0 0 1
    outer loop
      vertex 52.639 -13.058 1
      vertex 51.387 -11.977 1
      vertex 51.829 -13.135 1
    endloop
  endfacet
  facet normal 0 0 1
    outer loop
      vertex 52.325 -11.784 1
      vertex 51.387 -11.977 1
      vertex 52.639 -13.058 1
    endloop
  endfacet
  facet normal 0 0 1
    outer loop
      vertex 51.492 -10.933 1
      vertex 50.275 -11.586 1
      vertex 52.325 -11.784 1
    endloop
  endfacet
  facet normal 0 0 1
    outer loop
      vertex 50.24 -10.643 1
      vertex 49.158 -11.941 1
      vertex 51.492 -10.933 1
    endloop
  endfacet
  facet normal 0 0 1
    outer loop
      vertex 49.069 -10.919 1
      vertex 49.158 -11.941 1
      vertex 50.24 -10.643 1
    endloop
  endfacet
  facet normal 0 0 1
    outer loop
      vertex 48.218 -13.876 1
      vertex 48.808 -12.799 1
      vertex 49.069 -10.919 1
    endloop
  endfacet
  facet normal 0 0 1
    outer loop
      vertex 48.268 -11.726 1
      vertex 48.218 -13.876 1
      vertex 49.069 -10.919 1
    endloop
  endfacet
  facet normal 0 0 1
    outer loop
      vertex 49.056 -13.515 1
      vertex 48.899 -14.629 1
      vertex 50.329 -14.091 1
    endloop
  endfacet
  facet normal 0 0 1
    outer loop
      vertex 50.329 -14.091 1
      vertex 50.131 -15.133 1
      vertex 51.742 -14.607 1
    endloop
  endfacet
  facet normal 0 0 1
    outer loop
      vertex 51.742 -14.607 1
      vertex 51.268 -15.527 1
      vertex 52.565 -15.431 1
    endloop
  endfacet
  facet normal 0 0 1
    outer loop
      vertex 52.565 -15.431 1
      vertex 51.842 -16.004 1
      vertex 52.83 -16.58 1
    endloop
  endfacet
  facet normal 0 0 1
    outer loop
      vertex 48.547 -16.177 1
      vertex 47.75 -16.266 1
      vertex 48.101 -17.718 1
    endloop
  endfacet
  facet normal 0 0 1
    outer loop
      vertex 51.842 -16.004 1
      vertex 52.016 -16.668 1
      vertex 52.83 -16.58 1
    endloop
  endfacet
  facet normal 0 0 1
    outer loop
      vertex 52.83 -16.58 1
      vertex 51.836 -17.36 1
      vertex 52.539 -17.795 1
    endloop
  endfacet
  facet normal 0 0 1
    outer loop
      vertex 52.539 -17.795 1
      vertex 51.285 -17.859 1
      vertex 51.701 -18.683 1
    endloop
  endfacet
  facet normal 0 0 1
    outer loop
      vertex 51.285 -17.859 1
      vertex 50.432 -18.041 1
      vertex 51.701 -18.683 1
    endloop
  endfacet
  facet normal 0 0 1
    outer loop
      vertex 49.452 -17.801 1
      vertex 48.101 -17.718 1
      vertex 50.432 -18.041 1
    endloop
  endfacet
  facet normal 0 0 1
    outer loop
      vertex 48.81 -17.172 1
      vertex 48.547 -16.177 1
      vertex 48.101 -17.718 1
    endloop
  endfacet
  facet normal 0 0 1
    outer loop
      vertex 51.268 -15.527 1
      vertex 51.842 -16.004 1
      vertex 52.565 -15.431 1
    endloop
  endfacet
  facet normal 0 0 1
    outer loop
      vertex 50.131 -15.133 1
      vertex 51.268 -15.527 1
      vertex 51.742 -14.607 1
    endloop
  endfacet
  facet normal 0 0 1
    outer loop
      vertex 47.994 -12.87 1
      vertex 48.218 -13.876 1
      vertex 48.268 -11.726 1
    endloop
  endfacet
  facet normal 0 0 1
    outer loop
      vertex 48.218 -13.876 1
      vertex 49.056 -13.515 1
      vertex 48.808 -12.799 1
    endloop
  endfacet
  facet normal 0 0 1
    outer loop
      vertex 48.218 -13.876 1
      vertex 48.899 -14.629 1
      vertex 49.056 -13.515 1
    endloop
  endfacet
  facet normal 0 0 1
    outer loop
      vertex 49.452 -17.801 1
      vertex 48.81 -17.172 1
      vertex 48.101 -17.718 1
    endloop
  endfacet
endsolid OpenSCAD_Model
