  0
SECTION
  2
HEADER
  9
$ACADVER
  1
AC1015
  9
$ACADMAINTVER
 70
     6
  9
$DWGCODEPAGE
  3
ANSI_1252
  9
$INSBASE
 10
0.0
 20
0.0
 30
0.0
  9
$EXTMIN
 10
0.0
 20
0.0
 30
0.0
  9
$EXTMAX
 10
600.0
 20
841.0
 30
0.0
  9
$LIMMIN
 10
0.0
 20
0.0
  9
$LIMMAX
 10
600.0
 20
841.0
  9
$ORTHOMODE
 70
     0
  9
$REGENMODE
 70
     1
  9
$FILLMODE
 70
     1
  9
$QTEXTMODE
 70
     0
  9
$MIRRTEXT
 70
     1
  9
$LTSCALE
 40
1.0
  9
$ATTMODE
 70
     1
  9
$TEXTSIZE
 40
3.5
  9
$TRACEWID
 40
1.0
  9
$TEXTSTYLE
  7
Standard
  9
$CLAYER
  8
0
  9
$CELTYPE
  6
ByLayer
  9
$CECOLOR
 62
   256
  9
$CELTSCALE
 40
1.0
  9
$DISPSILH
 70
     0
  9
$DIMSCALE
 40
1.0
  9
$DIMASZ
 40
3.302
  9
$DIMEXO
 40
1.0
  9
$DIMDLI
 40
3.75
  9
$DIMRND
 40
0.0
  9
$DIMDLE
 40
0.0
  9
$DIMEXE
 40
1.0
  9
$DIMTP
 40
0.0
  9
$DIMTM
 40
0.0
  9
$DIMTXT
 40
3.5
  9
$DIMCEN
 40
2.5
  9
$DIMTSZ
 40
0.0
  9
$DIMTOL
 70
     0
  9
$DIMLIM
 70
     0
  9
$DIMTIH
 70
     1
  9
$DIMTOH
 70
     1
  9
$DIMSE1
 70
     0
  9
$DIMSE2
 70
     0
  9
$DIMTAD
 70
     1
  9
$DIMZIN
 70
     0
  9
$DIMBLK
  1

  9
$DIMASO
 70
     1
  9
$DIMSHO
 70
     1
  9
$DIMPOST
  1

  9
$DIMAPOST
  1

  9
$DIMALT
 70
     0
  9
$DIMALTD
 70
     3
  9
$DIMALTF
 40
0.0393700787
  9
$DIMLFAC
 40
1.0
  9
$DIMTOFL
 70
     1
  9
$DIMTVP
 40
0.0
  9
$DIMTIX
 70
     0
  9
$DIMSOXD
 70
     0
  9
$DIMSAH
 70
     0
  9
$DIMBLK1
  1

  9
$DIMBLK2
  1

  9
$DIMSTYLE
  2
ISO-25
  9
$DIMCLRD
 70
     0
  9
$DIMCLRE
 70
     0
  9
$DIMCLRT
 70
     0
  9
$DIMTFAC
 40
1.0
  9
$DIMGAP
 40
1.524
  9
$DIMJUST
 70
     0
  9
$DIMSD1
 70
     0
  9
$DIMSD2
 70
     0
  9
$DIMTOLJ
 70
     0
  9
$DIMTZIN
 70
     0
  9
$DIMALTZ
 70
     0
  9
$DIMALTTZ
 70
     0
  9
$DIMUPT
 70
     0
  9
$DIMDEC
 70
     2
  9
$DIMTDEC
 70
     2
  9
$DIMALTU
 70
     2
  9
$DIMALTTD
 70
     3
  9
$DIMTXSTY
  7
Standard
  9
$DIMAUNIT
 70
     0
  9
$DIMADEC
 70
     2
  9
$DIMALTRND
 40
0.0
  9
$DIMAZIN
 70
     0
  9
$DIMDSEP
 70
    44
  9
$DIMATFIT
 70
     3
  9
$DIMFRAC
 70
     0
  9
$DIMLDRBLK
  1

  9
$DIMLUNIT
 70
     2
  9
$DIMLWD
 70
    -2
  9
$DIMLWE
 70
    -2
  9
$DIMTMOVE
 70
     0
  9
$LUNITS
 70
     2
  9
$LUPREC
 70
     2
  9
$SKETCHINC
 40
1.0
  9
$FILLETRAD
 40
10.0
  9
$AUNITS
 70
     0
  9
$AUPREC
 70
     2
  9
$MENU
  1
.
  9
$ELEVATION
 40
0.0
  9
$PELEVATION
 40
0.0
  9
$THICKNESS
 40
0.0
  9
$LIMCHECK
 70
     0
  9
$CHAMFERA
 40
10.0
  9
$CHAMFERB
 40
10.0
  9
$CHAMFERC
 40
20.0
  9
$CHAMFERD
 40
0.0
  9
$SKPOLY
 70
     0
  9
$TDCREATE
 40
2456281.83775235
  9
$TDUCREATE
 40
2456281.296085683
  9
$TDUPDATE
 40
2456281.837753148
  9
$TDUUPDATE
 40
2456281.296086481
  9
$TDINDWG
 40
0.0000000116
  9
$TDUSRTIMER
 40
0.0000000116
  9
$USRTIMER
 70
     1
  9
$ANGBASE
 50
0.0
  9
$ANGDIR
 70
     0
  9
$PDMODE
 70
     0
  9
$PDSIZE
 40
-1.0
  9
$PLINEWID
 40
0.0
  9
$SPLFRAME
 70
     0
  9
$SPLINETYPE
 70
     6
  9
$SPLINESEGS
 70
     8
  9
$HANDSEED
  5
25D
  9
$SURFTAB1
 70
     6
  9
$SURFTAB2
 70
     6
  9
$SURFTYPE
 70
     6
  9
$SURFU
 70
     6
  9
$SURFV
 70
     6
  9
$UCSBASE
  2

  9
$UCSNAME
  2

  9
$UCSORG
 10
0.0
 20
0.0
 30
0.0
  9
$UCSXDIR
 10
1.0
 20
0.0
 30
0.0
  9
$UCSYDIR
 10
0.0
 20
1.0
 30
0.0
  9
$UCSORTHOREF
  2

  9
$UCSORTHOVIEW
 70
     0
  9
$UCSORGTOP
 10
0.0
 20
0.0
 30
0.0
  9
$UCSORGBOTTOM
 10
0.0
 20
0.0
 30
0.0
  9
$UCSORGLEFT
 10
0.0
 20
0.0
 30
0.0
  9
$UCSORGRIGHT
 10
0.0
 20
0.0
 30
0.0
  9
$UCSORGFRONT
 10
0.0
 20
0.0
 30
0.0
  9
$UCSORGBACK
 10
0.0
 20
0.0
 30
0.0
  9
$PUCSBASE
  2

  9
$PUCSNAME
  2

  9
$PUCSORG
 10
0.0
 20
0.0
 30
0.0
  9
$PUCSXDIR
 10
1.0
 20
0.0
 30
0.0
  9
$PUCSYDIR
 10
0.0
 20
1.0
 30
0.0
  9
$PUCSORTHOREF
  2

  9
$PUCSORTHOVIEW
 70
     0
  9
$PUCSORGTOP
 10
0.0
 20
0.0
 30
0.0
  9
$PUCSORGBOTTOM
 10
0.0
 20
0.0
 30
0.0
  9
$PUCSORGLEFT
 10
0.0
 20
0.0
 30
0.0
  9
$PUCSORGRIGHT
 10
0.0
 20
0.0
 30
0.0
  9
$PUCSORGFRONT
 10
0.0
 20
0.0
 30
0.0
  9
$PUCSORGBACK
 10
0.0
 20
0.0
 30
0.0
  9
$USERI1
 70
     0
  9
$USERI2
 70
     0
  9
$USERI3
 70
     0
  9
$USERI4
 70
     0
  9
$USERI5
 70
     0
  9
$USERR1
 40
0.0
  9
$USERR2
 40
0.0
  9
$USERR3
 40
0.0
  9
$USERR4
 40
0.0
  9
$USERR5
 40
0.0
  9
$WORLDVIEW
 70
     1
  9
$SHADEDGE
 70
     3
  9
$SHADEDIF
 70
    70
  9
$TILEMODE
 70
     1
  9
$MAXACTVP
 70
    64
  9
$PINSBASE
 10
0.0
 20
0.0
 30
0.0
  9
$PLIMCHECK
 70
     0
  9
$PEXTMIN
 10
1.0000000000E+20
 20
1.0000000000E+20
 30
1.0000000000E+20
  9
$PEXTMAX
 10
-1.0000000000E+20
 20
-1.0000000000E+20
 30
-1.0000000000E+20
  9
$PLIMMIN
 10
0.0
 20
0.0
  9
$PLIMMAX
 10
420.0
 20
297.0
  9
$UNITMODE
 70
     0
  9
$VISRETAIN
 70
     1
  9
$PLINEGEN
 70
     0
  9
$PSLTSCALE
 70
     1
  9
$TREEDEPTH
 70
  3020
  9
$CMLSTYLE
  2
Standard
  9
$CMLJUST
 70
     0
  9
$CMLSCALE
 40
20.0
  9
$PROXYGRAPHICS
 70
     1
  9
$MEASUREMENT
 70
     1
  9
$CELWEIGHT
370
    -1
  9
$ENDCAPS
280
     0
  9
$JOINSTYLE
280
     0
  9
$LWDISPLAY
290
     1
  9
$INSUNITS
 70
     4
  9
$HYPERLINKBASE
  1

  9
$STYLESHEET
  1

  9
$XEDIT
290
     1
  9
$CEPSNTYPE
380
     0
  9
$PSTYLEMODE
290
     1
  9
$FINGERPRINTGUID
  2
{F9D842D8-B75A-4706-A44E-D2908BB52E8B}
  9
$VERSIONGUID
  2
{FAEB1C32-E019-11D5-929B-00C0DF256EC4}
  9
$EXTNAMES
290
     1
  9
$PSVPSCALE
 40
0.0
  9
$OLESTARTUP
290
     0
  0
ENDSEC
  0
SECTION
  2
CLASSES
  0
CLASS
  1
ACDBDICTIONARYWDFLT
  2
AcDbDictionaryWithDefault
  3
ObjectDBX Classes
 90
        0
280
     0
281
     0
  0
CLASS
  1
VISUALSTYLE
  2
AcDbVisualStyle
  3
ObjectDBX Classes
 90
     4095
280
     0
281
     0
  0
CLASS
  1
MATERIAL
  2
AcDbMaterial
  3
ObjectDBX Classes
 90
     1153
280
     0
281
     0
  0
CLASS
  1
ACDBPLACEHOLDER
  2
AcDbPlaceHolder
  3
ObjectDBX Classes
 90
        0
280
     0
281
     0
  0
CLASS
  1
LAYOUT
  2
AcDbLayout
  3
ObjectDBX Classes
 90
        0
280
     0
281
     0
  0
ENDSEC
  0
SECTION
  2
TABLES
  0
TABLE
  2
VPORT
  5
8
330
0
100
AcDbSymbolTable
 70
     1
  0
VPORT
  5
29
330
8
100
AcDbSymbolTableRecord
100
AcDbViewportTableRecord
  2
*Active
 70
     0
 10
0.0
 20
0.0
 11
1.0
 21
1.0
 12
300.0
 22
420.5
 13
0.0
 23
0.0
 14
10.0
 24
10.0
 15
10.0
 25
10.0
 16
0.0
 26
0.0
 36
1.0
 17
0.0
 27
0.0
 37
0.0
 40
841.0
 41
0.7134363853
 42
50.0
 43
0.0
 44
0.0
 50
0.0
 51
0.0
 71
     0
 72
  2000
 73
     1
 74
     3
 75
     0
 76
     0
 77
     0
 78
     0
281
     0
 65
     1
110
0.0
120
0.0
130
0.0
111
1.0
121
0.0
131
0.0
112
0.0
122
1.0
132
0.0
 79
     0
146
0.0
  0
ENDTAB
  0
TABLE
  2
LTYPE
  5
5
330
0
100
AcDbSymbolTable
 70
     6
  0
LTYPE
  5
14
330
5
100
AcDbSymbolTableRecord
100
AcDbLinetypeTableRecord
  2
ByBlock
 70
     0
  3

 72
    65
 73
     0
 40
0.0
  0
LTYPE
  5
15
330
5
100
AcDbSymbolTableRecord
100
AcDbLinetypeTableRecord
  2
ByLayer
 70
     0
  3

 72
    65
 73
     0
 40
0.0
  0
LTYPE
  5
16
330
5
100
AcDbSymbolTableRecord
100
AcDbLinetypeTableRecord
  2
Continuous
 70
     0
  3
Solid line
 72
    65
 73
     0
 40
0.0
  0
LTYPE
  5
3F
330
5
100
AcDbSymbolTableRecord
100
AcDbLinetypeTableRecord
  2
HIDDEN
 70
     0
  3
Hidden __ __ __ __ __ __ __ __ __ __ __ __ __ __
 72
    65
 73
     2
 40
1.905
 49
1.27
 74
     0
 49
-0.635
 74
     0
  0
LTYPE
  5
40
330
5
100
AcDbSymbolTableRecord
100
AcDbLinetypeTableRecord
  2
PHANTOM
 70
     0
  3
Phantom ______  __  __  ______  __  __  ______
 72
    65
 73
     6
 40
12.7
 49
6.35
 74
     0
 49
-1.27
 74
     0
 49
1.27
 74
     0
 49
-1.27
 74
     0
 49
1.27
 74
     0
 49
-1.27
 74
     0
  0
LTYPE
  5
41
330
5
100
AcDbSymbolTableRecord
100
AcDbLinetypeTableRecord
  2
CENTER
 70
     0
  3
Center ____ _ ____ _ ____ _ ____ _ ____ _ ____
 72
    65
 73
     4
 40
10.16
 49
6.35
 74
     0
 49
-1.27
 74
     0
 49
1.27
 74
     0
 49
-1.27
 74
     0
  0
LTYPE
  5
42
330
5
100
AcDbSymbolTableRecord
100
AcDbLinetypeTableRecord
  2
CENTERX2
 70
     0
  3
Center (2x) ________  __  ________  __  _____
 72
    65
 73
     4
 40
20.32
 49
12.7
 74
     0
 49
-2.54
 74
     0
 49
2.54
 74
     0
 49
-2.54
 74
     0
  0
LTYPE
  5
43
330
5
100
AcDbSymbolTableRecord
100
AcDbLinetypeTableRecord
  2
DOT2
 70
     0
  3
Dot (.5x) ........................................
 72
    65
 73
     2
 40
0.635
 49
0.0
 74
     0
 49
-0.635
 74
     0
  0
ENDTAB
  0
TABLE
  2
LAYER
  5
2
330
0
100
AcDbSymbolTable
 70
     1
  0
LAYER
  5
10
330
2
100
AcDbSymbolTableRecord
100
AcDbLayerTableRecord
  2
0
 70
     0
 62
     7
  6
Continuous
370
    -3
390
F
  0
ENDTAB
  0
TABLE
  2
STYLE
  5
3
330
0
100
AcDbSymbolTable
 70
     2
  0
STYLE
  5
11
330
3
100
AcDbSymbolTableRecord
100
AcDbTextStyleTableRecord
  2
Standard
 70
     0
 40
0.0
 41
1.0
 50
0.0
 71
     0
 42
3.5
  3
txt
  4

  0
STYLE
  5
1C7
330
3
100
AcDbSymbolTableRecord
100
AcDbTextStyleTableRecord
  2
SLDTEXTSTYLE0
 70
     0
 40
0.0
 41
0.75
 50
0.0
 71
     0
 42
0.2
  3
TXT
  4

  0
ENDTAB
  0
TABLE
  2
VIEW
  5
6
330
0
100
AcDbSymbolTable
 70
     0
  0
ENDTAB
  0
TABLE
  2
UCS
  5
7
330
0
100
AcDbSymbolTable
 70
     0
  0
ENDTAB
  0
TABLE
  2
APPID
  5
9
330
0
100
AcDbSymbolTable
 70
     1
  0
APPID
  5
12
330
9
100
AcDbSymbolTableRecord
100
AcDbRegAppTableRecord
  2
ACAD
 70
     0
  0
ENDTAB
  0
TABLE
  2
DIMSTYLE
  5
A
330
0
100
AcDbSymbolTable
 70
     2
100
AcDbDimStyleTable
  0
DIMSTYLE
105
27
330
A
100
AcDbSymbolTableRecord
100
AcDbDimStyleTableRecord
  2
ISO-25
 70
     0
 41
2.5
 42
0.625
 43
3.75
 44
1.25
 73
     0
 74
     0
 77
     1
 78
     8
140
2.5
141
2.5
143
0.0393700787
147
0.625
171
     3
172
     1
178
     0
271
     2
272
     2
274
     3
278
    44
283
     0
284
     8
340
11
  0
DIMSTYLE
105
1C8
102
{ACAD_REACTORS
330
1C6
102
}
330
A
100
AcDbSymbolTableRecord
100
AcDbDimStyleTableRecord
  2
SLDDIMSTYLE0
 70
     0
 41
3.302
 44
0.0
 45
0.000000001
 73
     0
 74
     0
 77
     1
 78
    12
 79
     3
140
3.5
147
0.875
173
     1
178
     0
271
     2
272
     2
276
     2
284
    12
340
1C7
  0
ENDTAB
  0
TABLE
  2
BLOCK_RECORD
  5
1
330
0
100
AcDbSymbolTable
 70
     2
  0
BLOCK_RECORD
  5
1F
330
1
100
AcDbSymbolTableRecord
100
AcDbBlockTableRecord
  2
*Model_Space
340
22
  0
BLOCK_RECORD
  5
1B
330
1
100
AcDbSymbolTableRecord
100
AcDbBlockTableRecord
  2
*Paper_Space
340
1E
  0
BLOCK_RECORD
  5
23
330
1
100
AcDbSymbolTableRecord
100
AcDbBlockTableRecord
  2
*Paper_Space0
340
26
  0
BLOCK_RECORD
  5
1C9
330
1
100
AcDbSymbolTableRecord
100
AcDbBlockTableRecord
  2
_D
340
0
  0
ENDTAB
  0
ENDSEC
  0
SECTION
  2
BLOCKS
  0
BLOCK
  5
20
330
1F
100
AcDbEntity
  8
0
100
AcDbBlockBegin
  2
*Model_Space
 70
     0
 10
0.0
 20
0.0
 30
0.0
  3
*Model_Space
  1

  0
ENDBLK
  5
21
330
1F
100
AcDbEntity
  8
0
100
AcDbBlockEnd
  0
BLOCK
  5
1C
330
1B
100
AcDbEntity
 67
     1
  8
0
100
AcDbBlockBegin
  2
*Paper_Space
 70
     0
 10
0.0
 20
0.0
 30
0.0
  3
*Paper_Space
  1

  0
ENDBLK
  5
1D
330
1B
100
AcDbEntity
 67
     1
  8
0
100
AcDbBlockEnd
  0
BLOCK
  5
24
330
23
100
AcDbEntity
  8
0
100
AcDbBlockBegin
  2
*Paper_Space0
 70
     0
 10
0.0
 20
0.0
 30
0.0
  3
*Paper_Space0
  1

  0
ENDBLK
  5
25
330
23
100
AcDbEntity
  8
0
100
AcDbBlockEnd
  0
BLOCK
  5
1CA
330
1C9
100
AcDbEntity
  8
0
100
AcDbBlockBegin
  2
_D
 70
     0
 10
0.0
 20
0.0
 30
0.0
  3
_D
  1

  0
SOLID
  5
1CC
330
1C9
100
AcDbEntity
  8
0
  6
Continuous
 62
     7
370
     0
100
AcDbTrace
 10
446.8994054403
 20
836.7565213589
 30
0.0
 11
446.3914054403
 21
833.4545213589
 31
0.0
 12
447.4074054403
 22
833.4545213589
 32
0.0
 13
447.4074054403
 23
833.4545213589
 33
0.0
  0
SOLID
  5
1CD
330
1C9
100
AcDbEntity
  8
0
  6
Continuous
 62
     7
370
     0
100
AcDbTrace
 10
446.8994054403
 20
536.7565213589
 30
0.0
 11
447.4074054403
 21
540.0585213589
 31
0.0
 12
446.3914054403
 22
540.0585213589
 32
0.0
 13
446.3914054403
 23
540.0585213589
 33
0.0
  0
LINE
  5
1CE
330
1C9
100
AcDbEntity
  8
0
  6
Continuous
 62
     7
370
     0
100
AcDbLine
 10
431.8994054403
 20
836.7565213589
 30
0.0
 11
447.8994054403
 21
836.7565213589
 31
0.0
  0
LINE
  5
1CF
330
1C9
100
AcDbEntity
  8
0
  6
Continuous
 62
     7
370
     0
100
AcDbLine
 10
425.8994054403
 20
536.7565213589
 30
0.0
 11
447.8994054403
 21
536.7565213589
 31
0.0
  0
LINE
  5
1D0
330
1C9
100
AcDbEntity
  8
0
  6
Continuous
 62
     7
370
     0
100
AcDbLine
 10
446.8994054403
 20
836.7565213589
 30
0.0
 11
446.8994054403
 21
536.7565213589
 31
0.0
  0
MTEXT
  5
1D1
330
1C9
100
AcDbEntity
  8
0
  6
Continuous
 62
     7
370
     0
100
AcDbMText
 10
442.3876685257
 20
672.8530905724
 30
-2.9
 40
3.5
 41
0.0
 71
     1
 72
     1
  1
300
  7
SLDTEXTSTYLE0
 11
-8.820551857043885E-15
 21
1.0
 31
0.0
 73
     1
 44
1.0
  0
ENDBLK
  5
1CB
330
1C9
100
AcDbEntity
  8
0
100
AcDbBlockEnd
  0
ENDSEC
  0
SECTION
  2
ENTITIES
  0
LINE
  5
44
330
1F
100
AcDbEntity
  8
0
  6
Continuous
 62
     7
370
    15
100
AcDbLine
 10
174.8488940336
 20
545.1934902771
 30
0.0
 11
174.8488940336
 21
536.4434902771
 31
0.0
  0
LINE
  5
45
330
1F
100
AcDbEntity
  8
0
  6
Continuous
 62
     7
370
    15
100
AcDbLine
 10
45.0488940336
 20
536.4434902771
 30
0.0
 11
174.8488940336
 21
536.4434902771
 31
0.0
  0
LINE
  5
46
330
1F
100
AcDbEntity
  8
0
  6
Continuous
 62
     7
370
    15
100
AcDbLine
 10
45.0488940336
 20
536.4434902771
 30
0.0
 11
45.0488940336
 21
545.1934902771
 31
0.0
  0
ARC
  5
47
330
1F
100
AcDbEntity
  8
0
  6
Continuous
 62
     7
370
    15
100
AcDbCircle
 10
42.9493475137
 20
545.2371298366
 30
0.0
 40
2.100000000000029
100
AcDbArc
 50
358.8092654431
 51
218.0606322027
  0
LINE
  5
48
330
1F
100
AcDbEntity
  8
0
  6
Continuous
 62
     7
370
    15
100
AcDbLine
 10
41.2958940336
 20
543.9424902771
 30
0.0
 11
40.7598940336
 21
536.4434902771
 31
0.0
  0
LINE
  5
49
330
1F
100
AcDbEntity
  8
0
  6
Continuous
 62
     7
370
    15
100
AcDbLine
 10
5.4488940336
 20
536.4434902771
 30
0.0
 11
40.7598940336
 21
536.4434902771
 31
0.0
  0
LINE
  5
4A
330
1F
100
AcDbEntity
  8
0
  6
Continuous
 62
     7
370
    15
100
AcDbLine
 10
5.4488940336
 20
561.4434902771
 30
0.0
 11
5.4488940336
 21
536.4434902771
 31
0.0
  0
LINE
  5
4B
330
1F
100
AcDbEntity
  8
0
  6
Continuous
 62
     7
370
    15
100
AcDbLine
 10
5.4488940336
 20
561.4434902771
 30
0.0
 11
10.9488940336
 21
561.4434902771
 31
0.0
  0
LINE
  5
4C
330
1F
100
AcDbEntity
  8
0
  6
Continuous
 62
     7
370
    15
100
AcDbLine
 10
11.4488940336
 20
561.9434902771
 30
0.0
 11
11.4488940336
 21
585.9434902771
 31
0.0
  0
LINE
  5
4D
330
1F
100
AcDbEntity
  8
0
  6
Continuous
 62
     7
370
    15
100
AcDbLine
 10
10.9488940336
 20
586.4434902771
 30
0.0
 11
5.4488940336
 21
586.4434902771
 31
0.0
  0
LINE
  5
4E
330
1F
100
AcDbEntity
  8
0
  6
Continuous
 62
     7
370
    15
100
AcDbLine
 10
5.4488940336
 20
611.4434902771
 30
0.0
 11
5.4488940336
 21
586.4434902771
 31
0.0
  0
LINE
  5
4F
330
1F
100
AcDbEntity
  8
0
  6
Continuous
 62
     7
370
    15
100
AcDbLine
 10
5.4488940336
 20
611.4434902771
 30
0.0
 11
10.9488940336
 21
611.4434902771
 31
0.0
  0
LINE
  5
50
330
1F
100
AcDbEntity
  8
0
  6
Continuous
 62
     7
370
    15
100
AcDbLine
 10
11.4488940336
 20
611.9434902771
 30
0.0
 11
11.4488940336
 21
635.9434902771
 31
0.0
  0
LINE
  5
51
330
1F
100
AcDbEntity
  8
0
  6
Continuous
 62
     7
370
    15
100
AcDbLine
 10
10.9488940336
 20
636.4434902771
 30
0.0
 11
5.4488940336
 21
636.4434902771
 31
0.0
  0
LINE
  5
52
330
1F
100
AcDbEntity
  8
0
  6
Continuous
 62
     7
370
    15
100
AcDbLine
 10
5.4488940336
 20
661.4434902771
 30
0.0
 11
5.4488940336
 21
636.4434902771
 31
0.0
  0
LINE
  5
53
330
1F
100
AcDbEntity
  8
0
  6
Continuous
 62
     7
370
    15
100
AcDbLine
 10
5.4488940336
 20
661.4434902771
 30
0.0
 11
10.9488940336
 21
661.4434902771
 31
0.0
  0
LINE
  5
54
330
1F
100
AcDbEntity
  8
0
  6
Continuous
 62
     7
370
    15
100
AcDbLine
 10
11.4488940336
 20
661.9434902771
 30
0.0
 11
11.4488940336
 21
685.9434902771
 31
0.0
  0
LINE
  5
55
330
1F
100
AcDbEntity
  8
0
  6
Continuous
 62
     7
370
    15
100
AcDbLine
 10
10.9488940336
 20
686.4434902771
 30
0.0
 11
5.4488940336
 21
686.4434902771
 31
0.0
  0
LINE
  5
56
330
1F
100
AcDbEntity
  8
0
  6
Continuous
 62
     7
370
    15
100
AcDbLine
 10
5.4488940336
 20
711.4434902771
 30
0.0
 11
5.4488940336
 21
686.4434902771
 31
0.0
  0
LINE
  5
57
330
1F
100
AcDbEntity
  8
0
  6
Continuous
 62
     7
370
    15
100
AcDbLine
 10
5.4488940336
 20
711.4434902771
 30
0.0
 11
10.9488940336
 21
711.4434902771
 31
0.0
  0
LINE
  5
58
330
1F
100
AcDbEntity
  8
0
  6
Continuous
 62
     7
370
    15
100
AcDbLine
 10
11.4488940336
 20
711.9434902771
 30
0.0
 11
11.4488940336
 21
735.9434902771
 31
0.0
  0
LINE
  5
59
330
1F
100
AcDbEntity
  8
0
  6
Continuous
 62
     7
370
    15
100
AcDbLine
 10
10.9488940336
 20
736.4434902771
 30
0.0
 11
5.4488940336
 21
736.4434902771
 31
0.0
  0
LINE
  5
5A
330
1F
100
AcDbEntity
  8
0
  6
Continuous
 62
     7
370
    15
100
AcDbLine
 10
5.4488940336
 20
761.4434902771
 30
0.0
 11
5.4488940336
 21
736.4434902771
 31
0.0
  0
LINE
  5
5B
330
1F
100
AcDbEntity
  8
0
  6
Continuous
 62
     7
370
    15
100
AcDbLine
 10
5.4488940336
 20
761.4434902771
 30
0.0
 11
10.9488940336
 21
761.4434902771
 31
0.0
  0
LINE
  5
5C
330
1F
100
AcDbEntity
  8
0
  6
Continuous
 62
     7
370
    15
100
AcDbLine
 10
11.4488940336
 20
761.9434902771
 30
0.0
 11
11.4488940336
 21
785.9434902771
 31
0.0
  0
LINE
  5
5D
330
1F
100
AcDbEntity
  8
0
  6
Continuous
 62
     7
370
    15
100
AcDbLine
 10
10.9488940336
 20
786.4434902771
 30
0.0
 11
5.4488940336
 21
786.4434902771
 31
0.0
  0
LINE
  5
5E
330
1F
100
AcDbEntity
  8
0
  6
Continuous
 62
     7
370
    15
100
AcDbLine
 10
5.4488940336
 20
811.4434902771
 30
0.0
 11
5.4488940336
 21
786.4434902771
 31
0.0
  0
LINE
  5
5F
330
1F
100
AcDbEntity
  8
0
  6
Continuous
 62
     7
370
    15
100
AcDbLine
 10
5.4488940336
 20
811.4434902771
 30
0.0
 11
10.9488940336
 21
811.4434902771
 31
0.0
  0
LINE
  5
60
330
1F
100
AcDbEntity
  8
0
  6
Continuous
 62
     7
370
    15
100
AcDbLine
 10
11.4488940336
 20
811.9434902771
 30
0.0
 11
11.4488940336
 21
836.4434902771
 31
0.0
  0
LINE
  5
61
330
1F
100
AcDbEntity
  8
0
  6
Continuous
 62
     7
370
    15
100
AcDbLine
 10
40.8668940336
 20
836.4434902771
 30
0.0
 11
11.4488940336
 21
836.4434902771
 31
0.0
  0
LINE
  5
62
330
1F
100
AcDbEntity
  8
0
  6
Continuous
 62
     7
370
    15
100
AcDbLine
 10
40.8668940336
 20
836.4434902771
 30
0.0
 11
41.2928940336
 21
830.4824902771
 31
0.0
  0
ARC
  5
63
330
1F
100
AcDbEntity
  8
0
  6
Continuous
 62
     7
370
    15
100
AcDbCircle
 10
42.948895381
 20
829.1911113485
 30
0.0
 40
2.100000000000025
100
AcDbArc
 50
142.0522687641
 51
0.0649059989
  0
LINE
  5
64
330
1F
100
AcDbEntity
  8
0
  6
Continuous
 62
     7
370
    15
100
AcDbLine
 10
45.0488940336
 20
829.1934902771
 30
0.0
 11
45.0488940336
 21
836.4434902771
 31
0.0
  0
LINE
  5
65
330
1F
100
AcDbEntity
  8
0
  6
Continuous
 62
     7
370
    15
100
AcDbLine
 10
174.8488940336
 20
836.4434902771
 30
0.0
 11
45.0488940336
 21
836.4434902771
 31
0.0
  0
LINE
  5
66
330
1F
100
AcDbEntity
  8
0
  6
Continuous
 62
     7
370
    15
100
AcDbLine
 10
174.8488940336
 20
836.4434902771
 30
0.0
 11
174.8488940336
 21
829.1934902771
 31
0.0
  0
ARC
  5
67
330
1F
100
AcDbEntity
  8
0
  6
Continuous
 62
     7
370
    15
100
AcDbCircle
 10
176.9488926861
 20
829.1911113485
 30
0.0
 40
2.100000000000014
100
AcDbArc
 50
179.9350940011
 51
37.9477312359
  0
LINE
  5
68
330
1F
100
AcDbEntity
  8
0
  6
Continuous
 62
     7
370
    15
100
AcDbLine
 10
178.6048940336
 20
830.4824902771
 30
0.0
 11
179.0308940336
 21
836.4434902771
 31
0.0
  0
LINE
  5
69
330
1F
100
AcDbEntity
  8
0
  6
Continuous
 62
     7
370
    15
100
AcDbLine
 10
214.4488940336
 20
836.4434902771
 30
0.0
 11
179.0308940336
 21
836.4434902771
 31
0.0
  0
LINE
  5
6A
330
1F
100
AcDbEntity
  8
0
  6
Continuous
 62
     7
370
    15
100
AcDbLine
 10
214.4488940336
 20
811.4434902771
 30
0.0
 11
214.4488940336
 21
836.4434902771
 31
0.0
  0
LINE
  5
6B
330
1F
100
AcDbEntity
  8
0
  6
Continuous
 62
     7
370
    15
100
AcDbLine
 10
214.4488940336
 20
811.4434902771
 30
0.0
 11
208.9488940336
 21
811.4434902771
 31
0.0
  0
LINE
  5
6C
330
1F
100
AcDbEntity
  8
0
  6
Continuous
 62
     7
370
    15
100
AcDbLine
 10
208.4488940336
 20
810.9434902771
 30
0.0
 11
208.4488940336
 21
786.9434902771
 31
0.0
  0
LINE
  5
6D
330
1F
100
AcDbEntity
  8
0
  6
Continuous
 62
     7
370
    15
100
AcDbLine
 10
208.9488940336
 20
786.4434902771
 30
0.0
 11
214.4488940336
 21
786.4434902771
 31
0.0
  0
LINE
  5
6E
330
1F
100
AcDbEntity
  8
0
  6
Continuous
 62
     7
370
    15
100
AcDbLine
 10
214.4488940336
 20
761.4434902771
 30
0.0
 11
214.4488940336
 21
786.4434902771
 31
0.0
  0
LINE
  5
6F
330
1F
100
AcDbEntity
  8
0
  6
Continuous
 62
     7
370
    15
100
AcDbLine
 10
214.4488940336
 20
761.4434902771
 30
0.0
 11
208.9488940336
 21
761.4434902771
 31
0.0
  0
LINE
  5
70
330
1F
100
AcDbEntity
  8
0
  6
Continuous
 62
     7
370
    15
100
AcDbLine
 10
208.4488940336
 20
760.9434902771
 30
0.0
 11
208.4488940336
 21
736.9434902771
 31
0.0
  0
LINE
  5
71
330
1F
100
AcDbEntity
  8
0
  6
Continuous
 62
     7
370
    15
100
AcDbLine
 10
208.9488940336
 20
736.4434902771
 30
0.0
 11
214.4488940336
 21
736.4434902771
 31
0.0
  0
LINE
  5
72
330
1F
100
AcDbEntity
  8
0
  6
Continuous
 62
     7
370
    15
100
AcDbLine
 10
214.4488940336
 20
711.4434902771
 30
0.0
 11
214.4488940336
 21
736.4434902771
 31
0.0
  0
LINE
  5
73
330
1F
100
AcDbEntity
  8
0
  6
Continuous
 62
     7
370
    15
100
AcDbLine
 10
214.4488940336
 20
711.4434902771
 30
0.0
 11
208.9488940336
 21
711.4434902771
 31
0.0
  0
LINE
  5
74
330
1F
100
AcDbEntity
  8
0
  6
Continuous
 62
     7
370
    15
100
AcDbLine
 10
208.4488940336
 20
710.9434902771
 30
0.0
 11
208.4488940336
 21
686.9434902771
 31
0.0
  0
ARC
  5
75
330
1F
100
AcDbEntity
  8
0
  6
Continuous
 62
     7
370
    15
100
AcDbCircle
 10
208.4488940336
 20
686.4434902771
 30
0.0
 40
0.5000000000001137
100
AcDbArc
 50
90.0
 51
0.0
  0
LINE
  5
76
330
1F
100
AcDbEntity
  8
0
  6
Continuous
 62
     7
370
    15
100
AcDbLine
 10
208.9488940336
 20
686.4434902771
 30
0.0
 11
214.4488940336
 21
686.4434902771
 31
0.0
  0
LINE
  5
77
330
1F
100
AcDbEntity
  8
0
  6
Continuous
 62
     7
370
    15
100
AcDbLine
 10
214.4488940336
 20
661.4434902771
 30
0.0
 11
214.4488940336
 21
686.4434902771
 31
0.0
  0
LINE
  5
78
330
1F
100
AcDbEntity
  8
0
  6
Continuous
 62
     7
370
    15
100
AcDbLine
 10
214.4488940336
 20
661.4434902771
 30
0.0
 11
208.9488940336
 21
661.4434902771
 31
0.0
  0
ARC
  5
79
330
1F
100
AcDbEntity
  8
0
  6
Continuous
 62
     7
370
    15
100
AcDbCircle
 10
208.4488940336
 20
661.4434902771
 30
0.0
 40
0.5
100
AcDbArc
 50
0.0
 51
270.0
  0
LINE
  5
7A
330
1F
100
AcDbEntity
  8
0
  6
Continuous
 62
     7
370
    15
100
AcDbLine
 10
208.4488940336
 20
660.9434902771
 30
0.0
 11
208.4488940336
 21
636.9434902771
 31
0.0
  0
ARC
  5
7B
330
1F
100
AcDbEntity
  8
0
  6
Continuous
 62
     7
370
    15
100
AcDbCircle
 10
208.4488940336
 20
636.4434902771
 30
0.0
 40
0.5000000000001137
100
AcDbArc
 50
90.0
 51
0.0
  0
LINE
  5
7C
330
1F
100
AcDbEntity
  8
0
  6
Continuous
 62
     7
370
    15
100
AcDbLine
 10
208.9488940336
 20
636.4434902771
 30
0.0
 11
214.4488940336
 21
636.4434902771
 31
0.0
  0
LINE
  5
7D
330
1F
100
AcDbEntity
  8
0
  6
Continuous
 62
     7
370
    15
100
AcDbLine
 10
214.4488940336
 20
611.4434902771
 30
0.0
 11
214.4488940336
 21
636.4434902771
 31
0.0
  0
LINE
  5
7E
330
1F
100
AcDbEntity
  8
0
  6
Continuous
 62
     7
370
    15
100
AcDbLine
 10
214.4488940336
 20
611.4434902771
 30
0.0
 11
208.9488940336
 21
611.4434902771
 31
0.0
  0
LINE
  5
7F
330
1F
100
AcDbEntity
  8
0
  6
Continuous
 62
     7
370
    15
100
AcDbLine
 10
208.4488940336
 20
610.9434902771
 30
0.0
 11
208.4488940336
 21
586.9434902771
 31
0.0
  0
ARC
  5
80
330
1F
100
AcDbEntity
  8
0
  6
Continuous
 62
     7
370
    15
100
AcDbCircle
 10
208.4488940336
 20
586.4434902771
 30
0.0
 40
0.5
100
AcDbArc
 50
90.0
 51
0.0
  0
LINE
  5
81
330
1F
100
AcDbEntity
  8
0
  6
Continuous
 62
     7
370
    15
100
AcDbLine
 10
208.9488940336
 20
586.4434902771
 30
0.0
 11
214.4488940336
 21
586.4434902771
 31
0.0
  0
LINE
  5
82
330
1F
100
AcDbEntity
  8
0
  6
Continuous
 62
     7
370
    15
100
AcDbLine
 10
214.4488940336
 20
561.4434902771
 30
0.0
 11
214.4488940336
 21
586.4434902771
 31
0.0
  0
LINE
  5
83
330
1F
100
AcDbEntity
  8
0
  6
Continuous
 62
     7
370
    15
100
AcDbLine
 10
214.4488940336
 20
561.4434902771
 30
0.0
 11
208.9488940336
 21
561.4434902771
 31
0.0
  0
LINE
  5
84
330
1F
100
AcDbEntity
  8
0
  6
Continuous
 62
     7
370
    15
100
AcDbLine
 10
208.4488940336
 20
560.9434902771
 30
0.0
 11
208.4488940336
 21
536.4434902771
 31
0.0
  0
LINE
  5
85
330
1F
100
AcDbEntity
  8
0
  6
Continuous
 62
     7
370
    15
100
AcDbLine
 10
179.1378940336
 20
536.4434902771
 30
0.0
 11
208.4488940336
 21
536.4434902771
 31
0.0
  0
LINE
  5
86
330
1F
100
AcDbEntity
  8
0
  6
Continuous
 62
     7
370
    15
100
AcDbLine
 10
179.1378940336
 20
536.4434902771
 30
0.0
 11
178.6018940336
 21
543.9424902771
 31
0.0
  0
ARC
  5
87
330
1F
100
AcDbEntity
  8
0
  6
Continuous
 62
     7
370
    15
100
AcDbCircle
 10
176.9484405534
 20
545.2371298366
 30
0.0
 40
2.100000000000068
100
AcDbArc
 50
321.9393677973
 51
181.1907345569
  0
ARC
  5
88
330
1F
100
AcDbEntity
  8
0
  6
Continuous
 62
     7
370
    15
100
AcDbCircle
 10
166.9488940336
 20
672.9434902771
 30
0.0
 40
15.00000000000011
100
AcDbArc
 50
270.0
 51
0.0
  0
LINE
  5
89
330
1F
100
AcDbEntity
  8
0
  6
Continuous
 62
     7
370
    15
100
AcDbLine
 10
181.9488940336
 20
672.9434902771
 30
0.0
 11
181.9488940336
 21
776.9434902771
 31
0.0
  0
ARC
  5
8A
330
1F
100
AcDbEntity
  8
0
  6
Continuous
 62
     7
370
    15
100
AcDbCircle
 10
166.9488940336
 20
776.9434902771
 30
0.0
 40
15.00000000000011
100
AcDbArc
 50
0.0
 51
90.0
  0
LINE
  5
8B
330
1F
100
AcDbEntity
  8
0
  6
Continuous
 62
     7
370
    15
100
AcDbLine
 10
166.9488940336
 20
791.9434902771
 30
0.0
 11
52.9488940336
 21
791.9434902771
 31
0.0
  0
ARC
  5
8C
330
1F
100
AcDbEntity
  8
0
  6
Continuous
 62
     7
370
    15
100
AcDbCircle
 10
52.9488940336
 20
776.9434902771
 30
0.0
 40
15.00000000000011
100
AcDbArc
 50
90.0
 51
180.0
  0
LINE
  5
8D
330
1F
100
AcDbEntity
  8
0
  6
Continuous
 62
     7
370
    15
100
AcDbLine
 10
37.9488940336
 20
776.9434902771
 30
0.0
 11
37.9488940336
 21
672.9434902771
 31
0.0
  0
ARC
  5
8E
330
1F
100
AcDbEntity
  8
0
  6
Continuous
 62
     7
370
    15
100
AcDbCircle
 10
52.9488940336
 20
672.9434902771
 30
0.0
 40
15.00000000000011
100
AcDbArc
 50
180.0
 51
270.0
  0
LINE
  5
8F
330
1F
100
AcDbEntity
  8
0
  6
Continuous
 62
     7
370
    15
100
AcDbLine
 10
52.9488940336
 20
657.9434902771
 30
0.0
 11
166.9488940336
 21
657.9434902771
 31
0.0
  0
CIRCLE
  5
90
330
1F
100
AcDbEntity
  8
0
  6
Continuous
 62
     7
370
    15
100
AcDbCircle
 10
190.9488940336
 20
798.9434902771
 30
0.0
 40
11.0
  0
CIRCLE
  5
91
330
1F
100
AcDbEntity
  8
0
  6
Continuous
 62
     7
370
    15
100
AcDbCircle
 10
28.9488940336
 20
798.9434902771
 30
0.0
 40
10.99999999999999
  0
CIRCLE
  5
92
330
1F
100
AcDbEntity
  8
0
  6
Continuous
 62
     7
370
    15
100
AcDbCircle
 10
67.2988940336
 20
588.1934902771
 30
0.0
 40
3.749999999999986
  0
LINE
  5
93
330
1F
100
AcDbEntity
  8
0
  6
Continuous
 62
     7
370
    15
100
AcDbLine
 10
103.2488940336
 20
615.2934902771
 30
0.0
 11
103.2488940336
 21
640.0434902771
 31
0.0
  0
LINE
  5
94
330
1F
100
AcDbEntity
  8
0
  6
Continuous
 62
     7
370
    15
100
AcDbLine
 10
103.2488940336
 20
640.0434902771
 30
0.0
 11
31.4488940336
 21
640.0434902771
 31
0.0
  0
LINE
  5
95
330
1F
100
AcDbEntity
  8
0
  6
Continuous
 62
     7
370
    15
100
AcDbLine
 10
31.4488940336
 20
640.0434902771
 30
0.0
 11
31.4488940336
 21
615.2934902771
 31
0.0
  0
LINE
  5
96
330
1F
100
AcDbEntity
  8
0
  6
Continuous
 62
     7
370
    15
100
AcDbLine
 10
31.4488940336
 20
615.2934902771
 30
0.0
 11
103.2488940336
 21
615.2934902771
 31
0.0
  0
ARC
  5
97
330
1F
100
AcDbEntity
  8
0
  6
Continuous
 62
     7
370
    15
100
AcDbCircle
 10
29.8218940336
 20
642.2924902771
 30
0.0
 40
1.500000000000004
100
AcDbArc
 50
180.0
 51
0.0
  0
LINE
  5
98
330
1F
100
AcDbEntity
  8
0
  6
Continuous
 62
     7
370
    15
100
AcDbLine
 10
31.3218940336
 20
642.2924902771
 30
0.0
 11
31.3218940336
 21
644.0424902771
 31
0.0
  0
ARC
  5
99
330
1F
100
AcDbEntity
  8
0
  6
Continuous
 62
     7
370
    15
100
AcDbCircle
 10
29.8218940336
 20
644.0424902771
 30
0.0
 40
1.500000000000004
100
AcDbArc
 50
0.0
 51
180.0
  0
LINE
  5
9A
330
1F
100
AcDbEntity
  8
0
  6
Continuous
 62
     7
370
    15
100
AcDbLine
 10
28.3218940336
 20
644.0424902771
 30
0.0
 11
28.3218940336
 21
642.2924902771
 31
0.0
  0
ARC
  5
9B
330
1F
100
AcDbEntity
  8
0
  6
Continuous
 62
     7
370
    15
100
AcDbCircle
 10
104.8218940336
 20
642.2924902771
 30
0.0
 40
1.500000000000014
100
AcDbArc
 50
180.0
 51
0.0
  0
LINE
  5
9C
330
1F
100
AcDbEntity
  8
0
  6
Continuous
 62
     7
370
    15
100
AcDbLine
 10
106.3218940336
 20
642.2924902771
 30
0.0
 11
106.3218940336
 21
644.0424902771
 31
0.0
  0
ARC
  5
9D
330
1F
100
AcDbEntity
  8
0
  6
Continuous
 62
     7
370
    15
100
AcDbCircle
 10
104.8218940336
 20
644.0424902771
 30
0.0
 40
1.500000000000014
100
AcDbArc
 50
0.0
 51
180.0
  0
LINE
  5
9E
330
1F
100
AcDbEntity
  8
0
  6
Continuous
 62
     7
370
    15
100
AcDbLine
 10
103.3218940336
 20
644.0424902771
 30
0.0
 11
103.3218940336
 21
642.2924902771
 31
0.0
  0
ARC
  5
9F
330
1F
100
AcDbEntity
  8
0
  6
Continuous
 62
     7
370
    15
100
AcDbCircle
 10
104.8218940336
 20
611.2924902771
 30
0.0
 40
1.500000000000014
100
AcDbArc
 50
180.0
 51
0.0
  0
LINE
  5
A0
330
1F
100
AcDbEntity
  8
0
  6
Continuous
 62
     7
370
    15
100
AcDbLine
 10
106.3218940336
 20
611.2924902771
 30
0.0
 11
106.3218940336
 21
613.0424902771
 31
0.0
  0
ARC
  5
A1
330
1F
100
AcDbEntity
  8
0
  6
Continuous
 62
     7
370
    15
100
AcDbCircle
 10
104.8218940336
 20
613.0424902771
 30
0.0
 40
1.500000000000014
100
AcDbArc
 50
0.0
 51
180.0
  0
LINE
  5
A2
330
1F
100
AcDbEntity
  8
0
  6
Continuous
 62
     7
370
    15
100
AcDbLine
 10
103.3218940336
 20
613.0424902771
 30
0.0
 11
103.3218940336
 21
611.2924902771
 31
0.0
  0
ARC
  5
A3
330
1F
100
AcDbEntity
  8
0
  6
Continuous
 62
     7
370
    15
100
AcDbCircle
 10
29.8218940336
 20
611.2924902771
 30
0.0
 40
1.500000000000004
100
AcDbArc
 50
180.0
 51
0.0
  0
LINE
  5
A4
330
1F
100
AcDbEntity
  8
0
  6
Continuous
 62
     7
370
    15
100
AcDbLine
 10
31.3218940336
 20
611.2924902771
 30
0.0
 11
31.3218940336
 21
613.0424902771
 31
0.0
  0
ARC
  5
A5
330
1F
100
AcDbEntity
  8
0
  6
Continuous
 62
     7
370
    15
100
AcDbCircle
 10
29.8218940336
 20
613.0424902771
 30
0.0
 40
1.500000000000004
100
AcDbArc
 50
0.0
 51
180.0
  0
LINE
  5
A6
330
1F
100
AcDbEntity
  8
0
  6
Continuous
 62
     7
370
    15
100
AcDbLine
 10
28.3218940336
 20
613.0424902771
 30
0.0
 11
28.3218940336
 21
611.2924902771
 31
0.0
  0
CIRCLE
  5
A7
330
1F
100
AcDbEntity
  8
0
  6
Continuous
 62
     7
370
    15
100
AcDbCircle
 10
192.3488940336
 20
678.4434902771
 30
0.0
 40
4.0
  0
ARC
  5
A8
330
1F
100
AcDbEntity
  8
0
  6
Continuous
 62
     7
370
    15
100
AcDbCircle
 10
208.4488940336
 20
561.4434902771
 30
0.0
 40
0.5
100
AcDbArc
 50
0.0
 51
270.0
  0
ARC
  5
A9
330
1F
100
AcDbEntity
  8
0
  6
Continuous
 62
     7
370
    15
100
AcDbCircle
 10
208.4488940336
 20
611.4434902771
 30
0.0
 40
0.5
100
AcDbArc
 50
0.0
 51
270.0
  0
ARC
  5
AA
330
1F
100
AcDbEntity
  8
0
  6
Continuous
 62
     7
370
    15
100
AcDbCircle
 10
11.4488940336
 20
561.4434902771
 30
0.0
 40
0.5
100
AcDbArc
 50
180.0
 51
90.0
  0
ARC
  5
AB
330
1F
100
AcDbEntity
  8
0
  6
Continuous
 62
     7
370
    15
100
AcDbCircle
 10
11.4488940336
 20
586.4434902771
 30
0.0
 40
0.5000000000001137
100
AcDbArc
 50
270.0
 51
180.0
  0
ARC
  5
AC
330
1F
100
AcDbEntity
  8
0
  6
Continuous
 62
     7
370
    15
100
AcDbCircle
 10
11.4488940336
 20
611.4434902771
 30
0.0
 40
0.5
100
AcDbArc
 50
180.0
 51
90.0
  0
ARC
  5
AD
330
1F
100
AcDbEntity
  8
0
  6
Continuous
 62
     7
370
    15
100
AcDbCircle
 10
11.4488940336
 20
636.4434902771
 30
0.0
 40
0.5
100
AcDbArc
 50
270.0
 51
180.0
  0
ARC
  5
AE
330
1F
100
AcDbEntity
  8
0
  6
Continuous
 62
     7
370
    15
100
AcDbCircle
 10
11.4488940336
 20
686.4434902771
 30
0.0
 40
0.5
100
AcDbArc
 50
270.0
 51
180.0
  0
ARC
  5
AF
330
1F
100
AcDbEntity
  8
0
  6
Continuous
 62
     7
370
    15
100
AcDbCircle
 10
11.4488940336
 20
661.4434902771
 30
0.0
 40
0.5
100
AcDbArc
 50
180.0
 51
90.0
  0
ARC
  5
B0
330
1F
100
AcDbEntity
  8
0
  6
Continuous
 62
     7
370
    15
100
AcDbCircle
 10
11.4488940336
 20
736.4434902771
 30
0.0
 40
0.5000000000001137
100
AcDbArc
 50
270.0
 51
180.0
  0
ARC
  5
B1
330
1F
100
AcDbEntity
  8
0
  6
Continuous
 62
     7
370
    15
100
AcDbCircle
 10
11.4488940336
 20
711.4434902771
 30
0.0
 40
0.4999999999999858
100
AcDbArc
 50
180.0
 51
90.0
  0
ARC
  5
B2
330
1F
100
AcDbEntity
  8
0
  6
Continuous
 62
     7
370
    15
100
AcDbCircle
 10
11.4488940336
 20
761.4434902771
 30
0.0
 40
0.5000000000001137
100
AcDbArc
 50
180.0
 51
90.0
  0
ARC
  5
B3
330
1F
100
AcDbEntity
  8
0
  6
Continuous
 62
     7
370
    15
100
AcDbCircle
 10
11.4488940336
 20
786.4434902771
 30
0.0
 40
0.4999999999999858
100
AcDbArc
 50
270.0
 51
180.0
  0
ARC
  5
B4
330
1F
100
AcDbEntity
  8
0
  6
Continuous
 62
     7
370
    15
100
AcDbCircle
 10
11.4488940336
 20
811.4434902771
 30
0.0
 40
0.5000000000001137
100
AcDbArc
 50
180.0
 51
90.0
  0
ARC
  5
B5
330
1F
100
AcDbEntity
  8
0
  6
Continuous
 62
     7
370
    15
100
AcDbCircle
 10
208.4488940336
 20
811.4434902771
 30
0.0
 40
0.5
100
AcDbArc
 50
0.0
 51
270.0
  0
ARC
  5
B6
330
1F
100
AcDbEntity
  8
0
  6
Continuous
 62
     7
370
    15
100
AcDbCircle
 10
208.4488940336
 20
786.4434902771
 30
0.0
 40
0.5
100
AcDbArc
 50
90.0
 51
0.0
  0
ARC
  5
B7
330
1F
100
AcDbEntity
  8
0
  6
Continuous
 62
     7
370
    15
100
AcDbCircle
 10
208.4488940336
 20
761.4434902771
 30
0.0
 40
0.5
100
AcDbArc
 50
0.0
 51
270.0
  0
ARC
  5
B8
330
1F
100
AcDbEntity
  8
0
  6
Continuous
 62
     7
370
    15
100
AcDbCircle
 10
208.4488940336
 20
736.4434902771
 30
0.0
 40
0.5
100
AcDbArc
 50
90.0
 51
0.0
  0
ARC
  5
B9
330
1F
100
AcDbEntity
  8
0
  6
Continuous
 62
     7
370
    15
100
AcDbCircle
 10
208.4488940336
 20
711.4434902771
 30
0.0
 40
0.5000000000001137
100
AcDbArc
 50
0.0
 51
270.0
  0
LINE
  5
BA
330
1F
100
AcDbEntity
  8
0
  6
Continuous
 62
     7
370
    15
100
AcDbLine
 10
390.8934588466
 20
240.4444098383
 30
0.0
 11
390.8934588466
 21
233.1944100469
 31
0.0
  0
LINE
  5
BB
330
1F
100
AcDbEntity
  8
0
  6
Continuous
 62
     7
370
    15
100
AcDbLine
 10
261.0934520993
 20
233.1944100469
 30
0.0
 11
390.8934588466
 21
233.1944100469
 31
0.0
  0
LINE
  5
BC
330
1F
100
AcDbEntity
  8
0
  6
Continuous
 62
     7
370
    15
100
AcDbLine
 10
261.0934520993
 20
233.1944100469
 30
0.0
 11
261.0934520993
 21
240.4444098383
 31
0.0
  0
ARC
  5
BD
330
1F
100
AcDbEntity
  8
0
  6
Continuous
 62
     7
370
    15
100
AcDbCircle
 10
258.9934536614
 20
240.4467889755
 30
0.0
 40
2.099999999999967
100
AcDbArc
 50
359.9350940011
 51
217.9477312359
  0
LINE
  5
BE
330
1F
100
AcDbEntity
  8
0
  6
Continuous
 62
     7
370
    15
100
AcDbLine
 10
257.3374505076
 20
239.155410035
 30
0.0
 11
256.9114523861
 21
233.1944100469
 31
0.0
  0
LINE
  5
BF
330
1F
100
AcDbEntity
  8
0
  6
Continuous
 62
     7
370
    15
100
AcDbLine
 10
221.4934523139
 20
233.1944100469
 30
0.0
 11
256.9114523861
 21
233.1944100469
 31
0.0
  0
LINE
  5
C0
330
1F
100
AcDbEntity
  8
0
  6
Continuous
 62
     7
370
    15
100
AcDbLine
 10
221.4934523139
 20
258.1944104195
 30
0.0
 11
221.4934523139
 21
233.1944100469
 31
0.0
  0
LINE
  5
C1
330
1F
100
AcDbEntity
  8
0
  6
Continuous
 62
     7
370
    15
100
AcDbLine
 10
226.9934522841
 20
258.1944104195
 30
0.0
 11
221.4934523139
 21
258.1944104195
 31
0.0
  0
ARC
  5
C2
330
1F
100
AcDbEntity
  8
0
  6
Continuous
 62
     7
370
    15
100
AcDbCircle
 10
227.4934523139
 20
258.1944100469
 30
0.0
 40
0.5
100
AcDbArc
 50
180.0
 51
90.0
  0
LINE
  5
C3
330
1F
100
AcDbEntity
  8
0
  6
Continuous
 62
     7
370
    15
100
AcDbLine
 10
227.4934523661
 20
282.6944097787
 30
0.0
 11
227.4934523661
 21
258.6944095701
 31
0.0
  0
ARC
  5
C4
330
1F
100
AcDbEntity
  8
0
  6
Continuous
 62
     7
370
    15
100
AcDbCircle
 10
227.4934523139
 20
283.1944100469
 30
0.0
 40
0.5
100
AcDbArc
 50
270.0
 51
180.0
  0
LINE
  5
C5
330
1F
100
AcDbEntity
  8
0
  6
Continuous
 62
     7
370
    15
100
AcDbLine
 10
221.4934523139
 20
283.194410792
 30
0.0
 11
226.9934522841
 21
283.194410792
 31
0.0
  0
LINE
  5
C6
330
1F
100
AcDbEntity
  8
0
  6
Continuous
 62
     7
370
    15
100
AcDbLine
 10
221.4934523139
 20
308.1944130272
 30
0.0
 11
221.4934523139
 21
283.194410792
 31
0.0
  0
LINE
  5
C7
330
1F
100
AcDbEntity
  8
0
  6
Continuous
 62
     7
370
    15
100
AcDbLine
 10
226.9934522841
 20
308.1944130272
 30
0.0
 11
221.4934523139
 21
308.1944130272
 31
0.0
  0
ARC
  5
C8
330
1F
100
AcDbEntity
  8
0
  6
Continuous
 62
     7
370
    15
100
AcDbCircle
 10
227.4934523139
 20
308.1944100469
 30
0.0
 40
0.5
100
AcDbArc
 50
180.0
 51
90.0
  0
LINE
  5
C9
330
1F
100
AcDbEntity
  8
0
  6
Continuous
 62
     7
370
    15
100
AcDbLine
 10
227.4934523661
 20
332.6944105238
 30
0.0
 11
227.4934523661
 21
308.6944065899
 31
0.0
  0
ARC
  5
CA
330
1F
100
AcDbEntity
  8
0
  6
Continuous
 62
     7
370
    15
100
AcDbCircle
 10
227.4934523139
 20
333.1944100469
 30
0.0
 40
0.5
100
AcDbArc
 50
270.0
 51
180.0
  0
LINE
  5
CB
330
1F
100
AcDbEntity
  8
0
  6
Continuous
 62
     7
370
    15
100
AcDbLine
 10
221.4934523139
 20
333.1944115371
 30
0.0
 11
226.9934522841
 21
333.1944115371
 31
0.0
  0
LINE
  5
CC
330
1F
100
AcDbEntity
  8
0
  6
Continuous
 62
     7
370
    15
100
AcDbLine
 10
221.4934523139
 20
358.1944100469
 30
0.0
 11
221.4934523139
 21
333.1944115371
 31
0.0
  0
LINE
  5
CD
330
1F
100
AcDbEntity
  8
0
  6
Continuous
 62
     7
370
    15
100
AcDbLine
 10
226.9934522841
 20
358.1944100469
 30
0.0
 11
221.4934523139
 21
358.1944100469
 31
0.0
  0
ARC
  5
CE
330
1F
100
AcDbEntity
  8
0
  6
Continuous
 62
     7
370
    15
100
AcDbCircle
 10
227.4934523139
 20
358.1944100469
 30
0.0
 40
0.5000000000000568
100
AcDbArc
 50
180.0
 51
90.0
  0
LINE
  5
CF
330
1F
100
AcDbEntity
  8
0
  6
Continuous
 62
     7
370
    15
100
AcDbLine
 10
227.4934523661
 20
382.6944075435
 30
0.0
 11
227.4934523661
 21
358.6944036096
 31
0.0
  0
ARC
  5
D0
330
1F
100
AcDbEntity
  8
0
  6
Continuous
 62
     7
370
    15
100
AcDbCircle
 10
227.4934523139
 20
383.1944100469
 30
0.0
 40
0.5
100
AcDbArc
 50
270.0
 51
180.0
  0
LINE
  5
D1
330
1F
100
AcDbEntity
  8
0
  6
Continuous
 62
     7
370
    15
100
AcDbLine
 10
221.4934523139
 20
383.1944160074
 30
0.0
 11
226.9934522841
 21
383.1944160074
 31
0.0
  0
LINE
  5
D2
330
1F
100
AcDbEntity
  8
0
  6
Continuous
 62
     7
370
    15
100
AcDbLine
 10
221.4934523139
 20
408.1944070667
 30
0.0
 11
221.4934523139
 21
383.1944160074
 31
0.0
  0
LINE
  5
D3
330
1F
100
AcDbEntity
  8
0
  6
Continuous
 62
     7
370
    15
100
AcDbLine
 10
226.9934522841
 20
408.1944070667
 30
0.0
 11
221.4934523139
 21
408.1944070667
 31
0.0
  0
ARC
  5
D4
330
1F
100
AcDbEntity
  8
0
  6
Continuous
 62
     7
370
    15
100
AcDbCircle
 10
227.4934523139
 20
408.1944100469
 30
0.0
 40
0.5000000000000568
100
AcDbArc
 50
180.0
 51
90.0
  0
LINE
  5
D5
330
1F
100
AcDbEntity
  8
0
  6
Continuous
 62
     7
370
    15
100
AcDbLine
 10
227.4934523661
 20
432.6944045633
 30
0.0
 11
227.4934523661
 21
408.6944155306
 31
0.0
  0
ARC
  5
D6
330
1F
100
AcDbEntity
  8
0
  6
Continuous
 62
     7
370
    15
100
AcDbCircle
 10
227.4934523139
 20
433.1944100469
 30
0.0
 40
0.5
100
AcDbArc
 50
270.0
 51
180.0
  0
LINE
  5
D7
330
1F
100
AcDbEntity
  8
0
  6
Continuous
 62
     7
370
    15
100
AcDbLine
 10
221.4934523139
 20
433.1944130272
 30
0.0
 11
226.9934522841
 21
433.1944130272
 31
0.0
  0
LINE
  5
D8
330
1F
100
AcDbEntity
  8
0
  6
Continuous
 62
     7
370
    15
100
AcDbLine
 10
221.4934523139
 20
458.1944040865
 30
0.0
 11
221.4934523139
 21
433.1944130272
 31
0.0
  0
LINE
  5
D9
330
1F
100
AcDbEntity
  8
0
  6
Continuous
 62
     7
370
    15
100
AcDbLine
 10
226.9934522841
 20
458.1944040865
 30
0.0
 11
221.4934523139
 21
458.1944040865
 31
0.0
  0
ARC
  5
DA
330
1F
100
AcDbEntity
  8
0
  6
Continuous
 62
     7
370
    15
100
AcDbCircle
 10
227.4934523139
 20
458.1944100469
 30
0.0
 40
0.5000000000000568
100
AcDbArc
 50
180.0
 51
90.0
  0
LINE
  5
DB
330
1F
100
AcDbEntity
  8
0
  6
Continuous
 62
     7
370
    15
100
AcDbLine
 10
227.4934523661
 20
482.6944164842
 30
0.0
 11
227.4934523661
 21
458.6944125503
 31
0.0
  0
ARC
  5
DC
330
1F
100
AcDbEntity
  8
0
  6
Continuous
 62
     7
370
    15
100
AcDbCircle
 10
227.4934523139
 20
483.1944100469
 30
0.0
 40
0.5
100
AcDbArc
 50
270.0
 51
180.0
  0
LINE
  5
DD
330
1F
100
AcDbEntity
  8
0
  6
Continuous
 62
     7
370
    15
100
AcDbLine
 10
221.4934523139
 20
483.1944100469
 30
0.0
 11
226.9934522841
 21
483.1944100469
 31
0.0
  0
LINE
  5
DE
330
1F
100
AcDbEntity
  8
0
  6
Continuous
 62
     7
370
    15
100
AcDbLine
 10
221.4934523139
 20
508.1944160074
 30
0.0
 11
221.4934523139
 21
483.1944100469
 31
0.0
  0
LINE
  5
DF
330
1F
100
AcDbEntity
  8
0
  6
Continuous
 62
     7
370
    15
100
AcDbLine
 10
226.9934522841
 20
508.1944160074
 30
0.0
 11
221.4934523139
 21
508.1944160074
 31
0.0
  0
ARC
  5
E0
330
1F
100
AcDbEntity
  8
0
  6
Continuous
 62
     7
370
    15
100
AcDbCircle
 10
227.4934523139
 20
508.1944100469
 30
0.0
 40
0.5000000000000568
100
AcDbArc
 50
180.0
 51
90.0
  0
LINE
  5
E1
330
1F
100
AcDbEntity
  8
0
  6
Continuous
 62
     7
370
    15
100
AcDbLine
 10
227.4934523661
 20
533.1944219679
 30
0.0
 11
227.4934523661
 21
508.6944095701
 31
0.0
  0
LINE
  5
E2
330
1F
100
AcDbEntity
  8
0
  6
Continuous
 62
     7
370
    15
100
AcDbLine
 10
256.8044508729
 20
533.1944219679
 30
0.0
 11
227.4934523661
 21
533.1944219679
 31
0.0
  0
LINE
  5
E3
330
1F
100
AcDbEntity
  8
0
  6
Continuous
 62
     7
370
    15
100
AcDbLine
 10
256.8044508729
 20
533.1944219679
 30
0.0
 11
257.3394509885
 21
525.6954125971
 31
0.0
  0
ARC
  5
E4
330
1F
100
AcDbEntity
  8
0
  6
Continuous
 62
     7
370
    15
100
AcDbCircle
 10
258.9938802751
 20
524.4020160153
 30
0.0
 40
2.100000000000043
100
AcDbArc
 50
141.9825153415
 51
1.1567448132
  0
LINE
  5
E5
330
1F
100
AcDbEntity
  8
0
  6
Continuous
 62
     7
370
    15
100
AcDbLine
 10
261.0934520993
 20
524.4444005102
 30
0.0
 11
261.0934520993
 21
533.1944219679
 31
0.0
  0
LINE
  5
E6
330
1F
100
AcDbEntity
  8
0
  6
Continuous
 62
     7
370
    15
100
AcDbLine
 10
390.8934588466
 20
533.1944219679
 30
0.0
 11
261.0934520993
 21
533.1944219679
 31
0.0
  0
LINE
  5
E7
330
1F
100
AcDbEntity
  8
0
  6
Continuous
 62
     7
370
    15
100
AcDbLine
 10
390.8934588466
 20
533.1944219679
 30
0.0
 11
390.8934588466
 21
524.4444005102
 31
0.0
  0
ARC
  5
E8
330
1F
100
AcDbEntity
  8
0
  6
Continuous
 62
     7
370
    15
100
AcDbCircle
 10
392.9930243527
 20
524.4020160153
 30
0.0
 40
2.099999999999986
100
AcDbArc
 50
178.8432551868
 51
38.0174846585
  0
LINE
  5
E9
330
1F
100
AcDbEntity
  8
0
  6
Continuous
 62
     7
370
    15
100
AcDbLine
 10
394.6474487815
 20
525.6954125971
 30
0.0
 11
395.1824451718
 21
533.1944219679
 31
0.0
  0
LINE
  5
EA
330
1F
100
AcDbEntity
  8
0
  6
Continuous
 62
     7
370
    15
100
AcDbLine
 10
430.493458632
 20
533.1944219679
 30
0.0
 11
395.1824451718
 21
533.1944219679
 31
0.0
  0
LINE
  5
EB
330
1F
100
AcDbEntity
  8
0
  6
Continuous
 62
     7
370
    15
100
AcDbLine
 10
430.493458632
 20
508.1944160074
 30
0.0
 11
430.493458632
 21
533.1944219679
 31
0.0
  0
LINE
  5
EC
330
1F
100
AcDbEntity
  8
0
  6
Continuous
 62
     7
370
    15
100
AcDbLine
 10
424.9934549365
 20
508.1944160074
 30
0.0
 11
430.493458632
 21
508.1944160074
 31
0.0
  0
ARC
  5
ED
330
1F
100
AcDbEntity
  8
0
  6
Continuous
 62
     7
370
    15
100
AcDbCircle
 10
424.4934523139
 20
508.1944100469
 30
0.0
 40
0.5
100
AcDbArc
 50
0.0
 51
270.0
  0
LINE
  5
EE
330
1F
100
AcDbEntity
  8
0
  6
Continuous
 62
     7
370
    15
100
AcDbLine
 10
424.4934464726
 20
483.6944036096
 30
0.0
 11
424.4934464726
 21
507.6944224447
 31
0.0
  0
ARC
  5
EF
330
1F
100
AcDbEntity
  8
0
  6
Continuous
 62
     7
370
    15
100
AcDbCircle
 10
424.4934523139
 20
483.1944100469
 30
0.0
 40
0.5000000000000568
100
AcDbArc
 50
90.0
 51
0.0
  0
LINE
  5
F0
330
1F
100
AcDbEntity
  8
0
  6
Continuous
 62
     7
370
    15
100
AcDbLine
 10
430.493458632
 20
483.1944100469
 30
0.0
 11
424.9934549365
 21
483.1944100469
 31
0.0
  0
LINE
  5
F1
330
1F
100
AcDbEntity
  8
0
  6
Continuous
 62
     7
370
    15
100
AcDbLine
 10
430.493458632
 20
458.1944040865
 30
0.0
 11
430.493458632
 21
483.1944100469
 31
0.0
  0
LINE
  5
F2
330
1F
100
AcDbEntity
  8
0
  6
Continuous
 62
     7
370
    15
100
AcDbLine
 10
424.9934549365
 20
458.1944040865
 30
0.0
 11
430.493458632
 21
458.1944040865
 31
0.0
  0
ARC
  5
F3
330
1F
100
AcDbEntity
  8
0
  6
Continuous
 62
     7
370
    15
100
AcDbCircle
 10
424.4934523139
 20
458.1944100469
 30
0.0
 40
0.4999999999999432
100
AcDbArc
 50
0.0
 51
270.0
  0
LINE
  5
F4
330
1F
100
AcDbEntity
  8
0
  6
Continuous
 62
     7
370
    15
100
AcDbLine
 10
424.4934464726
 20
433.6944065899
 30
0.0
 11
424.4934464726
 21
457.6944105238
 31
0.0
  0
ARC
  5
F5
330
1F
100
AcDbEntity
  8
0
  6
Continuous
 62
     7
370
    15
100
AcDbCircle
 10
424.4934523139
 20
433.1944100469
 30
0.0
 40
0.5
100
AcDbArc
 50
90.0
 51
0.0
  0
LINE
  5
F6
330
1F
100
AcDbEntity
  8
0
  6
Continuous
 62
     7
370
    15
100
AcDbLine
 10
430.493458632
 20
433.1944130272
 30
0.0
 11
424.9934549365
 21
433.1944130272
 31
0.0
  0
LINE
  5
F7
330
1F
100
AcDbEntity
  8
0
  6
Continuous
 62
     7
370
    15
100
AcDbLine
 10
430.493458632
 20
408.1944070667
 30
0.0
 11
430.493458632
 21
433.1944130272
 31
0.0
  0
LINE
  5
F8
330
1F
100
AcDbEntity
  8
0
  6
Continuous
 62
     7
370
    15
100
AcDbLine
 10
424.9934549365
 20
408.1944070667
 30
0.0
 11
430.493458632
 21
408.1944070667
 31
0.0
  0
ARC
  5
F9
330
1F
100
AcDbEntity
  8
0
  6
Continuous
 62
     7
370
    15
100
AcDbCircle
 10
424.4934523139
 20
408.1944100469
 30
0.0
 40
0.4999999999999432
100
AcDbArc
 50
0.0
 51
270.0
  0
LINE
  5
FA
330
1F
100
AcDbEntity
  8
0
  6
Continuous
 62
     7
370
    15
100
AcDbLine
 10
424.4934464726
 20
383.6944095701
 30
0.0
 11
424.4934464726
 21
407.694413504
 31
0.0
  0
ARC
  5
FB
330
1F
100
AcDbEntity
  8
0
  6
Continuous
 62
     7
370
    15
100
AcDbCircle
 10
424.4934523139
 20
383.1944100469
 30
0.0
 40
0.5
100
AcDbArc
 50
90.0
 51
0.0
  0
LINE
  5
FC
330
1F
100
AcDbEntity
  8
0
  6
Continuous
 62
     7
370
    15
100
AcDbLine
 10
430.493458632
 20
383.1944160074
 30
0.0
 11
424.9934549365
 21
383.1944160074
 31
0.0
  0
LINE
  5
FD
330
1F
100
AcDbEntity
  8
0
  6
Continuous
 62
     7
370
    15
100
AcDbLine
 10
430.493458632
 20
358.1944100469
 30
0.0
 11
430.493458632
 21
383.1944160074
 31
0.0
  0
LINE
  5
FE
330
1F
100
AcDbEntity
  8
0
  6
Continuous
 62
     7
370
    15
100
AcDbLine
 10
424.9934549365
 20
358.1944100469
 30
0.0
 11
430.493458632
 21
358.1944100469
 31
0.0
  0
ARC
  5
FF
330
1F
100
AcDbEntity
  8
0
  6
Continuous
 62
     7
370
    15
100
AcDbCircle
 10
424.4934523139
 20
358.1944100469
 30
0.0
 40
0.5
100
AcDbArc
 50
0.0
 51
270.0
  0
LINE
  5
100
330
1F
100
AcDbEntity
  8
0
  6
Continuous
 62
     7
370
    15
100
AcDbLine
 10
424.4934464726
 20
333.6944125503
 30
0.0
 11
424.4934464726
 21
357.6944090337
 31
0.0
  0
ARC
  5
101
330
1F
100
AcDbEntity
  8
0
  6
Continuous
 62
     7
370
    15
100
AcDbCircle
 10
424.4934523139
 20
333.1944100469
 30
0.0
 40
0.5
100
AcDbArc
 50
90.0
 51
0.0
  0
LINE
  5
102
330
1F
100
AcDbEntity
  8
0
  6
Continuous
 62
     7
370
    15
100
AcDbLine
 10
430.493458632
 20
333.1944115371
 30
0.0
 11
424.9934549365
 21
333.1944115371
 31
0.0
  0
LINE
  5
103
330
1F
100
AcDbEntity
  8
0
  6
Continuous
 62
     7
370
    15
100
AcDbLine
 10
430.493458632
 20
308.1944130272
 30
0.0
 11
430.493458632
 21
333.1944115371
 31
0.0
  0
LINE
  5
104
330
1F
100
AcDbEntity
  8
0
  6
Continuous
 62
     7
370
    15
100
AcDbLine
 10
424.9934549365
 20
308.1944130272
 30
0.0
 11
430.493458632
 21
308.1944130272
 31
0.0
  0
ARC
  5
105
330
1F
100
AcDbEntity
  8
0
  6
Continuous
 62
     7
370
    15
100
AcDbCircle
 10
424.4934523139
 20
308.1944100469
 30
0.0
 40
0.5000000000000568
100
AcDbArc
 50
0.0
 51
270.0
  0
LINE
  5
106
330
1F
100
AcDbEntity
  8
0
  6
Continuous
 62
     7
370
    15
100
AcDbLine
 10
424.4934464726
 20
283.6944118053
 30
0.0
 11
424.4934464726
 21
307.6944120139
 31
0.0
  0
ARC
  5
107
330
1F
100
AcDbEntity
  8
0
  6
Continuous
 62
     7
370
    15
100
AcDbCircle
 10
424.4934523139
 20
283.1944100469
 30
0.0
 40
0.5
100
AcDbArc
 50
90.0
 51
0.0
  0
LINE
  5
108
330
1F
100
AcDbEntity
  8
0
  6
Continuous
 62
     7
370
    15
100
AcDbLine
 10
430.493458632
 20
283.194410792
 30
0.0
 11
424.9934549365
 21
283.194410792
 31
0.0
  0
LINE
  5
109
330
1F
100
AcDbEntity
  8
0
  6
Continuous
 62
     7
370
    15
100
AcDbLine
 10
430.493458632
 20
258.1944104195
 30
0.0
 11
430.493458632
 21
283.194410792
 31
0.0
  0
LINE
  5
10A
330
1F
100
AcDbEntity
  8
0
  6
Continuous
 62
     7
370
    15
100
AcDbLine
 10
424.9934549365
 20
258.1944104195
 30
0.0
 11
430.493458632
 21
258.1944104195
 31
0.0
  0
ARC
  5
10B
330
1F
100
AcDbEntity
  8
0
  6
Continuous
 62
     7
370
    15
100
AcDbCircle
 10
424.4934523139
 20
258.1944100469
 30
0.0
 40
0.5
100
AcDbArc
 50
0.0
 51
270.0
  0
LINE
  5
10C
330
1F
100
AcDbEntity
  8
0
  6
Continuous
 62
     7
370
    15
100
AcDbLine
 10
424.4934464726
 20
233.1944100469
 30
0.0
 11
424.4934464726
 21
257.6944094062
 31
0.0
  0
LINE
  5
10D
330
1F
100
AcDbEntity
  8
0
  6
Continuous
 62
     7
370
    15
100
AcDbLine
 10
395.0754548345
 20
233.1944100469
 30
0.0
 11
424.4934464726
 21
233.1944100469
 31
0.0
  0
LINE
  5
10E
330
1F
100
AcDbEntity
  8
0
  6
Continuous
 62
     7
370
    15
100
AcDbLine
 10
395.0754548345
 20
233.1944100469
 30
0.0
 11
394.6494455371
 21
239.155410035
 31
0.0
  0
ARC
  5
10F
330
1F
100
AcDbEntity
  8
0
  6
Continuous
 62
     7
370
    15
100
AcDbCircle
 10
392.9934509664
 20
240.4467889755
 30
0.0
 40
2.100000000000021
100
AcDbArc
 50
322.0522687641
 51
180.0649059989
  0
CIRCLE
  5
110
330
1F
100
AcDbEntity
  8
0
  6
Continuous
 62
     7
370
    15
100
AcDbCircle
 10
242.9934523139
 20
462.6944100469
 30
0.0
 40
10.0
  0
CIRCLE
  5
111
330
1F
100
AcDbEntity
  8
0
  6
Continuous
 62
     7
370
    15
100
AcDbCircle
 10
242.9934523139
 20
492.6944100469
 30
0.0
 40
10.0
  0
CIRCLE
  5
112
330
1F
100
AcDbEntity
  8
0
  6
Continuous
 62
     7
370
    15
100
AcDbCircle
 10
406.9934523139
 20
270.6944100469
 30
0.0
 40
11.0
  0
CIRCLE
  5
113
330
1F
100
AcDbEntity
  8
0
  6
Continuous
 62
     7
370
    15
100
AcDbCircle
 10
244.9934523139
 20
270.6944100469
 30
0.0
 40
11.0
  0
ARC
  5
114
330
1F
100
AcDbEntity
  8
0
  6
Continuous
 62
     7
370
    15
100
AcDbCircle
 10
252.4934523139
 20
326.6944100469
 30
0.0
 40
11.00000000000003
100
AcDbArc
 50
180.0
 51
0.0
  0
LINE
  5
115
330
1F
100
AcDbEntity
  8
0
  6
Continuous
 62
     7
370
    15
100
AcDbLine
 10
263.4934517477
 20
326.6944132656
 30
0.0
 11
263.4934517477
 21
348.6944131464
 31
0.0
  0
ARC
  5
116
330
1F
100
AcDbEntity
  8
0
  6
Continuous
 62
     7
370
    15
100
AcDbCircle
 10
252.4934523139
 20
348.6944100469
 30
0.0
 40
11.0
100
AcDbArc
 50
0.0
 51
180.0
  0
LINE
  5
117
330
1F
100
AcDbEntity
  8
0
  6
Continuous
 62
     7
370
    15
100
AcDbLine
 10
241.4934518669
 20
348.6944131464
 30
0.0
 11
241.4934518669
 21
326.6944132656
 31
0.0
  0
ARC
  5
118
330
1F
100
AcDbEntity
  8
0
  6
Continuous
 62
     7
370
    15
100
AcDbCircle
 10
236.9934523139
 20
342.6944100469
 30
0.0
 40
1.650000000000006
100
AcDbArc
 50
180.0
 51
0.0
  0
LINE
  5
119
330
1F
100
AcDbEntity
  8
0
  6
Continuous
 62
     7
370
    15
100
AcDbLine
 10
238.6434520516
 20
342.6944084376
 30
0.0
 11
238.6434520516
 21
364.694415769
 31
0.0
  0
ARC
  5
11A
330
1F
100
AcDbEntity
  8
0
  6
Continuous
 62
     7
370
    15
100
AcDbCircle
 10
236.9934523139
 20
364.6944100469
 30
0.0
 40
1.650000000000006
100
AcDbArc
 50
0.0
 51
180.0
  0
LINE
  5
11B
330
1F
100
AcDbEntity
  8
0
  6
Continuous
 62
     7
370
    15
100
AcDbLine
 10
235.3434520695
 20
364.694415769
 30
0.0
 11
235.3434520695
 21
342.6944084376
 31
0.0
  0
ARC
  5
11C
330
1F
100
AcDbEntity
  8
0
  6
Continuous
 62
     7
370
    15
100
AcDbCircle
 10
267.9934523139
 20
342.6944100469
 30
0.0
 40
1.649999999999977
100
AcDbArc
 50
180.0
 51
0.0
  0
LINE
  5
11D
330
1F
100
AcDbEntity
  8
0
  6
Continuous
 62
     7
370
    15
100
AcDbLine
 10
269.643451545
 20
342.6944084376
 30
0.0
 11
269.643451545
 21
364.694415769
 31
0.0
  0
ARC
  5
11E
330
1F
100
AcDbEntity
  8
0
  6
Continuous
 62
     7
370
    15
100
AcDbCircle
 10
267.9934523139
 20
364.6944100469
 30
0.0
 40
1.649999999999977
100
AcDbArc
 50
0.0
 51
180.0
  0
LINE
  5
11F
330
1F
100
AcDbEntity
  8
0
  6
Continuous
 62
     7
370
    15
100
AcDbLine
 10
266.3434515629
 20
364.694415769
 30
0.0
 11
266.3434515629
 21
342.6944084376
 31
0.0
  0
ARC
  5
120
330
1F
100
AcDbEntity
  8
0
  6
Continuous
 62
     7
370
    15
100
AcDbCircle
 10
267.9934523139
 20
310.6944100469
 30
0.0
 40
1.650000000000034
100
AcDbArc
 50
180.0
 51
0.0
  0
LINE
  5
121
330
1F
100
AcDbEntity
  8
0
  6
Continuous
 62
     7
370
    15
100
AcDbLine
 10
269.643451545
 20
310.694410643
 30
0.0
 11
269.643451545
 21
332.6944105238
 31
0.0
  0
ARC
  5
122
330
1F
100
AcDbEntity
  8
0
  6
Continuous
 62
     7
370
    15
100
AcDbCircle
 10
267.9934523139
 20
332.6944100469
 30
0.0
 40
1.650000000000034
100
AcDbArc
 50
0.0
 51
180.0
  0
LINE
  5
123
330
1F
100
AcDbEntity
  8
0
  6
Continuous
 62
     7
370
    15
100
AcDbLine
 10
266.3434515629
 20
332.6944105238
 30
0.0
 11
266.3434515629
 21
310.694410643
 31
0.0
  0
ARC
  5
124
330
1F
100
AcDbEntity
  8
0
  6
Continuous
 62
     7
370
    15
100
AcDbCircle
 10
236.9934523139
 20
310.6944100469
 30
0.0
 40
1.650000000000006
100
AcDbArc
 50
180.0
 51
0.0
  0
LINE
  5
125
330
1F
100
AcDbEntity
  8
0
  6
Continuous
 62
     7
370
    15
100
AcDbLine
 10
238.6434520516
 20
310.694410643
 30
0.0
 11
238.6434520516
 21
332.6944105238
 31
0.0
  0
ARC
  5
126
330
1F
100
AcDbEntity
  8
0
  6
Continuous
 62
     7
370
    15
100
AcDbCircle
 10
236.9934523139
 20
332.6944100469
 30
0.0
 40
1.650000000000006
100
AcDbArc
 50
0.0
 51
180.0
  0
LINE
  5
127
330
1F
100
AcDbEntity
  8
0
  6
Continuous
 62
     7
370
    15
100
AcDbLine
 10
235.3434520695
 20
332.6944105238
 30
0.0
 11
235.3434520695
 21
310.694410643
 31
0.0
  0
ARC
  5
128
330
1F
100
AcDbEntity
  8
0
  6
Continuous
 62
     7
370
    15
100
AcDbCircle
 10
339.9934523139
 20
295.6944100469
 30
0.0
 40
2.599999999999966
100
AcDbArc
 50
270.0
 51
90.0
  0
LINE
  5
129
330
1F
100
AcDbEntity
  8
0
  6
Continuous
 62
     7
370
    15
100
AcDbLine
 10
339.9934540424
 20
298.2944093555
 30
0.0
 11
334.9934513602
 21
298.2944093555
 31
0.0
  0
ARC
  5
12A
330
1F
100
AcDbEntity
  8
0
  6
Continuous
 62
     7
370
    15
100
AcDbCircle
 10
334.9934523139
 20
295.6944100469
 30
0.0
 40
2.599999999999966
100
AcDbArc
 50
90.0
 51
270.0
  0
LINE
  5
12B
330
1F
100
AcDbEntity
  8
0
  6
Continuous
 62
     7
370
    15
100
AcDbLine
 10
334.9934513602
 20
293.0944107384
 30
0.0
 11
339.9934540424
 21
293.0944107384
 31
0.0
  0
ARC
  5
12C
330
1F
100
AcDbEntity
  8
0
  6
Continuous
 62
     7
370
    15
100
AcDbCircle
 10
339.9934523139
 20
283.6944100469
 30
0.0
 40
2.599999999999966
100
AcDbArc
 50
270.0
 51
90.0
  0
LINE
  5
12D
330
1F
100
AcDbEntity
  8
0
  6
Continuous
 62
     7
370
    15
100
AcDbLine
 10
339.9934540424
 20
286.2944111139
 30
0.0
 11
334.9934513602
 21
286.2944111139
 31
0.0
  0
ARC
  5
12E
330
1F
100
AcDbEntity
  8
0
  6
Continuous
 62
     7
370
    15
100
AcDbCircle
 10
334.9934523139
 20
283.6944100469
 30
0.0
 40
2.599999999999966
100
AcDbArc
 50
90.0
 51
270.0
  0
LINE
  5
12F
330
1F
100
AcDbEntity
  8
0
  6
Continuous
 62
     7
370
    15
100
AcDbLine
 10
334.9934513602
 20
281.0944087714
 30
0.0
 11
339.9934540424
 21
281.0944087714
 31
0.0
  0
ARC
  5
130
330
1F
100
AcDbEntity
  8
0
  6
Continuous
 62
     7
370
    15
100
AcDbCircle
 10
306.9934523139
 20
283.6944100469
 30
0.0
 40
2.599999999999966
100
AcDbArc
 50
270.0
 51
90.0
  0
LINE
  5
131
330
1F
100
AcDbEntity
  8
0
  6
Continuous
 62
     7
370
    15
100
AcDbLine
 10
306.9934542212
 20
286.2944111139
 30
0.0
 11
301.993451539
 21
286.2944111139
 31
0.0
  0
ARC
  5
132
330
1F
100
AcDbEntity
  8
0
  6
Continuous
 62
     7
370
    15
100
AcDbCircle
 10
301.9934523139
 20
283.6944100469
 30
0.0
 40
2.599999999999966
100
AcDbArc
 50
90.0
 51
270.0
  0
LINE
  5
133
330
1F
100
AcDbEntity
  8
0
  6
Continuous
 62
     7
370
    15
100
AcDbLine
 10
301.993451539
 20
281.0944087714
 30
0.0
 11
306.9934542212
 21
281.0944087714
 31
0.0
  0
ARC
  5
134
330
1F
100
AcDbEntity
  8
0
  6
Continuous
 62
     7
370
    15
100
AcDbCircle
 10
306.9934523139
 20
295.6944100469
 30
0.0
 40
2.600000000000023
100
AcDbArc
 50
270.0
 51
90.0
  0
LINE
  5
135
330
1F
100
AcDbEntity
  8
0
  6
Continuous
 62
     7
370
    15
100
AcDbLine
 10
306.9934542212
 20
298.2944093555
 30
0.0
 11
301.993451539
 21
298.2944093555
 31
0.0
  0
ARC
  5
136
330
1F
100
AcDbEntity
  8
0
  6
Continuous
 62
     7
370
    15
100
AcDbCircle
 10
301.9934523139
 20
295.6944100469
 30
0.0
 40
2.600000000000023
100
AcDbArc
 50
90.0
 51
270.0
  0
LINE
  5
137
330
1F
100
AcDbEntity
  8
0
  6
Continuous
 62
     7
370
    15
100
AcDbLine
 10
301.993451539
 20
293.0944107384
 30
0.0
 11
306.9934542212
 21
293.0944107384
 31
0.0
  0
ARC
  5
138
330
1F
100
AcDbEntity
  8
0
  6
Continuous
 62
     7
370
    15
100
AcDbCircle
 10
312.9934523139
 20
459.6944100469
 30
0.0
 40
2.500000000000057
100
AcDbArc
 50
180.0
 51
0.0
  0
LINE
  5
139
330
1F
100
AcDbEntity
  8
0
  6
Continuous
 62
     7
370
    15
100
AcDbLine
 10
315.4934490952
 20
459.6944145769
 30
0.0
 11
315.4934490952
 21
470.6944070667
 31
0.0
  0
ARC
  5
13A
330
1F
100
AcDbEntity
  8
0
  6
Continuous
 62
     7
370
    15
100
AcDbCircle
 10
312.9934523139
 20
470.6944100469
 30
0.0
 40
2.500000000000057
100
AcDbArc
 50
0.0
 51
180.0
  0
LINE
  5
13B
330
1F
100
AcDbEntity
  8
0
  6
Continuous
 62
     7
370
    15
100
AcDbLine
 10
310.4934538636
 20
470.6944070667
 30
0.0
 11
310.4934538636
 21
459.6944145769
 31
0.0
  0
ARC
  5
13C
330
1F
100
AcDbEntity
  8
0
  6
Continuous
 62
     7
370
    15
100
AcDbCircle
 10
328.9934523139
 20
459.6944100469
 30
0.0
 40
2.5
100
AcDbArc
 50
180.0
 51
0.0
  0
LINE
  5
13D
330
1F
100
AcDbEntity
  8
0
  6
Continuous
 62
     7
370
    15
100
AcDbLine
 10
331.4934517179
 20
459.6944145769
 30
0.0
 11
331.4934517179
 21
470.6944070667
 31
0.0
  0
ARC
  5
13E
330
1F
100
AcDbEntity
  8
0
  6
Continuous
 62
     7
370
    15
100
AcDbCircle
 10
328.9934523139
 20
470.6944100469
 30
0.0
 40
2.5
100
AcDbArc
 50
0.0
 51
180.0
  0
LINE
  5
13F
330
1F
100
AcDbEntity
  8
0
  6
Continuous
 62
     7
370
    15
100
AcDbLine
 10
326.4934490356
 20
470.6944070667
 30
0.0
 11
326.4934490356
 21
459.6944145769
 31
0.0
  0
ARC
  5
140
330
1F
100
AcDbEntity
  8
0
  6
Continuous
 62
     7
370
    15
100
AcDbCircle
 10
308.9934523139
 20
437.6944100469
 30
0.0
 40
2.500000000000057
100
AcDbArc
 50
180.0
 51
0.0
  0
LINE
  5
141
330
1F
100
AcDbEntity
  8
0
  6
Continuous
 62
     7
370
    15
100
AcDbLine
 10
311.4934558902
 20
437.6944146961
 30
0.0
 11
311.4934558902
 21
448.6944071859
 31
0.0
  0
ARC
  5
142
330
1F
100
AcDbEntity
  8
0
  6
Continuous
 62
     7
370
    15
100
AcDbCircle
 10
308.9934523139
 20
448.6944100469
 30
0.0
 40
2.500000000000057
100
AcDbArc
 50
0.0
 51
180.0
  0
LINE
  5
143
330
1F
100
AcDbEntity
  8
0
  6
Continuous
 62
     7
370
    15
100
AcDbLine
 10
306.493453208
 20
448.6944071859
 30
0.0
 11
306.493453208
 21
437.6944146961
 31
0.0
  0
ARC
  5
144
330
1F
100
AcDbEntity
  8
0
  6
Continuous
 62
     7
370
    15
100
AcDbCircle
 10
332.9934523139
 20
437.6944100469
 30
0.0
 40
2.5
100
AcDbArc
 50
180.0
 51
0.0
  0
LINE
  5
145
330
1F
100
AcDbEntity
  8
0
  6
Continuous
 62
     7
370
    15
100
AcDbLine
 10
335.4934523735
 20
437.6944146961
 30
0.0
 11
335.4934523735
 21
448.6944071859
 31
0.0
  0
ARC
  5
146
330
1F
100
AcDbEntity
  8
0
  6
Continuous
 62
     7
370
    15
100
AcDbCircle
 10
332.9934523139
 20
448.6944100469
 30
0.0
 40
2.5
100
AcDbArc
 50
0.0
 51
180.0
  0
LINE
  5
147
330
1F
100
AcDbEntity
  8
0
  6
Continuous
 62
     7
370
    15
100
AcDbLine
 10
330.4934496913
 20
448.6944071859
 30
0.0
 11
330.4934496913
 21
437.6944146961
 31
0.0
  0
CIRCLE
  5
148
330
1F
100
AcDbEntity
  8
0
  6
Continuous
 62
     7
370
    15
100
AcDbCircle
 10
346.4934523139
 20
515.6944100469
 30
0.0
 40
2.75
  0
CIRCLE
  5
149
330
1F
100
AcDbEntity
  8
0
  6
Continuous
 62
     7
370
    15
100
AcDbCircle
 10
346.4724523139
 20
503.6944100469
 30
0.0
 40
2.75
  0
CIRCLE
  5
14A
330
1F
100
AcDbEntity
  8
0
  6
Continuous
 62
     7
370
    15
100
AcDbCircle
 10
295.4934523139
 20
503.6944100469
 30
0.0
 40
2.75
  0
CIRCLE
  5
14B
330
1F
100
AcDbEntity
  8
0
  6
Continuous
 62
     7
370
    15
100
AcDbCircle
 10
295.4934523139
 20
515.6944100469
 30
0.0
 40
2.75
  0
CIRCLE
  5
14C
330
1F
100
AcDbEntity
  8
0
  6
Continuous
 62
     7
370
    15
100
AcDbCircle
 10
408.3934523139
 20
401.1944100469
 30
0.0
 40
3.0
  0
CIRCLE
  5
14D
330
1F
100
AcDbEntity
  8
0
  6
Continuous
 62
     7
370
    15
100
AcDbCircle
 10
408.3934523139
 20
391.1944100469
 30
0.0
 40
3.0
  0
LINE
  5
14E
330
1F
100
AcDbEntity
  8
0
  6
Continuous
 62
     7
370
    15
100
AcDbLine
 10
257.7314044739
 20
544.2735215535
 30
0.0
 11
257.2104039993
 21
536.7565213589
 31
0.0
  0
LINE
  5
14F
330
1F
100
AcDbEntity
  8
0
  6
Continuous
 62
     7
370
    15
100
AcDbLine
 10
221.8994054403
 20
536.7565213589
 30
0.0
 11
257.2104039993
 21
536.7565213589
 31
0.0
  0
LINE
  5
150
330
1F
100
AcDbEntity
  8
0
  6
Continuous
 62
     7
370
    15
100
AcDbLine
 10
221.8994054403
 20
561.7565217314
 30
0.0
 11
221.8994054403
 21
536.7565213589
 31
0.0
  0
LINE
  5
151
330
1F
100
AcDbEntity
  8
0
  6
Continuous
 62
     7
370
    15
100
AcDbLine
 10
221.8994054403
 20
561.7565217314
 30
0.0
 11
227.3994054105
 21
561.7565217314
 31
0.0
  0
LINE
  5
152
330
1F
100
AcDbEntity
  8
0
  6
Continuous
 62
     7
370
    15
100
AcDbLine
 10
227.8994054924
 20
562.2565208821
 30
0.0
 11
227.8994054924
 21
586.2565210907
 31
0.0
  0
LINE
  5
153
330
1F
100
AcDbEntity
  8
0
  6
Continuous
 62
     7
370
    15
100
AcDbLine
 10
227.3994054105
 20
586.7565221039
 30
0.0
 11
221.8994054403
 21
586.7565221039
 31
0.0
  0
LINE
  5
154
330
1F
100
AcDbEntity
  8
0
  6
Continuous
 62
     7
370
    15
100
AcDbLine
 10
221.8994054403
 20
611.7565243391
 30
0.0
 11
221.8994054403
 21
586.7565221039
 31
0.0
  0
LINE
  5
155
330
1F
100
AcDbEntity
  8
0
  6
Continuous
 62
     7
370
    15
100
AcDbLine
 10
221.8994054403
 20
611.7565243391
 30
0.0
 11
227.3994054105
 21
611.7565243391
 31
0.0
  0
LINE
  5
156
330
1F
100
AcDbEntity
  8
0
  6
Continuous
 62
     7
370
    15
100
AcDbLine
 10
227.8994054924
 20
612.2565179018
 30
0.0
 11
227.8994054924
 21
636.2565218357
 31
0.0
  0
LINE
  5
157
330
1F
100
AcDbEntity
  8
0
  6
Continuous
 62
     7
370
    15
100
AcDbLine
 10
227.3994054105
 20
636.756522849
 30
0.0
 11
221.8994054403
 21
636.756522849
 31
0.0
  0
LINE
  5
158
330
1F
100
AcDbEntity
  8
0
  6
Continuous
 62
     7
370
    15
100
AcDbLine
 10
221.8994054403
 20
661.7565213589
 30
0.0
 11
221.8994054403
 21
636.756522849
 31
0.0
  0
LINE
  5
159
330
1F
100
AcDbEntity
  8
0
  6
Continuous
 62
     7
370
    15
100
AcDbLine
 10
221.8994054403
 20
661.7565213589
 30
0.0
 11
227.3994054105
 21
661.7565213589
 31
0.0
  0
LINE
  5
15A
330
1F
100
AcDbEntity
  8
0
  6
Continuous
 62
     7
370
    15
100
AcDbLine
 10
227.8994054924
 20
662.2565149216
 30
0.0
 11
227.8994054924
 21
686.2565188555
 31
0.0
  0
LINE
  5
15B
330
1F
100
AcDbEntity
  8
0
  6
Continuous
 62
     7
370
    15
100
AcDbLine
 10
227.3994054105
 20
686.7565273194
 30
0.0
 11
221.8994054403
 21
686.7565273194
 31
0.0
  0
LINE
  5
15C
330
1F
100
AcDbEntity
  8
0
  6
Continuous
 62
     7
370
    15
100
AcDbLine
 10
221.8994054403
 20
711.7565183787
 30
0.0
 11
221.8994054403
 21
686.7565273194
 31
0.0
  0
LINE
  5
15D
330
1F
100
AcDbEntity
  8
0
  6
Continuous
 62
     7
370
    15
100
AcDbLine
 10
221.8994054403
 20
711.7565183787
 30
0.0
 11
227.3994054105
 21
711.7565183787
 31
0.0
  0
LINE
  5
15E
330
1F
100
AcDbEntity
  8
0
  6
Continuous
 62
     7
370
    15
100
AcDbLine
 10
227.8994054924
 20
712.2565268425
 30
0.0
 11
227.8994054924
 21
736.2565158753
 31
0.0
  0
LINE
  5
15F
330
1F
100
AcDbEntity
  8
0
  6
Continuous
 62
     7
370
    15
100
AcDbLine
 10
227.3994054105
 20
736.7565243391
 30
0.0
 11
221.8994054403
 21
736.7565243391
 31
0.0
  0
LINE
  5
160
330
1F
100
AcDbEntity
  8
0
  6
Continuous
 62
     7
370
    15
100
AcDbLine
 10
221.8994054403
 20
761.7565153984
 30
0.0
 11
221.8994054403
 21
736.7565243391
 31
0.0
  0
LINE
  5
161
330
1F
100
AcDbEntity
  8
0
  6
Continuous
 62
     7
370
    15
100
AcDbLine
 10
227.8994054924
 20
762.2565238623
 30
0.0
 11
227.8994054924
 21
786.2565277962
 31
0.0
  0
LINE
  5
162
330
1F
100
AcDbEntity
  8
0
  6
Continuous
 62
     7
370
    15
100
AcDbLine
 10
227.3994054105
 20
786.7565213589
 30
0.0
 11
221.8994054403
 21
786.7565213589
 31
0.0
  0
LINE
  5
163
330
1F
100
AcDbEntity
  8
0
  6
Continuous
 62
     7
370
    15
100
AcDbLine
 10
221.8994054403
 20
811.7565273194
 30
0.0
 11
221.8994054403
 21
786.7565213589
 31
0.0
  0
LINE
  5
164
330
1F
100
AcDbEntity
  8
0
  6
Continuous
 62
     7
370
    15
100
AcDbLine
 10
221.8994054403
 20
811.7565273194
 30
0.0
 11
227.3994054105
 21
811.7565273194
 31
0.0
  0
LINE
  5
165
330
1F
100
AcDbEntity
  8
0
  6
Continuous
 62
     7
370
    15
100
AcDbLine
 10
227.8994054924
 20
812.2565208821
 30
0.0
 11
227.8994054924
 21
836.7565332798
 31
0.0
  0
LINE
  5
166
330
1F
100
AcDbEntity
  8
0
  6
Continuous
 62
     7
370
    15
100
AcDbLine
 10
257.3174055125
 20
836.7565332798
 30
0.0
 11
227.8994054924
 21
836.7565332798
 31
0.0
  0
LINE
  5
167
330
1F
100
AcDbEntity
  8
0
  6
Continuous
 62
     7
370
    15
100
AcDbLine
 10
257.3174055125
 20
836.7565332798
 30
0.0
 11
257.7221620287
 21
830.7702003864
 31
0.0
  0
ARC
  5
168
330
1F
100
AcDbEntity
  8
0
  6
Continuous
 62
     7
370
    15
100
AcDbCircle
 10
259.3994054403
 20
829.5065213589
 30
0.0
 40
2.100000000000023
100
AcDbArc
 50
143.0049061057
 51
0.0
  0
LINE
  5
169
330
1F
100
AcDbEntity
  8
0
  6
Continuous
 62
     7
370
    15
100
AcDbLine
 10
261.4994052257
 20
829.5065223126
 30
0.0
 11
261.4994052257
 21
836.7565332798
 31
0.0
  0
LINE
  5
16A
330
1F
100
AcDbEntity
  8
0
  6
Continuous
 62
     7
370
    15
100
AcDbLine
 10
391.2994119729
 20
836.7565332798
 30
0.0
 11
261.4994052257
 21
836.7565332798
 31
0.0
  0
LINE
  5
16B
330
1F
100
AcDbEntity
  8
0
  6
Continuous
 62
     7
370
    15
100
AcDbLine
 10
391.2994119729
 20
836.7565332798
 30
0.0
 11
391.2994119729
 21
829.5065223126
 31
0.0
  0
ARC
  5
16C
330
1F
100
AcDbEntity
  8
0
  6
Continuous
 62
     7
370
    15
100
AcDbCircle
 10
393.3994054403
 20
829.5065213589
 30
0.0
 40
2.100000000000023
100
AcDbArc
 50
180.0
 51
36.9950938943
  0
LINE
  5
16D
330
1F
100
AcDbEntity
  8
0
  6
Continuous
 62
     7
370
    15
100
AcDbLine
 10
395.0766477193
 20
830.7702003864
 30
0.0
 11
395.4814079608
 21
836.7565332798
 31
0.0
  0
LINE
  5
16E
330
1F
100
AcDbEntity
  8
0
  6
Continuous
 62
     7
370
    15
100
AcDbLine
 10
430.8994117583
 20
836.7565332798
 30
0.0
 11
395.4814079608
 21
836.7565332798
 31
0.0
  0
LINE
  5
16F
330
1F
100
AcDbEntity
  8
0
  6
Continuous
 62
     7
370
    15
100
AcDbLine
 10
430.8994117583
 20
811.7565273194
 30
0.0
 11
430.8994117583
 21
836.7565332798
 31
0.0
  0
LINE
  5
170
330
1F
100
AcDbEntity
  8
0
  6
Continuous
 62
     7
370
    15
100
AcDbLine
 10
430.8994117583
 20
811.7565273194
 30
0.0
 11
425.3994080629
 21
811.7565273194
 31
0.0
  0
LINE
  5
171
330
1F
100
AcDbEntity
  8
0
  6
Continuous
 62
     7
370
    15
100
AcDbLine
 10
424.899399599
 20
811.2565337567
 30
0.0
 11
424.899399599
 21
787.2565149216
 31
0.0
  0
LINE
  5
172
330
1F
100
AcDbEntity
  8
0
  6
Continuous
 62
     7
370
    15
100
AcDbLine
 10
425.3994080629
 20
786.7565213589
 30
0.0
 11
430.8994117583
 21
786.7565213589
 31
0.0
  0
LINE
  5
173
330
1F
100
AcDbEntity
  8
0
  6
Continuous
 62
     7
370
    15
100
AcDbLine
 10
430.8994117583
 20
761.7565153984
 30
0.0
 11
430.8994117583
 21
786.7565213589
 31
0.0
  0
LINE
  5
174
330
1F
100
AcDbEntity
  8
0
  6
Continuous
 62
     7
370
    15
100
AcDbLine
 10
430.8994117583
 20
761.7565153984
 30
0.0
 11
425.3994080629
 21
761.7565153984
 31
0.0
  0
LINE
  5
175
330
1F
100
AcDbEntity
  8
0
  6
Continuous
 62
     7
370
    15
100
AcDbLine
 10
430.8994117583
 20
711.7565183787
 30
0.0
 11
430.8994117583
 21
736.7565243391
 31
0.0
  0
LINE
  5
176
330
1F
100
AcDbEntity
  8
0
  6
Continuous
 62
     7
370
    15
100
AcDbLine
 10
430.8994117583
 20
711.7565183787
 30
0.0
 11
425.3994080629
 21
711.7565183787
 31
0.0
  0
ARC
  5
177
330
1F
100
AcDbEntity
  8
0
  6
Continuous
 62
     7
370
    15
100
AcDbCircle
 10
424.8994054403
 20
711.7565213589
 30
0.0
 40
0.5000000000001137
100
AcDbArc
 50
0.0
 51
270.0
  0
LINE
  5
178
330
1F
100
AcDbEntity
  8
0
  6
Continuous
 62
     7
370
    15
100
AcDbLine
 10
424.899399599
 20
711.256524816
 30
0.0
 11
424.899399599
 21
687.2565208821
 31
0.0
  0
ARC
  5
179
330
1F
100
AcDbEntity
  8
0
  6
Continuous
 62
     7
370
    15
100
AcDbCircle
 10
424.8994054403
 20
686.7565213589
 30
0.0
 40
0.5
100
AcDbArc
 50
90.0
 51
0.0
  0
LINE
  5
17A
330
1F
100
AcDbEntity
  8
0
  6
Continuous
 62
     7
370
    15
100
AcDbLine
 10
425.3994080629
 20
686.7565273194
 30
0.0
 11
430.8994117583
 21
686.7565273194
 31
0.0
  0
LINE
  5
17B
330
1F
100
AcDbEntity
  8
0
  6
Continuous
 62
     7
370
    15
100
AcDbLine
 10
430.8994117583
 20
661.7565213589
 30
0.0
 11
430.8994117583
 21
686.7565273194
 31
0.0
  0
LINE
  5
17C
330
1F
100
AcDbEntity
  8
0
  6
Continuous
 62
     7
370
    15
100
AcDbLine
 10
430.8994117583
 20
661.7565213589
 30
0.0
 11
425.3994080629
 21
661.7565213589
 31
0.0
  0
ARC
  5
17D
330
1F
100
AcDbEntity
  8
0
  6
Continuous
 62
     7
370
    15
100
AcDbCircle
 10
424.8994054403
 20
661.7565213589
 30
0.0
 40
0.5
100
AcDbArc
 50
0.0
 51
270.0
  0
LINE
  5
17E
330
1F
100
AcDbEntity
  8
0
  6
Continuous
 62
     7
370
    15
100
AcDbLine
 10
424.899399599
 20
661.2565203456
 30
0.0
 11
424.899399599
 21
637.2565238623
 31
0.0
  0
ARC
  5
17F
330
1F
100
AcDbEntity
  8
0
  6
Continuous
 62
     7
370
    15
100
AcDbCircle
 10
424.8994054403
 20
636.7565213589
 30
0.0
 40
0.5000000000001137
100
AcDbArc
 50
90.0
 51
0.0
  0
LINE
  5
180
330
1F
100
AcDbEntity
  8
0
  6
Continuous
 62
     7
370
    15
100
AcDbLine
 10
425.3994080629
 20
636.756522849
 30
0.0
 11
430.8994117583
 21
636.756522849
 31
0.0
  0
LINE
  5
181
330
1F
100
AcDbEntity
  8
0
  6
Continuous
 62
     7
370
    15
100
AcDbLine
 10
430.8994117583
 20
611.7565243391
 30
0.0
 11
430.8994117583
 21
636.756522849
 31
0.0
  0
LINE
  5
182
330
1F
100
AcDbEntity
  8
0
  6
Continuous
 62
     7
370
    15
100
AcDbLine
 10
430.8994117583
 20
611.7565243391
 30
0.0
 11
425.3994080629
 21
611.7565243391
 31
0.0
  0
ARC
  5
183
330
1F
100
AcDbEntity
  8
0
  6
Continuous
 62
     7
370
    15
100
AcDbCircle
 10
424.8994054403
 20
611.7565213589
 30
0.0
 40
0.5000000000001137
100
AcDbArc
 50
0.0
 51
270.0
  0
LINE
  5
184
330
1F
100
AcDbEntity
  8
0
  6
Continuous
 62
     7
370
    15
100
AcDbLine
 10
424.899399599
 20
611.2565233258
 30
0.0
 11
424.899399599
 21
587.2565231172
 31
0.0
  0
ARC
  5
185
330
1F
100
AcDbEntity
  8
0
  6
Continuous
 62
     7
370
    15
100
AcDbCircle
 10
424.8994054403
 20
586.7565213589
 30
0.0
 40
0.5
100
AcDbArc
 50
90.0
 51
0.0
  0
LINE
  5
186
330
1F
100
AcDbEntity
  8
0
  6
Continuous
 62
     7
370
    15
100
AcDbLine
 10
425.3994080629
 20
586.7565221039
 30
0.0
 11
430.8994117583
 21
586.7565221039
 31
0.0
  0
LINE
  5
187
330
1F
100
AcDbEntity
  8
0
  6
Continuous
 62
     7
370
    15
100
AcDbLine
 10
430.8994117583
 20
561.7565217314
 30
0.0
 11
430.8994117583
 21
586.7565221039
 31
0.0
  0
LINE
  5
188
330
1F
100
AcDbEntity
  8
0
  6
Continuous
 62
     7
370
    15
100
AcDbLine
 10
430.8994117583
 20
561.7565217314
 30
0.0
 11
425.3994080629
 21
561.7565217314
 31
0.0
  0
ARC
  5
189
330
1F
100
AcDbEntity
  8
0
  6
Continuous
 62
     7
370
    15
100
AcDbCircle
 10
424.8994054403
 20
561.7565213589
 30
0.0
 40
0.5000000000001137
100
AcDbArc
 50
0.0
 51
270.0
  0
LINE
  5
18A
330
1F
100
AcDbEntity
  8
0
  6
Continuous
 62
     7
370
    15
100
AcDbLine
 10
424.899399599
 20
561.2565207181
 30
0.0
 11
424.899399599
 21
536.7565213589
 31
0.0
  0
LINE
  5
18B
330
1F
100
AcDbEntity
  8
0
  6
Continuous
 62
     7
370
    15
100
AcDbLine
 10
395.5883982982
 20
536.7565213589
 30
0.0
 11
424.899399599
 21
536.7565213589
 31
0.0
  0
LINE
  5
18C
330
1F
100
AcDbEntity
  8
0
  6
Continuous
 62
     7
370
    15
100
AcDbLine
 10
395.5883982982
 20
536.7565213589
 30
0.0
 11
395.0674089994
 21
544.2735215535
 31
0.0
  0
ARC
  5
18D
330
1F
100
AcDbEntity
  8
0
  6
Continuous
 62
     7
370
    15
100
AcDbCircle
 10
393.3989796497
 20
545.5488077508
 30
0.0
 40
2.100000000000052
100
AcDbArc
 50
322.606967178
 51
181.1538074055
  0
LINE
  5
18E
330
1F
100
AcDbEntity
  8
0
  6
Continuous
 62
     7
370
    15
100
AcDbLine
 10
391.2994119729
 20
545.5065213961
 30
0.0
 11
391.2994119729
 21
536.7565213589
 31
0.0
  0
LINE
  5
18F
330
1F
100
AcDbEntity
  8
0
  6
Continuous
 62
     7
370
    15
100
AcDbLine
 10
261.4994052257
 20
536.7565213589
 30
0.0
 11
391.2994119729
 21
536.7565213589
 31
0.0
  0
LINE
  5
190
330
1F
100
AcDbEntity
  8
0
  6
Continuous
 62
     7
370
    15
100
AcDbLine
 10
261.4994052257
 20
536.7565213589
 30
0.0
 11
261.4994052257
 21
545.5065213961
 31
0.0
  0
ARC
  5
191
330
1F
100
AcDbEntity
  8
0
  6
Continuous
 62
     7
370
    15
100
AcDbCircle
 10
259.3998312308
 20
545.5488077508
 30
0.0
 40
2.100000000000031
100
AcDbArc
 50
358.8461925945
 51
217.393032822
  0
ARC
  5
192
330
1F
100
AcDbEntity
  8
0
  6
Continuous
 62
     7
370
    15
100
AcDbCircle
 10
355.8994054403
 20
673.2565213589
 30
0.0
 40
15.0
100
AcDbArc
 50
270.0
 51
0.0
  0
LINE
  5
193
330
1F
100
AcDbEntity
  8
0
  6
Continuous
 62
     7
370
    15
100
AcDbLine
 10
370.8994093742
 20
673.2565223126
 30
0.0
 11
370.8994093742
 21
787.2565149216
 31
0.0
  0
ARC
  5
194
330
1F
100
AcDbEntity
  8
0
  6
Continuous
 62
     7
370
    15
100
AcDbCircle
 10
355.8994054403
 20
787.2565213589
 30
0.0
 40
15.0
100
AcDbArc
 50
0.0
 51
90.0
  0
LINE
  5
195
330
1F
100
AcDbEntity
  8
0
  6
Continuous
 62
     7
370
    15
100
AcDbLine
 10
355.8994087781
 20
802.2565304188
 30
0.0
 11
269.3994048442
 21
802.2565304188
 31
0.0
  0
ARC
  5
196
330
1F
100
AcDbEntity
  8
0
  6
Continuous
 62
     7
370
    15
100
AcDbCircle
 10
269.3994054403
 20
787.2565213589
 30
0.0
 40
15.00000000000003
100
AcDbArc
 50
90.0
 51
180.0
  0
LINE
  5
197
330
1F
100
AcDbEntity
  8
0
  6
Continuous
 62
     7
370
    15
100
AcDbLine
 10
254.3994042482
 20
787.2565149216
 30
0.0
 11
254.3994042482
 21
673.2565223126
 31
0.0
  0
ARC
  5
198
330
1F
100
AcDbEntity
  8
0
  6
Continuous
 62
     7
370
    15
100
AcDbCircle
 10
269.3994054403
 20
673.2565213589
 30
0.0
 40
15.00000000000003
100
AcDbArc
 50
180.0
 51
270.0
  0
LINE
  5
199
330
1F
100
AcDbEntity
  8
0
  6
Continuous
 62
     7
370
    15
100
AcDbLine
 10
269.3994048442
 20
658.2565217165
 30
0.0
 11
355.8994087781
 21
658.2565217165
 31
0.0
  0
CIRCLE
  5
19A
330
1F
100
AcDbEntity
  8
0
  6
Continuous
 62
     7
370
    15
100
AcDbCircle
 10
407.3994054403
 20
819.2565213589
 30
0.0
 40
11.0
  0
CIRCLE
  5
19B
330
1F
100
AcDbEntity
  8
0
  6
Continuous
 62
     7
370
    15
100
AcDbCircle
 10
245.3994054403
 20
819.2565213589
 30
0.0
 40
10.99999999999994
  0
CIRCLE
  5
19C
330
1F
100
AcDbEntity
  8
0
  6
Continuous
 62
     7
370
    15
100
AcDbCircle
 10
306.3994054403
 20
622.7565213589
 30
0.0
 40
2.750000000000057
  0
CIRCLE
  5
19D
330
1F
100
AcDbEntity
  8
0
  6
Continuous
 62
     7
370
    15
100
AcDbCircle
 10
346.3994054403
 20
622.7565213589
 30
0.0
 40
2.75
  0
CIRCLE
  5
19E
330
1F
100
AcDbEntity
  8
0
  6
Continuous
 62
     7
370
    15
100
AcDbCircle
 10
346.3994054403
 20
647.7565213589
 30
0.0
 40
2.75
  0
CIRCLE
  5
19F
330
1F
100
AcDbEntity
  8
0
  6
Continuous
 62
     7
370
    15
100
AcDbCircle
 10
306.3994054403
 20
647.7565213589
 30
0.0
 40
2.750000000000057
  0
ARC
  5
1A0
330
1F
100
AcDbEntity
  8
0
  6
Continuous
 62
     7
370
    15
100
AcDbCircle
 10
399.8994054403
 20
741.0065213589
 30
0.0
 40
11.00000000000006
100
AcDbArc
 50
180.0
 51
0.0
  0
LINE
  5
1A1
330
1F
100
AcDbEntity
  8
0
  6
Continuous
 62
     7
370
    15
100
AcDbLine
 10
410.8994010295
 20
741.0065143255
 30
0.0
 11
410.8994010295
 21
762.5065206436
 31
0.0
  0
ARC
  5
1A2
330
1F
100
AcDbEntity
  8
0
  6
Continuous
 62
     7
370
    15
100
AcDbCircle
 10
399.8994054403
 20
762.5065213589
 30
0.0
 40
11.00000000000006
100
AcDbArc
 50
0.0
 51
180.0
  0
LINE
  5
1A3
330
1F
100
AcDbEntity
  8
0
  6
Continuous
 62
     7
370
    15
100
AcDbLine
 10
388.8994011487
 20
762.5065206436
 30
0.0
 11
388.8994011487
 21
741.0065143255
 31
0.0
  0
ARC
  5
1A4
330
1F
100
AcDbEntity
  8
0
  6
Continuous
 62
     7
370
    15
100
AcDbCircle
 10
384.3994054403
 20
756.7565213589
 30
0.0
 40
1.650000000000091
100
AcDbArc
 50
180.0
 51
360.0
  0
LINE
  5
1A5
330
1F
100
AcDbEntity
  8
0
  6
Continuous
 62
     7
370
    15
100
AcDbLine
 10
386.0494050588
 20
756.7565201668
 30
0.0
 11
386.0494050588
 21
777.756518021
 31
0.0
  0
ARC
  5
1A6
330
1F
100
AcDbEntity
  8
0
  6
Continuous
 62
     7
370
    15
100
AcDbCircle
 10
384.3994054403
 20
777.7565213589
 30
0.0
 40
1.650000000000148
100
AcDbArc
 50
0.0
 51
180.0
  0
LINE
  5
1A7
330
1F
100
AcDbEntity
  8
0
  6
Continuous
 62
     7
370
    15
100
AcDbLine
 10
382.749408802
 20
777.756518021
 30
0.0
 11
382.749408802
 21
756.7565201668
 31
0.0
  0
ARC
  5
1A8
330
1F
100
AcDbEntity
  8
0
  6
Continuous
 62
     7
370
    15
100
AcDbCircle
 10
415.3994054403
 20
756.7565213589
 30
0.0
 40
1.650000000000091
100
AcDbArc
 50
180.0
 51
360.0
  0
LINE
  5
1A9
330
1F
100
AcDbEntity
  8
0
  6
Continuous
 62
     7
370
    15
100
AcDbLine
 10
417.0494082774
 20
756.7565201668
 30
0.0
 11
417.0494082774
 21
777.756518021
 31
0.0
  0
ARC
  5
1AA
330
1F
100
AcDbEntity
  8
0
  6
Continuous
 62
     7
370
    15
100
AcDbCircle
 10
415.3994054403
 20
777.7565213589
 30
0.0
 40
1.650000000000205
100
AcDbArc
 50
0.0
 51
180.0
  0
LINE
  5
1AB
330
1F
100
AcDbEntity
  8
0
  6
Continuous
 62
     7
370
    15
100
AcDbLine
 10
413.7494120206
 20
777.756518021
 30
0.0
 11
413.7494120206
 21
756.7565201668
 31
0.0
  0
ARC
  5
1AC
330
1F
100
AcDbEntity
  8
0
  6
Continuous
 62
     7
370
    15
100
AcDbCircle
 10
415.3994054403
 20
725.7565213589
 30
0.0
 40
1.650000000000091
100
AcDbArc
 50
180.0
 51
360.0
  0
LINE
  5
1AD
330
1F
100
AcDbEntity
  8
0
  6
Continuous
 62
     7
370
    15
100
AcDbLine
 10
417.0494082774
 20
725.7565169481
 30
0.0
 11
417.0494082774
 21
746.7565148024
 31
0.0
  0
ARC
  5
1AE
330
1F
100
AcDbEntity
  8
0
  6
Continuous
 62
     7
370
    15
100
AcDbCircle
 10
415.3994054403
 20
746.7565213589
 30
0.0
 40
1.650000000000034
100
AcDbArc
 50
0.0
 51
180.0
  0
LINE
  5
1AF
330
1F
100
AcDbEntity
  8
0
  6
Continuous
 62
     7
370
    15
100
AcDbLine
 10
413.7494120206
 20
746.7565148024
 30
0.0
 11
413.7494120206
 21
725.7565169481
 31
0.0
  0
ARC
  5
1B0
330
1F
100
AcDbEntity
  8
0
  6
Continuous
 62
     7
370
    15
100
AcDbCircle
 10
384.3994054403
 20
725.7565213589
 30
0.0
 40
1.650000000000034
100
AcDbArc
 50
180.0
 51
360.0
  0
LINE
  5
1B1
330
1F
100
AcDbEntity
  8
0
  6
Continuous
 62
     7
370
    15
100
AcDbLine
 10
386.0494050588
 20
725.7565169481
 30
0.0
 11
386.0494050588
 21
746.7565148024
 31
0.0
  0
ARC
  5
1B2
330
1F
100
AcDbEntity
  8
0
  6
Continuous
 62
     7
370
    15
100
AcDbCircle
 10
384.3994054403
 20
746.7565213589
 30
0.0
 40
1.650000000000091
100
AcDbArc
 50
360.0
 51
180.0
  0
LINE
  5
1B3
330
1F
100
AcDbEntity
  8
0
  6
Continuous
 62
     7
370
    15
100
AcDbLine
 10
382.749408802
 20
746.7565148024
 30
0.0
 11
382.749408802
 21
725.7565169481
 31
0.0
  0
LINE
  5
1B4
330
1F
100
AcDbEntity
  8
0
  6
Continuous
 62
     7
370
    15
100
AcDbLine
 10
424.899399599
 20
761.2565218357
 30
0.0
 11
424.899399599
 21
737.2565179018
 31
0.0
  0
LINE
  5
1B5
330
1F
100
AcDbEntity
  8
0
  6
Continuous
 62
     7
370
    15
100
AcDbLine
 10
425.3994080629
 20
736.7565243391
 30
0.0
 11
430.8994117583
 21
736.7565243391
 31
0.0
  0
LINE
  5
1B6
330
1F
100
AcDbEntity
  8
0
  6
Continuous
 62
     7
370
    15
100
AcDbLine
 10
221.8994054403
 20
761.7565153984
 30
0.0
 11
227.3994054105
 21
761.7565153984
 31
0.0
  0
ARC
  5
1B7
330
1F
100
AcDbEntity
  8
0
  6
Continuous
 62
     7
370
    15
100
AcDbCircle
 10
227.8994054403
 20
561.7565213589
 30
0.0
 40
0.4999999999999716
100
AcDbArc
 50
180.0
 51
90.0
  0
ARC
  5
1B8
330
1F
100
AcDbEntity
  8
0
  6
Continuous
 62
     7
370
    15
100
AcDbCircle
 10
227.8994054403
 20
586.7565213589
 30
0.0
 40
0.5000000000001137
100
AcDbArc
 50
270.0
 51
180.0
  0
ARC
  5
1B9
330
1F
100
AcDbEntity
  8
0
  6
Continuous
 62
     7
370
    15
100
AcDbCircle
 10
227.8994054403
 20
611.7565213589
 30
0.0
 40
0.4999999999999716
100
AcDbArc
 50
180.0
 51
90.0
  0
ARC
  5
1BA
330
1F
100
AcDbEntity
  8
0
  6
Continuous
 62
     7
370
    15
100
AcDbCircle
 10
227.8994054403
 20
636.7565213589
 30
0.0
 40
0.4999999999999716
100
AcDbArc
 50
270.0
 51
180.0
  0
ARC
  5
1BB
330
1F
100
AcDbEntity
  8
0
  6
Continuous
 62
     7
370
    15
100
AcDbCircle
 10
227.8994054403
 20
661.7565213589
 30
0.0
 40
0.5000000000001137
100
AcDbArc
 50
180.0
 51
90.0
  0
ARC
  5
1BC
330
1F
100
AcDbEntity
  8
0
  6
Continuous
 62
     7
370
    15
100
AcDbCircle
 10
227.8994054403
 20
686.7565213589
 30
0.0
 40
0.5
100
AcDbArc
 50
270.0
 51
180.0
  0
ARC
  5
1BD
330
1F
100
AcDbEntity
  8
0
  6
Continuous
 62
     7
370
    15
100
AcDbCircle
 10
227.8994054403
 20
711.7565213589
 30
0.0
 40
0.4999999999999716
100
AcDbArc
 50
180.0
 51
90.0
  0
ARC
  5
1BE
330
1F
100
AcDbEntity
  8
0
  6
Continuous
 62
     7
370
    15
100
AcDbCircle
 10
227.8994054403
 20
736.7565213589
 30
0.0
 40
0.5000000000001137
100
AcDbArc
 50
270.0
 51
180.0
  0
ARC
  5
1BF
330
1F
100
AcDbEntity
  8
0
  6
Continuous
 62
     7
370
    15
100
AcDbCircle
 10
227.8994054403
 20
761.7565213589
 30
0.0
 40
0.5000000000001137
100
AcDbArc
 50
180.0
 51
90.0
  0
ARC
  5
1C0
330
1F
100
AcDbEntity
  8
0
  6
Continuous
 62
     7
370
    15
100
AcDbCircle
 10
227.8994054403
 20
786.7565213589
 30
0.0
 40
0.5
100
AcDbArc
 50
270.0
 51
180.0
  0
ARC
  5
1C1
330
1F
100
AcDbEntity
  8
0
  6
Continuous
 62
     7
370
    15
100
AcDbCircle
 10
227.8994054403
 20
811.7565213589
 30
0.0
 40
0.4999999999999716
100
AcDbArc
 50
180.0
 51
90.0
  0
ARC
  5
1C2
330
1F
100
AcDbEntity
  8
0
  6
Continuous
 62
     7
370
    15
100
AcDbCircle
 10
424.8994054403
 20
811.7565213589
 30
0.0
 40
0.5
100
AcDbArc
 50
0.0
 51
270.0
  0
ARC
  5
1C3
330
1F
100
AcDbEntity
  8
0
  6
Continuous
 62
     7
370
    15
100
AcDbCircle
 10
424.8994054403
 20
786.7565213589
 30
0.0
 40
0.5000000000001137
100
AcDbArc
 50
90.0
 51
0.0
  0
ARC
  5
1C4
330
1F
100
AcDbEntity
  8
0
  6
Continuous
 62
     7
370
    15
100
AcDbCircle
 10
424.8994054403
 20
761.7565213589
 30
0.0
 40
0.5
100
AcDbArc
 50
0.0
 51
270.0
  0
ARC
  5
1C5
330
1F
100
AcDbEntity
  8
0
  6
Continuous
 62
     7
370
    15
100
AcDbCircle
 10
424.8994054403
 20
736.7565213589
 30
0.0
 40
0.5
100
AcDbArc
 50
90.0
 51
0.0
  0
DIMENSION
  5
1C6
330
1F
100
AcDbEntity
  8
0
  6
Continuous
 62
     7
370
     0
100
AcDbDimension
  2
_D
 10
446.8994054403
 20
536.7565213589
 30
0.0
 11
446.8994054403
 21
678.154132101
 31
0.0
 70
   160
  1
<>
 71
     2
 42
-1.0
  3
SLDDIMSTYLE0
100
AcDbAlignedDimension
 13
430.8994054403
 23
836.7565213589
 33
0.0
 14
424.8994054403
 24
536.7565213589
 34
0.0
 50
90.0
100
AcDbRotatedDimension
  0
LINE
  5
1D2
330
1F
100
AcDbEntity
  8
0
  6
Continuous
 62
     7
370
    15
100
AcDbLine
 10
40.909964471
 20
238.8377226644
 30
0.0
 11
40.4839663495
 21
232.8767226764
 31
0.0
  0
LINE
  5
1D3
330
1F
100
AcDbEntity
  8
0
  6
Continuous
 62
     7
370
    15
100
AcDbLine
 10
5.0659662772
 20
232.8767226764
 30
0.0
 11
40.4839663495
 21
232.8767226764
 31
0.0
  0
LINE
  5
1D4
330
1F
100
AcDbEntity
  8
0
  6
Continuous
 62
     7
370
    15
100
AcDbLine
 10
5.0659662772
 20
257.8767230489
 30
0.0
 11
5.0659662772
 21
232.8767226764
 31
0.0
  0
LINE
  5
1D5
330
1F
100
AcDbEntity
  8
0
  6
Continuous
 62
     7
370
    15
100
AcDbLine
 10
5.0659662772
 20
257.8767230489
 30
0.0
 11
10.5659662474
 21
257.8767230489
 31
0.0
  0
ARC
  5
1D6
330
1F
100
AcDbEntity
  8
0
  6
Continuous
 62
     7
370
    15
100
AcDbCircle
 10
11.0659662772
 20
257.8767226764
 30
0.0
 40
0.5000000000000568
100
AcDbArc
 50
180.0
 51
90.0
  0
LINE
  5
1D7
330
1F
100
AcDbEntity
  8
0
  6
Continuous
 62
     7
370
    15
100
AcDbLine
 10
11.0659663294
 20
258.3767221996
 30
0.0
 11
11.0659663294
 21
282.3767224082
 31
0.0
  0
ARC
  5
1D8
330
1F
100
AcDbEntity
  8
0
  6
Continuous
 62
     7
370
    15
100
AcDbCircle
 10
11.0659662772
 20
282.8767226764
 30
0.0
 40
0.4999999999999858
100
AcDbArc
 50
270.0
 51
180.0
  0
LINE
  5
1D9
330
1F
100
AcDbEntity
  8
0
  6
Continuous
 62
     7
370
    15
100
AcDbLine
 10
10.5659662474
 20
282.8767234215
 30
0.0
 11
5.0659662772
 21
282.8767234215
 31
0.0
  0
LINE
  5
1DA
330
1F
100
AcDbEntity
  8
0
  6
Continuous
 62
     7
370
    15
100
AcDbLine
 10
5.0659662772
 20
307.8767256566
 30
0.0
 11
5.0659662772
 21
282.8767234215
 31
0.0
  0
LINE
  5
1DB
330
1F
100
AcDbEntity
  8
0
  6
Continuous
 62
     7
370
    15
100
AcDbLine
 10
5.0659662772
 20
307.8767256566
 30
0.0
 11
10.5659662474
 21
307.8767256566
 31
0.0
  0
ARC
  5
1DC
330
1F
100
AcDbEntity
  8
0
  6
Continuous
 62
     7
370
    15
100
AcDbCircle
 10
11.0659662772
 20
307.8767226764
 30
0.0
 40
0.5
100
AcDbArc
 50
180.0
 51
90.0
  0
LINE
  5
1DD
330
1F
100
AcDbEntity
  8
0
  6
Continuous
 62
     7
370
    15
100
AcDbLine
 10
11.0659663294
 20
308.3767192193
 30
0.0
 11
11.0659663294
 21
332.3767231532
 31
0.0
  0
ARC
  5
1DE
330
1F
100
AcDbEntity
  8
0
  6
Continuous
 62
     7
370
    15
100
AcDbCircle
 10
11.0659662772
 20
332.8767226764
 30
0.0
 40
0.5
100
AcDbArc
 50
270.0
 51
180.0
  0
LINE
  5
1DF
330
1F
100
AcDbEntity
  8
0
  6
Continuous
 62
     7
370
    15
100
AcDbLine
 10
10.5659662474
 20
332.8767241665
 30
0.0
 11
5.0659662772
 21
332.8767241665
 31
0.0
  0
LINE
  5
1E0
330
1F
100
AcDbEntity
  8
0
  6
Continuous
 62
     7
370
    15
100
AcDbLine
 10
5.0659662772
 20
357.8767226764
 30
0.0
 11
5.0659662772
 21
332.8767241665
 31
0.0
  0
LINE
  5
1E1
330
1F
100
AcDbEntity
  8
0
  6
Continuous
 62
     7
370
    15
100
AcDbLine
 10
5.0659662772
 20
357.8767226764
 30
0.0
 11
10.5659662474
 21
357.8767226764
 31
0.0
  0
ARC
  5
1E2
330
1F
100
AcDbEntity
  8
0
  6
Continuous
 62
     7
370
    15
100
AcDbCircle
 10
11.0659662772
 20
357.8767226764
 30
0.0
 40
0.5
100
AcDbArc
 50
180.0
 51
90.0
  0
LINE
  5
1E3
330
1F
100
AcDbEntity
  8
0
  6
Continuous
 62
     7
370
    15
100
AcDbLine
 10
11.0659663294
 20
358.3767162391
 30
0.0
 11
11.0659663294
 21
382.376720173
 31
0.0
  0
ARC
  5
1E4
330
1F
100
AcDbEntity
  8
0
  6
Continuous
 62
     7
370
    15
100
AcDbCircle
 10
11.0659662772
 20
382.8767226764
 30
0.0
 40
0.5
100
AcDbArc
 50
270.0
 51
180.0
  0
LINE
  5
1E5
330
1F
100
AcDbEntity
  8
0
  6
Continuous
 62
     7
370
    15
100
AcDbLine
 10
10.5659662474
 20
382.8767286369
 30
0.0
 11
5.0659662772
 21
382.8767286369
 31
0.0
  0
LINE
  5
1E6
330
1F
100
AcDbEntity
  8
0
  6
Continuous
 62
     7
370
    15
100
AcDbLine
 10
5.0659662772
 20
407.8767196962
 30
0.0
 11
5.0659662772
 21
382.8767286369
 31
0.0
  0
LINE
  5
1E7
330
1F
100
AcDbEntity
  8
0
  6
Continuous
 62
     7
370
    15
100
AcDbLine
 10
5.0659662772
 20
407.8767196962
 30
0.0
 11
10.5659662474
 21
407.8767196962
 31
0.0
  0
LINE
  5
1E8
330
1F
100
AcDbEntity
  8
0
  6
Continuous
 62
     7
370
    15
100
AcDbLine
 10
11.0659663294
 20
408.37672816
 30
0.0
 11
11.0659663294
 21
432.3767171928
 31
0.0
  0
LINE
  5
1E9
330
1F
100
AcDbEntity
  8
0
  6
Continuous
 62
     7
370
    15
100
AcDbLine
 10
10.5659662474
 20
432.8767256566
 30
0.0
 11
5.0659662772
 21
432.8767256566
 31
0.0
  0
LINE
  5
1EA
330
1F
100
AcDbEntity
  8
0
  6
Continuous
 62
     7
370
    15
100
AcDbLine
 10
5.0659662772
 20
457.8767167159
 30
0.0
 11
5.0659662772
 21
432.8767256566
 31
0.0
  0
LINE
  5
1EB
330
1F
100
AcDbEntity
  8
0
  6
Continuous
 62
     7
370
    15
100
AcDbLine
 10
5.0659662772
 20
457.8767167159
 30
0.0
 11
10.5659662474
 21
457.8767167159
 31
0.0
  0
LINE
  5
1EC
330
1F
100
AcDbEntity
  8
0
  6
Continuous
 62
     7
370
    15
100
AcDbLine
 10
11.0659663294
 20
458.3767251798
 30
0.0
 11
11.0659663294
 21
482.3767291137
 31
0.0
  0
LINE
  5
1ED
330
1F
100
AcDbEntity
  8
0
  6
Continuous
 62
     7
370
    15
100
AcDbLine
 10
10.5659662474
 20
482.8767226764
 30
0.0
 11
5.0659662772
 21
482.8767226764
 31
0.0
  0
LINE
  5
1EE
330
1F
100
AcDbEntity
  8
0
  6
Continuous
 62
     7
370
    15
100
AcDbLine
 10
5.0659662772
 20
507.8767286369
 30
0.0
 11
5.0659662772
 21
482.8767226764
 31
0.0
  0
LINE
  5
1EF
330
1F
100
AcDbEntity
  8
0
  6
Continuous
 62
     7
370
    15
100
AcDbLine
 10
5.0659662772
 20
507.8767286369
 30
0.0
 11
10.5659662474
 21
507.8767286369
 31
0.0
  0
LINE
  5
1F0
330
1F
100
AcDbEntity
  8
0
  6
Continuous
 62
     7
370
    15
100
AcDbLine
 10
11.0659663294
 20
508.3767221996
 30
0.0
 11
11.0659663294
 21
532.8767345973
 31
0.0
  0
LINE
  5
1F1
330
1F
100
AcDbEntity
  8
0
  6
Continuous
 62
     7
370
    15
100
AcDbLine
 10
40.3769648362
 20
532.8767345973
 30
0.0
 11
11.0659663294
 21
532.8767345973
 31
0.0
  0
LINE
  5
1F2
330
1F
100
AcDbEntity
  8
0
  6
Continuous
 62
     7
370
    15
100
AcDbLine
 10
40.3769648362
 20
532.8767345973
 30
0.0
 11
40.9119649518
 21
525.3767119476
 31
0.0
  0
ARC
  5
1F3
330
1F
100
AcDbEntity
  8
0
  6
Continuous
 62
     7
370
    15
100
AcDbCircle
 10
42.5664141423
 20
524.083354105
 30
0.0
 40
2.100000000000005
100
AcDbArc
 50
141.98339707
 51
1.1833394131
  0
LINE
  5
1F4
330
1F
100
AcDbEntity
  8
0
  6
Continuous
 62
     7
370
    15
100
AcDbLine
 10
44.6659660626
 20
524.1267131397
 30
0.0
 11
44.6659660626
 21
532.8767345973
 31
0.0
  0
LINE
  5
1F5
330
1F
100
AcDbEntity
  8
0
  6
Continuous
 62
     7
370
    15
100
AcDbLine
 10
174.4659728099
 20
532.8767345973
 30
0.0
 11
44.6659660626
 21
532.8767345973
 31
0.0
  0
LINE
  5
1F6
330
1F
100
AcDbEntity
  8
0
  6
Continuous
 62
     7
370
    15
100
AcDbLine
 10
174.4659728099
 20
532.8767345973
 30
0.0
 11
174.4659728099
 21
524.1267131397
 31
0.0
  0
ARC
  5
1F7
330
1F
100
AcDbEntity
  8
0
  6
Continuous
 62
     7
370
    15
100
AcDbCircle
 10
176.5655184121
 20
524.083354105
 30
0.0
 40
2.100000000000011
100
AcDbArc
 50
178.8166605869
 51
38.01660293
  0
LINE
  5
1F8
330
1F
100
AcDbEntity
  8
0
  6
Continuous
 62
     7
370
    15
100
AcDbLine
 10
178.2199627448
 20
525.3767119476
 30
0.0
 11
178.7549591351
 21
532.8767345973
 31
0.0
  0
LINE
  5
1F9
330
1F
100
AcDbEntity
  8
0
  6
Continuous
 62
     7
370
    15
100
AcDbLine
 10
214.0659725953
 20
532.8767345973
 30
0.0
 11
178.7549591351
 21
532.8767345973
 31
0.0
  0
LINE
  5
1FA
330
1F
100
AcDbEntity
  8
0
  6
Continuous
 62
     7
370
    15
100
AcDbLine
 10
214.0659725953
 20
507.8767286369
 30
0.0
 11
214.0659725953
 21
532.8767345973
 31
0.0
  0
LINE
  5
1FB
330
1F
100
AcDbEntity
  8
0
  6
Continuous
 62
     7
370
    15
100
AcDbLine
 10
208.5659688998
 20
482.8767226764
 30
0.0
 11
214.0659725953
 21
482.8767226764
 31
0.0
  0
LINE
  5
1FC
330
1F
100
AcDbEntity
  8
0
  6
Continuous
 62
     7
370
    15
100
AcDbLine
 10
214.0659725953
 20
457.8767167159
 30
0.0
 11
214.0659725953
 21
482.8767226764
 31
0.0
  0
LINE
  5
1FD
330
1F
100
AcDbEntity
  8
0
  6
Continuous
 62
     7
370
    15
100
AcDbLine
 10
214.0659725953
 20
457.8767167159
 30
0.0
 11
208.5659688998
 21
457.8767167159
 31
0.0
  0
LINE
  5
1FE
330
1F
100
AcDbEntity
  8
0
  6
Continuous
 62
     7
370
    15
100
AcDbLine
 10
208.065960436
 20
457.3767231532
 30
0.0
 11
208.065960436
 21
433.3767192193
 31
0.0
  0
LINE
  5
1FF
330
1F
100
AcDbEntity
  8
0
  6
Continuous
 62
     7
370
    15
100
AcDbLine
 10
208.5659688998
 20
432.8767256566
 30
0.0
 11
214.0659725953
 21
432.8767256566
 31
0.0
  0
LINE
  5
200
330
1F
100
AcDbEntity
  8
0
  6
Continuous
 62
     7
370
    15
100
AcDbLine
 10
214.0659725953
 20
407.8767196962
 30
0.0
 11
214.0659725953
 21
432.8767256566
 31
0.0
  0
LINE
  5
201
330
1F
100
AcDbEntity
  8
0
  6
Continuous
 62
     7
370
    15
100
AcDbLine
 10
214.0659725953
 20
407.8767196962
 30
0.0
 11
208.5659688998
 21
407.8767196962
 31
0.0
  0
LINE
  5
202
330
1F
100
AcDbEntity
  8
0
  6
Continuous
 62
     7
370
    15
100
AcDbLine
 10
208.065960436
 20
407.3767261335
 30
0.0
 11
208.065960436
 21
383.3767221996
 31
0.0
  0
LINE
  5
203
330
1F
100
AcDbEntity
  8
0
  6
Continuous
 62
     7
370
    15
100
AcDbLine
 10
208.5659688998
 20
382.8767286369
 30
0.0
 11
214.0659725953
 21
382.8767286369
 31
0.0
  0
LINE
  5
204
330
1F
100
AcDbEntity
  8
0
  6
Continuous
 62
     7
370
    15
100
AcDbLine
 10
214.0659725953
 20
357.8767226764
 30
0.0
 11
214.0659725953
 21
382.8767286369
 31
0.0
  0
LINE
  5
205
330
1F
100
AcDbEntity
  8
0
  6
Continuous
 62
     7
370
    15
100
AcDbLine
 10
214.0659725953
 20
357.8767226764
 30
0.0
 11
208.5659688998
 21
357.8767226764
 31
0.0
  0
LINE
  5
206
330
1F
100
AcDbEntity
  8
0
  6
Continuous
 62
     7
370
    15
100
AcDbLine
 10
208.065960436
 20
357.3767216631
 30
0.0
 11
208.065960436
 21
333.3767251798
 31
0.0
  0
LINE
  5
207
330
1F
100
AcDbEntity
  8
0
  6
Continuous
 62
     7
370
    15
100
AcDbLine
 10
208.5659688998
 20
332.8767241665
 30
0.0
 11
214.0659725953
 21
332.8767241665
 31
0.0
  0
LINE
  5
208
330
1F
100
AcDbEntity
  8
0
  6
Continuous
 62
     7
370
    15
100
AcDbLine
 10
214.0659725953
 20
307.8767256566
 30
0.0
 11
214.0659725953
 21
332.8767241665
 31
0.0
  0
LINE
  5
209
330
1F
100
AcDbEntity
  8
0
  6
Continuous
 62
     7
370
    15
100
AcDbLine
 10
214.0659725953
 20
307.8767256566
 30
0.0
 11
208.5659688998
 21
307.8767256566
 31
0.0
  0
LINE
  5
20A
330
1F
100
AcDbEntity
  8
0
  6
Continuous
 62
     7
370
    15
100
AcDbLine
 10
208.065960436
 20
307.3767246434
 30
0.0
 11
208.065960436
 21
283.3767244347
 31
0.0
  0
LINE
  5
20B
330
1F
100
AcDbEntity
  8
0
  6
Continuous
 62
     7
370
    15
100
AcDbLine
 10
208.5659688998
 20
282.8767234215
 30
0.0
 11
214.0659725953
 21
282.8767234215
 31
0.0
  0
LINE
  5
20C
330
1F
100
AcDbEntity
  8
0
  6
Continuous
 62
     7
370
    15
100
AcDbLine
 10
214.0659725953
 20
257.8767230489
 30
0.0
 11
214.0659725953
 21
282.8767234215
 31
0.0
  0
LINE
  5
20D
330
1F
100
AcDbEntity
  8
0
  6
Continuous
 62
     7
370
    15
100
AcDbLine
 10
214.0659725953
 20
257.8767230489
 30
0.0
 11
208.5659688998
 21
257.8767230489
 31
0.0
  0
LINE
  5
20E
330
1F
100
AcDbEntity
  8
0
  6
Continuous
 62
     7
370
    15
100
AcDbLine
 10
208.065960436
 20
257.3767220357
 30
0.0
 11
208.065960436
 21
232.8767226764
 31
0.0
  0
LINE
  5
20F
330
1F
100
AcDbEntity
  8
0
  6
Continuous
 62
     7
370
    15
100
AcDbLine
 10
178.6479687978
 20
232.8767226764
 30
0.0
 11
208.065960436
 21
232.8767226764
 31
0.0
  0
LINE
  5
210
330
1F
100
AcDbEntity
  8
0
  6
Continuous
 62
     7
370
    15
100
AcDbLine
 10
178.6479687978
 20
232.8767226764
 30
0.0
 11
178.2219595004
 21
238.8377226644
 31
0.0
  0
ARC
  5
211
330
1F
100
AcDbEntity
  8
0
  6
Continuous
 62
     7
370
    15
100
AcDbCircle
 10
176.5659649298
 20
240.129101605
 30
0.0
 40
2.100000000000024
100
AcDbArc
 50
322.0522687641
 51
180.0649059989
  0
LINE
  5
212
330
1F
100
AcDbEntity
  8
0
  6
Continuous
 62
     7
370
    15
100
AcDbLine
 10
174.4659728099
 20
240.1267224678
 30
0.0
 11
174.4659728099
 21
232.8767226764
 31
0.0
  0
LINE
  5
213
330
1F
100
AcDbEntity
  8
0
  6
Continuous
 62
     7
370
    15
100
AcDbLine
 10
44.6659660626
 20
232.8767226764
 30
0.0
 11
174.4659728099
 21
232.8767226764
 31
0.0
  0
LINE
  5
214
330
1F
100
AcDbEntity
  8
0
  6
Continuous
 62
     7
370
    15
100
AcDbLine
 10
44.6659660626
 20
232.8767226764
 30
0.0
 11
44.6659660626
 21
240.1267224678
 31
0.0
  0
ARC
  5
215
330
1F
100
AcDbEntity
  8
0
  6
Continuous
 62
     7
370
    15
100
AcDbCircle
 10
42.5659676247
 20
240.129101605
 30
0.0
 40
2.100000000000035
100
AcDbArc
 50
359.9350940011
 51
217.9477312359
  0
ARC
  5
216
330
1F
100
AcDbEntity
  8
0
  6
Continuous
 62
     7
370
    15
100
AcDbCircle
 10
139.0659662772
 20
282.2767226764
 30
0.0
 40
15.0
100
AcDbArc
 50
270.0
 51
0.0
  0
LINE
  5
217
330
1F
100
AcDbEntity
  8
0
  6
Continuous
 62
     7
370
    15
100
AcDbLine
 10
154.0659702111
 20
282.2767244407
 30
0.0
 11
154.0659702111
 21
396.2767170497
 31
0.0
  0
ARC
  5
218
330
1F
100
AcDbEntity
  8
0
  6
Continuous
 62
     7
370
    15
100
AcDbCircle
 10
139.0659662772
 20
396.2767226764
 30
0.0
 40
15.0
100
AcDbArc
 50
0.0
 51
90.0
  0
LINE
  5
219
330
1F
100
AcDbEntity
  8
0
  6
Continuous
 62
     7
370
    15
100
AcDbLine
 10
139.0659696151
 20
411.2767176458
 30
0.0
 11
52.5659656812
 21
411.2767176458
 31
0.0
  0
ARC
  5
21A
330
1F
100
AcDbEntity
  8
0
  6
Continuous
 62
     7
370
    15
100
AcDbCircle
 10
52.5659662772
 20
396.2767226764
 30
0.0
 40
15.00000000000001
100
AcDbArc
 50
90.0
 51
180.0
  0
LINE
  5
21B
330
1F
100
AcDbEntity
  8
0
  6
Continuous
 62
     7
370
    15
100
AcDbLine
 10
37.5659650851
 20
396.2767170497
 30
0.0
 11
37.5659650851
 21
282.2767244407
 31
0.0
  0
ARC
  5
21C
330
1F
100
AcDbEntity
  8
0
  6
Continuous
 62
     7
370
    15
100
AcDbCircle
 10
52.5659662772
 20
282.2767226764
 30
0.0
 40
15.0
100
AcDbArc
 50
180.0
 51
270.0
  0
LINE
  5
21D
330
1F
100
AcDbEntity
  8
0
  6
Continuous
 62
     7
370
    15
100
AcDbLine
 10
52.5659656812
 20
267.2767238447
 30
0.0
 11
139.0659696151
 21
267.2767238447
 31
0.0
  0
CIRCLE
  5
21E
330
1F
100
AcDbEntity
  8
0
  6
Continuous
 62
     7
370
    15
100
AcDbCircle
 10
190.5659662772
 20
250.3767226764
 30
0.0
 40
11.0
  0
CIRCLE
  5
21F
330
1F
100
AcDbEntity
  8
0
  6
Continuous
 62
     7
370
    15
100
AcDbCircle
 10
28.5659662772
 20
250.3767226764
 30
0.0
 40
10.99999999999999
  0
CIRCLE
  5
220
330
1F
100
AcDbEntity
  8
0
  6
Continuous
 62
     7
370
    15
100
AcDbCircle
 10
157.0659662772
 20
460.6267226764
 30
0.0
 40
2.249999999999972
  0
CIRCLE
  5
221
330
1F
100
AcDbEntity
  8
0
  6
Continuous
 62
     7
370
    15
100
AcDbCircle
 10
146.0659662772
 20
460.6267226764
 30
0.0
 40
2.249999999999972
  0
CIRCLE
  5
222
330
1F
100
AcDbEntity
  8
0
  6
Continuous
 62
     7
370
    15
100
AcDbCircle
 10
63.0659662772
 20
460.6267226764
 30
0.0
 40
2.249999999999972
  0
CIRCLE
  5
223
330
1F
100
AcDbEntity
  8
0
  6
Continuous
 62
     7
370
    15
100
AcDbCircle
 10
155.5659662772
 20
503.7267226764
 30
0.0
 40
2.250000000000028
  0
CIRCLE
  5
224
330
1F
100
AcDbEntity
  8
0
  6
Continuous
 62
     7
370
    15
100
AcDbCircle
 10
144.5659662772
 20
508.8767226764
 30
0.0
 40
2.249999999999972
  0
CIRCLE
  5
225
330
1F
100
AcDbEntity
  8
0
  6
Continuous
 62
     7
370
    15
100
AcDbCircle
 10
63.0659662772
 20
503.7267226764
 30
0.0
 40
2.249999999999972
  0
CIRCLE
  5
226
330
1F
100
AcDbEntity
  8
0
  6
Continuous
 62
     7
370
    15
100
AcDbCircle
 10
69.5659662772
 20
508.8767226764
 30
0.0
 40
2.249999999999986
  0
ARC
  5
227
330
1F
100
AcDbEntity
  8
0
  6
Continuous
 62
     7
370
    15
100
AcDbCircle
 10
11.0659662772
 20
407.8767226764
 30
0.0
 40
0.5000000000000568
100
AcDbArc
 50
180.0
 51
90.0
  0
ARC
  5
228
330
1F
100
AcDbEntity
  8
0
  6
Continuous
 62
     7
370
    15
100
AcDbCircle
 10
11.0659662772
 20
432.8767226764
 30
0.0
 40
0.4999999999999858
100
AcDbArc
 50
270.0
 51
180.0
  0
ARC
  5
229
330
1F
100
AcDbEntity
  8
0
  6
Continuous
 62
     7
370
    15
100
AcDbCircle
 10
11.0659662772
 20
457.8767226764
 30
0.0
 40
0.4999999999999858
100
AcDbArc
 50
180.0
 51
90.0
  0
ARC
  5
22A
330
1F
100
AcDbEntity
  8
0
  6
Continuous
 62
     7
370
    15
100
AcDbCircle
 10
11.0659662772
 20
482.8767226764
 30
0.0
 40
0.5
100
AcDbArc
 50
270.0
 51
180.0
  0
ARC
  5
22B
330
1F
100
AcDbEntity
  8
0
  6
Continuous
 62
     7
370
    15
100
AcDbCircle
 10
11.0659662772
 20
507.8767226764
 30
0.0
 40
0.5000000000000568
100
AcDbArc
 50
180.0
 51
90.0
  0
ARC
  5
22C
330
1F
100
AcDbEntity
  8
0
  6
Continuous
 62
     7
370
    15
100
AcDbCircle
 10
208.0659662772
 20
507.8767226764
 30
0.0
 40
0.5
100
AcDbArc
 50
0.0
 51
270.0
  0
ARC
  5
22D
330
1F
100
AcDbEntity
  8
0
  6
Continuous
 62
     7
370
    15
100
AcDbCircle
 10
208.0659662772
 20
482.8767226764
 30
0.0
 40
0.5
100
AcDbArc
 50
90.0
 51
0.0
  0
ARC
  5
22E
330
1F
100
AcDbEntity
  8
0
  6
Continuous
 62
     7
370
    15
100
AcDbCircle
 10
208.0659662772
 20
457.8767226764
 30
0.0
 40
0.5000000000000568
100
AcDbArc
 50
0.0
 51
270.0
  0
ARC
  5
22F
330
1F
100
AcDbEntity
  8
0
  6
Continuous
 62
     7
370
    15
100
AcDbCircle
 10
208.0659662772
 20
432.8767226764
 30
0.0
 40
0.5
100
AcDbArc
 50
90.0
 51
0.0
  0
ARC
  5
230
330
1F
100
AcDbEntity
  8
0
  6
Continuous
 62
     7
370
    15
100
AcDbCircle
 10
208.0659662772
 20
407.8767226764
 30
0.0
 40
0.5
100
AcDbArc
 50
0.0
 51
270.0
  0
ARC
  5
231
330
1F
100
AcDbEntity
  8
0
  6
Continuous
 62
     7
370
    15
100
AcDbCircle
 10
208.0659662772
 20
382.8767226764
 30
0.0
 40
0.5
100
AcDbArc
 50
90.0
 51
0.0
  0
ARC
  5
232
330
1F
100
AcDbEntity
  8
0
  6
Continuous
 62
     7
370
    15
100
AcDbCircle
 10
208.0659662772
 20
357.8767226764
 30
0.0
 40
0.5
100
AcDbArc
 50
0.0
 51
270.0
  0
ARC
  5
233
330
1F
100
AcDbEntity
  8
0
  6
Continuous
 62
     7
370
    15
100
AcDbCircle
 10
208.0659662772
 20
332.8767226764
 30
0.0
 40
0.5
100
AcDbArc
 50
90.0
 51
0.0
  0
ARC
  5
234
330
1F
100
AcDbEntity
  8
0
  6
Continuous
 62
     7
370
    15
100
AcDbCircle
 10
208.0659662772
 20
307.8767226764
 30
0.0
 40
0.5
100
AcDbArc
 50
0.0
 51
270.0
  0
ARC
  5
235
330
1F
100
AcDbEntity
  8
0
  6
Continuous
 62
     7
370
    15
100
AcDbCircle
 10
208.0659662772
 20
282.8767226764
 30
0.0
 40
0.5
100
AcDbArc
 50
90.0
 51
0.0
  0
ARC
  5
236
330
1F
100
AcDbEntity
  8
0
  6
Continuous
 62
     7
370
    15
100
AcDbCircle
 10
208.0659662772
 20
257.8767226764
 30
0.0
 40
0.5
100
AcDbArc
 50
0.0
 51
270.0
  0
LINE
  5
237
330
1F
100
AcDbEntity
  8
0
  6
Continuous
 62
     7
370
    15
100
AcDbLine
 10
214.0659725953
 20
507.8767286369
 30
0.0
 11
208.5659688998
 21
507.8767286369
 31
0.0
  0
LINE
  5
238
330
1F
100
AcDbEntity
  8
0
  6
Continuous
 62
     7
370
    15
100
AcDbLine
 10
208.065960436
 20
507.3767350742
 30
0.0
 11
208.065960436
 21
483.3767162391
 31
0.0
  0
LINE
  5
239
330
1F
100
AcDbEntity
  8
0
  6
Continuous
 62
     7
370
    15
100
AcDbLine
 10
291.4406018075
 20
718.2979388914
 30
0.0
 11
291.4406018075
 21
668.2979381464
 31
0.0
  0
LINE
  5
23A
330
1F
100
AcDbEntity
  8
0
  6
Continuous
 62
     7
370
    15
100
AcDbLine
 10
356.4405994233
 20
718.2979388914
 30
0.0
 11
291.4406018075
 21
718.2979388914
 31
0.0
  0
LINE
  5
23B
330
1F
100
AcDbEntity
  8
0
  6
Continuous
 62
     7
370
    15
100
AcDbLine
 10
356.4405994233
 20
668.2979381464
 30
0.0
 11
356.4405994233
 21
718.2979388914
 31
0.0
  0
LINE
  5
23C
330
1F
100
AcDbEntity
  8
0
  6
Continuous
 62
     7
370
    15
100
AcDbLine
 10
291.4406018075
 20
668.2979381464
 30
0.0
 11
356.4405994233
 21
668.2979381464
 31
0.0
  0
CIRCLE
  5
23D
330
1F
100
AcDbEntity
  8
0
  6
Continuous
 62
     7
370
    15
100
AcDbCircle
 10
303.9406018075
 20
678.2979381464
 30
0.0
 40
2.649999999999864
  0
CIRCLE
  5
23E
330
1F
100
AcDbEntity
  8
0
  6
Continuous
 62
     7
370
    15
100
AcDbCircle
 10
343.9406018075
 20
678.2979381464
 30
0.0
 40
2.649999999999864
  0
CIRCLE
  5
23F
330
1F
100
AcDbEntity
  8
0
  6
Continuous
 62
     7
370
    15
100
AcDbCircle
 10
343.9406018075
 20
703.2979381464
 30
0.0
 40
2.649999999999977
  0
CIRCLE
  5
240
330
1F
100
AcDbEntity
  8
0
  6
Continuous
 62
     7
370
    15
100
AcDbCircle
 10
303.9406018075
 20
703.2979381464
 30
0.0
 40
2.650000000000091
  0
LINE
  5
241
330
1F
100
AcDbEntity
  8
0
  6
Continuous
 62
     7
370
    15
100
AcDbLine
 10
44.4295812248
 20
661.3412378932
 30
0.0
 11
45.9295842646
 21
660.3412358666
 31
0.0
  0
LINE
  5
242
330
1F
100
AcDbEntity
  8
0
  6
Continuous
 62
     7
370
    15
100
AcDbLine
 10
44.4295812248
 20
778.5912408138
 30
0.0
 11
44.4295812248
 21
661.3412378932
 31
0.0
  0
LINE
  5
243
330
1F
100
AcDbEntity
  8
0
  6
Continuous
 62
     7
370
    15
100
AcDbLine
 10
56.1795864104
 20
790.3412385488
 30
0.0
 11
44.4295812248
 21
778.5912408138
 31
0.0
  0
LINE
  5
244
330
1F
100
AcDbEntity
  8
0
  6
Continuous
 62
     7
370
    15
100
AcDbLine
 10
172.9295845924
 20
790.3412385488
 30
0.0
 11
56.1795864104
 21
790.3412385488
 31
0.0
  0
LINE
  5
245
330
1F
100
AcDbEntity
  8
0
  6
Continuous
 62
     7
370
    15
100
AcDbLine
 10
174.429583907
 20
789.3412365223
 30
0.0
 11
172.9295845924
 21
790.3412385488
 31
0.0
  0
LINE
  5
246
330
1F
100
AcDbEntity
  8
0
  6
Continuous
 62
     7
370
    15
100
AcDbLine
 10
174.429583907
 20
661.3412378932
 30
0.0
 11
174.429583907
 21
789.3412365223
 31
0.0
  0
LINE
  5
247
330
1F
100
AcDbEntity
  8
0
  6
Continuous
 62
     7
370
    15
100
AcDbLine
 10
172.9295845924
 20
660.3412358666
 30
0.0
 11
174.429583907
 21
661.3412378932
 31
0.0
  0
LINE
  5
248
330
1F
100
AcDbEntity
  8
0
  6
Continuous
 62
     7
370
    15
100
AcDbLine
 10
45.9295842646
 20
660.3412358666
 30
0.0
 11
172.9295845924
 21
660.3412358666
 31
0.0
  0
CIRCLE
  5
249
330
1F
100
AcDbEntity
  8
0
  6
Continuous
 62
     7
370
    15
100
AcDbCircle
 10
166.9295832385
 20
777.8412376148
 30
0.0
 40
2.25
  0
CIRCLE
  5
24A
330
1F
100
AcDbEntity
  8
0
  6
Continuous
 62
     7
370
    15
100
AcDbCircle
 10
51.9295832385
 20
777.8412376148
 30
0.0
 40
2.25
  0
CIRCLE
  5
24B
330
1F
100
AcDbEntity
  8
0
  6
Continuous
 62
     7
370
    15
100
AcDbCircle
 10
51.9295832385
 20
677.0912376148
 30
0.0
 40
2.25
  0
CIRCLE
  5
24C
330
1F
100
AcDbEntity
  8
0
  6
Continuous
 62
     7
370
    15
100
AcDbCircle
 10
166.9295832385
 20
677.0912376148
 30
0.0
 40
2.25
  0
ARC
  5
24D
330
1F
100
AcDbEntity
  8
0
  6
Continuous
 62
     7
370
    15
100
AcDbCircle
 10
138.7215762494
 20
282.5774494627
 30
0.0
 40
15.00000000000002
100
AcDbArc
 50
330.0
 51
0.0
  0
LINE
  5
24E
330
1F
100
AcDbEntity
  8
0
  6
Continuous
 62
     7
370
    15
100
AcDbLine
 10
151.7119573062
 20
275.0774494627
 30
0.0
 11
39.7311951927
 21
275.0774494627
 31
0.0
  0
ARC
  5
24F
330
1F
100
AcDbEntity
  8
0
  6
Continuous
 62
     7
370
    15
100
AcDbCircle
 10
52.7215762494
 20
282.5774494627
 30
0.0
 40
15.0
100
AcDbArc
 50
180.0
 51
210.0
  0
LINE
  5
250
330
1F
100
AcDbEntity
  8
0
  6
Continuous
 62
     7
370
    15
100
AcDbLine
 10
37.7215762494
 20
282.5774494627
 30
0.0
 11
37.7215762494
 21
398.0774494627
 31
0.0
  0
LINE
  5
251
330
1F
100
AcDbEntity
  8
0
  6
Continuous
 62
     7
370
    15
100
AcDbLine
 10
44.7215762494
 20
405.0774494627
 30
0.0
 11
37.7215762494
 21
398.0774494627
 31
0.0
  0
LINE
  5
252
330
1F
100
AcDbEntity
  8
0
  6
Continuous
 62
     7
370
    15
100
AcDbLine
 10
44.7215762494
 20
405.0774494627
 30
0.0
 11
151.0807833438
 21
405.0774494627
 31
0.0
  0
ARC
  5
253
330
1F
100
AcDbEntity
  8
0
  6
Continuous
 62
     7
370
    15
100
AcDbCircle
 10
138.7215762494
 20
396.5774494627
 30
0.0
 40
15.0
100
AcDbArc
 50
0.0
 51
34.5181078411
  0
CIRCLE
  5
254
330
1F
100
AcDbEntity
  8
0
  6
Continuous
 62
     7
370
    15
100
AcDbCircle
 10
87.4715762494
 20
312.5774494627
 30
0.0
 40
2.25
  0
CIRCLE
  5
255
330
1F
100
AcDbEntity
  8
0
  6
Continuous
 62
     7
370
    15
100
AcDbCircle
 10
49.4715762494
 20
312.5774494627
 30
0.0
 40
2.25
  0
CIRCLE
  5
256
330
1F
100
AcDbEntity
  8
0
  6
Continuous
 62
     7
370
    15
100
AcDbCircle
 10
87.4715762494
 20
377.5774494627
 30
0.0
 40
2.25
  0
CIRCLE
  5
257
330
1F
100
AcDbEntity
  8
0
  6
Continuous
 62
     7
370
    15
100
AcDbCircle
 10
49.4715762494
 20
377.5774494627
 30
0.0
 40
2.249999999999993
  0
CIRCLE
  5
258
330
1F
100
AcDbEntity
  8
0
  6
Continuous
 62
     7
370
    15
100
AcDbCircle
 10
146.4715762494
 20
397.5774494627
 30
0.0
 40
2.249999999999972
  0
CIRCLE
  5
259
330
1F
100
AcDbEntity
  8
0
  6
Continuous
 62
     7
370
    15
100
AcDbCircle
 10
146.4715762494
 20
282.5774494627
 30
0.0
 40
2.249999999999972
  0
CIRCLE
  5
25A
330
1F
100
AcDbEntity
  8
0
  6
Continuous
 62
     7
370
    15
100
AcDbCircle
 10
45.7215762494
 20
282.5774494627
 30
0.0
 40
2.249999999999986
  0
CIRCLE
  5
25B
330
1F
100
AcDbEntity
  8
0
  6
Continuous
 62
     7
370
    15
100
AcDbCircle
 10
45.7215762494
 20
397.5774494627
 30
0.0
 40
2.249999999999986
  0
LINE
  5
25C
330
1F
100
AcDbEntity
  8
0
  6
Continuous
 62
     7
370
    15
100
AcDbLine
 10
153.7215762494
 20
396.5774494627
 30
0.0
 11
153.7215762494
 21
282.5774494627
 31
0.0
  0
ENDSEC
  0
SECTION
  2
OBJECTS
  0
DICTIONARY
  5
C
330
0
100
AcDbDictionary
281
     1
  3
ACAD_GROUP
350
D
  3
ACAD_LAYOUT
350
1A
  3
ACAD_MLINESTYLE
350
17
  3
ACAD_PLOTSETTINGS
350
19
  3
ACAD_PLOTSTYLENAME
350
E
  0
DICTIONARY
  5
D
102
{ACAD_REACTORS
330
C
102
}
330
C
100
AcDbDictionary
281
     1
  0
DICTIONARY
  5
1A
102
{ACAD_REACTORS
330
C
102
}
330
C
100
AcDbDictionary
281
     1
  3
Layout1
350
1E
  3
Layout2
350
26
  3
Model
350
22
  0
DICTIONARY
  5
17
102
{ACAD_REACTORS
330
C
102
}
330
C
100
AcDbDictionary
281
     1
  3
Standard
350
18
  0
DICTIONARY
  5
19
102
{ACAD_REACTORS
330
C
102
}
330
C
100
AcDbDictionary
281
     1
  0
ACDBDICTIONARYWDFLT
  5
E
102
{ACAD_REACTORS
330
C
102
}
330
C
100
AcDbDictionary
281
     1
  3
Normal
350
F
100
AcDbDictionaryWithDefault
340
F
  0
LAYOUT
  5
1E
102
{ACAD_REACTORS
330
1A
102
}
330
1A
100
AcDbPlotSettings
  1

  2
none_device
  4

  6

 40
0.0
 41
0.0
 42
0.0
 43
0.0
 44
0.0
 45
0.0
 46
0.0
 47
0.0
 48
0.0
 49
0.0
140
0.0
141
0.0
142
1.0
143
1.0
 70
   688
 72
     0
 73
     0
 74
     5
  7

 75
    16
147
1.0
148
0.0
149
0.0
100
AcDbLayout
  1
Layout1
 70
     1
 71
     1
 10
0.0
 20
0.0
 11
420.0
 21
297.0
 12
0.0
 22
0.0
 32
0.0
 14
1.0000000000E+20
 24
1.0000000000E+20
 34
1.0000000000E+20
 15
-1.0000000000E+20
 25
-1.0000000000E+20
 35
-1.0000000000E+20
146
0.0
 13
0.0
 23
0.0
 33
0.0
 16
1.0
 26
0.0
 36
0.0
 17
0.0
 27
1.0
 37
0.0
 76
     0
330
1B
  0
LAYOUT
  5
26
102
{ACAD_REACTORS
330
1A
102
}
330
1A
100
AcDbPlotSettings
  1

  2
none_device
  4

  6

 40
0.0
 41
0.0
 42
0.0
 43
0.0
 44
0.0
 45
0.0
 46
0.0
 47
0.0
 48
0.0
 49
0.0
140
0.0
141
0.0
142
1.0
143
1.0
 70
   688
 72
     0
 73
     0
 74
     5
  7

 75
    16
147
1.0
148
0.0
149
0.0
100
AcDbLayout
  1
Layout2
 70
     1
 71
     2
 10
0.0
 20
0.0
 11
0.0
 21
0.0
 12
0.0
 22
0.0
 32
0.0
 14
0.0
 24
0.0
 34
0.0
 15
0.0
 25
0.0
 35
0.0
146
0.0
 13
0.0
 23
0.0
 33
0.0
 16
1.0
 26
0.0
 36
0.0
 17
0.0
 27
1.0
 37
0.0
 76
     0
330
23
  0
LAYOUT
  5
22
102
{ACAD_REACTORS
330
1A
102
}
330
1A
100
AcDbPlotSettings
  1

  2
none_device
  4

  6

 40
0.0
 41
0.0
 42
0.0
 43
0.0
 44
0.0
 45
0.0
 46
0.0
 47
0.0
 48
0.0
 49
0.0
140
0.0
141
0.0
142
1.0
143
1.0
 70
  1712
 72
     0
 73
     0
 74
     0
  7

 75
     0
147
1.0
148
0.0
149
0.0
100
AcDbLayout
  1
Model
 70
     1
 71
     0
 10
0.0
 20
0.0
 11
600.0
 21
841.0
 12
0.0
 22
0.0
 32
0.0
 14
0.0
 24
0.0
 34
0.0
 15
600.0
 25
841.0
 35
0.0
146
0.0
 13
0.0
 23
0.0
 33
0.0
 16
1.0
 26
0.0
 36
0.0
 17
0.0
 27
1.0
 37
0.0
 76
     0
330
1F
331
29
  0
MLINESTYLE
  5
18
102
{ACAD_REACTORS
330
17
102
}
330
17
100
AcDbMlineStyle
  2
Standard
 70
     0
  3

 62
   256
 51
90.0
 52
90.0
 71
     2
 49
0.5
 62
   256
  6
BYLAYER
 49
-0.5
 62
   256
  6
BYLAYER
  0
ACDBPLACEHOLDER
  5
F
102
{ACAD_REACTORS
330
E
102
}
330
E
  0
ENDSEC
  0
EOF
