<?xml version="1.0" encoding="UTF-8" standalone="no"?>
<!-- Created with Inkscape (http://www.inkscape.org/) -->

<svg
   xmlns:dc="http://purl.org/dc/elements/1.1/"
   xmlns:cc="http://creativecommons.org/ns#"
   xmlns:rdf="http://www.w3.org/1999/02/22-rdf-syntax-ns#"
   xmlns:svg="http://www.w3.org/2000/svg"
   xmlns="http://www.w3.org/2000/svg"
   version="1.1"
   width="744.09448"
   height="1052.3622"
   id="svg2">
  <defs
     id="defs4" />
  <metadata
     id="metadata7">
    <rdf:RDF>
      <cc:Work
         rdf:about="">
        <dc:format>image/svg+xml</dc:format>
        <dc:type
           rdf:resource="http://purl.org/dc/dcmitype/StillImage" />
        <dc:title></dc:title>
      </cc:Work>
    </rdf:RDF>
  </metadata>
  <g
     id="layer1">
    <path
       d="m 65.5,1046.3622 c -0.33992,-0.55 -3.93992,-1 -8,-1 -4.06008,0 -7.66008,-0.45 -8,-1 -0.33992,-0.55 -1.68992,-1 -3,-1 -1.310081,0 -2.660081,-0.45 -3,-1 -0.339919,-0.55 -1.689919,-1 -3,-1 -1.310081,0 -2.660081,-0.45 -3,-1 -0.339919,-0.55 -1.401762,-1 -2.359652,-1 -3.790491,0 -7.124531,-2.4265 -7.132546,-5.191 -0.0043,-1.48 0.442198,-2.9691 0.992198,-3.309 0.55,-0.3399 1.014312,-1.604 1.031803,-2.809 0.01749,-1.2051 0.681173,-3.049 1.474847,-4.0978 1.308923,-1.7295 1.202401,-2.0315 -1.14611,-3.25 -1.424035,-0.7387 -3.199028,-1.3432 -3.944431,-1.3432 -0.745402,0 -2.957651,-0.9 -4.916109,-2 -1.958458,-1.1 -4.096205,-2 -4.750548,-2 -0.654343,0 -3.332705,-1.0125 -5.951916,-2.25 l -4.762201,-2.25 -0.01767,-5.75 L 6,999.36218 l 5.469584,0 c 3.615972,0 6.676329,0.67782 9.030416,2.00002 1.958458,1.1 4.208458,2 5,2 0.791542,0 2.959284,0.8538 4.817206,1.8973 5.872157,3.2982 6.95025,3.0923 9.432794,-1.8012 1.2375,-2.4393 2.25,-4.54356 2.25,-4.67615 0,-0.54566 -10.491442,-5.41997 -11.665928,-5.41997 -0.700282,0 -2.875614,-0.9 -4.834072,-2 -1.958458,-1.1 -4.368704,-2 -5.356102,-2 -4.601821,0 -8.263535,-9.48036 -4.943898,-12.8 1.448899,-1.4489 10.429898,-1.60786 11.3,-0.2 0.339919,0.55 1.477789,1 2.528601,1 1.050811,0 3.512941,0.9 5.471399,2 1.958458,1.1 4.153008,2 4.876778,2 0.72377,0 2.763132,0.72195 4.531914,1.60434 1.768783,0.88238 3.300418,1.44488 3.403638,1.25 0.10322,-0.19489 0.75017,-1.36073 1.43767,-2.59077 0.6875,-1.23004 1.25,-2.82782 1.25,-3.55064 0,-0.72281 0.5625,-2.5254 1.25,-4.00576 1.09595,-2.35987 1.8281,-2.69253 5.94098,-2.69937 2.58004,-0.004 4.9691,0.4422 5.30902,0.9922 0.33992,0.55 1.39902,1 2.35355,1 2.48976,0 18.90565,8.41258 22.01956,11.28426 1.44479,1.33241 3.42114,2.70199 4.3919,3.04352 0.97075,0.34153 2.16051,1.645 2.6439,2.89659 0.48339,1.2516 2.05164,3.36657 3.48499,4.69994 1.43335,1.33338 2.6061,3.44432 2.6061,4.69099 0,1.24662 0.45,2.54482 1,2.88472 0.55,0.3399 1,3.8967 1,7.904 0,7.8719 1.48334,10.596 5.76972,10.596 1.16174,0 2.39036,0.45 2.73028,1 0.33992,0.55 1.68992,1 3,1 1.31008,0 2.66008,0.45 3,1 0.33992,0.55 2.13992,1 4,1 1.86008,0 3.66008,0.45 4,1 0.33992,0.55 1.68992,1 3,1 1.31008,0 2.66008,0.45 3,1 0.33992,0.55 2.13992,1 4,1 1.86008,0 3.66008,0.45 4,1 0.33992,0.55 2.58992,1 5,1 2.41008,0 4.66008,0.45 5,1 0.33992,0.55 2.97648,1 5.85902,1 2.88254,0 5.71309,0.4721 6.29011,1.0491 0.59316,0.5932 4.04556,0.9191 7.94351,0.75 6.77103,-0.2938 6.90348,-0.352 7.40318,-3.2558 0.39578,-2.2998 1.61897,-3.557 5.50649,-5.6594 2.74873,-1.4865 5.98363,-2.7435 7.18867,-2.7933 1.20504,-0.05 2.4691,-0.5406 2.80902,-1.0906 0.33992,-0.55 2.52648,-1 4.85902,-1 2.33254,0 4.66848,-0.4263 5.19098,-0.9472 0.5225,-0.521 3.87048,-1.0835 7.43996,-1.25 5.59534,-0.2611 6.53322,-0.5785 6.80383,-2.3028 1.01084,-6.4411 10.6604,-19.48292 15.95621,-21.56564 2.29842,-0.90392 3.08031,-4.30318 1.25,-5.43438 -0.55,-0.33992 -1,-2.36492 -1,-4.5 0,-2.13508 0.45,-4.16008 1,-4.5 0.55,-0.33992 1,-1.61698 1,-2.83791 0,-2.24095 10.16239,-12.87331 14.73643,-15.41793 1.33786,-0.74427 5.99659,-1.24416 11.59501,-1.24416 8.01254,0 9.61272,0.28081 11.12549,1.9524 2.66188,2.94135 6.54307,11.07798 6.54307,13.71708 0,2.05227 -0.47757,2.33052 -4,2.33052 -2.44887,0 -4,-0.46627 -4,-1.20239 0,-0.66132 -1.41481,-2.66211 -3.14402,-4.4462 -2.61794,-2.70103 -3.66372,-3.14785 -6.25,-2.67034 -5.17095,0.95471 -15.77294,12.62173 -14.03091,15.44039 0.29863,0.4832 2.96485,0.87854 5.92493,0.87854 2.96008,0 5.66008,0.45 6,1 0.33992,0.55 1.71648,1 3.05902,1 2.30587,0 2.44055,0.31827 2.43318,5.75 -0.007,5.26272 -0.23589,5.85592 -2.69937,7.00002 -1.48036,0.6875 -4.55771,1.25 -6.83856,1.25 -4.3253,0 -9.3693,1.9877 -11.47149,4.5207 -0.67522,0.8136 -1.79026,1.4793 -2.47786,1.4793 -0.68761,0 -3.22001,2.1375 -5.62756,4.75 l -4.37736,4.75 6.5,0.3028 c 3.575,0.1665 6.9275,0.729 7.45,1.25 0.5225,0.5209 3.75844,0.9472 7.19098,0.9472 3.43254,0 6.5191,0.45 6.85902,1 0.33992,0.55 2.13992,1 4,1 1.86008,0 3.66008,0.45 4,1 0.33992,0.55 1.87234,1 3.40538,1 3.73895,0 9.07141,2.763 9.95803,5.1598 0.59501,1.6084 1.0807,1.1099 2.83687,-2.9121 1.16543,-2.669 2.83463,-5.4468 3.70934,-6.1727 0.87471,-0.726 1.59038,-1.8701 1.59038,-2.5425 0,-0.6724 0.9,-2.037 2,-3.0325 1.1,-0.9955 2,-2.3311 2,-2.9679 0,-0.6369 1.35,-2.4513 3,-4.0321 1.65,-1.5808 3,-3.3694 3,-3.9747 0,-0.6053 2.25,-3.3167 5,-6.02532 2.75,-2.70865 5,-5.40167 5,-5.98449 0,-0.58281 3.7219,-4.76223 8.27089,-9.28759 8.0197,-7.97804 8.4145,-8.22792 13,-8.22792 l 4.72911,0 0,4.84501 c 0,3.57502 -0.52425,5.31945 -2,6.65499 -1.1,0.99549 -2,2.3148 -2,2.93181 0,0.617 -3.15,4.24769 -7,8.06819 -3.85,3.82052 -7,7.42962 -7,8.02022 0,0.5906 -1.8,2.8315 -4,4.9798 -2.2,2.1482 -4,4.4054 -4,5.0158 0,0.6105 -1.35,2.4034 -3,3.9842 -1.65,1.5808 -3,3.317 -3,3.8583 0,0.5413 -0.71642,1.7758 -1.59205,2.7434 -1.47387,1.6286 -1.44157,1.7198 0.43524,1.229 1.115,-0.2915 2.80117,-1.3852 3.74703,-2.4304 0.94587,-1.0452 2.23368,-1.9003 2.86182,-1.9003 0.62814,0 2.89972,-1.8 5.04796,-4 2.14824,-2.2 4.43447,-4 5.0805,-4 0.64604,0 1.7167,-0.6532 2.37926,-1.4515 2.54973,-3.0723 11.34179,-6.5485 16.56227,-6.5485 6.79179,0 9.47797,2.6231 9.47797,9.2554 0,2.5446 -0.45,4.9047 -1,5.2446 -0.55,0.3399 -1,1.3449 -1,2.2333 0,1.3261 0.41446,1.2259 2.31445,-0.559 1.27295,-1.1959 2.7782,-2.1743 3.34501,-2.1743 0.56681,0 1.84505,-0.9 2.84054,-2 0.99549,-1.1 2.33679,-2 2.98067,-2 0.64389,0 2.2385,-1.1366 3.54358,-2.5258 2.72348,-2.899 7.4608,-5.4742 10.07037,-5.4742 0.98304,0 2.06546,-0.45 2.40538,-1 0.33992,-0.55 3.21304,-1 6.3847,-1 7.56945,0 10.1153,2.3881 10.1153,9.4887 l 0,4.8599 2.31445,-2.1743 c 1.27295,-1.1959 2.86207,-2.1743 3.53139,-2.1743 0.66931,0 1.50103,-0.7875 1.84826,-1.75 0.34723,-0.9625 2.6407,-3.9298 5.0966,-6.594 l 4.46526,-4.844 -2.37798,-1.1798 c -1.92796,-0.9566 -2.43626,-2.089 -2.68594,-5.98376 -0.43342,-6.76067 0.64701,-7.64846 9.30796,-7.64846 7.55126,0 8.57415,-0.49875 10.98608,-5.35665 0.887,-1.78651 2.09003,-2.19264 7.22593,-2.43943 l 6.16177,-0.29608 0.31311,3.79608 0.31311,3.79608 13.5,0.5468 c 17.51316,0.70935 18,0.89585 18,6.89552 0,3.62935 -0.53066,5.2076 -2.31445,6.8834 -2.43523,2.2877 -9.02765,3.0478 -10.18555,1.1743 -0.33992,-0.55 -3.73425,-1 -7.54297,-1 l -6.92493,0 2.08492,4 c 1.55104,2.9757 2.69923,4 4.48395,4 2.25205,0 2.39903,0.3499 2.39903,5.7121 0,5.3444 -0.27367,6.0033 -4.25,10.2332 -2.3375,2.4865 -3.096,3.5161 -1.68555,2.2878 1.41045,-1.2282 3.01376,-2.2331 3.56291,-2.2331 0.54915,0 2.29184,-1.35 3.87264,-3 1.5808,-1.65 3.38655,-3 4.01278,-3 0.62622,0 2.19505,-1.1246 3.48627,-2.499 2.5776,-2.7437 15.52232,-9.501 18.20079,-9.501 0.92517,0 1.96024,-0.45 2.30016,-1 0.80384,-1.3007 8.19616,-1.3007 9,0 0.33992,0.55 1.62648,1 2.85902,1 3.66693,0 4.64098,1.9309 4.64098,9.2 0,7.3692 1.10662,8.5496 4.5,4.8 0.99549,-1.1 2.33104,-2 2.9679,-2 0.63685,0 2.4513,-1.35 4.0321,-3 2.5481,-2.6597 3.53368,-3 8.68709,-3 l 5.81291,0 0,4.8038 c 0,4.1211 -0.46866,5.2581 -3.29761,8 -1.81368,1.7579 -3.76894,3.1962 -4.34501,3.1962 -0.57607,0 -1.86189,0.9 -2.85738,2 -0.99549,1.1 -2.34549,2 -3,2 -0.65451,0 -2.00451,0.9 -3,2 -0.99549,1.1 -2.36013,2 -3.03254,2 -0.67242,0 -1.76466,0.6532 -2.42722,1.4515 -0.66256,0.7983 -3.50602,2.5983 -6.31879,4 -4.24648,2.1161 -6.52293,2.5485 -13.41779,2.5485 -6.97718,0 -8.30366,-0.258 -8.30366,-1.615 0,-1.4758 -0.21805,-1.4722 -2.52824,0.042 -1.92254,1.2597 -4.37192,1.5867 -10.2239,1.365 -6.69968,-0.2538 -7.83287,-0.5676 -8.75573,-2.4247 l -1.06006,-2.1332 -4.24288,2.3832 c -3.5421,1.9896 -5.64233,2.3832 -12.71603,2.3832 l -8.47316,0 0,-6.5 c 0,-6.5548 -0.71737,-7.7504 -3,-5 -0.68469,0.825 -1.80969,1.5 -2.5,1.5 -0.69031,0 -1.79874,0.655 -2.46318,1.4556 -0.66445,0.8006 -4.43603,3.0506 -8.38131,5 -6.21808,3.0724 -8.13741,3.5444 -14.41437,3.5444 l -7.24114,0 0,-3.5322 0,-3.5321 -4.53548,2.5321 c -2.49452,1.3927 -5.32952,2.5322 -6.3,2.5322 -0.97049,0 -2.23169,0.4672 -2.80268,1.0381 -0.61941,0.6195 -5.03181,0.922 -10.93903,0.75 -9.69671,-0.2822 -9.92799,-0.3448 -11.2164,-3.0381 -1.56678,-3.2752 -2.96777,-3.4116 -7.70641,-0.75 -1.95846,1.1 -4.42059,2 -5.4714,2 -1.05081,0 -2.18868,0.45 -2.5286,1 -0.3501,0.5665 -5.28561,1 -11.3847,1 -9.96131,0 -10.92931,-0.1731 -12.94099,-2.3145 -1.19587,-1.2729 -2.1812,-2.9604 -2.18962,-3.75 -0.0122,-1.1448 -0.18321,-1.1708 -0.84439,-0.1283 -0.45599,0.719 -3.00036,2.4065 -5.65416,3.75 -3.77443,1.9109 -6.37778,2.4428 -11.95562,2.4428 -7.65675,0 -9.53052,-0.9302 -9.53052,-4.7314 0,-3.3582 -2.57945,-3.8641 -7.1801,-1.4085 -2.20489,1.177 -4.83982,2.1399 -5.85538,2.1399 -1.01557,0 -2.1246,0.45 -2.46452,1 -0.33992,0.55 -2.13992,1 -4,1 -1.86008,0 -3.66008,0.45 -4,1 -0.92766,1.501 -25.01894,1.284 -27.76357,-0.25 -5.38508,-3.0099 -10.73643,-9.6141 -10.73643,-13.25 0,-0.656 -0.70796,-2.6119 -1.57324,-4.3464 -1.54483,-3.0967 -4.6472,-4.224 -5.92676,-2.1536 -0.33992,0.55 -2.58992,1 -5,1 -2.41008,0 -4.66008,0.45 -5,1 -0.33992,0.55 -1.42234,1 -2.40538,1 -2.11592,0 -7.79135,2.7003 -8.6727,4.1263 -0.33981,0.5498 0.10124,1.7943 0.98012,2.7654 3.27213,3.6157 1.43708,9.1083 -3.04302,9.1083 -1.23254,0 -2.5191,0.45 -2.85902,1 -0.82625,1.3369 -30.17375,1.3369 -31,0 -0.33992,-0.55 -3.93992,-1 -8,-1 -4.06008,0 -7.66008,-0.45 -8,-1 -0.33992,-0.55 -3.03992,-1 -6,-1 -2.96008,0 -5.66008,-0.45 -6,-1 -0.33992,-0.55 -2.13992,-1 -4,-1 -1.86008,0 -3.66008,-0.45 -4,-1 -0.33992,-0.55 -2.58992,-1 -5,-1 -2.41008,0 -4.66008,-0.45 -5,-1 -0.33992,-0.55 -1.68992,-1 -3,-1 -1.31008,0 -2.66008,-0.45 -3,-1 -1.0892,-1.7624 -4.08246,-1.0734 -6.49544,1.4951 -3.74923,3.9909 -11.77554,7.5049 -17.14189,7.5049 -2.60955,0 -5.02275,0.45 -5.36267,1 -0.33992,0.55 -1.46492,1 -2.5,1 -1.03508,0 -2.16008,-0.45 -2.5,-1 z m 301.95,-3.1213 c 0.5225,-0.4833 1.69679,-0.8787 2.60954,-0.8787 0.91274,0 4.39277,-1.4097 7.73341,-3.1326 7.1732,-3.6995 9.20705,-3.3458 9.20705,1.6012 0,3.5066 0.0309,3.5314 4.39845,3.5314 2.95316,0 6.27246,-0.9858 10.10155,-3 3.1367,-1.65 6.31656,-3 7.06636,-3 0.7498,0 1.84494,-0.9 2.43364,-2 0.5887,-1.1 1.96866,-2 3.06657,-2 1.09791,0 2.25603,-0.6771 2.57361,-1.5047 0.76239,-1.9868 6.93597,-4.8719 8.85172,-4.1368 1.69408,0.6501 2.04412,4.1922 0.5081,5.1415 -0.55,0.3399 -1,2.8415 -1,5.559 l 0,4.941 5.35954,0 c 4.04612,0 6.848,-0.7677 11.43341,-3.1326 6.3771,-3.2889 9.20705,-3.2686 9.20705,0.066 0,4.4222 7.68253,4.8945 14.78042,0.9087 4.23432,-2.3778 6.27892,-2.3312 6.92983,0.1579 0.44084,1.6858 1.36402,2 5.87596,2 3.49935,0 6.586,-0.6926 8.91379,-2 1.95846,-1.1 4.20631,-2 4.99523,-2 0.78892,0 1.91607,-0.9 2.50477,-2 0.5887,-1.1 1.9387,-2 3,-2 1.0613,0 2.4113,-0.9 3,-2 0.5887,-1.1 1.9387,-2 3,-2 1.0613,0 2.4113,-0.9 3,-2 0.5887,-1.1 1.81741,-2 2.73046,-2 2.49229,0 7.26954,-5.0517 7.26954,-7.6871 0,-1.9729 -0.51018,-2.3129 -3.47006,-2.3129 -2.69607,0 -3.96479,0.6691 -5.68806,3 -1.2199,1.65 -3.04749,3 -4.06132,3 -1.01383,0 -2.10316,0.6771 -2.42074,1.5047 -0.31758,0.8276 -2.21595,2.2517 -4.21862,3.1647 -2.00266,0.9131 -4.61356,2.5267 -5.80199,3.5858 -1.18843,1.0592 -2.98843,1.768 -4,1.5751 -3.05778,-0.5831 -2.72621,-4.1549 0.66629,-7.1776 2.86477,-2.5526 3.06941,-3.172 2.79289,-8.4535 -0.28858,-5.5119 -0.39697,-5.7103 -3.29839,-6.0377 -1.65,-0.1862 -3.58157,-0.8196 -4.29238,-1.4076 -0.92313,-0.7637 -1.62314,-0.7384 -2.45,0.089 -0.63669,0.6367 -1.92192,1.1576 -2.85607,1.1576 -0.93415,0 -4.26485,1.35 -7.40155,3 -3.1367,1.65 -6.31892,3 -7.07161,3 -0.75268,0 -2.36661,1.35 -3.58651,3 -1.2199,1.65 -2.95493,3 -3.85562,3 -2.91615,0 -6.17062,4.4172 -5.42964,7.3696 0.75227,2.9972 -1.41802,3.7072 -3.53502,1.1564 -1.05926,-1.2763 -1.67092,-1.1325 -4.56162,1.0723 -2.18399,1.6658 -4.3073,2.4348 -6.1406,2.224 -4.76091,-0.5476 -3.99834,-3.2993 2.60977,-9.4172 5.13016,-4.7496 6.07085,-6.1462 6.07085,-9.0128 0,-2.9529 -0.32424,-3.3923 -2.50297,-3.3923 -1.96465,0 -2.87568,-0.8603 -4.2359,-4 -1.50895,-3.483 -2.15027,-4 -4.96185,-4 -2.20546,0 -3.56818,0.6339 -4.29928,2 -0.5887,1.1 -1.61703,2.0079 -2.28518,2.0176 -0.66815,0.01 -2.31249,2.3723 -3.65409,5.25 -3.2679,7.0098 -9.38866,12.7324 -13.61833,12.7324 -0.73095,0 -1.98343,0.9343 -2.78329,2.0763 -1.99361,2.8463 -7.0294,2.3348 -7.46979,-0.7587 -0.19876,-1.3961 0.43168,-2.5796 1.75,-3.2851 1.13337,-0.6066 2.06068,-1.9024 2.06068,-2.8796 0,-0.9773 1.35,-2.7749 3,-3.9948 1.65,-1.2199 3,-2.9489 3,-3.8421 0,-0.8933 1.8,-3.1649 4,-5.048 2.2,-1.8831 4,-4.1409 4,-5.0172 0,-0.8763 0.74474,-2.4163 1.65499,-3.4221 1.48224,-1.6378 3.46685,-1.8287 19.01357,-1.8287 11.81184,0 17.97544,0.3852 19.28907,1.2056 1.58998,0.9929 2.29313,0.8774 3.98643,-0.655 2.76694,-2.50404 2.66934,-6.09386 -0.19406,-7.13719 -1.2375,-0.4509 -8.325,-1.06589 -15.75,-1.36663 l -13.5,-0.5468 -0.31374,-3.80657 c -0.30728,-3.72826 -0.38956,-3.80026 -4,-3.5 -2.88864,0.24024 -3.75244,0.77082 -3.99213,2.45214 -0.56734,3.9798 -3.2314,5.24305 -11.72197,5.55837 l -7.97216,0.29606 0,3.5 c 0,2.89591 0.3989,3.55654 2.31115,3.82752 4.93133,0.699 3.5718,6.1478 -2.9799,11.9432 -2.03367,1.7989 -3.84015,4.2739 -4.01441,5.5 -0.20552,1.446 -1.12885,2.3444 -2.62799,2.5568 -1.27113,0.1802 -2.55759,0.9698 -2.8588,1.7548 -0.73878,1.9252 -6.94331,4.7801 -8.82195,4.0592 -1.69556,-0.6507 -2.0879,-6.1652 -0.5081,-7.1415 1.54513,-0.955 1.18334,-4.64 -0.65499,-6.6713 -1.77574,-1.9622 -7.7959,-2.5262 -8.84501,-0.8287 -0.33992,0.55 -1.68992,1 -3,1 -1.31008,0 -2.66008,0.45 -3,1 -0.33992,0.55 -1.478,1 -2.52908,1 -1.05107,0 -2.90914,1.35 -4.12904,3 -1.2199,1.65 -3.01754,3 -3.99475,3 -0.97722,0 -2.25843,0.9 -2.84713,2 -0.5887,1.1 -1.9387,2 -3,2 -1.0613,0 -2.4113,0.9 -3,2 -0.5887,1.1 -1.92902,2 -2.97848,2 -1.04946,0 -2.50161,0.7875 -3.22699,1.75 -3.044,4.039 -10.28352,5.7452 -11.45243,2.6991 -0.34314,-0.8942 0.41112,-2.662 1.78139,-4.1751 1.94769,-2.1507 1.62667,-2.0348 -1.77909,0.6424 -4.39863,3.4576 -7.5924,3.7499 -8.17057,0.7477 -0.37895,-1.9677 2.42335,-5.6641 4.29407,-5.6641 0.63685,0 2.46855,-1.368 4.07043,-3.04 3.18345,-3.3228 6.71796,-3.631 7.28911,-0.6356 0.19133,1.0034 -0.43632,2.6909 -1.39477,3.75 -2.1306,2.3543 -0.79376,2.5623 1.73859,0.2706 1.00581,-0.9103 1.82874,-2.4587 1.82874,-3.441 0,-0.9823 0.45,-2.0641 1,-2.404 1.54513,-0.955 1.18334,-4.64 -0.65499,-6.6713 -2.16166,-2.3886 -6.40674,-2.3215 -10.84501,0.1713 -1.95846,1.1 -4.20631,2 -4.99523,2 -0.78892,0 -1.91607,0.9 -2.50477,2 -0.5887,1.1 -1.91947,2 -2.95726,2 -1.03779,0 -3.42763,1.8 -5.31074,4 -1.88312,2.2 -4.18231,4 -5.10931,4 -0.927,0 -1.93997,0.6632 -2.25105,1.4739 -0.76644,1.9973 -10.97242,6.8933 -12.85977,6.169 C 293.68034,1033.686 293,1032.805 293,1032.0472 c 0,-2.2323 2.92636,-7.4428 4.52457,-8.0561 0.81149,-0.3114 1.47543,-1.3956 1.47543,-2.4095 0,-1.0138 1.35,-2.8414 3,-4.0613 1.65,-1.2199 3,-2.9489 3,-3.8421 0,-0.8933 1.8,-3.1649 4,-5.048 2.2,-1.8831 4,-4.0718 4,-4.8636 0,-0.7919 3.15,-4.41134 7,-8.04323 3.85,-3.6319 7,-7.43311 7,-8.44713 0,-1.01403 0.9,-2.32536 2,-2.91406 2.88496,-1.54398 2.71572,-6 -0.22788,-6 -2.47279,0 -17.77212,14.48294 -17.77212,16.82378 0,0.75388 -2.25,3.39364 -5,5.86614 -2.75,2.4725 -5,5.2691 -5,6.2147 0,0.9456 -1.35,2.7174 -3,3.9373 -1.65,1.2199 -3,3.0886 -3,4.1528 0,1.0642 -0.9,2.4166 -2,3.0053 -1.1,0.5887 -2,1.9387 -2,3 0,1.0613 -0.9,2.4113 -2,3 -1.1,0.5887 -2,1.6838 -2,2.4336 0,0.7498 -1.37026,3.9682 -3.04503,7.152 -4.26112,8.1005 -3.80594,9.8359 2.67875,10.2126 3.73874,0.2172 6.12463,-0.2583 8.78042,-1.75 2.00568,-1.1265 4.29217,-2.0482 5.08109,-2.0482 0.78892,0 1.93068,-0.9273 2.53725,-2.0607 1.39829,-2.6127 5.30231,-2.236 5.81054,0.5607 0.8153,4.4864 2.9813,5.5 11.75295,5.5 4.5573,0 8.56411,-0.45 8.90403,-1 0.33992,-0.55 1.44578,-1 2.45747,-1 1.01169,0 4.40583,-1.35 7.54253,-3 3.1367,-1.65 6.26265,-3 6.94656,-3 1.66862,0 4.26123,3.0275 4.70988,5.5 0.26699,1.4713 1.41778,2.1599 4.35324,2.6048 4.54695,0.6892 10.53429,0.074 11.94032,-1.2261 z m -10.11426,-6.4462 c -0.86192,-2.2461 1.44473,-6.084 7.01567,-11.673 5.63216,-5.6504 7.99978,-5.8604 8.46989,-0.7513 0.17671,1.9205 0.73921,3.9193 1.25,4.4418 2.65536,2.7162 -1.93247,7.55 -7.16592,7.55 -0.98304,0 -2.06546,0.45 -2.40538,1 -0.99967,1.6175 -6.49278,1.1824 -7.16426,-0.5675 z m 10.79995,-4.6825 c 1.90371,-1.0065 2.2669,-1.8345 1.86431,-4.25 l -0.5,-3 -3.87995,4.25 c -3.32707,3.6444 -3.59273,4.25 -1.86431,4.25 1.10861,0 3.07958,-0.5625 4.37995,-1.25 z M 443,1035.4846 c 0,-0.4826 0.63494,-1.4045 1.41097,-2.0485 1.56708,-1.3006 3.16989,0.1772 2.08903,1.9261 -0.76156,1.2322 -3.5,1.328 -3.5,0.1224 z m 16.66667,0.2109 c -1.47554,-1.4755 -0.46632,-3.604 3.4961,-7.3734 2.28952,-2.1779 4.739,-3.9599 5.44329,-3.9599 0.70429,0 1.93497,-0.9344 2.73483,-2.0763 1.81337,-2.589 6.96699,-2.3464 7.47883,0.352 0.36628,1.931 -5.16038,7.7243 -7.36877,7.7243 -0.73565,0 -1.93104,0.7875 -2.65642,1.75 -2.45884,3.2626 -7.47817,5.233 -9.12786,3.5833 z m 7.83333,-6.3333 c 0.99549,-1.1 1.58498,-2 1.30998,-2 -0.275,0 -1.31449,0.9 -2.30998,2 -0.99549,1.1 -1.58498,2 -1.30998,2 0.275,0 1.31449,-0.9 2.30998,-2 z m 6,-4 c 0.99549,-1.1 1.58498,-2 1.30998,-2 -0.275,0 -1.31449,0.9 -2.30998,2 -0.99549,1.1 -1.58498,2 -1.30998,2 0.275,0 1.31449,-0.9 2.30998,-2 z m -294,18 c 0.33992,-0.55 1.91492,-1 3.5,-1 3.80488,0 4.92981,-1.9707 2.17069,-3.8027 -2.64441,-1.7558 -2.84346,-5.7823 -0.42069,-8.5102 1.68441,-1.8966 1.67504,-1.9304 -0.25,-0.9018 -1.1,0.5878 -2.75706,1.3007 -3.68237,1.5843 -1.0338,0.3169 -1.80481,1.7907 -2,3.823 l -0.31763,3.3074 -9.91184,0.2881 c -5.91477,0.172 -10.33048,-0.1304 -10.95,-0.75 -0.57099,-0.5709 -3.3966,-1.0381 -6.27914,-1.0381 -2.88254,0 -5.5191,-0.45 -5.85902,-1 -0.33992,-0.55 -2.58992,-1 -5,-1 -2.41008,0 -4.66008,-0.45 -5,-1 -0.33992,-0.55 -2.13992,-1 -4,-1 -1.86008,0 -3.66008,-0.45 -4,-1 -0.33992,-0.55 -1.68992,-1 -3,-1 -1.31008,0 -2.66008,-0.45 -3,-1 -0.33992,-0.55 -2.13992,-1 -4,-1 -1.86008,0 -3.66008,-0.45 -4,-1 -0.33992,-0.55 -1.68992,-1 -3,-1 -1.31008,0 -2.66008,-0.45 -3,-1 -0.33992,-0.55 -1.56854,-1 -2.73028,-1 -4.28638,0 -5.76972,-2.7241 -5.76972,-10.596 0,-4.0073 -0.45,-7.5641 -1,-7.904 -0.55,-0.3399 -1,-1.9088 -1,-3.4865 0,-1.9409 -0.88917,-3.56397 -2.75,-5.01973 -1.5125,-1.18326 -2.99141,-3.11201 -3.28648,-4.28611 -0.29506,-1.1741 -1.4971,-2.37615 -2.6712,-2.67121 -1.1741,-0.29506 -3.10285,-1.77397 -4.28611,-3.28647 -1.18325,-1.5125 -2.73155,-2.75 -3.44065,-2.75 -0.7091,0 -4.7886,-1.8 -9.06556,-4 -4.27696,-2.2 -8.58756,-4 -9.57913,-4 -0.99156,0 -2.08095,-0.45 -2.42087,-1 -1.75447,-2.83878 -6.5,1.21005 -6.5,5.54573 0,0.63084 -0.70796,2.56613 -1.57324,4.30063 -1.88079,3.77014 -4.687556,4.09632 -9.92676,1.15364 -1.958458,-1.1 -4.208458,-2 -5,-2 -0.791542,0 -3.041542,-0.9 -5,-2 -1.958458,-1.1 -4.357145,-2 -5.330416,-2 -0.973271,0 -2.257683,-0.4881 -2.854249,-1.08467 -1.626284,-1.62628 -5.744113,-0.68171 -6.142772,1.40907 -0.470872,2.4695 2.608927,5.6756 5.452008,5.6756 1.273028,0 3.916971,0.9 5.875429,2 1.958458,1.1 4.13379,2 4.834072,2 0.700282,0 3.611594,1.16525 6.469584,2.58945 C 44.450578,995.26729 45,995.88092 45,998.75528 c 0,4.53032 -4.689695,13.60692 -7.030431,13.60692 -1.018344,0 -2.12965,-0.45 -2.469569,-1 -0.339919,-0.55 -1.477789,-1 -2.528601,-1 -1.050811,0 -3.512941,-0.9 -5.471399,-2 -1.958458,-1.1 -4.208458,-2 -5,-2 -0.791542,0 -3.041542,-0.9 -5,-2 -1.958458,-1.1 -4.672145,-2 -6.030416,-2 -2.031708,0 -2.466451,0.4876 -2.451916,2.75 0.01473,2.2934 0.808363,3.1236 4.779868,5 2.619211,1.2375 5.297573,2.25 5.951916,2.25 0.654343,0 2.79209,0.9 4.750548,2 1.958458,1.1 4.153008,2 4.876778,2 2.387602,0 7.623222,3.12 7.623222,4.5428 0,0.768 -0.827396,2.8725 -1.838659,4.6768 -3.837422,6.8464 -2.82804,10.7804 2.766073,10.7804 1.075004,0 2.232667,0.45 2.572586,1 0.339919,0.55 1.689919,1 3,1 1.310081,0 2.660081,0.45 3,1 0.339919,0.55 1.68992,1 3,1 1.31008,0 2.66008,0.45 3,1 0.36027,0.5829 5.99071,1 13.5,1 7.50929,0 13.13973,-0.4171 13.5,-1 0.33992,-0.55 1.49148,-1 2.55902,-1 1.06754,0 1.94098,-0.45 1.94098,-1 0,-0.55 0.88653,-1 1.97006,-1 1.08354,0 2.96816,-1.35 4.18806,-3 1.92332,-2.6015 2.84945,-3 6.97092,-3 2.61411,0 5.03104,0.45 5.37096,1 0.33992,0.55 1.68992,1 3,1 1.31008,0 2.66008,0.45 3,1 0.33992,0.55 2.58992,1 5,1 2.41008,0 4.66008,0.45 5,1 0.33992,0.55 2.13992,1 4,1 1.86008,0 3.66008,0.45 4,1 0.33992,0.55 3.03992,1 6,1 2.96008,0 5.66008,0.45 6,1 0.33992,0.55 3.93992,1 8,1 4.06008,0 7.66008,0.45 8,1 0.35592,0.5759 5.65738,1 12.5,1 6.84262,0 12.14408,-0.4241 12.5,-1 z m -120,-6 c -0.33992,-0.55 -2.13992,-1 -4,-1 -1.86008,0 -3.66008,-0.45 -4,-1 -0.33992,-0.55 -1.42234,-1 -2.40538,-1 -0.98304,0 -3.206481,-0.708 -4.940982,-1.5733 C 41.332244,1031.3814 41,1030.7525 41,1026.8194 c 0,-2.5428 0.843252,-5.8977 2,-7.9572 1.1,-1.9585 2,-4.2085 2,-5 0,-0.7916 0.9,-3.0416 2,-5 1.1,-1.9585 2,-4.2085 2,-5 0,-0.7916 0.9,-3.0416 2,-5.00002 1.1,-1.95846 2,-4.13379 2,-4.83407 0,-0.70028 1.16525,-3.6116 2.58945,-6.46959 2.96069,-5.94134 4.97347,-6.531 10.91055,-3.19634 1.95846,1.1 4.43131,2 5.49523,2 1.06392,0 2.41607,0.9 3.00477,2 0.5887,1.1 1.72028,2 2.51461,2 1.65316,0 12.19447,10.31402 14.16988,13.86432 2.22952,4.007 1.67196,15.0927 -1.02726,20.4243 -3.07035,6.0647 -4.51056,7.7114 -6.74449,7.7114 -1.01331,0 -2.32404,0.9 -2.91274,2 -0.61502,1.1492 -2.09382,2 -3.47617,2 -1.32319,0 -2.68391,0.45 -3.02383,1 -0.33992,0.55 -3.71492,1 -7.5,1 -3.78508,0 -7.16008,-0.45 -7.5,-1 z m 12,-3 c 0.33992,-0.55 1.56854,-1 2.73028,-1 1.16173,0 2.93827,-0.7476 3.94786,-1.6612 1.0096,-0.9137 2.82728,-2.1556 4.03929,-2.7599 5.47266,-2.7284 9.56557,-16.4028 6.53771,-21.8425 -1.79465,-3.2241 -11.98737,-13.73642 -13.31885,-13.73642 -0.61947,0 -1.9408,-0.9 -2.93629,-2 -0.99549,-1.1 -2.57109,-2 -3.50135,-2 -0.93026,0 -3.13856,-0.72195 -4.90734,-1.60434 -1.76878,-0.88238 -3.31961,-1.44488 -3.44627,-1.25 -0.12666,0.19489 -1.26249,2.60434 -2.52407,5.35434 -1.26158,2.75 -3.15614,6.8 -4.21015,9.00002 -1.05401,2.2 -1.91513,4.5842 -1.9136,5.2983 0.002,0.7141 -0.89722,3.1611 -1.99722,5.4378 -1.1,2.2768 -2,4.7163 -2,5.4213 0,0.705 -0.9,2.8841 -2,4.8426 -1.1,1.9584 -2,4.1892 -2,4.9572 0,1.5558 5.32238,4.5428 8.09462,4.5428 0.98304,0 2.06546,0.45 2.40538,1 0.33992,0.55 2.13992,1 4,1 1.86008,0 3.66008,0.45 4,1 0.33992,0.55 2.36492,1 4.5,1 2.13508,0 4.16008,-0.45 4.5,-1 z m -7.32569,-11.3145 C 62.97844,1021.7748 62,1020.2782 62,1019.722 c 0,-0.5561 -1.13662,-2.079 -2.52582,-3.3841 C 56.36206,1013.4142 54,1008.8278 54,1005.7085 c 0,-3.7069 3.24602,-2.8879 7.69846,1.9424 l 3.95319,4.2887 1.17417,-2.4881 c 0.6458,-1.3684 1.17418,-3.3268 1.17418,-4.352 0,-2.8494 6.0823,-1.9881 7.6012,1.0765 0.63075,1.2725 2.32851,3.5472 3.77281,5.0547 1.44429,1.5075 2.62599,3.209 2.62599,3.7812 0,0.5722 0.9,1.8548 2,2.8503 1.1,0.9955 2,2.6402 2,3.655 0,3.0651 -5.12387,2.3689 -8.5,-1.155 -1.5808,-1.65 -3.24133,-3 -3.69006,-3 -0.44874,0 -1.5957,1.8 -2.54881,4 -1.97927,4.5686 -3.94018,5.035 -7.08682,1.6855 z M 69,1016.8123 c 0,-0.7177 1.02548,-2.1251 2.27884,-3.1275 1.37934,-1.1032 2.13046,-2.6121 1.90293,-3.8226 C 72.63104,1006.932 71,1005.5463 71,1008.0085 c 0,2.7506 -2.86782,8.3537 -4.27563,8.3537 -0.62104,0 -2.72558,-1.4625 -4.67676,-3.25 l -3.54761,-3.25 3.10535,3.5 c 1.70794,1.925 3.40077,4.3382 3.76183,5.3626 0.53667,1.5227 0.9281,1.6372 2.14465,0.6276 0.8185,-0.6793 1.48817,-1.8223 1.48817,-2.5401 z m 10,-0.7951 c 0,-0.1898 -1.0125,-1.2023 -2.25,-2.25 l -2.25,-1.905 1.90499,2.25 c 1.79022,2.1144 2.59501,2.7052 2.59501,1.905 z m 172.5,27.345 c 0.33992,-0.55 2.13992,-1 4,-1 1.86008,0 3.66008,-0.45 4,-1 0.33992,-0.55 1.60398,-1.0143 2.80902,-1.0318 2.81683,-0.041 5.69098,-2.2269 5.69098,-4.3285 0,-1.7895 -2.50626,-2.2476 -3.5,-0.6397 -0.33992,0.55 -2.13992,1 -4,1 -1.86008,0 -3.66008,0.45 -4,1 -0.91441,1.4795 -21.04812,1.2677 -23.76357,-0.25 -5.49441,-3.071 -5.77576,-3.6597 -5.56941,-11.6528 0.10745,-4.1619 0.69646,-8.4739 1.30891,-9.5822 1.87937,-3.4009 8.29762,-9.515 9.9883,-9.515 0.8792,0 1.85332,-0.664 2.16471,-1.4754 0.87616,-2.2833 6.23872,-4.5246 10.82533,-4.5246 6.08688,0 9.52841,-1.89435 9.53793,-5.25002 0.006,-2.20516 -0.44788,-2.75 -2.2922,-2.75 -1.265,0 -2.7275,-0.42422 -3.25,-0.94272 -0.5225,-0.51849 -3.425,-1.08099 -6.45,-1.25 -5.4622,-0.30517 -5.50224,-0.33081 -5.82628,-3.7305 -0.17945,-1.88277 0.27055,-4.55427 1,-5.93667 2.08907,-3.95902 10.72487,-12.14011 12.81488,-12.14011 1.04135,0 2.17148,-0.45 2.5114,-1 1.18796,-1.92216 5.6794,-1.04164 7.68363,1.50632 1.08431,1.37848 2.94908,3.00856 4.14392,3.62241 1.79033,0.91977 1.95258,0.88348 0.92245,-0.20632 -0.6875,-0.72733 -1.25,-1.98448 -1.25,-2.79367 0,-3.63678 -3.08239,-5.12874 -10.59597,-5.12874 -4.0073,0 -7.56411,0.45 -7.90403,1 -0.33992,0.55 -1.39306,1 -2.34032,1 -2.76099,0 -13.15968,11.12512 -13.15968,14.079 0,1.38655 -0.52093,3.04193 -1.15762,3.67862 -0.87682,0.87682 -0.86276,1.51289 0.058,2.6223 0.69703,0.83988 1.08421,3.52026 0.90761,6.28339 -0.24953,3.90442 -0.68743,4.88515 -2.30796,5.16894 -2.36407,0.414 -11.5,9.03337 -11.5,10.84977 0,0.6914 -0.9,2.8595 -2,4.818 -1.1,1.9584 -2,4.4248 -2,5.4807 0,1.0559 -0.66293,2.2909 -1.47318,2.7443 -1.29758,0.7262 -1.29758,1.1629 0,3.664 0.81025,1.5618 1.47318,3.6616 1.47318,4.6663 0,1.0046 0.45,2.1048 1,2.4447 0.55,0.3399 1,1.4073 1,2.3719 -3e-5,2.1778 5.03199,7.1281 7.24567,7.1281 0.89995,0 1.91438,0.45 2.2543,1 0.34456,0.5575 4.99071,1 10.5,1 5.50929,0 10.15544,-0.4425 10.5,-1 z m 2,-9 c 0.33992,-0.55 1.90467,-1 3.47723,-1 1.57256,0 3.58929,-0.2802 4.48164,-0.6226 1.31956,-0.5064 1.1268,-0.8797 -1.03252,-2 -1.46023,-0.7576 -3.92697,-1.3774 -5.48164,-1.3774 -1.55467,0 -3.10479,-0.45 -3.44471,-1 -0.33992,-0.55 -3.03992,-1 -6,-1 -2.96008,0 -5.66008,-0.45 -6,-1 -0.33992,-0.55 -2.4056,-1 -4.5904,-1 -6.45531,0 -6.6303,4.4407 -0.32095,8.1447 3.27424,1.9221 17.84471,2.5811 18.91135,0.8553 z m 22.58179,0 c 1.66124,0 0.95723,-3.0507 -0.83179,-3.6044 -0.9625,-0.2979 -2.48684,-0.9309 -3.38742,-1.4068 -1.45498,-0.7688 -1.51855,-0.4778 -0.57052,2.6111 0.71669,2.3352 1.5272,3.2997 2.46921,2.9382 0.77127,-0.296 1.8155,-0.5381 2.32052,-0.5381 z m 65.41821,-7 c 0.99549,-1.1 1.58498,-2 1.30998,-2 -0.275,0 -1.31449,0.9 -2.30998,2 -0.99549,1.1 -1.58498,2 -1.30998,2 0.275,0 1.31449,-0.9 2.30998,-2 z m 63.62756,0.25 c 1.24387,-1.5861 1.2085,-1.6214 -0.37756,-0.3776 -1.66575,1.3064 -2.19548,2.1276 -1.37244,2.1276 0.20765,0 0.99515,-0.7875 1.75,-1.75 z m -215.6011,-1.0569 c -0.30789,-0.3079 -1.11479,-6e-4 -1.79313,0.6828 -0.98026,0.9876 -0.8654,1.1025 0.5598,0.5598 0.98622,-0.3755 1.54122,-0.9347 1.23333,-1.2426 z m 221.12133,-2.6673 c 4.02546,-2.0082 6.58613,-5.0616 9.44131,-11.2582 1.326,-2.8777 2.78992,-5.2402 3.25317,-5.25 0.46325,-0.01 1.98644,-0.9176 3.38486,-2.0176 l 2.54259,-2 -2.80612,0 c -2.90354,0 -6.4636,2.4521 -6.4636,4.452 0,0.6282 -1.8,2.8997 -4,5.048 -2.2,2.1482 -4,4.3556 -4,4.9053 0,0.5497 -1.43828,2.4834 -3.19617,4.2971 -3.4495,3.559 -2.84108,4.1606 1.84396,1.8234 z M 206,1023.3622 c 0,-0.55 -0.19844,-1 -0.44098,-1 -0.24254,0 -0.7191,0.45 -1.05902,1 -0.33992,0.55 -0.14148,1 0.44098,1 0.58246,0 1.05902,-0.45 1.05902,-1 z"
       id="path3184"
       style="fill:#000000" />
  </g>
</svg>
