<?xml version="1.0" encoding="UTF-8" standalone="no"?>
<!-- Created with Inkscape (http://www.inkscape.org/) -->

<svg
   xmlns:dc="http://purl.org/dc/elements/1.1/"
   xmlns:cc="http://creativecommons.org/ns#"
   xmlns:rdf="http://www.w3.org/1999/02/22-rdf-syntax-ns#"
   xmlns:svg="http://www.w3.org/2000/svg"
   xmlns="http://www.w3.org/2000/svg"
   version="1.1"
   width="744.09448"
   height="1052.3622"
   id="svg3271">
  <defs
     id="defs3273" />
  <metadata
     id="metadata3276">
    <rdf:RDF>
      <cc:Work
         rdf:about="">
        <dc:format>image/svg+xml</dc:format>
        <dc:type
           rdf:resource="http://purl.org/dc/dcmitype/StillImage" />
        <dc:title></dc:title>
      </cc:Work>
    </rdf:RDF>
  </metadata>
  <g
     id="layer1">
    <g
       transform="translate(1,-1)"
       id="g3344">
      <path
         d="m 57.785697,1047.369 c -7.706499,-0.5439 -22.310483,-4.7176 -29.480096,-8.4251 -2.932955,-1.5167 -3.877019,-4.1247 -2.193784,-6.0603 1.370249,-1.5757 3.5467,-9.4105 2.816908,-10.1403 -0.374204,-0.3742 -2.134469,-1.2247 -3.911699,-1.8899 -18.6444225,-6.9787 -20.139987,-7.9156 -20.5509156,-12.8734 -0.5750443,-6.9378 0.3306327,-8.54641 4.8118872,-8.54641 2.1748084,0 5.9912344,0.90001 8.4809484,2.00001 2.489713,1.1 6.563789,2.9 9.053502,4 6.443999,2.8471 9.103223,2.6162 10.947569,-0.9504 2.212691,-4.2788 1.979248,-4.8749 -2.72432,-6.95625 -7.073703,-3.13016 -14.123185,-5.95543 -16.45608,-6.59523 -2.822626,-0.77412 -7.29392,-6.05851 -7.29392,-8.62031 0,-2.69038 4.394959,-6.87782 7.218662,-6.87782 1.270265,0 4.778219,0.94715 7.795455,2.10478 3.017236,1.15764 7.227506,2.74907 9.356156,3.53652 2.12865,0.78745 5.169696,2.10369 6.757881,2.92497 2.800403,1.44815 2.920601,1.40929 3.980085,-1.28651 3.893045,-9.90567 4.823721,-11.27998 7.628764,-11.26521 7.795614,0.0411 28.483339,10.61923 36.556278,18.69217 7.712928,7.71293 9.719172,12.09089 10.612352,23.15769 l 0.59437,7.3644 7.5,2.3061 c 4.125,1.2683 9.975,3.0681 13,3.9996 12.73784,3.9224 30.58348,7.2865 43.00492,8.1068 l 7.50493,0.4956 1.1298,-2.9932 c 2.17238,-5.7553 16.42298,-11.2286 33.36035,-12.813 l 5.5,-0.5145 2.90576,-6.4391 c 2.09988,-4.6534 4.66525,-8.0851 9.25,-12.3739 6.47185,-6.05413 7.18208,-7.56918 5.245,-11.18865 -2.10829,-3.93938 1.37634,-11.65938 8.38342,-18.573 3.4187,-3.3731 7.48261,-6.60735 9.03092,-7.18723 1.5483,-0.57988 6.58571,-1.05433 11.19424,-1.05433 9.77751,0 11.44148,1.01633 16.08278,9.82315 3.24731,6.16173 2.63038,8.48451 -2.3867,8.98601 -2.5325,0.25315 -3.35763,-0.19981 -4.55413,-2.5 -0.8037,-1.54504 -2.52657,-3.80385 -3.82861,-5.01959 -2.17543,-2.03124 -2.67062,-2.10617 -6.10832,-0.92435 -4.2026,1.44479 -9.18517,5.78004 -11.30364,9.83512 -2.13034,4.07781 -1.8123,4.56428 3.33928,5.10763 6.11363,0.64482 10.42637,1.70456 12,2.94867 0.69279,0.54772 1.25,3.15343 1.25,5.84548 0,4.65189 -0.16745,4.94269 -3.96016,6.87759 -2.18442,1.1144 -5.91896,2.0203 -8.32856,2.0203 -4.51473,0 -10.95745,3.3647 -16.96128,8.858 -3.93,3.5958 -3.47086,4.8626 2,5.518 11.75991,1.4087 19.04937,2.5272 22.75,3.4909 2.2,0.5729 5.8,1.4334 8,1.9123 4.35771,0.9485 8.06123,2.6604 10.67042,4.9323 1.48728,1.295 1.80239,1.1987 2.87427,-0.8785 1.5508,-3.0054 11.06745,-17.0938 15.23431,-22.5529 5.31904,-6.96867 9.75631,-12.00554 19.27869,-21.88386 8.03843,-8.33889 9.45068,-9.39625 12.55,-9.39625 4.28004,0 5.89231,1.47654 5.89231,5.39625 0,3.68902 -3.42419,8.92243 -11.95719,18.27493 -3.59854,3.94413 -8.24115,9.34413 -10.3169,12.00003 -2.07574,2.6558 -5.04725,6.4038 -6.60335,8.3288 -3.65043,4.5158 -5.48304,8 -4.20788,8 1.29144,0 9.43161,-5.5074 11.08532,-7.5 1.74975,-2.1083 9.14427,-7.0327 15.06778,-10.0344 7.05382,-3.5744 11.307,-3.2908 15.64064,1.0428 3.62049,3.6205 3.90573,5.5951 1.77225,12.2682 -0.62212,1.9459 0.34338,1.5436 6.64573,-2.7692 4.05548,-2.7753 8.4986,-5.9376 9.8736,-7.0273 3.32861,-2.6381 12.67274,-5.9801 16.72011,-5.9801 4.868,0 9.44752,4.5221 10.19124,10.0636 l 0.58865,4.386 6.75,-6.9537 c 3.7125,-3.8245 6.75,-7.5672 6.75,-8.3171 0,-0.7498 -0.9,-2.5075 -2,-3.9059 -2.73766,-3.48041 -2.55583,-7.80799 0.45455,-10.81836 2.13984,-2.13985 3.35455,-2.45455 9.47432,-2.45455 6.77276,0 7.07382,-0.10452 8.5558,-2.97036 1.92605,-3.72456 4.32611,-5.02964 9.24959,-5.02964 4.58497,0 6.26574,1.39489 6.26574,5.2 l 0,2.8 12.03984,0 c 10.10677,0 12.67566,0.32438 16,2.02032 3.49976,1.78545 3.96016,2.43649 3.96016,5.6 0,2.76043 -0.8042,4.38389 -3.51392,7.09359 -2.94812,2.9481 -3.95446,3.3963 -6.25,2.7832 -5.20486,-1.39 -16.23608,-1.7389 -16.23608,-0.5134 0,2.2649 2.10357,5.0163 3.83518,5.0163 2.83185,0 4.16482,2.1012 4.16482,6.5651 0,2.6996 -0.72927,5.0923 -2.07258,6.8 -2.73036,3.4711 -0.63772,3.4057 3.68439,-0.1151 1.85671,-1.5125 4.84112,-3.9281 6.63202,-5.368 3.84981,-3.0953 13.89839,-8.275 20.21185,-10.4185 4.06882,-1.3814 4.95714,-1.3691 9.54633,0.1319 6.33041,2.0706 7.99799,4.3906 7.99799,11.1271 0,2.9886 0.45127,5.2775 1.04049,5.2775 1.17592,0 5.85878,-3.1599 10.74431,-7.25 2.45671,-2.0568 4.36003,-2.75 7.55,-2.75 2.34586,0 4.8052,0.54 5.4652,1.2 2.0776,2.0776 1.39361,7.4164 -1.37111,10.7021 -2.85718,3.3956 -23.19673,17.2799 -28.52243,19.4702 -4.49008,1.8466 -38.63081,1.4413 -41.732,-0.4954 -1.62859,-1.0171 -2.56721,-1.019 -4.78246,-0.01 -1.5159,0.6907 -6.48621,1.519 -11.04512,1.8407 -10.32179,0.7284 -11.34688,0.066 -11.34688,-7.3377 l 0,-5.3847 -5.19296,3.65 c -2.85612,2.0075 -7.91862,4.9026 -11.25,6.4336 -5.44252,2.5011 -6.8059,2.7257 -13.43825,2.2134 -6.06871,-0.4687 -7.46753,-0.9002 -7.86663,-2.4264 -0.61302,-2.3441 -1.41143,-2.3258 -6.25216,0.1438 -3.27889,1.6728 -5.89377,2 -15.9816,2 -11.89494,0 -12.07699,-0.034 -13.20035,-2.5 -1.42219,-3.1214 -1.72346,-3.1121 -8.10129,0.25 -4.93278,2.6003 -5.88753,2.7422 -17.53897,2.6065 -11.09142,-0.1292 -12.54901,-0.3566 -14.59294,-2.2768 l -2.27073,-2.1332 -5.40706,2.517 c -10.38961,4.8363 -22.90706,2.9437 -22.90706,-3.4635 0,-2.5046 -1.08094,-2.5095 -5.94685,-0.027 -8.01088,4.0868 -12.62275,5.1348 -25.16111,5.7173 -15.57999,0.7237 -18.98946,0.12 -23.78397,-4.2115 -3.3352,-3.0132 -4.93753,-5.7949 -8.19591,-14.2287 -0.90719,-2.3481 -5.21453,-3.1878 -6.41216,-1.25 -0.33992,0.55 -2.28533,1 -4.32313,1 -3.81255,0 -13.75287,3.176 -15.54295,4.9661 -0.67657,0.6765 -0.25954,1.8035 1.26983,3.4314 2.79291,2.973 2.4558,5.2494 -1.17884,7.9605 -2.39486,1.7863 -4.51858,2.1169 -15.5,2.4126 -16.8043,0.4525 -38.65972,-1.5771 -51.22491,-4.7571 -2.475,-0.6263 -6.525,-1.4934 -9,-1.9268 -2.475,-0.4333 -6.525,-1.5236 -9,-2.4228 -6.092017,-2.2132 -7.949138,-2.0835 -10.945284,0.7644 -6.909211,6.5673 -16.039304,8.6727 -32.554719,7.5071 z m 14.5,-13.2198 c 6.008942,-2.1535 12,-6.6097 12,-8.9258 0,-0.4553 -1.015966,-0.5729 -2.257702,-0.2613 -1.698714,0.4264 -3.109038,-0.3117 -5.696167,-2.9809 -1.891155,-1.9512 -3.751329,-3.5476 -4.133718,-3.5476 -0.38239,0 -1.415471,1.8 -2.295736,4 -1.967773,4.9179 -4.51976,5.2335 -7.790619,0.9632 -1.279332,-1.6702 -3.501156,-4.4827 -4.937387,-6.25 -8.240017,-10.1393 -6.424907,-17.54862 2.2289,-9.0984 3.904663,3.8128 5.882429,3.7955 5.882429,-0.051 0,-2.7492 2.219032,-4.8614 4.618328,-4.396 0.942924,0.1829 3.200092,2.3576 5.015929,4.8326 6.996872,9.5368 9.366881,13.1432 9.397546,14.3001 0.01749,0.6599 0.692492,0.3264 1.5,-0.7412 1.890671,-2.4997 1.919977,-11.799 0.0484,-15.3586 -2.342646,-4.4555 -14.769264,-15.20031 -17.579549,-15.20031 -0.594181,0 -2.863529,-0.90972 -5.042995,-2.0216 l -3.962664,-2.0216 -1.997497,4.5216 c -1.098624,2.48688 -2.95142,6.6591 -4.117326,9.27161 -1.165905,2.6125 -3.371379,8.125 -4.901052,12.25 -1.529674,4.125 -3.349361,8.8961 -4.043749,10.6025 -1.838239,4.5173 -0.778295,5.965 5.738318,7.8374 3.204471,0.9207 6.951311,2.0505 8.326311,2.5107 3.796495,1.2705 10.093994,1.1648 14,-0.235 z m 184.000003,-0.4329 c 3.6371,-1.0415 3.19689,-1.5304 -2.5,-2.7769 -4.1309,-0.9038 -14.03242,-2.4812 -19.75,-3.1463 -4.57553,-0.5322 -4.75,-0.4583 -4.75,2.012 0,4.242 3.95706,5.6792 14.5,5.2661 4.95,-0.194 10.575,-0.8036 12.5,-1.3549 z m 110.61596,-1.7243 c 0.30425,-0.7929 0.40263,-2.176 0.21861,-3.0735 -0.26551,-1.2951 -0.94084,-0.9975 -3.27166,1.4416 l -2.93709,3.0735 2.71847,0 c 1.49517,0 2.96741,-0.6487 3.27167,-1.4416 z m 44.19786,-8.5863 c 2.28078,-1.3905 4.25853,-4.0391 6.34426,-8.4962 1.66674,-3.5618 3.35201,-6.4759 3.74505,-6.4759 0.39303,0 1.58812,-0.6607 2.65574,-1.4682 1.8576,-1.405 1.82144,-1.4696 -0.84025,-1.5 -1.76191,-0.02 -3.01279,0.6096 -3.41272,1.7182 -0.34723,0.9625 -2.47061,3.8668 -4.71861,6.4541 -10.48651,12.0691 -11.39193,14.4129 -3.77347,9.768 z"
         id="path3358"
         style="fill:#d4d4d4" />
      <path
         d="m 472.7857,1047.6092 c -1.65,-0.1939 -3.53373,-0.794 -4.18608,-1.3335 -0.77986,-0.6449 -1.87043,-0.6146 -3.18426,0.089 -1.099,0.5882 -5.34787,1.0694 -9.44195,1.0694 -6.48285,0 -7.6261,-0.2746 -8.85619,-2.1272 l -1.41243,-2.1273 -4.24777,2.1671 c -3.52984,1.8008 -5.63566,2.1181 -12.45954,1.8772 l -8.21178,-0.2898 -0.29772,-6.25 c -0.16374,-3.4375 -0.50586,-6.25 -0.76025,-6.25 -0.2544,0 -2.65885,1.5437 -5.34322,3.4305 -2.68438,1.8868 -7.65498,4.831 -11.04578,6.5427 -5.4716,2.7621 -6.97431,3.0792 -13.35906,2.8195 -7.02161,-0.2857 -7.20155,-0.3586 -7.51039,-3.0427 -0.17403,-1.5125 -0.52649,-2.75 -0.78325,-2.75 -0.25675,0 -2.81436,1.2164 -5.68357,2.7032 -4.54296,2.3541 -6.65946,2.7552 -16.38659,3.1054 l -11.16982,0.4022 -1.60586,-3.1054 c -0.88322,-1.708 -2.05925,-3.1054 -2.61341,-3.1054 -0.55416,0 -3.35511,1.2202 -6.22432,2.7115 -4.65311,2.4185 -6.52911,2.7534 -17.36291,3.0999 l -12.14616,0.3885 -2.18735,-2.9585 -2.18736,-2.9586 -5.35744,2.9017 c -4.81793,2.6095 -6.14384,2.8722 -13.16649,2.6086 l -7.80905,-0.2931 -1.1169,-3.4556 c -1.41215,-4.3691 -2.30795,-4.6336 -7.21541,-2.13 -8.58108,4.3778 -12.55385,5.2518 -26.34778,5.7969 -15.7502,0.6224 -17.577,0.3189 -22.12748,-3.6765 -3.09865,-2.7206 -4.54784,-5.3086 -7.71912,-13.7848 -0.97679,-2.6108 -1.77055,-3.25 -4.03561,-3.25 -1.55082,0 -3.09778,0.45 -3.4377,1 -0.33992,0.55 -2.28533,1 -4.32313,1 -4.18923,0 -13.86125,3.2558 -15.98701,5.3816 -1.20861,1.2086 -1.0959,1.8265 0.80122,4.3925 2.84315,3.8455 1.52851,6.7098 -3.75285,8.1766 -9.29284,2.5808 -46.68112,0.253 -63.23823,-3.9372 -2.475,-0.6263 -6.525,-1.4934 -9,-1.9268 -2.475,-0.4333 -6.525,-1.5236 -9,-2.4228 -6.092017,-2.2132 -7.949138,-2.0835 -10.945284,0.7644 -1.405096,1.3355 -4.979135,3.6403 -7.942309,5.1217 -5.046903,2.5231 -6.185143,2.6861 -18,2.5779 -11.922018,-0.1092 -13.235355,-0.3302 -23.992669,-4.0377 -6.259142,-2.1572 -11.99404,-4.5359 -12.744219,-5.2861 -1.341364,-1.3414 -0.771169,-3.7373 3.101136,-13.0309 0.54192,-1.3006 0.01661,-2.0067 -2.128589,-2.8611 -1.566438,-0.6238 -5.098069,-2.0305 -7.848069,-3.126 -2.75,-1.0954 -7.38579,-3.0769 -10.301756,-4.4034 l -5.3017562,-2.4117 0.3017561,-5.2355 c 0.2979834,-5.1701 0.3448658,-5.2396 3.749891,-5.5636 1.9677651,-0.1873 5.5096941,0.564 8.2500001,1.75 18.618287,8.0575 18.287341,8.007 20.754786,3.1704 1.125893,-2.207 2.047079,-4.6286 2.047079,-5.3815 0,-1.28258 -4.375409,-3.53351 -15,-7.71682 -2.475,-0.9745 -5.713699,-2.25132 -7.19711,-2.83737 -6.437768,-2.54337 -7.403464,-10.51804 -1.524073,-12.58571 3.341527,-1.17516 8.34377,0.36808 24.624241,7.59681 4.934177,2.19083 5.373281,1.93207 7.072413,-4.16772 1.386035,-4.97579 3.785623,-8.00234 6.331233,-7.98545 5.066755,0.0336 24.257394,8.84726 30.693296,14.09644 10.878785,8.87283 14.958963,16.36492 14.985443,27.51652 0.009,3.7203 0.50564,6.4955 1.26456,7.0641 0.6875,0.5151 4.4,1.8868 8.25,3.0483 3.85,1.1615 9.475,2.8715 12.5,3.8 13.18893,4.0484 30.84017,7.3292 43.61109,8.1059 l 8.1111,0.4933 0.60733,-3.0367 c 1.15217,-5.7608 15.78094,-11.3505 33.42048,-12.7701 4.5472,-0.3659 6.25,-0.8962 6.25,-1.9462 0,-3.2667 6.1262,-13.2305 10.85356,-17.6524 2.78342,-2.60352 5.53004,-4.73371 6.1036,-4.73371 1.36477,0 1.33651,-4.26136 -0.0484,-7.30095 -1.79149,-3.9319 1.31032,-11.27907 7.39913,-17.52609 7.29174,-7.48122 8.98343,-8.17296 19.98746,-8.17296 10.66668,0 10.74548,0.0459 15.14753,8.829 2.10533,4.2006 2.42116,5.62989 1.49155,6.75 -2.02602,2.44121 -4.12056,1.59081 -8.85501,-3.59522 l -4.57942,-5.01623 -3.77758,1.34679 c -6.10382,2.17614 -13.72242,10.57954 -13.72242,15.136 0,1.1541 1.08484,1.5535 4.25,1.56472 4.01149,0.0142 9.72368,1.52317 12.5,3.30205 0.6875,0.44051 1.25,2.58098 1.25,4.7566 0,3.38968 -0.46503,4.2392 -3.25,5.9372 -1.97897,1.2067 -5.02989,1.9831 -7.80116,1.9854 -3.60061,0 -5.81573,0.8254 -10.60571,3.9379 -5.70601,3.7076 -11.34313,9.2009 -11.34313,11.0537 0,0.4589 2.5875,1.0818 5.75,1.3841 9.43809,0.9022 19.47507,2.3829 24,3.5406 2.3375,0.5981 5.9375,1.4586 8,1.9123 4.86359,1.0699 8.34801,2.9036 10.38483,5.4652 1.61635,2.0327 1.65442,2.0173 3.36716,-1.3671 1.94093,-3.8352 10.85978,-17.2007 15.77701,-23.6429 5.23487,-6.85839 9.71087,-11.95411 18.78181,-21.38222 7.02677,-7.30344 9.09646,-8.89789 11.55,-8.89789 5.97449,0 7.10473,4.82365 2.682,11.44625 -1.48895,2.22956 -5.65145,7.28078 -9.25,11.22493 -3.59854,3.94413 -8.24115,9.34413 -10.3169,12.00003 -8.14585,10.4223 -9.30231,11.9378 -11.47591,15.0383 -3.94175,5.6227 -2.8273,5.7068 5.3357,0.4026 3.29085,-2.1384 6.59543,-4.6254 7.34352,-5.5268 4.00141,-4.8214 18.5692,-12.5853 23.61446,-12.5853 7.19854,0 11.56615,7.6853 7.95632,14 -3.15577,5.5204 -1.58372,5.3114 7.66622,-1.0193 4.03358,-2.7606 8.45878,-5.9109 9.83378,-7.0006 3.35971,-2.6627 12.68634,-5.9801 16.81281,-5.9801 2.39069,0 4.20811,0.8671 6.38931,3.0483 2.64851,2.6485 2.97876,3.5665 2.51823,7 -0.29364,2.1892 -0.10842,3.9517 0.4153,3.9517 1.17181,0 7.23099,-4.1911 7.72994,-5.3468 0.20107,-0.4657 2.33857,-3.0682 4.75,-5.7834 2.41143,-2.7151 4.38441,-5.2074 4.38441,-5.5385 0,-0.3311 -1.125,-1.6446 -2.5,-2.9189 -3.08691,-2.86085 -3.31439,-7.59802 -0.5,-10.41241 1.61779,-1.61779 3.33333,-2 8.97695,-2 6.53168,0 7.08563,-0.1755 8.68003,-2.75 2.54894,-4.11582 4.3494,-5.25 8.33415,-5.25 4.33544,0 6.00887,1.44817 6.00887,5.2 l 0,2.8 12.75,0.004 c 10.94621,0.003 13.20979,0.28408 16,1.9853 4.38655,2.67453 4.4692,6.94561 0.21671,11.19811 -2.48985,2.4898 -3.52001,2.9016 -5.75,2.2984 -3.44196,-0.931 -18.21671,-1.8196 -18.21671,-1.0956 0,2.0166 3.66419,7.6101 4.98521,7.6101 2.63137,0 4.01479,2.1512 4.01479,6.2428 0,3.1919 -0.78545,4.6826 -4.63684,8.8 -5.3275,5.6956 -3.95797,6.4205 2.63684,1.3958 2.475,-1.8858 6.14967,-4.5376 8.16594,-5.8931 2.01627,-1.3555 3.96225,-2.9439 4.32441,-3.5299 0.85116,-1.3772 13.19419,-7.5927 18.97633,-9.5558 4.05571,-1.377 4.94979,-1.3642 9.53633,0.136 2.78357,0.9104 5.49663,2.4693 6.02901,3.464 0.53239,0.9948 0.96798,4.5383 0.96798,7.8744 0,3.3362 0.31331,6.0658 0.69625,6.0658 0.96583,0 8.1285,-4.8712 12.08855,-8.2212 3.54626,-3 9.7755,-3.8185 12.0152,-1.5788 1.83574,1.8357 1.43084,6.2368 -0.83929,9.1228 -1.98828,2.5277 -21.47217,15.958 -27.46071,18.9287 -3.17285,1.574 -10.985,2.5134 -16,1.9241 z M 72.285697,1035.1149 c 6.899391,-2.5401 11.04559,-5.8378 13.547371,-10.7748 2.819943,-5.5649 3.278375,-13.4373 1.031084,-17.7062 -2.413063,-4.5838 -15.734363,-16.20031 -18.577801,-16.20031 -0.594181,0 -2.844476,-0.9 -5.000654,-2 -2.156178,-1.1 -4.086329,-2 -4.289225,-2 -0.708684,0 -12.710775,28.39491 -12.710775,30.07151 0,0.5545 -0.9,2.7723 -2,4.9285 -3.838804,7.5247 -2.937942,9.0489 7,11.8439 1.925,0.5414 4.85,1.4251 6.5,1.9639 4.32768,1.4129 10.464076,1.3594 14.5,-0.1265 z m -9.703315,-12.264 c -0.988177,-1.4205 -2.971783,-4.008 -4.408014,-5.75 -3.459324,-4.1959 -6.116888,-9.489 -5.370521,-10.6967 1.126575,-1.8228 3.074739,-0.9719 7.016426,3.0648 3.595412,3.682 4.051025,3.8842 5.202948,2.3089 0.694362,-0.9496 1.262476,-2.4855 1.262476,-3.413 0,-2.3642 2.566414,-4.2733 4.380167,-3.2583 2.879338,1.6113 12.850962,16.2823 12.207161,17.96 -0.817243,2.1297 -2.267845,1.6504 -6.455648,-2.133 -2.130745,-1.925 -4.147895,-3.5 -4.482557,-3.5 -0.334661,0 -1.526767,1.8 -2.649123,4 -2.369265,4.6441 -4.190623,5.0292 -6.703315,1.4173 z m 193.203318,12.1358 c 5.84534,-1.3938 6.00417,-1.5132 3.9227,-2.9507 -1.05749,-0.7303 -3.4977,-1.6378 -5.4227,-2.0166 -6.64355,-1.3072 -15.51668,-2.6878 -20.75,-3.2285 l -5.25,-0.5424 0,3.1072 c 0,2.4251 0.71356,3.5503 3.25,5.1251 2.7887,1.7314 4.52743,1.9613 12.25,1.6195 4.95,-0.219 10.35,-0.7202 12,-1.1136 z m 111.75901,-1.7314 c 1.31107,-0.6721 1.59357,-1.5918 1.10932,-3.6117 -0.35732,-1.4905 -0.81812,-2.9043 -1.02399,-3.1417 -0.6382,-0.7359 -7.34434,6.2464 -7.34434,7.6469 0,1.3845 3.7046,0.9285 7.25901,-0.8935 z m 41.53083,-7.7153 c 4.61394,-2.3549 6.30295,-4.2505 9.53413,-10.7008 1.40358,-2.8018 3.70488,-5.8497 5.114,-6.773 3.40038,-2.228 3.23995,-3.6326 -0.41492,-3.6326 -2.16266,0 -3.44885,0.7522 -4.70221,2.75 -0.9489,1.5125 -3.32177,4.6466 -5.27305,6.9648 -6.97119,8.2818 -9.04779,11.0756 -9.04779,12.1724 0,1.499 0.47446,1.4217 4.78984,-0.7808 z"
         id="path3356"
         style="fill:#aaaaaa" />
      <path
         d="m 64.285697,1046.4384 c -0.825,-0.5358 -4.2,-0.9903 -7.5,-1.01 -4.281572,-0.025 -9.238685,-1.1444 -17.308076,-3.9067 -6.219442,-2.129 -11.589755,-4.1526 -11.934031,-4.4969 -0.344275,-0.3443 0.356859,-3.4897 1.558076,-6.9898 1.201217,-3.5002 2.184031,-6.8128 2.184031,-7.3614 0,-0.5485 -1.4625,-1.5417 -3.25,-2.207 -4.780994,-1.7794 -12.068747,-4.7372 -17.75,-7.2039 l -5,-2.171 0,-4.829 0,-4.8291 4.4732486,0 c 2.4602864,0 6.5102864,0.9 9.0000004,2 2.489713,1.1 6.563789,2.9 9.053502,4 7.048532,3.1142 8.720325,2.7294 11.310997,-2.6029 2.654415,-5.46363 2.293941,-6.12794 -5.055978,-9.31765 -2.904973,-1.26069 -7.206308,-3.14431 -9.558521,-4.18581 -2.352214,-1.04151 -4.861272,-1.89365 -5.575686,-1.89365 -3.914571,0 -7.220292,-8.02727 -4.447563,-10.8 2.529315,-2.52931 6.49142,-1.68974 23.05,4.88436 9.513922,3.77721 8.694622,4.21506 12.788497,-6.83436 1.009051,-2.72344 1.711045,-3.24764 4.332823,-3.23545 8.0691,0.0375 26.522052,9.3672 34.926155,17.65838 6.999466,6.90542 9.664731,12.85988 9.687469,21.64278 0.0083,3.1987 0.449788,6.6281 0.981129,7.6209 0.58702,1.0969 4.21636,2.8039 9.25,4.3506 4.55616,1.4 10.75893,3.3095 13.78393,4.2432 12.14795,3.7498 30.02976,7.1821 42.29647,8.1185 7.31919,0.5588 9.36163,-0.2556 9.8935,-3.9445 0.69888,-4.8474 13.81621,-9.6141 31.70726,-11.5222 4.15797,-0.4434 6.6561,-1.2073 7.13678,-2.1822 0.40676,-0.825 1.79148,-3.9139 3.07716,-6.8641 1.63735,-3.7573 4.41254,-7.2852 9.2643,-11.7772 l 6.92671,-6.41307 -1.31115,-3.97282 c -1.94707,-5.89967 0.0184,-11.09355 6.92474,-18.29868 7.53245,-7.85839 9.35317,-8.67414 19.36026,-8.67414 7.40807,0 8.61342,0.25985 10.4368,2.25 2.49812,2.72659 6.28717,10.08521 6.28717,12.21016 0,2.31204 -5.69989,2.06076 -6.44412,-0.28409 -0.31839,-1.00317 -1.86803,-3.059 -3.44363,-4.56853 -2.48239,-2.37828 -3.36867,-2.65006 -6.64033,-2.03629 -4.54612,0.85285 -10.83105,6.25221 -13.60354,11.68674 -2.48473,4.87048 -1.29947,6.74201 4.26981,6.74201 2.14132,0 5.68622,0.55956 7.87756,1.24348 3.88737,1.21324 3.98425,1.35524 3.98425,5.83948 0,3.95465 -0.35544,4.75795 -2.54705,5.75655 -1.40088,0.6383 -4.34823,1.1605 -6.54966,1.1605 -7.86668,0 -23.60788,11.0577 -22.68175,15.9332 0.21115,1.1116 2.03785,1.7776 6.28804,2.2925 13.87325,1.6808 20.13571,2.5745 22.49042,3.2094 5.01415,1.3521 9.56532,2.4797 12.40229,3.0727 1.59626,0.3337 4.16049,1.9536 5.69827,3.5998 l 2.79598,2.9931 1.66889,-3.3003 c 1.88606,-3.7299 10.85643,-17.1569 15.71357,-23.5203 4.81724,-6.3112 9.31565,-11.46027 18.65197,-21.34968 7.75073,-8.20989 8.7391,-8.93043 12.25,-8.93043 3.70626,0 3.81903,0.10455 3.81903,3.54049 0,4.1285 -1.95954,7.18291 -10.99005,17.13069 -3.58047,3.94413 -8.20829,9.34413 -10.28404,12.00003 -8.14585,10.4223 -9.30231,11.9378 -11.47591,15.0383 -4.52946,6.461 -2.23188,6.9697 6.3357,1.4026 3.29085,-2.1384 6.59543,-4.6254 7.34352,-5.5268 1.68396,-2.0291 8.93687,-6.9662 14.11295,-9.6068 5.44598,-2.7784 11.99766,-2.6295 14.78352,0.3359 4.24016,4.5135 1.67427,13.7874 -4.84024,17.4941 -2.8515,1.6225 -3.90837,3.1915 -2.14976,3.1915 1.11603,0 23.06656,-14.5596 25.74705,-17.0777 1.16065,-1.0904 4.53549,-2.869 7.49965,-3.9524 11.80343,-4.3143 18.6773,-1.4022 17.67524,7.488 -0.59716,5.298 0.30717,5.6832 5.07835,2.1631 4.61564,-3.4053 13.16402,-13.4308 13.16402,-15.4387 0,-0.9356 -0.9,-2.2633 -2,-2.9502 -2.2916,-1.4312 -2.81665,-8.01545 -0.8,-10.03211 0.69123,-0.69123 4.00197,-1.2 7.80887,-1.2 6.98881,0 8.52288,-0.71058 11.33415,-5.25 1.4885,-2.40351 2.33017,-2.75 6.68003,-2.75 4.78428,0 4.97695,0.1084 4.97695,2.8 0,4.71509 1.36642,5.2 14.65295,5.2 14.93735,0 17.34705,0.83155 17.34705,5.9862 0,5.17841 -3.62717,8.52401 -8.19401,7.55781 -5.74011,-1.2145 -13.81455,-1.7587 -16.4139,-1.1063 l -2.50525,0.6288 2.32161,4.2167 c 1.47457,2.6783 3.13703,4.3334 4.55658,4.5363 1.95234,0.2792 2.23497,0.9162 2.23497,5.0376 0,4.3384 -0.40239,5.1144 -5,9.6429 -4.77042,4.6987 -5.93886,6.5 -4.21628,6.5 1.57677,0 11.92636,-7.1274 20.50305,-14.1197 3.75511,-3.0614 13.39257,-7.9433 19.46323,-9.8591 3.55312,-1.1214 4.94688,-1.1216 8.5,0 6.71003,2.1159 6.93344,2.4784 6.57261,10.6649 -0.20522,4.6562 0.0599,7.3188 0.72855,7.3173 1.4171,0 12.67869,-7.3694 14.35582,-9.3902 0.89596,-1.0796 2.94909,-1.6121 6.21546,-1.6121 l 4.87756,0 0,3.8129 c 0,4.7234 -1.8901,6.6409 -15.5,15.7252 -14.71301,9.8206 -16.23782,10.4619 -24.87683,10.4619 -5.07444,0 -7.59073,-0.3993 -7.87668,-1.25 -0.33615,-1 -1.11701,-1 -3.90433,0 -1.91629,0.6875 -6.26089,1.25 -9.65468,1.25 -5.08753,0 -6.38975,-0.351 -7.41955,-2 -1.57064,-2.515 -2.85187,-2.508 -7.85205,0.043 -3.16236,1.6133 -5.51972,1.9813 -11.21016,1.75 l -7.20572,-0.2929 -0.29772,-6.25 c -0.35559,-7.465 -1.11722,-7.73 -8.10347,-2.8195 -9.75069,6.8536 -16.44004,9.5695 -23.57029,9.5695 -6.31867,0 -6.52852,-0.081 -6.52852,-2.5314 0,-3.266 -2.06094,-4.0056 -5.78947,-2.0775 -6.39451,3.3068 -11.93641,4.5802 -19.99426,4.5943 l -8.28372,0.015 -2.06505,-3.5 c -1.13578,-1.925 -2.26353,-3.5 -2.50611,-3.5 -0.24259,0 -2.18129,0.8878 -4.30824,1.9729 -7.60466,3.8796 -12.44882,4.9978 -21.71426,5.0125 -9.037,0.014 -9.19667,-0.028 -11.78636,-3.1054 l -2.62526,-3.1199 -5.85361,3.1199 c -4.803,2.56 -7.00409,3.12 -12.26364,3.12 -6.51419,0 -8.81002,-1.0447 -8.81002,-4.0089 0,-0.8849 -0.6142,-2.4488 -1.36488,-3.4754 -1.32019,-1.8055 -1.52483,-1.7851 -6.25,0.6228 -2.68682,1.3692 -6.91012,3.0536 -9.38512,3.7432 -2.475,0.6896 -5.88195,1.6733 -7.571,2.1861 -5.0077,1.5201 -24.08901,1.1594 -27.33022,-0.5167 -4.14067,-2.1413 -8.86901,-7.9841 -10.06975,-12.4433 -0.58033,-2.1552 -1.90467,-4.9676 -2.94298,-6.2499 -1.73542,-2.1431 -2.16398,-2.2315 -5.30795,-1.0946 -1.88105,0.6802 -4.51315,1.2377 -5.8491,1.239 -3.71552,0 -15.16577,4.4259 -16.35961,6.3186 -0.76562,1.2137 -0.71239,2.1641 0.19209,3.4291 3.47863,4.8652 2.70731,6.7863 -3.57766,8.9109 -8.01176,2.7082 -44.81544,0 -63.18382,-4.6474 -2.475,-0.6263 -6.525,-1.4934 -9,-1.9268 -2.475,-0.4333 -6.525,-1.5236 -9,-2.4228 -5.983081,-2.1736 -6.401601,-2.1245 -10.215207,1.1974 -4.95321,4.3147 -9.690925,6.4706 -15.784796,7.183 -3.025,0.3537 -6.175,0.9336 -7,1.2888 -0.825,0.3553 -2.175,0.2075 -3,-0.3283 z m 7.645062,-10.4783 c 6.898107,-2.4037 11.654463,-6.2727 14.55776,-11.8419 4.885067,-9.3707 3.20883,-17.2394 -5.3703,-25.20966 -7.243462,-6.72942 -11.299335,-9.07085 -21.041453,-12.14711 -1.312442,-0.41442 -2.333952,0.819 -4.402867,5.31627 -4.40729,9.5803 -6.072217,13.5332 -8.362947,19.8559 -1.195609,3.3 -3.040404,7.9245 -4.099545,10.2767 -1.05914,2.3523 -1.92571,4.9142 -1.92571,5.6933 0,2.0609 3.545524,4.223 9.912682,6.0451 3.073025,0.8794 6.712318,1.9753 8.087318,2.4355 3.875689,1.297 8.113753,1.1549 12.645062,-0.4241 z m -8.315084,-12.8073 c -1.078408,-1.2206 -2.733758,-3.3442 -3.678556,-4.7192 -0.944798,-1.375 -2.827876,-4.0291 -4.184618,-5.8979 -4.729392,-6.5145 -2.120844,-8.4356 3.533196,-2.6021 1.865783,1.925 3.906827,3.5 4.535652,3.5 1.241043,0 3.464348,-4.2017 3.464348,-6.5471 0,-2.8633 3.967628,-1.4637 6.511866,2.2971 1.395325,2.0625 3.86102,5.55 5.479323,7.75 5.129292,6.973 2.964239,9.1444 -2.991189,3 -1.865783,-1.925 -3.744913,-3.5 -4.175843,-3.5 -0.43093,0 -1.686225,1.7695 -2.789543,3.9321 -2.602423,5.1012 -3.341124,5.4621 -5.704636,2.7871 z m 192.500455,12.5293 c 12.21181,-2.8464 4.53219,-6.2325 -22.38717,-9.8709 -7.60598,-1.028 -8.79472,5.7711 -1.67827,9.599 3.06871,1.6506 5.16216,1.9441 11.73501,1.6451 4.4,-0.2001 9.9487,-0.8181 12.33043,-1.3732 z m 110.41957,-1.4369 c 2.34612,-0.8994 2.75,-1.6239 2.75,-4.9329 0,-2.6361 -0.44327,-3.8787 -1.38364,-3.8787 -1.81385,0 -8.61636,7.5556 -8.61636,9.5703 0,1.6318 1.39554,1.4858 7.25,-0.7587 z m 102.19987,-4.8825 c 3.85002,-2.5983 5.78888,-4.9291 4.10026,-4.9291 -0.79553,0 -9.47717,6.0729 -10.08302,7.0532 -1.13797,1.8413 1.48934,0.9085 5.98276,-2.1241 z m -63.10842,-1.1791 c 1.88665,-1.2375 4.8231,-3.0117 6.52545,-3.9426 2.06305,-1.1282 4.13917,-3.7959 6.22598,-8 1.89751,-3.8228 4.35459,-7.0953 6.23743,-8.3074 3.98819,-2.5676 3.98149,-3.9214 -0.0213,-4.309 -2.13118,-0.2063 -3.7054,0.2919 -4.7397,1.5 -6.2394,7.2882 -9.40069,11.1497 -10.89563,13.309 -0.95194,1.375 -3.05299,4.3 -4.66899,6.5 -4.42453,6.0235 -4.09881,6.8153 1.33681,3.25 z"
         id="path3354"
         style="fill:#8d8d8d" />
      <path
         d="m 151.87101,1046.6836 c -0.41141,-0.4125 -4.19891,-1.0675 -8.41667,-1.4557 -9.19114,-0.8457 -18.04207,-2.2303 -24.16864,-3.7808 -2.475,-0.6263 -6.525,-1.4934 -9,-1.9268 -2.475,-0.4333 -6.525,-1.5236 -9,-2.4228 -6.100872,-2.2164 -7.705865,-2.0892 -11.248203,0.8915 -1.670301,1.4054 -5.315559,3.7101 -8.100574,5.1213 -4.685255,2.3742 -6.001061,2.5574 -17.607445,2.4508 -11.838174,-0.1086 -13.18272,-0.3353 -23.902385,-4.0299 -6.247232,-2.1532 -11.75541,-4.3116 -12.240395,-4.7966 -0.509055,-0.5091 -0.0048,-3.1896 1.19296,-6.3414 3.360389,-8.8427 3.36862,-8.5381 -0.267354,-9.8949 -5.894924,-2.1997 -13.192881,-5.2094 -18.633278,-7.6844 -5.2997642,-2.411 -5.3062712,-2.4197 -4.9999997,-6.6472 0.2916043,-4.0251 0.4760738,-4.2492 3.7548056,-4.5612 3.1997011,-0.3045 5.0978671,0.3227 17.5522101,5.8002 2.200189,0.9676 5.365969,2.0593 7.035067,2.4258 2.838335,0.6235 3.178058,0.3716 5.249655,-3.8924 1.218213,-2.5075 2.214933,-5.2269 2.214933,-6.04313 0,-1.41077 -4.282304,-3.7061 -15.5,-8.30804 -2.75,-1.12815 -6.024489,-2.33353 -7.276641,-2.67861 -5.596222,-1.54226 -6.754286,-9.8024 -1.557163,-11.1068 3.250343,-0.81578 9.062633,1.05636 24.285183,7.82226 4.30724,1.91443 4.494835,1.91908 5.793429,0.14365 0.738128,-1.00916 1.61066,-2.95984 1.938961,-4.33484 1.184741,-4.96197 3.312413,-8.00036 5.591911,-7.98545 7.511353,0.0492 27.012486,10.37851 35.195318,18.64226 7.207657,7.27893 9.529002,12.669 9.529002,22.1261 0,7.1709 0.840603,8.0483 10.500003,10.9593 3.85,1.1602 9.475,2.8692 12.5,3.7977 13.26381,4.0714 30.86036,7.333 43.75316,8.1099 7.36258,0.4437 8.31455,0.3005 8.82215,-1.3262 2.36333,-7.5742 12.68144,-11.9484 33.35736,-14.1414 5.7554,-0.6104 6.50285,-0.9454 7.09917,-3.1822 1.95877,-7.3472 9.58436,-17.7159 15.14301,-20.59043 3.06283,-1.58385 3.72182,-4.86562 1.72591,-8.59502 -2.01352,-3.76229 1.44227,-11.90311 7.47479,-17.60842 7.43074,-7.02768 10.17001,-8.20614 19.07479,-8.20614 8.69708,0 9.86978,0.7514 14.05135,9.00334 4.3365,8.55767 0.85333,9.6525 -6.31583,1.9852 l -4.68586,-5.01146 -3.79593,1.34833 c -4.39702,1.56184 -12.05268,8.68779 -13.75885,12.80683 -1.79083,4.32345 -0.6707,5.86543 4.2734,5.88282 2.35476,0.008 6.08138,0.63881 8.28138,1.40118 3.68563,1.27719 4.02396,1.70401 4.30486,5.43089 0.27292,3.62103 -0.01,4.20758 -2.70034,5.59878 -1.65286,0.8548 -4.96307,1.5541 -7.35602,1.5541 -5.05706,0 -14.22574,5.3627 -19.56438,11.4431 -4.67654,5.3263 -4.2482,6.2941 3.06588,6.9275 9.24516,0.8006 19.68293,2.3096 24.5,3.542 2.3375,0.5981 6.03165,1.4736 8.20922,1.9457 4.92753,1.0681 9.12522,3.7486 9.77766,6.2435 0.80179,3.0661 2.06311,2.2264 4.81587,-3.2059 5.86147,-11.5671 20.02624,-30.0486 34.58701,-45.12746 6.92613,-7.17259 7.95364,-7.88157 11,-7.59003 2.86655,0.27433 3.40852,0.74421 3.68887,3.19814 0.38993,3.41306 -3.22703,8.93831 -12.24804,18.71008 -7.95073,8.61237 -14.39153,16.68567 -21.30728,26.70777 -4.48179,6.4949 -2.20543,6.9218 6.27785,1.1774 3.27186,-2.2156 8.19884,-5.841 10.94884,-8.0565 6.86793,-5.533 15.71486,-9.9153 20.01694,-9.9153 4.29786,0 8.48306,3.661 8.48306,7.4206 0,4.1454 -3.11767,9.3915 -7.17802,12.0785 -3.53545,2.3397 -4.96941,4.5009 -2.98629,4.5009 0.94225,0 20.73052,-13.0001 26.34315,-17.3064 4.43481,-3.4026 13.0894,-6.6936 17.6025,-6.6936 4.71823,0 8.57827,4.0215 7.97376,8.3073 -0.24768,1.756 -0.79205,3.9802 -1.20971,4.9427 -0.48779,1.1241 -0.32402,1.75 0.45793,1.75 1.59343,0 10.99668,-6.1012 10.99668,-7.135 0,-0.4391 2.025,-3.0783 4.5,-5.865 2.475,-2.7867 4.5,-5.5495 4.5,-6.1395 0,-0.59 -1.125,-1.9576 -2.5,-3.0392 -1.62406,-1.2775 -2.5,-2.96714 -2.5,-4.82246 0,-4.64855 2.24809,-5.99885 9.9874,-5.99885 6.8051,0 6.86303,-0.0233 10.05331,-4.0514 2.93727,-3.70861 3.55782,-4.0259 7.33403,-3.75 3.87834,0.28336 4.15519,0.5109 4.62526,3.8014 l 0.5,3.5 13.5,0.5 c 8.27323,0.30642 14.37113,0.99758 15.75,1.78518 5.26846,3.00931 0.34299,13.33903 -5.55971,11.65983 -1.47966,-0.4209 -9.97328,-0.939 -18.87472,-1.1512 l -16.18442,-0.3859 -4.06327,5.296 c -13.19429,17.1975 -16.06788,21.1162 -16.06788,21.9118 0,1.2104 1.73803,1.1172 2.51175,-0.1347 0.34638,-0.5605 2.78932,-2.1134 5.42876,-3.4509 5.47826,-2.776 8.73986,-6.2725 11.44055,-12.2644 2.3038,-5.1113 8.16712,-9.2657 13.07718,-9.2657 3.06721,0 3.74948,0.4868 5.50519,3.9283 1.29359,2.5357 2.80752,4.0424 4.27033,4.25 1.89051,0.2684 2.31733,1.0285 2.57439,4.585 0.28812,3.9862 -0.0634,4.6527 -5.40928,10.2574 -9.86459,10.342 -4.65615,8.6187 12.10113,-4.0037 9.33992,-7.0353 16.22092,-10.9275 23.97021,-13.5584 4.10386,-1.3933 4.97477,-1.3868 9.26221,0.069 2.60283,0.8837 5.07094,2.139 5.48469,2.7896 1.11836,1.7587 0.9392,11.5224 -0.25229,13.7487 -0.78824,1.4729 -0.70986,1.9343 0.32855,1.9343 1.6208,0 9.84224,-5.2251 14.55163,-9.2482 2.71999,-2.3236 4.12134,-2.8009 7.5,-2.5547 3.72588,0.2716 4.18832,0.5936 4.47766,3.1175 0.17746,1.5481 -0.33031,3.8112 -1.12838,5.0292 -1.56087,2.3822 -21.48044,16.0945 -28.40444,19.5531 -5.53653,2.7656 -16.68983,2.9977 -18.15601,0.3778 -0.91431,-1.6338 -1.15754,-1.6338 -4.58361,0 -2.04105,0.9733 -5.96896,1.7253 -9.01157,1.7253 -4.6538,0 -5.68157,-0.3662 -7.49409,-2.6705 l -2.1006,-2.6705 -5.72198,2.7293 c -4.76592,2.2732 -6.80804,2.6776 -12.22198,2.4205 l -6.5,-0.3088 -0.29569,-6.75 c -0.16263,-3.7125 -0.72974,-6.75 -1.26026,-6.75 -0.53051,0 -3.16528,1.5468 -5.85505,3.4374 -2.68977,1.8906 -8.11665,5.0621 -12.05973,7.0479 -6.14741,3.0957 -7.97881,3.5679 -12.84926,3.3125 -5.60624,-0.2939 -5.68408,-0.34 -5.99337,-3.5478 -0.36647,-3.8009 -0.9529,-3.9201 -6.17691,-1.255 -7.56312,3.8584 -12.80903,5.1012 -20.25488,4.7986 -6.91469,-0.2811 -7.30785,-0.4303 -9.23844,-3.5051 -2.37748,-3.7865 -3.32971,-3.9346 -8.46326,-1.3156 -7.32642,3.7376 -12.50938,4.9979 -20.61459,5.0125 -8.29033,0.015 -10.65599,-0.9777 -13.2114,-5.544 -0.77441,-1.3838 -1.72994,-1.1272 -7.39132,1.9847 -5.05323,2.7776 -7.63497,3.5739 -11.5871,3.5739 -6.96237,0 -8.06583,-0.607 -9.27643,-5.1028 -1.23004,-4.5681 -2.28733,-4.7586 -8.75555,-1.5776 -2.59422,1.2758 -6.74176,2.8813 -9.21676,3.5678 -2.475,0.6865 -5.88195,1.6676 -7.571,2.1804 -1.68905,0.5127 -7.56345,0.9322 -13.05422,0.9322 -9.24463,0 -10.31383,-0.2097 -14.45198,-2.834 -4.352,-2.76 -5.99653,-5.2243 -10.35799,-15.5214 -1.8015,-4.2533 -0.69534,-4.1012 -13.06481,-1.7962 -8.92174,1.6626 -16.05268,4.5435 -16.93456,6.8416 -0.29952,0.7806 0.37035,2.6567 1.48859,4.1692 2.75709,3.7292 1.71891,5.6578 -4.06376,7.5492 -5.09937,1.6679 -27.92913,2.3213 -29.40496,0.8416 z m -79.585313,-10.5422 c 10.724373,-3.8671 17,-11.8867 17,-21.7242 0,-2.7956 -0.640333,-6.2981 -1.422963,-7.7833 -2.476176,-4.699 -16.70443,-17.20031 -19.576383,-17.20031 -0.594181,0 -2.877836,-0.91702 -5.074789,-2.03782 -2.196952,-1.1208 -4.338271,-1.82533 -4.758487,-1.56562 -0.420216,0.2597 -1.795821,2.86422 -3.056899,5.78782 -1.261078,2.92359 -3.101891,7.11562 -4.090695,9.31563 -0.988804,2.2 -2.781197,6.7 -3.983095,10 -1.201897,3.3 -3.051838,7.9245 -4.110979,10.2767 -3.706273,8.2312 -2.505037,10.1824 8.07429,13.1154 2.475,0.6862 5.625,1.6183 7,2.0714 3.825973,1.2606 10.113308,1.1458 14,-0.2557 z m -9.684078,-14.4578 c -0.951601,-1.5125 -2.778315,-4.0415 -4.059365,-5.6199 -3.247512,-4.0014 -5.407629,-8.4187 -4.416408,-9.0313 0.458048,-0.2831 2.800886,1.2664 5.206308,3.4432 2.405421,2.1769 4.67441,3.958 5.042198,3.958 0.608359,0 1.804431,-2.6388 3.286225,-7.25 0.659771,-2.0532 2.129204,-2.2589 3.570619,-0.5 5.378404,6.5632 11.054501,14.7694 11.054501,15.9821 0,1.5748 -1.696207,0.6675 -5.048136,-2.7004 -4.506694,-4.528 -6.242189,-4.4319 -8.451864,0.4683 -2.118259,4.6974 -3.801074,5.0376 -6.184078,1.25 z m 191.113081,14.8178 c 1.68905,-0.5128 4.9835,-1.4848 7.321,-2.1601 4.91618,-1.4203 5.39444,-2.451 1.5,-3.2327 -1.5125,-0.3036 -4.775,-1.0639 -7.25,-1.6897 -6.95958,-1.7595 -15.94816,-3.1107 -22,-3.3069 l -5.5,-0.1784 0,3.4602 c 0,2.8187 0.62989,3.8846 3.39788,5.75 2.84064,1.9143 4.71498,2.2898 11.42901,2.2898 4.41711,0 9.41306,-0.4195 11.10211,-0.9322 z m 110.46191,-1.0279 c 2.94947,-1.0781 5.50173,-2.0992 5.67169,-2.2692 0.55025,-0.5502 -0.80586,-8.7712 -1.44427,-8.7554 -1.85846,0.046 -10.11833,9.4236 -10.11833,11.4876 0,1.8382 -0.516,1.8788 5.89091,-0.463 z m 104.68307,-5.7899 c 2.97128,-2.0625 5.40766,-4.3125 5.41417,-5 0.007,-0.6875 -0.24457,-1.25 -0.55797,-1.25 -1.02684,0 -8.88641,5.7186 -10.83517,7.8836 -3.02053,3.3557 -0.0328,2.5394 5.97897,-1.6336 z m -140.57398,-1.25 c 0,-0.55 -0.45,-1 -1,-1 -0.55,0 -1,0.45 -1,1 0,0.55 0.45,1 1,1 0.55,0 1,-0.45 1,-1 z"
         id="path3352"
         style="fill:#727272" />
      <path
         d="m 152.87101,1046.6836 c -0.41141,-0.4125 -4.19891,-1.0675 -8.41667,-1.4557 -9.19114,-0.8457 -18.04207,-2.2303 -24.16864,-3.7808 -2.475,-0.6263 -6.525,-1.4934 -9,-1.9268 -2.475,-0.4333 -6.525,-1.5236 -9,-2.4228 -6.206893,-2.2549 -10.286572,-2.1106 -12.595015,0.4454 -1.047744,1.1602 -4.548955,3.4452 -7.780471,5.0778 -5.504643,2.781 -6.589822,2.9658 -17.193292,2.9276 -10.265402,-0.037 -12.313434,-0.3739 -22.024976,-3.6231 -14.583145,-4.8791 -14.683063,-4.9427 -13.848395,-8.8111 0.377421,-1.7493 1.51798,-4.824 2.534576,-6.8326 2.126362,-4.2015 1.722432,-4.8306 -4.600314,-7.1646 -17.8503362,-6.5896 -20.8776269,-8.3 -21.3143736,-12.0427 -0.6187146,-5.302 3.8635057,-7.222 9.7516446,-4.1771 1.556537,0.8049 4.57169,2.1077 6.70034,2.8952 2.12865,0.7874 6.215203,2.3337 9.081227,3.436 3.848052,1.4801 5.450024,1.7037 6.125019,0.8548 1.997675,-2.5122 4.164027,-7.6778 4.164027,-9.9289 0,-2.64909 -1.155508,-3.25107 -22.19711,-11.56399 -3.896555,-1.53941 -6.247056,-5.45817 -4.845097,-8.07776 0.604965,-1.13038 2.099447,-2.29729 3.321072,-2.59311 2.319019,-0.56158 4.470467,0.16841 25.516126,8.65759 3.794769,1.53069 4.490314,0.93802 6.218326,-5.29868 0.557035,-2.01043 1.84968,-4.68885 2.872545,-5.95203 1.777843,-2.19555 2.052546,-2.2357 6.236946,-0.91177 6.480785,2.05051 21.864622,9.85586 25.877192,13.12939 10.880309,8.87637 14.958961,16.36586 14.985447,27.51726 0.0088,3.7203 0.505639,6.4955 1.264556,7.0641 0.6875,0.5151 4.4,1.8868 8.25,3.0483 3.85,1.1615 9.475,2.8715 12.5,3.8 13.81556,4.2407 31.17283,7.3952 44.61192,8.1077 l 9.11193,0.4831 0.60651,-3.0325 c 1.15128,-5.7564 15.78637,-11.3468 33.41964,-12.7659 4.5472,-0.3659 6.25,-0.8962 6.25,-1.9462 0,-3.2667 6.1262,-13.2305 10.85356,-17.6524 2.78342,-2.60352 5.53004,-4.73371 6.1036,-4.73371 1.30017,0 1.37357,-6.51351 0.10022,-8.89279 -2.50714,-4.68462 7.12723,-18.51431 16.15278,-23.18657 5.12136,-2.65117 15.57833,-2.66145 18.93815,-0.0186 3.46292,2.72394 7.56925,11.78042 6.03641,13.31326 -0.90092,0.90092 -2.30781,-0.0883 -6.01985,-4.23277 l -4.84416,-5.40847 -4.41035,1.38262 c -7.37295,2.31138 -14.91036,10.64919 -14.91036,16.49368 0,2.33057 0.3652,2.55095 4.25,2.56472 4.01149,0.0142 9.72368,1.52317 12.5,3.30205 0.6875,0.44051 1.25,2.13098 1.25,3.7566 0,3.94478 -4.75721,6.91738 -11.07856,6.92258 -3.43659,0 -5.80603,0.7946 -9.5,3.1746 -6.41586,4.1338 -10.25706,7.6725 -12.04569,11.0971 -1.68067,3.2178 -1.49267,3.3452 6.12425,4.1492 9.89586,1.0445 19.08259,2.4289 23.5,3.5411 2.475,0.6232 6.075,1.4866 8,1.9187 5.63198,1.264 9.91882,3.9514 10.59392,6.6412 0.89009,3.5464 2.0622,3.0857 4.49924,-1.7682 2.26102,-4.5034 10.80545,-17.4209 16.18584,-24.4699 9.11165,-11.93745 25.50914,-29.18881 28.44429,-29.92549 2.60112,-0.65284 5.27671,1.10365 5.27671,3.46409 0,2.32032 -4.55259,8.73676 -11.95719,16.85249 -3.59854,3.94411 -8.24115,9.34411 -10.3169,12.00001 -8.13438,10.4076 -9.29711,11.9307 -11.33531,14.8481 -2.15165,3.0798 -3.93012,7.4807 -3.02309,7.4807 2.69643,0 14.97741,-7.3008 17.60333,-10.4649 3.52734,-4.2502 18.44659,-12.5351 22.57284,-12.5351 2.92094,0 8.45632,4.8851 8.45632,7.4629 0,3.3656 -4.17613,9.6232 -8.05742,12.0733 -3.75253,2.3689 -4.47863,4.4638 -1.54715,4.4638 1.1032,0 18.5059,-11.3232 28.3729,-18.4611 1.79758,-1.3003 5.77301,-3.1521 8.83428,-4.115 6.50965,-2.0475 9.62774,-1.3548 12.74429,2.8312 1.84843,2.4827 1.92272,3.1104 0.7515,6.3493 -1.91643,5.2998 -0.2866,5.9501 5.46298,2.1798 2.71624,-1.7812 5.11511,-3.6658 5.33083,-4.188 0.21571,-0.5222 2.06433,-2.7825 4.10805,-5.0228 6.0542,-6.6368 6.37136,-7.802 2.94259,-10.8106 -3.43299,-3.01242 -3.7497,-5.95594 -0.94285,-8.76279 1.61779,-1.61779 3.33333,-2 8.97695,-2 6.53168,0 7.08563,-0.1755 8.68003,-2.75 2.39786,-3.87187 4.32308,-5.25 7.33415,-5.25 3.36965,0 5.00887,1.70177 5.00887,5.2 l 0,2.8 12.75,0.004 c 10.94621,0.003 13.20979,0.28408 16,1.9853 4.10829,2.50488 4.17622,5.23858 0.22827,9.18649 -2.2355,2.2355 -3.4714,2.8016 -4.75,2.1756 -0.95055,-0.4653 -9.46737,-0.9796 -18.92627,-1.1428 l -17.19801,-0.2967 -1.75421,2.7942 c -0.96481,1.5368 -3.35071,4.677 -5.30199,6.9783 -4.26348,5.0283 -7.60487,9.3841 -10.72006,13.9746 -2.9855,4.3993 -1.12206,5.3851 4.04949,2.1422 2.01815,-1.2655 5.12137,-3.2114 6.89607,-4.3243 1.87742,-1.1772 4.54425,-4.4947 6.37751,-7.9335 3.79664,-7.1217 9.46693,-11.7677 13.83839,-11.3387 2.31468,0.2272 3.47323,1.162 5.01081,4.0428 1.1,2.0611 2.6975,3.7486 3.55,3.75 2.38217,0 3.95,2.1036 3.95,5.2893 0,2.167 -1.49539,4.4439 -5.99922,9.1341 -5.55632,5.7864 -6.39621,7.5794 -3.55039,7.5794 1.88411,0 11.55919,-6.5563 20.83638,-14.1197 3.64375,-2.9706 13.60095,-8.1624 19.65412,-10.2479 3.49368,-1.2037 4.65113,-1.1984 8.30911,0.038 5.47152,1.8492 6.75,3.638 6.75,9.4442 0,3.6485 -0.60099,5.4464 -2.62443,7.8511 -1.44344,1.7154 -2.40015,3.3432 -2.12603,3.6174 0.87368,0.8736 13.73647,-6.8986 19.53526,-11.8041 7.12015,-6.0233 14.68128,-1.4549 9.17591,5.544 -2.16377,2.7508 -21.59221,16.0071 -28.67087,19.5625 -5.5941,2.8098 -14.25752,2.9129 -16.71366,0.1989 -1.70412,-1.8831 -1.80521,-1.8834 -5.90499,-0.022 -2.29415,1.0416 -6.12429,1.9038 -8.51142,1.9158 -3.56384,0.018 -4.8007,-0.5028 -6.91438,-2.9116 l -2.57414,-2.9335 -4.7699,2.4171 c -5.83942,2.959 -14.66448,4.1823 -17.85481,2.4749 -2.06954,-1.1076 -2.23189,-1.7731 -1.85944,-7.6224 0.38397,-6.03 0.2904,-6.3714 -1.58301,-5.7768 -1.09511,0.3475 -4.10936,2.1208 -6.69834,3.9405 -2.58899,1.8198 -7.81427,4.8734 -11.61174,6.7857 -6.23546,3.1402 -7.43079,3.4127 -12.33593,2.8126 -4.37962,-0.5358 -5.49376,-1.0518 -5.75331,-2.6645 -0.73852,-4.5889 -0.9764,-4.6441 -6.97302,-1.617 -7.19937,3.6342 -16.64919,5.5814 -22.69049,4.6755 -3.65911,-0.5488 -4.84644,-1.248 -6.04066,-3.5573 -2.17115,-4.1986 -2.91159,-4.3334 -8.43332,-1.5353 -9.55829,4.8436 -13.69064,5.7756 -22.24836,5.0181 -7.45407,-0.6599 -8.0211,-0.8825 -10.48964,-4.1189 -2.30176,-3.0178 -2.79949,-3.2546 -4.21944,-2.0073 -3.69944,3.2498 -12.16579,6.6422 -16.5766,6.6422 -4.93913,0 -8.53324,-2.4756 -8.53324,-5.8776 0,-4.0248 -2.47367,-4.4126 -8.66905,-1.3589 -3.20702,1.5807 -7.85595,3.4361 -10.33095,4.123 -2.475,0.687 -5.88195,1.6685 -7.571,2.1813 -1.68905,0.5127 -6.99447,0.9322 -11.78984,0.9322 -6.68025,0 -9.61537,-0.4574 -12.55321,-1.9562 -4.43893,-2.2645 -8.23055,-6.4393 -9.9096,-10.911 -0.64699,-1.723 -1.69737,-4.5225 -2.33418,-6.221 -1.2713,-3.3907 -1.91332,-3.4391 -14.34217,-1.0805 -13.9075,2.6393 -19.88129,7.1176 -14.95174,11.2087 0.85154,0.7068 1.41404,2.205 1.25,3.3294 -0.5124,3.5124 -8.52879,5.6219 -21.38159,5.6266 -6.09584,0 -11.41995,-0.3335 -11.83136,-0.746 z m -79.585313,-10.5687 c 10.928477,-4.0235 16,-10.901 16,-21.6977 0,-3.3456 -0.639695,-7.2981 -1.421545,-8.7833 -2.413063,-4.5838 -15.734363,-16.20031 -18.577801,-16.20031 -0.594181,0 -2.844476,-0.9 -5.000654,-2 -6.588401,-3.36115 -6.074243,-3.89393 -13.510666,14.00001 -1.25714,3.025 -3.049588,7.525 -3.983218,10 -0.933629,2.475 -2.554444,6.4245 -3.601812,8.7767 -1.047367,2.3523 -1.904304,5.7852 -1.904304,7.6287 0,3.5548 0.812042,4.1357 9,6.4385 1.925,0.5414 4.85,1.4251 6.5,1.9639 4.357233,1.4226 12.461209,1.3604 16.5,-0.1265 z m -11.446935,-16.5973 c -1.359614,-2.1537 -2.943459,-4.2073 -3.519657,-4.5634 -1.508028,-0.932 -4.290486,-6.5969 -3.586179,-7.3012 0.327086,-0.3271 2.537047,1.3116 4.911025,3.6415 4.721055,4.6333 5.947566,4.3815 7.533078,-1.547 1.019787,-3.8131 3.430273,-3.5591 6.510871,0.6861 8.581591,11.8258 9.689233,15.4246 2.624006,8.5256 -4.372244,-4.2694 -5.754404,-4.0102 -8.039942,1.5075 -1.657428,4.0014 -3.47762,3.7329 -6.433202,-0.9491 z m 192.875938,16.9838 c 1.68905,-0.5128 4.9835,-1.4848 7.321,-2.1601 4.91618,-1.4203 5.39444,-2.451 1.5,-3.2327 -1.5125,-0.3036 -4.775,-1.0639 -7.25,-1.6897 -6.11343,-1.5456 -15.21771,-2.9988 -22.75,-3.6312 l -6.25,-0.5248 0,4.1001 c 0,3.5525 0.43399,4.3646 3.25,6.0816 2.59763,1.5838 5.0423,1.9823 12.179,1.9853 4.91095,0 10.31095,-0.4158 12,-0.9285 z m 109.56312,-0.6609 c 6.44874,-2.2451 7.00035,-2.8868 5.75493,-6.6953 -0.57765,-1.7664 -1.22227,-3.8506 -1.43248,-4.6315 -0.45714,-1.6983 -7.71074,4.9563 -9.85711,9.0431 -2.18605,4.1624 -1.1222,4.6013 5.53466,2.2837 z m 103.48052,-4.845 c 2.84881,-1.8909 5.75857,-4.1356 6.46613,-4.9881 2.24512,-2.7052 -1.40923,-3.0083 -5.12016,-0.4246 -10.9792,7.6439 -12.21903,12.6299 -1.34597,5.4127 z m -136.71134,-3.982 c 2.05256,-1.881 3.39417,-3.7578 2.98137,-4.1706 -0.41281,-0.4128 -1.76128,0.17 -2.99661,1.2951 -1.23533,1.1251 -3.25856,2.5677 -4.49606,3.2058 -1.2375,0.6381 -2.25,1.5943 -2.25,2.125 0,1.9941 3.15732,0.8475 6.7613,-2.4553 z"
         id="path3350"
         style="fill:#535353" />
      <path
         d="m 151.87101,1045.6836 c -0.41141,-0.4125 -4.19891,-1.0675 -8.41667,-1.4557 -9.19114,-0.8457 -18.04207,-2.2303 -24.16864,-3.7808 -2.475,-0.6263 -6.525,-1.4934 -9,-1.9268 -2.475,-0.4333 -6.525,-1.5236 -9,-2.4228 -6.305976,-2.2909 -8.453822,-2.0797 -12.215207,1.2015 -7.203494,6.2838 -10.965794,7.3885 -24.732903,7.2622 -11.837939,-0.1087 -13.195098,-0.3369 -23.859969,-4.0128 -6.219442,-2.1437 -11.498604,-4.0882 -11.731472,-4.321 -0.232869,-0.2329 0.506226,-2.8693 1.642431,-5.8586 3.773915,-9.9292 4.744977,-8.382 -8.602883,-13.7065 -15.303828,-6.1047 -15.5,-6.2364 -15.5,-10.3996 0,-3.7038 0.1136341,-3.8291 3.4732486,-3.8291 1.9102864,0 5.3977864,0.8453 7.7500004,1.8785 2.352213,1.0332 6.301906,2.7728 8.777096,3.8657 2.475189,1.093 5.951272,2.3059 7.724629,2.6954 3.124596,0.6863 3.307048,0.5394 5.901125,-4.7498 1.472261,-3.0019 2.398764,-6.18264 2.058895,-7.06832 -0.33987,-0.88569 -2.995531,-2.6848 -5.901469,-3.99803 -12.211235,-5.51843 -14.903289,-6.62346 -16.135962,-6.62346 -1.729124,0 -5.647563,-4.24238 -5.647563,-6.11445 0,-4.23664 4.048938,-4.83679 12.014117,-1.78077 3.017236,1.15764 7.227506,2.74907 9.356156,3.53652 2.12865,0.78745 5.198475,2.11857 6.821834,2.95804 3.450123,1.78413 4.989777,0.94942 6.700306,-3.6325 0.609173,-1.63176 1.612181,-4.31684 2.228907,-5.96684 1.292717,-3.45856 3.161489,-3.74318 9.676772,-1.4738 6.294015,2.19231 18.202615,8.33869 21.999383,11.35455 11.114492,8.82847 15.160118,15.87016 15.187469,26.43496 0.0083,3.1987 0.449788,6.6281 0.981128,7.6209 0.587023,1.0969 4.216361,2.8039 9.250001,4.3506 4.55616,1.4 10.75893,3.3095 13.78393,4.2432 19.00214,5.8655 49.24406,10.1718 52.49372,7.4748 0.76241,-0.6327 1.52573,-2.1181 1.69625,-3.3008 0.69888,-4.8474 13.81621,-9.6141 31.70726,-11.5222 4.15797,-0.4434 6.6561,-1.2073 7.13678,-2.1822 0.40676,-0.825 1.79148,-3.9139 3.07716,-6.8641 1.62528,-3.7296 4.40228,-7.2757 9.11321,-11.6373 6.93704,-6.42265 7.88676,-8.5539 5.66319,-12.70868 -1.87846,-3.50994 0.77312,-9.59006 7.0282,-16.11579 7.36818,-7.68701 9.4576,-8.67414 18.36026,-8.67414 8.30368,0 9.68289,0.88259 13.61112,8.71016 2.55785,5.09689 2.57188,5.29994 0.36285,5.25132 -0.9625,-0.0212 -2.65,-1.44608 -3.75,-3.16643 -1.1,-1.72035 -3.125,-3.94656 -4.5,-4.94713 -2.32966,-1.69526 -2.80662,-1.71345 -7,-0.26694 -5.42191,1.87029 -11.13246,7.16876 -13.5828,12.60264 -2.44822,5.42919 -1.23731,7.12872 5.68577,7.98007 10.20422,1.25484 10.89703,1.62311 10.89703,5.79237 0,4.36095 -2.53026,6.04395 -9.08689,6.04395 -8.5224,0 -23.91311,11.6273 -23.91311,18.0658 0,1.4659 1.15989,1.8617 6.75,2.3036 9.2671,0.7324 19.90878,2.2406 25,3.5432 2.3375,0.5981 6.03165,1.4736 8.20922,1.9457 5.67336,1.2298 9.04078,3.7122 9.04078,6.6647 0,1.6966 -0.55383,2.477 -1.75796,2.477 -0.96687,0 -3.77937,1.0438 -6.25,2.3195 -2.47062,1.2757 -6.51704,2.8812 -8.99204,3.5677 -2.475,0.6866 -5.88195,1.6678 -7.571,2.1806 -4.95487,1.5041 -22.09867,1.1544 -25.33022,-0.5167 -4.08663,-2.1133 -8.86294,-7.9637 -10.03191,-12.288 -1.70215,-6.2966 -3.81614,-8.5411 -7.44013,-7.8998 -10.84562,1.9195 -13.6773,2.5615 -18.47375,4.189 -3.11921,1.0583 -5.99377,2.8013 -6.89933,4.1833 -1.44094,2.1992 -1.39077,2.5877 0.69923,5.4145 2.60719,3.5265 2.05209,4.5098 -3.67077,6.5027 -4.07174,1.4179 -27.39417,1.9033 -28.69681,0.5972 z m -78.940251,-8.7235 c 10.686142,-3.7236 17.217042,-12.1445 17.30776,-22.3163 0.05805,-6.5085 -2.245987,-11.2662 -8.1203,-16.76793 -5.017217,-4.69898 -11.887362,-9.44228 -13.676111,-9.44228 -0.679848,0 -3.052452,-0.92664 -5.272454,-2.0592 -4.852782,-2.47571 -5.631919,-2.01008 -8.830714,5.27743 -1.275116,2.90497 -3.113939,7.08177 -4.086273,9.28178 -0.972335,2.2 -2.746106,6.7 -3.941715,10 -1.195609,3.3 -3.040404,7.9245 -4.099545,10.2767 -3.730928,8.2859 -2.266987,10.8041 7.986972,13.7384 3.073025,0.8794 6.712318,1.9753 8.087318,2.4355 3.956971,1.3242 10.141763,1.1451 14.645062,-0.4241 z m -9.348377,-16.1092 c -0.988177,-1.4205 -3.034185,-4.0674 -4.546685,-5.882 -3.842042,-4.6095 -3.443104,-6.5994 0.547607,-2.7315 1.813684,1.7579 3.827128,3.1962 4.47432,3.1962 1.33345,0 4.228073,-5.1007 4.228073,-7.4504 0,-2.6606 1.876607,-1.7053 4.351449,2.2151 1.307096,2.0705 3.112741,4.3756 4.012545,5.1224 0.899803,0.7468 1.636006,2.0561 1.636006,2.9096 0,1.2232 -0.490176,1.0914 -2.314451,-0.6224 -3.379862,-3.1752 -5.376213,-2.701 -7.685549,1.8257 -1.122356,2.2 -2.235494,4 -2.473639,4 -0.238145,0 -1.241499,-1.1622 -2.229676,-2.5827 z m 193.703318,15.6562 c 2.475,-0.6581 5.7375,-1.445 7.25,-1.7485 4.31971,-0.8671 3.6465,-3.9898 -1,-4.6385 -2.0625,-0.288 -5.775,-1.0446 -8.25,-1.6813 -4.88497,-1.2566 -13.71011,-2.7695 -21.2789,-3.6476 -5.57352,-0.6467 -7.7211,0.6254 -7.7211,4.5737 0,3.2617 1.53034,5.3364 5.5,7.4566 3.49734,1.8679 17.96353,1.6896 25.5,-0.3144 z m 22.25664,8.6765 c -1.40958,-1.7829 -2.15137,-6.697 -1.10824,-7.3417 0.4841,-0.2992 1.82482,-2.426 2.97938,-4.7262 6.00444,-11.9624 18.86748,-28.8719 34.80319,-45.75168 6.73578,-7.13482 8.99778,-8.93043 11.25,-8.93043 2.35228,0 2.81903,0.42063 2.81903,2.54049 0,3.10472 -2.51137,6.7908 -10.99005,16.13069 -3.58047,3.94413 -8.20829,9.34413 -10.28404,12.00003 -2.07574,2.6558 -5.02535,6.4038 -6.55468,8.3288 -4.31205,5.4277 -9.17123,13.201 -9.17123,14.6714 0,0.7307 0.46793,1.3286 1.03984,1.3286 2.5575,0 16.36786,-8.3765 18.96016,-11.5 3.76823,-4.5405 16.64998,-11.5 21.28585,-11.5 3.99212,0 7.71602,3.4119 7.71041,7.0644 -0.005,3.555 -3.49932,8.7098 -7.50532,11.0734 -3.61877,2.1352 -4.81918,5.8622 -1.8881,5.8622 1.7457,0 23.29896,-13.8784 27.47692,-17.6928 3.09679,-2.8272 12.19055,-6.3072 16.48181,-6.3072 1.93677,0 3.9012,0.8637 5.26412,2.3144 2.25069,2.3958 2.92599,7.103 1.17431,8.1856 -0.55,0.3399 -1,1.4915 -1,2.559 0,4.8215 8.73609,0.01 16.85012,-9.2795 6.52674,-7.4726 7.17916,-9.5543 3.77223,-12.0361 -2.82915,-2.0609 -3.55358,-6.41218 -1.42235,-8.54341 0.69123,-0.69123 4.00197,-1.2 7.80887,-1.2 6.98881,0 8.52288,-0.71058 11.33415,-5.25 1.39561,-2.25352 2.42108,-2.75 5.68003,-2.75 3.68904,0 3.97695,0.20271 3.97695,2.8 0,4.71509 1.36642,5.2 14.65295,5.2 7.16862,0 13.30984,0.48155 14.8,1.16052 3.39331,1.54609 3.40575,5.68415 0.0266,8.85869 -2.27456,2.1368 -2.84238,2.2514 -5.82099,1.1743 -2.01126,-0.7273 -9.22988,-1.1935 -18.47956,-1.1935 -13.22202,0 -15.37106,0.2256 -16.6687,1.75 -6.95533,8.1707 -9.33848,11.0898 -10.81708,13.25 -0.94116,1.375 -3.25228,4.525 -5.13582,7 -1.88354,2.475 -3.45449,5.2875 -3.49101,6.25 -0.0856,2.2552 2.71083,2.2616 5.19686,0.012 1.05639,-0.9561 4.01683,-2.8686 6.57874,-4.25 3.77461,-2.0354 5.3017,-3.7445 8.0521,-9.0118 3.71871,-7.1217 8.35956,-11 13.16271,-11 2.31695,0 3.43831,0.824 5.4432,4 1.56423,2.4779 3.28136,4 4.51254,4 1.63314,0 1.98746,0.6746 1.98746,3.7842 0,3.2618 -0.7592,4.5339 -5.5,9.2158 -5.4045,5.3374 -7.01068,9 -3.94678,9 1.90538,0 18.78568,-11.2468 23.94678,-15.9549 2.48031,-2.2626 10.93475,-6.5374 17.00598,-8.5987 3.82159,-1.2974 5.17078,-1.3446 8.27978,-0.2896 5.76662,1.9568 6.21424,2.59 6.21424,8.7913 0,4.7905 -0.4001,6.0791 -2.5,8.0519 -2.51109,2.359 -3.32684,5 -1.54441,5 0.52558,0 2.51587,-1.0125 4.42287,-2.25 1.907,-1.2375 5.93622,-3.7445 8.95381,-5.5712 3.01759,-1.8266 6.27204,-4.1891 7.23212,-5.25 1.14756,-1.268 3.06285,-1.9288 5.5906,-1.9288 3.54874,0 3.84501,0.2167 3.84501,2.8129 0,1.7671 -1.02241,3.7865 -2.75,5.4317 -3.20857,3.0554 -21.05868,15.1051 -26.46016,17.8618 -4.82827,2.4642 -14.36605,2.5871 -16.98297,0.2188 -1.73083,-1.5664 -2.07794,-1.5664 -5.36267,0 -1.93757,0.924 -5.92515,1.6748 -8.89472,1.6748 -4.70984,0 -5.63119,-0.3412 -7.37087,-2.7294 l -1.98821,-2.7293 -5.8452,2.7898 c -4.78514,2.284 -6.93334,2.7336 -11.8452,2.4794 l -6,-0.3105 0.0639,-7.25 c 0.0435,-4.945 -0.31177,-7.25 -1.11758,-7.25 -0.64979,0 -4.2694,2.0707 -8.04358,4.6016 -11.92949,7.9996 -17.83652,10.5389 -23.72288,10.1982 -4.84918,-0.2807 -5.20037,-0.4791 -5.50193,-3.1089 -0.43282,-3.7744 -2.20513,-4.2278 -6.98794,-1.7878 -7.2779,3.7129 -12.60192,5.0676 -19.97367,5.0823 -7.26989,0.015 -7.28764,0.01 -9.34877,-3.4854 -2.38258,-4.0382 -3.50955,-4.2334 -8.81435,-1.5271 -7.35818,3.7538 -12.5032,4.9979 -20.73035,5.0125 l -8.17724,0.015 -3.08205,-3.7391 c -2.64684,-3.211 -3.32785,-3.5653 -4.8228,-2.5089 -5.84203,4.1284 -11.46848,6.248 -16.58507,6.248 -3.13491,0 -5.82648,-0.5258 -6.39905,-1.25 z m 82.50693,-7.6279 c 0.95504,-0.4829 3.47229,-1.6237 5.59389,-2.5351 3.21733,-1.3821 3.75892,-2.0247 3.26366,-3.8721 -0.3266,-1.2182 -0.59996,-3.2415 -0.60747,-4.4963 -0.0226,-3.773 -2.80012,-3.8151 -6.66488,-0.1009 -7.50572,7.2133 -8.5598,14.5306 -1.5852,11.0044 z m 106.34654,-6.3874 c 4.16335,-2.7791 6.50124,-5.044 6.70944,-6.5 0.42161,-2.9485 -2.07745,-2.942 -5.94816,0.015 -7.10092,5.4253 -9.87139,8.0504 -9.87139,9.3536 0,2.3522 2.43901,1.5841 9.11011,-2.8689 z m -136.36011,-4.0001 c 3.29805,-3.1732 4.22016,-5.7346 2.06445,-5.7346 -0.65205,0 -2.21018,0.9626 -3.46251,2.1391 -1.25233,1.1765 -3.30235,2.6503 -4.5556,3.2751 -1.25324,0.6248 -2.43965,1.9722 -2.63647,2.9942 -0.30459,1.5816 0.0661,1.7536 2.49114,1.1557 1.56695,-0.3864 4.31149,-2.1096 6.09899,-3.8295 z"
         id="path3348"
         style="fill:#282828" />
      <path
         d="m 151.87101,1044.6836 c -0.41141,-0.4125 -4.19891,-1.0675 -8.41667,-1.4557 -9.19114,-0.8457 -18.04207,-2.2303 -24.16864,-3.7808 -2.475,-0.6263 -6.525,-1.4934 -9,-1.9268 -2.475,-0.4333 -6.525,-1.5236 -9,-2.4228 -6.305976,-2.2909 -8.453822,-2.0797 -12.215207,1.2015 -7.118091,6.2093 -11.001661,7.3756 -24.350129,7.3123 -11.259712,-0.053 -13.003587,-0.332 -22.999639,-3.6764 -5.948883,-1.9904 -11.140832,-3.8195 -11.537663,-4.0647 -0.396831,-0.2453 0.194847,-2.8064 1.314841,-5.6913 1.119993,-2.8849 2.092926,-6.3215 2.162073,-7.6368 0.130495,-2.4824 0.149963,-2.4722 -16.744552,-8.7446 -7.9826942,-2.9638 -9.629727,-4.2276 -9.629727,-7.3896 0,-2.6322 0.3420104,-2.9743 2.973249,-2.9743 1.635286,0 5.010286,0.9 7.5,2 2.489713,1.1 6.50299,2.8705 8.918393,3.9343 2.415403,1.0639 5.96391,2.2294 7.885571,2.5899 3.458408,0.6488 3.520506,0.5974 6.108357,-5.0552 1.437937,-3.1409 2.61443,-6.5605 2.61443,-7.59919 0,-1.90364 -5.015912,-4.65762 -18,-9.88286 -9.271519,-3.73118 -10.918644,-5.15063 -9.690532,-8.35104 0.83541,-2.17704 4.099751,-2.06336 10.454649,0.36408 2.879736,1.1 7.566581,2.8907 10.415212,3.97933 2.84863,1.08863 5.63863,2.43863 6.2,3 0.561369,0.56137 1.83652,1.02067 2.833668,1.02067 1.702939,0 3.326748,-2.74078 6.665206,-11.25 0.616455,-1.57125 1.838224,-2.74376 2.850358,-2.73545 4.658002,0.0383 22.250848,8.18855 28.271439,13.09738 10.484253,8.54823 13.958582,14.86228 13.984944,25.41558 0.02063,8.2591 1.294608,9.7064 11.231369,12.7598 4.55603,1.4 10.75869,3.3094 13.78369,4.2431 13.18598,4.0702 30.83455,7.3419 43.80706,8.1209 9.10632,0.5469 11.19294,-0.2523 11.19294,-4.2867 0,-1.917 1.09604,-2.9094 5.53366,-5.0106 3.04351,-1.441 5.80792,-2.3458 6.14313,-2.0106 0.33521,0.3353 -0.24244,0.9122 -1.28366,1.2821 -2.89584,1.0287 -6.39313,4.5264 -6.39313,6.3938 0,0.9189 0.91095,2.4951 2.02433,3.5027 2.68457,2.4295 2.1862,3.4164 -2.55933,5.0679 -4.24168,1.4763 -27.5347,2.0086 -28.87969,0.6601 z m -79.040601,-6.6889 c 7.575983,-2.6406 12.479173,-6.6669 15.566745,-12.7826 3.499985,-6.9326 3.850042,-13.9995 0.969317,-19.5683 -3.144589,-6.07903 -17.213601,-18.20381 -21.134525,-18.21395 -0.795437,-0.002 -2.919625,-0.90205 -4.720419,-2 -1.800793,-1.09794 -3.942494,-1.99626 -4.759336,-1.99626 -0.860184,0 -2.791899,2.84051 -4.590395,6.75 -1.707874,3.7125 -3.954923,8.55 -4.99344,10.75001 -1.038518,2.2 -1.886964,4.5505 -1.885437,5.2232 0.0015,0.6728 -0.897222,3.2603 -1.997222,5.75 -1.1,2.4898 -2.9,6.5638 -4,9.0535 -3.145649,7.1198 -2.723984,10.0772 1.75,12.2738 2.0625,1.0126 5.775,2.4031 8.25,3.0901 2.475,0.687 5.625,1.6198 7,2.0729 3.951761,1.3021 10.146185,1.1307 14.544712,-0.4024 z m -8.878045,-17.2278 c -1.274483,-1.2745 -0.656797,-4.1886 0.95594,-4.51 0.892433,-0.1778 2.406587,-2.3311 3.364785,-4.7851 l 1.742178,-4.4618 1.635215,3.1621 c 2.015215,3.897 2.023895,4.2615 0.10149,4.2615 -0.843549,0 -2.462998,1.575 -3.598776,3.5 -2.062349,3.4954 -2.944058,4.0901 -4.200832,2.8333 z M 225.697,1043.5426 c -3.81503,-2.3263 -7.25331,-6.5935 -8.07493,-10.0215 -0.34109,-1.4231 -1.42137,-4.1886 -2.40062,-6.1455 -1.72599,-3.4491 -1.72165,-3.5946 0.1419,-4.7584 1.05729,-0.6603 1.92235,-2.1147 1.92235,-3.2319 0,-5.1974 8.93031,-17.2358 15.25,-20.5576 3.01744,-1.58604 3.72086,-5.71153 1.63757,-9.60418 -1.81564,-3.39256 0.77358,-9.58585 6.52895,-15.61697 6.82862,-7.15579 9.05374,-8.17296 17.87883,-8.17296 5.7891,0 7.72912,0.37997 8.93498,1.75 1.57786,1.79267 5.88408,10.25 5.21899,10.25 -0.20304,0 -2.47379,-2.25 -5.04609,-5 -4.46622,-4.77475 -7.5642,-6.1666 -8.90323,-4 -0.33992,0.55 -1.50153,1 -2.58136,1 -2.62062,0 -10.60997,7.47463 -13.00293,12.16521 -3.56034,6.97886 -2.11905,9.83479 4.96329,9.83479 2.46345,0 5.97345,0.5404 7.8,1.20089 2.67064,0.96571 3.321,1.74215 3.321,3.96481 0,3.38602 -2.39185,4.83431 -7.98392,4.83431 -10.1406,0 -26.35151,13.5431 -24.59379,20.5464 0.32178,1.2821 0.1334,2.6102 -0.41862,2.9513 -1.30873,0.8089 -1.29034,6.0981 0.0298,8.5648 0.56839,1.062 2.86091,2.8633 5.0945,4.0028 3.44286,1.7564 5.37869,2.0053 12.71656,1.6353 4.76053,-0.24 10.6805,-0.9735 13.1555,-1.63 2.475,-0.6565 5.85,-1.4531 7.5,-1.7703 3.63213,-0.6981 4.68299,-2.0899 3.39504,-4.4964 -1.21266,-2.2659 0.13622,-2.3562 4.15462,-0.2782 4.1955,2.1695 3.93745,5.1985 -0.51403,6.0336 -1.90541,0.3574 -3.95793,1.2446 -4.56117,1.9715 -0.60324,0.7268 -3.65677,2.0544 -6.78563,2.9502 -3.12886,0.8958 -7.07078,2.054 -8.75983,2.5738 -1.68905,0.5199 -7.53905,0.9435 -13,0.9415 -7.95972,0 -10.5416,-0.3773 -13.0177,-1.8873 z m 54.25537,1.2243 c -2.94089,-2.9409 4.83485,-18.003 18.61233,-36.0532 10.41887,-13.65011 25.57822,-29.28011 28.39838,-29.28011 1.67132,0 2.32262,0.57219 2.32262,2.04049 0,2.60848 -2.85594,6.67037 -10.99005,15.63069 -3.58047,3.94413 -8.20829,9.34413 -10.28404,12.00003 -2.07574,2.6558 -5.02535,6.4038 -6.55468,8.3288 -7.91052,9.9571 -11.07209,17 -7.63139,17 2.99591,0 16.57659,-8.0255 19.46016,-11.5 1.6223,-1.9548 8.9516,-6.9245 14.04217,-9.5215 10.42283,-5.3174 17.77782,1.0572 11.67266,10.1167 -1.25684,1.865 -3.16934,3.5589 -4.25,3.7641 -1.88116,0.3572 -1.89031,0.2903 -0.21483,-1.5718 4.22681,-4.6977 0.0922,-7.4096 -4.25,-2.7875 -1.29175,1.375 -2.87544,2.5 -3.51933,2.5 -1.69732,0 -4.48067,3.3648 -4.48067,5.4166 0,1.4882 0.59556,1.6586 3.86629,1.106 3.35636,-0.5671 3.93752,-0.3808 4.40638,1.4121 0.29705,1.1359 1.3035,2.0653 2.23655,2.0653 1.81568,0 23.27476,-13.7709 27.57054,-17.6928 3.10258,-2.8325 12.19317,-6.3072 16.50114,-6.3072 5.30109,0 8.12271,5.2992 5.26128,9.8811 -1.4861,2.3796 -0.43993,5.1189 1.95499,5.1189 1.96785,0 11.42905,-5.7915 12.09504,-7.4038 0.21571,-0.5222 2.06433,-2.7825 4.10805,-5.0228 6.59146,-7.2257 7.62261,-11.0059 3.43633,-12.5975 -2.13684,-0.8124 -2.51125,-1.51555 -2.25,-4.22527 l 0.31341,-3.25064 7.5,-0.5 c 8.49438,-0.56629 9.41663,-0.9712 11.53279,-5.06341 1.23794,-2.39391 2.16062,-2.93659 4.99289,-2.93659 3.13854,0 3.47432,0.27061 3.47432,2.8 0,4.74766 1.32793,5.2 15.26574,5.2 7.07616,0 13.73616,0.46583 14.8,1.03518 2.52357,1.35058 2.47164,5.16852 -0.10198,7.49763 -1.7574,1.5904 -2.48605,1.6801 -5.321,0.655 -1.99408,-0.7211 -9.26304,-1.1878 -18.49949,-1.1878 -17.15306,0 -14.82725,-0.9638 -23.43875,9.7128 -10.58849,13.1276 -13.89436,18.0629 -13.49349,20.1445 0.46455,2.4122 3.67275,2.5934 6.12818,0.346 1.18843,-1.0877 3.96079,-2.8805 6.16079,-3.984 4.88192,-2.4489 6.54336,-4.2691 9.78418,-10.7193 2.94285,-5.8572 7.41202,-9.5 11.655,-9.5 2.51676,0 3.36032,0.6667 5.06082,4 1.34297,2.6324 2.71748,4 4.02032,4 1.57104,0 1.97968,0.6779 1.97968,3.2842 0,2.6557 -1.0524,4.3234 -5.5,8.7158 -5.51634,5.4478 -6.80561,8.5617 -3.9919,9.6415 1.74128,0.6682 7.62456,-1.8915 9.47658,-4.1231 0.69312,-0.8351 1.71307,-1.5184 2.26656,-1.5184 0.5535,0 2.73839,-1.4625 4.85532,-3.25 10.32115,-8.715 15.89927,-12.0782 25.36058,-15.2904 3.97766,-1.3504 5.04256,-1.3629 8.77978,-0.1032 l 4.25308,1.4337 0.29216,5.891 c 0.25871,5.2164 0.001,6.1645 -2.25,8.2793 -2.77934,2.611 -3.39616,6.0396 -1.08657,6.0396 0.80058,0 3.01587,-1.0125 4.92287,-2.25 1.907,-1.2375 5.93622,-3.7445 8.95381,-5.5712 3.01759,-1.8266 6.27204,-4.1891 7.23212,-5.25 1.06138,-1.1728 3.0567,-1.9288 5.0906,-1.9288 2.83449,0 3.34501,0.3549 3.34501,2.3257 0,1.2791 -1.0125,3.2718 -2.25,4.4283 -2.88415,2.6952 -21.1054,14.8747 -25.96016,17.3524 -4.95943,2.5312 -14.54151,2.6155 -16.34879,0.1439 -1.15428,-1.5786 -1.60529,-1.6111 -4.61025,-0.3321 -1.83194,0.7797 -6.1399,1.6053 -9.57324,1.8347 -5.96076,0.3983 -6.28678,0.3004 -7.22525,-2.1679 -1.22592,-3.2244 -2.80757,-3.2393 -9.03231,-0.085 -3.67934,1.8645 -6.50394,2.5 -11.11109,2.5 l -6.17759,0 0.56723,-7.5 c 0.70232,-9.2863 -0.0295,-9.5011 -9.87586,-2.8984 -11.21337,7.5193 -17.68505,10.3984 -23.37417,10.3984 -4.93215,0 -5.02852,-0.058 -5.02852,-3.0314 0,-3.942 -2.19414,-4.7338 -6.84089,-2.4687 -8.35381,4.0722 -13.75292,5.5001 -20.79622,5.5001 -7.12895,0 -7.17583,-0.018 -9.23039,-3.5 -2.37672,-4.0283 -3.73042,-4.2559 -9.07935,-1.5271 -7.3357,3.7424 -12.50759,4.9979 -20.64816,5.0125 -8.39783,0.015 -10.13468,-0.7606 -11.72161,-5.2354 -0.6718,-1.8943 -4.17178,-2.3868 -5.19513,-0.731 -1.59119,2.5746 -10.58324,5.981 -15.78834,5.981 -2.95162,0 -5.66658,-0.3 -6.03324,-0.6667 z m 81.88333,-6.1594 c 0.5225,-0.4544 2.91032,-1.4422 5.30626,-2.1952 2.39595,-0.7529 4.52456,-1.8437 4.73026,-2.4238 0.2057,-0.5802 0.0406,-3.2997 -0.36695,-6.0433 -0.99249,-6.6818 -3.09576,-7.031 -8.77536,-1.4569 -4.66376,4.5772 -7.02081,9.0003 -6.08948,11.4273 0.6274,1.635 3.64814,2.0373 5.19527,0.6919 z m 106.0357,-6.0618 c 7.01361,-4.5574 8.70482,-6.3651 8.23539,-8.8026 -0.51685,-2.6838 -3.45429,-2.7407 -6.87659,-0.1334 -7.36757,5.6133 -10.9445,9.1888 -10.9445,10.9403 0,2.9161 2.96855,2.2954 9.5857,-2.0043 z m -208.0857,-4.1121 c -0.33992,-0.55 0.057,-1 0.88197,-1 0.825,0 1.77811,0.45 2.11803,1 0.33992,0.55 -0.057,1 -0.88197,1 -0.825,0 -1.77811,-0.45 -2.11803,-1 z m -68,-2 c 0.33992,-0.55 1.29303,-1 2.11803,-1 0.825,0 1.22189,0.45 0.88197,1 -0.33992,0.55 -1.29303,1 -2.11803,1 -0.825,0 -1.22189,-0.45 -0.88197,-1 z m 60,0 c -0.33992,-0.55 0.057,-1 0.88197,-1 0.825,0 1.77811,0.45 2.11803,1 0.33992,0.55 -0.057,1 -0.88197,1 -0.825,0 -1.77811,-0.45 -2.11803,-1 z m -50,-2 c 0.33992,-0.55 1.29303,-1 2.11803,-1 0.825,0 1.22189,0.45 0.88197,1 -0.33992,0.55 -1.29303,1 -2.11803,1 -0.825,0 -1.22189,-0.45 -0.88197,-1 z"
         id="path3346"
         style="fill:#030303" />
    </g>
  </g>
</svg>
